<svg id="Layer_1" data-name="Layer 1" xmlns="http://www.w3.org/2000/svg" viewBox="0 0 87.87 100"><defs><style>.cls-1{fill:#fe7f00;}.cls-2{fill:#fd9d10;}.cls-3{fill:#fec80e;}</style></defs><path d="M291.33,445.61l-31.25-31.26V357.54a5.27,5.27,0,0,1,1.79-.75c2.22,0,4.23-1,6.4-1.24a23.23,23.23,0,0,0,3.33-.7,16.94,16.94,0,0,1,3.14-.67c1.59-.14,3.07-.67,4.62-.94a22.57,22.57,0,0,0,4.71-1.05,4.22,4.22,0,0,1,1.44,0,12,12,0,0,1,4.07-3.29,17,17,0,0,1,4.28-1.63c1.53-.35,3.12-.56,4.63-.89,2.33-.51,4.63-.14,6.94-.28a7.44,7.44,0,0,1,1.75.35,4.73,4.73,0,0,1,1.61.29,2.26,2.26,0,0,0,2,0c.83-.61,1.76-.22,2.63-.62a12.86,12.86,0,0,1,3.72-.52l30.8,30.8v57.48C329,437.82,310.12,441.77,291.33,445.61Zm.89-1.35a18.58,18.58,0,0,0,2.5-.43,38.67,38.67,0,0,1,4.17-1c1.6-.3,3.24-.56,4.81-.92,2-.45,4.08-.92,6.1-1.35a43,43,0,0,1,6.76-1.24c.66-.65,1.54-.22,2.29-.49a41.07,41.07,0,0,1,6.29-1.39,19.27,19.27,0,0,1,4.65-.79c.55-.75,1.48-.26,2.2-.71a7,7,0,0,1,2.48-.44,6.07,6.07,0,0,0,2.29-.44c.84-.56,1.9.08,2.6-.69,1.43.11,2.7-.61,4.07-.77a15.09,15.09,0,0,0,3.35-.87V377.57a10.79,10.79,0,0,0-2.13.33,43.69,43.69,0,0,1-6.3,1.38,19.7,19.7,0,0,1-4.64.8c-.58.66-1.57.16-2.17.76-.9-.27-1.65.38-2.52.41a5.5,5.5,0,0,0-2.3.4c-.78.41-1.6.13-2.31.43-2,.82-4.08.92-6.11,1.38-1.58.35-3.24.55-4.81.91-2.33.53-4.69,1-7,1.5a18.22,18.22,0,0,0-2.31.4,25.43,25.43,0,0,1-4.16,1,20.72,20.72,0,0,1-4.83.84c-.89.69-2.2.08-3,.95Zm-31-85.35v54.35L291,443V388.63Zm52-11.59-.14.33a9.58,9.58,0,0,0,1.31.68,11.26,11.26,0,0,1,5.18,3.6,5.79,5.79,0,0,1,1.27,3.87c-.09,3.05,0,6.12,0,9.17a6,6,0,0,1-1.88,4.59,16,16,0,0,1-4.37,2.87,30.43,30.43,0,0,1-9.19,2.26,24.74,24.74,0,0,1-4.39,0c-1.41-.06-2.82-.24-4.24-.37a2.13,2.13,0,0,1-.33-.11,50.85,50.85,0,0,1-5.58-1.77,12.44,12.44,0,0,1-5-3.53,5.68,5.68,0,0,1-1.36-3.83c.1-2.23,0-4.46,0-6.69,0-1.09,0-2.17,0-3.25a14.23,14.23,0,0,1,.29-1.79L262.45,358l29.68,29.69,54-11.19-29.75-29.75ZM286,353.49c0,.28.11.62,0,.77-.6.75-.33,1.42-.09,2.23.59,2,2,3.14,3.76,4.13a27.44,27.44,0,0,0,10.22,3,25.73,25.73,0,0,0,4.39,0c1.41-.06,2.82-.24,4.23-.37a1.37,1.37,0,0,0,.35-.08c1.49-.56,3.09-.77,4.56-1.44a15,15,0,0,0,5-3.14,5.32,5.32,0,0,0,1.23-2.93,4.22,4.22,0,0,0-.84-2.7c-1.24-2.18-3.38-2.95-5.46-3.85-.76-.32-1.57-.52-2.36-.77a24.86,24.86,0,0,0-2.55-.75c-.83-.15-1.74.21-2.51-.4h-6.49c-.78.7-1.79.21-2.66.51s-1.76.34-2.59.66a24.36,24.36,0,0,0-4.71,2A37,37,0,0,0,286,353.49Zm-.37,5.11c0,2.7,0,4.91,0,7.12a3.78,3.78,0,0,0,.51,1.68,8.14,8.14,0,0,0,3.42,3.15,25.88,25.88,0,0,0,11.15,3,31.81,31.81,0,0,0,6.53-.27,27.29,27.29,0,0,0,4.59-1,18.41,18.41,0,0,0,5.24-2.54,5.42,5.42,0,0,0,2.51-3.66c.21-2.31.06-4.66.06-7.31a14.7,14.7,0,0,1-5.47,4A19.43,19.43,0,0,1,310,364a21.15,21.15,0,0,1-4.64.73c-2.23,0-4.51.51-6.71-.33a11.81,11.81,0,0,1-4.64-.79A16.2,16.2,0,0,1,289.7,362C288.32,361.21,286.77,360.49,285.65,358.6Z" transform="translate(-260.08 -345.61)"/><path class="cls-1" d="M292.22,444.26v-55.2c.76-.87,2.07-.26,3-.95a20.72,20.72,0,0,0,4.83-.84,25.43,25.43,0,0,0,4.16-1,18.22,18.22,0,0,1,2.31-.4c2.32-.54,4.68-1,7-1.5,1.57-.36,3.23-.56,4.81-.91,2-.46,4.15-.56,6.11-1.38.71-.3,1.53,0,2.31-.43a5.5,5.5,0,0,1,2.3-.4c.87,0,1.62-.68,2.52-.41.6-.6,1.59-.1,2.17-.76a19.7,19.7,0,0,0,4.64-.8,43.69,43.69,0,0,0,6.3-1.38,10.79,10.79,0,0,1,2.13-.33v55.19a15.09,15.09,0,0,1-3.35.87c-1.37.16-2.64.88-4.07.77-.7.77-1.76.13-2.6.69a6.07,6.07,0,0,1-2.29.44A7,7,0,0,0,332,436c-.72.45-1.65,0-2.2.71a19.27,19.27,0,0,0-4.65.79,41.07,41.07,0,0,0-6.29,1.39c-.75.27-1.63-.16-2.29.49a43,43,0,0,0-6.76,1.24c-2,.43-4.07.9-6.1,1.35-1.57.36-3.21.62-4.81.92a38.67,38.67,0,0,0-4.17,1A18.58,18.58,0,0,1,292.22,444.26Z" transform="translate(-260.08 -345.61)"/><path class="cls-2" d="M261.23,358.91,291,388.63V443l-29.72-29.72Z" transform="translate(-260.08 -345.61)"/><path class="cls-3" d="M313.24,347.32l3.15-.56,29.75,29.75-54,11.19L262.45,358l22.36-4.64a14.23,14.23,0,0,0-.29,1.79c0,1.08,0,2.16,0,3.25,0,2.23.07,4.46,0,6.69a5.68,5.68,0,0,0,1.36,3.83,12.44,12.44,0,0,0,5,3.53,50.85,50.85,0,0,0,5.58,1.77,2.13,2.13,0,0,0,.33.11c1.42.13,2.83.31,4.24.37a24.74,24.74,0,0,0,4.39,0,30.43,30.43,0,0,0,9.19-2.26,16,16,0,0,0,4.37-2.87,6,6,0,0,0,1.88-4.59c0-3.05-.07-6.12,0-9.17a5.79,5.79,0,0,0-1.27-3.87,11.26,11.26,0,0,0-5.18-3.6,9.58,9.58,0,0,1-1.31-.68Z" transform="translate(-260.08 -345.61)"/><path class="cls-3" d="M286,353.49a37,37,0,0,1,3.47-3.12,24.36,24.36,0,0,1,4.71-2c.83-.32,1.75-.38,2.59-.66s1.88.19,2.66-.51h6.49c.77.61,1.68.25,2.51.4a24.86,24.86,0,0,1,2.55.75c.79.25,1.6.45,2.36.77,2.08.9,4.22,1.67,5.46,3.85a4.22,4.22,0,0,1,.84,2.7,5.32,5.32,0,0,1-1.23,2.93,15,15,0,0,1-5,3.14c-1.47.67-3.07.88-4.56,1.44a1.37,1.37,0,0,1-.35.08c-1.41.13-2.82.31-4.23.37a25.73,25.73,0,0,1-4.39,0,27.44,27.44,0,0,1-10.22-3c-1.74-1-3.17-2.09-3.76-4.13-.24-.81-.51-1.48.09-2.23C286.13,354.11,286,353.77,286,353.49Z" transform="translate(-260.08 -345.61)"/><path class="cls-1" d="M285.65,358.6c1.12,1.89,2.67,2.61,4.05,3.44a16.2,16.2,0,0,0,4.29,1.57,11.81,11.81,0,0,0,4.64.79c2.2.84,4.48.31,6.71.33A21.15,21.15,0,0,0,310,364a19.43,19.43,0,0,0,4.24-1.27,14.7,14.7,0,0,0,5.47-4c0,2.65.15,5-.06,7.31a5.42,5.42,0,0,1-2.51,3.66,18.41,18.41,0,0,1-5.24,2.54,27.29,27.29,0,0,1-4.59,1,31.81,31.81,0,0,1-6.53.27,25.88,25.88,0,0,1-11.15-3,8.14,8.14,0,0,1-3.42-3.15,3.78,3.78,0,0,1-.51-1.68C285.62,363.51,285.65,361.3,285.65,358.6Z" transform="translate(-260.08 -345.61)"/></svg>