<svg id="Layer_1" data-name="Layer 1" xmlns="http://www.w3.org/2000/svg" viewBox="0 0 100 77.49"><defs><style>.cls-1{fill:#005000;}.cls-2{fill:#009500;}.cls-3{fill:#006e00;}</style></defs><path d="M312.6,361.26a7.79,7.79,0,0,1,2.88-2.36,11.62,11.62,0,0,1,3-1.08,12.52,12.52,0,0,1,3.23-.58c.3,0,.58-.26.95-.25,1.33,0,2.67,0,4,0,.64.53,1.54,0,2.17.53.58-.12,1.19.21,1.78-.22.35-.25.87-.07,1.35-.25a10.88,10.88,0,0,1,2.6-.37L356,378.13v40a32.75,32.75,0,0,0-3.52.84,13.51,13.51,0,0,1-1.61.27,20.48,20.48,0,0,1-2.33.48,12.64,12.64,0,0,0-2.36.42c-1.4.47-2.87.5-4.25,1a5.65,5.65,0,0,1-1.48.24c-.53,0-1,.33-1.48.32a7.49,7.49,0,0,0-1.48.31,16.35,16.35,0,0,0-2.31.49c-.71.25-1.52.1-2.18.53-1.13-.15-2.13.48-3.23.58a3.18,3.18,0,0,0-1.46.26c-.53.39-1.13,0-1.59.38s-1.07-.17-1.44.37c-1.13-.14-2.13.49-3.23.59a3.18,3.18,0,0,0-1.46.26c-.53.38-1.13,0-1.59.38s-1,.05-1.47.31-1.24.12-1.86.31-1.19.12-1.74.3c-1.25.39-2.55.47-3.8.81a38.84,38.84,0,0,0-4.24,1,10.2,10.2,0,0,1-1.61.28c-1.62.38-3.26.68-4.88,1.05-1.09.25-2.25.39-3.35.63a24.69,24.69,0,0,0-4.25,1,13.51,13.51,0,0,1-1.61.27,22.91,22.91,0,0,1-2.33.48,12.89,12.89,0,0,0-2.37.42,33.33,33.33,0,0,1-4.11.93,13.54,13.54,0,0,1-3.73.61L256,412.52V373a3.92,3.92,0,0,1,1.25-.52c1.54,0,2.94-.69,4.45-.86a14.52,14.52,0,0,0,2.32-.49,12.14,12.14,0,0,1,2.18-.47c1.11-.09,2.14-.47,3.22-.65a16.33,16.33,0,0,0,3.28-.73,3,3,0,0,1,1,0,8.32,8.32,0,0,1,2.83-2.29,11.91,11.91,0,0,1,3-1.14c1.05-.24,2.16-.38,3.21-.62a31.37,31.37,0,0,1,4.83-.19,5.4,5.4,0,0,1,1.22.25,7.72,7.72,0,0,1,1.12.19,2,2,0,0,0,1.76-.1c.45-.28,1,0,1.48-.3a6.46,6.46,0,0,1,2.12-.33,5.19,5.19,0,0,0,1.84-.34c.56-.32,1.16-.06,1.71-.41s1.17-.13,1.72-.33c1.07-.37,2.24-.27,3.27-.78,1.58,0,3.05-.59,4.58-.85a11.24,11.24,0,0,0,3.15-.72C311.79,361.15,312.15,361.26,312.6,361.26Zm-34.22,72.08a8,8,0,0,0,1.39-.24c.53-.2,1.16-.09,1.6-.3a16.06,16.06,0,0,1,2.77-.7c.91-.25,1.88-.35,2.82-.58.74-.17,1.5-.22,2.24-.38a20.82,20.82,0,0,0,2.2-.49,13.58,13.58,0,0,0,2-.42c.57-.3,1.36-.12,2-.34s1.08-.07,1.48-.28a13.47,13.47,0,0,1,2.76-.7c.91-.25,1.89-.36,2.83-.58.73-.17,1.5-.22,2.24-.38a18.89,18.89,0,0,0,2.19-.5,12.35,12.35,0,0,0,1.95-.42c.57-.29,1.36-.12,2-.34s1.07-.06,1.48-.27a11.75,11.75,0,0,1,2.89-.71c1-.22,2-.33,3-.57.73-.18,1.5-.22,2.24-.38s1.51-.27,2.19-.5a12.35,12.35,0,0,0,2-.42c.57-.29,1.36-.12,2-.34s1.07-.06,1.47-.27a13,13,0,0,1,2.77-.71c.91-.25,1.88-.35,2.82-.58.74-.17,1.5-.21,2.24-.38a20.09,20.09,0,0,0,2.19-.49c.65-.23,1.32-.09,2-.42s1.35-.13,2-.34,1.09-.06,1.47-.28,1.05-.19,1.56-.45a5.32,5.32,0,0,1,1.73-.31,4.6,4.6,0,0,0,1.6-.3c.53-.31,1.08-.14,1.6-.3,1-.32,2.11-.49,3.16-.73.76-.18,1.5-.39,2.17-.56V378.9c-.27.07-.5.14-.73.18a6.06,6.06,0,0,0-.76.1,34.67,34.67,0,0,1-4.39.95,13.65,13.65,0,0,1-3.23.55c-.38.53-1,.17-1.54.49a4.66,4.66,0,0,1-1.72.31,5.11,5.11,0,0,0-1.6.3c-.54.3-1.1.11-1.61.3a25.4,25.4,0,0,1-4.38,1,13.18,13.18,0,0,1-3.23.56c-.41.46-1.09.11-1.51.53-.63-.18-1.15.27-1.75.29a3.72,3.72,0,0,0-1.61.28c-.54.28-1.09.14-1.61.28a30.54,30.54,0,0,1-3.28.75,5.43,5.43,0,0,1-1.75.28c-.49.53-1.2.14-1.8.47a6.34,6.34,0,0,1-2,.32,12.59,12.59,0,0,0-1.85.35,35.05,35.05,0,0,1-4.39.95,13.67,13.67,0,0,1-3.23.56c-.38.52-1,.17-1.54.49a4.7,4.7,0,0,1-1.72.31,4.84,4.84,0,0,0-1.6.3c-.54.3-1.11.1-1.61.3a27.41,27.41,0,0,1-4.38,1,14.19,14.19,0,0,1-3.24.56c-.4.46-1.09.1-1.5.53-.63-.19-1.15.26-1.75.28a3.72,3.72,0,0,0-1.61.28c-.54.28-1.1.11-1.61.29a17.38,17.38,0,0,1-2.89.7,16.09,16.09,0,0,1-3.36.58c-.61.5-1.54,0-2,.63ZM331.8,357.9c0,.64.58.56.85.67a8.13,8.13,0,0,1,3.61,2.5,4,4,0,0,1,.9,2.69c-.06,2.22,0,4.43,0,6.65a3.93,3.93,0,0,1-1.18,2.84,11.53,11.53,0,0,1-2.69,1.88,18.2,18.2,0,0,1-4.82,1.54,13.22,13.22,0,0,1-2.67.28c-.93,0-1.87,0-2.8,0s-1.76-.44-2.68-.27c-1.23-.6-2.61-.65-3.86-1.28a10.14,10.14,0,0,1-3.45-2.26,4.21,4.21,0,0,1-1.14-2.85c0-2.53,0-5.06,0-7.48l.35-.69L293,366l0,.2a3.83,3.83,0,0,0,.73.42,7.85,7.85,0,0,1,3.56,2.32,4.21,4.21,0,0,1,1,2.76c0,2.17,0,4.35,0,6.52a4.2,4.2,0,0,1-1.31,3.19,11.24,11.24,0,0,1-3,2,21.44,21.44,0,0,1-6.4,1.57,16.35,16.35,0,0,1-3.05,0c-1,0-2-.16-2.95-.26a.7.7,0,0,1-.23-.08,35.75,35.75,0,0,1-3.89-1.22,8.62,8.62,0,0,1-3.57-2.56,3.79,3.79,0,0,1-.86-2.7c.06-2.17,0-4.35,0-6.52a8.45,8.45,0,0,1,.13-1c0-.18.06-.35.09-.5l-15.59,3.24L278.29,394c1-.19,2.13-.3,3.17-.6s2.11-.47,3.16-.69,2.16-.34,3.21-.62,2.1-.5,3.16-.71,2.15-.39,3.21-.63,2.12-.41,3.16-.68,2.15-.42,3.21-.64,2.11-.49,3.16-.67,2.13-.48,3.21-.67a27.26,27.26,0,0,0,3.15-.68c1-.31,2.2-.24,3.22-.6a29.31,29.31,0,0,1,3.17-.67c1-.26,2.14-.43,3.21-.64s2.11-.44,3.16-.71,2.14-.39,3.2-.61,2.12-.41,3.17-.7a23.15,23.15,0,0,1,3.2-.61c1.09-.16,2.17-.37,3.22-.61s2.1-.5,3.15-.71,2.15-.42,3.22-.61,2.1-.51,3.15-.72,2.17-.38,3.21-.62,2.13-.36,3.16-.71a22.63,22.63,0,0,1,3.08-.61L334,357.57Zm-75,16.23v37.68l20.67,20.67V394.8Zm56.11-12c0,.18,0,.29,0,.36a2.8,2.8,0,0,0,.41,2.81,6.23,6.23,0,0,0,2.48,2.06,20.06,20.06,0,0,0,3.22,1.2,19.22,19.22,0,0,0,3.45.63,12.94,12.94,0,0,0,3,0c1,0,2.05-.17,3.08-.25,0,0,.11,0,.13,0a2.83,2.83,0,0,1,1.65-.48c.65-.09,1.09-.69,1.77-.58a11.12,11.12,0,0,0,3.33-2.21,3.06,3.06,0,0,0,.81-2.69,4.34,4.34,0,0,0-1.75-2.55,11.42,11.42,0,0,0-3.09-1.53,10.72,10.72,0,0,0-4-.87c-.09,0-.2,0-.26,0-.76-.58-1.62-.17-2.42-.24a6.16,6.16,0,0,0-2.5,0c-.64.22-1.26.07-1.87.31s-1.24.21-1.8.44A19.35,19.35,0,0,0,315.3,360C314.4,360.62,313.8,361.48,312.93,362.14Zm-38.86,8a1.29,1.29,0,0,1,0,.35,2.79,2.79,0,0,0,.4,2.82,6.34,6.34,0,0,0,2.48,2.05,20.53,20.53,0,0,0,3.23,1.2,19.24,19.24,0,0,0,3.45.64,14.11,14.11,0,0,0,3.05,0c1-.05,2.05-.17,3.08-.26,0,0,.1,0,.13,0a2.74,2.74,0,0,1,1.65-.48c.65-.09,1.09-.69,1.76-.59a11.17,11.17,0,0,0,3.34-2.21,3.12,3.12,0,0,0,.81-2.69,4.36,4.36,0,0,0-1.76-2.55,11.37,11.37,0,0,0-3.08-1.53c-1.32-.37-2.6-1-4-.86-.09,0-.21,0-.26,0-.76-.57-1.62-.17-2.42-.24a6.22,6.22,0,0,0-2.51,0c-.63.22-1.26.07-1.86.31s-1.24.21-1.81.45a18.44,18.44,0,0,0-3.27,1.41C275.55,368.6,275,369.46,274.07,370.13Zm62.28-4.26a10.33,10.33,0,0,1-3.81,2.74,12.73,12.73,0,0,1-3,.88,26.85,26.85,0,0,1-3.23.53,15.88,15.88,0,0,1-2.39,0,4.15,4.15,0,0,1-2.28-.26,8,8,0,0,1-3.22-.55,10.91,10.91,0,0,1-3-1.09,7.89,7.89,0,0,1-2.74-2.09c-.08,1.4-.08,2.76-.08,4.12a4,4,0,0,0,1.8,3.32,9.27,9.27,0,0,0,3,1.47c.48.13,1,.26,1.42.42s1,.4,1.51.51,1.1-.06,1.55.13a4.11,4.11,0,0,0,1.66.14,28.91,28.91,0,0,0,4.15-.2,18.24,18.24,0,0,0,3.19-.68,12.79,12.79,0,0,0,3.64-1.77,3.78,3.78,0,0,0,1.76-2.55C336.46,369.34,336.35,367.71,336.35,365.87Zm-62.54,8.24c0,1.32,0,2.64,0,4a4,4,0,0,0,1.76,3.37,10.14,10.14,0,0,0,2.85,1.42,18.58,18.58,0,0,0,3.17,1,28.9,28.9,0,0,0,3.73.36,26.75,26.75,0,0,0,4.4-.35,13.39,13.39,0,0,0,4.31-1.41,18.32,18.32,0,0,0,1.92-1.14,4.9,4.9,0,0,0,1.56-2.2c-.05-1.64.06-3.34-.07-5.13a10.55,10.55,0,0,1-4.49,2.9,23.61,23.61,0,0,1-5.36,1.14,14.89,14.89,0,0,1-4.11,0,31.21,31.21,0,0,1-3.67-.7,17,17,0,0,1-3.11-1.16A8.56,8.56,0,0,1,273.81,374.11Z" transform="translate(-256.01 -356.69)"/><path class="cls-1" d="M278.38,433.34V394.89c.5-.6,1.43-.13,2-.63a16.09,16.09,0,0,0,3.36-.58,17.38,17.38,0,0,0,2.89-.7c.51-.18,1.07,0,1.61-.29a3.72,3.72,0,0,1,1.61-.28c.6,0,1.12-.47,1.75-.28.41-.43,1.1-.07,1.5-.53a14.19,14.19,0,0,0,3.24-.56,27.41,27.41,0,0,0,4.38-1c.5-.2,1.07,0,1.61-.3a4.84,4.84,0,0,1,1.6-.3,4.7,4.7,0,0,0,1.72-.31c.51-.32,1.16,0,1.54-.49a13.67,13.67,0,0,0,3.23-.56,35.05,35.05,0,0,0,4.39-.95,12.59,12.59,0,0,1,1.85-.35,6.34,6.34,0,0,0,2-.32c.6-.33,1.31.06,1.8-.47a5.43,5.43,0,0,0,1.75-.28,30.54,30.54,0,0,0,3.28-.75c.52-.14,1.07,0,1.61-.28a3.72,3.72,0,0,1,1.61-.28c.6,0,1.12-.47,1.75-.29.42-.42,1.1-.07,1.51-.53a13.18,13.18,0,0,0,3.23-.56,25.4,25.4,0,0,0,4.38-1c.51-.19,1.07,0,1.61-.3a5.11,5.11,0,0,1,1.6-.3,4.66,4.66,0,0,0,1.72-.31c.51-.32,1.16,0,1.54-.49a13.65,13.65,0,0,0,3.23-.55,34.67,34.67,0,0,0,4.39-.95,6.06,6.06,0,0,1,.76-.1c.23,0,.46-.11.73-.18v38.48c-.67.17-1.41.38-2.17.56-1,.24-2.12.41-3.16.73-.52.16-1.07,0-1.6.3a4.6,4.6,0,0,1-1.6.3,5.32,5.32,0,0,0-1.73.31c-.51.26-1.06.15-1.56.45s-1,.1-1.47.28-1.42,0-2,.34-1.31.19-2,.42a20.09,20.09,0,0,1-2.19.49c-.74.17-1.5.21-2.24.38-.94.23-1.91.33-2.82.58a13,13,0,0,0-2.77.71c-.4.21-1,.09-1.47.27s-1.42.05-2,.34a12.35,12.35,0,0,1-2,.42c-.68.23-1.46.33-2.19.5s-1.51.2-2.24.38c-1,.24-2,.35-3,.57a11.75,11.75,0,0,0-2.89.71c-.41.21-1,.09-1.48.27s-1.42.05-2,.34a12.35,12.35,0,0,1-1.95.42,18.89,18.89,0,0,1-2.19.5c-.74.16-1.51.21-2.24.38-.94.22-1.92.33-2.83.58a13.47,13.47,0,0,0-2.76.7c-.4.21-1,.1-1.48.28s-1.41,0-2,.34a13.58,13.58,0,0,1-2,.42,20.82,20.82,0,0,1-2.2.49c-.74.16-1.5.21-2.24.38-.94.23-1.91.33-2.82.58a16.06,16.06,0,0,0-2.77.7c-.44.21-1.07.1-1.6.3A8,8,0,0,1,278.38,433.34Z" transform="translate(-256.01 -356.69)"/><path class="cls-2" d="M331.8,357.9l2.15-.33,20.66,20.67a22.63,22.63,0,0,0-3.08.61c-1,.35-2.11.46-3.16.71s-2.14.41-3.21.62-2.1.53-3.15.72-2.15.4-3.22.61-2.1.46-3.15.71-2.13.45-3.22.61a23.15,23.15,0,0,0-3.2.61c-1.05.29-2.11.48-3.17.7s-2.15.35-3.2.61-2.11.5-3.16.71-2.16.38-3.21.64a29.31,29.31,0,0,0-3.17.67c-1,.36-2.18.29-3.22.6a27.26,27.26,0,0,1-3.15.68c-1.08.19-2.13.49-3.21.67s-2.11.44-3.16.67-2.16.37-3.21.64-2.11.44-3.16.68-2.14.43-3.21.63-2.11.44-3.16.71-2.14.39-3.21.62-2.12.4-3.16.69-2.14.41-3.17.6l-20.65-20.64,15.59-3.24c0,.15-.07.32-.09.5a8.45,8.45,0,0,0-.13,1c0,2.17,0,4.35,0,6.52a3.79,3.79,0,0,0,.86,2.7,8.62,8.62,0,0,0,3.57,2.56,35.75,35.75,0,0,0,3.89,1.22.7.7,0,0,0,.23.08c1,.1,2,.22,2.95.26a16.35,16.35,0,0,0,3.05,0,21.44,21.44,0,0,0,6.4-1.57,11.24,11.24,0,0,0,3-2,4.2,4.2,0,0,0,1.31-3.19c0-2.17,0-4.35,0-6.52a4.21,4.21,0,0,0-1-2.76,7.85,7.85,0,0,0-3.56-2.32,3.83,3.83,0,0,1-.73-.42l0-.2,19.22-3.82-.35.69c0,2.42,0,4.95,0,7.48a4.21,4.21,0,0,0,1.14,2.85,10.14,10.14,0,0,0,3.45,2.26c1.25.63,2.63.68,3.86,1.28.92-.17,1.78.28,2.68.27s1.87,0,2.8,0a13.22,13.22,0,0,0,2.67-.28,18.2,18.2,0,0,0,4.82-1.54,11.53,11.53,0,0,0,2.69-1.88,3.93,3.93,0,0,0,1.18-2.84c0-2.22,0-4.43,0-6.65a4,4,0,0,0-.9-2.69,8.13,8.13,0,0,0-3.61-2.5C332.38,358.46,331.83,358.54,331.8,357.9Z" transform="translate(-256.01 -356.69)"/><path class="cls-3" d="M256.82,374.13l20.67,20.67v37.68l-20.67-20.67Z" transform="translate(-256.01 -356.69)"/><path class="cls-2" d="M312.93,362.14c.87-.66,1.47-1.52,2.37-2.11a19.35,19.35,0,0,1,3.28-1.42c.56-.23,1.23-.22,1.8-.44s1.23-.09,1.87-.31a6.16,6.16,0,0,1,2.5,0c.8.07,1.66-.34,2.42.24.06,0,.17,0,.26,0a10.72,10.72,0,0,1,4,.87,11.42,11.42,0,0,1,3.09,1.53A4.34,4.34,0,0,1,336.3,363a3.06,3.06,0,0,1-.81,2.69,11.12,11.12,0,0,1-3.33,2.21c-.68-.11-1.12.49-1.77.58a2.83,2.83,0,0,0-1.65.48s-.09,0-.13,0c-1,.08-2.05.21-3.08.25a12.94,12.94,0,0,1-3,0,19.22,19.22,0,0,1-3.45-.63,20.06,20.06,0,0,1-3.22-1.2,6.23,6.23,0,0,1-2.48-2.06,2.8,2.8,0,0,1-.41-2.81C313,362.43,312.93,362.32,312.93,362.14Z" transform="translate(-256.01 -356.69)"/><path class="cls-2" d="M274.07,370.13c.88-.67,1.48-1.53,2.38-2.12a18.44,18.44,0,0,1,3.27-1.41c.57-.24,1.24-.23,1.81-.45s1.23-.09,1.86-.31a6.22,6.22,0,0,1,2.51,0c.8.07,1.66-.33,2.42.24.05,0,.17,0,.26,0,1.43-.15,2.71.49,4,.86a11.37,11.37,0,0,1,3.08,1.53,4.36,4.36,0,0,1,1.76,2.55,3.12,3.12,0,0,1-.81,2.69,11.17,11.17,0,0,1-3.34,2.21c-.67-.1-1.11.5-1.76.59a2.74,2.74,0,0,0-1.65.48s-.09,0-.13,0c-1,.09-2.06.21-3.08.26a14.11,14.11,0,0,1-3.05,0,19.24,19.24,0,0,1-3.45-.64,20.53,20.53,0,0,1-3.23-1.2,6.34,6.34,0,0,1-2.48-2.05,2.79,2.79,0,0,1-.4-2.82A1.29,1.29,0,0,0,274.07,370.13Z" transform="translate(-256.01 -356.69)"/><path class="cls-1" d="M336.35,365.87c0,1.84.11,3.47,0,5.08a3.78,3.78,0,0,1-1.76,2.55,12.79,12.79,0,0,1-3.64,1.77,18.24,18.24,0,0,1-3.19.68,28.91,28.91,0,0,1-4.15.2,4.11,4.11,0,0,1-1.66-.14c-.45-.19-1,0-1.55-.13s-1-.35-1.51-.51-.94-.29-1.42-.42a9.27,9.27,0,0,1-3-1.47,4,4,0,0,1-1.8-3.32c0-1.36,0-2.72.08-4.12a7.89,7.89,0,0,0,2.74,2.09,10.91,10.91,0,0,0,3,1.09,8,8,0,0,0,3.22.55A4.15,4.15,0,0,0,324,370a15.88,15.88,0,0,0,2.39,0,26.85,26.85,0,0,0,3.23-.53,12.73,12.73,0,0,0,3-.88A10.33,10.33,0,0,0,336.35,365.87Z" transform="translate(-256.01 -356.69)"/><path class="cls-1" d="M273.81,374.11a8.56,8.56,0,0,0,2.88,2,17,17,0,0,0,3.11,1.16,31.21,31.21,0,0,0,3.67.7,14.89,14.89,0,0,0,4.11,0,23.61,23.61,0,0,0,5.36-1.14,10.55,10.55,0,0,0,4.49-2.9c.13,1.79,0,3.49.07,5.13a4.9,4.9,0,0,1-1.56,2.2,18.32,18.32,0,0,1-1.92,1.14,13.39,13.39,0,0,1-4.31,1.41,26.75,26.75,0,0,1-4.4.35,28.9,28.9,0,0,1-3.73-.36,18.58,18.58,0,0,1-3.17-1,10.14,10.14,0,0,1-2.85-1.42,4,4,0,0,1-1.76-3.37C273.83,376.75,273.81,375.43,273.81,374.11Z" transform="translate(-256.01 -356.69)"/></svg>