<svg id="Layer_1" data-name="Layer 1" xmlns="http://www.w3.org/2000/svg" viewBox="0 0 100 61.58"><defs><style>.cls-1{fill:#fe7f27;}.cls-2{fill:#fec80e;}.cls-3{fill:#fd9d10;}</style></defs><path d="M271.62,428.27,256,412.68v-28.5a10,10,0,0,1,1-.37c.53-.12,1.08-.17,1.62-.28l1.59-.34c.91-.2,1.83-.33,2.73-.56a9,9,0,0,0,2.09-.52c.29-.15.7.13,1-.2.93,0,1.78-.45,2.74-.41a5.87,5.87,0,0,1,2.06-1.67A9.12,9.12,0,0,1,273,379c.76-.2,1.56-.27,2.32-.44a21.41,21.41,0,0,1,3.57-.14,3.86,3.86,0,0,1,.79.17c.26.05.58-.1.78.2.42-.08.87.13,1.29-.14s.69,0,1.06-.21a6.2,6.2,0,0,1,1.53-.23c1-.2,2.06-.43,3.09-.65a8.52,8.52,0,0,1,1.21-.29c.58,0,1.13-.24,1.7-.32a9.18,9.18,0,0,0,1.69-.31c1-.3,2-.37,3-.69a10.49,10.49,0,0,1,1.8-.27,6,6,0,0,1,2-1.62,9.54,9.54,0,0,1,2.05-.82c1-.26,2-.33,2.93-.57a5.24,5.24,0,0,1,1,0,12.68,12.68,0,0,1,3.68.36,1.27,1.27,0,0,0,1.26-.16,12.91,12.91,0,0,0,2.61-.42,15.46,15.46,0,0,0,3.07-.68c.37-.13.81.08,1.14-.25a22.71,22.71,0,0,0,3.39-.61,30.37,30.37,0,0,0,3-.68,12.71,12.71,0,0,1,1.81-.29,6.17,6.17,0,0,1,2-1.6,8.37,8.37,0,0,1,2.15-.82c.76-.17,1.56-.28,2.32-.44a21.3,21.3,0,0,1,3.47-.14,3.91,3.91,0,0,1,.88.17,5.84,5.84,0,0,1,.8.14,1.49,1.49,0,0,0,1.27-.06c.33-.21.78.13,1.05-.27l1.88-.21L356,382.15V411c-.86.22-1.72.34-2.55.59a12,12,0,0,1-1.25.24,43,43,0,0,0-4.31.93c-.36.12-.77.11-1.16.2-1.17.26-2.34.49-3.52.75-.78.18-1.62.28-2.41.46a18,18,0,0,0-3.06.69c-.35.15-.77,0-1.16.21a4.34,4.34,0,0,1-1.15.22c-.36.06-.72.14-1.08.18s-.74.32-1.16.2a31.82,31.82,0,0,1-3.61.79c-1,.23-2,.31-3,.58a19.76,19.76,0,0,0-2.08.52,9.31,9.31,0,0,1-1.16.2l-1.75.37a13.89,13.89,0,0,0-1.67.38,10.37,10.37,0,0,1-1.16.21c-1.14.25-2.3.39-3.43.74-.39.11-.83.14-1.25.23-1.44.3-2.9.49-4.31.92a5.74,5.74,0,0,1-1.25.22,8.33,8.33,0,0,0-1.44.26c-.49.09-1,.18-1.49.32s-.93.2-1.38.36a10.56,10.56,0,0,0-1.16.21,6.25,6.25,0,0,1-1.16.21l-1.07.19a7.33,7.33,0,0,1-1.17.21,4.55,4.55,0,0,0-1,.34c-.35.09-.72.11-1.07.17s-.82.23-1.25.25a5.4,5.4,0,0,0-1.26.18c-1,.28-2.08.34-3.07.7-.37.14-.82-.08-1.14.26-1.22.17-2.41.46-3.62.72-.79.18-1.62.29-2.41.46a19.08,19.08,0,0,0-3.06.7,8,8,0,0,1-1.16.2c-.9.21-1.82.35-2.73.57-.55.13-1.11.19-1.67.38s-1.12.06-1.62.25a17.83,17.83,0,0,0-2.27.54A2.07,2.07,0,0,1,271.62,428.27Zm.5-.53a4.12,4.12,0,0,1,.67-.23,6.67,6.67,0,0,0,1.44-.22,29.47,29.47,0,0,1,3.06-.71,16.3,16.3,0,0,1,1.77-.36c.61-.13,1.23-.26,1.84-.41.37-.08.76-.17,1.16-.23s.71-.12,1.07-.19a4.33,4.33,0,0,0,1.15-.21c.39-.18.81-.06,1.16-.21a19.05,19.05,0,0,1,3.06-.69,10,10,0,0,1,2.42-.42,29.27,29.27,0,0,1,4-.93c.93-.24,1.89-.33,2.83-.57a13.57,13.57,0,0,1,1.71-.3,13.92,13.92,0,0,0,1.68-.35,7.2,7.2,0,0,0,1.16-.19,17.82,17.82,0,0,1,3.06-.69c.79-.18,1.62-.28,2.41-.46,1.17-.27,2.35-.48,3.52-.75a9.82,9.82,0,0,0,1.15-.2,12,12,0,0,1,2.09-.51c.8-.15,1.62-.28,2.41-.46,1-.23,2.06-.35,3.06-.68a8.39,8.39,0,0,1,1.7-.31,9.17,9.17,0,0,0,1.67-.35c.44-.16.89-.12,1.32-.28a16.47,16.47,0,0,1,1.93-.44,12.69,12.69,0,0,0,1.54-.22c.39-.15.8-.07,1.16-.21a12.59,12.59,0,0,1,2.08-.5c.8-.15,1.63-.28,2.41-.46,1-.23,2.06-.35,3.06-.68a8.51,8.51,0,0,1,1.7-.31,13.16,13.16,0,0,0,1.68-.35,8.5,8.5,0,0,0,1.16-.2,17.82,17.82,0,0,1,3.06-.69c.8-.16,1.63-.27,2.41-.45,1.17-.27,2.36-.48,3.52-.76.39-.09.84,0,1.15-.21s.83-.05,1.23-.3.83-.13,1.24-.23,1-.28,1.41-.41V382.63c-.11.09-.18.19-.24.18a8.94,8.94,0,0,0-2.41.46c-1.07.23-2.17.38-3.24.69a14,14,0,0,1-1.59.34,15.05,15.05,0,0,0-1.7.3c-1,.29-2.06.36-3.06.7a9.14,9.14,0,0,1-1.7.3,15.64,15.64,0,0,0-1.68.35,8.5,8.5,0,0,0-1.16.2,26.08,26.08,0,0,1-3.15.71,11.1,11.1,0,0,1-1.58.33c-.76.08-1.46.39-2.22.46a4.47,4.47,0,0,0-1.24.23c-.35.13-.73,0-1,.17s-.65,0-.88.18a2.17,2.17,0,0,1-1,.18,5.05,5.05,0,0,0-1.24.25,8.92,8.92,0,0,1-2.09.48,11.14,11.14,0,0,1-2.42.41c-.29.4-.76.08-1.13.29a3.75,3.75,0,0,1-1.22.28,4.77,4.77,0,0,0-1.16.22c-.39.2-.79.08-1.16.21a11.87,11.87,0,0,1-2.08.5c-.81.14-1.63.28-2.42.46-1,.23-2,.37-3,.69a11.61,11.61,0,0,1-1.7.31c-.57.07-1.11.27-1.69.31a10.78,10.78,0,0,0-1.22.29c-1,.23-2.05.45-3.09.65a11,11,0,0,0-1.54.22c-1,.34-2.05.39-3.05.72a12.64,12.64,0,0,1-1.85.38c-.65.11-1.3.32-1.95.38-1.12.11-2.19.47-3.29.66s-2,.45-3.06.67a20.25,20.25,0,0,1-3.39.62c-.33.32-.77.11-1.14.24a20.28,20.28,0,0,1-3.16.7,9.72,9.72,0,0,1-2.33.4c-.28.37-.74.14-1.11.36a3.7,3.7,0,0,1-1.24.22c-.39.06-.78.11-1.17.19s-1,.27-1.56.41Zm38.49-54.38c0,.43.42.38.61.45a5.85,5.85,0,0,1,2.6,1.81,2.89,2.89,0,0,1,.65,1.93c0,1.6,0,3.19,0,4.79a2.9,2.9,0,0,1-.85,2.05,8.34,8.34,0,0,1-1.94,1.35,13,13,0,0,1-3.47,1.11,9.5,9.5,0,0,1-1.93.2c-.67,0-1.34,0-2,0a10.43,10.43,0,0,0-1.93-.19c-.88-.44-1.88-.47-2.78-.93a7.31,7.31,0,0,1-2.48-1.62,3,3,0,0,1-.83-2.06c0-1.57,0-3.13,0-4.7,0-.38.08-.77.12-1.16l-13.73,2.73v.15a3.2,3.2,0,0,0,.54.3,5.16,5.16,0,0,1,2.55,1.68,2.93,2.93,0,0,1,.76,2c0,1.56,0,3.13,0,4.69a3,3,0,0,1-1,2.3,8.09,8.09,0,0,1-1.8,1.23,14.21,14.21,0,0,1-4.91,1.32,10.78,10.78,0,0,1-2.2,0c-.74,0-1.48-.12-2.22-.18a.17.17,0,0,1-.1,0c-.84-.44-1.89-.32-2.67-.94-.55.07-.85-.42-1.29-.58a3.1,3.1,0,0,1-1.22-1,3,3,0,0,1-.86-2.13c0-1.37,0-2.75,0-4.12a3.2,3.2,0,0,1,.25-1.76l-11.28,2.34,14.88,14.88a13,13,0,0,0,1.28-.24,19.3,19.3,0,0,1,2.1-.48,10.94,10.94,0,0,1,2.42-.41c.28-.37.76,0,1-.27s.66,0,1-.18a3.55,3.55,0,0,1,1-.31,5.78,5.78,0,0,0,1.43-.23c.46-.25,1,0,1.39-.36a23.47,23.47,0,0,0,2.65-.54c1.33-.26,2.65-.56,4-.77,1.07-.18,2.13-.45,3.2-.65s2-.45,3.05-.68a19.54,19.54,0,0,1,3.4-.61c.32-.34.76-.13,1.14-.25a22.54,22.54,0,0,1,3.16-.7,9.64,9.64,0,0,1,2.33-.4c.34-.29.79-.23,1.18-.36a11,11,0,0,0,1.34-.24c.4-.19.79-.09,1.17-.2a7.54,7.54,0,0,1,1.58-.35,4.92,4.92,0,0,0,1.44-.22,19.08,19.08,0,0,1,3.06-.7,9.82,9.82,0,0,1,2.42-.42,15.13,15.13,0,0,1,3-.73c1.19-.3,2.41-.51,3.61-.76s2.33-.44,3.49-.62c.42-.06.85-.14,1.25-.23s.93-.22,1.39-.35,1-.23,1.48-.32a9.87,9.87,0,0,1,1.44-.26,6.56,6.56,0,0,0,1.25-.23c.46-.1.93-.21,1.39-.34s1-.23,1.48-.32a8.62,8.62,0,0,1,1.45-.26,4.25,4.25,0,0,0,1.24-.23,25,25,0,0,1,3.06-.68,10,10,0,0,1,2.42-.42,13.28,13.28,0,0,1,3.05-.72c1-.22,2.06-.43,3.1-.62.69-.13,1.37-.31,2-.46q-7.45-7.45-14.86-14.86l-1.6.26v.25a8,8,0,0,1,1.76.81,4.79,4.79,0,0,1,1.58,1.49,2.37,2.37,0,0,1,.49,1.24c0,1.82,0,3.64,0,5.46a2.48,2.48,0,0,1-.68,1.63,7.41,7.41,0,0,1-2.46,1.69,13.62,13.62,0,0,1-4.8,1.12,13.39,13.39,0,0,1-3.28-.12c-.89-.16-1.77-.37-2.64-.58a7.78,7.78,0,0,1-2.66-1.22,3.42,3.42,0,0,1-1.69-3c.06-1.31,0-2.62,0-3.93a3.75,3.75,0,0,1,.2-1.79C319.81,371.52,315.26,372.52,310.61,373.36Zm-54,11.64v27.18l14.88,14.88V399.89ZM325,370.64a.92.92,0,0,1,0,.24,2,2,0,0,0,.29,2,4,4,0,0,0,1.47,1.31,14.19,14.19,0,0,0,5.21,1.5,8.91,8.91,0,0,0,2.19,0c.71,0,1.42-.12,2.13-.18l.17-.05c.75-.27,1.55-.39,2.29-.71a6.81,6.81,0,0,0,2.49-1.59,2.22,2.22,0,0,0,.6-1.94,2.85,2.85,0,0,0-1.12-1.72,6.24,6.24,0,0,0-2.13-1.09,3.84,3.84,0,0,1-1.17-.39c-.38-.24-.81-.18-1.2-.34s-.87.08-1.25-.22h-3.26c-.39.35-.89.11-1.33.26s-.88.17-1.3.32a14,14,0,0,0-2.36,1C326.06,369.52,325.64,370.15,325,370.64Zm-28,5.77c0,.13,0,.24,0,.32-.4.68-.08,1.24.24,1.85a3.82,3.82,0,0,0,1.75,1.53,14.76,14.76,0,0,0,2.4.9,15.19,15.19,0,0,0,2.58.47,10.1,10.1,0,0,0,2.2,0c.71,0,1.41-.12,2.12-.18l.17-.05c.75-.27,1.55-.39,2.29-.71a6.85,6.85,0,0,0,2.5-1.59,2.21,2.21,0,0,0,.6-1.93,2.84,2.84,0,0,0-1.12-1.73,6.24,6.24,0,0,0-2.13-1.09c-.4-.09-.79-.25-1.18-.38s-.78-.29-1.19-.37-.87.1-1.25-.2h-3.26c-.39.35-.89.11-1.33.26s-.88.17-1.3.32a12.94,12.94,0,0,0-2.36,1A18.36,18.36,0,0,0,297,376.41Zm-28,5.75c0,.1,0,.17,0,.23a2,2,0,0,0,.29,2,4.09,4.09,0,0,0,1.47,1.31,15.49,15.49,0,0,0,2.47,1,15.24,15.24,0,0,0,2.74.53,9.52,9.52,0,0,0,2.2,0c.71,0,1.41-.12,2.12-.18l.17-.05c.75-.27,1.55-.39,2.29-.71a7.21,7.21,0,0,0,2.5-1.59,2.9,2.9,0,0,0,.61-1.47,2.17,2.17,0,0,0-.44-1.34,4.79,4.79,0,0,0-2.74-1.93,11.6,11.6,0,0,0-1.18-.38,9.72,9.72,0,0,0-1.27-.38c-.42-.07-.88.1-1.26-.2h-3.26c-.39.35-.89.11-1.33.26s-.88.16-1.3.33a13.52,13.52,0,0,0-2.36,1A19.87,19.87,0,0,0,269,382.16Zm55.77-8.88c0,1.31,0,2.41,0,3.52a1.81,1.81,0,0,0,.27.84,4,4,0,0,0,1.71,1.58,25.79,25.79,0,0,0,2.47,1,13.62,13.62,0,0,0,2.65.51,10,10,0,0,0,2.57,0,20.06,20.06,0,0,0,2.43-.36,12.24,12.24,0,0,0,3.74-1.59,2.67,2.67,0,0,0,1.19-1.79c.09-1.17,0-2.34,0-3.66a8,8,0,0,1-2.74,2,7.75,7.75,0,0,1-1.44.44,6.57,6.57,0,0,1-1.47.36c-.53,0-1,.22-1.55.2a10.53,10.53,0,0,1-3.36-.18,6.17,6.17,0,0,1-2.33-.39,8.29,8.29,0,0,1-2.22-.85A5,5,0,0,1,324.81,373.28Zm-11,5.81a5.33,5.33,0,0,1-1.91,1.55,11.33,11.33,0,0,1-2.58.93,14.2,14.2,0,0,1-2.94.48,15.65,15.65,0,0,1-5.31-.53,10.33,10.33,0,0,1-2.24-.83,4.78,4.78,0,0,1-2-1.5c-.06,1.16-.08,2.3-.05,3.44a1.49,1.49,0,0,0,.25.75A4.23,4.23,0,0,0,298.8,385c.8.39,1.65.64,2.47,1a16.12,16.12,0,0,0,2.65.52,9.42,9.42,0,0,0,2.19,0c.74,0,1.48-.12,2.22-.19,0,0,.07,0,.09,0,.34-.3.8-.21,1.19-.37a13.24,13.24,0,0,0,1.26-.41A6.81,6.81,0,0,0,313.2,384a8.44,8.44,0,0,0,.65-1Zm-45,5.88c0,1.13,0,2.27,0,3.41a1.49,1.49,0,0,0,.25.75,4.21,4.21,0,0,0,1.7,1.59c.81.39,1.65.65,2.47,1a16.54,16.54,0,0,0,2.65.52,9.51,9.51,0,0,0,2.2,0c.74,0,1.47-.12,2.21-.19,0,0,.08,0,.1,0,.34-.3.8-.21,1.18-.37s.88-.2,1.27-.41a6.81,6.81,0,0,0,2.33-1.52,10.47,10.47,0,0,0,.68-1.05v-3.64s0,0-.18-.2a1.52,1.52,0,0,1-.15.34,6.92,6.92,0,0,1-2.4,1.6,9.62,9.62,0,0,1-2.12.64,18.54,18.54,0,0,1-2.33.38,12.34,12.34,0,0,1-1.72,0,3,3,0,0,1-1.64-.19,5.7,5.7,0,0,1-2.32-.39,8,8,0,0,1-2.16-.79A6.69,6.69,0,0,1,268.84,385Z" transform="translate(-256.03 -366.72)"/><path class="cls-1" d="M272.12,427.74V399.93c.53-.14,1-.29,1.56-.41s.78-.13,1.17-.19a3.7,3.7,0,0,0,1.24-.22c.37-.22.83,0,1.11-.36a9.72,9.72,0,0,0,2.33-.4,20.28,20.28,0,0,0,3.16-.7c.37-.13.81.08,1.14-.24a20.25,20.25,0,0,0,3.39-.62c1-.22,2-.5,3.06-.67s2.17-.55,3.29-.66c.65-.06,1.3-.27,1.95-.38a12.64,12.64,0,0,0,1.85-.38c1-.33,2.06-.38,3.05-.72a11,11,0,0,1,1.54-.22c1-.2,2.06-.42,3.09-.65a10.78,10.78,0,0,1,1.22-.29c.58,0,1.12-.24,1.69-.31a11.61,11.61,0,0,0,1.7-.31c1-.32,2-.46,3-.69.79-.18,1.61-.32,2.42-.46a11.87,11.87,0,0,0,2.08-.5c.37-.13.77,0,1.16-.21a4.77,4.77,0,0,1,1.16-.22,3.75,3.75,0,0,0,1.22-.28c.37-.21.84.11,1.13-.29a11.14,11.14,0,0,0,2.42-.41,8.92,8.92,0,0,0,2.09-.48,5.05,5.05,0,0,1,1.24-.25,2.17,2.17,0,0,0,1-.18c.23-.15.58,0,.88-.18s.63,0,1-.17a4.47,4.47,0,0,1,1.24-.23c.76-.07,1.46-.38,2.22-.46a11.1,11.1,0,0,0,1.58-.33,26.08,26.08,0,0,0,3.15-.71,8.5,8.5,0,0,1,1.16-.2,15.64,15.64,0,0,1,1.68-.35,9.14,9.14,0,0,0,1.7-.3c1-.34,2.05-.41,3.06-.7a15.05,15.05,0,0,1,1.7-.3,14,14,0,0,0,1.59-.34c1.07-.31,2.17-.46,3.24-.69a8.94,8.94,0,0,1,2.41-.46c.06,0,.13-.09.24-.18v27.78c-.45.13-.92.3-1.41.41s-.91,0-1.24.23-.84,0-1.23.3-.76.12-1.15.21c-1.16.28-2.35.49-3.52.76-.78.18-1.61.29-2.41.45a17.82,17.82,0,0,0-3.06.69,8.5,8.5,0,0,1-1.16.2,13.16,13.16,0,0,1-1.68.35,8.51,8.51,0,0,0-1.7.31c-1,.33-2,.45-3.06.68-.78.18-1.61.31-2.41.46a12.59,12.59,0,0,0-2.08.5c-.36.14-.77.06-1.16.21a12.69,12.69,0,0,1-1.54.22,16.47,16.47,0,0,0-1.93.44c-.43.16-.88.12-1.32.28a9.17,9.17,0,0,1-1.67.35,8.39,8.39,0,0,0-1.7.31c-1,.33-2,.45-3.06.68-.79.18-1.61.31-2.41.46a12,12,0,0,0-2.09.51,9.82,9.82,0,0,1-1.15.2c-1.17.27-2.35.48-3.52.75-.79.18-1.62.28-2.41.46a17.82,17.82,0,0,0-3.06.69,7.2,7.2,0,0,1-1.16.19,13.92,13.92,0,0,1-1.68.35,13.57,13.57,0,0,0-1.71.3c-.94.24-1.9.33-2.83.57a29.27,29.27,0,0,0-4,.93,10,10,0,0,0-2.42.42,19.05,19.05,0,0,0-3.06.69c-.35.15-.77,0-1.16.21a4.33,4.33,0,0,1-1.15.21c-.36.07-.72.14-1.07.19s-.79.15-1.16.23c-.61.15-1.23.28-1.84.41a16.3,16.3,0,0,0-1.77.36,29.47,29.47,0,0,0-3.06.71,6.67,6.67,0,0,1-1.44.22A4.12,4.12,0,0,0,272.12,427.74Z" transform="translate(-256.03 -366.72)"/><path class="cls-2" d="M310.61,373.36c4.65-.84,9.2-1.84,13.83-2.72a3.75,3.75,0,0,0-.2,1.79c0,1.31,0,2.62,0,3.93a3.42,3.42,0,0,0,1.69,3,7.78,7.78,0,0,0,2.66,1.22c.87.21,1.75.42,2.64.58a13.39,13.39,0,0,0,3.28.12,13.62,13.62,0,0,0,4.8-1.12,7.41,7.41,0,0,0,2.46-1.69,2.48,2.48,0,0,0,.68-1.63c0-1.82,0-3.64,0-5.46a2.37,2.37,0,0,0-.49-1.24,4.79,4.79,0,0,0-1.58-1.49,8,8,0,0,0-1.76-.81v-.25l1.6-.26q7.43,7.41,14.86,14.86c-.67.15-1.35.33-2,.46-1,.19-2.07.4-3.1.62a13.28,13.28,0,0,0-3.05.72,10,10,0,0,0-2.42.42,25,25,0,0,0-3.06.68,4.25,4.25,0,0,1-1.24.23,8.62,8.62,0,0,0-1.45.26c-.48.09-1,.18-1.48.32s-.93.24-1.39.34a6.56,6.56,0,0,1-1.25.23,9.87,9.87,0,0,0-1.44.26c-.48.09-1,.18-1.48.32s-.93.24-1.39.35-.83.17-1.25.23c-1.16.18-2.34.38-3.49.62s-2.42.46-3.61.76a15.13,15.13,0,0,0-3,.73,9.82,9.82,0,0,0-2.42.42,19.08,19.08,0,0,0-3.06.7,4.92,4.92,0,0,1-1.44.22,7.54,7.54,0,0,0-1.58.35c-.38.11-.77,0-1.17.2a11,11,0,0,1-1.34.24c-.39.13-.84.07-1.18.36a9.64,9.64,0,0,0-2.33.4,22.54,22.54,0,0,0-3.16.7c-.38.12-.82-.09-1.14.25a19.54,19.54,0,0,0-3.4.61c-1,.23-2,.49-3.05.68s-2.13.47-3.2.65c-1.34.21-2.66.51-4,.77a23.47,23.47,0,0,1-2.65.54c-.38.39-.93.11-1.39.36a5.78,5.78,0,0,1-1.43.23,3.55,3.55,0,0,0-1,.31c-.32.17-.67-.08-1,.18s-.76-.1-1,.27a10.94,10.94,0,0,0-2.42.41,19.3,19.3,0,0,0-2.1.48,13,13,0,0,1-1.28.24l-14.88-14.88,11.28-2.34a3.2,3.2,0,0,0-.25,1.76c0,1.37,0,2.75,0,4.12a3,3,0,0,0,.86,2.13,3.1,3.1,0,0,0,1.22,1c.44.16.74.65,1.29.58.78.62,1.83.5,2.67.94a.17.17,0,0,0,.1,0c.74.06,1.48.15,2.22.18a10.78,10.78,0,0,0,2.2,0,14.21,14.21,0,0,0,4.91-1.32,8.09,8.09,0,0,0,1.8-1.23,3,3,0,0,0,1-2.3c0-1.56,0-3.13,0-4.69a2.93,2.93,0,0,0-.76-2,5.16,5.16,0,0,0-2.55-1.68,3.2,3.2,0,0,1-.54-.3v-.15l13.73-2.73c0,.39-.12.78-.12,1.16,0,1.57,0,3.13,0,4.7a3,3,0,0,0,.83,2.06,7.31,7.31,0,0,0,2.48,1.62c.9.46,1.9.49,2.78.93a10.43,10.43,0,0,1,1.93.19c.67,0,1.34,0,2,0a9.5,9.5,0,0,0,1.93-.2,13,13,0,0,0,3.47-1.11,8.34,8.34,0,0,0,1.94-1.35,2.9,2.9,0,0,0,.85-2.05c0-1.6,0-3.19,0-4.79a2.89,2.89,0,0,0-.65-1.93,5.85,5.85,0,0,0-2.6-1.81C311,373.74,310.63,373.79,310.61,373.36Z" transform="translate(-256.03 -366.72)"/><path class="cls-3" d="M256.61,385l14.88,14.89v27.17l-14.88-14.88Z" transform="translate(-256.03 -366.72)"/><path class="cls-2" d="M325,370.64c.64-.49,1.06-1.12,1.72-1.53a14,14,0,0,1,2.36-1c.42-.15.88-.17,1.3-.32s.94.09,1.33-.26H335c.38.3.87.07,1.25.22s.82.1,1.2.34a3.84,3.84,0,0,0,1.17.39,6.24,6.24,0,0,1,2.13,1.09,2.85,2.85,0,0,1,1.12,1.72,2.22,2.22,0,0,1-.6,1.94,6.81,6.81,0,0,1-2.49,1.59c-.74.32-1.54.44-2.29.71l-.17.05c-.71.06-1.42.15-2.13.18a8.91,8.91,0,0,1-2.19,0,14.19,14.19,0,0,1-5.21-1.5,4,4,0,0,1-1.47-1.31,2,2,0,0,1-.29-2A.92.92,0,0,0,325,370.64Z" transform="translate(-256.03 -366.72)"/><path class="cls-2" d="M297,376.41a18.36,18.36,0,0,1,1.72-1.55,12.94,12.94,0,0,1,2.36-1c.42-.15.88-.18,1.3-.32s.94.09,1.33-.26H307c.38.3.84.13,1.25.2s.79.25,1.19.37.78.29,1.18.38a6.24,6.24,0,0,1,2.13,1.09,2.84,2.84,0,0,1,1.12,1.73,2.21,2.21,0,0,1-.6,1.93,6.85,6.85,0,0,1-2.5,1.59c-.74.32-1.54.44-2.29.71l-.17.05c-.71.06-1.41.15-2.12.18a10.1,10.1,0,0,1-2.2,0,15.19,15.19,0,0,1-2.58-.47,14.76,14.76,0,0,1-2.4-.9,3.82,3.82,0,0,1-1.75-1.53c-.32-.61-.64-1.17-.24-1.85C297.06,376.65,297,376.54,297,376.41Z" transform="translate(-256.03 -366.72)"/><path class="cls-2" d="M269,382.16a19.87,19.87,0,0,1,1.71-1.55,13.52,13.52,0,0,1,2.36-1c.42-.17.88-.18,1.3-.33s.94.09,1.33-.26H279c.38.3.84.13,1.26.2a9.72,9.72,0,0,1,1.27.38,11.6,11.6,0,0,1,1.18.38,4.79,4.79,0,0,1,2.74,1.93,2.17,2.17,0,0,1,.44,1.34,2.9,2.9,0,0,1-.61,1.47,7.21,7.21,0,0,1-2.5,1.59c-.74.32-1.54.44-2.29.71l-.17.05c-.71.06-1.41.15-2.12.18a9.52,9.52,0,0,1-2.2,0,15.24,15.24,0,0,1-2.74-.53,15.49,15.49,0,0,1-2.47-1,4.09,4.09,0,0,1-1.47-1.31,2,2,0,0,1-.29-2C269.06,382.33,269,382.26,269,382.16Z" transform="translate(-256.03 -366.72)"/><path class="cls-1" d="M324.81,373.28a5,5,0,0,0,1.95,1.61,8.29,8.29,0,0,0,2.22.85,6.17,6.17,0,0,0,2.33.39,10.53,10.53,0,0,0,3.36.18c.51,0,1-.18,1.55-.2a6.57,6.57,0,0,0,1.47-.36,7.75,7.75,0,0,0,1.44-.44,8,8,0,0,0,2.74-2c0,1.32.07,2.49,0,3.66a2.67,2.67,0,0,1-1.19,1.79,12.24,12.24,0,0,1-3.74,1.59,20.06,20.06,0,0,1-2.43.36,10,10,0,0,1-2.57,0,13.62,13.62,0,0,1-2.65-.51,25.79,25.79,0,0,1-2.47-1,4,4,0,0,1-1.71-1.58,1.81,1.81,0,0,1-.27-.84C324.79,375.69,324.81,374.59,324.81,373.28Z" transform="translate(-256.03 -366.72)"/><path class="cls-1" d="M313.85,379.09V383a8.44,8.44,0,0,1-.65,1,6.81,6.81,0,0,1-2.33,1.52,13.24,13.24,0,0,1-1.26.41c-.39.16-.85.07-1.19.37,0,0-.06,0-.09,0-.74.07-1.48.16-2.22.19a9.42,9.42,0,0,1-2.19,0,16.12,16.12,0,0,1-2.65-.52c-.82-.33-1.67-.58-2.47-1a4.23,4.23,0,0,1-1.71-1.59,1.49,1.49,0,0,1-.25-.75c0-1.14,0-2.28.05-3.44a4.78,4.78,0,0,0,2,1.5,10.33,10.33,0,0,0,2.24.83,15.65,15.65,0,0,0,5.31.53,14.2,14.2,0,0,0,2.94-.48,11.33,11.33,0,0,0,2.58-.93A5.33,5.33,0,0,0,313.85,379.09Z" transform="translate(-256.03 -366.72)"/><path class="cls-1" d="M268.84,385a6.69,6.69,0,0,0,2,1.48,8,8,0,0,0,2.16.79,5.7,5.7,0,0,0,2.32.39,3,3,0,0,0,1.64.19,12.34,12.34,0,0,0,1.72,0,18.54,18.54,0,0,0,2.33-.38,9.62,9.62,0,0,0,2.12-.64,6.92,6.92,0,0,0,2.4-1.6,1.52,1.52,0,0,0,.15-.34c.14.16.18.18.18.2v3.64a10.47,10.47,0,0,1-.68,1.05,6.81,6.81,0,0,1-2.33,1.52c-.39.21-.86.24-1.27.41s-.84.07-1.18.37c0,0-.07,0-.1,0-.74.07-1.47.16-2.21.19a9.51,9.51,0,0,1-2.2,0,16.54,16.54,0,0,1-2.65-.52c-.82-.32-1.66-.58-2.47-1a4.21,4.21,0,0,1-1.7-1.59,1.49,1.49,0,0,1-.25-.75C268.83,387.24,268.84,386.1,268.84,385Z" transform="translate(-256.03 -366.72)"/></svg>