<svg id="Layer_1" data-name="Layer 1" xmlns="http://www.w3.org/2000/svg" viewBox="0 0 100 42.85"><defs><style>.cls-1{fill:#0000b3;}.cls-2{fill:#0000fe;}.cls-3{fill:#0000db;}</style></defs><path d="M357,383.47v15.66c-.47.12-.94.18-1.39.32a3,3,0,0,1-.68.12,5.22,5.22,0,0,0-.79.14,7.66,7.66,0,0,0-.8.18c-.25.07-.51.13-.76.18s-.45.09-.67.13a15.94,15.94,0,0,0-1.82.4c-.2.07-.42,0-.63.11a2.6,2.6,0,0,1-.63.12c-.19,0-.39.08-.58.1s-.41.17-.64.11c-.63.23-1.31.26-1.95.43a8.55,8.55,0,0,0-1.66.4,4.94,4.94,0,0,0-1.32.23,17.91,17.91,0,0,0-2.29.48,3.19,3.19,0,0,1-.63.11c-.49.12-1,.19-1.49.31-.3.08-.6.11-.9.21s-.61,0-.89.13a13.26,13.26,0,0,0-1.65.41,5.28,5.28,0,0,0-1.32.22,10.76,10.76,0,0,0-1.66.38c-.19.08-.42,0-.63.12a3.19,3.19,0,0,1-.63.11l-.58.1a3.29,3.29,0,0,1-.64.12c-.18,0-.35.15-.54.18a3.47,3.47,0,0,0-.63.11,3.34,3.34,0,0,1-.63.12l-.59.1a3.19,3.19,0,0,1-.63.12c-.18,0-.36.15-.54.18s-.43.08-.64.1c-.41,0-.8.16-1.21.24a5.47,5.47,0,0,0-1.18.28,3.93,3.93,0,0,1-.63.11c-.49.12-1,.19-1.49.31a7.32,7.32,0,0,0-.9.21c-.28.09-.61,0-.88.13s-.55.1-.81.18-.58,0-.84.13-.78.07-1.12.3a8.27,8.27,0,0,0-1.32.22,2.82,2.82,0,0,0-1.05.22c-.24.12-.48,0-.72.17s-.55,0-.77.14-.53,0-.76.18-.27,0-.41,0-.21.08-.32.1a2.93,2.93,0,0,0-.68.12,1.07,1.07,0,0,1-.38.1c-.13,0-.25.07-.38.09a2.31,2.31,0,0,0-.72.13c-.24.14-.52,0-.71.18a6.91,6.91,0,0,0-1.27.23,6.7,6.7,0,0,0-1.1.22,3.09,3.09,0,0,0-1.08.29,5,5,0,0,0-1.27.21,14.09,14.09,0,0,0-1.71.38c-.21.07-.45,0-.62.14a14.32,14.32,0,0,0-1.85.33c-.55.16-1.11.25-1.66.37s-.88.17-1.31.25a7.55,7.55,0,0,0-1.14.27c-.2.07-.42,0-.63.12a2,2,0,0,1-.62.12,1.65,1.65,0,0,0-.68.12c-.2.12-.45,0-.6.19a5,5,0,0,0-1.27.22,11.08,11.08,0,0,0-1.71.37c-.21.08-.42,0-.63.12s-.56,0-.78.14-.54,0-.75.19a4.2,4.2,0,0,0-1.32.22c-.6.16-1.21.27-1.82.38a8.33,8.33,0,0,1-1.79.34c-.15.15-.38,0-.52.12s-.39,0-.53.1-.36.05-.54.09c-.35.09-.72.12-1.05.24s-.48.07-.71.15a4.45,4.45,0,0,1-.91.19,5.65,5.65,0,0,0-.93.17c-.54.18-1.12.19-1.66.39a2.2,2.2,0,0,1-.58.09,5.43,5.43,0,0,1-.58.13,2.4,2.4,0,0,0-.58.12,5.54,5.54,0,0,0-.9.19c-.28.09-.59,0-.85.21-.45-.07-.84.18-1.27.22a5,5,0,0,0-.91.2c-.27.09-.59,0-.85.2-.43-.06-.8.19-1.21.22s-.6.14-.91.19a4.7,4.7,0,0,0-.9.21,1.13,1.13,0,0,1-.41,0L257,409.44V394a1.8,1.8,0,0,1,.53-.2c.6,0,1.15-.32,1.75-.32.17-.21.44-.05.66-.17a2.36,2.36,0,0,1,.72-.14,3.71,3.71,0,0,0,.68-.11c.54-.21,1.12-.21,1.66-.4a4.35,4.35,0,0,1,.94-.13,3.16,3.16,0,0,1,1.09-.88,4.73,4.73,0,0,1,1.17-.45c.41-.09.84-.15,1.26-.24a8.66,8.66,0,0,1,1.83-.07,3.3,3.3,0,0,1,1,.17.83.83,0,0,0,.56,0c.4-.15.83-.13,1.23-.28a5.48,5.48,0,0,1,.74-.11,10.65,10.65,0,0,0,1.33-.31,3.31,3.31,0,0,1,.63-.1A12.32,12.32,0,0,0,276,390a4,4,0,0,0,1.18-.29c.16-.08.38.08.53-.11a7,7,0,0,0,1.21-.21h.31a1.68,1.68,0,0,1,.21-.27,4.32,4.32,0,0,1,2.1-1.08c.4-.1.81-.16,1.21-.24a5.19,5.19,0,0,1,1-.07,3,3,0,0,1,1,0c.28.1.61,0,.85.19.23-.05.46.06.7-.08s.42,0,.63-.11a7.37,7.37,0,0,1,.84-.13c.52-.12,1.05-.22,1.58-.33.24,0,.47-.13.7-.18s.42-.07.64-.11l.58-.1a6.39,6.39,0,0,0,.63-.13c.33-.08.66-.15,1-.21l1-.2a5.4,5.4,0,0,1,.6-.09,3.19,3.19,0,0,1,1.12-.91,6.11,6.11,0,0,1,1.17-.44,8.53,8.53,0,0,1,1.49-.29,11.61,11.61,0,0,1,1.77,0c.25.21.57.07.86.19a1.78,1.78,0,0,0,1.08-.13c.23-.06.51,0,.71-.17a17.55,17.55,0,0,0,2-.39c.43-.1.88-.15,1.31-.25a8.68,8.68,0,0,0,1.66-.38c.17-.08.38.07.53-.11.5,0,1-.24,1.49-.22a3.16,3.16,0,0,1,1.11-.91,7,7,0,0,1,1.18-.44,12.52,12.52,0,0,1,1.48-.3,4.36,4.36,0,0,1,1.25,0c.23,0,.46-.08.7.08s.44-.09.62.12c.23,0,.47.07.7-.07s.38,0,.58-.12a3.6,3.6,0,0,1,.83-.13c.56-.1,1.12-.23,1.68-.35a5.28,5.28,0,0,1,.66-.16c.31,0,.61-.13.92-.17a5.35,5.35,0,0,0,.92-.17c.53-.16,1.09-.2,1.61-.37a5.75,5.75,0,0,1,1-.15,3.09,3.09,0,0,1,1.1-.88,6.14,6.14,0,0,1,1.22-.46c.47-.13,1-.15,1.44-.3a2.15,2.15,0,0,1,.57,0,5.67,5.67,0,0,1,1.09,0,8.1,8.1,0,0,1,1,.18,2.45,2.45,0,0,0,1.13-.14,5.65,5.65,0,0,1,.66-.15,5.63,5.63,0,0,0,1.42-.24l1.66-.37c.43-.1.88-.17,1.32-.25a6.62,6.62,0,0,0,1.13-.27c.17-.07.35,0,.53-.09a4.64,4.64,0,0,1,1-.17,3.29,3.29,0,0,1,1.1-.87,4.81,4.81,0,0,1,1.16-.45c.42-.09.85-.15,1.26-.24a10.9,10.9,0,0,1,1.89-.07,2,2,0,0,1,.48.09,3.73,3.73,0,0,1,.44.08.8.8,0,0,0,.69,0c.17-.11.42.07.56-.14l1-.12Zm-91.25,19.11v15.06c.11-.06.17-.12.24-.13a11.52,11.52,0,0,0,1.53-.31c.61-.15,1.23-.22,1.85-.33.18-.18.42-.06.62-.13a11.24,11.24,0,0,1,1.72-.38,5,5,0,0,1,1.27-.21,2.84,2.84,0,0,1,1.07-.29c.36-.1.74-.14,1.11-.23s.59-.09.88-.15a7.52,7.52,0,0,0,.85-.19,5,5,0,0,0,.77-.17c.22-.11.53-.05.78-.13s.41,0,.58-.11a11.5,11.5,0,0,1,1.76-.39c.51-.12,1-.18,1.54-.32a3.46,3.46,0,0,0,.67-.12c.22-.11.46,0,.63-.12s.49,0,.66-.18c.49-.05,1-.2,1.43-.29.63-.12,1.27-.24,1.9-.34a3.43,3.43,0,0,0,.68-.12,7.11,7.11,0,0,1,1.08-.27c.36-.09.74-.14,1.11-.23s.59-.09.88-.15l.86-.18c.5-.11,1-.19,1.49-.31a3.93,3.93,0,0,0,.63-.11,5.47,5.47,0,0,1,1.18-.28c.4-.07.8-.2,1.21-.24.21,0,.42-.06.63-.1s.37-.18.55-.18a3.34,3.34,0,0,0,.63-.12l.58-.1a3.19,3.19,0,0,0,.63-.12,3.57,3.57,0,0,1,.64-.11c.18,0,.36-.18.54-.18a4.14,4.14,0,0,0,.63-.11l.59-.11a2.68,2.68,0,0,0,.63-.11c.21-.09.43-.05.63-.12s.5-.12.75-.19.54-.12.81-.18a6.34,6.34,0,0,1,.78-.14,2.21,2.21,0,0,0,.68-.12c.61-.19,1.24-.26,1.86-.4a5.48,5.48,0,0,0,.63-.11,11.68,11.68,0,0,1,1.61-.37,12.66,12.66,0,0,1,1.37-.24,3,3,0,0,0,.68-.13c.61-.18,1.25-.25,1.86-.4l.72-.15c.36-.09.73-.18,1.09-.25a4.1,4.1,0,0,1,.69-.1,5.47,5.47,0,0,0,.68-.14,2.8,2.8,0,0,0,.58-.09,5.83,5.83,0,0,1,1.13-.28c.44-.08.89-.15,1.31-.25s1.12-.19,1.67-.37a4.54,4.54,0,0,1,.92-.17,9.18,9.18,0,0,0,.91-.19,4,4,0,0,0,.63-.1,9.61,9.61,0,0,1,1.67-.38c.43-.1.88-.15,1.31-.25.64-.15,1.28-.26,1.91-.41a5.89,5.89,0,0,0,.63-.11,7.72,7.72,0,0,1,1.13-.27c.44-.08.89-.15,1.31-.25s1.12-.19,1.67-.37a4.54,4.54,0,0,1,.92-.17,6.67,6.67,0,0,0,.91-.19,3.93,3.93,0,0,0,.63-.11,9.58,9.58,0,0,1,1.67-.37,4.87,4.87,0,0,1,1.32-.23,7.41,7.41,0,0,1,1.81-.4c.43-.09.88-.15,1.31-.25.63-.14,1.28-.25,1.91-.41a4.37,4.37,0,0,0,.63-.11,7.72,7.72,0,0,1,1.13-.27c.44-.08.89-.15,1.31-.25s1.12-.2,1.67-.37a5.35,5.35,0,0,1,.92-.17,6.67,6.67,0,0,0,.91-.19,3.07,3.07,0,0,0,.63-.11,4.49,4.49,0,0,1,1.14-.26,5.8,5.8,0,0,1,1.31-.23c.2-.2.48-.06.71-.19a3.27,3.27,0,0,1,.73-.13,6.58,6.58,0,0,0,.71-.22v-15a3.21,3.21,0,0,0-.58.09,11.47,11.47,0,0,1-1.72.37,5,5,0,0,1-1.27.22c-.15.19-.4.09-.6.2a2.11,2.11,0,0,1-.68.11,2,2,0,0,0-.62.12c-.21.12-.44,0-.63.12a9.58,9.58,0,0,1-1.67.37,5.29,5.29,0,0,1-1.32.23c-.15.18-.42,0-.59.21-.24-.08-.45.1-.68.11a1.33,1.33,0,0,0-.63.11c-.21.11-.43.05-.63.11-.43.11-.85.22-1.29.29a2.84,2.84,0,0,0-.67.14c-.24.11-.48,0-.72.16a2.45,2.45,0,0,1-.78.12,5.72,5.72,0,0,0-.72.14,14.64,14.64,0,0,1-1.72.37,5.45,5.45,0,0,1-1.27.22c-.15.19-.4.08-.6.19a2,2,0,0,1-.67.12,1.77,1.77,0,0,0-.63.12c-.21.12-.43,0-.63.12a12.56,12.56,0,0,1-1.72.38,5.44,5.44,0,0,1-1.26.21,2.89,2.89,0,0,1-1.08.29c-.36.1-.74.14-1.11.23s-.59.08-.88.14-.58.11-.86.19c-.63.19-1.29.2-1.91.4a8.5,8.5,0,0,1-.88.15c-.29.06-.59.1-.86.18-.58.17-1.2.18-1.76.4-.66,0-1.25.31-1.9.32a9.64,9.64,0,0,1-1.29.3c-.14,0-.31.05-.47.1a2.94,2.94,0,0,0-.48.1,2.55,2.55,0,0,1-.68.12c-.39.09-.78.15-1.16.23s-.58.1-.86.18a6.21,6.21,0,0,1-.85.21,5,5,0,0,1-1.22.21c-.18.17-.43.13-.64.2s-.52,0-.73.13-.43.05-.63.11a3.68,3.68,0,0,1-.86.19,6.84,6.84,0,0,0-.79.12c-.19,0-.36.18-.54.18a3.44,3.44,0,0,0-.64.12l-.58.1a4.37,4.37,0,0,0-.63.11c-.21.09-.43.05-.63.12a17.12,17.12,0,0,1-1.86.4,5.86,5.86,0,0,0-.63.12,7,7,0,0,1-.91.2l-1,.21-.67.13a11.06,11.06,0,0,1-1.14.26,7.32,7.32,0,0,1-1.31.22c-.15.21-.42,0-.57.15s-.36,0-.53.09a1.82,1.82,0,0,1-.56.17,3.6,3.6,0,0,0-.83.13c-.27.15-.58,0-.81.19a10.72,10.72,0,0,0-1.69.32,5.75,5.75,0,0,1-1.16.2c-.22.19-.51.1-.76.2a4.88,4.88,0,0,1-.78.12,4.81,4.81,0,0,0-.68.13,13.69,13.69,0,0,1-1.66.37c-.43.09-.89.15-1.31.25-.64.14-1.28.26-1.92.41a6.37,6.37,0,0,0-.63.1,14.28,14.28,0,0,1-2,.49,9.2,9.2,0,0,1-1.8.33c-.21.19-.5.1-.75.19a4,4,0,0,1-.78.12,4.54,4.54,0,0,0-.68.14,6.58,6.58,0,0,1-1.13.26l-1.32.25c-.55.12-1.11.23-1.66.38-.31.08-.64.13-1,.19l-1,.22a6.39,6.39,0,0,1-.63.13,5.86,5.86,0,0,0-.58.1,2.6,2.6,0,0,0-.63.11c-.21.1-.43.05-.63.12a14,14,0,0,1-1.82.39c-.22,0-.46.07-.67.13q-.57.16-1.14.27a5.8,5.8,0,0,1-1.31.23C266.34,402.51,266,402.26,265.75,402.58Zm5.71-11.28a3.49,3.49,0,0,0,.34.15,3.06,3.06,0,0,1,1.41,1,1.6,1.6,0,0,1,.35,1.05c0,.84,0,1.67,0,2.51a1.62,1.62,0,0,1-.51,1.25,4.45,4.45,0,0,1-1.19.78,8.32,8.32,0,0,1-2.5.61,6,6,0,0,1-1.2,0c-.39,0-.77-.07-1.16-.1l-.09,0a14.9,14.9,0,0,1-1.52-.49,3.38,3.38,0,0,1-1.36-1,1.48,1.48,0,0,1-.37-1c0-.87,0-1.74,0-2.61a2.58,2.58,0,0,1,0-.39c0-.07,0-.14,0-.2l-6.1,1.27,8.09,8.09a2.61,2.61,0,0,0,.61-.11c.2-.08.44,0,.58-.11s.41,0,.61-.18a2.06,2.06,0,0,1,.68-.12,2,2,0,0,0,.62-.11c.21-.12.43-.05.63-.12a7.55,7.55,0,0,1,1.14-.27c.43-.08.88-.15,1.31-.25l1.66-.37a10.57,10.57,0,0,1,1.85-.34c.17-.18.41-.07.62-.13a6.4,6.4,0,0,1,1.13-.27,7.43,7.43,0,0,1,1.32-.22c.15-.2.4-.07.6-.19a1.83,1.83,0,0,1,.68-.12,2,2,0,0,0,.62-.12c.22-.12.43,0,.63-.12a7.55,7.55,0,0,1,1.14-.27c.43-.08.88-.15,1.31-.25l1.66-.37a11.56,11.56,0,0,1,1.85-.33c.17-.18.42-.06.62-.14a12.4,12.4,0,0,1,1.71-.37,5,5,0,0,1,1.27-.22c.34-.23.77-.13,1.12-.31.49,0,.94-.22,1.43-.21.17-.18.41-.07.62-.14a14.09,14.09,0,0,1,1.71-.38,5,5,0,0,1,1.27-.21c.16-.18.4-.1.6-.2a2.48,2.48,0,0,1,.68-.11,2,2,0,0,0,.62-.12c.22-.12.43-.06.63-.12.41-.12.83-.2,1.24-.28a4.48,4.48,0,0,0,.73-.14c.4-.14.83-.15,1.24-.27s.61,0,.88-.13a12.07,12.07,0,0,1,1.66-.38c.65-.17,1.32-.22,2-.43a4.72,4.72,0,0,1,.74-.11,1.82,1.82,0,0,1,.69-.11c.18-.22.51,0,.69-.21a3.14,3.14,0,0,0,1-.21c.35-.08.71-.08,1.06-.19s.57-.05.84-.13.56-.15.85-.21c.49-.11,1-.19,1.49-.31a5.89,5.89,0,0,0,.63-.11,10.25,10.25,0,0,1,1.66-.38,5.3,5.3,0,0,1,1.31-.23,8.55,8.55,0,0,1,1.66-.4c.65-.16,1.31-.27,2-.41s1.26-.24,1.9-.34c.23,0,.45-.1.68-.12s.36-.17.54-.17a3.29,3.29,0,0,0,.64-.12l.58-.1a3.19,3.19,0,0,0,.63-.12,3.47,3.47,0,0,1,.63-.11c.19,0,.37-.18.55-.18a3.34,3.34,0,0,0,.63-.12l.58-.1a3.19,3.19,0,0,0,.63-.11c.21-.09.45,0,.63-.12a5.11,5.11,0,0,1,1.14-.27,5.8,5.8,0,0,1,1.31-.23c.19-.16.44,0,.63-.11.37-.15.76-.17,1.13-.28a5.65,5.65,0,0,1,.93-.17,9.18,9.18,0,0,0,.91-.19,3.19,3.19,0,0,0,.63-.11,9.58,9.58,0,0,1,1.67-.37,4.87,4.87,0,0,1,1.31-.23,8.61,8.61,0,0,1,1.81-.4c.43-.09.89-.15,1.31-.25.64-.14,1.28-.26,1.92-.41a6.37,6.37,0,0,0,.63-.1,6.22,6.22,0,0,1,1.13-.28c.43-.08.88-.15,1.31-.25s1.12-.19,1.66-.37a5.35,5.35,0,0,1,.92-.17,7.15,7.15,0,0,0,.92-.19,2.6,2.6,0,0,0,.63-.11,4.51,4.51,0,0,1,1.13-.26c.44-.09.87-.2,1.32-.25a4.47,4.47,0,0,0,1-.2c.33-.11.67-.12,1-.23l-8.08-8.08-.91.15c.08.07.11.13.16.15a6.3,6.3,0,0,1,.87.41,2.21,2.21,0,0,1,.73.62,1.5,1.5,0,0,1,.39.93v2.87a1.28,1.28,0,0,1-.26.77,4.2,4.2,0,0,1-1.59,1.17,3.69,3.69,0,0,1-.64.21,5.4,5.4,0,0,0-.72.15c-.24.1-.5,0-.7.08s-.5.06-.75.08a10.21,10.21,0,0,1-1.83-.1l-.15,0c-.51-.18-1.06-.27-1.56-.5a3.42,3.42,0,0,1-1.36-1,1.62,1.62,0,0,1-.35-1.05c0-1,0-1.95,0-2.89l.14-.26-7.53,1.49v.08a2.19,2.19,0,0,0,.29.17,3,3,0,0,1,1.39.91,1.61,1.61,0,0,1,.41,1.08c0,.85,0,1.7,0,2.55a1.71,1.71,0,0,1-.52,1.25,3.92,3.92,0,0,1-1.14.76,7.28,7.28,0,0,1-1.19.41,11.55,11.55,0,0,1-1.31.22,6.86,6.86,0,0,1-1.2,0c-.4,0-.8-.07-1.21-.1h-.05c-.48-.23-1-.27-1.51-.5a3.77,3.77,0,0,1-1.38-.94,1.58,1.58,0,0,1-.4-1.08c0-.76,0-1.53,0-2.29,0-.3,0-.59.06-.87-2.47.47-5,1-7.51,1.48.07.06.1.12.15.14a7.63,7.63,0,0,1,.87.41,2.42,2.42,0,0,1,.76.66,1.48,1.48,0,0,1,.36.89c0,1,0,1.91,0,2.87a1.45,1.45,0,0,1-.38.93,3.84,3.84,0,0,1-1.38.95,8.16,8.16,0,0,1-2.62.58,11.37,11.37,0,0,1-2.1-.1.77.77,0,0,1-.15,0c-.49-.19-1-.27-1.51-.49a3.61,3.61,0,0,1-1.41-1,1.59,1.59,0,0,1-.35-1.05c0-.85,0-1.7,0-2.55a4,4,0,0,1,.08-.59c-2.48.47-5,1-7.47,1.47V385a1.61,1.61,0,0,0,.28.17,3.07,3.07,0,0,1,1.4.9,1.7,1.7,0,0,1,.41,1.08c0,.86,0,1.71,0,2.56a1.67,1.67,0,0,1-.52,1.25,5.25,5.25,0,0,1-1,.67,4.25,4.25,0,0,1-1.41.5,5.52,5.52,0,0,1-1.62.23,11.13,11.13,0,0,1-1.63-.08,11.41,11.41,0,0,1-1.43-.33,5.6,5.6,0,0,1-1.15-.51,2.84,2.84,0,0,1-.74-.58,1.65,1.65,0,0,1-.44-1.13c0-.78,0-1.56,0-2.34,0-.28,0-.56.06-.82l-7.49,1.49c0,.05.07.12.12.13a3.48,3.48,0,0,1,.91.44,2.45,2.45,0,0,1,.79.75,1.45,1.45,0,0,1,.29.72c0,1,0,2,0,3a1.33,1.33,0,0,1-.37.88,5.23,5.23,0,0,1-1.46,1,3.61,3.61,0,0,1-.75.21c-.24.08-.5.14-.75.2s-.52.06-.79.1a6.42,6.42,0,0,1-1.24,0c-.41,0-.81-.06-1.21-.1h-.05c-.47-.22-1-.27-1.46-.49a3,3,0,0,1-1.58-1.2,1.05,1.05,0,0,1-.22-.64c0-.38,0-.76,0-1.14s0-.77,0-1.15a2.51,2.51,0,0,1,.09-1.06c-2.51.48-5,1-7.48,1.47Zm-6,26V402.51l-8.1-8.1v14.82Zm74.72-40.1c0,.07,0,.16,0,.2-.24.32-.07.62.06.89a1.73,1.73,0,0,0,.93.85c.18.08.33.21.51.28s.38.09.56.16a4.06,4.06,0,0,0,.59.19,2.35,2.35,0,0,0,.59.1c.19,0,.38.09.58.1.38,0,.76,0,1.14,0s.77-.07,1.16-.1h.1c.19-.14.43-.12.64-.2s.44-.12.64-.21a3.52,3.52,0,0,0,1.35-.88,1.24,1.24,0,0,0,.31-1.06,2,2,0,0,0-.76-1,3.68,3.68,0,0,0-1.11-.58,8.53,8.53,0,0,0-2-.45,8.16,8.16,0,0,0-1,0c-.22,0-.49-.07-.66,0s-.47,0-.69.11-.47.12-.7.2a5,5,0,0,0-1.29.53A9.09,9.09,0,0,0,340.13,377.22Zm-15.21,3.12c0,.08,0,.17,0,.21-.25.31-.07.62.06.88a1.67,1.67,0,0,0,.93.86c.22.09.43.22.65.3s.47.12.69.22a1.55,1.55,0,0,0,.75.19c.26,0,.48.12.74.12s.76,0,1.14,0,.77-.06,1.16-.1c0,0,.07,0,.09,0a3,3,0,0,1,.65-.19c.21-.08.44-.13.64-.22a3.41,3.41,0,0,0,1.35-.88,1.23,1.23,0,0,0,.31-1,2,2,0,0,0-.76-1,4.2,4.2,0,0,0-1.11-.58,8.64,8.64,0,0,0-2-.45,8.17,8.17,0,0,0-1,0c-.22,0-.49-.08-.66,0s-.47,0-.69.11-.47.12-.7.19a5.57,5.57,0,0,0-1.29.53A10.55,10.55,0,0,0,324.92,380.34Zm-15.22,3.13c0,.06,0,.12,0,.16a1,1,0,0,0,.15,1.05,2.6,2.6,0,0,0,1.5,1c.2.08.42.14.64.21a6,6,0,0,0,.69.2c.23,0,.48,0,.69.11a17.37,17.37,0,0,0,2.5-.1l.05,0c.4-.17.84-.21,1.24-.39a3.94,3.94,0,0,0,1.4-.89,1.24,1.24,0,0,0,.08-1.5,2.08,2.08,0,0,0-.95-.82,7.2,7.2,0,0,0-3-.75c-.37,0-.73,0-1.09,0-.09,0-.21,0-.26,0-.2.19-.46,0-.68.12s-.44.12-.65.19a6,6,0,0,0-1.34.54C310.28,382.86,310,383.21,309.7,383.47Zm-15.21,3.13c0,.06,0,.12,0,.16a1,1,0,0,0,.15,1.05,2.71,2.71,0,0,0,1.49,1,6,6,0,0,1,.64.21,3.64,3.64,0,0,0,.7.19c.22.07.47,0,.69.12a17.43,17.43,0,0,0,2.5-.11h0c.4-.17.84-.22,1.24-.4a3.76,3.76,0,0,0,1.4-.89,1.23,1.23,0,0,0,.08-1.49,2.14,2.14,0,0,0-1-.83,7.43,7.43,0,0,0-3-.75h-1.1c-.08,0-.2,0-.25,0-.21.19-.46,0-.68.12s-.44.11-.65.18a6,6,0,0,0-1.34.55A9.6,9.6,0,0,0,294.49,386.6Zm-15.21,3.12c0,.08,0,.18,0,.22-.17.2-.1.38,0,.61a1.85,1.85,0,0,0,1,1.12,7.22,7.22,0,0,0,3,.82,11.58,11.58,0,0,0,2-.1.77.77,0,0,0,.15,0c.4-.16.84-.21,1.24-.39a3.71,3.71,0,0,0,1.4-.9,1.22,1.22,0,0,0,.3-1,1.75,1.75,0,0,0-.68-1,8.63,8.63,0,0,0-2-.86c-.35-.11-.74,0-1.06-.19h-1.72c-.21.19-.49.06-.72.14s-.53.1-.76.2a5.79,5.79,0,0,0-1.28.56C279.84,389.15,279.61,389.49,279.28,389.72Zm-10.65,1.39v0a2.88,2.88,0,0,0-.93,0c-.24.09-.47,0-.68.11s-.48.12-.7.19A6,6,0,0,0,265,392a7.11,7.11,0,0,0-.77.67,1.2,1.2,0,0,0-.29.61.9.9,0,0,0,.15.66,1.92,1.92,0,0,0,.92.86,11.79,11.79,0,0,0,1.35.53,8.53,8.53,0,0,0,1.49.29,5.42,5.42,0,0,0,1.14,0c.39,0,.77-.07,1.15-.1h.1a2.57,2.57,0,0,1,.65-.2c.21-.08.44-.12.64-.21a3.59,3.59,0,0,0,1.35-.88,1.23,1.23,0,0,0,.32-1,1.62,1.62,0,0,0-.67-1,6.7,6.7,0,0,0-2.36-.93A11.75,11.75,0,0,0,268.63,391.11Zm80.67-12.44a3.94,3.94,0,0,1-1.49,1.07,5.18,5.18,0,0,1-1.16.35c-.41.09-.84.16-1.26.21a7.37,7.37,0,0,1-.94,0c-.3,0-.61.08-.89-.1a3.19,3.19,0,0,1-1.26-.22,4.18,4.18,0,0,1-1.17-.42,3.72,3.72,0,0,1-1.11-.81v1.6a1.56,1.56,0,0,0,.71,1.3,3.61,3.61,0,0,0,1.16.58l.56.16c.2.06.39.16.59.2a3.73,3.73,0,0,1,.6.05,1.87,1.87,0,0,0,.66.06,12.64,12.64,0,0,0,1.62-.08,7.1,7.1,0,0,0,1.25-.27,4.92,4.92,0,0,0,1.42-.69,1.49,1.49,0,0,0,.69-1C349.34,380,349.3,379.39,349.3,378.67Zm-24.49,3.08v1.73a1.54,1.54,0,0,0,.71,1.3,3.8,3.8,0,0,0,1.16.57l.56.17c.2.06.39.16.59.2s.43,0,.6,0a1.62,1.62,0,0,0,.65.05,11.13,11.13,0,0,0,1.63-.08,7.5,7.5,0,0,0,1.25-.26,4.94,4.94,0,0,0,1.42-.7,1.45,1.45,0,0,0,.69-1c.06-.63,0-1.27,0-1.92-.26.21-.48.4-.73.57a3.73,3.73,0,0,1-.75.43,8.12,8.12,0,0,1-1.16.35,6.12,6.12,0,0,1-1.26.2,5.12,5.12,0,0,1-1.83-.09,3.24,3.24,0,0,1-1.27-.22,4.68,4.68,0,0,1-1.17-.43A2.69,2.69,0,0,1,324.81,381.75ZM318.86,385a4.79,4.79,0,0,1-2.35,1.3,10.85,10.85,0,0,1-1.38.27,5.77,5.77,0,0,1-1.76,0,14.08,14.08,0,0,1-1.44-.28,7.1,7.1,0,0,1-1.22-.45,2.76,2.76,0,0,1-1.08-.82c0,.63,0,1.24,0,1.86a1.37,1.37,0,0,0,.2.49,2.11,2.11,0,0,0,1,.88,9.05,9.05,0,0,0,1.26.47,7.65,7.65,0,0,0,1.35.25,5.25,5.25,0,0,0,1.19,0c.4,0,.8-.07,1.21-.1h0c.18-.17.43-.11.64-.2s.48-.12.69-.23a3.65,3.65,0,0,0,1.27-.82,5.74,5.74,0,0,0,.36-.55Zm-24.47,3.19c0,.57,0,1.14,0,1.71a1.56,1.56,0,0,0,.21.64,2.18,2.18,0,0,0,1,.82,7.65,7.65,0,0,0,1.31.49,8.21,8.21,0,0,0,1.4.25,5.25,5.25,0,0,0,1.19,0c.38,0,.77-.06,1.15-.1l.1,0c.4-.15.84-.21,1.24-.39a3.76,3.76,0,0,0,1.28-.79,4.44,4.44,0,0,0,.42-.61v-2l0,0,0,0a3.87,3.87,0,0,1-1.37,1,4.78,4.78,0,0,1-1.14.38,6.81,6.81,0,0,1-1.63.22h-1a.7.7,0,0,1-.25,0c-.45-.18-1-.06-1.38-.31a2.88,2.88,0,0,1-1.28-.44A3.12,3.12,0,0,1,294.39,388.15Zm-15.21,3.12V393a.72.72,0,0,0,0,.19,1.91,1.91,0,0,0,1,1.16,13.8,13.8,0,0,0,1.34.53,4.94,4.94,0,0,0,1.44.27,8.29,8.29,0,0,0,2.67-.18,7.08,7.08,0,0,0,2-.84,1.45,1.45,0,0,0,.67-1,19.89,19.89,0,0,0,0-2.06,3.07,3.07,0,0,1-1.25,1,2.48,2.48,0,0,1-1.19.37c-.15.21-.41.07-.6.2s-.41,0-.59.07a2.12,2.12,0,0,1-.66,0,9,9,0,0,1-2.63-.29,7.1,7.1,0,0,1-1.22-.45A3.41,3.41,0,0,1,279.18,391.27Zm-5.94,3a3.49,3.49,0,0,1-1.21.94,7.64,7.64,0,0,1-1.88.6,5.1,5.1,0,0,1-1,.11c-.37,0-.73,0-1.1,0-.1,0-.23,0-.3,0-.24-.16-.51,0-.74-.11s-.5-.14-.75-.2a5.73,5.73,0,0,1-1.21-.47,2.92,2.92,0,0,1-1-.85c0,.58,0,1.06,0,1.54a1.64,1.64,0,0,0,.81,1.49,5.45,5.45,0,0,0,1.08.54,7.3,7.3,0,0,0,2.4.46,11.14,11.14,0,0,0,1.63-.09,6.36,6.36,0,0,0,1.24-.27,4.85,4.85,0,0,0,1.39-.68,1.51,1.51,0,0,0,.73-1.33C273.22,395.45,273.24,394.93,273.24,394.28Z" transform="translate(-257 -375.08)"/><path class="cls-1" d="M265.75,402.58c.24-.32.59-.07.82-.29a5.8,5.8,0,0,0,1.31-.23q.57-.1,1.14-.27c.21-.06.45-.08.67-.13a14,14,0,0,0,1.82-.39c.2-.07.42,0,.63-.12a2.6,2.6,0,0,1,.63-.11,5.86,5.86,0,0,1,.58-.1,6.39,6.39,0,0,0,.63-.13l1-.22c.32-.06.65-.11,1-.19.55-.15,1.11-.26,1.66-.38l1.32-.25a6.58,6.58,0,0,0,1.13-.26,4.54,4.54,0,0,1,.68-.14,4,4,0,0,0,.78-.12c.25-.09.54,0,.75-.19a9.2,9.2,0,0,0,1.8-.33,14.28,14.28,0,0,0,2-.49,6.37,6.37,0,0,1,.63-.1c.64-.15,1.28-.27,1.92-.41.42-.1.88-.16,1.31-.25a13.69,13.69,0,0,0,1.66-.37,4.81,4.81,0,0,1,.68-.13,4.88,4.88,0,0,0,.78-.12c.25-.1.54,0,.76-.2a5.75,5.75,0,0,0,1.16-.2,10.72,10.72,0,0,1,1.69-.32c.23-.22.54,0,.81-.19a3.6,3.6,0,0,1,.83-.13,1.82,1.82,0,0,0,.56-.17c.17-.09.36.05.53-.09s.42.06.57-.15a7.32,7.32,0,0,0,1.31-.22,11.06,11.06,0,0,0,1.14-.26l.67-.13,1-.21a7,7,0,0,0,.91-.2,5.86,5.86,0,0,1,.63-.12,17.12,17.12,0,0,0,1.86-.4c.2-.07.42,0,.63-.12a4.37,4.37,0,0,1,.63-.11l.58-.1a3.44,3.44,0,0,1,.64-.12c.18,0,.35-.14.54-.18a6.84,6.84,0,0,1,.79-.12,3.68,3.68,0,0,0,.86-.19c.2-.06.42,0,.63-.11s.5-.05.73-.13.46,0,.64-.2a5,5,0,0,0,1.22-.21,6.21,6.21,0,0,0,.85-.21c.28-.08.58-.12.86-.18s.77-.14,1.16-.23a2.55,2.55,0,0,0,.68-.12,2.94,2.94,0,0,1,.48-.1c.16-.05.33-.06.47-.1a9.64,9.64,0,0,0,1.29-.3c.65,0,1.24-.35,1.9-.32.56-.22,1.18-.23,1.76-.4.27-.08.57-.12.86-.18a8.5,8.5,0,0,0,.88-.15c.62-.2,1.28-.21,1.91-.4.28-.08.58-.12.86-.19s.6-.07.88-.14.75-.13,1.11-.23a2.89,2.89,0,0,0,1.08-.29,5.44,5.44,0,0,0,1.26-.21,12.56,12.56,0,0,0,1.72-.38c.2-.08.42,0,.63-.12a1.77,1.77,0,0,1,.63-.12,2,2,0,0,0,.67-.12c.2-.11.45,0,.6-.19a5.45,5.45,0,0,0,1.27-.22,14.64,14.64,0,0,0,1.72-.37,5.72,5.72,0,0,1,.72-.14,2.45,2.45,0,0,0,.78-.12c.24-.13.48-.05.72-.16a2.84,2.84,0,0,1,.67-.14c.44-.07.86-.18,1.29-.29.2-.06.42,0,.63-.11a1.33,1.33,0,0,1,.63-.11c.23,0,.44-.19.68-.11.17-.17.44,0,.59-.21a5.29,5.29,0,0,0,1.32-.23,9.58,9.58,0,0,0,1.67-.37c.19-.08.42,0,.63-.12a2,2,0,0,1,.62-.12,2.11,2.11,0,0,0,.68-.11c.2-.11.45,0,.6-.2a5,5,0,0,0,1.27-.22,11.47,11.47,0,0,0,1.72-.37,3.21,3.21,0,0,1,.58-.09v15a6.58,6.58,0,0,1-.71.22,3.27,3.27,0,0,0-.73.13c-.23.13-.51,0-.71.19a5.8,5.8,0,0,0-1.31.23,4.49,4.49,0,0,0-1.14.26,3.07,3.07,0,0,1-.63.11,6.67,6.67,0,0,1-.91.19,5.35,5.35,0,0,0-.92.17c-.55.17-1.12.25-1.67.37s-.87.17-1.31.25a7.72,7.72,0,0,0-1.13.27,4.37,4.37,0,0,1-.63.11c-.63.16-1.28.27-1.91.41-.43.1-.88.16-1.31.25a7.41,7.41,0,0,0-1.81.4,4.87,4.87,0,0,0-1.32.23,9.58,9.58,0,0,0-1.67.37,3.93,3.93,0,0,1-.63.11,6.67,6.67,0,0,1-.91.19,4.54,4.54,0,0,0-.92.17c-.55.18-1.11.24-1.67.37s-.87.17-1.31.25a7.72,7.72,0,0,0-1.13.27,5.89,5.89,0,0,1-.63.11c-.63.15-1.27.26-1.91.41-.43.1-.88.15-1.31.25a9.61,9.61,0,0,0-1.67.38,4,4,0,0,1-.63.1,9.18,9.18,0,0,1-.91.19,4.54,4.54,0,0,0-.92.17c-.55.18-1.12.24-1.67.37s-.87.17-1.31.25a5.83,5.83,0,0,0-1.13.28,2.8,2.8,0,0,1-.58.09,5.47,5.47,0,0,1-.68.14,4.1,4.1,0,0,0-.69.1c-.36.07-.73.16-1.09.25l-.72.15c-.61.15-1.25.22-1.86.4a3,3,0,0,1-.68.13,12.66,12.66,0,0,0-1.37.24,11.68,11.68,0,0,0-1.61.37,5.48,5.48,0,0,1-.63.11c-.62.14-1.25.21-1.86.4a2.21,2.21,0,0,1-.68.12,6.34,6.34,0,0,0-.78.14c-.27.06-.54.1-.81.18s-.5.11-.75.19-.42,0-.63.12a2.68,2.68,0,0,1-.63.11l-.59.11a4.14,4.14,0,0,1-.63.11c-.18,0-.36.15-.54.18a3.57,3.57,0,0,0-.64.11,3.19,3.19,0,0,1-.63.12l-.58.1a3.34,3.34,0,0,1-.63.12c-.18,0-.36.15-.55.18s-.42.08-.63.1c-.41,0-.81.17-1.21.24a5.47,5.47,0,0,0-1.18.28,3.93,3.93,0,0,1-.63.11c-.49.12-1,.2-1.49.31l-.86.18c-.29.06-.59.09-.88.15s-.75.14-1.11.23a7.11,7.11,0,0,0-1.08.27,3.43,3.43,0,0,1-.68.12c-.63.1-1.27.22-1.9.34-.47.09-.94.24-1.43.29-.17.22-.45,0-.66.18s-.41,0-.63.12a3.46,3.46,0,0,1-.67.12c-.51.14-1,.2-1.54.32a11.5,11.5,0,0,0-1.76.39c-.17.07-.39,0-.58.11s-.56,0-.78.13a5,5,0,0,1-.77.17,7.52,7.52,0,0,1-.85.19c-.29.06-.59.08-.88.15s-.75.13-1.11.23a2.84,2.84,0,0,0-1.07.29,5,5,0,0,0-1.27.21,11.24,11.24,0,0,0-1.72.38c-.2.07-.44-.05-.62.13-.62.11-1.24.18-1.85.33a11.52,11.52,0,0,1-1.53.31c-.07,0-.13.07-.24.13Z" transform="translate(-257 -375.08)"/><path class="cls-2" d="M271.46,391.3l0-.11c2.5-.45,5-1,7.48-1.47a2.51,2.51,0,0,0-.09,1.06c0,.38,0,.77,0,1.15s0,.76,0,1.14a1.05,1.05,0,0,0,.22.64,3,3,0,0,0,1.58,1.2c.48.22,1,.27,1.46.49h.05c.4,0,.8.09,1.21.1a6.42,6.42,0,0,0,1.24,0c.27,0,.54,0,.79-.1s.51-.12.75-.2a3.61,3.61,0,0,0,.75-.21,5.23,5.23,0,0,0,1.46-1,1.33,1.33,0,0,0,.37-.88c0-1,0-2,0-3a1.45,1.45,0,0,0-.29-.72,2.45,2.45,0,0,0-.79-.75,3.48,3.48,0,0,0-.91-.44s-.08-.08-.12-.13l7.49-1.49c0,.26-.06.54-.06.82,0,.78,0,1.56,0,2.34a1.65,1.65,0,0,0,.44,1.13,2.84,2.84,0,0,0,.74.58,5.6,5.6,0,0,0,1.15.51,11.41,11.41,0,0,0,1.43.33,11.13,11.13,0,0,0,1.63.08,5.52,5.52,0,0,0,1.62-.23,4.25,4.25,0,0,0,1.41-.5,5.25,5.25,0,0,0,1-.67,1.67,1.67,0,0,0,.52-1.25c0-.85,0-1.7,0-2.56a1.7,1.7,0,0,0-.41-1.08,3.07,3.07,0,0,0-1.4-.9,1.61,1.61,0,0,1-.28-.17v-.09c2.51-.45,5-1,7.47-1.47a4,4,0,0,0-.08.59c0,.85,0,1.7,0,2.55a1.59,1.59,0,0,0,.35,1.05,3.61,3.61,0,0,0,1.41,1c.49.22,1,.3,1.51.49a.77.77,0,0,0,.15,0,11.37,11.37,0,0,0,2.1.1,8.16,8.16,0,0,0,2.62-.58,3.84,3.84,0,0,0,1.38-.95,1.45,1.45,0,0,0,.38-.93c0-1,0-1.91,0-2.87a1.48,1.48,0,0,0-.36-.89,2.42,2.42,0,0,0-.76-.66,7.63,7.63,0,0,0-.87-.41c-.05,0-.08-.08-.15-.14,2.55-.47,5-1,7.51-1.48,0,.28-.05.57-.06.87,0,.76,0,1.53,0,2.29a1.58,1.58,0,0,0,.4,1.08,3.77,3.77,0,0,0,1.38.94c.49.23,1,.27,1.51.5h.05c.41,0,.81.08,1.21.1a6.86,6.86,0,0,0,1.2,0,11.55,11.55,0,0,0,1.31-.22,7.28,7.28,0,0,0,1.19-.41,3.92,3.92,0,0,0,1.14-.76,1.71,1.71,0,0,0,.52-1.25c0-.85,0-1.7,0-2.55a1.61,1.61,0,0,0-.41-1.08,3,3,0,0,0-1.39-.91,2.19,2.19,0,0,1-.29-.17v-.08l7.53-1.49-.14.26c0,.94,0,1.91,0,2.89a1.62,1.62,0,0,0,.35,1.05,3.42,3.42,0,0,0,1.36,1c.5.23,1,.32,1.56.5l.15,0a10.21,10.21,0,0,0,1.83.1c.25,0,.5.06.75-.08s.46,0,.7-.08a5.4,5.4,0,0,1,.72-.15,3.69,3.69,0,0,0,.64-.21,4.2,4.2,0,0,0,1.59-1.17,1.28,1.28,0,0,0,.26-.77v-2.87a1.5,1.5,0,0,0-.39-.93,2.21,2.21,0,0,0-.73-.62,6.3,6.3,0,0,0-.87-.41c-.05,0-.08-.08-.16-.15l.91-.15,8.08,8.08c-.3.11-.64.12-1,.23a4.47,4.47,0,0,1-1,.2c-.45.05-.88.16-1.32.25a4.51,4.51,0,0,0-1.13.26,2.6,2.6,0,0,1-.63.11,7.15,7.15,0,0,1-.92.19,5.35,5.35,0,0,0-.92.17c-.54.18-1.11.24-1.66.37s-.88.17-1.31.25a6.22,6.22,0,0,0-1.13.28,6.37,6.37,0,0,1-.63.1c-.64.15-1.28.27-1.92.41-.42.1-.88.16-1.31.25a8.61,8.61,0,0,0-1.81.4,4.87,4.87,0,0,0-1.31.23,9.58,9.58,0,0,0-1.67.37,3.19,3.19,0,0,1-.63.11,9.18,9.18,0,0,1-.91.19,5.65,5.65,0,0,0-.93.17c-.37.11-.76.13-1.13.28-.19.07-.44-.05-.63.11a5.8,5.8,0,0,0-1.31.23,5.11,5.11,0,0,0-1.14.27c-.18.08-.42,0-.63.12a3.19,3.19,0,0,1-.63.11l-.58.1a3.34,3.34,0,0,1-.63.12c-.18,0-.36.15-.55.18a3.47,3.47,0,0,0-.63.11,3.19,3.19,0,0,1-.63.12l-.58.1a3.29,3.29,0,0,1-.64.12c-.18,0-.35.16-.54.17s-.45.09-.68.12c-.64.1-1.27.21-1.9.34s-1.31.25-2,.41a8.55,8.55,0,0,0-1.66.4,5.3,5.3,0,0,0-1.31.23,10.25,10.25,0,0,0-1.66.38,5.89,5.89,0,0,1-.63.11c-.5.12-1,.2-1.49.31-.29.06-.57.13-.85.21s-.57,0-.84.13-.71.11-1.06.19a3.14,3.14,0,0,1-1,.21c-.18.23-.51,0-.69.21a1.82,1.82,0,0,0-.69.11,4.72,4.72,0,0,0-.74.11c-.64.21-1.31.26-2,.43a12.07,12.07,0,0,0-1.66.38c-.27.11-.6,0-.88.13s-.84.13-1.24.27a4.48,4.48,0,0,1-.73.14c-.41.08-.83.16-1.24.28-.2.06-.41,0-.63.12a2,2,0,0,1-.62.12,2.48,2.48,0,0,0-.68.11c-.2.1-.44,0-.6.2a5,5,0,0,0-1.27.21,14.09,14.09,0,0,0-1.71.38c-.21.07-.45,0-.62.14-.49,0-.94.24-1.43.21-.35.18-.78.08-1.12.31a5,5,0,0,0-1.27.22,12.4,12.4,0,0,0-1.71.37c-.2.08-.45,0-.62.14a11.56,11.56,0,0,0-1.85.33l-1.66.37c-.43.1-.88.17-1.31.25A7.55,7.55,0,0,0,281,399c-.2.07-.41,0-.63.12a2,2,0,0,1-.62.12,1.83,1.83,0,0,0-.68.12c-.2.12-.45,0-.6.19a7.43,7.43,0,0,0-1.32.22,6.4,6.4,0,0,0-1.13.27c-.21.06-.45-.05-.62.13a10.57,10.57,0,0,0-1.85.34l-1.66.37c-.43.1-.88.17-1.31.25a7.55,7.55,0,0,0-1.14.27c-.2.07-.42,0-.63.12a2,2,0,0,1-.62.11,2.06,2.06,0,0,0-.68.12c-.2.13-.42.05-.61.18s-.38,0-.58.11a2.61,2.61,0,0,1-.61.11l-8.09-8.09,6.1-1.27c0,.06,0,.13,0,.2a2.58,2.58,0,0,0,0,.39c0,.87,0,1.74,0,2.61a1.48,1.48,0,0,0,.37,1,3.38,3.38,0,0,0,1.36,1,14.9,14.9,0,0,0,1.52.49l.09,0c.39,0,.77.08,1.16.1a6,6,0,0,0,1.2,0,8.32,8.32,0,0,0,2.5-.61,4.45,4.45,0,0,0,1.19-.78,1.62,1.62,0,0,0,.51-1.25c0-.84,0-1.67,0-2.51a1.6,1.6,0,0,0-.35-1.05,3.06,3.06,0,0,0-1.41-1A3.49,3.49,0,0,1,271.46,391.3Z" transform="translate(-257 -375.08)"/><path class="cls-3" d="M265.41,417.32l-8.1-8.09V394.41l8.1,8.1Z" transform="translate(-257 -375.08)"/><path class="cls-2" d="M340.13,377.22a9.09,9.09,0,0,1,.95-.85,5,5,0,0,1,1.29-.53c.23-.08.47-.12.7-.2s.45,0,.69-.11.44,0,.66,0a8.16,8.16,0,0,1,1,0,8.53,8.53,0,0,1,2,.45,3.68,3.68,0,0,1,1.11.58,2,2,0,0,1,.76,1,1.24,1.24,0,0,1-.31,1.06,3.52,3.52,0,0,1-1.35.88c-.2.09-.43.13-.64.21s-.45.06-.64.2h-.1c-.39,0-.77.08-1.16.1s-.76,0-1.14,0c-.2,0-.39-.09-.58-.1a2.35,2.35,0,0,1-.59-.1,4.06,4.06,0,0,1-.59-.19c-.18-.07-.39-.09-.56-.16s-.33-.2-.51-.28a1.73,1.73,0,0,1-.93-.85c-.13-.27-.3-.57-.06-.89C340.16,377.38,340.13,377.29,340.13,377.22Z" transform="translate(-257 -375.08)"/><path class="cls-2" d="M324.92,380.34a10.55,10.55,0,0,1,.95-.85,5.57,5.57,0,0,1,1.29-.53c.23-.07.47-.11.7-.19s.45,0,.69-.11.44,0,.66,0a8.17,8.17,0,0,1,1,0,8.64,8.64,0,0,1,2,.45,4.2,4.2,0,0,1,1.11.58,2,2,0,0,1,.76,1,1.23,1.23,0,0,1-.31,1,3.41,3.41,0,0,1-1.35.88c-.2.09-.43.14-.64.22a3,3,0,0,0-.65.19s-.06,0-.09,0c-.39,0-.77.09-1.16.1s-.76,0-1.14,0-.48-.14-.74-.12a1.55,1.55,0,0,1-.75-.19c-.22-.1-.47-.13-.69-.22s-.43-.21-.65-.3a1.67,1.67,0,0,1-.93-.86c-.13-.26-.31-.57-.06-.88C324.94,380.51,324.92,380.42,324.92,380.34Z" transform="translate(-257 -375.08)"/><path class="cls-2" d="M309.7,383.47c.33-.26.58-.61.95-.85a6,6,0,0,1,1.34-.54c.21-.07.44-.11.65-.19s.48.07.68-.12c.05,0,.17,0,.26,0,.36,0,.72,0,1.09,0a7.2,7.2,0,0,1,3,.75,2.08,2.08,0,0,1,.95.82,1.24,1.24,0,0,1-.08,1.5,3.94,3.94,0,0,1-1.4.89c-.4.18-.84.22-1.24.39l-.05,0a17.37,17.37,0,0,1-2.5.1c-.21-.14-.46-.07-.69-.11a6,6,0,0,1-.69-.2c-.22-.07-.44-.13-.64-.21a2.6,2.6,0,0,1-1.5-1,1,1,0,0,1-.15-1.05S309.7,383.53,309.7,383.47Z" transform="translate(-257 -375.08)"/><path class="cls-2" d="M294.49,386.6a9.6,9.6,0,0,1,.95-.85,6,6,0,0,1,1.34-.55c.21-.07.44-.1.65-.18s.47.07.68-.12c.05,0,.17,0,.25,0h1.1a7.43,7.43,0,0,1,3,.75,2.14,2.14,0,0,1,1,.83,1.23,1.23,0,0,1-.08,1.49,3.76,3.76,0,0,1-1.4.89c-.4.18-.84.23-1.24.4h0a17.43,17.43,0,0,1-2.5.11c-.22-.15-.47-.05-.69-.12a3.64,3.64,0,0,1-.7-.19,6,6,0,0,0-.64-.21,2.71,2.71,0,0,1-1.49-1,1,1,0,0,1-.15-1.05S294.49,386.66,294.49,386.6Z" transform="translate(-257 -375.08)"/><path class="cls-2" d="M279.28,389.72c.33-.23.56-.57.9-.81a5.79,5.79,0,0,1,1.28-.56c.23-.1.51-.12.76-.2s.51.05.72-.14h1.72c.32.22.71.08,1.06.19a8.63,8.63,0,0,1,2,.86,1.75,1.75,0,0,1,.68,1,1.22,1.22,0,0,1-.3,1,3.71,3.71,0,0,1-1.4.9c-.4.18-.84.23-1.24.39a.77.77,0,0,1-.15,0,11.58,11.58,0,0,1-2,.1,7.22,7.22,0,0,1-3-.82,1.85,1.85,0,0,1-1-1.12c-.07-.23-.14-.41,0-.61C279.31,389.9,279.28,389.8,279.28,389.72Z" transform="translate(-257 -375.08)"/><path class="cls-2" d="M268.63,391.11a11.75,11.75,0,0,1,1.57.15,6.7,6.7,0,0,1,2.36.93,1.62,1.62,0,0,1,.67,1,1.23,1.23,0,0,1-.32,1,3.59,3.59,0,0,1-1.35.88c-.2.09-.43.13-.64.21a2.57,2.57,0,0,0-.65.2h-.1c-.38,0-.76.08-1.15.1a5.42,5.42,0,0,1-1.14,0,8.53,8.53,0,0,1-1.49-.29,11.79,11.79,0,0,1-1.35-.53,1.92,1.92,0,0,1-.92-.86.9.9,0,0,1-.15-.66,1.2,1.2,0,0,1,.29-.61A7.11,7.11,0,0,1,265,392a6,6,0,0,1,1.29-.53c.22-.07.47-.11.7-.19s.44,0,.68-.11a2.88,2.88,0,0,1,.93,0Z" transform="translate(-257 -375.08)"/><path class="cls-1" d="M349.3,378.67c0,.72,0,1.36,0,2a1.49,1.49,0,0,1-.69,1,4.92,4.92,0,0,1-1.42.69,7.1,7.1,0,0,1-1.25.27,12.64,12.64,0,0,1-1.62.08,1.87,1.87,0,0,1-.66-.06,3.73,3.73,0,0,0-.6-.05c-.2,0-.39-.14-.59-.2l-.56-.16a3.61,3.61,0,0,1-1.16-.58,1.56,1.56,0,0,1-.71-1.3v-1.6a3.72,3.72,0,0,0,1.11.81,4.18,4.18,0,0,0,1.17.42,3.19,3.19,0,0,0,1.26.22c.28.18.59.09.89.1a7.37,7.37,0,0,0,.94,0c.42-.05.85-.12,1.26-.21a5.18,5.18,0,0,0,1.16-.35A3.94,3.94,0,0,0,349.3,378.67Z" transform="translate(-257 -375.08)"/><path class="cls-1" d="M324.81,381.75a2.69,2.69,0,0,0,1.1.93,4.68,4.68,0,0,0,1.17.43,3.24,3.24,0,0,0,1.27.22,5.12,5.12,0,0,0,1.83.09,6.12,6.12,0,0,0,1.26-.2,8.12,8.12,0,0,0,1.16-.35,3.73,3.73,0,0,0,.75-.43c.25-.17.47-.36.73-.57,0,.65.05,1.29,0,1.92a1.45,1.45,0,0,1-.69,1,4.94,4.94,0,0,1-1.42.7,7.5,7.5,0,0,1-1.25.26,11.13,11.13,0,0,1-1.63.08,1.62,1.62,0,0,1-.65-.05c-.17-.08-.4,0-.6,0s-.39-.14-.59-.2l-.56-.17a3.8,3.8,0,0,1-1.16-.57,1.54,1.54,0,0,1-.71-1.3Z" transform="translate(-257 -375.08)"/><path class="cls-1" d="M318.86,385v2.09a5.74,5.74,0,0,1-.36.55,3.65,3.65,0,0,1-1.27.82c-.21.11-.47.13-.69.23s-.46,0-.64.2h0c-.41,0-.81.08-1.21.1a5.25,5.25,0,0,1-1.19,0,7.65,7.65,0,0,1-1.35-.25,9.05,9.05,0,0,1-1.26-.47,2.11,2.11,0,0,1-1-.88,1.37,1.37,0,0,1-.2-.49c0-.62,0-1.23,0-1.86a2.76,2.76,0,0,0,1.08.82,7.1,7.1,0,0,0,1.22.45,14.08,14.08,0,0,0,1.44.28,5.77,5.77,0,0,0,1.76,0,10.85,10.85,0,0,0,1.38-.27A4.79,4.79,0,0,0,318.86,385Z" transform="translate(-257 -375.08)"/><path class="cls-1" d="M294.39,388.15a3.12,3.12,0,0,0,1.12.78,2.88,2.88,0,0,0,1.28.44c.42.25.93.13,1.38.31a.7.7,0,0,0,.25,0h1a6.81,6.81,0,0,0,1.63-.22,4.78,4.78,0,0,0,1.14-.38,3.87,3.87,0,0,0,1.37-1l0,0,0,0v2a4.44,4.44,0,0,1-.42.61,3.76,3.76,0,0,1-1.28.79c-.4.18-.84.24-1.24.39l-.1,0c-.38,0-.77.09-1.15.1a5.25,5.25,0,0,1-1.19,0,8.21,8.21,0,0,1-1.4-.25,7.65,7.65,0,0,1-1.31-.49,2.18,2.18,0,0,1-1-.82,1.56,1.56,0,0,1-.21-.64C294.37,389.29,294.39,388.72,294.39,388.15Z" transform="translate(-257 -375.08)"/><path class="cls-1" d="M279.18,391.27a3.41,3.41,0,0,0,1.13.79,7.1,7.1,0,0,0,1.22.45,9,9,0,0,0,2.63.29,2.12,2.12,0,0,0,.66,0c.18-.07.44,0,.59-.07s.45,0,.6-.2a2.48,2.48,0,0,0,1.19-.37,3.07,3.07,0,0,0,1.25-1,19.89,19.89,0,0,1,0,2.06,1.45,1.45,0,0,1-.67,1,7.08,7.08,0,0,1-2,.84,8.29,8.29,0,0,1-2.67.18,4.94,4.94,0,0,1-1.44-.27,13.8,13.8,0,0,1-1.34-.53,1.91,1.91,0,0,1-1-1.16.72.72,0,0,1,0-.19Z" transform="translate(-257 -375.08)"/><path class="cls-1" d="M273.24,394.28c0,.65,0,1.17,0,1.68a1.51,1.51,0,0,1-.73,1.33,4.85,4.85,0,0,1-1.39.68,6.36,6.36,0,0,1-1.24.27,11.14,11.14,0,0,1-1.63.09,7.3,7.3,0,0,1-2.4-.46,5.45,5.45,0,0,1-1.08-.54,1.64,1.64,0,0,1-.81-1.49c0-.48,0-1,0-1.54a2.92,2.92,0,0,0,1,.85,5.73,5.73,0,0,0,1.21.47c.25.06.5.12.75.2s.5-.05.74.11c.07,0,.2,0,.3,0,.37,0,.73,0,1.1,0a5.1,5.1,0,0,0,1-.11,7.64,7.64,0,0,0,1.88-.6A3.49,3.49,0,0,0,273.24,394.28Z" transform="translate(-257 -375.08)"/></svg>