<svg id="Layer_1" data-name="Layer 1" xmlns="http://www.w3.org/2000/svg" viewBox="0 0 456.87 372.33"><defs><style>.cls-1{fill:#fff;}</style></defs><path d="M244.33,600.67,81.53,437.88V289.54a44.29,44.29,0,0,1,5.48-2c2.77-.65,5.62-.89,8.41-1.47s5.56-1.13,8.3-1.75c4.74-1.06,9.55-1.78,14.27-2.9,5.3-1.26,10.62-2.61,15.94-3.62,4.65-.89,9.24-2.48,14.28-2.34a29.68,29.68,0,0,1,10.71-8.67,61,61,0,0,1,11.68-4.37c4.55-1.24,9.29-1.39,13.79-2.85,1.51-.49,3.31-.08,5-.08,3.5,0,7-.4,10.48.11a60.7,60.7,0,0,1,9.71,1.8c3.5,1.12,6.95-1.24,10.53-1,1.84-2,4.86.08,6.69-1.94,4.71.36,9.22-1.18,13.61-2.24,5.29-1.26,10.66-2.34,15.95-3.54,4.1-.92,8.4-1.6,12.58-2.39,3.63-.69,7.39-1.23,10.87-2.63,1.65-.66,3.34-.08,5.15-.85,2.7-1.15,5.91-1.07,9.4-1.59,2.52-3.47,6.41-6.16,10.47-8.39A44,44,0,0,1,316,232.6c4-.92,8.13-1.46,12.09-2.33,6.1-1.34,12.11-.36,18.13-.73,1.51-.09,3,.63,4.58.93s2.72-.07,4.21.75,4.08.95,5.26.1c2.19-1.57,4.6-.59,6.89-1.62,2.92-1.31,6.57-1,9.72-1.37L538.41,389.85V540.1c-5.13,1.12-10.32,2.29-15.53,3.37s-10.15,2.07-15.25,3-10.44,2.23-15.67,3.31-10.46,1.84-15.57,3.33c-5,1.44-10.08,2.21-15.12,3.24-5.23,1.08-10.49,2.09-15.73,3.14-5.08,1-10.17,2-15.25,3s-10.45,2-15.6,3.39-10.39,2.19-15.58,3.31-10.29,1.76-15.42,2.7-10.29,2.67-15.51,3.51-10.5,2-15.74,3.08c-5.08,1-10.19,1.9-15.24,3s-10.36,2.42-15.58,3.41-10.11,2.18-15.19,3.13c-5.23,1-10.39,2.27-15.59,3.4s-10.48,2.09-15.75,3c-5.1.89-10.07,2.37-15.22,3.15S249.43,599.93,244.33,600.67Zm291-63.1V392.93a29.7,29.7,0,0,0-5.56.85c-5.35,1.92-11,2.5-16.48,3.61-4,.8-8,2.26-12.14,2.09-1.5,1.77-4.11.39-5.67,2-2.35-.68-4.31,1-6.58,1.06a34.19,34.19,0,0,0-6.08,1c-2.14.43-4.24,1.05-6.36,1.52-5.35,1.17-10.66,2.73-16.08,3.32-4.28.48-8.4,1.64-12.53,2.52q-8.7,1.89-17.45,3.63c-1.21.25-2.38.72-3.59,1s-2.69-.55-3.65.86c-4-.16-7.63,1.88-11.59,2.21a25.75,25.75,0,0,0-6.49,1.21c-1.81.67-3.77,0-5.08.91-1.58,1.16-3.36.2-4.62.93-1.72,1-3.41.71-5.14.93a30.51,30.51,0,0,0-6.47,1.27c-5.34,1.92-11,2.5-16.47,3.61-4,.8-7.95,2.26-12.15,2.09-1.5,1.76-4.11.39-5.66,2-2.35-.68-4.32,1-6.58,1.06-2,.06-4.3.15-6,1.06-2,1.07-4.18.32-6.05,1.11-5.11,2.14-10.65,2.42-16,3.6-4.13.92-8.48,1.44-12.58,2.39-6.11,1.4-12.27,2.5-18.35,3.93-2,.47-4.16.34-6,1a66.27,66.27,0,0,1-10.86,2.62c-4.18.79-8.28,2.37-12.63,2.19-2.34,1.77-5.74.25-7.74,2.47V597.34a32.66,32.66,0,0,0,5.17-.91c2.12-.74,4.38-.65,6.45-1.31,5.4-1.72,11-2.48,16.5-3.56,4-.79,7.95-2.27,12.15-2.08,1.43-2,3.87-.63,5.77-1.84,1.71-1.09,4.28-.82,6.48-1.16,2-.32,4.33-.18,6-1.13,2-1.14,4.11-.44,6-1.12a72.58,72.58,0,0,1,10.88-2.59c4.19-.78,8.48-1.46,12.59-2.38,5.29-1.19,10.65-2.4,15.93-3.55,5.82-1.27,11.67-2.91,17.7-3.23,1.72-2,4.24-.72,6.36-1.52,3.48-1.3,7.28-1.79,11-2.45,2.67-.48,5.66-.11,8-1.21,1.93-.92,3.79-.38,5.57-1a65.26,65.26,0,0,1,10.88-2.61c4.18-.78,8.48-1.46,12.58-2.38,5.29-1.19,10.65-2.41,15.94-3.55,5.82-1.26,11.66-2.91,17.7-3.23,1.7-1.71,4-.59,6-1.29,5.32-1.92,11-2.55,16.47-3.63,4-.79,7.95-2.27,12.15-2.08,1.43-2,3.87-.63,5.77-1.84,1.71-1.09,4.28-.82,6.48-1.16,2-.32,4.44-.09,6-1.14,2.19-1.48,4.95.21,6.78-1.81,3.73.28,7.08-1.43,10.64-2.07C529.52,538.94,532.39,538.22,535.36,537.57Zm-447-246.88L247,449.34c1.45-.24,3.53-.13,5.13-1,2-1.05,4.19-.34,6.05-1.1,5.13-2.1,10.65-2.45,16-3.62,4.13-.91,8.48-1.45,12.59-2.38,6.1-1.39,12.25-2.55,18.35-3.93,2-.46,4.18-.36,6-1A67.68,67.68,0,0,1,322,433.67c4.17-.8,8.48-1.47,12.58-2.42,5.29-1.22,10.73-1.82,16-3.57a47.2,47.2,0,0,1,8.87-1.59,45.27,45.27,0,0,0,8.73-1.85c2.27-.77,4.61-.6,6.88-1.45,3.14-1.17,6.69-1.51,10.06-2.25,2.8-.62,5.88-.24,8.53-1.16,5.2-1.8,10.71-1.95,15.95-3.7a47.1,47.1,0,0,1,8.86-1.6c3-.37,5.86-1.2,8.79-1.78,1.87-.37,4-.15,5.56-.94,4.73-2.41,10-2.22,14.94-3.74,3.09-.95,6.47-1.09,9.64-2.1s6.8-1.14,10.19-1.86c2.91-.62,5.9-1.21,8.89-1.59a69.34,69.34,0,0,0,8.78-1.8c2-.53,4.16-.25,6-1,5.12-2.11,10.65-2.44,16-3.6,4.14-.9,8.48-1.46,12.58-2.4,4.53-1,9.2-1.7,12.84-2.89L374,231.72l-7.9,1.23c.56.68.83,1.33,1.28,1.49a46.05,46.05,0,0,1,8.36,4,24.94,24.94,0,0,1,8.25,7.81,12,12,0,0,1,2.5,6.47c.14,9.49.21,19,0,28.49a13.45,13.45,0,0,1-3.56,8.51c-3.77,4.32-8.75,6.84-13.63,9.42-2.42,1.27-5.32,1.62-8,2.35s-5.13,1.94-7.66,1.85c-3-.1-5.64,1.42-8.59,1.17-5.68-.46-11.35.17-17.12-.78a95.24,95.24,0,0,1-14.68-3.33A42.58,42.58,0,0,1,303,295.83a35.56,35.56,0,0,1-7.13-5.54,15.55,15.55,0,0,1-4.41-11.18c.17-6.66,0-13.33.06-20,0-3.49-.56-7,1-10.28-24.23,4.62-48.06,9.79-72.09,14.18.13,2.26,2.17,2,3.21,2.36a30.6,30.6,0,0,1,13.55,9.41,15.23,15.23,0,0,1,3.39,10.1c-.22,8.33-.06,16.66-.07,25a14.58,14.58,0,0,1-4.13,10.31c-3,3.24-6.72,5.26-10.45,7.41-5.63,3.26-12,4.19-18.09,5.78a49.49,49.49,0,0,1-10.06,1.05c-3.49.17-7,0-10.5.05s-6.62-1.67-10.08-1c-4.61-2.26-9.83-2.43-14.51-4.84-5.43-2.79-9.68-4.62-13-8.49-2.58-3-4.44-6.43-4.28-10.73.2-5.16,0-10.33.08-15.49s-.71-10.31.85-15.32ZM84.68,435.35,243.38,594V452.6L84.68,293.91ZM295.53,248.8c0,.68.11,1.07,0,1.34-1.75,3.87-.61,7,1.52,10.58,2.31,3.84,5.84,5.66,9.32,7.72,3.74,2.21,8.09,3,12.11,4.51,4.18,1.6,8.65,1.59,13,2.39,3.7.68,7.64.27,11.46.1s7.72-.63,11.58-1c.16,0,.39.07.49,0,1.76-1.59,4.19-1.55,6.19-1.8,2.46-.32,4.1-2.6,6.64-2.19,4.34-2.53,9.21-4.28,12.54-8.31,2.41-2.93,4-6.53,3.05-10.11a16.17,16.17,0,0,0-6.6-9.57,42.11,42.11,0,0,0-11.59-5.75c-4.95-1.42-9.75-3.8-15.14-3.27-.33,0-.77.15-1,0-2.85-2.16-6.07-.64-9.1-.92s-6.57-.8-9.4.17c-2.38.81-4.73.27-7,1.15s-4.66.8-6.8,1.68c-4.12,1.7-8.44,2.81-12.3,5.32C301.06,243.07,298.82,246.31,295.53,248.8Zm-146,30c0,.64.11,1,0,1.3-1.75,3.87-.68,7.07,1.51,10.58,2,3.18,4.72,5,7.68,6.8,4,2.43,8.55,3.48,12.87,5.12,4.67,1.78,9.55,1.88,14.31,2.74,3.71.68,7.64.27,11.46.1s7.38-.62,11.07-1a4,4,0,0,0,.89-.26c3.94-1.39,8.1-2,11.95-3.72,4.78-2.1,9.42-4.36,13.06-8.27,2-2.18,2.59-5,3.16-7.67.44-2.11-.87-4.38-2.3-7-3.13-5.76-8.79-7.75-14.28-10-2-.83-4.09-1.38-6.15-2a56.92,56.92,0,0,0-6.67-1.94c-2.18-.4-4.56.48-6.57-1.06h-17c-2,1.84-4.66.55-6.93,1.36s-4.64.85-6.79,1.69c-4.15,1.63-8.43,2.86-12.31,5.31C155.06,273,152.84,276.27,149.53,278.8Zm234-16.45c-1.45,1.76-2.11,2.69-2.88,3.5-3.33,3.47-7.74,5.33-11.85,7.54-2.13,1.15-4.73,1.41-7.11,2.09s-4.8,1.28-7.19,1.87-5.14-.17-7.54,1.13c-6.17-.54-12.46,1.18-18.55-1-4.25.58-8.13-1.15-12.13-2a42.73,42.73,0,0,1-11.6-4.47c-3.54-2-7.2-4-10.15-8.34,0,6.79-.09,12.57.07,18.35a9.79,9.79,0,0,0,1.38,4.38,18,18,0,0,0,9,8.15c2.14.85,4.12,2.1,6.27,2.93s4.56,1.1,6.6,2.11a20.33,20.33,0,0,0,6.71,1.81c2.38.28,4.73.81,7.07,1a78.57,78.57,0,0,0,13.46,0,103.07,103.07,0,0,0,12.66-1.87c5.22-1.11,15.54-5.22,19.52-8.29,3-2.3,5.76-5.25,6.11-8.88C384,276.14,383.53,269.83,383.53,262.35Zm-235,30.46c0,6.48,0,12.1,0,17.72a10.68,10.68,0,0,0,.7,2.19c1.33,5.34,5,8.58,9.76,10.77,2.1.95,4.11,2.12,6.26,2.95s4.6,1.05,6.59,2.13a19.37,19.37,0,0,0,6.73,1.77c2.35.35,4.71.86,7.06,1a98.32,98.32,0,0,0,13,.05,80.13,80.13,0,0,0,12.66-1.9c5.8-1.25,14.87-4.69,19.61-8.08,3.18-2.28,6.1-5.32,6.48-9.15.61-6.2.16-12.51.16-19.57-4.14,5.37-9.36,7.83-14.36,10.47-2.41,1.27-5.33,1.58-8,2.27s-5.41,1.48-8.16,2a60.36,60.36,0,0,1-8.56,1c-4.66.16-9.32,0-14,0-2.17-1.68-4.82-.41-7-1.1-2.38-.75-4.82-1.19-7.18-1.93a59.66,59.66,0,0,1-12.38-5.06A33.46,33.46,0,0,1,148.53,292.81Z" transform="translate(-81.53 -228.33)"/><path class="cls-1" d="M535.36,537.57c-3,.65-5.84,1.37-8.74,1.89-3.56.64-6.91,2.35-10.64,2.07-1.83,2-4.59.33-6.78,1.81-1.55,1-4,.82-6,1.14-2.2.34-4.77.07-6.48,1.16-1.9,1.21-4.34-.13-5.77,1.84-4.2-.19-8.13,1.29-12.15,2.08-5.51,1.08-11.15,1.71-16.47,3.63-1.94.7-4.26-.42-6,1.29-6,.32-11.88,2-17.7,3.23-5.29,1.14-10.65,2.36-15.94,3.55-4.1.92-8.4,1.6-12.58,2.38a65.26,65.26,0,0,0-10.88,2.61c-1.78.67-3.64.13-5.57,1-2.33,1.1-5.32.73-8,1.21-3.7.66-7.5,1.15-11,2.45-2.12.8-4.64-.51-6.36,1.52-6,.32-11.88,2-17.7,3.23-5.28,1.15-10.64,2.36-15.93,3.55-4.11.92-8.4,1.6-12.59,2.38a72.58,72.58,0,0,0-10.88,2.59c-1.94.68-4,0-6,1.12-1.68.95-4,.81-6,1.13-2.2.34-4.77.07-6.48,1.16-1.9,1.21-4.34-.13-5.77,1.84-4.2-.19-8.13,1.29-12.15,2.08-5.51,1.08-11.1,1.84-16.5,3.56-2.07.66-4.33.57-6.45,1.31a32.66,32.66,0,0,1-5.17.91V453c2-2.22,5.4-.7,7.74-2.47,4.35.18,8.45-1.4,12.63-2.19a66.27,66.27,0,0,0,10.86-2.62c1.88-.7,4-.57,6-1,6.08-1.43,12.24-2.53,18.35-3.93,4.1-.95,8.45-1.47,12.58-2.39,5.31-1.18,10.85-1.46,16-3.6,1.87-.79,4,0,6.05-1.11,1.73-.91,4-1,6-1.06,2.26-.07,4.23-1.74,6.58-1.06,1.55-1.61,4.16-.24,5.66-2,4.2.17,8.14-1.29,12.15-2.09,5.5-1.11,11.13-1.69,16.47-3.61a30.51,30.51,0,0,1,6.47-1.27c1.73-.22,3.42.06,5.14-.93,1.26-.73,3,.23,4.62-.93,1.31-.95,3.27-.24,5.08-.91a25.75,25.75,0,0,1,6.49-1.21c4-.33,7.57-2.37,11.59-2.21,1-1.41,2.43-.6,3.65-.86s2.38-.72,3.59-1q8.74-1.75,17.45-3.63c4.13-.88,8.25-2,12.53-2.52,5.42-.59,10.73-2.15,16.08-3.32,2.12-.47,4.22-1.09,6.36-1.52a34.19,34.19,0,0,1,6.08-1c2.27-.06,4.23-1.74,6.58-1.06,1.56-1.61,4.17-.23,5.67-2,4.19.17,8.13-1.29,12.14-2.09,5.51-1.11,11.13-1.69,16.48-3.61a29.7,29.7,0,0,1,5.56-.85Z" transform="translate(-81.53 -228.33)"/><path class="cls-1" d="M88.33,290.69l58.08-12.08c-1.56,5-.73,10.18-.85,15.32s.12,10.33-.08,15.49c-.16,4.3,1.7,7.68,4.28,10.73,3.27,3.87,7.52,5.7,13,8.49,4.68,2.41,9.9,2.58,14.51,4.84,3.46-.66,6.68,1,10.08,1s7,.12,10.5-.05a49.49,49.49,0,0,0,10.06-1.05c6.12-1.59,12.46-2.52,18.09-5.78,3.73-2.15,7.45-4.17,10.45-7.41a14.58,14.58,0,0,0,4.13-10.31c0-8.34-.15-16.67.07-25a15.23,15.23,0,0,0-3.39-10.1,30.6,30.6,0,0,0-13.55-9.41c-1-.4-3.08-.1-3.21-2.36,24-4.39,47.86-9.56,72.09-14.18-1.55,3.24-1,6.79-1,10.28-.05,6.66.11,13.33-.06,20a15.55,15.55,0,0,0,4.41,11.18,35.56,35.56,0,0,0,7.13,5.54,42.58,42.58,0,0,0,10.16,4.55,95.24,95.24,0,0,0,14.68,3.33c5.77,1,11.44.32,17.12.78,2.95.25,5.58-1.27,8.59-1.17,2.53.09,5.11-1.15,7.66-1.85s5.6-1.08,8-2.35c4.88-2.58,9.86-5.1,13.63-9.42a13.45,13.45,0,0,0,3.56-8.51c.23-9.49.16-19,0-28.49a12,12,0,0,0-2.5-6.47,24.94,24.94,0,0,0-8.25-7.81,46.05,46.05,0,0,0-8.36-4c-.45-.16-.72-.81-1.28-1.49l7.9-1.23L532.61,390.35c-3.64,1.19-8.31,1.85-12.84,2.89-4.1.94-8.44,1.5-12.58,2.4-5.32,1.16-10.85,1.49-16,3.6-1.88.78-4,.5-6,1a69.34,69.34,0,0,1-8.78,1.8c-3,.38-6,1-8.89,1.59-3.39.72-6.9.82-10.19,1.86s-6.55,1.15-9.64,2.1c-4.92,1.52-10.21,1.33-14.94,3.74-1.54.79-3.69.57-5.56.94-2.93.58-5.83,1.41-8.79,1.78a47.1,47.1,0,0,0-8.86,1.6c-5.24,1.75-10.75,1.9-15.95,3.7-2.65.92-5.73.54-8.53,1.16-3.37.74-6.92,1.08-10.06,2.25-2.27.85-4.61.68-6.88,1.45a45.27,45.27,0,0,1-8.73,1.85,47.2,47.2,0,0,0-8.87,1.59c-5.23,1.75-10.67,2.35-16,3.57-4.1.95-8.41,1.62-12.58,2.42a67.68,67.68,0,0,0-10.87,2.62c-1.86.69-4,.59-6,1-6.1,1.38-12.25,2.54-18.35,3.93-4.11.93-8.46,1.47-12.59,2.38-5.31,1.17-10.83,1.52-16,3.62-1.86.76-4,.05-6.05,1.1-1.6.84-3.68.73-5.13,1ZM372.53,348c0,4.5,0,9,0,13.49a12.81,12.81,0,0,0,2.35,7c1.79,2.78,3.75,5.49,6.63,6.87s5.06,3.4,8.19,4.37,6.39,2.2,9.65,3.18c4.89,1.48,9.93,1.85,14.92,2.52a56.51,56.51,0,0,0,7.48.06c2.17,0,4.48.49,6.46-.1,4.53-1.35,9.24-1.53,13.82-2.74,8.61-2.29,16.26-5.86,22.3-12.5a12.16,12.16,0,0,0,3.15-8.16q.17-14,0-28a10.23,10.23,0,0,0-1.41-5.36,28.74,28.74,0,0,0-9.44-9.33c-3.26-1.87-6.87-2.85-10-4.82-1-.65-2.44-.74-3.5-1.17-2.38-1-5.08-.05-7-1.08s-4.05,0-5.64-.87c-1.89-1-3.73-.81-5.64-.9a92.61,92.61,0,0,0-26.75,2.9C392.8,314.7,381,320,377.38,324a16.57,16.57,0,0,0-4.86,12C372.58,340,372.53,344,372.53,348Zm-51,30.12c0-4.66.12-9.33-.06-14a10.86,10.86,0,0,0-1.35-5.39,28.27,28.27,0,0,0-9.44-9.36c-3.52-2-7.32-3.28-10.89-5.1a19.37,19.37,0,0,0-2.18-.77,17.89,17.89,0,0,0-7.57-1c-1.22-1.75-3.05-.72-4.58-1a36.31,36.31,0,0,0-5.08-1,92.28,92.28,0,0,0-28.25,2.89c-8.53,2.3-16.31,5.66-22.37,12.32a12,12,0,0,0-3.12,7.67c-.28,9.64-.17,19.3,0,29a10.85,10.85,0,0,0,1.32,4.91c3.13,5.68,8.28,9.36,14,11.8,3.46,1.48,6.92,3.82,11.07,3.41,1.19,2,3.54.56,5.29,1.81,1.46,1,4.25,0,6.15.71s3.88.38,5.79.44a88,88,0,0,0,25.76-2.85c7.92-2.08,15-5.22,21-10.94a14.75,14.75,0,0,0,4.63-11.08C321.54,386.41,321.53,382.24,321.53,378.08Z" transform="translate(-81.53 -228.33)"/><path class="cls-1" d="M84.68,435.35V293.91L243.38,452.6V594Z" transform="translate(-81.53 -228.33)"/><path class="cls-1" d="M295.53,248.8c3.29-2.49,5.53-5.73,8.93-7.94,3.86-2.51,8.18-3.62,12.3-5.32,2.14-.88,4.64-.85,6.8-1.68s4.62-.34,7-1.15c2.83-1,6.26-.45,9.4-.17s6.25-1.24,9.1.92c.21.16.65,0,1,0,5.39-.53,10.19,1.85,15.14,3.27a42.11,42.11,0,0,1,11.59,5.75,16.17,16.17,0,0,1,6.6,9.57c.92,3.58-.64,7.18-3.05,10.11-3.33,4-8.2,5.78-12.54,8.31-2.54-.41-4.18,1.87-6.64,2.19-2,.25-4.43.21-6.19,1.8-.1.08-.33,0-.49,0-3.86.33-7.71.79-11.58,1s-7.76.58-11.46-.1c-4.31-.8-8.78-.79-13-2.39-4-1.54-8.37-2.3-12.11-4.51-3.48-2.06-7-3.88-9.32-7.72-2.13-3.55-3.27-6.71-1.52-10.58C295.64,249.87,295.53,249.48,295.53,248.8Z" transform="translate(-81.53 -228.33)"/><path class="cls-1" d="M149.53,278.8c3.31-2.53,5.53-5.79,9-8,3.88-2.45,8.16-3.68,12.31-5.31,2.15-.84,4.61-.91,6.79-1.69s4.91.48,6.93-1.36h17c2,1.54,4.39.66,6.57,1.06a56.92,56.92,0,0,1,6.67,1.94c2.06.65,4.17,1.2,6.15,2,5.49,2.28,11.15,4.27,14.28,10,1.43,2.63,2.74,4.9,2.3,7-.57,2.71-1.14,5.49-3.16,7.67-3.64,3.91-8.28,6.17-13.06,8.27-3.85,1.69-8,2.33-11.95,3.72a4,4,0,0,1-.89.26c-3.69.35-7.37.81-11.07,1s-7.75.58-11.46-.1c-4.76-.86-9.64-1-14.31-2.74-4.32-1.64-8.86-2.69-12.87-5.12-3-1.8-5.7-3.62-7.68-6.8-2.19-3.51-3.26-6.71-1.51-10.58C149.64,279.83,149.53,279.44,149.53,278.8Z" transform="translate(-81.53 -228.33)"/><path class="cls-1" d="M383.53,262.35c0,7.48.44,13.79-.17,20-.35,3.63-3.15,6.58-6.11,8.88-4,3.07-14.3,7.18-19.52,8.29a103.07,103.07,0,0,1-12.66,1.87,78.57,78.57,0,0,1-13.46,0c-2.34-.2-4.69-.73-7.07-1a20.33,20.33,0,0,1-6.71-1.81c-2-1-4.45-1.27-6.6-2.11s-4.13-2.08-6.27-2.93a18,18,0,0,1-9-8.15A9.79,9.79,0,0,1,294.6,281c-.16-5.78-.07-11.56-.07-18.35,3,4.33,6.61,6.36,10.15,8.34a42.73,42.73,0,0,0,11.6,4.47c4,.89,7.88,2.62,12.13,2,6.09,2.18,12.38.46,18.55,1,2.4-1.3,5.12-.53,7.54-1.13s4.81-1.19,7.19-1.87,5-.94,7.11-2.09c4.11-2.21,8.52-4.07,11.85-7.54C381.42,265,382.08,264.11,383.53,262.35Z" transform="translate(-81.53 -228.33)"/><path class="cls-1" d="M148.53,292.81a33.46,33.46,0,0,0,9.32,7.58,59.66,59.66,0,0,0,12.38,5.06c2.36.74,4.8,1.18,7.18,1.93,2.22.69,4.87-.58,7,1.1,4.65,0,9.31.12,14,0a60.36,60.36,0,0,0,8.56-1c2.75-.49,5.45-1.27,8.16-2s5.62-1,8-2.27c5-2.64,10.22-5.1,14.36-10.47,0,7.06.45,13.37-.16,19.57-.38,3.83-3.3,6.87-6.48,9.15-4.74,3.39-13.81,6.83-19.61,8.08a80.13,80.13,0,0,1-12.66,1.9,98.32,98.32,0,0,1-13-.05c-2.35-.18-4.71-.69-7.06-1a19.37,19.37,0,0,1-6.73-1.77c-2-1.08-4.44-1.29-6.59-2.13s-4.16-2-6.26-2.95c-4.81-2.19-8.43-5.43-9.76-10.77a10.68,10.68,0,0,1-.7-2.19C148.5,304.91,148.53,299.29,148.53,292.81Z" transform="translate(-81.53 -228.33)"/><path d="M372.53,348c0-4,.05-8,0-12a16.57,16.57,0,0,1,4.86-12c3.66-4,15.42-9.25,20.66-10.57a92.61,92.61,0,0,1,26.75-2.9c1.91.09,3.75-.13,5.64.9,1.59.87,3.61-.21,5.64.87s4.64.12,7,1.08c1.06.43,2.45.52,3.5,1.17,3.16,2,6.77,2.95,10,4.82a28.74,28.74,0,0,1,9.44,9.33,10.23,10.23,0,0,1,1.41,5.36q.19,14,0,28a12.16,12.16,0,0,1-3.15,8.16c-6,6.64-13.69,10.21-22.3,12.5-4.58,1.21-9.29,1.39-13.82,2.74-2,.59-4.29.1-6.46.1a56.51,56.51,0,0,1-7.48-.06c-5-.67-10-1-14.92-2.52-3.26-1-6.45-2.19-9.65-3.18s-5.42-3-8.19-4.37-4.84-4.09-6.63-6.87a12.81,12.81,0,0,1-2.35-7C372.51,357,372.53,352.46,372.53,348Zm4-18.09c0,.71.28,1.59,0,2-2.44,3-.6,5.95.57,8.48,1.75,3.81,5.11,6.18,8.89,8.22a66.92,66.92,0,0,0,29.2,7.83,88.09,88.09,0,0,0,16.59-.71A74.28,74.28,0,0,0,451.43,350c3.78-1.68,7.43-3.77,10-7.07,2.28-2.9,3.85-6.36,2.85-10.11a14.92,14.92,0,0,0-5.62-8.6c-3.42-2.35-6.9-4.68-11.05-5.85-3.89-1.09-7.51-3.17-11.72-3-1.46-1.72-3.6-.2-5.08-1-1.87-1-3.71-.9-5.63-.91-2.49,0-5,0-7.49,0-2.16,0-4.73-.74-6.39.18-2.25,1.24-4.47.28-6.58,1s-4.2,1.1-6.26,1.79c-4.38,1.46-8.81,2.69-12.83,5.22C382.09,324,379.71,327.31,376.53,329.87Zm-1,14.69c0,5.93-.08,11.87.06,17.8a7.9,7.9,0,0,0,1.31,3.91,22.16,22.16,0,0,0,8.91,8.32c4.2,2,8.6,3.35,12.89,5,4.52,1.77,9.24,1.74,13.82,2.69,3.66.77,7.62.29,11.44.12s7.71-.63,11.57-1c.16,0,.39.07.49,0,1.77-1.56,4.17-1.09,6.18-1.94s4.59-1.06,6.6-2.12c4.29-2.26,9-4,12.17-7.93a52.43,52.43,0,0,0,3.4-5.23v-19.6l-.81-.65a7.55,7.55,0,0,1-.78,1.7c-3.34,4-8,6.19-12.5,8.37a52,52,0,0,1-11.07,3.36,105.9,105.9,0,0,1-12.14,2,62.44,62.44,0,0,1-9,0c-2.88-.11-5.88.73-8.57-1-4.26.59-8.18-1-12.13-2.07s-7.92-2-11.24-4.09C382.58,350.1,378.42,348.36,375.53,344.56Z" transform="translate(-81.53 -228.33)"/><path d="M321.53,378.08c0,4.16,0,8.33,0,12.49a14.75,14.75,0,0,1-4.63,11.08c-5.93,5.72-13,8.86-21,10.94a88,88,0,0,1-25.76,2.85c-1.91-.06-3.79.3-5.79-.44s-4.69.34-6.15-.71c-1.75-1.25-4.1.23-5.29-1.81-4.15.41-7.61-1.93-11.07-3.41-5.69-2.44-10.84-6.12-14-11.8a10.85,10.85,0,0,1-1.32-4.91c-.12-9.66-.23-19.32,0-29a12,12,0,0,1,3.12-7.67c6.06-6.66,13.84-10,22.37-12.32a92.28,92.28,0,0,1,28.25-2.89,36.31,36.31,0,0,1,5.08,1c1.53.28,3.36-.75,4.58,1a17.89,17.89,0,0,1,7.57,1,19.37,19.37,0,0,1,2.18.77c3.57,1.82,7.37,3.08,10.89,5.1a28.27,28.27,0,0,1,9.44,9.36,10.86,10.86,0,0,1,1.35,5.39C321.65,368.75,321.53,373.42,321.53,378.08ZM274.3,343.16l0,.32c-3,0-6.27-.75-8.9.23-2.28.84-4.47.21-6.57,1s-4.53,1.19-6.73,1.88c-4.24,1.33-8.51,2.66-12.37,5.12a40.85,40.85,0,0,0-7.28,6.45c-3.43,3.56-3.76,7.44-1.43,12.17a16.8,16.8,0,0,0,9,8.18c2.13.87,4.12,2.11,6.27,2.94s4.53,1.14,6.62,2.1c2.33,1.07,4.75,2,7.18,1.83s4.66,1.17,7.09,1.13c3.66-.07,7.33.11,11-.06s7.38-.63,11.07-1c.32,0,.72,0,.95-.11,1.88-1.29,4.19-1.09,6.22-1.87s4.18-1.18,6.14-2.06c4.75-2.13,9.69-4.22,12.92-8.46,2.34-3.07,3.89-6.42,2.47-10.87-1.66-5.17-5.14-8.12-9.45-10.63-6.24-3.64-13.13-5.51-20.1-6.91C283.73,343.65,279,343.6,274.3,343.16ZM229.53,373.5c0,6.89-.09,12.67.06,18.44a9.94,9.94,0,0,0,1.37,4.39,20.77,20.77,0,0,0,8.93,8.24c4.16,2.16,8.62,3.34,12.88,5.08,4.53,1.85,9.27,1.5,13.83,2.69,2.8.74,6,.27,8.94.1,2.74-.16,5.47.53,8.23-.6s5.59-.49,8.45-1.2a62.63,62.63,0,0,0,20-8.44c3.21-2.13,5.91-5.37,6.22-9.31.47-6.06.12-12.19.12-19.1-4.14,5.26-9.27,7.84-14.31,10.33-3.41,1.69-7.32,2.47-11.09,3.31a107.76,107.76,0,0,1-12.14,2,62.44,62.44,0,0,1-9,0c-2.87-.11-5.87.73-8.57-1-4.25.58-8.19-1-12.12-2.08A53.78,53.78,0,0,1,239.71,382C236.17,380,232.44,378,229.53,373.5Z" transform="translate(-81.53 -228.33)"/><path class="cls-1" d="M376.53,329.87c3.18-2.56,5.56-5.91,9.13-8.15,4-2.53,8.45-3.76,12.83-5.22,2.06-.69,4.23-1,6.26-1.79s4.33.19,6.58-1c1.66-.92,4.23-.18,6.39-.18,2.5,0,5,0,7.49,0,1.92,0,3.76-.07,5.63.91,1.48.77,3.62-.75,5.08,1,4.21-.13,7.83,1.95,11.72,3,4.15,1.17,7.63,3.5,11.05,5.85a14.92,14.92,0,0,1,5.62,8.6c1,3.75-.57,7.21-2.85,10.11-2.6,3.3-6.25,5.39-10,7.07a74.28,74.28,0,0,1-19.69,5.64,88.09,88.09,0,0,1-16.59.71,66.92,66.92,0,0,1-29.2-7.83c-3.78-2-7.14-4.41-8.89-8.22-1.17-2.53-3-5.45-.57-8.48C376.81,331.46,376.53,330.58,376.53,329.87Z" transform="translate(-81.53 -228.33)"/><path class="cls-1" d="M375.53,344.56c2.89,3.8,7.05,5.54,10.63,7.76,3.32,2.07,7.38,3.07,11.24,4.09s7.87,2.66,12.13,2.07c2.69,1.7,5.69.86,8.57,1a62.44,62.44,0,0,0,9,0,105.9,105.9,0,0,0,12.14-2,52,52,0,0,0,11.07-3.36c4.5-2.18,9.16-4.36,12.5-8.37a7.55,7.55,0,0,0,.78-1.7l.81.65v19.6a52.43,52.43,0,0,1-3.4,5.23c-3.19,3.91-7.88,5.67-12.17,7.93-2,1.06-4.47,1.22-6.6,2.12s-4.41.38-6.18,1.94c-.1.08-.33,0-.49,0-3.86.33-7.71.79-11.57,1s-7.78.65-11.44-.12c-4.58-.95-9.3-.92-13.82-2.69-4.29-1.69-8.69-3-12.89-5a22.16,22.16,0,0,1-8.91-8.32,7.9,7.9,0,0,1-1.31-3.91C375.45,356.43,375.53,350.49,375.53,344.56Z" transform="translate(-81.53 -228.33)"/><path class="cls-1" d="M274.3,343.16c4.68.44,9.43.49,14,1.41,7,1.4,13.86,3.27,20.1,6.91,4.31,2.51,7.79,5.46,9.45,10.63,1.42,4.45-.13,7.8-2.47,10.87-3.23,4.24-8.17,6.33-12.92,8.46-2,.88-4.12,1.29-6.14,2.06s-4.34.58-6.22,1.87c-.23.16-.63.08-.95.11-3.69.33-7.38.79-11.07,1s-7.33,0-11,.06c-2.43,0-4.55-1.32-7.09-1.13s-4.85-.76-7.18-1.83c-2.09-1-4.46-1.26-6.62-2.1s-4.14-2.07-6.27-2.94a16.8,16.8,0,0,1-9-8.18c-2.33-4.73-2-8.61,1.43-12.17a40.85,40.85,0,0,1,7.28-6.45c3.86-2.46,8.13-3.79,12.37-5.12,2.2-.69,4.54-1.05,6.73-1.88s4.29-.15,6.57-1c2.63-1,5.91-.23,8.9-.23Z" transform="translate(-81.53 -228.33)"/><path class="cls-1" d="M229.53,373.5c2.91,4.53,6.64,6.52,10.18,8.48a53.78,53.78,0,0,0,11.62,4.42c3.93,1.1,7.87,2.66,12.12,2.08,2.7,1.7,5.7.86,8.57,1a62.44,62.44,0,0,0,9,0,107.76,107.76,0,0,0,12.14-2c3.77-.84,7.68-1.62,11.09-3.31,5-2.49,10.17-5.07,14.31-10.33,0,6.91.35,13-.12,19.1-.31,3.94-3,7.18-6.22,9.31a62.63,62.63,0,0,1-20,8.44c-2.86.71-5.82.12-8.45,1.2s-5.49.44-8.23.6c-3,.17-6.14.64-8.94-.1-4.56-1.19-9.3-.84-13.83-2.69-4.26-1.74-8.72-2.92-12.88-5.08a20.77,20.77,0,0,1-8.93-8.24,9.94,9.94,0,0,1-1.37-4.39C229.44,386.17,229.53,380.39,229.53,373.5Z" transform="translate(-81.53 -228.33)"/></svg>