<svg id="Layer_1" data-name="Layer 1" xmlns="http://www.w3.org/2000/svg" viewBox="0 0 749.78 432.38"><defs><style>.cls-1{fill:#fff;}</style></defs><path d="M93.51,600.74l-162.4-162.4V289.88c1.47-.7,3-2,4.55-2,5.77-.18,11.1-2.43,16.73-3.26a32.34,32.34,0,0,0,6.85-1.45,35.3,35.3,0,0,1,6.93-1.38c2.35-.39,4.82-.35,7.06-1.07,6.16-2,12.51-2.91,18.83-4.11a45.22,45.22,0,0,1,6.17-.92,16.32,16.32,0,0,1,1.89-2.48c5.62-5.59,12.66-8.43,20.16-10.45a95.46,95.46,0,0,1,28.26-3.05,21,21,0,0,1,5.09,1.05c1.52.42,3.06-.32,4.75.65a7.09,7.09,0,0,0,5.29.26c3.86-1.36,8-1.2,11.85-2.75,2-.8,4.32-.37,6.57-1,3.15-.82,6.44-1.23,9.64-2.11a65.82,65.82,0,0,1,9.17-1.9c4.27-.51,8.43-1.59,12.62-2.36,3.61-.65,7.46-.82,10.86-2.64,1.53-.81,3.66.71,5.05-1.09,4.82.11,9.27-2.3,14.28-2.11,2.72-3.84,6.66-6.5,10.73-8.73,3.47-1.91,7.43-3,11.24-4.22,4.63-1.51,9.53-1.85,14.28-2.86,3.83-.81,8-.32,12-.1,2.19.12,4.4-.74,6.67.8,1.57,1.06,4.24-.81,6,1.14,2.21-.41,4.51.69,6.72-.71,1.58-1,3.6-.23,5.53-1.11,2.35-1.09,5.34-.7,8-1.21,5.38-1,10.73-2.23,16.08-3.4,2.13-.46,4.21-1.36,6.35-1.5,3-.2,5.87-1.26,8.84-1.65a61.76,61.76,0,0,0,8.85-1.63c3.58-1,7.38-1.15,10.85-2.72,1.68-.76,3.65.05,5.67-.79,2.71-1.13,5.94-1,9.31-1.47,2.59-3.58,6.51-6.24,10.56-8.51a48.63,48.63,0,0,1,10.72-4.23c5-1.37,10.21-1.75,15.25-3,1.73-.43,3.65-.05,5.49-.08,6.46-.08,12.87,0,19.21,1.86,1.91.55,4.58,1,6.54-.85,4.69.28,9.09-1.5,13.64-2.19,5.36-.8,10.83-1.6,16-3.51,1.94-.72,4.26.42,6-1.3,6-.33,11.88-2,17.71-3.23,5.28-1.16,10.72-1.89,15.92-3.68,2.67-.91,5.67-.84,9-1.28,2.55-3.51,6.44-6.19,10.5-8.42a44.54,44.54,0,0,1,11.19-4.28c4-.91,8.14-1.45,12.1-2.32,6.1-1.33,12.11-.37,18.13-.73,1.51-.09,3.05.63,4.59.93,1.38.27,2.71-.08,4.21.74a7,7,0,0,0,5.33.16c3.83-1.51,8.05-1,11.84-2.79,1.37-.63,3.27-.1,4.85-.1L680.89,330.12V480.35c-4.28,1.38-8.92,1.42-13.16,3.14-1.9.76-4,.49-6,1a68.63,68.63,0,0,1-8.78,1.8,53.39,53.39,0,0,0-8.86,1.61c-5.24,1.66-10.75,1.86-15.93,3.71a25.2,25.2,0,0,1-5.57.89c-2,.2-3.61,1.34-5.57,1.22s-3.66.87-5.55,1.17a71.17,71.17,0,0,0-8.7,1.82c-2.7.79-5.65.5-8.18,2-4.26-.51-8,1.79-12.14,2.2a49.23,49.23,0,0,0-8.68,1.85c-2.7.78-5.66.48-8.19,2-4.25-.53-8,1.79-12.14,2.19a49.42,49.42,0,0,0-8.68,1.85c-2.7.79-5.52.87-8.23,1.83-2.16.77-4.69.11-7.07,1.06-2,.81-4.77.14-6.44,1.26-2.09,1.39-4.37.16-6.43,1.56-1.54,1.06-3.93.64-6,1.13-6.08,1.44-12.24,2.52-18.35,3.93-4.09.94-8.35,1.73-12.58,2.32-4.78.67-9.42,2.31-14.23,3-1.87,1.93-4.56.45-6.8,1.75-1.92,1.11-4.75.49-7,1.26-2.05.71-4.45.3-6.21,1.9-4.19-.19-8.13,1.29-12.15,2.08-5.51,1.08-11.15,1.71-16.48,3.63-1.94.69-4,.15-6,1.13-2.2,1-5.34.18-7.42,1.33-2.4,1.32-5.26-.22-7.26,1.83-2.83-.75-5.38.75-8.08,1.09a110.22,110.22,0,0,0-11,2.38c-2.13.48-4.23,1.07-6.37,1.51a36.27,36.27,0,0,1-6.08,1c-2.27.06-4.23,1.77-6.59,1.06-1.56,1.59-3.84,1-5.75,1.82-2.36,1.07-5.32.75-8,1.2-4,.68-8.07,1.34-12,2.32-3.63.91-7.32,1.5-10.91,2.59-2.26.69-5.08.11-7,1.23-2.24,1.34-5-.23-6.79,1.79-2.3-.35-4.37.83-6.57,1-4,.3-7.56,2.42-11.61,2.18-1.91,1.82-4.53.66-6.81,1.66a26.6,26.6,0,0,1-7,1.4c-3.51.42-7,1.54-10.51,2.25-2.14.43-4.23,1.4-6.36,1.48-4.65.18-9.1,1.58-13.62,2.32a97.43,97.43,0,0,0-15.91,3.67c-1.73.59-3.7.52-5.59,1-6.1,1.39-12.34,2-18.34,4-2.52.84-5.4.55-8,1.14-4.13.92-8.29,1.67-12.42,2.55-3.52.75-7,1.51-10.53,2.36-2.3.55-5.13,0-7,1.21-2.24,1.41-5-.31-6.79,1.81-2.3-.39-4.38.78-6.58,1-4,.33-7.61,2-11.58,2.36a57.36,57.36,0,0,0-8.24,1.75c-5.45,1.4-11.15,1.62-16.45,3.72-1.88.75-4,.18-6.05,1.08-2.25,1-5.24.28-7.46,1.29-2.38,1.09-5,.29-7.29,1.77C96.07,601.19,94.62,600.74,93.51,600.74ZM677.84,477.82V333.18a30.49,30.49,0,0,0-5.57.87c-5.35,1.9-11,2.49-16.48,3.6-4,.8-8,2.27-12.15,2.09-3.08,2.16-6.9,1.84-10.32,2.78a62.71,62.71,0,0,1-10.62,2.08c-4.15.37-7.9,2.7-12.16,2.14-1.4,2.05-3.66.55-5.46,1.3s-4,.72-6,1.17c-1.81.41-3.57,1.43-5.36,1.44-4.2,0-7.91,2.67-12.17,2.09-2.49,1.6-5.51,1.06-8.17,2a40.21,40.21,0,0,1-8.69,1.84c-4.12.46-7.88,2.77-12.15,2.18-1.8,2.06-4.53.55-6.76,1.84-1.92,1.1-4.68.63-7,1.21s-4.94.4-7,1.13c-3.57,1.25-7.49.9-10.82,2.82-6,.22-11.72,2.7-17.76,3-1.71,1.71-4.09.42-5.95,1.32-3.45,1.66-7.28,1.9-10.91,2.52-4.21.71-8.28,2.4-12.65,2.16-1.5,1.76-4.11.39-5.67,2-2.35-.69-4.31,1-6.58,1.06-2,.05-4.3.14-6,1.06-2,1.08-4.15.4-6.06,1.1-3.53,1.29-7.32,1.46-10.87,2.71-2.06.72-4.75.13-6.46,1.22-2.09,1.33-4.63-.2-6.33,1.69-4-.17-7.64,1.89-11.61,2.21a25.24,25.24,0,0,0-6.48,1.22c-1.81.67-3.79-.07-5.08.91-1.59,1.2-3.4.15-4.63.92-1.72,1.06-3.42.69-5.15.93a33.44,33.44,0,0,0-6.46,1.28c-5.36,1.88-11,2.5-16.48,3.6-4,.8-8,2.27-12.15,2.09-5.5,2.58-11.57,2.71-17.37,3.85-4.17.81-8.27,2.41-12.64,2.15-1.47,1.87-3.87.77-5.76,1.85s-4.3.8-6.5,1.15c-2,.32-4.32.18-6,1.12-2,1.13-4.13.42-6.06,1.12-3.53,1.27-7.28,1.61-10.88,2.65-3,.86-6.18.93-9.16,2.06a12.91,12.91,0,0,1-5.06,1c-4.41-.24-8.25,2.68-12.68,2.07-1.78,2.13-4.54.44-6.77,1.83-1.85,1.15-4.67.65-7,1.22s-4.94.4-7,1.13c-3.57,1.25-7.49.9-10.82,2.82-6,.25-11.72,2.68-17.76,3-1.71,2-4.24.72-6.36,1.51-3.48,1.31-7.28,1.79-11,2.46-2.67.48-5.54.25-8,1.12-5.19,1.8-10.63,2.52-15.92,3.68-5.82,1.28-11.67,2.91-17.71,3.23-1.69,1.72-4,.61-6,1.3-5.33,1.89-11,2.54-16.47,3.62-4,.8-8,2.28-12.16,2.08-1.46,1.88-3.87.76-5.76,1.85s-4.3.8-6.49,1.15c-2,.32-4.08.57-6.08,1-2.72.61-5.4,1.39-8,2.07-.75,17.09-.44,140.63.31,144.66,2-.28,4.21-.19,6.06-.91a59.72,59.72,0,0,1,10.86-2.65c4.17-.79,8.48-1.48,12.58-2.42,5.29-1.2,10.72-1.83,16-3.57a47.2,47.2,0,0,1,8.87-1.58,80.7,80.7,0,0,0,8.77-1.82c2-.49,4.18-.25,6-1,5.13-2.11,10.65-2.44,16-3.62,4.13-.92,8.27-2.36,12.63-2.17,7.22-2.82,14.95-3.38,22.45-4.86,4.17-.82,8.33-1.89,12.62-2.35,2.13-.22,4.47-1.43,6.71-1.67,2.55-.27,4.89-1.35,7.57-1.26,2.23.07,4.47-1.42,6.75-1.6,3.2-.25,6.06-1.8,9.1-2.14,4.28-.47,8.3-2.3,12.66-2.12,1.83-1.53,4.21-.39,6-1.11,3.52-1.37,7.27-1.68,10.86-2.69a61.51,61.51,0,0,1,8.87-1.6,71.39,71.39,0,0,0,8.77-1.81c2-.52,4.17-.24,6-1,5.12-2.15,10.66-2.43,16-3.61,4.13-.91,8.28-2.36,12.64-2.16,5-2.43,10.66-2.17,15.87-3.91,2.52-.85,5.49-.36,8-1.2a51.89,51.89,0,0,1,7.75-1.67c3.43-.59,6.74-1.56,10.12-2.28a96.59,96.59,0,0,1,10.2-1.73c5.56-.58,10.61-3.31,16.24-3.21,1.4-2,3.87-.12,5.4-1.42,1.74-1.48,4,0,6-1.42,1.27-.93,3.69-.81,5.48-1,4.15-.38,7.89-2.77,12.15-2.19,2.5-1.61,5.51-1.06,8.18-2a40.12,40.12,0,0,1,8.68-1.84c4.13-.46,7.89-2.76,12.15-2.17,2.5-1.6,5.5-1.1,8.18-2a42.16,42.16,0,0,1,8.68-1.85c4.13-.44,7.89-2.77,12.15-2.17,1.79-2.11,4.54-.5,6.77-1.84,1.88-1.13,4.64-.78,7-1.18,1.22-.21,2.38-.73,3.6-1s2.44-.45,3.65-.79c3.3-.9,6.74-1.42,10.11-2.18,2.64-.6,5.58-.22,8-1.2,2.07-.84,4.15-.37,6.06-1.07a64,64,0,0,1,10.88-2.6c4.19-.75,8.48-1.47,12.58-2.4,5.29-1.21,10.71-1.93,16-3.6a55.62,55.62,0,0,1,8.85-1.63,68.72,68.72,0,0,0,8.79-1.77c2-.56,4.11-.31,6-1,5.31-2,11-2.54,16.47-3.64,4-.81,8-2.27,12.15-2.09,1.49-1.8,3.86-.87,5.75-1.86s4.31-.8,6.51-1.15c2-.32,4.07-.59,6.08-1s4.22-1.14,6.36-1.52c3.7-.67,7.33-1.61,11-2.46C671.94,479.08,674.84,478.48,677.84,477.82ZM508.35,173.21c.8.78,1.12,1.33,1.58,1.5a59.17,59.17,0,0,1,8.36,4A22.57,22.57,0,0,1,525.6,185c1.84,2.44,3.47,5.17,3.44,8.56-.08,9.16,0,18.33,0,27.49a12.11,12.11,0,0,1-2.45,7.45,35.23,35.23,0,0,1-16.27,11.23c-2.19.77-4.52,1.17-6.65,2.07s-4.51,1-6.74,1.81-4.66.12-7.08,1c-2.66,1-20.61-.21-24-.87a3.26,3.26,0,0,1-.44-.15c-4.74-1.88-9.81-2.64-14.54-4.74-5.21-2.3-10-5-13.51-9.47a15.29,15.29,0,0,1-3.38-10.1c.25-8.16,0-16.33.11-24.49a44.53,44.53,0,0,1,.75-5.64c-23.8,4.47-47.61,9.77-71.66,14.06l-.15,1c1,.47,2.09,1.06,3.22,1.46a29.12,29.12,0,0,1,13.55,9.4,15.28,15.28,0,0,1,3.34,10.12c-.26,8-.12,16-.06,24a15.72,15.72,0,0,1-4.92,12,41.7,41.7,0,0,1-11.42,7.49c-7.58,3.66-15.84,4.76-24,5.92a63,63,0,0,1-11.49.05c-3.7-.16-7.39-.62-11.08-1a4.73,4.73,0,0,1-.88-.28,65.76,65.76,0,0,0-7.75-1.87,36.64,36.64,0,0,1-7.29-2.86c-5-2.22-9.75-5-13-9.48a15.8,15.8,0,0,1-3.25-10.16c.29-7.49,0-15,.11-22.49,0-2.51.36-5,.56-7.56L216,233.35v1.13a41.17,41.17,0,0,1,9.18,4.19,24.84,24.84,0,0,1,8.24,7.82c1.44,2.22,2.55,4.35,2.56,6.95,0,9.17.15,18.33-.05,27.49a14,14,0,0,1-3.91,9.38c-3,3.27-6.71,5.3-10.43,7.46s-8.11,3-12.24,4.3a58.53,58.53,0,0,1-14.88,2.5c-5.66.29-11.45,1-17.1-.78-1.93-.61-4.27.69-6.06-1.05a48.82,48.82,0,0,1-13.38-3.91c-5.26-2.18-10.05-4.94-13.57-9.36A14.83,14.83,0,0,1,141,279.38c.24-6,0-12,.09-18,.08-4.15-.78-8.37,1-12.29-24.2,4.62-48,9.79-72.35,14.23.83,1.63,2.33,1.94,3.46,2.35a29.64,29.64,0,0,1,13.57,9.37,15.12,15.12,0,0,1,3.4,10.09c-.22,8.33-.08,16.66-.07,25a14.92,14.92,0,0,1-4.47,10.68c-2.91,3.1-6.55,4.95-10.11,7.05-5.6,3.3-12,4.19-18.08,5.79a49.59,49.59,0,0,1-10.07,1.05c-3.49.17-7,0-10.49.05s-6.63-1.67-10.09-1c-4.6-2.26-9.82-2.43-14.51-4.84-5.47-2.81-9.66-4.6-12.94-8.48C-3.34,317.37-5.2,314-5,309.69c.2-5.16,0-10.33.08-15.5s-.7-10.3.93-15.63c-4.19,1.72-8.28,2.21-12.18,3-5.88,1.13-11.66,3-17.71,3.22-1.78,2.14-4.49.7-6.77,1.79-3.16,1.5-7,1.52-10.57,2.21-3.89.76-7.76,1.55-11.79,2.35L95.62,449.77a31.19,31.19,0,0,0,6.93-1.31c3.6-.93,7.28-1.85,10.88-2.53,4.18-.79,8.48-1.48,12.58-2.42,5.29-1.21,10.73-1.83,16-3.57a48,48,0,0,1,8.87-1.59,78.36,78.36,0,0,0,8.77-1.81c2-.5,4.23-.18,6-1,3.47-1.67,7.28-1.92,10.89-2.58,4.19-.76,8.47-1.5,12.59-2.4,5.29-1.15,10.62-2.55,15.92-3.59,6-1.18,12.1-2.42,18.22-3.22,1.21-.16,2.37-.72,3.59-.95s2.44-.45,3.65-.79c3.3-.9,6.74-1.42,10.11-2.18,2.64-.6,5.58-.22,8-1.2,2.07-.84,4.2-.27,6-1.08,5.26-2.31,11-2.53,16.43-3.79a32.36,32.36,0,0,1,3.1-.94c1.31-.17,2.84.37,4-.12,3.47-1.54,7.26-1.71,10.85-2.72a63,63,0,0,1,8.86-1.61,71.14,71.14,0,0,0,8.78-1.8c2-.53,4.17-.25,6-1,5.12-2.13,10.65-2.43,16-3.6,4.14-.91,8.28-2.36,12.64-2.16,5-2.44,10.58-2.77,15.88-3.75,4.49-.84,9-2.17,13.62-2.33,2.13-.08,4.21-1.05,6.33-1.53,3.67-.84,7.33-1.67,11-2.36,1.55-.29,3.08.08,4.65-.93,1.21-.78,3-.38,4.62-.75,2.89-.69,5.75-1.81,8.59-2.16,4.26-.54,8.31-2.23,12.64-2.19,1.79-1.52,4.1-.51,6-1.21a64.25,64.25,0,0,1,10.88-2.61c4.19-.76,8.48-1.47,12.58-2.4,5.29-1.2,10.71-1.95,15.95-3.59a54.64,54.64,0,0,1,8.86-1.62,67.27,67.27,0,0,0,8.78-1.79c2-.55,4.13-.29,6-1,5.3-2.07,11-2.54,16.46-3.66,4-.81,8-2.26,12.15-2.09,5.5-2.57,11.57-2.71,17.37-3.85,4.17-.82,8.27-2.4,12.64-2.15,5-2.43,10.61-2.45,15.87-3.88,5.72-1.54,11.83-1.49,17.32-4.11a2.06,2.06,0,0,1,1,0c1.66.25,3.08-.42,4.61-.92s3.28.37,4.56-1.08c3.53,0,6.84-.95,10.18-2a60.52,60.52,0,0,1,10.18-1.87c6-.74,11.69-2.94,17.73-3.17,1.73-1.69,4.12-.41,6-1.3,3.46-1.67,7.28-1.89,10.91-2.55,4.2-.75,8.28-2.36,12.64-2.15,1.57-2.2,4.27-.18,6.3-1.83,1.39-1.13,3.94-.8,6-1.18s4.28-.9,6.14-1.3L517.14,171.86ZM92.85,594.38V452.77L-65.83,294.1V435.71ZM438,189c0,.93.28,1.83-.05,2.22-1.62,1.94-.89,3.7-.28,5.83,1.53,5.32,5.23,8.26,9.83,10.8,9.13,5,19,7.16,29.19,7.89,6.55.46,13.07-.27,19.57-1a6.08,6.08,0,0,0,1.42-.2c3.89-1.5,8.07-2,11.92-3.76,4.93-2.19,9.87-4.38,13.38-8.61,2.27-2.73,3.73-6.24,2.88-9.69a16.9,16.9,0,0,0-6.46-9.72c-4.48-3.23-14.12-6.49-19.59-8.21-3.42-1.07-7.1.25-10.21-1.81H473.12c-2.06,1.77-4.67.57-6.95,1.29s-5,1-7.22,1.88c-4.12,1.64-8.47,2.71-12.29,5.4C443.5,183.54,441.36,186.64,438,189ZM292,219.13c0,.68.27,1.55,0,2-2.36,3-.67,5.95.54,8.48a16.49,16.49,0,0,0,8.91,8.2c1.71.71,3.17,2,4.88,2.69s3.66.82,5.37,1.51a41.28,41.28,0,0,0,5.74,1.85,27.82,27.82,0,0,0,5.6,1c1.87.08,3.71.83,5.58.9,3.66.16,7.33.18,11,0s7.38-.63,11.07-1c.32,0,.71,0,1-.12,1.88-1.27,4.19-1.09,6.22-1.86s4.18-1.18,6.14-2.06c4.75-2.13,9.57-4.31,13-8.45,2.35-2.87,3.69-6.33,2.92-10.13-.67-3.33-4-6.83-7.24-9.46s-7-4.07-10.71-5.54c-6.17-2.41-12.67-3.49-19.18-4.31-3.11-.4-6.31-.07-9.48-.07-2.16,0-4.72-.73-6.39.18-2.26,1.22-4.48.26-6.58,1.05s-4.53,1.19-6.73,1.87c-4.24,1.32-8.49,2.69-12.37,5.12C297.59,213.19,295.2,216.53,292,219.13ZM145.13,249a4.48,4.48,0,0,1-.14,1.46c-1.85,3.89-.47,7,1.54,10.56,2.16,3.78,5.57,5.64,8.92,7.51,3.74,2.09,8.09,3,12.11,4.51,4.4,1.64,9,1.62,13.39,2.56,3.66.77,7.63.29,11.45.12s7.72-.63,11.57-1c.17,0,.4.07.49,0,1.77-1.57,4.19-1.06,6.2-1.94s4.59-1.06,6.6-2.12c4.45-2.33,9.16-4.29,12.59-8.24,3.19-3.68,4.06-9.8,1.75-13.6a22.65,22.65,0,0,0-9-8.18c-9.16-5-19-7.21-29.2-7.86-4.48-.29-9,0-13.48,0-2,2-4.65.43-6.92,1.39-2.12.89-4.67.79-6.8,1.67-4.11,1.71-8.44,2.81-12.29,5.35C150.53,243.37,148.26,246.59,145.13,249ZM42.49,305.74l0,.28,15-1.28c.32,0,.76.11,1-.06,1.82-1.43,4.18-1.1,6.21-1.9s4.59-1.06,6.61-2.11c4.46-2.31,9.22-4.28,12.53-8.33,2.41-2.94,3.85-6.47,3-10.13a15.93,15.93,0,0,0-6.27-9.33c-6.85-4.7-14.75-7.05-22.69-9.05-3.55-.89-7.35-.9-11-1.05-4-.17-8,0-12,0a3.27,3.27,0,0,0-1,0c-4.29,1.55-9,1.47-13.24,3s-8.48,2.76-12.36,5.13c-3,1.84-5.22,4.42-7.65,6.8a8.57,8.57,0,0,0-2.44,8.37,16.18,16.18,0,0,0,6.55,9.62c3.51,2.24,7.09,4.41,11.21,5.49,2.08.54,4.06,1.47,6.13,2.06a24.93,24.93,0,0,0,6.38,1.4c2.31,0,4.38.84,6.58,1C37.48,305.92,40,305.74,42.49,305.74Zm483-102.15c-3.62,4.82-8.68,7.31-13.66,9.69a52.63,52.63,0,0,1-11.05,3.4,89.16,89.16,0,0,1-12.13,2,87.8,87.8,0,0,1-11.47,0c-3.7-.16-7.38-.63-11.07-1-.16,0-.36,0-.49,0-4.61-2.22-9.87-2.33-14.47-4.87-3.76-2.07-9.07-4.58-11.54-7a5.47,5.47,0,0,0-1.07-1c-.44-.25-.53-1.34-1.51-.63,0,5.27,0,10.58,0,15.89,0,2.47,1.12,4.43,2.25,6.57,2.17,4.08,5.93,6,9.61,8.1s8.09,2.93,12.1,4.49c4.17,1.62,8.65,1.59,13,2.39,3.7.68,7.64.27,11.45.1s7.71-.63,11.57-1c.16,0,.4.07.49,0,1.75-1.63,4.19-1.53,6.19-1.8,2.46-.32,4.09-2.61,6.63-2.19,4.2-2.43,8.94-4.08,12.16-8a56.58,56.58,0,0,0,3.61-5.53q0-9.42,0-18.91C526,204.22,525.83,204.09,525.47,203.59ZM291,233.82c0,5.93-.08,11.87.06,17.8a7.93,7.93,0,0,0,1.31,3.91,22.16,22.16,0,0,0,8.91,8.32c4.2,2,8.6,3.35,12.89,5,4.52,1.77,9.24,1.73,13.82,2.69,3.66.77,7.62.29,11.44.12s7.71-.63,11.56-1c.17,0,.4.07.49,0,1.78-1.56,4.18-1.09,6.19-1.94s4.59-1.06,6.6-2.12c4.29-2.26,9-4,12.17-7.93a59.72,59.72,0,0,0,3.56-5.48q0-9.51,0-19c0-.13-.21-.25-.48-.55-.41.4-.86.8-1.24,1.25-3.38,4-8,6.17-12.53,8.35a51.28,51.28,0,0,1-11.06,3.35,104.13,104.13,0,0,1-12.14,2,62.58,62.58,0,0,1-9,0c-2.87-.11-5.87.73-8.57-1-4.25.59-8.17-1-12.12-2.07s-7.92-2-11.24-4.09C298.05,239.36,293.89,237.61,291,233.82ZM144,264.07c0,5.47-.16,10.94.08,16.4a14,14,0,0,0,2.09,6.11c2.09,3.69,5.38,5.68,8.81,7.62,3.93,2.22,8.37,3.13,12.51,4.75,4.54,1.78,9.25,1.73,13.84,2.64,3.68.73,7.63.28,11.45.11s7.38-.63,11.06-1a3.52,3.52,0,0,0,.9-.24c3.92-1.42,8.1-2,11.93-3.73,4.42-2,9-3.9,12.3-7.58a49.08,49.08,0,0,0,4-5.83c0-6.61,0-12.77,0-18.92a.76.76,0,0,0-.22-.41,1.78,1.78,0,0,0-.39-.24c-3.49,4.31-8.29,6.76-13.11,9.22a47.06,47.06,0,0,1-11,3.57,66.91,66.91,0,0,1-15.6,2.17c-3.32,0-6.65,0-10,0a7.32,7.32,0,0,1-2.48,0c-4.26-1.69-8.9-1.53-13.31-2.7a73.19,73.19,0,0,1-12.15-4.46C151,269.77,147,267.58,144,264.07ZM-2,292.94c0,6.76-.09,12.54.06,18.32a10.43,10.43,0,0,0,1.4,4.38,17.93,17.93,0,0,0,9,8.12c2.13.88,4.12,2.11,6.26,2.94s4.57,1.09,6.61,2.12a19.71,19.71,0,0,0,6.71,1.8c2.38.27,4.72.83,7.06,1a80.66,80.66,0,0,0,13.46,0,105,105,0,0,0,12.66-1.87c5.2-1.11,15.64-5.25,19.51-8.32,3-2.42,5.86-5.42,6.15-9.37.45-6.06.12-12.19.12-19.36-1.43,1.68-2.12,2.58-2.9,3.4-3.33,3.47-7.74,5.31-11.86,7.52-2.13,1.15-4.74,1.37-7.11,2.1S60.34,307,58,307.6s-5.14-.16-7.54,1.14c-6.17-.54-12.46,1.18-18.54-1-4.26.58-8.14-1.16-12.14-2.05a43.11,43.11,0,0,1-11.6-4.47C4.59,299.25,1,297.18-2,292.94Z" transform="translate(68.89 -168.53)"/><path class="cls-1" d="M677.84,477.82c-3,.66-5.9,1.26-8.78,1.92-3.65.85-7.28,1.79-11,2.46-2.14.38-4.23,1.08-6.36,1.52s-4.05.69-6.08,1c-2.2.35-4.66.17-6.51,1.15s-4.26.06-5.75,1.86c-4.19-.18-8.13,1.28-12.15,2.09-5.5,1.1-11.16,1.62-16.47,3.64-1.92.74-4,.49-6,1a68.72,68.72,0,0,1-8.79,1.77,55.62,55.62,0,0,0-8.85,1.63c-5.24,1.67-10.66,2.39-16,3.6-4.1.93-8.39,1.65-12.58,2.4a64,64,0,0,0-10.88,2.6c-1.91.7-4,.23-6.06,1.07-2.43,1-5.37.6-8,1.2-3.37.76-6.81,1.28-10.11,2.18-1.21.34-2.42.55-3.65.79s-2.38.75-3.6,1c-2.34.4-5.1,0-7,1.18-2.23,1.34-5-.27-6.77,1.84-4.26-.6-8,1.73-12.15,2.17a42.16,42.16,0,0,0-8.68,1.85c-2.68.88-5.68.38-8.18,2-4.26-.59-8,1.71-12.15,2.17a40.12,40.12,0,0,0-8.68,1.84c-2.67.93-5.68.38-8.18,2-4.26-.58-8,1.81-12.15,2.19-1.79.16-4.21,0-5.48,1-2,1.45-4.23-.06-6,1.42-1.53,1.3-4-.63-5.4,1.42-5.63-.1-10.68,2.63-16.24,3.21a96.59,96.59,0,0,0-10.2,1.73c-3.38.72-6.69,1.69-10.12,2.28a51.89,51.89,0,0,0-7.75,1.67c-2.52.84-5.49.35-8,1.2-5.21,1.74-10.87,1.48-15.87,3.91-4.36-.2-8.51,1.25-12.64,2.16-5.31,1.18-10.85,1.46-16,3.61-1.87.78-4,.5-6,1a71.39,71.39,0,0,1-8.77,1.81,61.51,61.51,0,0,0-8.87,1.6c-3.59,1-7.34,1.32-10.86,2.69-1.83.72-4.21-.42-6,1.11-4.36-.18-8.38,1.65-12.66,2.12-3,.34-5.9,1.89-9.1,2.14-2.28.18-4.52,1.67-6.75,1.6-2.68-.09-5,1-7.57,1.26-2.24.24-4.58,1.45-6.71,1.67-4.29.46-8.45,1.53-12.62,2.35-7.5,1.48-15.23,2-22.45,4.86-4.36-.19-8.5,1.25-12.63,2.17-5.32,1.18-10.84,1.51-16,3.62-1.86.76-4,.52-6,1a80.7,80.7,0,0,1-8.77,1.82,47.2,47.2,0,0,0-8.87,1.58c-5.24,1.74-10.67,2.37-16,3.57-4.1.94-8.41,1.63-12.58,2.42a59.72,59.72,0,0,0-10.86,2.65c-1.85.72-4,.63-6.06.91-.75-4-1.06-127.57-.31-144.66,2.63-.68,5.31-1.46,8-2.07,2-.45,4-.7,6.08-1,2.19-.35,4.7-.12,6.49-1.15s4.3,0,5.76-1.85c4.2.2,8.13-1.28,12.16-2.08,5.51-1.08,11.14-1.73,16.47-3.62,1.95-.69,4.27.42,6-1.3,6-.32,11.89-1.95,17.71-3.23,5.29-1.16,10.73-1.88,15.92-3.68,2.51-.87,5.38-.64,8-1.12,3.7-.67,7.5-1.15,11-2.46,2.12-.79,4.65.51,6.36-1.51,6-.32,11.71-2.75,17.76-3,3.33-1.92,7.25-1.57,10.82-2.82,2.09-.73,4.68-.54,7-1.13s5.12-.07,7-1.22c2.23-1.39,5,.3,6.77-1.83,4.43.61,8.27-2.31,12.68-2.07a12.91,12.91,0,0,0,5.06-1c3-1.13,6.18-1.2,9.16-2.06,3.6-1,7.35-1.38,10.88-2.65,1.93-.7,4,0,6.06-1.12,1.69-.94,4-.8,6-1.12,2.2-.35,4.7-.13,6.5-1.15s4.29,0,5.76-1.85c4.37.26,8.47-1.34,12.64-2.15,5.8-1.14,11.87-1.27,17.37-3.85,4.19.18,8.13-1.29,12.15-2.09,5.5-1.1,11.12-1.72,16.48-3.6a33.44,33.44,0,0,1,6.46-1.28c1.73-.24,3.43.13,5.15-.93,1.23-.77,3,.28,4.63-.92,1.29-1,3.27-.24,5.08-.91a25.24,25.24,0,0,1,6.48-1.22c4-.32,7.57-2.38,11.61-2.21,1.7-1.89,4.24-.36,6.33-1.69,1.71-1.09,4.4-.5,6.46-1.22,3.55-1.25,7.34-1.42,10.87-2.71,1.91-.7,4,0,6.06-1.1,1.72-.92,4-1,6-1.06,2.27-.07,4.23-1.75,6.58-1.06,1.56-1.61,4.17-.24,5.67-2,4.37.24,8.44-1.45,12.65-2.16,3.63-.62,7.46-.86,10.91-2.52,1.86-.9,4.24.39,5.95-1.32,6-.3,11.71-2.78,17.76-3,3.33-1.92,7.25-1.57,10.82-2.82,2.09-.73,4.68-.54,7-1.13s5.06-.11,7-1.21c2.23-1.29,5,.22,6.76-1.84,4.27.59,8-1.72,12.15-2.18a40.21,40.21,0,0,0,8.69-1.84c2.66-.92,5.68-.38,8.17-2,4.26.58,8-2.05,12.17-2.09,1.79,0,3.55-1,5.36-1.44,2-.45,4.17-.4,6-1.17s4.06.75,5.46-1.3c4.26.56,8-1.77,12.16-2.14a62.71,62.71,0,0,0,10.62-2.08c3.42-.94,7.24-.62,10.32-2.78,4.19.18,8.13-1.29,12.15-2.09,5.5-1.11,11.13-1.7,16.48-3.6a30.49,30.49,0,0,1,5.57-.87Z" transform="translate(68.89 -168.53)"/><path class="cls-1" d="M508.35,173.21l8.79-1.35q79.32,79.3,158.57,158.57c-1.86.4-4,.89-6.14,1.3s-4.57,0-6,1.18c-2,1.65-4.73-.37-6.3,1.83-4.36-.21-8.44,1.4-12.64,2.15-3.63.66-7.45.88-10.91,2.55-1.84.89-4.23-.39-6,1.3-6,.23-11.74,2.43-17.73,3.17a60.52,60.52,0,0,0-10.18,1.87c-3.34,1-6.65,2-10.18,2-1.28,1.45-3.1.6-4.56,1.08s-2.95,1.17-4.61.92a2.06,2.06,0,0,0-1,0c-5.49,2.62-11.6,2.57-17.32,4.11-5.26,1.43-10.87,1.45-15.87,3.88-4.37-.25-8.47,1.33-12.64,2.15-5.8,1.14-11.87,1.28-17.37,3.85-4.19-.17-8.13,1.28-12.15,2.09-5.5,1.12-11.16,1.59-16.46,3.66-1.91.74-4,.48-6,1a67.27,67.27,0,0,1-8.78,1.79,54.64,54.64,0,0,0-8.86,1.62c-5.24,1.64-10.66,2.39-15.95,3.59-4.1.93-8.39,1.64-12.58,2.4a64.25,64.25,0,0,0-10.88,2.61c-1.9.7-4.21-.31-6,1.21-4.33,0-8.38,1.65-12.64,2.19-2.84.35-5.7,1.47-8.59,2.16-1.59.37-3.41,0-4.62.75-1.57,1-3.1.64-4.65.93-3.69.69-7.35,1.52-11,2.36-2.12.48-4.2,1.45-6.33,1.53-4.66.16-9.13,1.49-13.62,2.33-5.3,1-10.88,1.31-15.88,3.75-4.36-.2-8.5,1.25-12.64,2.16-5.32,1.17-10.85,1.47-16,3.6-1.87.78-4,.5-6,1a71.14,71.14,0,0,1-8.78,1.8,63,63,0,0,0-8.86,1.61c-3.59,1-7.38,1.18-10.85,2.72-1.12.49-2.65-.05-4,.12a32.36,32.36,0,0,0-3.1.94c-5.47,1.26-11.17,1.48-16.43,3.79-1.85.81-4,.24-6,1.08-2.43,1-5.37.6-8,1.2-3.37.76-6.81,1.28-10.11,2.18-1.21.34-2.42.55-3.65.79s-2.38.79-3.59.95c-6.12.8-12.19,2-18.22,3.22-5.3,1-10.63,2.44-15.92,3.59-4.12.9-8.4,1.64-12.59,2.4-3.61.66-7.42.91-10.89,2.58-1.8.86-4,.54-6,1a78.36,78.36,0,0,1-8.77,1.81,48,48,0,0,0-8.87,1.59c-5.23,1.74-10.67,2.36-16,3.57-4.1.94-8.4,1.63-12.58,2.42-3.6.68-7.28,1.6-10.88,2.53a31.19,31.19,0,0,1-6.93,1.31L-63,291.09c4-.8,7.9-1.59,11.79-2.35,3.55-.69,7.41-.71,10.57-2.21,2.28-1.09,5,.35,6.77-1.79,6.05-.19,11.83-2.09,17.71-3.22,3.9-.75,8-1.24,12.18-3-1.63,5.33-.82,10.5-.93,15.63s.12,10.34-.08,15.5c-.16,4.29,1.7,7.68,4.29,10.73,3.28,3.88,7.47,5.67,12.94,8.48,4.69,2.41,9.91,2.58,14.51,4.84,3.46-.66,6.68,1.05,10.09,1s7,.12,10.49-.05a49.59,49.59,0,0,0,10.07-1.05c6.11-1.6,12.48-2.49,18.08-5.79,3.56-2.1,7.2-3.95,10.11-7.05A14.92,14.92,0,0,0,90,310.13c0-8.33-.15-16.66.07-25a15.12,15.12,0,0,0-3.4-10.09,29.64,29.64,0,0,0-13.57-9.37c-1.13-.41-2.63-.72-3.46-2.35C94,258.89,117.8,253.72,142,249.1c-1.74,3.92-.88,8.14-1,12.29-.12,6,.15,12-.09,18a14.83,14.83,0,0,0,3.42,10.09c3.52,4.42,8.31,7.18,13.57,9.36a48.82,48.82,0,0,0,13.38,3.91c1.79,1.74,4.13.44,6.06,1.05,5.65,1.81,11.44,1.07,17.1.78a58.53,58.53,0,0,0,14.88-2.5c4.13-1.32,8.4-2.07,12.24-4.3s7.45-4.19,10.43-7.46a14,14,0,0,0,3.91-9.38c.2-9.16.1-18.32.05-27.49,0-2.6-1.12-4.73-2.56-6.95a24.84,24.84,0,0,0-8.24-7.82,41.17,41.17,0,0,0-9.18-4.19v-1.13L288.6,219c-.2,2.54-.54,5.05-.56,7.56-.08,7.5.18,15-.11,22.49a15.8,15.8,0,0,0,3.25,10.16c3.25,4.45,8,7.26,13,9.48a36.64,36.64,0,0,0,7.29,2.86,65.76,65.76,0,0,1,7.75,1.87,4.73,4.73,0,0,0,.88.28c3.69.35,7.38.81,11.08,1a63,63,0,0,0,11.49-.05c8.18-1.16,16.44-2.26,24-5.92a41.7,41.7,0,0,0,11.42-7.49,15.72,15.72,0,0,0,4.92-12c-.06-8-.2-16,.06-24a15.28,15.28,0,0,0-3.34-10.12,29.12,29.12,0,0,0-13.55-9.4c-1.13-.4-2.19-1-3.22-1.46l.15-1c24.05-4.29,47.86-9.59,71.66-14.06a44.53,44.53,0,0,0-.75,5.64c-.08,8.16.14,16.33-.11,24.49a15.29,15.29,0,0,0,3.38,10.1c3.49,4.44,8.3,7.17,13.51,9.47,4.73,2.1,9.8,2.86,14.54,4.74a3.26,3.26,0,0,0,.44.15c3.42.66,21.37,1.84,24,.87,2.42-.89,4.92-.26,7.08-1s4.57-.9,6.74-1.81,4.46-1.3,6.65-2.07a35.23,35.23,0,0,0,16.27-11.23A12.11,12.11,0,0,0,529,221c0-9.16-.06-18.33,0-27.49,0-3.39-1.6-6.12-3.44-8.56a22.57,22.57,0,0,0-7.31-6.31,59.17,59.17,0,0,0-8.36-4C509.47,174.54,509.15,174,508.35,173.21ZM318,348.75c0-4.66-.11-9.32.05-14a10.24,10.24,0,0,0-1.54-5.85,27.85,27.85,0,0,0-9.43-9.35c-3.25-1.87-6.86-2.84-10-4.81-1.05-.65-2.45-.74-3.51-1.17-2.38-1-5.08,0-7-1.08s-4,0-5.64-.87a9.89,9.89,0,0,0-5.63-.87c-5.69.29-11.37-.57-17.1.81-3.33.8-6.76,1.39-10.14,2.07-7.82,1.56-17.92,6.74-22.2,11.66a14,14,0,0,0-3.75,8.93c-.2,9.32-.14,18.64,0,28a12.15,12.15,0,0,0,1.39,5.39c3.09,5.7,8.29,9.35,14,11.79,3.45,1.48,6.94,3.82,11.09,3.36,1.49,1.8,3.87.81,5.75,1.85,1.54.86,3.78.46,5.72.62s4.17.45,6.27.5c3.49.09,7,0,10.49,0a7.08,7.08,0,0,0,2.48,0c4.26-1.72,8.89-1.61,13.3-2.78,6-1.6,16.46-6.41,20.62-10.68a16,16,0,0,0,4.88-12C318,356.41,318,352.58,318,348.75Zm197-61c0,4.67,0,9.33,0,14a12.81,12.81,0,0,0,2.35,7c1.8,2.79,3.76,5.48,6.63,6.88s5.06,3.38,8.19,4.36,6.39,2.2,9.66,3.18c4.88,1.48,9.92,1.86,14.91,2.52a56.53,56.53,0,0,0,7.48.06c2.17,0,4.48.49,6.47-.1,4.52-1.35,9.23-1.53,13.81-2.75,8.61-2.28,16.26-5.86,22.3-12.49a12.17,12.17,0,0,0,3.15-8.17q.16-14,0-28a10.32,10.32,0,0,0-1.41-5.36c-2.51-3.68-5.26-7.09-9.47-9.31-2.88-1.53-6.09-2.45-8.72-4.23-2.37-1.61-5-2-7.47-2.44-4-.78-8.08-1.66-12.13-2.06a64.52,64.52,0,0,0-16.43.07c-4.59.73-9.24,1.53-13.81,2.67-5.23,1.32-17,6.62-20.65,10.61a16.54,16.54,0,0,0-4.86,12C515.05,280.07,515,283.9,515,287.72Zm-51,31c0-4.66-.11-9.32.05-14a10.19,10.19,0,0,0-1.55-5.85,28,28,0,0,0-9.42-9.34c-3.26-1.87-6.87-2.83-10-4.81-1.05-.66-2.45-.74-3.51-1.17-2.37-1-5-.15-7-1.09-1.49-.68-2.8-.51-4.18-.77-1.54-.3-3.08-1-4.58-.93-6,.38-12-.74-18.11.76-3.61.89-7.43,1.28-11.12,2.16-8.79,2.09-16.67,5.78-22.67,12.73a12,12,0,0,0-2.82,7.8c-.07,9.32-.08,18.64,0,28a10.16,10.16,0,0,0,1.06,5,30.06,30.06,0,0,0,15.18,12.46,78.11,78.11,0,0,0,10.54,3.54,133.46,133.46,0,0,0,14.93,2.45,70.51,70.51,0,0,0,8.48.06c1.83,0,3.8.44,5.47-.09,4.51-1.42,9.24-1.53,13.81-2.74,6-1.57,16.4-6.35,20.61-10.67a16,16,0,0,0,4.88-12C464,326.4,464,322.57,464,318.74ZM171,378.49c0-4.49,0-9,0-13.48a12.2,12.2,0,0,0-.7-3.69c-1.64-5-5-8.3-9.23-11.11-3.53-2.35-7.45-3.74-11.24-5.46-1-.44-2.06-.66-3.07-1-2.3-.81-5-.37-7-1.23-2.28-1-4.6.08-6.54-1.09-2.19-1.33-4.5-.64-6.72-.6-4.69.08-9.36-.39-14.11.76-3.47.83-7.09,1.33-10.62,2.14-8.11,1.85-15.4,5.14-21.39,11.1A14.42,14.42,0,0,0,76,365.5c0,8.15.15,16.31-.07,24.47a16.45,16.45,0,0,0,4.82,12c4.6,5,10.67,7.57,16.92,9.76,1.89.67,3.78,1.38,5.72,1.87a35.49,35.49,0,0,0,6,1.09,59.38,59.38,0,0,1,6.1.9c3.06.56,6.3.26,9.46.11s6.21.82,9.08-1c4.08.48,7.8-1.11,11.66-2A42.26,42.26,0,0,0,166.28,402,15,15,0,0,0,171,390.48C171,386.49,171,382.49,171,378.49Z" transform="translate(68.89 -168.53)"/><path class="cls-1" d="M92.85,594.38-65.83,435.71V294.1L92.85,452.77Z" transform="translate(68.89 -168.53)"/><path class="cls-1" d="M438,189c3.35-2.34,5.49-5.44,8.65-7.67,3.82-2.69,8.17-3.76,12.29-5.4,2.2-.87,4.85-1.12,7.22-1.88s4.89.48,6.95-1.29h16.49c3.11,2.06,6.79.74,10.21,1.81,5.47,1.72,15.11,5,19.59,8.21a16.9,16.9,0,0,1,6.46,9.72c.85,3.45-.61,7-2.88,9.69-3.51,4.23-8.45,6.42-13.38,8.61-3.85,1.71-8,2.26-11.92,3.76a6.08,6.08,0,0,1-1.42.2c-6.5.71-13,1.44-19.57,1-10.23-.73-20.06-2.87-29.19-7.89-4.6-2.54-8.3-5.48-9.83-10.8-.61-2.13-1.34-3.89.28-5.83C438.29,190.81,438,189.91,438,189Z" transform="translate(68.89 -168.53)"/><path class="cls-1" d="M292,219.13c3.19-2.6,5.58-5.94,9.15-8.17,3.88-2.43,8.13-3.8,12.37-5.12,2.2-.68,4.54-1.06,6.73-1.87s4.32.17,6.58-1.05c1.67-.91,4.23-.18,6.39-.18,3.17,0,6.37-.33,9.48.07,6.51.82,13,1.9,19.18,4.31,3.76,1.47,7.47,2.9,10.71,5.54s6.57,6.13,7.24,9.46c.77,3.8-.57,7.26-2.92,10.13-3.39,4.14-8.21,6.32-13,8.45-2,.88-4.12,1.29-6.14,2.06s-4.34.59-6.22,1.86c-.24.16-.63.09-1,.12-3.69.33-7.38.79-11.07,1s-7.33.15-11,0c-1.87-.07-3.71-.82-5.58-.9a27.82,27.82,0,0,1-5.6-1,41.28,41.28,0,0,1-5.74-1.85c-1.71-.69-3.66-.81-5.37-1.51s-3.17-2-4.88-2.69a16.49,16.49,0,0,1-8.91-8.2c-1.21-2.53-2.9-5.47-.54-8.48C292.28,220.68,292,219.81,292,219.13Z" transform="translate(68.89 -168.53)"/><path class="cls-1" d="M145.13,249c3.13-2.39,5.4-5.61,8.78-7.83,3.85-2.54,8.18-3.64,12.29-5.35,2.13-.88,4.68-.78,6.8-1.67,2.27-1,4.95.61,6.92-1.39,4.49,0,9-.24,13.48,0,10.24.65,20,2.9,29.2,7.86a22.65,22.65,0,0,1,9,8.18c2.31,3.8,1.44,9.92-1.75,13.6-3.43,3.95-8.14,5.91-12.59,8.24-2,1.06-4.49,1.21-6.6,2.12s-4.43.37-6.2,1.94c-.09.08-.32,0-.49,0-3.85.33-7.71.79-11.57,1s-7.79.65-11.45-.12c-4.43-.94-9-.92-13.39-2.56-4-1.5-8.37-2.42-12.11-4.51-3.35-1.87-6.76-3.73-8.92-7.51-2-3.54-3.39-6.67-1.54-10.56A4.48,4.48,0,0,0,145.13,249Z" transform="translate(68.89 -168.53)"/><path class="cls-1" d="M42.49,305.74c-2.5,0-5,.18-7.49-.06-2.2-.2-4.27-1-6.58-1a24.93,24.93,0,0,1-6.38-1.4c-2.07-.59-4.05-1.52-6.13-2.06-4.12-1.08-7.7-3.25-11.21-5.49a16.18,16.18,0,0,1-6.55-9.62A8.57,8.57,0,0,1,.59,277.7c2.43-2.38,4.64-5,7.65-6.8,3.88-2.37,8.17-3.62,12.36-5.13s9-1.47,13.24-3a3.27,3.27,0,0,1,1,0c4,0,8-.13,12,0,3.7.15,7.5.16,11,1.05,7.94,2,15.84,4.35,22.69,9.05a15.93,15.93,0,0,1,6.27,9.33c.9,3.66-.54,7.19-3,10.13-3.31,4.05-8.07,6-12.53,8.33-2,1.05-4.47,1.26-6.61,2.11s-4.39.47-6.21,1.9c-.21.17-.65,0-1,.06l-15,1.28Z" transform="translate(68.89 -168.53)"/><path class="cls-1" d="M525.47,203.59c.36.5.53.63.53.76q0,9.48,0,18.91a56.58,56.58,0,0,1-3.61,5.53c-3.22,3.87-8,5.52-12.16,8-2.54-.42-4.17,1.87-6.63,2.19-2,.27-4.44.17-6.19,1.8-.09.08-.33,0-.49,0-3.86.33-7.7.79-11.57,1s-7.75.58-11.45-.1c-4.3-.8-8.78-.77-13-2.39-4-1.56-8.33-2.34-12.1-4.49s-7.44-4-9.61-8.1c-1.13-2.14-2.26-4.1-2.25-6.57,0-5.31,0-10.62,0-15.89,1-.71,1.07.38,1.51.63a5.47,5.47,0,0,1,1.07,1c2.47,2.46,7.78,5,11.54,7,4.6,2.54,9.86,2.65,14.47,4.87.13.06.33,0,.49,0,3.69.33,7.37.8,11.07,1a87.8,87.8,0,0,0,11.47,0,89.16,89.16,0,0,0,12.13-2,52.63,52.63,0,0,0,11.05-3.4C516.79,210.9,521.85,208.41,525.47,203.59Z" transform="translate(68.89 -168.53)"/><path class="cls-1" d="M291,233.82c2.88,3.79,7,5.54,10.63,7.76,3.32,2.06,7.38,3.07,11.24,4.09s7.87,2.66,12.12,2.07c2.7,1.7,5.7.86,8.57,1a62.58,62.58,0,0,0,9,0,104.13,104.13,0,0,0,12.14-2,51.28,51.28,0,0,0,11.06-3.35c4.5-2.18,9.15-4.37,12.53-8.35.38-.45.83-.85,1.24-1.25.27.3.48.42.48.55q0,9.48,0,19a59.72,59.72,0,0,1-3.56,5.48c-3.19,3.91-7.88,5.67-12.17,7.93-2,1.06-4.48,1.22-6.6,2.12s-4.41.38-6.19,1.94c-.09.08-.32,0-.49,0-3.85.33-7.7.79-11.56,1s-7.78.65-11.44-.12c-4.58-1-9.3-.92-13.82-2.69-4.29-1.69-8.69-3-12.89-5a22.16,22.16,0,0,1-8.91-8.32,7.93,7.93,0,0,1-1.31-3.91C290.93,245.69,291,239.75,291,233.82Z" transform="translate(68.89 -168.53)"/><path class="cls-1" d="M144,264.07c3,3.51,7,5.7,10.78,7.47A73.19,73.19,0,0,0,166.94,276c4.41,1.17,9.05,1,13.31,2.7a7.32,7.32,0,0,0,2.48,0c3.33,0,6.66,0,10,0a66.91,66.91,0,0,0,15.6-2.17,47.06,47.06,0,0,0,11-3.57c4.82-2.46,9.62-4.91,13.11-9.22a1.78,1.78,0,0,1,.39.24.76.76,0,0,1,.22.41c0,6.15,0,12.31,0,18.92a49.08,49.08,0,0,1-4,5.83c-3.34,3.68-7.88,5.55-12.3,7.58-3.83,1.75-8,2.31-11.93,3.73a3.52,3.52,0,0,1-.9.24c-3.68.34-7.37.81-11.06,1s-7.77.62-11.45-.11c-4.59-.91-9.3-.86-13.84-2.64-4.14-1.62-8.58-2.53-12.51-4.75-3.43-1.94-6.72-3.93-8.81-7.62a14,14,0,0,1-2.09-6.11C143.85,275,144,269.54,144,264.07Z" transform="translate(68.89 -168.53)"/><path class="cls-1" d="M-2,292.94c3,4.24,6.58,6.31,10.12,8.28a43.11,43.11,0,0,0,11.6,4.47c4,.89,7.88,2.63,12.14,2.05,6.08,2.18,12.37.46,18.54,1,2.4-1.3,5.13-.51,7.54-1.14s4.83-1.11,7.19-1.85,5-.95,7.11-2.1c4.12-2.21,8.53-4,11.86-7.52.78-.82,1.47-1.72,2.9-3.4,0,7.17.33,13.3-.12,19.36-.29,4-3.11,7-6.15,9.37-3.87,3.07-14.31,7.21-19.51,8.32a105,105,0,0,1-12.66,1.87,80.66,80.66,0,0,1-13.46,0c-2.34-.18-4.68-.74-7.06-1a19.71,19.71,0,0,1-6.71-1.8c-2-1-4.45-1.28-6.61-2.12s-4.13-2.06-6.26-2.94a17.93,17.93,0,0,1-9-8.12,10.43,10.43,0,0,1-1.4-4.38C-2.08,305.48-2,299.7-2,292.94Z" transform="translate(68.89 -168.53)"/><path d="M318,348.75c0,3.83-.05,7.66,0,11.49a16,16,0,0,1-4.88,12c-4.16,4.27-14.59,9.08-20.62,10.68-4.41,1.17-9,1.06-13.3,2.78a7.08,7.08,0,0,1-2.48,0c-3.5,0-7,.06-10.49,0-2.1,0-4.18-.33-6.27-.5s-4.18.24-5.72-.62c-1.88-1-4.26,0-5.75-1.85-4.15.46-7.64-1.88-11.09-3.36-5.67-2.44-10.87-6.09-14-11.79a12.15,12.15,0,0,1-1.39-5.39c-.13-9.32-.19-18.64,0-28a14,14,0,0,1,3.75-8.93c4.28-4.92,14.38-10.1,22.2-11.66,3.38-.68,6.81-1.27,10.14-2.07,5.73-1.38,11.41-.52,17.1-.81a9.89,9.89,0,0,1,5.63.87c1.6.87,3.62-.21,5.64.87s4.64.12,7,1.08c1.06.43,2.46.52,3.51,1.17,3.16,2,6.77,2.94,10,4.81a27.85,27.85,0,0,1,9.43,9.35,10.24,10.24,0,0,1,1.54,5.85C317.9,339.43,318,344.09,318,348.75Zm-92-18.68c0,.71.11,1.1,0,1.37-1.86,3.89-.47,7,1.55,10.56,2.15,3.79,5.56,5.64,8.91,7.51,3.75,2.1,8.09,3,12.11,4.51,4.4,1.64,9,1.65,13.39,2.56,3.84.78,8,.29,11.95.12s8.05-.63,12.08-1c.16,0,.39.07.49,0,1.77-1.57,4.18-1.06,6.19-1.94s4.59-1.06,6.61-2.12c4.44-2.33,9.22-4.24,12.56-8.26,2.45-3,3.88-6.53,3-10.13a16.14,16.14,0,0,0-5.86-9c-5.63-4.29-12.28-6.79-19-8.33s-13.58-2.86-20.61-2.23c-2.81.25-6-.74-8.39.26s-4.74.21-7,1.17-4.67.79-6.8,1.67c-4.12,1.71-8.44,2.81-12.3,5.35C231.53,324.37,229.26,327.59,226,330.07Zm89,13.66c-1.43,1.68-2.12,2.58-2.9,3.39-3.33,3.48-7.74,5.32-11.86,7.53-2.13,1.15-4.74,1.37-7.11,2.1s-4.8,1.23-7.19,1.85-5,.46-7.57,1c-3.19.65-6.63.28-9.94.12s-6.54.87-9.57-1c-4.26.58-8.17-1.05-12.13-2.08a43.49,43.49,0,0,1-11.22-4.13c-3.61-2.14-7.52-4.12-10.51-8.69,0,6.86-.09,12.64.06,18.42a10.29,10.29,0,0,0,1.4,4.38,17.93,17.93,0,0,0,9,8.12c2.13.88,4.12,2.11,6.26,2.94s4.57,1.09,6.61,2.12a19.71,19.71,0,0,0,6.71,1.8c2.38.27,4.72.8,7.06,1a90.19,90.19,0,0,0,12,.06c3.86-.16,7.71-.63,11.56-1a2.73,2.73,0,0,0,1-.11c3.59-1.86,7.69-2.05,11.44-3.71a74.65,74.65,0,0,0,10.67-5.51c3.11-2,5.79-5.18,6.14-8.82C315.44,357.38,315,351.07,315,343.73Z" transform="translate(68.89 -168.53)"/><path d="M515,287.72c0-3.82,0-7.65,0-11.48a16.54,16.54,0,0,1,4.86-12c3.67-4,15.42-9.29,20.65-10.61,4.57-1.14,9.22-1.94,13.81-2.67a64.52,64.52,0,0,1,16.43-.07c4,.4,8.12,1.28,12.13,2.06,2.43.47,5.1.83,7.47,2.44,2.63,1.78,5.84,2.7,8.72,4.23,4.21,2.22,7,5.63,9.47,9.31a10.32,10.32,0,0,1,1.41,5.36q.19,14,0,28a12.17,12.17,0,0,1-3.15,8.17c-6,6.63-13.69,10.21-22.3,12.49-4.58,1.22-9.29,1.4-13.81,2.75-2,.59-4.3.1-6.47.1a56.53,56.53,0,0,1-7.48-.06c-5-.66-10-1-14.91-2.52-3.27-1-6.46-2.18-9.66-3.18s-5.42-3-8.19-4.36-4.83-4.09-6.63-6.88a12.81,12.81,0,0,1-2.35-7C515,297.05,515,292.39,515,287.72Zm4-17.61c0,.83.27,1.71,0,2.11-1.57,2-.86,3.7-.24,5.83,1.53,5.34,5.27,8.22,9.83,10.81,8.33,4.73,17.44,6.61,26.72,7.79a61.12,61.12,0,0,0,13,0,90.63,90.63,0,0,0,12.18-1.81,62.17,62.17,0,0,0,16.47-6.11c2.68-1.47,5.37-3.06,7.15-5.58,2.11-3,3.82-6.34,2.7-10.12a16.49,16.49,0,0,0-5.61-8.63c-5.76-4.4-12.56-6.64-19.4-8.6a67.82,67.82,0,0,0-10.66-1.89c-5.58-.66-11.3-.17-17-.17-2,1.8-4.67.56-6.94,1.31s-4.62.9-6.78,1.74c-4.16,1.61-8.46,2.78-12.33,5.26C524.65,264.22,522.33,267.4,519,270.11Zm-1,13.77c0,6.8-.09,12.58.06,18.35a9.84,9.84,0,0,0,1.39,4.39,17.93,17.93,0,0,0,9,8.14c2.14.85,4.12,2.11,6.27,2.94s4.56,1.09,6.6,2.11a20.2,20.2,0,0,0,6.71,1.81c2.38.28,4.73.8,7.07,1a78.46,78.46,0,0,0,13.45,0,102.79,102.79,0,0,0,12.66-1.87c5.23-1.11,15.55-5.22,19.52-8.29,3-2.3,5.77-5.26,6.12-8.88.61-6.21.17-12.52.17-19.37-1.29,1.29-2.09,2.07-2.87,2.88-3.36,3.45-7.75,5.32-11.86,7.53-2.13,1.15-4.73,1.41-7.11,2.09s-4.8,1.27-7.19,1.87-5.14-.17-7.54,1.13c-6.17-.54-12.46,1.18-18.55-1-4.25.58-8.13-1.15-12.14-2a42.79,42.79,0,0,1-11.59-4.47C524.62,290.25,521,288.22,518,283.88Z" transform="translate(68.89 -168.53)"/><path d="M464,318.74c0,3.83-.05,7.66,0,11.49a16,16,0,0,1-4.88,12c-4.21,4.32-14.64,9.1-20.61,10.67-4.57,1.21-9.3,1.32-13.81,2.74-1.67.53-3.64.09-5.47.09a70.51,70.51,0,0,1-8.48-.06,133.46,133.46,0,0,1-14.93-2.45,78.11,78.11,0,0,1-10.54-3.54,30.06,30.06,0,0,1-15.18-12.46,10.16,10.16,0,0,1-1.06-5c-.1-9.33-.09-18.65,0-28a12,12,0,0,1,2.82-7.8c6-6.95,13.88-10.64,22.67-12.73,3.69-.88,7.51-1.27,11.12-2.16,6.08-1.5,12.09-.38,18.11-.76,1.5-.09,3,.63,4.58.93,1.38.26,2.69.09,4.18.77,2.05.94,4.66.11,7,1.09,1.06.43,2.46.51,3.51,1.17,3.16,2,6.77,2.94,10,4.81a28,28,0,0,1,9.42,9.34,10.19,10.19,0,0,1,1.55,5.85C463.9,309.42,464,314.08,464,318.74ZM373.12,300a4.63,4.63,0,0,1-.13,1.49c-1.88,3.91-.4,7,1.57,10.55,2.14,3.82,5.6,5.6,8.92,7.51,3.72,2.13,8.1,3,12.12,4.49,4.38,1.65,8.95,1.64,13.39,2.55,3.67.76,7.63.29,11.45.12s7.72-.63,11.57-1c.17,0,.4.07.49,0,1.78-1.53,4.18-1.1,6.2-1.93s4.59-1.06,6.61-2.12c4.44-2.33,9.21-4.26,12.55-8.29,2.43-2.95,4-6.59,2.94-10.11a16.51,16.51,0,0,0-7-9.65c-5.59-3.52-11.26-5.88-20.71-8a77.56,77.56,0,0,0-18.68-1.88c-2.16,0-4.75-.74-6.39.19-2.35,1.31-4.74.25-7,1.23-2.11.91-4.68.76-6.81,1.66-4.1,1.73-8.44,2.81-12.29,5.37C378.52,294.42,376.23,297.61,373.12,300ZM372,313.85c0,6.81-.09,12.59.06,18.36a9.83,9.83,0,0,0,1.38,4.39,20.81,20.81,0,0,0,8.93,8.23c4.16,2.16,8.59,3.39,12.89,5.07,4.53,1.76,9.23,1.85,13.82,2.67,4.35.78,9,.46,13.43.08a102.79,102.79,0,0,0,12.66-1.87c5.2-1.1,15.54-5.16,19.52-8.29,3.05-2.4,5.88-5.41,6.19-9.35.46-6.07.12-12.2.12-18.38-2.54,2-4.7,3.87-7.06,5.48a46.27,46.27,0,0,1-7.23,4.2,56.48,56.48,0,0,1-7.53,2.29c-2.54.71-5.09,1.79-7.66,1.89-2.77.1-5.41,1.13-8.06,1-5.85-.23-11.81,1.22-17.56-.9-4.25.58-8.13-1.14-12.13-2a43.23,43.23,0,0,1-11.61-4.46C378.64,320.26,375,318.24,372,313.85Z" transform="translate(68.89 -168.53)"/><path d="M171,378.49c0,4,0,8,0,12A15,15,0,0,1,166.28,402a42.26,42.26,0,0,1-20.54,10.74c-3.86.87-7.58,2.46-11.66,2-2.87,1.78-6,.82-9.08,1s-6.4.45-9.46-.11a59.38,59.38,0,0,0-6.1-.9,35.49,35.49,0,0,1-6-1.09c-1.94-.49-3.83-1.2-5.72-1.87C91.44,409.54,85.37,407,80.77,402A16.45,16.45,0,0,1,76,390c.22-8.16,0-16.32.07-24.47a14.42,14.42,0,0,1,4.37-10.69c6-6,13.28-9.25,21.39-11.1,3.53-.81,7.15-1.31,10.62-2.14,4.75-1.15,9.42-.68,14.11-.76,2.22,0,4.53-.73,6.72.6,1.94,1.17,4.26.09,6.54,1.09,1.94.86,4.68.42,7,1.23,1,.36,2.09.58,3.07,1,3.79,1.72,7.71,3.11,11.24,5.46,4.23,2.81,7.59,6.08,9.23,11.11A12.2,12.2,0,0,1,171,365C171,369.5,171,374,171,378.49Zm-46.35-34.75c-3.87,0-7.14-.74-9.79.22-2.27.83-4.48.2-6.57,1s-4.53,1.16-6.72,1.87c-4.23,1.39-8.51,2.67-12.38,5.11-2.83,1.78-4.85,4.32-7.33,6.4-1.87,1.56-2.19,3.78-2.82,5.84-.69,2.28.48,4.49,1.41,6.37,1.87,3.77,5.08,6.28,8.88,8.28,4.16,2.19,8.61,3.37,12.9,5.07,4.69,1.85,9.57,1.79,14.32,2.71,3.53.69,7.31.27,11,.1s7.39-.63,11.08-1c.32,0,.74.08,1-.08,1.85-1.36,4.19-1.09,6.21-1.89s4.18-1.19,6.14-2.07c4.76-2.11,9.52-4.32,13-8.39a11.62,11.62,0,0,0,3-9.67,15.76,15.76,0,0,0-6.37-9.77,49.29,49.29,0,0,0-8.56-4.62c-3.07-1.41-6.55-1.8-9.53-3.51C136.83,345.55,130.5,342.8,124.66,343.74ZM79,373.6c0,7-.09,12.82.06,18.59a10,10,0,0,0,1.36,4.4,21.23,21.23,0,0,0,8.94,8.22,67.63,67.63,0,0,0,29.16,7.84,84.45,84.45,0,0,0,17.08-.72,73.82,73.82,0,0,0,12-2.56,47.59,47.59,0,0,0,13.7-6.64c3.28-2.45,6.22-5.52,6.58-9.57.54-6.06.14-12.2.14-19.11-4.15,5.25-9.27,7.83-14.31,10.32-3.41,1.69-7.31,2.47-11.08,3.32-4,.89-8.09,1.94-12.13,1.91-5.84,0-11.81,1.3-17.55-.86-4.26.58-8.18-1-12.13-2.07s-7.88-2.08-11.24-4.1C86,380.4,82,378.51,79,373.6Z" transform="translate(68.89 -168.53)"/><path class="cls-1" d="M226,330.07c3.25-2.48,5.52-5.7,8.89-7.92,3.86-2.54,8.18-3.64,12.3-5.35,2.13-.88,4.68-.77,6.8-1.67s4.62-.18,7-1.17,5.58,0,8.39-.26c7-.63,13.93.7,20.61,2.23s13.35,4,19,8.33a16.14,16.14,0,0,1,5.86,9c.86,3.6-.57,7.18-3,10.13-3.34,4-8.12,5.93-12.56,8.26-2,1.06-4.49,1.21-6.61,2.12s-4.42.37-6.19,1.94c-.1.08-.33,0-.49,0-4,.33-8.05.79-12.08,1s-8.11.66-11.95-.12c-4.43-.91-9-.92-13.39-2.56-4-1.5-8.36-2.41-12.11-4.51-3.35-1.87-6.76-3.72-8.91-7.51-2-3.54-3.41-6.67-1.55-10.56C226.12,331.17,226,330.78,226,330.07Z" transform="translate(68.89 -168.53)"/><path class="cls-1" d="M315,343.73c0,7.34.43,13.65-.16,19.86-.35,3.64-3,6.78-6.14,8.82A74.65,74.65,0,0,1,298,377.92c-3.75,1.66-7.85,1.85-11.44,3.71a2.73,2.73,0,0,1-1,.11c-3.85.33-7.7.8-11.56,1a90.19,90.19,0,0,1-12-.06c-2.34-.22-4.68-.75-7.06-1a19.71,19.71,0,0,1-6.71-1.8c-2-1-4.45-1.28-6.61-2.12s-4.13-2.06-6.26-2.94a17.93,17.93,0,0,1-9-8.12,10.29,10.29,0,0,1-1.4-4.38c-.15-5.78-.06-11.56-.06-18.42,3,4.57,6.9,6.55,10.51,8.69a43.49,43.49,0,0,0,11.22,4.13c4,1,7.87,2.66,12.13,2.08,3,1.83,6.37.82,9.57,1s6.75.53,9.94-.12c2.56-.52,5.16-.35,7.57-1s4.83-1.11,7.19-1.85,5-.95,7.11-2.1c4.12-2.21,8.53-4,11.86-7.53C312.89,346.31,313.58,345.41,315,343.73Z" transform="translate(68.89 -168.53)"/><path class="cls-1" d="M519,270.11c3.34-2.71,5.66-5.89,9-8.06,3.87-2.48,8.17-3.65,12.33-5.26,2.16-.84,4.57-1,6.78-1.74s4.9.49,6.94-1.31c5.66,0,11.38-.49,17,.17a67.82,67.82,0,0,1,10.66,1.89c6.84,2,13.64,4.2,19.4,8.6a16.49,16.49,0,0,1,5.61,8.63c1.12,3.78-.59,7.14-2.7,10.12-1.78,2.52-4.47,4.11-7.15,5.58a62.17,62.17,0,0,1-16.47,6.11,90.63,90.63,0,0,1-12.18,1.81,61.12,61.12,0,0,1-13,0c-9.28-1.18-18.39-3.06-26.72-7.79-4.56-2.59-8.3-5.47-9.83-10.81-.62-2.13-1.33-3.87.24-5.83C519.26,271.82,519,270.94,519,270.11Z" transform="translate(68.89 -168.53)"/><path class="cls-1" d="M518,283.88c3,4.34,6.61,6.37,10.15,8.35a42.79,42.79,0,0,0,11.59,4.47c4,.89,7.89,2.62,12.14,2,6.09,2.18,12.38.46,18.55,1,2.4-1.3,5.12-.53,7.54-1.13s4.8-1.19,7.19-1.87,5-.94,7.11-2.09c4.11-2.21,8.5-4.08,11.86-7.53.78-.81,1.58-1.59,2.87-2.88,0,6.85.44,13.16-.17,19.37-.35,3.62-3.15,6.58-6.12,8.88-4,3.07-14.29,7.18-19.52,8.29a102.79,102.79,0,0,1-12.66,1.87,78.46,78.46,0,0,1-13.45,0c-2.34-.21-4.69-.73-7.07-1a20.2,20.2,0,0,1-6.71-1.81c-2-1-4.45-1.27-6.6-2.11s-4.13-2.09-6.27-2.94a17.93,17.93,0,0,1-9-8.14,9.84,9.84,0,0,1-1.39-4.39C517.92,296.46,518,290.68,518,283.88Z" transform="translate(68.89 -168.53)"/><path class="cls-1" d="M373.12,300c3.11-2.38,5.4-5.57,8.75-7.81,3.85-2.56,8.19-3.64,12.29-5.37,2.13-.9,4.7-.75,6.81-1.66,2.27-1,4.66.08,7-1.23,1.64-.93,4.23-.15,6.39-.19a77.56,77.56,0,0,1,18.68,1.88c9.45,2.13,15.12,4.49,20.71,8a16.51,16.51,0,0,1,7,9.65c1.07,3.52-.51,7.16-2.94,10.11-3.34,4-8.11,6-12.55,8.29-2,1.06-4.48,1.23-6.61,2.12s-4.42.4-6.2,1.93c-.09.09-.32,0-.49,0-3.85.33-7.71.79-11.57,1s-7.78.64-11.45-.12c-4.44-.91-9-.9-13.39-2.55-4-1.52-8.4-2.36-12.12-4.49-3.32-1.91-6.78-3.69-8.92-7.51-2-3.54-3.45-6.64-1.57-10.55A4.63,4.63,0,0,0,373.12,300Z" transform="translate(68.89 -168.53)"/><path class="cls-1" d="M372,313.85c2.94,4.39,6.63,6.41,10.16,8.39a43.23,43.23,0,0,0,11.61,4.46c4,.9,7.88,2.62,12.13,2,5.75,2.12,11.71.67,17.56.9,2.65.11,5.29-.92,8.06-1,2.57-.1,5.12-1.18,7.66-1.89a56.48,56.48,0,0,0,7.53-2.29,46.27,46.27,0,0,0,7.23-4.2c2.36-1.61,4.52-3.49,7.06-5.48,0,6.18.34,12.31-.12,18.38-.31,3.94-3.14,6.95-6.19,9.35-4,3.13-14.32,7.19-19.52,8.29a102.79,102.79,0,0,1-12.66,1.87c-4.46.38-9.08.7-13.43-.08-4.59-.82-9.29-.91-13.82-2.67-4.3-1.68-8.73-2.91-12.89-5.07a20.81,20.81,0,0,1-8.93-8.23,9.83,9.83,0,0,1-1.38-4.39C371.92,326.44,372,320.66,372,313.85Z" transform="translate(68.89 -168.53)"/><path class="cls-1" d="M124.66,343.74c5.84-.94,12.17,1.81,18.77,2,3,1.71,6.46,2.1,9.53,3.51a49.29,49.29,0,0,1,8.56,4.62,15.76,15.76,0,0,1,6.37,9.77,11.62,11.62,0,0,1-3,9.67c-3.47,4.07-8.23,6.28-13,8.39-2,.88-4.13,1.27-6.14,2.07s-4.36.53-6.21,1.89c-.22.16-.64,0-1,.08-3.69.33-7.38.79-11.08,1s-7.43.59-11-.1c-4.75-.92-9.63-.86-14.32-2.71-4.29-1.7-8.74-2.88-12.9-5.07-3.8-2-7-4.51-8.88-8.28-.93-1.88-2.1-4.09-1.41-6.37.63-2.06,1-4.28,2.82-5.84,2.48-2.08,4.5-4.62,7.33-6.4,3.87-2.44,8.15-3.72,12.38-5.11,2.19-.71,4.53-1,6.72-1.87s4.3-.16,6.57-1C117.52,343,120.79,343.74,124.66,343.74Z" transform="translate(68.89 -168.53)"/><path class="cls-1" d="M79,373.6c2.94,4.91,7,6.8,10.56,9,3.36,2,7.39,3.07,11.24,4.1s7.87,2.65,12.13,2.07c5.74,2.16,11.71.82,17.55.86,4,0,8.13-1,12.13-1.91,3.77-.85,7.67-1.63,11.08-3.32,5-2.49,10.16-5.07,14.31-10.32,0,6.91.4,13.05-.14,19.11-.36,4-3.3,7.12-6.58,9.57a47.59,47.59,0,0,1-13.7,6.64,73.82,73.82,0,0,1-12,2.56,84.45,84.45,0,0,1-17.08.72,67.63,67.63,0,0,1-29.16-7.84,21.23,21.23,0,0,1-8.94-8.22,10,10,0,0,1-1.36-4.4C78.92,386.42,79,380.64,79,373.6Z" transform="translate(68.89 -168.53)"/></svg>