<svg id="Layer_1" data-name="Layer 1" xmlns="http://www.w3.org/2000/svg" viewBox="0 0 749.78 432.38"><defs><style>.cls-1{fill:#a91c24;}.cls-2{fill:#fe1c24;}.cls-3{fill:#d11c24;}</style></defs><path d="M93.5,611-68.9,448.6V300.14c1.47-.69,3-2,4.55-2,5.77-.17,11.1-2.43,16.73-3.26a32.34,32.34,0,0,0,6.85-1.45A35.3,35.3,0,0,1-33.84,292c2.35-.38,4.83-.35,7.06-1.07,6.16-2,12.51-2.91,18.83-4.1a43.46,43.46,0,0,1,6.17-.93,17.59,17.59,0,0,1,1.89-2.48C5.73,277.84,12.77,275,20.27,273a95.12,95.12,0,0,1,28.26-3,21,21,0,0,1,5.09,1c1.52.42,3.06-.32,4.75.66a7.19,7.19,0,0,0,5.29.26c3.86-1.37,8-1.21,11.85-2.76,2-.79,4.32-.37,6.57-.95,3.15-.83,6.44-1.24,9.64-2.12a64.36,64.36,0,0,1,9.17-1.89c4.28-.52,8.43-1.6,12.62-2.36,3.61-.66,7.46-.83,10.86-2.65,1.53-.81,3.66.71,5-1.09,4.82.11,9.27-2.3,14.28-2.1,2.72-3.85,6.66-6.51,10.73-8.74,3.47-1.91,7.43-3,11.24-4.21,4.63-1.52,9.53-1.86,14.28-2.87,3.83-.81,8-.32,12-.1,2.19.12,4.4-.73,6.67.81,1.57,1,4.24-.81,6,1.13,2.21-.41,4.51.69,6.72-.71,1.58-1,3.6-.22,5.53-1.11,2.35-1.08,5.34-.7,8-1.21,5.38-1,10.73-2.23,16.08-3.4,2.13-.46,4.21-1.35,6.35-1.5,3-.2,5.87-1.26,8.84-1.65a61.5,61.5,0,0,0,8.85-1.63c3.59-1,7.38-1.15,10.85-2.72,1.68-.76,3.65.05,5.67-.79,2.71-1.12,5.94-1,9.32-1.47,2.59-3.58,6.5-6.24,10.55-8.51a48.12,48.12,0,0,1,10.72-4.22c5-1.37,10.21-1.76,15.25-3,1.73-.43,3.65,0,5.49-.07,6.47-.09,12.87,0,19.21,1.85,1.91.55,4.58,1.05,6.54-.85,4.69.28,9.09-1.5,13.64-2.18,5.36-.81,10.83-1.61,16-3.52,1.94-.72,4.26.42,6-1.3,6-.32,11.88-1.95,17.71-3.23,5.28-1.15,10.72-1.89,15.92-3.67,2.67-.92,5.67-.85,9-1.28,2.55-3.52,6.44-6.2,10.5-8.43a44.06,44.06,0,0,1,11.2-4.27c4-.92,8.13-1.46,12.09-2.33,6.1-1.33,12.11-.37,18.13-.73,1.51-.09,3.05.63,4.59.93,1.38.27,2.71-.07,4.21.74a7,7,0,0,0,5.33.16c3.83-1.51,8.05-1,11.84-2.79,1.37-.63,3.27-.1,4.85-.1L680.88,340.38V490.62C676.6,492,672,492,667.72,493.75c-1.9.77-4,.49-6,1a68.61,68.61,0,0,1-8.78,1.79,53.08,53.08,0,0,0-8.85,1.61c-5.24,1.67-10.76,1.86-15.94,3.71a24.62,24.62,0,0,1-5.57.89c-2,.21-3.61,1.34-5.57,1.22s-3.66.87-5.55,1.17a71.22,71.22,0,0,0-8.7,1.83c-2.7.78-5.65.5-8.18,1.95-4.25-.51-8,1.79-12.14,2.2a49.42,49.42,0,0,0-8.68,1.85c-2.7.79-5.66.48-8.19,2-4.25-.53-8,1.79-12.14,2.19a48.56,48.56,0,0,0-8.68,1.86c-2.7.78-5.52.86-8.23,1.83-2.16.76-4.69.1-7.07,1-2,.81-4.77.14-6.44,1.26-2.09,1.39-4.37.16-6.43,1.57-1.54,1-3.93.63-6,1.12-6.08,1.44-12.24,2.52-18.35,3.93-4.09,1-8.35,1.73-12.58,2.33-4.78.67-9.42,2.3-14.23,3-1.87,1.93-4.56.45-6.8,1.75-1.92,1.11-4.75.49-7,1.26-2,.71-4.45.3-6.21,1.9-4.19-.19-8.13,1.29-12.15,2.08-5.51,1.08-11.15,1.72-16.48,3.63-1.94.69-4,.16-6,1.13s-5.34.18-7.42,1.33c-2.4,1.32-5.26-.21-7.26,1.83-2.83-.75-5.38.75-8.08,1.09a110.22,110.22,0,0,0-11,2.38c-2.13.49-4.23,1.08-6.37,1.51a35.27,35.27,0,0,1-6.08,1c-2.27.06-4.23,1.78-6.59,1.06-1.56,1.59-3.84,1-5.75,1.82-2.36,1.07-5.32.75-8,1.2-4,.68-8.07,1.34-12,2.33-3.63.9-7.32,1.49-10.91,2.58-2.26.69-5.08.11-7,1.23-2.24,1.34-5-.23-6.79,1.79-2.3-.35-4.37.83-6.57,1-4,.3-7.56,2.42-11.61,2.18-1.9,1.82-4.53.66-6.81,1.66a26.2,26.2,0,0,1-7,1.4c-3.51.42-7,1.55-10.51,2.26-2.14.43-4.23,1.39-6.36,1.47-4.65.18-9.1,1.58-13.62,2.32a98.48,98.48,0,0,0-15.91,3.67c-1.73.59-3.7.52-5.59,1-6.1,1.39-12.34,2.06-18.34,4.06-2.52.84-5.4.54-8,1.13-4.12.92-8.29,1.67-12.42,2.55-3.52.75-7,1.51-10.53,2.36-2.3.56-5.13,0-7,1.21-2.24,1.42-5-.31-6.79,1.81-2.3-.39-4.38.79-6.58,1-4,.32-7.61,1.95-11.58,2.35a57.36,57.36,0,0,0-8.24,1.75c-5.45,1.4-11.15,1.62-16.44,3.72-1.89.75-4,.19-6.06,1.08-2.25,1-5.23.28-7.46,1.29s-5,.29-7.29,1.77C96.06,611.45,94.61,611,93.5,611ZM677.83,488.09V343.45a29.66,29.66,0,0,0-5.57.86c-5.35,1.9-11,2.5-16.48,3.6-4,.8-8,2.27-12.15,2.09-3.08,2.16-6.9,1.84-10.32,2.78a61.75,61.75,0,0,1-10.62,2.08c-4.15.37-7.9,2.71-12.16,2.14-1.4,2.05-3.66.55-5.46,1.3s-4,.72-6,1.17c-1.81.41-3.57,1.43-5.36,1.45-4.2,0-7.91,2.66-12.17,2.08-2.49,1.6-5.5,1.06-8.17,2a40.19,40.19,0,0,1-8.69,1.83c-4.12.46-7.88,2.77-12.15,2.18-1.8,2.06-4.53.55-6.76,1.84-1.92,1.11-4.68.63-7,1.21s-4.94.4-7,1.14c-3.57,1.24-7.49.89-10.82,2.81-6,.23-11.72,2.7-17.76,3-1.7,1.71-4.09.43-6,1.32-3.45,1.66-7.28,1.91-10.91,2.52-4.21.71-8.28,2.41-12.65,2.16-1.5,1.76-4.11.39-5.67,2-2.34-.68-4.31,1-6.58,1.06-2,.06-4.3.15-6,1.06-2,1.08-4.15.4-6.06,1.1-3.53,1.29-7.32,1.46-10.87,2.71-2.06.72-4.75.13-6.46,1.22-2.09,1.33-4.63-.2-6.33,1.69-4-.17-7.64,1.89-11.61,2.21a25.24,25.24,0,0,0-6.48,1.22c-1.81.67-3.78-.06-5.08.91-1.59,1.2-3.4.16-4.63.92-1.72,1.07-3.42.69-5.14.93a33.39,33.39,0,0,0-6.47,1.28c-5.35,1.88-11,2.5-16.48,3.6-4,.8-8,2.27-12.15,2.09-5.49,2.58-11.57,2.72-17.37,3.85-4.17.81-8.27,2.41-12.64,2.15-1.47,1.87-3.87.78-5.76,1.85s-4.3.81-6.5,1.15c-2,.32-4.32.19-6,1.12-2,1.13-4.13.42-6.06,1.12-3.53,1.27-7.28,1.61-10.88,2.65-3,.86-6.18.93-9.16,2.06a12.74,12.74,0,0,1-5.06,1c-4.41-.23-8.25,2.68-12.68,2.07-1.78,2.14-4.54.44-6.77,1.83-1.85,1.15-4.67.65-7,1.22s-4.94.41-7,1.14c-3.57,1.24-7.49.89-10.82,2.81-6,.25-11.72,2.69-17.76,3-1.71,2-4.24.72-6.36,1.52-3.48,1.3-7.28,1.79-11,2.45-2.67.48-5.54.25-8.05,1.12-5.19,1.81-10.63,2.52-15.92,3.69-5.82,1.27-11.67,2.9-17.7,3.22-1.7,1.73-4,.61-6,1.3-5.34,1.89-11,2.54-16.48,3.63-4,.79-8,2.27-12.16,2.07-1.46,1.88-3.87.76-5.76,1.85s-4.3.81-6.49,1.15c-2,.32-4.08.57-6.08,1-2.72.61-5.4,1.39-8,2.07-.75,17.09-.44,140.63.31,144.66,2.05-.28,4.21-.19,6.06-.91a60.56,60.56,0,0,1,10.86-2.65c4.17-.79,8.48-1.48,12.58-2.41,5.29-1.21,10.72-1.84,16-3.58a47.2,47.2,0,0,1,8.87-1.58,78.39,78.39,0,0,0,8.77-1.82c2-.49,4.18-.25,6-1,5.13-2.11,10.66-2.44,16-3.62,4.13-.91,8.27-2.36,12.63-2.17,7.22-2.81,15-3.38,22.45-4.86,4.17-.82,8.33-1.89,12.62-2.34,2.13-.23,4.47-1.44,6.71-1.68,2.55-.27,4.89-1.35,7.57-1.26,2.23.07,4.47-1.42,6.75-1.6,3.2-.25,6.06-1.8,9.1-2.13,4.28-.48,8.3-2.31,12.66-2.13,1.83-1.53,4.21-.39,6-1.1,3.52-1.38,7.27-1.69,10.86-2.69a61.52,61.52,0,0,1,8.87-1.61,71.39,71.39,0,0,0,8.77-1.81c2-.52,4.17-.24,6-1,5.12-2.14,10.66-2.42,16-3.6,4.13-.92,8.28-2.37,12.64-2.17,5-2.42,10.66-2.17,15.87-3.91,2.52-.85,5.49-.36,8-1.2a51.89,51.89,0,0,1,7.75-1.67c3.43-.59,6.74-1.56,10.12-2.28a102.51,102.51,0,0,1,10.2-1.73c5.56-.58,10.61-3.31,16.24-3.21,1.4-2,3.87-.12,5.4-1.41,1.74-1.49,4,0,6-1.42,1.27-.93,3.69-.81,5.48-1,4.15-.37,7.89-2.77,12.16-2.19,2.49-1.6,5.5-1.06,8.17-2a40.66,40.66,0,0,1,8.69-1.83c4.12-.46,7.88-2.77,12.14-2.18,2.5-1.59,5.5-1.09,8.18-2a42.16,42.16,0,0,1,8.68-1.85c4.13-.44,7.89-2.77,12.15-2.17,1.79-2.11,4.54-.49,6.77-1.84,1.88-1.13,4.64-.77,7-1.18,1.21-.21,2.37-.72,3.59-1s2.44-.45,3.65-.78c3.3-.91,6.74-1.42,10.11-2.19,2.64-.59,5.58-.22,8-1.2,2.07-.84,4.15-.37,6.06-1.07a65,65,0,0,1,10.88-2.6c4.19-.75,8.48-1.47,12.58-2.4,5.29-1.21,10.71-1.92,16-3.59a53.46,53.46,0,0,1,8.85-1.63,68.74,68.74,0,0,0,8.79-1.78c2-.56,4.11-.31,6-1,5.31-2,11-2.55,16.47-3.65,4-.8,8-2.27,12.15-2.09,1.49-1.8,3.86-.87,5.75-1.86s4.31-.8,6.51-1.14c2-.32,4.07-.6,6.08-1s4.22-1.13,6.36-1.52c3.7-.66,7.33-1.61,11-2.45C671.93,489.34,674.83,488.74,677.83,488.09ZM508.34,183.47c.8.78,1.12,1.34,1.59,1.5a60.72,60.72,0,0,1,8.35,4,22.47,22.47,0,0,1,7.31,6.31c1.84,2.44,3.47,5.18,3.44,8.56-.08,9.16,0,18.33,0,27.49a12,12,0,0,1-2.45,7.45A35.23,35.23,0,0,1,510.29,250c-2.19.77-4.52,1.17-6.64,2.07s-4.52,1-6.75,1.81-4.66.13-7.08,1c-2.65,1-20.61-.21-24-.87a2.28,2.28,0,0,1-.44-.15c-4.74-1.87-9.81-2.64-14.54-4.73-5.21-2.31-10-5-13.51-9.48a15.23,15.23,0,0,1-3.37-10.1c.24-8.16,0-16.33.11-24.49a42.38,42.38,0,0,1,.74-5.63c-23.8,4.46-47.61,9.76-71.66,14.05l-.15,1.05c1,.47,2.09,1.07,3.22,1.46a29.19,29.19,0,0,1,13.55,9.4,15.29,15.29,0,0,1,3.34,10.13c-.26,8-.12,16-.06,24a15.7,15.7,0,0,1-4.92,12A41.7,41.7,0,0,1,366.68,279c-7.58,3.66-15.84,4.77-24,5.92a62.87,62.87,0,0,1-11.48,0c-3.71-.16-7.4-.62-11.09-1a4.09,4.09,0,0,1-.88-.28,65.76,65.76,0,0,0-7.75-1.87,36,36,0,0,1-7.29-2.85c-5-2.23-9.75-5-13-9.49a15.78,15.78,0,0,1-3.25-10.16c.29-7.48,0-15,.11-22.49,0-2.51.36-5,.56-7.56L216,243.62v1.13a41.14,41.14,0,0,1,9.18,4.18,24.84,24.84,0,0,1,8.24,7.82c1.44,2.22,2.55,4.36,2.56,6.95.05,9.17.15,18.34,0,27.5a14,14,0,0,1-3.91,9.37c-3,3.27-6.71,5.3-10.43,7.46s-8.11,3-12.24,4.3a59,59,0,0,1-14.88,2.51c-5.66.28-11.45,1-17.1-.79-1.92-.61-4.27.69-6.06-1.05a48.82,48.82,0,0,1-13.38-3.91c-5.26-2.17-10.05-4.94-13.57-9.36a14.8,14.8,0,0,1-3.42-10.08c.24-6,0-12,.09-18,.08-4.15-.78-8.37,1-12.29-24.2,4.63-48,9.79-72.35,14.23.83,1.63,2.33,1.94,3.46,2.35a29.64,29.64,0,0,1,13.57,9.37,15.14,15.14,0,0,1,3.4,10.09c-.22,8.33-.08,16.66-.07,25a14.91,14.91,0,0,1-4.47,10.67c-2.91,3.1-6.55,4.95-10.1,7.05-5.61,3.31-12,4.19-18.09,5.79a49.59,49.59,0,0,1-10.07,1c-3.49.17-7,0-10.49.05s-6.63-1.67-10.09-1c-4.6-2.26-9.82-2.43-14.51-4.84-5.47-2.81-9.66-4.6-12.94-8.48C-3.35,327.63-5.21,324.25-5,320c.2-5.16,0-10.33.08-15.5s-.7-10.3.93-15.63c-4.19,1.72-8.28,2.21-12.18,3-5.88,1.13-11.66,3-17.71,3.22-1.78,2.14-4.49.7-6.77,1.79-3.16,1.5-7,1.53-10.57,2.21-3.89.76-7.76,1.55-11.79,2.35L95.61,460a31.19,31.19,0,0,0,6.93-1.31c3.6-.92,7.28-1.85,10.88-2.53,4.18-.79,8.48-1.47,12.58-2.41,5.29-1.22,10.73-1.84,16-3.58a48,48,0,0,1,8.87-1.59,78.36,78.36,0,0,0,8.77-1.81c2-.5,4.23-.17,6-1,3.47-1.66,7.28-1.92,10.89-2.58,4.19-.76,8.47-1.5,12.59-2.39,5.29-1.16,10.62-2.56,15.92-3.6,6-1.17,12.1-2.41,18.22-3.22,1.21-.15,2.37-.71,3.59-1s2.44-.45,3.65-.78c3.3-.91,6.74-1.42,10.11-2.19,2.64-.59,5.58-.22,8-1.2,2.07-.84,4.2-.27,6-1.08,5.26-2.31,11-2.52,16.44-3.78a31.4,31.4,0,0,1,3.09-.95c1.31-.17,2.84.38,4-.12,3.47-1.54,7.26-1.7,10.85-2.71a60.28,60.28,0,0,1,8.86-1.61,73.06,73.06,0,0,0,8.78-1.81c2-.52,4.17-.24,6-1,5.12-2.13,10.66-2.44,16-3.61,4.14-.91,8.28-2.36,12.64-2.16,5-2.43,10.58-2.77,15.88-3.75,4.49-.84,9-2.16,13.62-2.33,2.13-.07,4.21-1.05,6.33-1.53,3.67-.83,7.33-1.67,11-2.36,1.55-.28,3.08.08,4.65-.93,1.21-.78,3-.37,4.62-.75,2.89-.68,5.75-1.8,8.59-2.16,4.26-.54,8.31-2.23,12.64-2.19,1.79-1.52,4.1-.51,6-1.21a65.11,65.11,0,0,1,10.87-2.61c4.19-.75,8.48-1.47,12.58-2.4,5.29-1.2,10.71-1.95,15.95-3.59a55.74,55.74,0,0,1,8.86-1.62,67.27,67.27,0,0,0,8.78-1.79c2-.55,4.13-.29,6-1,5.3-2.07,11-2.54,16.46-3.65,4-.82,8-2.27,12.15-2.1,5.5-2.57,11.57-2.71,17.37-3.85,4.17-.81,8.27-2.4,12.64-2.15,5-2.43,10.61-2.45,15.88-3.87,5.71-1.55,11.82-1.5,17.31-4.11a1.84,1.84,0,0,1,1,0c1.66.25,3.08-.43,4.61-.93s3.28.37,4.56-1.08a33.47,33.47,0,0,0,10.18-2,60.49,60.49,0,0,1,10.18-1.86c6-.75,11.69-2.95,17.73-3.18,1.73-1.69,4.12-.41,6-1.3,3.46-1.67,7.28-1.89,10.91-2.54,4.2-.76,8.28-2.37,12.64-2.16,1.57-2.2,4.27-.18,6.3-1.83,1.39-1.13,3.94-.79,6-1.18s4.28-.9,6.14-1.3L517.13,182.12ZM92.84,604.64V463L-65.84,304.36V446ZM438,199.24c0,.93.28,1.83-.05,2.22-1.62,1.94-.89,3.7-.28,5.83,1.53,5.33,5.23,8.27,9.83,10.8,9.13,5,19,7.16,29.2,7.89,6.54.47,13.06-.27,19.56-1a5.6,5.6,0,0,0,1.42-.2c3.89-1.49,8.07-2.05,11.92-3.76,4.93-2.19,9.87-4.38,13.38-8.61,2.27-2.73,3.73-6.24,2.88-9.69A16.9,16.9,0,0,0,519.4,193c-4.48-3.22-14.12-6.49-19.59-8.21-3.42-1.07-7.1.26-10.21-1.81H473.11c-2.06,1.78-4.67.58-6.95,1.3s-5,1-7.22,1.88c-4.12,1.63-8.47,2.7-12.29,5.39C443.49,193.8,441.36,196.91,438,199.24ZM292,229.4c0,.68.27,1.55,0,1.95-2.36,3-.67,6,.54,8.48a16.54,16.54,0,0,0,8.91,8.21c1.71.7,3.17,2,4.88,2.68s3.66.82,5.37,1.51a41.28,41.28,0,0,0,5.74,1.85,28.55,28.55,0,0,0,5.6,1c1.87.07,3.71.82,5.58.9,3.66.15,7.33.17,11,0s7.38-.63,11.07-1c.32,0,.71,0,.95-.12,1.88-1.27,4.19-1.09,6.22-1.86S362,251.85,364,251c4.75-2.13,9.57-4.31,13-8.44,2.35-2.88,3.69-6.34,2.92-10.13-.67-3.34-4-6.83-7.24-9.46s-6.95-4.08-10.71-5.55c-6.17-2.41-12.67-3.48-19.18-4.31-3.11-.4-6.31-.07-9.48-.07-2.16,0-4.72-.73-6.39.18-2.26,1.23-4.48.26-6.58,1s-4.53,1.19-6.73,1.87c-4.24,1.33-8.49,2.69-12.37,5.12C297.59,223.45,295.19,226.79,292,229.4ZM145.12,259.24a4.48,4.48,0,0,1-.14,1.46c-1.85,3.9-.47,7,1.55,10.56,2.15,3.79,5.56,5.64,8.91,7.52,3.75,2.09,8.09,3,12.11,4.5,4.4,1.64,9,1.63,13.39,2.56,3.66.78,7.63.29,11.45.12s7.72-.63,11.57-1c.17,0,.4.07.49,0,1.77-1.57,4.19-1.06,6.2-1.93s4.59-1.07,6.61-2.13c4.44-2.33,9.15-4.29,12.58-8.24,3.19-3.68,4.06-9.79,1.75-13.6a22.65,22.65,0,0,0-9-8.18c-9.16-4.95-19-7.21-29.2-7.86-4.48-.29-9-.05-13.48-.05-2,2-4.65.44-6.92,1.39s-4.67.79-6.8,1.68c-4.11,1.7-8.44,2.81-12.29,5.34C150.52,253.63,148.25,256.85,145.12,259.24ZM42.48,316l0,.29,15-1.29c.32,0,.76.11,1-.05,1.82-1.44,4.18-1.11,6.21-1.91s4.59-1.05,6.61-2.11c4.46-2.31,9.22-4.28,12.53-8.32,2.41-2.94,3.85-6.47,2.95-10.14a15.86,15.86,0,0,0-6.27-9.32c-6.85-4.71-14.75-7.06-22.69-9.06-3.55-.89-7.35-.9-11-1-4-.17-8,0-12,0a3.27,3.27,0,0,0-1,0c-4.29,1.55-9,1.48-13.24,3s-8.48,2.76-12.36,5.14C5.22,283,3,285.58.58,288a8.58,8.58,0,0,0-2.44,8.37A16.18,16.18,0,0,0,4.7,306c3.5,2.23,7.09,4.4,11.2,5.48C18,312,20,312.91,22,313.5a24.93,24.93,0,0,0,6.38,1.4c2.31,0,4.38.84,6.58,1.05C37.47,316.18,40,316,42.48,316Zm483-102.15c-3.62,4.82-8.68,7.32-13.65,9.69a52.4,52.4,0,0,1-11.05,3.4,74.43,74.43,0,0,1-23.61,2c-3.7-.16-7.38-.63-11.07-1-.16,0-.36.06-.49,0-4.61-2.22-9.87-2.33-14.47-4.86-3.76-2.07-9.07-4.59-11.54-7a5.47,5.47,0,0,0-1.07-1c-.44-.25-.53-1.34-1.51-.63,0,5.28,0,10.58,0,15.89,0,2.48,1.12,4.43,2.25,6.57,2.17,4.08,5.93,6,9.61,8.1s8.09,2.94,12.1,4.5c4.17,1.62,8.65,1.58,13,2.38,3.69.68,7.63.27,11.44.1s7.71-.63,11.57-1c.16,0,.4.07.49,0,1.75-1.62,4.19-1.53,6.19-1.79,2.46-.33,4.09-2.61,6.63-2.2,4.2-2.43,8.94-4.08,12.16-7.95a55.4,55.4,0,0,0,3.61-5.53q0-9.42,0-18.91C526,214.49,525.82,214.36,525.46,213.85ZM291,244.08c0,5.94-.08,11.87.06,17.8a7.93,7.93,0,0,0,1.31,3.92,22.2,22.2,0,0,0,8.91,8.31c4.2,2,8.6,3.35,12.89,5,4.52,1.78,9.24,1.74,13.82,2.7,3.66.76,7.62.28,11.44.11s7.71-.63,11.57-1c.16,0,.39.07.48,0,1.78-1.55,4.18-1.09,6.19-1.94s4.59-1.06,6.6-2.12c4.29-2.26,9-4,12.17-7.93a57.11,57.11,0,0,0,3.56-5.48q0-9.51,0-19c0-.12-.21-.25-.48-.55-.41.41-.86.8-1.24,1.25-3.38,4-8,6.17-12.52,8.35A51.38,51.38,0,0,1,354.68,257a106.26,106.26,0,0,1-12.14,2,62.58,62.58,0,0,1-9,0c-2.87-.11-5.87.73-8.56-1-4.26.59-8.18-1-12.13-2.07s-7.92-2-11.24-4.09C298,249.62,293.88,247.88,291,244.08ZM144,274.33c0,5.47-.16,10.95.08,16.4a13.94,13.94,0,0,0,2.09,6.11c2.09,3.69,5.38,5.69,8.82,7.62,3.92,2.22,8.36,3.13,12.5,4.75,4.54,1.78,9.25,1.73,13.84,2.64,3.68.73,7.63.28,11.45.11s7.38-.62,11.06-1a4,4,0,0,0,.9-.23c3.92-1.43,8.1-2,11.93-3.74,4.42-2,9-3.9,12.3-7.58a48.28,48.28,0,0,0,4-5.83c0-6.61,0-12.77,0-18.92a.7.7,0,0,0-.22-.4,1.25,1.25,0,0,0-.39-.24c-3.49,4.3-8.29,6.75-13.11,9.21a47.06,47.06,0,0,1-11,3.57A66.39,66.39,0,0,1,192.7,289c-3.32,0-6.65,0-10,0a7.32,7.32,0,0,1-2.48,0c-4.26-1.69-8.89-1.53-13.31-2.7a73.19,73.19,0,0,1-12.15-4.46C151,280,147,277.84,144,274.33ZM-2,303.2c0,6.76-.09,12.55.07,18.32a10.16,10.16,0,0,0,1.4,4.38,17.78,17.78,0,0,0,9,8.12c2.13.89,4.12,2.11,6.26,2.94s4.57,1.09,6.61,2.12a19.71,19.71,0,0,0,6.71,1.8c2.38.27,4.72.83,7.06,1a81.75,81.75,0,0,0,13.46,0A105,105,0,0,0,61.22,340c5.2-1.11,15.64-5.25,19.51-8.32,3-2.42,5.86-5.42,6.15-9.37.45-6.06.12-12.18.12-19.35-1.43,1.67-2.12,2.57-2.9,3.39-3.33,3.47-7.74,5.32-11.86,7.53-2.13,1.14-4.74,1.36-7.11,2.09s-4.8,1.23-7.19,1.86-5.14-.16-7.54,1.13c-6.17-.54-12.46,1.18-18.54-1-4.26.58-8.14-1.16-12.14-2a43.47,43.47,0,0,1-11.6-4.48C4.58,309.51,1,307.45-2,303.2Z" transform="translate(68.9 -178.79)"/><path class="cls-1" d="M677.83,488.09c-3,.65-5.9,1.25-8.78,1.92-3.65.84-7.28,1.79-11,2.45-2.14.39-4.23,1.08-6.36,1.52s-4.05.7-6.08,1c-2.2.34-4.66.16-6.51,1.14s-4.26.06-5.75,1.86c-4.19-.18-8.13,1.29-12.15,2.09-5.5,1.1-11.16,1.62-16.47,3.65-1.92.73-4,.48-6,1a68.74,68.74,0,0,1-8.79,1.78,53.46,53.46,0,0,0-8.85,1.63c-5.24,1.67-10.66,2.38-16,3.59-4.1.93-8.39,1.65-12.58,2.4a65,65,0,0,0-10.88,2.6c-1.91.7-4,.23-6.06,1.07-2.43,1-5.37.61-8,1.2-3.37.77-6.81,1.28-10.11,2.19-1.21.33-2.42.54-3.65.78s-2.38.75-3.59,1c-2.35.41-5.11,0-7,1.18-2.23,1.35-5-.27-6.77,1.84-4.26-.6-8,1.73-12.15,2.17a42.16,42.16,0,0,0-8.68,1.85c-2.68.89-5.68.39-8.18,2-4.26-.59-8,1.72-12.14,2.18a40.66,40.66,0,0,0-8.69,1.83c-2.67.93-5.68.39-8.17,2-4.27-.58-8,1.82-12.16,2.19-1.79.17-4.21,0-5.48,1-2,1.45-4.23-.07-6,1.42-1.53,1.29-4-.64-5.4,1.41-5.63-.1-10.68,2.63-16.24,3.21a102.51,102.51,0,0,0-10.2,1.73c-3.38.72-6.69,1.69-10.12,2.28a51.89,51.89,0,0,0-7.75,1.67c-2.52.84-5.49.35-8,1.2-5.21,1.74-10.87,1.49-15.87,3.91-4.36-.2-8.51,1.25-12.64,2.17-5.31,1.18-10.85,1.46-16,3.6-1.87.78-4,.5-6,1a71.39,71.39,0,0,1-8.77,1.81,61.52,61.52,0,0,0-8.87,1.61c-3.59,1-7.34,1.31-10.86,2.69-1.83.71-4.21-.43-6,1.1-4.36-.18-8.38,1.65-12.66,2.13-3,.33-5.9,1.88-9.1,2.13-2.28.18-4.52,1.67-6.75,1.6-2.68-.09-5,1-7.57,1.26-2.24.24-4.58,1.45-6.71,1.68-4.29.45-8.45,1.52-12.62,2.34-7.5,1.48-15.23,2.05-22.45,4.86-4.36-.19-8.5,1.26-12.63,2.17-5.31,1.18-10.84,1.51-16,3.62-1.86.76-4,.52-6,1a78.39,78.39,0,0,1-8.77,1.82A47.2,47.2,0,0,0,142,598.2c-5.24,1.74-10.67,2.37-16,3.58-4.1.93-8.41,1.62-12.58,2.41a60.56,60.56,0,0,0-10.86,2.65c-1.85.72-4,.63-6.06.91-.75-4-1.06-127.57-.31-144.66,2.63-.68,5.31-1.46,8-2.07,2-.45,4.05-.7,6.08-1,2.19-.34,4.7-.12,6.49-1.15s4.3,0,5.76-1.85c4.2.2,8.13-1.28,12.16-2.07,5.51-1.09,11.14-1.74,16.48-3.63,1.94-.69,4.26.43,6-1.3,6-.32,11.88-1.95,17.7-3.22,5.29-1.17,10.73-1.88,15.92-3.69,2.51-.87,5.38-.64,8.05-1.12,3.7-.66,7.5-1.15,11-2.45,2.12-.8,4.65.5,6.36-1.52,6-.31,11.71-2.75,17.76-3,3.33-1.92,7.25-1.57,10.82-2.81,2.09-.73,4.68-.55,7-1.14s5.12-.07,7-1.22c2.23-1.39,5,.31,6.77-1.83,4.43.61,8.27-2.3,12.68-2.07a12.74,12.74,0,0,0,5.06-1c3-1.13,6.18-1.2,9.16-2.06,3.6-1,7.35-1.38,10.88-2.65,1.93-.7,4,0,6.06-1.12,1.69-.93,4-.8,6-1.12,2.2-.34,4.7-.12,6.5-1.15s4.29,0,5.76-1.85c4.37.26,8.47-1.34,12.64-2.15,5.8-1.13,11.88-1.27,17.37-3.85,4.19.18,8.13-1.29,12.15-2.09,5.5-1.1,11.13-1.72,16.48-3.6a33.39,33.39,0,0,1,6.47-1.28c1.72-.24,3.42.14,5.14-.93,1.23-.76,3,.28,4.63-.92,1.3-1,3.27-.24,5.08-.91a25.24,25.24,0,0,1,6.48-1.22c4-.32,7.57-2.38,11.61-2.21,1.7-1.89,4.24-.36,6.33-1.69,1.71-1.09,4.4-.5,6.46-1.22,3.55-1.25,7.34-1.42,10.87-2.71,1.91-.7,4,0,6.06-1.1,1.72-.91,4-1,6-1.06,2.27-.07,4.24-1.74,6.58-1.06,1.56-1.61,4.17-.24,5.67-2,4.37.25,8.44-1.45,12.65-2.16,3.63-.61,7.46-.86,10.91-2.52,1.86-.89,4.25.39,6-1.32,6-.3,11.71-2.77,17.76-3,3.33-1.92,7.25-1.57,10.82-2.81,2.09-.74,4.68-.55,7-1.14s5.06-.1,7-1.21c2.23-1.29,5,.22,6.76-1.84,4.27.59,8-1.72,12.15-2.18a40.19,40.19,0,0,0,8.69-1.83c2.67-.93,5.68-.39,8.17-2,4.26.58,8-2.05,12.17-2.08,1.79,0,3.55-1,5.36-1.45,2-.45,4.17-.4,6-1.17s4.06.75,5.46-1.3c4.26.57,8-1.77,12.16-2.14a61.75,61.75,0,0,0,10.62-2.08c3.42-.94,7.24-.62,10.32-2.78,4.19.18,8.13-1.29,12.15-2.09,5.5-1.1,11.13-1.7,16.48-3.6a29.66,29.66,0,0,1,5.57-.86Z" transform="translate(68.9 -178.79)"/><path class="cls-2" d="M508.34,183.47l8.79-1.35L675.7,340.69c-1.86.4-4,.89-6.14,1.3s-4.57.05-6,1.18c-2,1.65-4.73-.37-6.3,1.83-4.36-.21-8.44,1.4-12.64,2.16-3.63.65-7.45.87-10.91,2.54-1.84.89-4.23-.39-6,1.3-6,.23-11.74,2.43-17.73,3.18A60.49,60.49,0,0,0,599.88,356a33.47,33.47,0,0,1-10.18,2c-1.28,1.45-3.1.61-4.56,1.08s-2.95,1.18-4.61.93a1.84,1.84,0,0,0-1,0c-5.49,2.61-11.6,2.56-17.31,4.11-5.27,1.42-10.88,1.44-15.88,3.87-4.37-.25-8.47,1.34-12.64,2.15-5.8,1.14-11.87,1.28-17.37,3.85-4.19-.17-8.13,1.28-12.15,2.1-5.5,1.11-11.16,1.58-16.46,3.65-1.91.74-4,.48-6,1a67.27,67.27,0,0,1-8.78,1.79,55.74,55.74,0,0,0-8.86,1.62c-5.24,1.64-10.66,2.39-15.95,3.59-4.1.93-8.39,1.65-12.58,2.4a65.11,65.11,0,0,0-10.87,2.61c-1.91.7-4.22-.31-6,1.21-4.33,0-8.38,1.65-12.64,2.19-2.84.36-5.7,1.48-8.59,2.16-1.59.38-3.41,0-4.62.75-1.57,1-3.1.65-4.65.93-3.69.69-7.35,1.53-11,2.36-2.12.48-4.2,1.46-6.33,1.53-4.66.17-9.13,1.49-13.62,2.33-5.3,1-10.88,1.32-15.88,3.75-4.36-.2-8.5,1.25-12.64,2.16-5.31,1.17-10.85,1.48-16,3.61-1.87.78-4,.5-6,1a73.06,73.06,0,0,1-8.78,1.81,60.28,60.28,0,0,0-8.86,1.61c-3.59,1-7.38,1.17-10.85,2.71-1.12.5-2.65-.05-4,.12a31.4,31.4,0,0,0-3.09.95c-5.48,1.26-11.18,1.47-16.44,3.78-1.85.81-4,.24-6,1.08-2.43,1-5.37.61-8,1.2-3.37.77-6.81,1.28-10.11,2.19-1.21.33-2.42.54-3.65.78s-2.38.8-3.59,1c-6.12.81-12.19,2-18.22,3.22-5.3,1-10.63,2.44-15.92,3.6-4.12.89-8.4,1.63-12.59,2.39-3.61.66-7.42.92-10.89,2.58-1.8.87-4,.54-6,1a78.36,78.36,0,0,1-8.77,1.81A48,48,0,0,0,142,450.2c-5.23,1.74-10.67,2.36-16,3.58-4.1.94-8.4,1.62-12.58,2.41-3.6.68-7.28,1.61-10.88,2.53A31.19,31.19,0,0,1,95.61,460L-63.06,301.35c4-.8,7.9-1.59,11.79-2.35,3.55-.68,7.41-.71,10.57-2.21,2.28-1.09,5,.35,6.77-1.79,6.05-.19,11.83-2.09,17.71-3.22,3.9-.75,8-1.24,12.18-3-1.63,5.33-.82,10.5-.93,15.63S-4.85,314.79-5,320c-.16,4.3,1.7,7.68,4.29,10.73,3.28,3.88,7.47,5.67,12.94,8.48,4.69,2.41,9.91,2.58,14.51,4.84,3.46-.66,6.68,1.05,10.09,1s7,.12,10.49-.05a49.59,49.59,0,0,0,10.07-1c6.11-1.6,12.48-2.48,18.09-5.79,3.55-2.1,7.19-3.95,10.1-7.05A14.91,14.91,0,0,0,90,320.4c0-8.34-.15-16.67.07-25a15.14,15.14,0,0,0-3.4-10.09,29.64,29.64,0,0,0-13.57-9.37c-1.13-.41-2.63-.72-3.46-2.35C94,269.15,117.79,264,142,259.36c-1.74,3.92-.88,8.14-1,12.29-.12,6,.15,12-.09,18a14.8,14.8,0,0,0,3.42,10.08c3.52,4.42,8.31,7.19,13.57,9.36A48.82,48.82,0,0,0,171.31,313c1.79,1.74,4.14.44,6.06,1.05,5.65,1.81,11.44,1.07,17.1.79a59,59,0,0,0,14.88-2.51c4.13-1.32,8.4-2.07,12.24-4.3s7.45-4.19,10.43-7.46a14,14,0,0,0,3.91-9.37c.2-9.16.1-18.33,0-27.5,0-2.59-1.12-4.73-2.56-6.95a24.84,24.84,0,0,0-8.24-7.82,41.14,41.14,0,0,0-9.18-4.18v-1.13l72.59-14.33c-.2,2.55-.54,5.05-.56,7.56-.08,7.5.18,15-.11,22.49a15.78,15.78,0,0,0,3.25,10.16c3.25,4.45,8,7.26,13,9.49a36,36,0,0,0,7.29,2.85,65.76,65.76,0,0,1,7.75,1.87,4.09,4.09,0,0,0,.88.28c3.69.35,7.38.81,11.09,1a62.87,62.87,0,0,0,11.48,0c8.18-1.15,16.44-2.26,24-5.92a41.7,41.7,0,0,0,11.42-7.49,15.7,15.7,0,0,0,4.92-12c-.06-8-.2-16,.06-24a15.29,15.29,0,0,0-3.34-10.13,29.19,29.19,0,0,0-13.55-9.4c-1.13-.39-2.19-1-3.22-1.46l.15-1.05c24.05-4.29,47.86-9.59,71.66-14.05a42.38,42.38,0,0,0-.74,5.63c-.09,8.16.13,16.33-.11,24.49a15.23,15.23,0,0,0,3.37,10.1c3.49,4.44,8.3,7.17,13.51,9.48,4.73,2.09,9.8,2.86,14.54,4.73a2.28,2.28,0,0,0,.44.15c3.42.66,21.38,1.84,24,.87,2.42-.88,4.92-.25,7.08-1s4.57-.89,6.75-1.81,4.45-1.3,6.64-2.07a35.23,35.23,0,0,0,16.27-11.23A12,12,0,0,0,529,231.3c0-9.16-.06-18.33,0-27.49,0-3.38-1.6-6.12-3.44-8.56a22.47,22.47,0,0,0-7.31-6.31,60.72,60.72,0,0,0-8.35-4C509.46,184.81,509.14,184.25,508.34,183.47ZM318,359c0-4.67-.11-9.33.05-14a10.26,10.26,0,0,0-1.54-5.85,27.79,27.79,0,0,0-9.42-9.34c-3.26-1.87-6.87-2.85-10-4.82-1.05-.65-2.45-.74-3.51-1.17-2.37-1-5.08-.05-7-1.08s-4,0-5.64-.87a9.88,9.88,0,0,0-5.63-.87c-5.69.29-11.37-.56-17.1.82-3.32.8-6.76,1.39-10.14,2.06-7.82,1.56-17.92,6.74-22.2,11.66a14,14,0,0,0-3.75,8.93c-.2,9.32-.14,18.65,0,28a12.15,12.15,0,0,0,1.39,5.38c3.09,5.71,8.29,9.36,14,11.79,3.46,1.48,6.94,3.82,11.09,3.36,1.49,1.8,3.87.82,5.75,1.86,1.54.85,3.78.45,5.72.61s4.18.46,6.27.51c3.49.08,7,0,10.49,0a7.08,7.08,0,0,0,2.48,0c4.26-1.72,8.89-1.61,13.3-2.78,6-1.59,16.46-6.41,20.62-10.67a16,16,0,0,0,4.88-12C318,366.67,318,362.84,318,359Zm197-61c0,4.66,0,9.32,0,14a12.81,12.81,0,0,0,2.35,7c1.8,2.79,3.76,5.49,6.63,6.88s5.06,3.38,8.19,4.36,6.39,2.2,9.66,3.18c4.88,1.48,9.92,1.86,14.91,2.52a56.53,56.53,0,0,0,7.48.06c2.17,0,4.48.49,6.47-.1,4.52-1.35,9.23-1.53,13.81-2.74,8.61-2.29,16.26-5.86,22.3-12.5A12.16,12.16,0,0,0,610,312.5q.16-14,0-28a10.32,10.32,0,0,0-1.41-5.36c-2.51-3.68-5.26-7.09-9.47-9.31-2.88-1.53-6.09-2.44-8.72-4.23-2.37-1.61-5-2-7.47-2.44-4-.78-8.08-1.66-12.13-2.06a65,65,0,0,0-16.43.07c-4.59.74-9.24,1.53-13.81,2.68-5.23,1.31-17,6.61-20.65,10.6a16.54,16.54,0,0,0-4.86,12C515,290.33,515,294.16,515,298Zm-51,31c0-4.67-.11-9.33.05-14a10.19,10.19,0,0,0-1.55-5.85,28,28,0,0,0-9.42-9.34c-3.26-1.87-6.87-2.83-10-4.81-1.05-.66-2.45-.73-3.51-1.17-2.37-1-5-.15-7-1.09-1.49-.68-2.8-.5-4.18-.77-1.54-.29-3.08-1-4.58-.93-6,.38-12-.74-18.11.76-3.61.9-7.43,1.28-11.12,2.16-8.79,2.09-16.67,5.78-22.67,12.74a11.9,11.9,0,0,0-2.82,7.79c-.07,9.32-.08,18.65,0,28a10.2,10.2,0,0,0,1.06,5A30.09,30.09,0,0,0,385.29,360a78.11,78.11,0,0,0,10.54,3.54,131.2,131.2,0,0,0,14.93,2.45,70.51,70.51,0,0,0,8.48.06c1.83,0,3.8.44,5.47-.08,4.51-1.43,9.24-1.53,13.81-2.74,6-1.58,16.4-6.35,20.62-10.68a16,16,0,0,0,4.87-12C464,336.66,464,332.83,464,329ZM171,388.76c0-4.5,0-9,0-13.49a12.14,12.14,0,0,0-.7-3.68c-1.64-5-5-8.3-9.23-11.12-3.53-2.34-7.45-3.73-11.24-5.45-1-.45-2.06-.66-3.07-1-2.3-.82-5-.38-7-1.24-2.28-1-4.6.08-6.54-1.09-2.19-1.32-4.5-.64-6.72-.6-4.69.09-9.36-.38-14.11.76-3.47.83-7.09,1.33-10.62,2.14-8.11,1.85-15.4,5.14-21.39,11.1A14.42,14.42,0,0,0,76,375.76c0,8.15.15,16.32-.07,24.47a16.47,16.47,0,0,0,4.82,12c4.6,5,10.67,7.56,16.92,9.75,1.9.67,3.78,1.38,5.72,1.87a34.53,34.53,0,0,0,6,1.09,59.4,59.4,0,0,1,6.1.91A42.68,42.68,0,0,0,125,426c3-.15,6.21.81,9.08-1,4.08.48,7.8-1.11,11.66-2a42.33,42.33,0,0,0,20.54-10.73A15.09,15.09,0,0,0,171,400.74C171,396.75,171,392.75,171,388.76Z" transform="translate(68.9 -178.79)"/><path class="cls-3" d="M92.84,604.64-65.84,446V304.36L92.84,463Z" transform="translate(68.9 -178.79)"/><path class="cls-2" d="M438,199.24c3.36-2.33,5.49-5.44,8.65-7.67,3.82-2.69,8.17-3.76,12.29-5.39,2.2-.88,4.85-1.13,7.22-1.88s4.89.48,6.95-1.3H489.6c3.11,2.07,6.79.74,10.21,1.81,5.47,1.72,15.11,5,19.59,8.21a16.9,16.9,0,0,1,6.46,9.72c.85,3.45-.61,7-2.88,9.69-3.51,4.23-8.45,6.42-13.38,8.61-3.85,1.71-8,2.27-11.92,3.76a5.6,5.6,0,0,1-1.42.2c-6.5.71-13,1.45-19.56,1-10.24-.73-20.07-2.87-29.2-7.89-4.6-2.53-8.3-5.47-9.83-10.8-.61-2.13-1.34-3.89.28-5.83C438.28,201.07,438,200.17,438,199.24Z" transform="translate(68.9 -178.79)"/><path class="cls-2" d="M292,229.4c3.19-2.61,5.59-6,9.15-8.18,3.88-2.43,8.13-3.79,12.37-5.12,2.2-.68,4.54-1,6.73-1.87s4.32.18,6.58-1c1.67-.91,4.23-.18,6.39-.18,3.17,0,6.37-.33,9.48.07,6.51.83,13,1.9,19.18,4.31,3.76,1.47,7.47,2.9,10.71,5.55s6.57,6.12,7.24,9.46c.77,3.79-.57,7.25-2.92,10.13-3.39,4.13-8.21,6.31-13,8.44-2,.89-4.12,1.3-6.14,2.06s-4.34.59-6.22,1.86c-.24.16-.63.09-.95.12-3.69.33-7.38.8-11.07,1s-7.33.15-11,0c-1.87-.08-3.71-.83-5.58-.9a28.55,28.55,0,0,1-5.6-1,41.28,41.28,0,0,1-5.74-1.85c-1.71-.69-3.66-.81-5.37-1.51s-3.17-2-4.88-2.68a16.54,16.54,0,0,1-8.91-8.21c-1.21-2.53-2.9-5.46-.54-8.48C292.27,231,292,230.08,292,229.4Z" transform="translate(68.9 -178.79)"/><path class="cls-2" d="M145.12,259.24c3.13-2.39,5.4-5.61,8.78-7.83,3.85-2.53,8.18-3.64,12.29-5.34,2.13-.89,4.68-.78,6.8-1.68s4.95.61,6.92-1.39c4.49,0,9-.24,13.48.05,10.24.65,20,2.91,29.2,7.86a22.65,22.65,0,0,1,9,8.18c2.31,3.81,1.44,9.92-1.75,13.6-3.43,3.95-8.14,5.91-12.58,8.24-2,1.06-4.5,1.21-6.61,2.13s-4.43.36-6.2,1.93c-.09.08-.32,0-.49,0-3.85.33-7.71.8-11.57,1s-7.79.66-11.45-.12c-4.43-.93-9-.92-13.39-2.56-4-1.49-8.36-2.41-12.11-4.5-3.35-1.88-6.76-3.73-8.91-7.52-2-3.54-3.4-6.66-1.55-10.56A4.48,4.48,0,0,0,145.12,259.24Z" transform="translate(68.9 -178.79)"/><path class="cls-2" d="M42.48,316c-2.5,0-5,.18-7.49-.05-2.2-.21-4.27-1-6.58-1.05A24.93,24.93,0,0,1,22,313.5C20,312.91,18,312,15.9,311.44c-4.11-1.08-7.7-3.25-11.2-5.48a16.18,16.18,0,0,1-6.56-9.63A8.58,8.58,0,0,1,.58,288c2.43-2.38,4.64-5,7.65-6.79,3.88-2.38,8.17-3.63,12.36-5.14s9-1.47,13.24-3a3.27,3.27,0,0,1,1,0c4,0,8-.13,12,0,3.7.15,7.5.16,11,1,7.94,2,15.84,4.35,22.69,9.06a15.86,15.86,0,0,1,6.27,9.32c.9,3.67-.54,7.2-2.95,10.14-3.31,4-8.07,6-12.53,8.32-2,1.06-4.47,1.26-6.61,2.11s-4.39.47-6.21,1.91c-.21.16-.65,0-1,.05l-15,1.29Z" transform="translate(68.9 -178.79)"/><path class="cls-1" d="M525.46,213.85c.36.51.53.64.53.76q0,9.48,0,18.91a55.4,55.4,0,0,1-3.61,5.53c-3.22,3.87-8,5.52-12.16,7.95-2.54-.41-4.17,1.87-6.63,2.2-2,.26-4.44.17-6.19,1.79-.09.08-.33,0-.49,0-3.86.33-7.7.8-11.57,1s-7.75.58-11.44-.1c-4.31-.8-8.79-.76-13-2.38-4-1.56-8.33-2.35-12.1-4.5s-7.44-4-9.61-8.1c-1.13-2.14-2.26-4.09-2.25-6.57,0-5.31,0-10.61,0-15.89,1-.71,1.07.38,1.51.63a5.47,5.47,0,0,1,1.07,1c2.47,2.46,7.78,5,11.54,7,4.6,2.53,9.86,2.64,14.47,4.86.13.07.33,0,.49,0,3.69.33,7.37.8,11.07,1a74.43,74.43,0,0,0,23.61-2,52.4,52.4,0,0,0,11.05-3.4C516.78,221.17,521.84,218.67,525.46,213.85Z" transform="translate(68.9 -178.79)"/><path class="cls-1" d="M291,244.08c2.88,3.8,7,5.54,10.63,7.76,3.32,2.07,7.38,3.07,11.24,4.09s7.87,2.66,12.13,2.07c2.69,1.7,5.69.86,8.56,1a62.58,62.58,0,0,0,9,0,106.26,106.26,0,0,0,12.14-2,51.38,51.38,0,0,0,11.07-3.36c4.5-2.18,9.14-4.37,12.52-8.35.38-.45.83-.84,1.24-1.25.27.3.48.43.48.55q0,9.48,0,19a57.11,57.11,0,0,1-3.56,5.48c-3.19,3.91-7.88,5.67-12.17,7.93-2,1.06-4.47,1.23-6.6,2.12s-4.41.39-6.19,1.94c-.09.08-.32,0-.48,0-3.86.33-7.71.8-11.57,1s-7.78.65-11.44-.11c-4.58-1-9.3-.92-13.82-2.7-4.29-1.69-8.69-3-12.89-5a22.2,22.2,0,0,1-8.91-8.31,7.93,7.93,0,0,1-1.31-3.92C290.92,256,291,250,291,244.08Z" transform="translate(68.9 -178.79)"/><path class="cls-1" d="M144,274.33c3,3.51,7,5.7,10.78,7.47a73.19,73.19,0,0,0,12.15,4.46c4.42,1.17,9,1,13.31,2.7a7.32,7.32,0,0,0,2.48,0c3.33,0,6.66,0,10,0a66.39,66.39,0,0,0,15.6-2.17,47.06,47.06,0,0,0,11-3.57c4.82-2.46,9.62-4.91,13.11-9.21a1.25,1.25,0,0,1,.39.24.7.7,0,0,1,.22.4c0,6.15,0,12.31,0,18.92a48.28,48.28,0,0,1-4,5.83c-3.34,3.68-7.88,5.55-12.3,7.58-3.83,1.75-8,2.31-11.93,3.74a4,4,0,0,1-.9.23c-3.68.35-7.37.81-11.06,1s-7.77.62-11.45-.11c-4.59-.91-9.3-.86-13.84-2.64-4.14-1.62-8.58-2.53-12.5-4.75-3.44-1.93-6.73-3.93-8.82-7.62a13.94,13.94,0,0,1-2.09-6.11C143.84,285.28,144,279.8,144,274.33Z" transform="translate(68.9 -178.79)"/><path class="cls-1" d="M-2,303.2c3,4.25,6.58,6.31,10.12,8.28A43.47,43.47,0,0,0,19.72,316c4,.88,7.88,2.62,12.14,2,6.08,2.18,12.37.46,18.54,1,2.4-1.29,5.13-.51,7.54-1.13s4.83-1.12,7.19-1.86,5-.95,7.11-2.09c4.12-2.21,8.53-4.06,11.86-7.53.78-.82,1.47-1.72,2.9-3.39,0,7.17.33,13.29-.12,19.35-.29,3.95-3.11,6.95-6.15,9.37-3.87,3.07-14.31,7.21-19.51,8.32a105,105,0,0,1-12.66,1.87,81.75,81.75,0,0,1-13.46,0c-2.34-.19-4.68-.75-7.06-1a19.71,19.71,0,0,1-6.71-1.8c-2-1-4.45-1.28-6.61-2.12s-4.13-2-6.26-2.94a17.78,17.78,0,0,1-9-8.12,10.16,10.16,0,0,1-1.4-4.38C-2.09,315.75-2,310-2,303.2Z" transform="translate(68.9 -178.79)"/><path d="M318,359c0,3.82,0,7.65,0,11.48a16,16,0,0,1-4.88,12c-4.16,4.26-14.59,9.08-20.62,10.67-4.41,1.17-9,1.06-13.3,2.78a7.08,7.08,0,0,1-2.48,0c-3.5,0-7,.06-10.49,0-2.09-.05-4.18-.34-6.27-.51s-4.18.24-5.72-.61c-1.88-1-4.26-.06-5.75-1.86-4.15.46-7.63-1.88-11.09-3.36-5.67-2.43-10.87-6.08-14-11.79a12.15,12.15,0,0,1-1.39-5.38c-.13-9.32-.19-18.65,0-28a14,14,0,0,1,3.75-8.93c4.28-4.92,14.38-10.1,22.2-11.66,3.38-.67,6.82-1.26,10.14-2.06,5.73-1.38,11.41-.53,17.1-.82a9.88,9.88,0,0,1,5.63.87c1.6.88,3.62-.21,5.64.87s4.65.12,7,1.08c1.06.43,2.46.52,3.51,1.17,3.16,2,6.77,3,10,4.82a27.79,27.79,0,0,1,9.42,9.34,10.26,10.26,0,0,1,1.54,5.85C317.89,349.69,318,354.35,318,359Zm-92-18.69c0,.72.11,1.1,0,1.37-1.86,3.9-.47,7,1.55,10.56,2.15,3.79,5.56,5.64,8.92,7.52,3.74,2.09,8.08,3,12.1,4.5,4.4,1.64,9,1.66,13.39,2.56,3.84.78,8,.29,11.95.12s8.05-.63,12.08-1c.16,0,.39.07.49,0,1.77-1.57,4.18-1.06,6.19-1.93s4.59-1.07,6.61-2.13c4.44-2.33,9.22-4.23,12.56-8.26,2.45-2.95,3.88-6.53,3-10.13a16.08,16.08,0,0,0-5.86-9c-5.63-4.3-12.28-6.79-19-8.33s-13.58-2.87-20.61-2.24c-2.81.25-6-.74-8.39.26s-4.74.21-7,1.17-4.67.79-6.8,1.68c-4.11,1.71-8.44,2.81-12.3,5.34C231.52,334.64,229.25,337.85,226,340.33ZM315,354c-1.43,1.68-2.12,2.58-2.9,3.4-3.33,3.47-7.74,5.32-11.86,7.53-2.13,1.14-4.74,1.36-7.11,2.09s-4.8,1.23-7.19,1.86-5,.45-7.57,1c-3.19.65-6.62.28-9.94.13s-6.54.86-9.57-1c-4.26.58-8.17-1.05-12.13-2.08a43.49,43.49,0,0,1-11.22-4.13c-3.61-2.14-7.52-4.12-10.51-8.69,0,6.86-.09,12.65.07,18.42a10.28,10.28,0,0,0,1.39,4.38,17.84,17.84,0,0,0,9,8.12c2.13.89,4.12,2.11,6.26,2.94s4.57,1.09,6.61,2.12a19.71,19.71,0,0,0,6.71,1.8c2.38.27,4.72.8,7.06,1a88.52,88.52,0,0,0,12,.06c3.86-.16,7.71-.63,11.56-1a2.73,2.73,0,0,0,1-.11c3.59-1.86,7.7-2.05,11.44-3.71a72.65,72.65,0,0,0,10.67-5.51c3.11-2,5.79-5.18,6.14-8.82C315.43,367.64,315,361.33,315,354Z" transform="translate(68.9 -178.79)"/><path d="M515,298c0-3.83,0-7.66,0-11.49a16.54,16.54,0,0,1,4.86-12c3.67-4,15.42-9.29,20.65-10.6,4.57-1.15,9.22-1.94,13.81-2.68a65,65,0,0,1,16.43-.07c4,.4,8.12,1.28,12.13,2.06,2.43.47,5.1.83,7.47,2.44,2.63,1.79,5.84,2.7,8.72,4.23,4.21,2.22,7,5.63,9.47,9.31a10.32,10.32,0,0,1,1.41,5.36q.19,14,0,28a12.16,12.16,0,0,1-3.15,8.16c-6,6.64-13.69,10.21-22.3,12.5-4.58,1.21-9.29,1.39-13.81,2.74-2,.59-4.3.1-6.47.1a56.53,56.53,0,0,1-7.48-.06c-5-.66-10-1-14.91-2.52-3.27-1-6.46-2.18-9.66-3.18s-5.42-3-8.19-4.36-4.83-4.09-6.63-6.88a12.81,12.81,0,0,1-2.35-7C515,307.31,515,302.65,515,298Zm4-17.62c0,.83.27,1.71-.05,2.12-1.57,1.95-.85,3.69-.24,5.83,1.53,5.34,5.27,8.21,9.83,10.8,8.33,4.74,17.44,6.61,26.72,7.79a61.79,61.79,0,0,0,13,0,90.66,90.66,0,0,0,12.18-1.82A62.17,62.17,0,0,0,596.86,299c2.68-1.47,5.37-3.06,7.15-5.58,2.11-3,3.82-6.34,2.7-10.12a16.49,16.49,0,0,0-5.61-8.63c-5.76-4.39-12.56-6.63-19.4-8.6A66.67,66.67,0,0,0,571,264.18c-5.58-.66-11.3-.18-17-.18-2,1.81-4.67.56-6.94,1.31s-4.62.9-6.78,1.74c-4.15,1.61-8.46,2.78-12.32,5.26C524.64,274.49,522.32,277.66,519,280.37Zm-1,13.78c0,6.79-.09,12.57.06,18.35a9.8,9.8,0,0,0,1.39,4.38,18,18,0,0,0,9,8.15c2.14.85,4.12,2.1,6.27,2.93s4.56,1.1,6.6,2.12a20.42,20.42,0,0,0,6.71,1.8c2.38.29,4.73.81,7.07,1a78.46,78.46,0,0,0,13.45,0A103.23,103.23,0,0,0,581.2,331c5.22-1.11,15.54-5.22,19.51-8.29,3-2.29,5.77-5.25,6.12-8.88.61-6.21.17-12.52.17-19.37-1.29,1.29-2.09,2.07-2.87,2.88-3.36,3.45-7.75,5.32-11.86,7.54-2.13,1.14-4.73,1.4-7.11,2.08s-4.8,1.28-7.19,1.87-5.14-.17-7.54,1.13c-6.17-.54-12.46,1.18-18.55-1-4.25.58-8.13-1.15-12.14-2a43.15,43.15,0,0,1-11.59-4.48C524.61,300.51,521,298.48,518,294.15Z" transform="translate(68.9 -178.79)"/><path d="M464,329c0,3.82,0,7.65,0,11.48a16,16,0,0,1-4.87,12c-4.22,4.33-14.65,9.1-20.62,10.68-4.57,1.21-9.3,1.31-13.81,2.74-1.67.52-3.64.08-5.47.08a70.51,70.51,0,0,1-8.48-.06,131.2,131.2,0,0,1-14.93-2.45A78.11,78.11,0,0,1,385.29,360a30.09,30.09,0,0,1-15.18-12.45,10.2,10.2,0,0,1-1.06-5c-.1-9.32-.09-18.65,0-28a11.9,11.9,0,0,1,2.82-7.79c6-7,13.88-10.65,22.67-12.74,3.69-.88,7.51-1.26,11.12-2.16,6.08-1.5,12.09-.38,18.11-.76,1.5-.09,3,.64,4.58.93,1.38.27,2.69.09,4.18.77,2.05.94,4.66.12,7,1.09,1.06.44,2.46.51,3.51,1.17,3.16,2,6.77,2.94,10,4.81a28,28,0,0,1,9.42,9.34,10.19,10.19,0,0,1,1.55,5.85C463.89,319.68,464,324.34,464,329Zm-90.89-18.75a4.56,4.56,0,0,1-.13,1.48c-1.88,3.91-.4,7,1.57,10.55,2.14,3.82,5.6,5.6,8.92,7.51,3.72,2.13,8.1,3,12.12,4.49,4.39,1.65,9,1.64,13.39,2.56,3.67.75,7.63.28,11.45.11s7.72-.63,11.57-1c.17,0,.4.07.49,0,1.78-1.54,4.18-1.1,6.2-1.94s4.59-1.06,6.61-2.12c4.44-2.33,9.21-4.26,12.55-8.29,2.43-2.95,4-6.59,2.94-10.11a16.51,16.51,0,0,0-7-9.65c-5.59-3.52-11.26-5.88-20.71-8A77.56,77.56,0,0,0,414.36,294c-2.16.05-4.75-.73-6.39.19-2.35,1.31-4.74.26-7,1.23-2.11.92-4.68.77-6.8,1.66-4.11,1.73-8.45,2.81-12.29,5.37C378.51,304.68,376.22,307.88,373.11,310.26ZM372,324.11c0,6.81-.09,12.59.06,18.36a9.79,9.79,0,0,0,1.38,4.39,20.81,20.81,0,0,0,8.93,8.23c4.16,2.16,8.59,3.4,12.89,5.07,4.53,1.77,9.23,1.85,13.82,2.67,4.35.78,9,.47,13.43.08a102.76,102.76,0,0,0,12.66-1.86c5.2-1.11,15.54-5.17,19.52-8.3,3.05-2.4,5.88-5.41,6.19-9.35.46-6.06.12-12.19.12-18.38-2.53,2-4.7,3.87-7.06,5.48a45.82,45.82,0,0,1-7.23,4.2,55,55,0,0,1-7.53,2.29c-2.54.71-5.09,1.79-7.66,1.89-2.76.1-5.41,1.13-8.06,1-5.85-.24-11.81,1.21-17.55-.91-4.26.58-8.14-1.13-12.14-2a43.72,43.72,0,0,1-11.61-4.47C378.63,330.52,374.94,328.5,372,324.11Z" transform="translate(68.9 -178.79)"/><path d="M171,388.76c0,4,0,8,0,12a15.09,15.09,0,0,1-4.74,11.55A42.33,42.33,0,0,1,145.73,423c-3.86.87-7.58,2.46-11.66,2-2.87,1.78-6,.82-9.08,1a42.68,42.68,0,0,1-9.46-.11,59.4,59.4,0,0,0-6.1-.91,34.53,34.53,0,0,1-6-1.09c-1.94-.49-3.82-1.2-5.72-1.87-6.25-2.19-12.32-4.72-16.92-9.75a16.47,16.47,0,0,1-4.82-12c.22-8.15,0-16.32.07-24.47a14.42,14.42,0,0,1,4.37-10.69c6-6,13.28-9.25,21.39-11.1,3.53-.81,7.15-1.31,10.62-2.14,4.75-1.14,9.42-.67,14.11-.76,2.22,0,4.53-.72,6.72.6,1.94,1.17,4.26.09,6.54,1.09,2,.86,4.68.42,7,1.24,1,.36,2.09.57,3.07,1,3.79,1.72,7.71,3.11,11.24,5.45,4.23,2.82,7.59,6.08,9.23,11.12a12.14,12.14,0,0,1,.7,3.68C171,379.77,171,384.26,171,388.76ZM124.65,354c-3.87,0-7.14-.74-9.79.22-2.27.84-4.48.2-6.57,1s-4.53,1.15-6.72,1.87c-4.23,1.38-8.51,2.66-12.38,5.1-2.83,1.79-4.85,4.32-7.33,6.4-1.87,1.57-2.18,3.79-2.81,5.84-.7,2.29.47,4.49,1.4,6.37,1.87,3.78,5.08,6.28,8.88,8.28,4.16,2.19,8.61,3.38,12.9,5.07,4.69,1.85,9.57,1.79,14.32,2.72,3.53.68,7.31.26,11,.09s7.39-.63,11.08-1c.32,0,.74.08,1-.08,1.85-1.36,4.19-1.09,6.21-1.89s4.18-1.19,6.14-2.06c4.76-2.12,9.52-4.32,13-8.4a11.62,11.62,0,0,0,3-9.67,15.76,15.76,0,0,0-6.37-9.77,49.29,49.29,0,0,0-8.56-4.62c-3.07-1.41-6.55-1.8-9.53-3.51C136.82,355.81,130.49,353.06,124.65,354ZM79,383.86c0,7-.09,12.82.06,18.59a10,10,0,0,0,1.36,4.4,21.23,21.23,0,0,0,8.94,8.22,67.53,67.53,0,0,0,29.16,7.84,84.44,84.44,0,0,0,17.08-.71,74.9,74.9,0,0,0,12-2.57,47.31,47.31,0,0,0,13.7-6.63c3.28-2.45,6.22-5.52,6.58-9.58.54-6.05.14-12.2.14-19.11-4.14,5.25-9.27,7.83-14.3,10.32-3.42,1.69-7.32,2.47-11.09,3.32-4,.89-8.09,1.94-12.13,1.92-5.84,0-11.81,1.29-17.55-.87-4.26.58-8.18-1-12.13-2.07s-7.88-2.08-11.24-4.1C86,390.66,81.94,388.77,79,383.86Z" transform="translate(68.9 -178.79)"/><path class="cls-2" d="M226,340.33c3.25-2.48,5.52-5.69,8.89-7.92,3.86-2.53,8.19-3.63,12.3-5.34,2.13-.89,4.68-.78,6.8-1.68s4.62-.18,7-1.17,5.58,0,8.39-.26c7-.63,13.93.7,20.61,2.24s13.35,4,19,8.33a16.08,16.08,0,0,1,5.86,9c.86,3.6-.57,7.18-3,10.13-3.34,4-8.12,5.93-12.56,8.26-2,1.06-4.49,1.21-6.61,2.13s-4.42.36-6.19,1.93c-.1.08-.33,0-.49,0-4,.33-8.05.8-12.08,1s-8.11.66-11.95-.12c-4.43-.9-9-.92-13.39-2.56-4-1.49-8.36-2.41-12.1-4.5-3.36-1.88-6.77-3.73-8.92-7.52-2-3.54-3.41-6.66-1.55-10.56C226.11,341.43,226,341.05,226,340.33Z" transform="translate(68.9 -178.79)"/><path class="cls-1" d="M315,354c0,7.34.43,13.65-.16,19.86-.35,3.64-3,6.78-6.14,8.82A72.65,72.65,0,0,1,298,388.18c-3.74,1.66-7.85,1.85-11.44,3.71a2.73,2.73,0,0,1-1,.11c-3.85.33-7.7.8-11.56,1a88.52,88.52,0,0,1-12-.06c-2.34-.22-4.68-.75-7.06-1a19.71,19.71,0,0,1-6.71-1.8c-2-1-4.45-1.28-6.61-2.12s-4.13-2-6.26-2.94a17.84,17.84,0,0,1-9-8.12,10.28,10.28,0,0,1-1.39-4.38c-.16-5.77-.07-11.56-.07-18.42,3,4.57,6.9,6.55,10.51,8.69a43.49,43.49,0,0,0,11.22,4.13c4,1,7.87,2.66,12.13,2.08,3,1.83,6.37.82,9.57,1s6.75.52,9.94-.13c2.56-.52,5.16-.35,7.57-1s4.83-1.12,7.19-1.86,5-.95,7.11-2.09c4.12-2.21,8.53-4.06,11.86-7.53C312.88,356.57,313.57,355.67,315,354Z" transform="translate(68.9 -178.79)"/><path class="cls-2" d="M519,280.37c3.34-2.71,5.66-5.88,9.06-8.06,3.86-2.48,8.17-3.65,12.32-5.26,2.16-.84,4.57-1,6.78-1.74s4.9.5,6.94-1.31c5.66,0,11.38-.48,17,.18a66.67,66.67,0,0,1,10.66,1.88c6.84,2,13.64,4.21,19.4,8.6a16.49,16.49,0,0,1,5.61,8.63c1.12,3.78-.59,7.14-2.7,10.12-1.78,2.52-4.47,4.11-7.15,5.58a62.17,62.17,0,0,1-16.47,6.11,90.66,90.66,0,0,1-12.18,1.82,61.79,61.79,0,0,1-13,0c-9.28-1.18-18.39-3.05-26.72-7.79-4.56-2.59-8.3-5.46-9.83-10.8-.61-2.14-1.33-3.88.24-5.83C519.25,282.08,519,281.2,519,280.37Z" transform="translate(68.9 -178.79)"/><path class="cls-1" d="M518,294.15c3,4.33,6.61,6.36,10.15,8.34A43.15,43.15,0,0,0,539.74,307c4,.88,7.89,2.61,12.14,2,6.09,2.18,12.38.46,18.55,1,2.4-1.3,5.12-.53,7.54-1.13s4.81-1.19,7.19-1.87,5-.94,7.11-2.08c4.11-2.22,8.5-4.09,11.86-7.54.78-.81,1.58-1.59,2.87-2.88,0,6.85.44,13.16-.17,19.37-.35,3.63-3.15,6.59-6.12,8.88-4,3.07-14.29,7.18-19.51,8.29a103.23,103.23,0,0,1-12.67,1.87,78.46,78.46,0,0,1-13.45,0c-2.34-.2-4.69-.72-7.07-1a20.42,20.42,0,0,1-6.71-1.8c-2-1-4.45-1.28-6.6-2.12s-4.13-2.08-6.27-2.93a18,18,0,0,1-9-8.15,9.8,9.8,0,0,1-1.39-4.38C517.91,306.72,518,300.94,518,294.15Z" transform="translate(68.9 -178.79)"/><path class="cls-2" d="M373.11,310.26c3.11-2.38,5.4-5.58,8.76-7.82,3.84-2.56,8.18-3.64,12.29-5.37,2.12-.89,4.69-.74,6.8-1.66,2.27-1,4.66.08,7-1.23,1.64-.92,4.23-.14,6.39-.19A77.56,77.56,0,0,1,433,295.87c9.45,2.13,15.12,4.49,20.71,8a16.51,16.51,0,0,1,7,9.65c1.07,3.52-.51,7.16-2.94,10.11-3.34,4-8.11,6-12.55,8.29-2,1.06-4.48,1.23-6.61,2.12s-4.42.4-6.2,1.94c-.09.08-.32,0-.49,0-3.85.33-7.71.8-11.57,1s-7.78.64-11.45-.11c-4.44-.92-9-.91-13.39-2.56-4-1.52-8.4-2.36-12.12-4.49-3.32-1.91-6.78-3.69-8.92-7.51-2-3.54-3.45-6.64-1.57-10.55A4.56,4.56,0,0,0,373.11,310.26Z" transform="translate(68.9 -178.79)"/><path class="cls-1" d="M372,324.11c2.94,4.39,6.63,6.41,10.16,8.39A43.72,43.72,0,0,0,393.77,337c4,.9,7.88,2.61,12.14,2,5.74,2.12,11.7.67,17.55.91,2.65.1,5.3-.93,8.06-1,2.57-.1,5.12-1.18,7.66-1.89a55,55,0,0,0,7.53-2.29,45.82,45.82,0,0,0,7.23-4.2c2.36-1.61,4.53-3.49,7.06-5.48,0,6.19.34,12.32-.12,18.38-.31,3.94-3.14,7-6.19,9.35-4,3.13-14.32,7.19-19.52,8.3a102.76,102.76,0,0,1-12.66,1.86c-4.46.39-9.08.7-13.43-.08-4.59-.82-9.29-.9-13.82-2.67-4.3-1.67-8.73-2.91-12.89-5.07a20.81,20.81,0,0,1-8.93-8.23,9.79,9.79,0,0,1-1.38-4.39C371.91,336.7,372,330.92,372,324.11Z" transform="translate(68.9 -178.79)"/><path class="cls-2" d="M124.65,354c5.84-.94,12.17,1.81,18.77,2,3,1.71,6.46,2.1,9.53,3.51a49.29,49.29,0,0,1,8.56,4.62,15.76,15.76,0,0,1,6.37,9.77,11.62,11.62,0,0,1-3,9.67c-3.47,4.08-8.23,6.28-13,8.4-2,.87-4.13,1.26-6.14,2.06s-4.36.53-6.21,1.89c-.22.16-.64.05-1,.08-3.69.33-7.38.8-11.08,1s-7.43.59-11-.09c-4.75-.93-9.63-.87-14.32-2.72-4.29-1.69-8.74-2.88-12.9-5.07-3.8-2-7-4.5-8.88-8.28-.93-1.88-2.1-4.08-1.4-6.37.63-2.05.94-4.27,2.81-5.84,2.48-2.08,4.5-4.61,7.33-6.4,3.87-2.44,8.15-3.72,12.38-5.1,2.19-.72,4.53-1,6.72-1.87s4.3-.16,6.57-1C117.51,353.26,120.78,354,124.65,354Z" transform="translate(68.9 -178.79)"/><path class="cls-1" d="M79,383.86c2.94,4.91,7,6.8,10.56,9,3.36,2,7.39,3.07,11.24,4.1s7.87,2.65,12.13,2.07c5.74,2.16,11.71.83,17.55.87,4,0,8.14-1,12.13-1.92,3.77-.85,7.67-1.63,11.09-3.32,5-2.49,10.16-5.07,14.3-10.32,0,6.91.4,13.06-.14,19.11-.36,4.06-3.3,7.13-6.58,9.58a47.31,47.31,0,0,1-13.7,6.63,74.9,74.9,0,0,1-12,2.57,84.44,84.44,0,0,1-17.08.71,67.53,67.53,0,0,1-29.16-7.84,21.23,21.23,0,0,1-8.94-8.22,10,10,0,0,1-1.36-4.4C78.91,396.68,79,390.9,79,383.86Z" transform="translate(68.9 -178.79)"/></svg>