<svg xmlns="http://www.w3.org/2000/svg" width="260" height="117.354" viewBox="0 0 260 117.354">
  <g id="Grupo_4" data-name="Grupo 4" transform="translate(-591.429 -366.833)">
    <g id="Grupo_2" data-name="Grupo 2" transform="translate(591.429 366.833)">
      <g id="Grupo_1" data-name="Grupo 1" transform="translate(0)">
        <path id="Caminho_1" data-name="Caminho 1" d="M602.654,390.884a5.245,5.245,0,0,1,1.37-1.874,3.991,3.991,0,0,1,1.607-.825,6.652,6.652,0,0,1,1.391-.2,7.65,7.65,0,0,1,1.757.236,4.369,4.369,0,0,1,1.734.868,5.226,5.226,0,0,1,1.371,1.873,8.106,8.106,0,0,1,.579,3.366,5.114,5.114,0,0,0,1.557,3.815,5.455,5.455,0,0,0,7.532,0,5.118,5.118,0,0,0,1.557-3.815,18.473,18.473,0,0,0-1.431-7.554,16.15,16.15,0,0,0-3.707-5.3,14.733,14.733,0,0,0-5.191-3.122,16.356,16.356,0,0,0-11.4.046,15.293,15.293,0,0,0-4.811,3,19.474,19.474,0,0,0-3.442,4.738,17.129,17.129,0,0,0-1.692,8.2v43.032a17.465,17.465,0,0,0,.378,3.363,19.366,19.366,0,0,0,1.3,3.984,14.7,14.7,0,0,0,2.614,3.965,15.959,15.959,0,0,0,4.17,3.123,14.919,14.919,0,0,0,7.215,1.528A15.424,15.424,0,0,0,614.4,451.8a15.665,15.665,0,0,0,4.247-3.115,13.542,13.542,0,0,0,2.707-4.063,21.292,21.292,0,0,0,1.3-4.06,20.164,20.164,0,0,0,.418-3.27q.041-1.366.041-1.614l0-.046a5.848,5.848,0,0,0-2.584-4.38,4.931,4.931,0,0,0-3.164-.732,4.8,4.8,0,0,0-2.992,1,5.438,5.438,0,0,0-1.458,1.906,4.842,4.842,0,0,0-.443,1.923v.9a17.084,17.084,0,0,1-.282,2.482,4.866,4.866,0,0,1-1.365,2.7,3.988,3.988,0,0,1-.969.769,5.29,5.29,0,0,1-2.743.47,5.061,5.061,0,0,1-2.58-.471,6.861,6.861,0,0,1-1-.729,3.61,3.61,0,0,1-.814-1.3,9.709,9.709,0,0,1-.474-1.659,7.957,7.957,0,0,1-.158-1.487v-42.7A8.347,8.347,0,0,1,602.654,390.884Zm106.138,22.608c-2.261-1.9-4.511-3.724-6.681-5.4-1.911-1.463-3.63-2.823-5.107-4.044a27.3,27.3,0,0,1-4-3.984,17.333,17.333,0,0,1-2.614-4.5,14.913,14.913,0,0,1-.978-5.466v-.508c0-.326.021-.775.065-1.367a17.422,17.422,0,0,1,.334-2.268,18.622,18.622,0,0,1,.733-2.6,8.069,8.069,0,0,1,1.677-2.767,12.518,12.518,0,0,1,1.888-1.537c1.182-.85,2.928-1.245,5.5-1.245,3.324,0,5.594.884,6.917,2.672a8.436,8.436,0,0,1,1.27,2.392,15.346,15.346,0,0,1,.62,2.387,13.533,13.533,0,0,1,.21,2.3,9.542,9.542,0,0,1-.123,1.652c-.009.264-.027.684-.057,1.263a5.9,5.9,0,0,0,.271,1.863,4.778,4.778,0,0,0,1.152,1.907,5.16,5.16,0,0,0,2.776,1.251l.069.015a6.919,6.919,0,0,0,1.561.205,2.616,2.616,0,0,0,1.35-.3,5.836,5.836,0,0,0,1.905-1.764,6.863,6.863,0,0,0,1.043-2.882l.025-.162.026-.088c.02-.125.08-.575.161-1.943a24.08,24.08,0,0,0-.22-4.338,28.392,28.392,0,0,0-1.363-5.516,19.852,19.852,0,0,0-3-5.515,21.835,21.835,0,0,0-5.295-4.3c-2.234-1.373-5.364-2.07-9.3-2.07a18.958,18.958,0,0,0-9.415,2.038,19.926,19.926,0,0,0-5.486,4.285,18.518,18.518,0,0,0-3.216,5,27.01,27.01,0,0,0-2.173,9.47q-.059,1.984-.057,2.725a25.839,25.839,0,0,0,1.45,8.811,30.339,30.339,0,0,0,4.31,7.846,38.361,38.361,0,0,0,5.272,5.333c1.962,1.622,3.972,3.2,6,4.721,2.225,1.719,4.242,3.339,6,4.813a29.548,29.548,0,0,1,4.8,5.054,21.093,21.093,0,0,1,3.079,6.022,24.875,24.875,0,0,1,1.048,7.555c0,4.179-1.175,7.41-3.543,9.649a10.4,10.4,0,0,1-3.809,2.109,14.96,14.96,0,0,1-4.484.657,12.208,12.208,0,0,1-5.732-1.166,8.9,8.9,0,0,1-3.541-3.21,11.268,11.268,0,0,1-1.536-4.185,25.283,25.283,0,0,1-.322-3.982,5.6,5.6,0,0,0-1.439-3.912,4.919,4.919,0,0,0-7.238.021,5.471,5.471,0,0,0-1.479,3.89,31.426,31.426,0,0,0,.65,6.741,25.306,25.306,0,0,0,1.668,5.132,20.407,20.407,0,0,0,2.227,3.792A18.169,18.169,0,0,0,685,458.668l.06.055a17.466,17.466,0,0,0,6.347,3.886,24.108,24.108,0,0,0,7.969,1.292,21.774,21.774,0,0,0,14.714-5.222,22.894,22.894,0,0,0,2.583-2.795,18.748,18.748,0,0,0,2.26-3.757,28.532,28.532,0,0,0,1.737-5.117,27.556,27.556,0,0,0,.7-6.5,33.965,33.965,0,0,0-6.473-20.6A41.766,41.766,0,0,0,708.791,413.492Zm59.225-46.5a5.467,5.467,0,0,0-5.5,5.5v67.726a32.338,32.338,0,0,1-.4,4.117,10.4,10.4,0,0,1-2.713,5.731l-.054.055a11.358,11.358,0,0,1-2.1,1.51c-1.261.783-3.093,1.148-5.766,1.148a9.817,9.817,0,0,1-5.357-1.17,12.044,12.044,0,0,1-2-1.487,8.31,8.31,0,0,1-1.886-2.975,18.391,18.391,0,0,1-.862-2.946,14.393,14.393,0,0,1-.3-2.838v-69a5.5,5.5,0,1,0-11,0v69.443a24.292,24.292,0,0,0,.531,4.667,29.774,29.774,0,0,0,1.783,5.634,18.884,18.884,0,0,0,3.5,5.382,22.091,22.091,0,0,0,5.738,4.261c2.421,1.342,5.732,2.021,9.84,2.021a21.211,21.211,0,0,0,9.99-2.034,21.662,21.662,0,0,0,5.888-4.3,18.648,18.648,0,0,0,3.542-5.189,30.418,30.418,0,0,0,1.9-5.46,23.1,23.1,0,0,0,.645-4.412q.061-2.054.063-2.8v-67.09a5.466,5.466,0,0,0-5.5-5.5ZM804.458,447.8H795.2V377.281a5.392,5.392,0,1,0-10.785,0v75.912a5.366,5.366,0,0,0,5.393,5.392h14.646a5.118,5.118,0,0,0,3.864-1.56,5.569,5.569,0,0,0,0-7.664A5.116,5.116,0,0,0,804.458,447.8Zm46.883-31.771c0-6.9.1-13.808-.027-20.708-.191-10.133-7.607-17.809-16.952-17.749-8.866.057-16.073,7.9-16.144,17.851-.1,13.654-.15,27.311.033,40.962.073,5.47,1.861,10.431,6.054,13.916,5.4,4.486,11.417,4.855,17.436,2.074,6.461-2.985,9.221-9.06,9.54-16.322C851.573,429.394,851.343,422.707,851.341,416.031Zm-10.778,17.619a26.226,26.226,0,0,1-.143,2.951c-.468,4.089-2.388,5.74-6.463,5.614-2.978-.092-4.77-2.01-4.849-5.841-.141-6.9-.131-32.381-.122-38.221,0-1.061.008-2.127.1-3.182.3-3.45,2.264-5.544,5.224-5.631,3.385-.1,5.69,1.915,6.118,5.409a24.494,24.494,0,0,1,.135,2.952Q840.577,415.676,840.563,433.651ZM666.337,381.215a14.679,14.679,0,0,0-2.719-4.186,17.006,17.006,0,0,0-4.428-3.3,15.8,15.8,0,0,0-7.629-1.591,15.9,15.9,0,0,0-12.254,4.907,14.523,14.523,0,0,0-2.759,4.046,23.186,23.186,0,0,0-1.445,4.151,17.834,17.834,0,0,0-.494,3.4q-.045,1.518-.046,2.068V453.58a4.946,4.946,0,1,0,9.892,0V420.7H658.2v32.971a4.946,4.946,0,1,0,9.892,0V389.088a18.628,18.628,0,0,0-.405-3.587A22.556,22.556,0,0,0,666.337,381.215Zm-8.133,29.6h-13.75v-20.57a22.948,22.948,0,0,1,.284-2.868,6.714,6.714,0,0,1,1.766-3.7,7.868,7.868,0,0,1,1.348-.954,7.189,7.189,0,0,1,3.708-.7,6.407,6.407,0,0,1,3.4.7,8.138,8.138,0,0,1,1.306.963,5.134,5.134,0,0,1,1.16,1.839,12.455,12.455,0,0,1,.585,2,9.536,9.536,0,0,1,.2,1.883Z" transform="translate(-591.429 -366.833)" fill="#fff"/>
      </g>
    </g>
    <g id="Grupo_3" data-name="Grupo 3" transform="translate(633.801 474.786)">
      <path id="Caminho_2" data-name="Caminho 2" d="M711.56,673.54h5.623v.986h-4.562v2.805h4.259v.986h-4.259V681.5h4.789v.986h-5.85Z" transform="translate(-711.56 -673.313)" fill="#fff"/>
      <path id="Caminho_3" data-name="Caminho 3" d="M747.142,673.54h1.339l5.181,7.43h.025v-7.43h1.061v8.947h-1.34l-5.181-7.43H748.2v7.43h-1.061Z" transform="translate(-734.592 -673.313)" fill="#fff"/>
      <path id="Caminho_4" data-name="Caminho 4" d="M793.569,674.526h-2.957v7.961h-1.061v-7.961h-2.957v-.986h6.975Z" transform="translate(-760.128 -673.313)" fill="#fff"/>
      <path id="Caminho_5" data-name="Caminho 5" d="M824.253,673.54h2.287c1.731,0,3.564.253,3.564,2.464a2.337,2.337,0,0,1-2.237,2.364l2.54,4.119h-1.3l-2.426-4.019h-1.365v4.019h-1.061Zm1.061,3.943h.948c1.175,0,2.7,0,2.7-1.479,0-1.289-1.125-1.478-2.161-1.478h-1.491Z" transform="translate(-784.505 -673.313)" fill="#fff"/>
      <path id="Caminho_6" data-name="Caminho 6" d="M860.479,673.54H866.1v.986h-4.562v2.805H865.8v.986h-4.259V681.5h4.789v.986h-5.851Z" transform="translate(-807.953 -673.313)" fill="#fff"/>
      <path id="Caminho_7" data-name="Caminho 7" d="M900.278,674.526h-2.957v7.961H896.26v-7.961H893.3v-.986h6.975Z" transform="translate(-829.2 -673.313)" fill="#fff"/>
      <path id="Caminho_8" data-name="Caminho 8" d="M930.962,673.54h5.623v.986h-4.562v2.805h4.259v.986h-4.259V681.5h4.79v.986h-5.851Z" transform="translate(-853.576 -673.313)" fill="#fff"/>
      <path id="Caminho_9" data-name="Caminho 9" d="M966.544,673.54h1.339l5.181,7.43h.026v-7.43h1.061v8.947h-1.34l-5.181-7.43h-.026v7.43h-1.061Z" transform="translate(-876.608 -673.313)" fill="#fff"/>
      <path id="Caminho_10" data-name="Caminho 10" d="M1008.755,673.54h1.061v8.947h-1.061Z" transform="translate(-903.93 -673.313)" fill="#fff"/>
      <path id="Caminho_11" data-name="Caminho 11" d="M1032.405,673.54h1.58l3.033,7.014h.026l3.058-7.014h1.542v8.947h-1.062V674.98h-.025l-3.21,7.506h-.644l-3.21-7.506h-.025v7.506h-1.061Z" transform="translate(-919.239 -673.313)" fill="#fff"/>
      <path id="Caminho_12" data-name="Caminho 12" d="M1079.237,673.54h5.624v.986H1080.3v2.805h4.259v.986H1080.3V681.5h4.789v.986h-5.851Z" transform="translate(-949.552 -673.313)" fill="#fff"/>
      <path id="Caminho_13" data-name="Caminho 13" d="M1114.819,673.54h1.339l5.182,7.43h.025v-7.43h1.061v8.947h-1.339l-5.181-7.43h-.026v7.43h-1.062Z" transform="translate(-972.584 -673.313)" fill="#fff"/>
      <path id="Caminho_14" data-name="Caminho 14" d="M1161.248,674.526h-2.957v7.961h-1.062v-7.961h-2.957v-.986h6.976Z" transform="translate(-998.121 -673.313)" fill="#fff"/>
      <path id="Caminho_15" data-name="Caminho 15" d="M1190.462,677.6a4.676,4.676,0,1,1,4.676,4.7A4.541,4.541,0,0,1,1190.462,677.6Zm8.214,0a3.542,3.542,0,1,0-3.538,3.715A3.536,3.536,0,0,0,1198.676,677.6Z" transform="translate(-1021.547 -672.896)" fill="#fff"/>
    </g>
  </g>
</svg>
