<svg id="Layer_1" data-name="Layer 1" xmlns="http://www.w3.org/2000/svg" viewBox="0 0 600 599.87"><defs><style>.cls-1{fill:#cf1012;}.cls-2{fill:#f5eb36;}.cls-3{fill:#fefefe;}</style></defs><path d="M161.59-138.06h-5.41c-162.51,0-294.26,131.7-294.28,294.21v9C-138.07,329-5.31,461.7,158.47,461.71h10.38c161.79,0,293-131.17,293-293v-6.57C461.8-3.63,327.39-138,161.59-138.06Z" transform="translate(138.2 138.06)"/><path class="cls-1" d="M461.8,161.83v6.57c0,162-131.36,293.41-293.41,293.41h-9.24c-164.16,0-297.27-133-297.35-297.22v-9c0-162,131.36-293.41,293.41-293.41h6.69C327.42-137.79,461.65-3.7,461.8,161.83ZM312.41,291.23c.23-.34.65-.19,1-.21a62.9,62.9,0,0,0,8.46-.28,31.2,31.2,0,0,0,3.48-.29,20.68,20.68,0,0,1,2.6-.29c1.58-.19,3.12-.47,4.7-.66a7.32,7.32,0,0,0,1.09-.29c.36,0,1,.15,1.16,0,.53-.57,1.22,0,1.81-.46s1.18-.24,1.77-.4c1.32-.34,2.69-.55,4-1l4.39-1.39a65.06,65.06,0,0,0,8.82-3.41,67.38,67.38,0,0,0,8.55-4.46c1.22-.78,2.5-1.5,3.72-2.28s2.53-1.68,3.81-2.56,2.67-1.9,3.92-2.95c.68-.64,1.4-1.24,2.14-1.81a38.54,38.54,0,0,0,4.13-3.64,129.73,129.73,0,0,0,9.34-9.85c1.56-1.9,3.16-3.81,4.7-5.85s3-4,4.38-6.09,2.9-4.2,4.27-6.33c.86-1.33,1.49-2.82,2.38-4.11s1.62-2.65,2.39-4c1.18-2,2.34-4.13,3.41-6.25,2.45-4.85,5-9.67,7.1-14.74.75-1.79,1.56-3.57,2.33-5.36.51-1.2,1-2.42,1.45-3.62.64-1.65,1.25-3.33,1.9-5s1.16-2.89,1.66-4.38c.61-1.91,1.24-3.6,1.9-5.37,1-2.67,1.77-5.47,2.88-8.14.74-1.75,1.07-3.66,1.77-5.43.48-1.16.67-2.42,1.26-3.56-.17-1,.46-1.72.63-2.59a22.74,22.74,0,0,1,.86-2.65,35.54,35.54,0,0,0,1.18-4c.34-1.77.93-3.45,1.33-5.2.25-1,.5-2.08.78-3.11A44.82,44.82,0,0,0,441,144.7a21,21,0,0,0,.7-4c.65-.53.13-1.3.38-1.91a7.49,7.49,0,0,0,.52-2c.17-1.49.28-3,.59-4.44a19.64,19.64,0,0,1,.28-2.44c.29-.84,0-1.6.31-2.42s0-1.72.28-2.59a23.14,23.14,0,0,0,.31-2.59c.19-.88,0-2,.3-3s0-2.21.31-3.34.09-2.61.28-3.94c.31-2-.09-4.14.31-6.19a16.19,16.19,0,0,0,0-3.81,28.45,28.45,0,0,0-.23-3.81c-.29-1.91,0-3.82-.34-5.59-.23-1.25-.21-2.53-.33-3.81v-.26c-.44-.37-.15-.86-.24-1.28s-.21-.92-.29-1.37a13.06,13.06,0,0,0-.34-2.42c-.4-1-.56-2.08-.86-3.11s-.57-2.17-.92-3.24c-.49-1.6-1-3.2-1.56-4.78s-1.3-3.17-2.07-4.71c-.92-1.9-1.91-3.81-3-5.83a12.48,12.48,0,0,0-1.18-1.81c-1.25-1.65-2.32-3.44-3.54-5.14-1.53-2.11-3.26-4.08-5-6a48.69,48.69,0,0,0-5.13-4.82c-1.6-1.33-4.29-3.39-6-4.57a52.12,52.12,0,0,0-5.72-3.58,61.18,61.18,0,0,0-6.8-3.22c-1.22-.46-2.42-1-3.64-1.39-1.9-.71-4-1.36-6-1.91s-3.64-1-5.47-1.35c-1.2-.27-2.46-.4-3.64-.69-1.52-.34-3.12-.32-4.63-.8-.53-.17-1.29.17-1.77,0a3.19,3.19,0,0,0-1.9-.23c-.63,0-1.11-.34-1.68-.32a19.54,19.54,0,0,0-2.42,0,18.1,18.1,0,0,1-2.44-.32h-6.61a41.26,41.26,0,0,0-6.67.24c-1.47.27-3-.09-4.53.33-.9.24-1.81-.17-2.77.23s-1.81,0-2.72.36c-.55.25-1.18,0-1.91.26s-1.33,0-1.9.37c-1.43-.12-2.73.62-4.12.61-.53.49-1.22.19-1.81.36l-3,.84c-1.66.45-3.33.91-5,1.41s-3,1-4.46,1.56a86.55,86.55,0,0,0-8.27,3.47,36.36,36.36,0,0,0-3.52,1.79c-1.79,1-3.66,1.9-5.38,3.08a76.51,76.51,0,0,0-9.52,7c-2.08-1.81-4.06-3.59-6.12-5.3a18.89,18.89,0,0,0-2.13-1.54c-2.14-1.34-4.27-2.71-6.46-4A77.34,77.34,0,0,0,274,32.8a42.43,42.43,0,0,0-5.49-2c-1.9-.55-3.81-1.21-5.71-1.69l-2.71-.71c-1.6-.4-3.22-.74-4.84-1a20.38,20.38,0,0,1-2.7-.37c-.65-.22-1.34,0-1.91-.3a4.84,4.84,0,0,0-2-.25h-.46a1.63,1.63,0,0,0-1.52-.27c-.65.12-1.11-.32-1.7-.34a18.07,18.07,0,0,1-3.2-.23c-1.58-.24-3.22-.19-4.84-.3a56.83,56.83,0,0,0-7.83,0,95,95,0,0,0-10.4.32,37.35,37.35,0,0,0-3.81.29c-.82.23-1.72,0-2.59.28a25.47,25.47,0,0,0-2.75.33c-.55.23-1.2,0-1.9.28s-1.33,0-1.91.35c-1.42-.12-2.72.63-4.13.61-.5.51-1.2.21-1.79.38-1.39.4-2.8.74-4.19,1.12s-3.34.93-5,1.43c-2.31.69-4.54,1.62-6.81,2.44-2.59,1-5.06,2.11-7.62,3.24-2.11.95-4.07,2.23-6.17,3.24l-.4.26a8.58,8.58,0,0,1-1.79.9l-5.2-3.7a49.85,49.85,0,0,0-5.72-3.48c-1.9-1-3.71-1.91-5.71-2.73-1.26-.51-2.54-1-3.81-1.47A43.15,43.15,0,0,0,143.11,28c-2.12-.53-4.21-1.1-6.35-1.48-.32,0-.6-.23-.93-.29a4.82,4.82,0,0,1-1.2,0,36,36,0,0,0-5-.86c-.93-.21-1.9,0-2.89-.28a8,8,0,0,0-2.84,0,21.27,21.27,0,0,1-2.75-.33h-6.32a59.34,59.34,0,0,0-6.37.23c-2.53.35-5.12,0-7.62.35-1.9.26-3.92.22-5.88.32H94.6c-.53.55-1.22.21-1.9.3s-1.22.23-1.91.29c-1.1.13-2.21.21-3.33.32h-.29c-.59.67-1.58-.11-2.17.58a6.6,6.6,0,0,0-2.29.3,8.33,8.33,0,0,0-1.22.29c-.4.05-.91-.16-1.23.32-.92,0-1.76.51-2.61.55s-1.86.4-2.77.67a22.62,22.62,0,0,0-2.55.76c-2.21.67-4.42,1.39-6.59,2.23-1.34.52-2.69,1-4,1.66-2.33,1.16-4.67,2.3-7,3.58-1.52.84-2.95,1.91-4.42,2.74-2.11,1.34-4,3-6.06,4.6h0a20.73,20.73,0,0,0-3.54-5.72,30.12,30.12,0,0,0-6.1-5.56A25.5,25.5,0,0,0,31,31.47c-1.18-.53-2.36-1.07-3.58-1.5s-2.84-.92-4.27-1.32c-1-.28-2.05-.44-3-.68s-2.4-.42-3.59-.81a19,19,0,0,1-2.26-.3A12.93,12.93,0,0,0,12,26.57c-1.14-.21-2.32-.11-3.49-.3a34.2,34.2,0,0,0-4,0c-1.38,0-2.73-.27-4.1-.27-1.72,0-3.43.17-5.14.29a10.55,10.55,0,0,0-3.36.27c-.74.28-1.6-.12-2.46.26a9.69,9.69,0,0,1-2.4.31c-1.6.26-3.16.61-4.74.95a60.66,60.66,0,0,0-6.06,1.73,52.11,52.11,0,0,0-5,1.91c-1.62.72-2.84,1.16-4.19,1.9-.8.38-1.55.88-2.31,1.28s-2.4,1.31-3.26,1.91a25.78,25.78,0,0,0-4,2.82c-1.22.36-1.9,1.41-2.95,2.11a15.62,15.62,0,0,0-2.23,1.91,102.93,102.93,0,0,0-8.92,9.52l-2.49,2.94c-1,1.35-1.91,2.76-2.88,4.19a33.91,33.91,0,0,0-2.61,4.19,38.33,38.33,0,0,1-2.23,3.81c-1.28,2.11-2.42,4.32-3.68,6.46a10,10,0,0,1-.78,1.62A17.41,17.41,0,0,0-73,79.58c-.61,1.1-1.24,2.19-1.81,3.31-1.16,2.33-2.29,4.69-3.47,7s-2.74,5.72-3.81,7.93c-.74,1.58-1.62,3.12-2.38,4.73-1.31,2.8-2.55,5.71-3.81,8.44-.74,1.58-1.45,3.18-2.1,4.8s-1.48,3.46-2.26,5.18a16.41,16.41,0,0,0-1.13,2.4c-.55,2-1.66,3.81-2.28,5.83-.4,1.24-1.07,2.36-1.49,3.6A39.33,39.33,0,0,1-99,136.62c-1.37,2.86-2.11,5.95-3.56,8.77a21.06,21.06,0,0,1-1.24,3.69c-.34,1.3-1,2.52-1.43,3.81-.84,2.46-1.64,4.94-2.46,7.41-1.08,3.24-2.19,6.48-3.25,9.74-.31.88-.71,2.34-1,3.24-.45,1.62-1,3.22-1.41,4.86-.3,1.27-.78,2.49-1,3.81a15.72,15.72,0,0,1-.62,2.61,61.48,61.48,0,0,0-1.76,6.95c-.26,1-.46,2-.68,3s-.61,2.55-.86,3.81a10.25,10.25,0,0,0-.29,1.91c-.66.42,0,1.2-.47,1.77s0,1.16-.37,1.79-.09,1.2-.3,1.9-.11,1.2-.3,1.91-.1,1.31-.29,1.9-.15,1.53-.32,2.29a19.71,19.71,0,0,1-.29,2.44c-.29.82,0,1.7-.31,2.59a13.37,13.37,0,0,0,0,2.53c0,.82-.24,1.62-.26,2.44v8.29c0,1.35.38,2.71.34,4.08a11,11,0,0,0,.34,3.33c.21.67,0,1.36.29,1.91a15.65,15.65,0,0,1,.57,2.47c.21.82.48,2.1.78,3.13.44,1.37.8,2.78,1.32,4.13a34.73,34.73,0,0,0,2,4.9c.57,1,1,2.08,1.56,3.11a61.14,61.14,0,0,0,4.36,7.08c1.64,2.39,3.72,4.35,5.49,6.6a14.9,14.9,0,0,0,1.66,1.41c1.06.95,2.06,1.9,3.16,2.89s2.88,2.1,4.27,3.2a52.57,52.57,0,0,0,4.78,3c1.39.88,3,1.39,4.5,2.19s3.16,1.11,4.57,2.06c2.57.55,4.93,1.79,7.62,2.19a20,20,0,0,1,3.33.84c1.34.42,2.71.5,4,.84s2.86.34,4.27.63c1,.19,2,0,3.05.26a15,15,0,0,0,3.14,0c1.07,0,2.14.27,3.21.29a21.75,21.75,0,0,0,5.58-.29c3.08.18,6.15-.22,9.22-.3h.44c.55-.53,1.24-.21,1.9-.31a9.44,9.44,0,0,1,1.91-.26c1.08,0,2.09-.57,3.18-.33a21.7,21.7,0,0,1,4-.83c1.16-.27,2.36-.44,3.49-.73,1.44-.36,2.89-.78,4.34-1.1s2.88-.9,4.29-1.36,3.07-1.06,4.57-1.65c2-.78,4-1.68,6-2.58a48.37,48.37,0,0,0,4.8-2.61c1.22-.68,2.42-1.42,3.62-2.15.21-.1.43-.19.65-.27a9.11,9.11,0,0,1,1.41,1,19.39,19.39,0,0,0,2.61,1.69A36.8,36.8,0,0,0,13.42,281c2.08,1.07,4.13,2.13,6.27,3,1.75.74,3.56,1.35,5.31,2.07a28.84,28.84,0,0,0,3.81,1.17c1.17.28,2.31.68,3.49,1s2.88.55,4.29.91c1.9.52,3.81.67,5.83,1.15.57.13,1.33-.2,1.77,0a3,3,0,0,0,1.71.22c.59,0,1.15.31,1.7.29,1.9,0,3.81.23,5.72.3s3.42,0,5.12,0,3.32-.32,5-.34c2,0,4-.19,6.06-.28h.29c.53-.58,1.23-.18,1.9-.29s1.22-.23,1.91-.3a14.53,14.53,0,0,0,2.87-.35,37.14,37.14,0,0,1,4.31-.8,12.21,12.21,0,0,1,3.64-.68c.86-.56,1.9-.38,2.82-.86a7.77,7.77,0,0,1,1.52-.33c.54-.15,1-.36,1.58-.51s1-.25,1.51-.4,1-.42,1.56-.55c.88-.21,1.64-.69,2.48-.92s1.66-.64,2.49-.89a35.71,35.71,0,0,0,4.71-1.91c2.36-1.1,6.14-3.06,8.38-4.38,1.58-.93,3.15-1.9,4.65-2.9a9.54,9.54,0,0,1,1.11-.55l4.23,3c1.44,1,2.93,1.9,4.46,2.83a79.74,79.74,0,0,0,9.2,4.6c1.24.49,2.49,1,3.81,1.44s2.27.82,3.43,1.15,2.53.7,3.81,1.08,2.8.71,4.21,1.05,2.38.38,3.5.67c1.53.38,3.11.36,4.63.8.86.23,1.91-.12,2.73.34a36.24,36.24,0,0,1,5,.31h11.43a38.94,38.94,0,0,1,4.71-.31h.13c.57-.46,1.22-.23,1.91-.3s1.22-.21,1.9-.29a6.16,6.16,0,0,0,2-.27c.63-.26,1.47.17,2.12-.34a21.31,21.31,0,0,0,4-.61,9.41,9.41,0,0,0,1.9-.38c1.34-.44,2.71-.67,4.06-1.07.84-.25,1.76-.36,2.59-.66s1.78-.56,2.65-.84c1.77-.57,3.53-1.22,5.28-1.81a63.75,63.75,0,0,0,7-2.8c2.73-1.3,5.45-2.65,8.1-4.14,2.25-1.26,4.44-2.59,6.61-4a62.77,62.77,0,0,0,5.3-3.7c1.1-.84,2.21-1.67,3.28-2.55s1.9-1.43,2.81-2.27c.44-.4.94-.74,1.4-1.1.36.36.76.59.91.93a6.92,6.92,0,0,0,1.51,1.77c.53.63,1,1.32,1.6,1.91a65,65,0,0,0,5.25,4.7c1.68,1.38,3.41,2.63,5.19,3.82a59,59,0,0,0,6.82,4c1.69.84,3.37,1.68,5.12,2.39l4.84,1.9c1.11.42,2.95,1,4.1,1.37,1.56.44,3.1.94,4.72,1.24,1,.19,2,.44,3,.69s2.4.42,3.58.78c.58.17,1.22.13,1.91.3s1.31.14,1.9.27,1.62.23,2.44.34,1.72.17,2.58.27c2.15.25,4.32.29,6.49.34H312A4.16,4.16,0,0,1,312.41,291.23Z" transform="translate(138.2 138.06)"/><path class="cls-2" d="M312.41,291.23a4,4,0,0,0-.84-.21H306.9a56.2,56.2,0,0,1-6.49-.34c-.86-.1-1.72-.15-2.58-.27s-1.65-.17-2.43-.34-1.36-.11-1.91-.27-1.26-.13-1.9-.3c-1.19-.36-2.41-.5-3.59-.78s-2-.5-3-.69c-1.67-.3-3.27-.84-4.89-1.29-1.16-.33-2.31-.71-3.45-1.13-1.77-.67-3.54-1.35-5.32-2.08s-4-1.9-5.9-2.78a46.57,46.57,0,0,1-6.27-3.81c-1.7-1.18-3.35-2.38-4.95-3.69a65.43,65.43,0,0,1-5.26-4.71c-.57-.59-1.07-1.28-1.6-1.9a7.14,7.14,0,0,1-1.51-1.78c-.15-.34-.55-.57-.91-.93-.46.36-1,.7-1.39,1.1-.88.84-1.91,1.51-2.82,2.27s-1.91,1.56-3,2.33c-1.9,1.39-3.67,2.7-5.62,3.92s-4.36,2.71-6.61,4c-2.65,1.49-5.37,2.84-8.1,4.14a63.75,63.75,0,0,1-7,2.8c-1.75.59-3.5,1.24-5.28,1.81-.87.28-1.77.49-2.65.84a26.62,26.62,0,0,1-2.59.66c-1.35.4-2.72.63-4,1.07a9.5,9.5,0,0,1-1.91.38,21.31,21.31,0,0,1-4,.61c-.65.52-1.49,0-2.12.34a6.12,6.12,0,0,1-2,.27c-.61,0-1.22.23-1.9.29s-1.28-.15-1.91.3h-.13a38.94,38.94,0,0,0-4.71.31H165.8a36.14,36.14,0,0,0-5-.31c-.88-.45-1.91-.11-2.73-.34-1.52-.44-3.1-.42-4.63-.8-1.12-.29-2.34-.38-3.5-.67-1.49-.36-3-.65-4.5-1.12-1.14-.38-2.32-.67-3.5-1s-2.29-.76-3.43-1.14-2.54-1-3.81-1.45a78,78,0,0,1-13.05-7l-4.84-3.38a9.61,9.61,0,0,0-1.11.56c-1.48,1-3,1.9-4.53,2.83a63.46,63.46,0,0,1-6.27,3.42A62,62,0,0,1,98,283.82c-.83.25-1.62.67-2.49.9s-1.6.7-2.48.91c-.53.13-1,.4-1.56.55s-1,.25-1.51.4-1,.37-1.58.52a7.09,7.09,0,0,0-1.52.32c-.9.48-1.91.31-2.82.86a12.87,12.87,0,0,0-3.64.68,39.38,39.38,0,0,0-4.31.8,13.9,13.9,0,0,1-2.87.35,13,13,0,0,0-1.91.3c-.68.12-1.31-.28-1.9.29h-.29c-2,.09-4,.25-6.06.28-1.67,0-3.29.44-5,.35s-3.41,0-5.12,0S49.1,291,47.2,291c-.55,0-1.11-.28-1.7-.28a3,3,0,0,1-1.71-.23c-.44-.27-1.2,0-1.77,0-1.91-.48-3.81-.63-5.83-1.15-1.41-.36-2.86-.57-4.29-.91s-2.25-.67-3.39-.95a29.47,29.47,0,0,1-3.81-1.18c-1.75-.73-3.56-1.34-5.32-2.08-2.13-.91-4.19-1.91-6.27-3.05a37.54,37.54,0,0,1-4.24-2.48A18.78,18.78,0,0,1,6.26,277a9,9,0,0,0-1.41-1,4.64,4.64,0,0,0-.65.26C3,277,1.8,277.78.58,278.47q-2.34,1.42-4.8,2.61c-1.91.89-4,1.79-6,2.57-1.51.59-3,1.16-4.58,1.66s-2.82,1-4.28,1.35-2.9.74-4.35,1.1c-1.12.29-2.32.46-3.48.73a22,22,0,0,0-4,.84c-1.08-.25-2.09.36-3.18.32a8.71,8.71,0,0,0-1.9.27c-.61.09-1.3-.23-1.91.3h-.44c-3.06,0-6.13.48-9.22.31a21.73,21.73,0,0,1-5.58.28c-1.07,0-2.13-.23-3.2-.28a16.47,16.47,0,0,1-3.14,0c-1-.25-2.06,0-3-.27-1.41-.29-2.88-.27-4.27-.63s-2.59-.4-3.81-.78a29.15,29.15,0,0,0-3.68-.93c-2.57-.42-4.88-1.6-7.39-2.16-1.41-.95-3.11-1.25-4.57-2.05s-3.11-1.32-4.5-2.19a52.67,52.67,0,0,1-4.78-3c-1.39-1.1-2.9-2.05-4.27-3.2s-2.1-1.9-3.16-2.89a14.9,14.9,0,0,1-1.66-1.41c-1.77-2.25-3.81-4.21-5.49-6.59a62,62,0,0,1-4.25-7.32c-.51-1-1-2.1-1.56-3.11a37.15,37.15,0,0,1-2-4.89c-.51-1.36-.87-2.77-1.31-4.14-.31-1-.54-2.07-.78-3.12a22.46,22.46,0,0,0-.58-2.48c-.28-.8,0-1.31-.28-1.9a10.76,10.76,0,0,1-.34-3.34c0-1.37-.46-2.68-.35-4.07s0-2.73,0-4.08v-4.21c0-.82.23-1.62.27-2.44a12,12,0,0,1,0-2.54c.27-.89,0-1.77.3-2.59a13,13,0,0,0,.29-2.44c.15-.78.13-1.56.32-2.28s0-1.35.29-1.91.11-1.27.3-1.9,0-1.3.31-1.91,0-1.35.36-1.79-.19-1.35.48-1.77a10.36,10.36,0,0,1,.28-1.91c.25-1.31.56-2.59.86-3.81s.42-2,.69-3a62,62,0,0,1,1.75-7,16.55,16.55,0,0,0,.63-2.61c.25-1.3.72-2.51,1-3.81.51-2,1.24-4,1.71-6.06.25-1,.61-1.9.94-2.93l3-8.84c.82-2.48,1.62-5,2.46-7.41.43-1.28,1.08-2.5,1.42-3.82a20,20,0,0,0,1.24-3.69c1.45-2.82,2.19-5.91,3.57-8.77a37.42,37.42,0,0,0,1.42-3.81c.46-1.29,1.09-2.36,1.49-3.6.63-2,1.73-3.81,2.29-5.83a15.39,15.39,0,0,1,1.12-2.4c.8-1.77,1.62-3.54,2.34-5.35s1.66-3.81,2.52-5.72c1.12-2.45,2.21-4.91,3.35-7.35,1-2,2.12-4,2.94-6,.95-2.4,2.17-4.63,3.33-6.92s2.21-4.5,3.34-6.74c.57-1.13,1.2-2.21,1.81-3.32a18.09,18.09,0,0,1,1.75-3.2,12.07,12.07,0,0,0,.78-1.62c1.26-2.13,2.4-4.34,3.68-6.46.76-1.27,1.5-2.59,2.23-3.81s1.71-2.8,2.61-4.19,1.77-2.71,2.74-4l2.67-3.56a85.05,85.05,0,0,1,8.21-8.77,20.45,20.45,0,0,1,2.87-2.55c1-.69,1.78-1.77,3-2.15a52.15,52.15,0,0,1,7-4.6c.89-.41,1.71-1,2.59-1.4,1.35-.69,2.78-1.26,4.19-1.91s3.28-1.3,4.95-1.91a61.43,61.43,0,0,1,6.06-1.73c1.58-.34,3.15-.69,4.75-.95a9.75,9.75,0,0,0,2.4-.31c.86-.38,1.71,0,2.46-.26a10.47,10.47,0,0,1,3.35-.27c1.71-.11,3.43-.27,5.14-.29,1.37,0,2.73.23,4.1.27a34.37,34.37,0,0,1,4.06,0c1.16.19,2.34.1,3.48.31.77.15,1.57.09,2.29.28s1.56.1,2.27.31c1.18.38,2.4.49,3.58.8s2,.4,3.05.68c1.43.4,2.86.8,4.27,1.32s2.4,1,3.58,1.5a26,26,0,0,1,3.66,2.1,30.34,30.34,0,0,1,6.09,5.56A20.07,20.07,0,0,1,44,43.8c.1.2.22.4.34.59,2-1.56,4-3.26,6.06-4.59,1.47-.92,2.9-1.91,4.42-2.75,2.29-1.27,4.63-2.42,7-3.58,1.29-.63,2.64-1.14,4-1.66,2.13-.82,4.28-1.56,6.48-2.19a22.59,22.59,0,0,1,2.66-.8,26,26,0,0,1,2.77-.66c.85,0,1.69-.58,2.61-.56.32-.47.81-.25,1.23-.32s.8-.23,1.22-.29a6.84,6.84,0,0,1,2.29-.3c.59-.69,1.58.09,2.17-.57h.29c1.12-.12,2.23-.19,3.33-.33a14.93,14.93,0,0,0,1.91-.28c.66-.1,1.29.24,1.9-.31h.31a36.48,36.48,0,0,0,5.88-.32c2.58-.38,5.17,0,7.62-.34a61.84,61.84,0,0,1,6.37-.23c2.11-.08,4.21,0,6.32,0a23.16,23.16,0,0,0,2.75.32,8,8,0,0,1,2.84,0c1,.25,1.9,0,2.89.29a34.58,34.58,0,0,1,5,.85,4.82,4.82,0,0,0,1.2,0c.33,0,.61.23.93.29,1.68.3,3.32.7,5,1.12a52.21,52.21,0,0,1,5.35,1.6c1.39.54,2.78,1,4.16,1.6,1.9.82,3.81,1.76,5.71,2.73a53.73,53.73,0,0,1,6.25,3.81c1.56,1.09,3.11,2.21,4.74,3.37a8.88,8.88,0,0,0,1.7-.82,9.65,9.65,0,0,1,1.47-.84c1.73-.91,3.41-1.9,5.2-2.74,2.48-1.12,4.95-2.29,7.62-3.24,2.27-.82,4.5-1.75,6.8-2.44q2.49-.74,5-1.43c1.68-.45,2.8-.72,4.19-1.12.6-.17,1.3.13,1.8-.38,1.41,0,2.7-.73,4.13-.61.61-.42,1.41,0,1.91-.34s1.29,0,1.9-.29a23,23,0,0,1,2.74-.32c.88-.23,1.78,0,2.6-.29a37.13,37.13,0,0,1,3.81-.29,60.92,60.92,0,0,1,9.06-.26c3.05,0,6.12-.15,9.17,0a40.84,40.84,0,0,1,4.84.3,18.07,18.07,0,0,0,3.2.23c.59,0,1.05.46,1.69.34a1.65,1.65,0,0,1,1.53.27h.46a4.88,4.88,0,0,1,2,.25c.49.27,1.18,0,1.9.3a20.53,20.53,0,0,0,2.71.37c1.62.3,3.24.64,4.84,1l2.7.71c1.91.47,3.81,1.14,5.72,1.69a43,43,0,0,1,5.49,2,77.34,77.34,0,0,1,7.62,3.81c2.19,1.28,4.32,2.65,6.45,4a24.17,24.17,0,0,1,2.77,2c1.9,1.57,3.64,3.17,5.48,4.79a77.36,77.36,0,0,1,9.53-7c1.35-.91,2.82-1.67,4.25-2.45s2.93-1.64,4.46-2.33a82.65,82.65,0,0,1,8.46-3.56c1.48-.52,2.95-1.13,4.46-1.56s3.33-1,5-1.41l3-.84c.59-.17,1.28.13,1.81-.36,1.39,0,2.69-.73,4.11-.61.61-.44,1.43,0,1.91-.37s1.3,0,1.91-.26c.91-.4,1.9,0,2.72-.37s1.9,0,2.76-.22c1.51-.42,3.07,0,4.54-.33a42.43,42.43,0,0,1,6.67-.25h6.61a16.64,16.64,0,0,0,2.44.33,19.38,19.38,0,0,1,2.41,0c.58,0,1.05.4,1.68.32A3.22,3.22,0,0,1,377,26c.47.25,1.23-.09,1.77,0,1.5.48,3.1.46,4.63.8,1.18.29,2.44.42,3.64.69,1.9.4,3.66.82,5.47,1.35s4,1.26,6,1.91c1.22.43,2.42.93,3.64,1.39a61.18,61.18,0,0,1,6.8,3.22,52.89,52.89,0,0,1,5.51,3.39,61.4,61.4,0,0,1,5.06,3.81,55.13,55.13,0,0,1,6.31,5.71,74.54,74.54,0,0,1,5,6c1.24,1.72,2.31,3.51,3.57,5.19a12.55,12.55,0,0,1,1.16,1.77c1,1.9,2.07,3.81,3,5.83q1.15,2.3,2.08,4.7c.55,1.58,1.06,3.19,1.56,4.79.34,1.06.61,2.15.91,3.23a32.13,32.13,0,0,0,.86,3.11,12.27,12.27,0,0,1,.34,2.42,6.7,6.7,0,0,0,.29,1.37c.09.46-.19.92.25,1.28v.26a23.63,23.63,0,0,0,.32,3.82c.34,1.9,0,3.81.34,5.58a28.45,28.45,0,0,1,.23,3.81,15.18,15.18,0,0,1,0,3.81c-.4,2.06,0,4.15-.3,6.19-.19,1.33,0,2.67-.29,3.94s0,2.25-.3,3.34-.1,2.06-.31,3a20.77,20.77,0,0,1-.3,2.59c-.31.8,0,1.77-.29,2.59s-.09,1.66-.3,2.42-.12,1.66-.29,2.44c-.3,1.47-.42,2.95-.59,4.44a8,8,0,0,1-.51,2c-.25.64.26,1.41-.39,1.9a14.12,14.12,0,0,1-.61,3.53,36.42,36.42,0,0,1-.93,4.11c-.42,1.35-.76,2.73-1.07,4.06-.4,1.75-1,3.43-1.33,5.2a33.05,33.05,0,0,1-1.18,4,24.81,24.81,0,0,0-.86,2.65c-.17.88-.8,1.64-.63,2.59-.59,1.14-.78,2.4-1.25,3.56-.71,1.78-1,3.68-1.78,5.43-1.1,2.67-1.9,5.47-2.87,8.14-.71,1.77-1.34,3.58-1.91,5.37a48.74,48.74,0,0,1-1.73,4.56c-.63,1.48-1.24,3.2-1.91,4.8-.47,1.2-.93,2.42-1.45,3.62-.76,1.79-1.58,3.56-2.32,5.35-2,5-4.53,9.7-7,14.48-1.09,2.15-2.27,4.29-3.47,6.38-.78,1.37-1.54,2.78-2.46,4.12s-1.52,2.78-2.38,4.11c-1.43,2.23-2.95,4.4-4.46,6.6s-3.22,4.61-5,6.82c-1.3,1.63-2.63,3.23-3.93,4.85A138.33,138.33,0,0,1,381.4,265a32.2,32.2,0,0,1-3.68,3.13,20.8,20.8,0,0,0-1.9,1.71c-1.26,1.05-2.59,2-3.93,3s-2.48,1.71-3.81,2.55-2.49,1.5-3.71,2.29a69.47,69.47,0,0,1-8.56,4.45,64.55,64.55,0,0,1-8.82,3.41l-4.38,1.4c-1.28.41-2.65.62-4,1-.59.15-1.33,0-1.77.4s-1.27-.12-1.81.45c-.19.21-.76,0-1.16,0s-.72.25-1.09.29c-1.58.19-3.12.48-4.7.67a18.65,18.65,0,0,0-2.59.28,31.38,31.38,0,0,1-3.49.29,62.9,62.9,0,0,1-8.46.28C313,291,312.58,290.89,312.41,291.23ZM38.05,74.19v-2.5c0-.72-.21-1.43-.26-2.13-.14-1.41-.21-2.84-.33-4.25a.71.71,0,0,0,0-.29,38.63,38.63,0,0,1-1.1-4.36,41.31,41.31,0,0,0-1.91-4.75,10.56,10.56,0,0,0-1.08-1.5,14.64,14.64,0,0,0-1-1.52A17.63,17.63,0,0,1,31,51.48c-.35-.56-.9-.8-1.3-1.24a17.88,17.88,0,0,0-3.47-2.9,42.7,42.7,0,0,0-5.43-2.88c-1.12-.51-2.38-.76-3.56-1.22a29.23,29.23,0,0,0-3.7-.87A6.16,6.16,0,0,0,11.72,42c-.72,0-1.31-.38-1.9-.32s-1.28-.29-1.91-.27c-2,.12-4-.43-6.06-.34a26.11,26.11,0,0,1-3.31,0c-2.19-.17-4.33.44-6.5.32h-.3c-.44.44-1,.23-1.53.31s-1,.21-1.54.29a11,11,0,0,0-2.42.34c-.84.36-1.71.42-2.55.7s-1.72.52-2.56.77a51.89,51.89,0,0,0-6.09,2.38,50,50,0,0,0-6.59,3.69,33.5,33.5,0,0,0-5.15,4,69.25,69.25,0,0,0-8.1,8.67c-.74,1-1.5,2.09-2.26,3.12-2,2.69-3.6,5.72-5.36,8.48-1.43,2.34-2.66,4.82-4,7.22q-1.28,2.34-2.51,4.69c-2.82,5.5-5.51,11.07-8.21,16.61-.86,1.75-1.66,3.53-2.48,5.3s-1.47,3-2.14,4.53c-.83,1.91-1.67,3.81-2.55,5.72s-1.9,4.36-2.86,6.49a21.53,21.53,0,0,0-1.16,2.54,46.74,46.74,0,0,1-1.9,4.65c-.59,1.35-1.18,2.72-1.72,4.09-.86,2.21-1.69,4.42-2.61,6.6-1.08,2.57-1.9,5.25-3.16,7.73A20.31,20.31,0,0,1-88.95,154c-.32,1.29-1,2.49-1.41,3.81s-.88,2.24-1.24,3.39-.82,2.28-1.2,3.43c-1.35,4.09-2.76,8.19-3.94,12.36-.48,1.66-1,3.3-1.49,5-.3,1.12-.65,2.24-1,3.37s-.63,2.46-1,3.64c-.55,1.75-.88,3.56-1.41,5.29-.19.69-.23,1.39-.46,2.08a26.83,26.83,0,0,0-.7,3.32c-.15.68-.35,1.37-.5,2.05-.25,1.2-.51,2.4-.68,3.62a6.63,6.63,0,0,0-.33,2.42,13.52,13.52,0,0,0-.84,4.31,11.65,11.65,0,0,0-.36,3.81v.28a2.85,2.85,0,0,0-.25,2.14,19.76,19.76,0,0,1-.34,2.29v5.71a23.83,23.83,0,0,0,.27,5.72c.19.68-.17,1.46.19,2.17s-.12,1.47.44,2.08a17.9,17.9,0,0,0,.85,4.15c.29,1.39.84,2.67,1.24,4a29,29,0,0,0,1.51,3.81,67.31,67.31,0,0,0,3.35,6.13,24.79,24.79,0,0,0,3.28,4.21,45.06,45.06,0,0,0,8,7.15c1.18.78,2.34,1.6,3.56,2.32.75.46,1.56.8,2.36,1.2s1.57.8,2.39,1.17,1.71.68,2.59,1c2,.68,4.06,1.39,6.11,1.9a32.27,32.27,0,0,0,4.84,1,7.6,7.6,0,0,0,2.88.34c1.1.67,2.36.18,3.54.54a9,9,0,0,0,3.43,0,23,23,0,0,1,3.51.36c1.79.11,3.5-.34,5.29-.36a20,20,0,0,0,5.3-.23c.88-.25,1.91,0,2.78-.23s1.91.1,2.9-.38c.51-.27,1.18,0,1.9-.29a6.2,6.2,0,0,1,1.91-.3,47.77,47.77,0,0,0,4.88-.95c1.73-.42,3.5-.75,5.18-1.28a100.15,100.15,0,0,0,9.77-3.72A50.59,50.59,0,0,0-4.68,264a47.89,47.89,0,0,0,9-7.08c.29-.33.59-.63.9-.94a54.81,54.81,0,0,0,8.08,7.22,61.23,61.23,0,0,0,6.8,4.35q2.79,1.53,5.71,2.78c1.3.51,2.61.95,3.82,1.51a27.59,27.59,0,0,0,4.26,1.31c1.37.34,2.71.8,4.1,1.05s2.59.55,3.81.76a8.85,8.85,0,0,0,3,.32,2.44,2.44,0,0,0,1.9.27c.67,0,1.22.31,1.91.32h3.81a34.14,34.14,0,0,1,3.64.31c.78.11,1.41-.31,2.13-.32a34.36,34.36,0,0,0,6.8-.29c.9-.23,1.91.17,2.79-.23s1.9.13,2.68-.38a16.38,16.38,0,0,0,4.29-.59,13.91,13.91,0,0,0,2.4-.36,16.42,16.42,0,0,1,2.08-.46c1.27-.4,2.63-.65,4-1,1.68-.4,3.3-1,5-1.43a28.77,28.77,0,0,0,2.76-1c2.65-.88,5.17-2.08,7.72-3.16a28.56,28.56,0,0,0,2.71-1.49c1.33-.76,2.72-1.47,4-2.31a54.2,54.2,0,0,0,8.88-7c.87-.9,1.77-1.77,2.72-2.72.86,1,1.68,2,2.61,3a32,32,0,0,0,4,3.81c1,.66,1.75,1.56,2.65,2.3a21.29,21.29,0,0,0,1.75,1.24c1.43,1,2.88,1.91,4.38,2.86s2.84,1.64,4.29,2.4,3.2,1.47,4.84,2.13c1.2.48,2.44.9,3.68,1.28a22.62,22.62,0,0,0,2.55.76c.86.17,1.7.54,2.55.73s2.23.42,3.34.7a21.15,21.15,0,0,1,2.09.34c.61.27,1.22,0,1.7.27a3.89,3.89,0,0,0,1.91.27h.59c.62.45,1.33.21,2,.28s1.43.23,2.13.31a13.07,13.07,0,0,0,1.66,0h3.47c.55,0,1.21-.19,1.61,0s1,0,1.43,0a33,33,0,0,0,6.67-.23,22.53,22.53,0,0,0,3.18-.31c.67-.24,1.41,0,2.16-.26a6.94,6.94,0,0,1,2.26-.31,38.39,38.39,0,0,1,4.12-.66c.49-.54,1.2-.19,1.79-.4a28.6,28.6,0,0,1,3-.8c1.37-.33,2.71-.75,4.06-1.13q3-.81,5.81-1.9c1.13-.42,2.25-.86,3.34-1.39a26.3,26.3,0,0,1,3.29-1.49,19.27,19.27,0,0,0,3.55-1.62c2.05-1.2,4.21-2.25,6.21-3.56,1.5-1,3.1-1.81,4.51-2.9,1.91-1.41,3.72-2.72,5.53-4.19s3.81-3.11,5.62-4.84a96.63,96.63,0,0,0,7.39-7.62c.91-1.12,1.91-2.17,2.76-3.37.1-.16.29-.23.48-.36.25.59.48,1.08.67,1.6.26.8.78,1.52,1,2.28a20.31,20.31,0,0,0,1.37,3.05c.47,1.07,1.26,2,1.77,3.05a24,24,0,0,0,2.08,3.2,43.2,43.2,0,0,0,3.81,4.72,46.82,46.82,0,0,0,7.62,6.86c1.35.94,2.7,1.91,4.11,2.77,1,.59,2,1,3,1.62a50,50,0,0,0,5.26,2.55,11,11,0,0,0,1.69.61c1,.36,2,.67,3,1.07s2.13.64,3.18,1a28.91,28.91,0,0,0,3.55.92,9.37,9.37,0,0,1,2.4.36c.64.36,1.69-.11,2.34.55a8.94,8.94,0,0,1,2.13.27c.77.11,1.53.11,2.29.29a30.29,30.29,0,0,1,3.05.3,22.58,22.58,0,0,0,3.29,0,30.91,30.91,0,0,1,3.34.29,40.37,40.37,0,0,0,5.6-.33,16.87,16.87,0,0,0,4.86-.25c.91-.28,1.9.16,2.91-.22s1.91,0,2.86-.37a16.2,16.2,0,0,1,3.18-.34h.4c.33-.38.77-.15,1.13-.23a8.16,8.16,0,0,1,1.08-.28,4.77,4.77,0,0,0,1.24-.29c.44-.15,1,.12,1.37-.32a13.05,13.05,0,0,0,2.9-.63,35.6,35.6,0,0,0,3.81-1A102.09,102.09,0,0,0,350.42,268a64.6,64.6,0,0,0,8.36-4.49c2.82-1.77,5.51-3.81,8.18-5.72,1.6-1.2,3.05-2.59,4.55-3.92.71-.63,1.35-1.34,2-2,2.25-2.27,4.55-4.46,6.61-6.9.59-.7,1.26-1.37,1.79-2.13.88-1.26,1.91-2.4,2.78-3.66s1.91-2.53,2.75-3.81c1.27-1.91,2.53-3.81,3.81-5.72.91-1.43,1.69-2.91,2.61-4.34s1.6-3.18,2.68-4.59c1.13-2.88,2.88-5.43,4.12-8.25,1.41-3.18,3.09-6.23,4.34-9.53a29.83,29.83,0,0,0,1.45-3,61.59,61.59,0,0,1,2.31-5.81c.84-2.11,1.54-4.29,2.55-6.32a9.39,9.39,0,0,1,1-2.92,39.51,39.51,0,0,1,1.51-4.19,55.1,55.1,0,0,0,1.9-5.36c1.47-4,2.69-8,4-12.06.55-1.73,1-3.5,1.52-5.23.29-1,.67-1.91.88-3,.36-1.79,1-3.52,1.39-5.29a50.94,50.94,0,0,0,1.35-5.13c.17-1.22.51-2.42.74-3.64s.52-2.69.88-4c.17-.63.09-1.26.3-1.91a15.17,15.17,0,0,0,.78-3.58c.23-1.5.56-3,.73-4.55a7.15,7.15,0,0,1,.3-2.25c.38-.84,0-1.7.5-2.51s-.12-1.34.09-1.91a3.77,3.77,0,0,0,.23-1.91c-.11-.66.33-1.2.33-1.9a14.88,14.88,0,0,1,.24-2.9,9.37,9.37,0,0,0,0-3c-.11-1.06.37-2,.31-3.05a44.91,44.91,0,0,0-.25-6.66c-.28-1.51.1-3.13-.32-4.69-.21-.74.19-1.54-.21-2.33s.15-1.65-.42-2.38a32.31,32.31,0,0,0-.9-5.35,31,31,0,0,1-.93-4.14c-1.12-2.8-1.91-5.71-3.26-8.42a63.14,63.14,0,0,0-3.64-6.78,58.55,58.55,0,0,0-6.74-8.63,39.4,39.4,0,0,0-4.08-3.56c-1.22-1-2.48-1.91-3.81-2.86a37.61,37.61,0,0,0-5.81-3.41,49,49,0,0,0-5.3-2.5c-1.83-.59-3.48-1.27-5.27-1.79s-4.08-1.08-6.12-1.6c-.78-.21-1.73,0-2.4-.38s-1.68.11-2.33-.53c-.8.19-1.52-.33-2.28-.29a12.6,12.6,0,0,1-2.29-.3,26.73,26.73,0,0,1-3.2-.27,11.73,11.73,0,0,0-3.45,0c-1.16,0-2.21-.4-3.35-.34-1.75.11-3.51,0-5.3.24s-4-.11-6,.37c-.84.19-1.69-.17-2.61.24a10.56,10.56,0,0,1-2.57.29c-1.31.25-2.65.51-4,.63a49.46,49.46,0,0,0-5.34,1c-1.79.3-3.81,1-5.71,1.56s-3.24,1.11-4.86,1.7-3.22,1.23-4.76,1.9c-2.75,1.28-5.43,2.69-8.06,4.16a13.91,13.91,0,0,0-1.7,1c-1.39,1.09-2.89,2-4.32,3.05a78.13,78.13,0,0,0-6.35,5c-2.65,2.38-5.07,5-7.62,7.62-.51.51-.8,1.25-1.45,1.63a44.58,44.58,0,0,0-3.81-6.59,47.86,47.86,0,0,0-4.93-5.71,41.61,41.61,0,0,0-3.56-3.34,34.31,34.31,0,0,0-3-2.3c-1.67-1.07-3.26-2.27-5-3.22s-3.64-1.91-5.49-2.75c-1.31-.59-2.66-1.08-4-1.56s-2.83-.93-4.26-1.35c-1.76-.52-3.53-.93-5.3-1.37-1.16-.29-2.36-.4-3.51-.67a42.6,42.6,0,0,1-4.32-.8c-.53-.19-1.3.17-1.75-.1a2.93,2.93,0,0,0-1.91-.2c-.63,0-1.08-.35-1.68-.35-1.21,0-2.43-.13-3.65-.25-2.84-.24-5.72.18-8.6-.32a8.62,8.62,0,0,0-1.9,0c-.61,0-1.22.25-1.91.29a40.12,40.12,0,0,0-5.9.26c-1.17.27-2.42,0-3.64.31a24.41,24.41,0,0,1-3.81.34H211c-.32.48-.82.21-1.24.29s-.91.23-1.37.28A9.9,9.9,0,0,0,206,42c-.57.29-1.14.12-1.67.33-1.41.53-2.92.68-4.35,1.12s-2.61.73-3.9,1.13c-2.14.66-4.25,1.35-6.33,2.17s-4.65,1.9-6.92,3a79,79,0,0,0-7.08,4,62.5,62.5,0,0,0-7.51,5.17c-.74.65-1.58,1.2-2.42,1.9,0-.19,0-.36-.11-.45a48.09,48.09,0,0,0-4-5,22.32,22.32,0,0,0-3.05-2.78c-.75-.47-1.3-1.22-2-1.68-2.12-1.27-4.15-2.68-6.4-3.81a64.78,64.78,0,0,0-7-3c-2.31-.82-4.63-1.47-7-2.08-1.73-.44-3.5-.69-5.24-1.09a17.16,17.16,0,0,0-1.9-.34c-.71-.09-1.47.15-2.13-.3-1.49.11-2.94-.31-4.39-.29-5.94,0-11.87-.29-17.79.27-2.06.19-4.14.21-6.21.3h-.29c-.55.55-1.24.19-1.9.29s-1.32.23-1.91.3a14.56,14.56,0,0,0-3,.36c-.74.25-1.54,0-2.13.29s-1.49.15-2.21.51-1.55.12-2.25.39-1.16.11-1.68.3c-1.2.42-2.48.57-3.66,1s-2.42.69-3.62,1.11a72.38,72.38,0,0,0-9,3.62c-2.15,1.1-4.38,2.07-6.44,3.35a51.39,51.39,0,0,0-5.31,3.58,56.62,56.62,0,0,0-4.92,4.08,80.22,80.22,0,0,0-7.28,7.81c-.8,1.07-1.63,2.12-2.36,3.24S39.05,72.81,38.05,74.19Z" transform="translate(138.2 138.06)"/><path d="M38.05,74.19c.92-1.34,1.7-2.39,2.4-3.49s1.57-2.17,2.37-3.24a75.72,75.72,0,0,1,7.28-7.81A56.48,56.48,0,0,1,55,55.57,51.53,51.53,0,0,1,60.33,52c2.05-1.28,4.28-2.25,6.44-3.35a71.17,71.17,0,0,1,9-3.62c1.2-.42,2.42-.71,3.62-1.11s2.45-.53,3.66-.95c.51-.19,1.1,0,1.67-.31s1.6,0,2.25-.38,1.49-.13,2.21-.51,1.39,0,2.13-.29a13.91,13.91,0,0,1,3-.36,10,10,0,0,0,1.91-.3c.57-.12,1.3.26,1.9-.29h.29c2.08-.09,4.15-.11,6.21-.3,5.93-.56,11.85-.2,17.8-.27,1.44,0,2.89.4,4.38.28.67.46,1.43.21,2.13.31a17.77,17.77,0,0,1,1.91.34c1.73.4,3.5.65,5.24,1.09,2.36.61,4.68,1.26,7,2.08a63.94,63.94,0,0,1,7,3,71,71,0,0,1,6.4,3.81c.75.46,1.3,1.2,2,1.68a21.2,21.2,0,0,1,3.05,2.78,46.7,46.7,0,0,1,4,5,.86.86,0,0,0,.11.46c.84-.65,1.68-1.2,2.42-1.9a64.13,64.13,0,0,1,7.51-5.17,79.19,79.19,0,0,1,7.09-4c2.26-1.09,4.57-2,6.91-2.95s4.2-1.51,6.33-2.17c1.29-.4,2.61-.73,3.9-1.13s2.94-.59,4.35-1.12c.53-.21,1.1,0,1.68-.33a9.83,9.83,0,0,1,2.42-.36,7.58,7.58,0,0,0,1.37-.28c.45-.1.91.19,1.24-.29h.28a25.57,25.57,0,0,0,3.81-.34c1.22-.29,2.48,0,3.64-.31a40.2,40.2,0,0,1,5.91-.26c.61,0,1.22-.23,1.9-.29a8.71,8.71,0,0,1,1.91,0c2.86.5,5.71,0,8.59.32,1.22.12,2.44.25,3.66.25.59,0,1.05.4,1.67.34a3,3,0,0,1,1.91.21c.46.27,1.22,0,1.75.1a42.28,42.28,0,0,0,4.33.8c1.14.27,2.34.38,3.5.67,1.78.43,3.55.85,5.3,1.37,1.43.42,2.86.84,4.27,1.35s2.7,1,4,1.56c1.9.86,3.69,1.76,5.48,2.75s3.32,2.15,5,3.22c1,.66,1.9,1.52,3,2.3a41.61,41.61,0,0,1,3.56,3.34,48.87,48.87,0,0,1,4.94,5.71,45.48,45.48,0,0,1,3.81,6.59c.64-.38.93-1.12,1.44-1.63,2.5-2.56,4.92-5.17,7.63-7.63a78.34,78.34,0,0,1,6.34-5c1.43-1,2.93-1.9,4.32-3a15.37,15.37,0,0,1,1.7-1c2.63-1.46,5.32-2.87,8.06-4.15a46.72,46.72,0,0,1,4.76-1.9c1.62-.54,3.22-1.22,4.86-1.7A56.84,56.84,0,0,1,338,43.19a48.32,48.32,0,0,1,5.33-1c1.32-.12,2.65-.38,4-.63a10.69,10.69,0,0,0,2.58-.29c.91-.42,1.77,0,2.61-.24,2-.48,4.06,0,6-.37a39.06,39.06,0,0,1,5.29-.24c1.15,0,2.19.43,3.36.34a11.67,11.67,0,0,1,3.44,0c1.07.21,2.14.13,3.21.27a12.49,12.49,0,0,0,2.28.3c.76,0,1.49.48,2.29.29.65.64,1.54.11,2.32.53s1.62.17,2.4.38c2,.52,4.1,1,6.12,1.6s3.52,1.18,5.28,1.79,3.52,1.68,5.29,2.5a37.14,37.14,0,0,1,5.81,3.41c1.32.89,2.58,1.9,3.81,2.86a39.4,39.4,0,0,1,4.08,3.56,58,58,0,0,1,6.75,8.63,66.9,66.9,0,0,1,3.64,6.78c1.27,2.73,2.13,5.62,3.25,8.42a31,31,0,0,0,.94,4.14,31.28,31.28,0,0,1,.89,5.35c.57.73,0,1.64.42,2.38s0,1.58.21,2.33c.42,1.56,0,3.18.33,4.68a46.49,46.49,0,0,1,.24,6.67,24.06,24.06,0,0,0-.3,3,10,10,0,0,1,0,3,14.89,14.89,0,0,0-.25,2.9c0,.63-.44,1.16-.32,1.9a3.89,3.89,0,0,1-.23,1.91c-.21.59.15,1.39-.1,1.9s-.11,1.68-.49,2.52a7.16,7.16,0,0,0-.31,2.25c-.17,1.54-.49,3-.72,4.55a15.43,15.43,0,0,1-.73,3.56c-.21.58-.13,1.2-.3,1.91-.36,1.29-.63,2.65-.88,4s-.57,2.42-.74,3.64a48.35,48.35,0,0,1-1.28,5.18c-.42,1.77-1,3.51-1.39,5.3-.21,1-.59,1.9-.87,3-.52,1.74-1,3.51-1.53,5.24-1.27,4-2.49,8.1-4,12.06-.65,1.79-1.22,3.6-1.91,5.36a37.92,37.92,0,0,0-1.5,4.19,9.08,9.08,0,0,0-1,2.91c-1,2-1.72,4.21-2.56,6.33a62.08,62.08,0,0,0-2.3,5.81c-.31,1.05-1,1.9-1.45,3-1.26,3.26-2.93,6.31-4.34,9.52-1.24,2.82-3,5.38-4.12,8.25-1.08,1.41-1.73,3.11-2.68,4.6s-1.7,2.91-2.62,4.34c-1.2,1.91-2.45,3.81-3.81,5.72-.87,1.29-1.9,2.55-2.74,3.81s-1.9,2.4-2.78,3.65c-.53.77-1.2,1.43-1.79,2.14-2.06,2.44-4.36,4.63-6.61,6.9-.67.68-1.32,1.39-2,2-1.51,1.34-3,2.73-4.56,3.93-2.66,2-5.35,4-8.17,5.72a64.6,64.6,0,0,1-8.36,4.49,102.09,102.09,0,0,1-10.27,3.95,38.86,38.86,0,0,1-3.81,1,12.5,12.5,0,0,1-2.9.62c-.4.44-.93.18-1.37.33a4.46,4.46,0,0,1-1.24.28,8.34,8.34,0,0,0-1.09.29c-.36,0-.8-.15-1.12.23h-.4a16.12,16.12,0,0,0-3.18.34c-1,.31-1.91,0-2.86.36s-2,0-2.91.23a17.23,17.23,0,0,1-4.86.25,38.87,38.87,0,0,1-5.6.32c-1.11-.11-2.21-.24-3.34-.28a25.8,25.8,0,0,1-3.29,0c-1-.21-2.06-.1-3.05-.31s-1.53-.17-2.29-.28a8.52,8.52,0,0,0-2.13-.27c-.65-.67-1.57-.11-2.35-.55s-1.6-.19-2.4-.36a30.66,30.66,0,0,1-3.54-.92c-1.05-.38-2.13-.63-3.18-1s-2-.7-3-1.06a12.74,12.74,0,0,1-1.7-.61,49.09,49.09,0,0,1-5.26-2.56,31.48,31.48,0,0,0-2.95-1.62c-1.41-.87-2.76-1.9-4.11-2.76a46.88,46.88,0,0,1-7.63-6.86,47.93,47.93,0,0,1-3.81-4.72,24,24,0,0,1-2.07-3.2c-.52-1-1.3-1.91-1.77-3a20.37,20.37,0,0,1-1.38-3.05c-.21-.76-.72-1.49-1-2.29-.19-.51-.42-1-.66-1.6-.19.14-.39.21-.48.36-.84,1.2-1.91,2.25-2.76,3.38a95,95,0,0,1-7.4,7.62c-1.75,1.73-3.71,3.27-5.62,4.84s-3.69,2.78-5.52,4.19c-1.41,1.08-3,1.9-4.52,2.89-2,1.32-4.15,2.37-6.21,3.57a19.19,19.19,0,0,1-3.54,1.62,28.66,28.66,0,0,0-3.3,1.48,34.43,34.43,0,0,1-3.33,1.39,60.68,60.68,0,0,1-5.81,1.91c-1.36.38-2.69.8-4.06,1.12-1,.25-2,.48-3,.8-.59.21-1.3-.13-1.79.4a38,38,0,0,0-4.12.67,6.74,6.74,0,0,0-2.27.31c-.74.32-1.48,0-2.15.26a22.53,22.53,0,0,1-3.18.31,33,33,0,0,1-6.67.23c-.46,0-.86.41-1.43,0s-1.07,0-1.62,0h-5.12a20.07,20.07,0,0,1-2.14-.31c-.7-.09-1.37.17-2-.29-.11-.09-.38,0-.59,0a4,4,0,0,1-1.9-.26c-.48-.25-1.09,0-1.7-.27a21.15,21.15,0,0,0-2.09-.34c-1.11-.29-2.23-.44-3.34-.71s-1.69-.55-2.55-.72a24.18,24.18,0,0,1-2.55-.76c-1.24-.38-2.48-.8-3.68-1.28-1.64-.67-3.28-1.33-4.84-2.13s-2.88-1.58-4.29-2.4-3-1.91-4.38-2.86a21.29,21.29,0,0,1-1.75-1.24c-.9-.74-1.7-1.64-2.65-2.31a30,30,0,0,1-4-3.81,30.38,30.38,0,0,1-2.61-3l-2.73,2.73a53.78,53.78,0,0,1-8.88,6.95c-1.27.84-2.66,1.54-4,2.31a27.14,27.14,0,0,1-2.7,1.48c-2.56,1.09-5.07,2.29-7.72,3.17-.93.3-1.81.76-2.76,1-1.68.42-3.3,1-5,1.43-1.34.32-2.69.57-4,1a16.24,16.24,0,0,0-2.07.45,13.93,13.93,0,0,1-2.4.37,16.81,16.81,0,0,1-4.29.59c-.84.51-1.91,0-2.69.38s-1.9,0-2.78.23a33.62,33.62,0,0,1-6.8.28c-.72,0-1.35.44-2.13.33a34.37,34.37,0,0,0-3.64-.31H48.67c-.63,0-1.19-.4-1.91-.32a2.48,2.48,0,0,1-1.9-.27,9.34,9.34,0,0,1-3-.32c-1.3-.21-2.59-.56-3.81-.77s-2.73-.7-4.1-1a26.68,26.68,0,0,1-4.27-1.32c-1.27-.55-2.59-1-3.81-1.5a62.69,62.69,0,0,1-5.71-2.78,60.45,60.45,0,0,1-6.81-4.35,55.31,55.31,0,0,1-8.07-7.22c-.31.31-.61.61-.9.93a48,48,0,0,1-9,7.09,52.23,52.23,0,0,1-7.11,3.81,100.15,100.15,0,0,1-9.77,3.72c-1.68.53-3.45.85-5.19,1.27a47.09,47.09,0,0,1-4.87,1,6.2,6.2,0,0,0-1.91.3c-.67.36-1.33,0-1.9.29-1,.47-1.91.15-2.9.38s-1.91,0-2.78.23a20,20,0,0,1-5.3.23c-1.79,0-3.5.47-5.3.36a22.69,22.69,0,0,0-3.5-.36,9.42,9.42,0,0,1-3.43,0c-1.18-.37-2.44.13-3.54-.54a7.78,7.78,0,0,1-2.88-.34,31.76,31.76,0,0,1-4.84-1c-2.06-.57-4.08-1.28-6.12-1.91-.87-.3-1.75-.62-2.59-1s-1.58-.78-2.38-1.16a23.74,23.74,0,0,1-2.36-1.2c-1.22-.72-2.38-1.54-3.56-2.32a45.87,45.87,0,0,1-8-7.15,25.25,25.25,0,0,1-3.27-4.21,65,65,0,0,1-3.36-6.13,29.53,29.53,0,0,1-1.5-3.81c-.4-1.36-.95-2.63-1.24-4a17.89,17.89,0,0,1-.86-4.16c-.55-.61-.09-1.43-.43-2.07s0-1.49-.19-2.18a22.74,22.74,0,0,1-.27-5.71v-5.72a22,22,0,0,0,.34-2.28,2.85,2.85,0,0,1,.25-2.14v-.28a11.36,11.36,0,0,1,.36-3.81,13.2,13.2,0,0,1,.84-4.31,6.41,6.41,0,0,1,.32-2.42c.17-1.22.44-2.42.69-3.62.15-.69.34-1.37.49-2.06a26.71,26.71,0,0,1,.71-3.31c.23-.69.27-1.39.46-2.08.53-1.73.85-3.54,1.41-5.3.38-1.18.66-2.42,1-3.63s.64-2.25,1-3.38c.46-1.65,1-3.29,1.49-5,1.18-4.17,2.59-8.27,3.94-12.37.38-1.14.86-2.26,1.2-3.43s.84-2.24,1.24-3.39,1.08-2.47,1.41-3.81a21,21,0,0,0,1.24-3.71c1.31-2.48,2.07-5.17,3.16-7.74.91-2.17,1.75-4.38,2.61-6.59.53-1.37,1.12-2.74,1.71-4.1a43.5,43.5,0,0,0,1.91-4.64,20.82,20.82,0,0,1,1.16-2.54c1-2.13,1.91-4.34,2.86-6.5s1.71-3.81,2.55-5.71c.67-1.53,1.43-3,2.14-4.54s1.62-3.54,2.47-5.29c2.71-5.55,5.39-11.11,8.21-16.62q1.24-2.34,2.52-4.68c1.33-2.4,2.57-4.88,4-7.22C-50.6,71.35-49,68.47-47,65.71c.77-1,1.53-2.08,2.27-3.13a67.79,67.79,0,0,1,8.1-8.67A32.74,32.74,0,0,1-31.49,50a51.93,51.93,0,0,1,6.59-3.7,55.81,55.81,0,0,1,6.1-2.38c.84-.25,1.7-.47,2.55-.76s1.72-.34,2.56-.7a11,11,0,0,1,2.42-.35,11.87,11.87,0,0,0,1.54-.28c.51-.08,1.09.13,1.52-.31h.31c2.17.12,4.31-.49,6.5-.32a30.46,30.46,0,0,0,3.31,0c2-.1,4,.46,6.06.34a19.07,19.07,0,0,0,1.91.27c.72,0,1.25.4,1.9.32a6.16,6.16,0,0,1,1.81.33,29.64,29.64,0,0,1,3.7.87c1.18.46,2.44.71,3.56,1.22a42.7,42.7,0,0,1,5.43,2.88,18.13,18.13,0,0,1,3.47,2.89c.4.44.95.69,1.29,1.24a14.88,14.88,0,0,0,1.34,1.41,17.88,17.88,0,0,1,1,1.53A10.08,10.08,0,0,1,34.51,56a42.42,42.42,0,0,1,1.91,4.75,38.63,38.63,0,0,0,1.1,4.36.66.66,0,0,1,0,.28c.11,1.41.19,2.84.32,4.25,0,.71.23,1.41.27,2.14S38.05,73.12,38.05,74.19Zm219.81,90.25c-.38-.25-.28-.67-.28-1.07a26.89,26.89,0,0,0-1.62-9.85,20,20,0,0,0-6.19-8.13,26,26,0,0,0-6.46-3.38,35.58,35.58,0,0,0-6.75-1.5,29,29,0,0,0-4.84-.31,31.51,31.51,0,0,0-6.06.25c-1.37.27-2.84,0-4.24.31-.77.2-1.61.11-2.44.26-1.62.31-3.28.52-4.88.95a37.8,37.8,0,0,0-5.28,1.81,25.64,25.64,0,0,0-5.71,3.53,23.14,23.14,0,0,0-4.52,5.2,39.12,39.12,0,0,0-2.63,4.63c-.49,1.09-.86,2.25-1.28,3.37s-.8,2.4-1.16,3.58a8.21,8.21,0,0,0-.32,2.14,10.28,10.28,0,0,0-.34,2.13c.09.9.15,1.81.26,2.73a10.79,10.79,0,0,0,2.76,5.71,15.22,15.22,0,0,0,5.89,3.55,25.41,25.41,0,0,0,3.6,1.12,33.87,33.87,0,0,0,3.47.42,3.45,3.45,0,0,1,0,1.2c-.55,1.31-.7,2.72-1.18,4a53.31,53.31,0,0,1-2.19,5.71c-.84,1.68-1.75,3.28-2.63,4.94a27.09,27.09,0,0,1-3.81,5.33,29.45,29.45,0,0,1-7.77,6.65,23.38,23.38,0,0,1-2.84,1.51,15.68,15.68,0,0,1-4.46,1.2,20.4,20.4,0,0,1-6.19-.25,9.53,9.53,0,0,1-4.39-2.15,11.08,11.08,0,0,1-3.08-7.3c-.15-1.75,0-3.52,0-5.28,0-.24-.12-.59,0-.72.42-.5.21-1.05.28-1.56s.19-1.11.29-1.68a10.85,10.85,0,0,1,.36-2.27A20.23,20.23,0,0,0,172,188a13.81,13.81,0,0,0,.67-3.36c1-2.11,1.14-4.51,2-6.69.53-1.25.7-2.7,1.16-4s.9-2.65,1.28-4c1-3.44,2.23-6.8,3.35-10.21,1-2.86,2-5.71,3.09-8.5.74-1.9,1.5-3.9,2.28-5.83,1-2.36,1.91-4.72,2.78-7.12.31-.88.9-1.66,1.17-2.54.47-1.61,1.27-3.08,1.9-4.64s1.43-2.73,1.91-4.18c.74-2,1.9-3.94,2.7-5.94a67.9,67.9,0,0,1,4.46-8.38c1-1.62,2.1-3.17,3.18-4.71a29,29,0,0,1,3.81-4,27.25,27.25,0,0,1,2.38-1.91,19,19,0,0,1,3.93-2.15,23.54,23.54,0,0,1,4-1.14c.84-.19,1.75.11,2.59-.31a.78.78,0,0,1,.7,0c.4.4.88.25,1.28.21a7.81,7.81,0,0,1,3.66.65,3.9,3.9,0,0,1,2.38,1.72,6.46,6.46,0,0,1,.92,3.23,13.19,13.19,0,0,1-.31,2.27c-.5,1.81-1.05,3.58-1.62,5.36a17.67,17.67,0,0,0-1.09,5.58v2.4a15.45,15.45,0,0,0,.82,3.28,9.55,9.55,0,0,0,3.49,4.42,22.49,22.49,0,0,0,4.73,2.43,21.26,21.26,0,0,0,6.42,1.2h.59c1.44.65,3,.14,4.4.31a2.4,2.4,0,0,1,1.9-.29c.73.12,1.32-.3,1.91-.34a8.63,8.63,0,0,0,2.42-.34c1.45-.5,2.93-.86,4.38-1.39a28.56,28.56,0,0,0,6.23-3.17,14.6,14.6,0,0,0,2.38-1.9c.76-.72,1.55-1.39,2.27-2.17a31.69,31.69,0,0,0,4-5.26,42.42,42.42,0,0,0,3.1-6.4c.46-1.11.73-2.29,1.19-3.41s.51-2.48.93-3.7a10,10,0,0,0,.3-1.52,11.25,11.25,0,0,1,.35-2.71,9.38,9.38,0,0,0,.26-2.3,11.81,11.81,0,0,0,.31-2.44,35.69,35.69,0,0,0-.29-6.37c-.25-.91,0-1.9-.36-2.85A17.72,17.72,0,0,0,277,80.49a23.33,23.33,0,0,0-4.89-8.06,25.29,25.29,0,0,0-3.34-3.12,46.17,46.17,0,0,0-5.43-3.62,31.64,31.64,0,0,0-5.71-2.61,57.78,57.78,0,0,0-10.73-2.86,6.86,6.86,0,0,1-1.91-.3,3.54,3.54,0,0,0-1.4-.25c-.51-.12-1-.22-1.55-.29a5.25,5.25,0,0,1-2.42-.32,35.2,35.2,0,0,1-4.7-.29H224.48c-1.75,0-3.31.44-5,.33-1.24,0-2.4.53-3.64.3h-.15c-.42.53-1,.21-1.52.31a9.17,9.17,0,0,1-1.55.28c-.87,0-1.67.54-2.57.33a12.6,12.6,0,0,1-3.26.83c-1.79.4-3.56.88-5.31,1.38a47,47,0,0,0-7.28,2.76A61.91,61.91,0,0,0,185.44,70c-1.48,1-3,1.9-4.45,3-1,.82-2.08,1.61-3.07,2.44L176.15,77c-.57.51-1.24,1-1.78,1.5q-3,3.15-6.07,6.37a1,1,0,0,0-.21.21c-1,1.5-2.29,2.72-3.32,4.19s-1.9,2.63-2.82,4q-2.61,3.81-5,7.62c-1.49,2.46-3,4.9-4.29,7.43-2.7,5.36-5.5,10.65-7.81,16.18-.76,1.79-1.54,3.58-2.34,5.35-.94,2.08-1.79,4.17-2.69,6.27s-1.9,4.67-2.74,7c-.67,1.74-1.34,3.47-1.91,5.22s-1,3.09-1.52,4.63-1,3.22-1.56,4.78a40.64,40.64,0,0,0-1.45,4.67c-.13.54-.46,1-.59,1.56-.38,1.74-1,3.41-1.45,5.13s-.8,3.07-1.26,4.59-.55,2.88-1,4.25-.72,3-1.08,4.52c-.31,1.2-.37,2.45-.73,3.62a25.55,25.55,0,0,0-.74,3.58c-.23,1.52-.57,3-.72,4.55a11.79,11.79,0,0,1-.31,2.29,7.23,7.23,0,0,0-.25,1.39c0,.51-.24,1-.28,1.52a11.46,11.46,0,0,1-.25,2.9c-.23,1.39-.19,2.82-.31,4.25a85.05,85.05,0,0,0,.2,10.59.76.76,0,0,0,0,.3,15.84,15.84,0,0,1,.59,3.81v.44c.64.46,0,1.2.45,1.79a5.18,5.18,0,0,1,.44,1.78,35.38,35.38,0,0,0,1.66,5.33,51.87,51.87,0,0,0,2.7,5.81,37.84,37.84,0,0,0,4.44,6.42,41.37,41.37,0,0,0,7.62,6.86,63.18,63.18,0,0,0,9.05,4.71c1.57.68,3.3,1,4.94,1.54s3.41.65,5.07,1.18c.45.13,1.06,0,1.44.13a2.71,2.71,0,0,0,1.59.16c.53,0,.89.32,1.39.32a37.49,37.49,0,0,1,3.81.25,46.51,46.51,0,0,0,6,0c2,0,4-.19,6-.29h.3c.5-.47,1.13-.23,1.68-.3s1.24-.21,1.9-.29a12.53,12.53,0,0,0,2.58-.36c.8-.27,1.65-.32,2.47-.55l2.46-.59c1.35-.33,2.71-.71,4-1.16s3.2-1,4.76-1.59a42.85,42.85,0,0,0,3.95-1.71c2.26-1.11,4.51-2.21,6.72-3.43a44.73,44.73,0,0,0,4.88-3.07c1.58-1.16,3.28-2.34,4.88-3.56s3.33-2.69,4.88-4.13a69.7,69.7,0,0,0,6.34-6.52c1.05-1.28,2.15-2.52,3.18-3.81,1.37-1.68,2.69-3.37,3.93-5.16s2.8-4.12,4-6.31c.64-1.18,1.48-2.29,2-3.53s1.24-2.38,1.91-3.6q2.38-4.69,4.32-9.64c.4-1,.73-2,1.07-3s.74-2.4,1.22-3.56.78-2.38,1.16-3.58c.52-1.54.77-3.18,1.26-4.75.36-1.12.53-2.28.84-3.41.4-1.44.63-2.95.91-4.43.12-.61.19-1.22.31-1.91s.15-1.31.28-1.91a31.46,31.46,0,0,0,.35-4.22V165.6a5.34,5.34,0,0,1,.17-1.2ZM362.27,59.17a52.77,52.77,0,0,0-7.75.31,15.18,15.18,0,0,0-2.61.25,11.21,11.21,0,0,1-2.58.28c-1.41.23-2.82.52-4.25.71a7.48,7.48,0,0,0-1.81.32c-1,.36-2.09.5-3.1.84s-2.08.57-3.09.91a60.91,60.91,0,0,0-7.87,3.2c-1.77.92-3.54,1.91-5.27,2.88-1.34.82-2.59,1.75-3.81,2.65S318,73.16,316.93,74c-.63.54-1.24,1.11-1.91,1.64s-1.31,1-1.91,1.6c-.85.9-1.69,1.79-2.51,2.71-1.39,1.58-2.84,3.1-4.12,4.78A40.28,40.28,0,0,0,304,87.94c-1,1.72-2.23,3.28-3.24,5s-2.13,3.32-3.11,5c-1.18,2.12-2.21,4.31-3.33,6.44-1.39,2.63-2.61,5.34-3.81,8.08-.51,1.24-1.09,2.46-1.64,3.68a17.09,17.09,0,0,0-1.18,2.53c-.4,1.39-1.05,2.67-1.52,4s-1.07,2.78-1.64,4.16c-.95,2.3-1.79,4.66-2.73,7-.55,1.33-1.1,2.67-1.6,4s-.63,2.15-1.08,3.16a61.28,61.28,0,0,0-2.25,6.16c-1.2,3.56-2.54,7.08-3.49,10.74-.4,1.49-.93,2.94-1.37,4.4s-.8,2.88-1.22,4.33a21.83,21.83,0,0,0-.86,2.78,60.26,60.26,0,0,0-1.54,6.74,13,13,0,0,0-.88,3.11,9.19,9.19,0,0,0-.62,3.2,31.51,31.51,0,0,0-1.19,4.78c-.24.76,0,1.74-.38,2.4s.12,1.68-.55,2.33a47,47,0,0,1-.65,4.87,9.84,9.84,0,0,1-.3,2.42,7.59,7.59,0,0,0-.25,1.7,15.94,15.94,0,0,1-.29,1.68A9.38,9.38,0,0,1,263,205a9.64,9.64,0,0,0,0,2.4c0,.76-.27,1.51-.27,2.27v8.59c0,.31-.11.67,0,.9.46.68.19,1.43.29,2.13s.21,1.43.28,2.14a10.86,10.86,0,0,0,.36,2.72c.39.92.27,1.91.86,2.8a28.63,28.63,0,0,0,2.71,7.62c.34.73.82,1.37,1.2,2.08a21.62,21.62,0,0,0,3.18,4.53,32,32,0,0,0,5.16,4.92c1.45,1,2.84,2.06,4.37,2.93a36.47,36.47,0,0,0,6.3,2.94c1.58.55,3.16,1.1,4.76,1.6a16.37,16.37,0,0,1,1.91.34c.53.25,1.28.23,1.91.51a9.42,9.42,0,0,0,1.9.31c1.39.32,2.84.32,4.25.63a19.22,19.22,0,0,0,2.4,0,20.07,20.07,0,0,0,2.44.3h8.27a7.36,7.36,0,0,0,2.76-.23,8.33,8.33,0,0,1,2.23,0c.78,0,1.52-.26,2.29-.28a13.53,13.53,0,0,1,3-.31c1.34-.53,2.79-.49,4.14-.89s2.78-.53,4.11-1a76.39,76.39,0,0,0,9.23-3.55,61.81,61.81,0,0,0,7.29-4.17c1.51-1,2.94-2.13,4.42-3.18s3.2-2.67,4.78-4a43.72,43.72,0,0,0,4.23-4.38c1.81-2,3.61-4.1,5.26-6.27,1-1.28,1.91-2.61,2.84-3.94s1.91-2.94,2.86-4.37c1.79-2.65,3.2-5.52,4.84-8.25.84-1.39,1.48-2.89,2.25-4.32,1.33-2.52,2.66-5,3.81-7.62.74-1.91,1.69-3.51,2.53-5.28.61-1.3,1.24-2.61,1.75-3.94.84-2.16,1.91-4.23,2.63-6.44.46-1.39,1.15-2.73,1.66-4.12a20.82,20.82,0,0,0,1.53-4.19,61.21,61.21,0,0,0,2.95-7.62c1.05-2.67,1.9-5.45,2.74-8.19.57-1.74,1-3.51,1.53-5.24.38-1.26.89-2.46,1.18-3.81s.78-2.88,1.16-4.33.89-3.47,1.26-5.2a25.6,25.6,0,0,0,.91-4.74c.6-2.08,1.1-4.19,1.49-6.31.25-.76.11-1.66.36-2.42s.09-1.62.57-2.33a41.54,41.54,0,0,1,.65-4.85,12.23,12.23,0,0,1,.3-2.42,3.57,3.57,0,0,0,.23-1.55c-.09-.63.29-1.12.33-1.69a14.14,14.14,0,0,1,.24-2.9,15,15,0,0,0,0-2.84c0-1,.31-1.9.27-2.89a38.42,38.42,0,0,0-.25-7.11c-.21-1,.21-2.19-.13-3.1s.19-2.08-.5-3a36.8,36.8,0,0,0-.85-4.76,39.93,39.93,0,0,0-2.33-7.16,34.37,34.37,0,0,0-10.7-14.07,10.83,10.83,0,0,0-1.4-1,45.25,45.25,0,0,0-5.86-3.25c-1-.38-1.91-.94-3-1.26a10.58,10.58,0,0,0-3.2-1,33.9,33.9,0,0,0-6.8-1.72c-1.31-.26-2.65-.44-4-.61a44,44,0,0,0-5-.32c-1.57-.15-3.34-.12-5.64-.12ZM92.75,108.48c1.51.13,2.92.4,4.33.38a81.1,81.1,0,0,0,9.22-.23c2.88-.36,5.83.16,8.75-.32a33.29,33.29,0,0,0,3.6-.1c1.33-.38,2.68,0,4-.49.82-.31,1.9-.1,2.68-.38a16.35,16.35,0,0,1,1.91-.33c1.9-.63,3.81-1,5.71-1.73a32.11,32.11,0,0,0,3.47-1.45c.78-.44,1.55-.87,2.35-1.26a16.5,16.5,0,0,0,4-2.72,26.22,26.22,0,0,0,5.52-6.27,36.68,36.68,0,0,0,2.23-4.8,9.93,9.93,0,0,0,.92-3.68c.66-.74.15-1.67.47-2.51a7.44,7.44,0,0,0,.12-2.82,7,7,0,0,0-.29-3.18c.17-1.7-1-3-1.24-4.61a31,31,0,0,0-3.62-4.82c-.38-.37-.87-.61-1.23-1a19.58,19.58,0,0,0-4-2.76,34.18,34.18,0,0,0-5.56-2.57,65.75,65.75,0,0,0-7-1.91c-1.2-.28-2.44-.36-3.66-.57a31.32,31.32,0,0,0-4.84-.32H112.4c-2.71,0-5.43.55-8.16.32a11.72,11.72,0,0,1-3.64.31h-.15c-.55.45-1.22.23-1.9.3l-1.91.29a8.94,8.94,0,0,0-2.86.38c-.8.36-1.69-.15-2.34.53a17.08,17.08,0,0,0-2.92.55,17.7,17.7,0,0,0-3.27.86A70.89,70.89,0,0,0,78.43,64a52.21,52.21,0,0,0-4.77,2.29,55.63,55.63,0,0,0-4.89,3.14c-1.76,1.3-3.43,2.65-5.07,4.08s-3.2,3.16-4.8,4.76a4.17,4.17,0,0,0-.63.63C57.34,80.4,56.1,81.64,55,83c-.8,1-1.51,2.09-2.25,3.14q-2.64,3.81-5,7.72c-1.2,2-2.34,4.06-3.43,6.11q-3.2,6-6,12.25a21.42,21.42,0,0,0-1.12,2.25c-.78,2.23-1.91,4.31-2.82,6.52-.69,1.75-1.6,3.45-2.27,5.22-.3.78-.76,1.5-1,2.28-.59,1.91-1.5,3.7-2.13,5.61-.4,1.18-1.13,2.26-1.47,3.44-.61,2.12-1.7,4-2.13,6.2a18.9,18.9,0,0,0-1.76,4.55c-.59,1.51-1.1,3-1.58,4.61-.89,3-1.9,5.91-3,8.86-.33,1-.65,1.91-.94,2.93a25.85,25.85,0,0,1-.62,2.6c-.35.87-.54,1.79-.84,2.66-.54,1.55-.84,3.17-1.26,4.75-.25,1-.57,1.9-.8,3-.38,1.67-.95,3.35-1.24,5s-.74,3.45-1.05,5.18-.74,3.41-1,5.11a43.45,43.45,0,0,0-.73,4.84,10,10,0,0,1-.3,2.42A7.42,7.42,0,0,0,10,202c0,.57-.23,1.12-.29,1.7a9.38,9.38,0,0,1-.26,2.3,8.33,8.33,0,0,0,0,2.23c0,.73-.27,1.43-.29,2.13v5.87a22.39,22.39,0,0,0,.29,5.72c-.21,1,.38,1.9.3,2.89.52.52.17,1.21.38,1.8.54,1.44.86,2.95,1.39,4.38s1.09,2.78,1.74,4.11a21.39,21.39,0,0,0,1.9,3.41A27,27,0,0,0,19,243.28c.46.42.71,1.16,1.2,1.41A8.58,8.58,0,0,1,21.73,246c.64.53,1.23,1.11,1.9,1.62A47.75,47.75,0,0,0,30.3,252a33.55,33.55,0,0,0,5.09,2.26c1.08.38,2.23.65,3.31,1.07s2.35.63,3.51,1a23.77,23.77,0,0,1,3.43.82c.8-.21,1.5.27,2.28.29a5.38,5.38,0,0,1,2.42.3,42.36,42.36,0,0,1,6.37.32,15.38,15.38,0,0,0,1.9-.32,27.61,27.61,0,0,0,5.6-.27c.92-.23,1.91.14,2.88-.32,1.77.15,3.43-.63,5.16-.61.65-.5,1.45-.13,2.12-.38,1.07-.4,2.19-.5,3.26-.84s2.07-.51,3.1-.86c1.34-.44,2.71-.72,4-1.25,1.62-.69,3.32-1.2,4.88-2s3.58-1.79,5.32-2.78a33.23,33.23,0,0,0,2.82-1.91A39.86,39.86,0,0,0,103,242c.43-.44.76-1,1.2-1.45a24.09,24.09,0,0,0,3.41-4.91,25,25,0,0,0,2.32-5.07,30.32,30.32,0,0,0,1.6-8.21,4.71,4.71,0,0,1,.29-2.6.76.76,0,0,0,0-.59c-.48-.68-.23-1.42-.31-2.15s-.17-1.52-.3-2.29c0-.17-.21-.3-.25-.47a11,11,0,0,0-.91-2.5,14.32,14.32,0,0,0-2.2-3.6c-.89-.84-1.75-1.71-2.72-2.49a22.56,22.56,0,0,0-5.81-3.05,27.76,27.76,0,0,0-3.91-1.13c-1.37-.32-2.82-.38-4.25-.63-1,0-2,0-3,0s-1.9-.22-2.87-.26a21.08,21.08,0,0,0-3.64.25,52.06,52.06,0,0,0-5.72.3,16.78,16.78,0,0,0-2.74.31c-.65.26-1.39,0-2.15.26s-1.39.1-2.12.33-1.68.09-2.4.38-1.26.11-1.9.32c-1.51.59-3.13.67-4.65,1.13-1,.32-2.14.55-3.36.87a7.39,7.39,0,0,0,.37-1.24,30,30,0,0,1,1.29-5.18A36,36,0,0,1,60,192.9a20.87,20.87,0,0,1,1-3.81c.29-1.29.8-2.49,1.13-3.81a26.66,26.66,0,0,1,1-2.88,15.59,15.59,0,0,0,1-2.89c.13-1.07.93-1.91,1-2.94.51-.3,0-1.23.93-1.35a2,2,0,0,0,.59.31,12.19,12.19,0,0,1,1.91.26c1.29.27,2.63.38,4,.59.8.14,1.62.27,2.42.35a5.93,5.93,0,0,1,2.44.3c1.91-.23,3.81.42,5.72.31a56.09,56.09,0,0,0,8.3-.29c.78-.15,1.62-.15,2.44-.25a42.84,42.84,0,0,0,4.75-.93c.91-.21,1.79-.53,2.68-.8a20.4,20.4,0,0,0,2.73-1,26.39,26.39,0,0,0,8.61-6.1c.61-.64,1.12-1.37,1.73-2a14.5,14.5,0,0,0,2.19-3.14,31.19,31.19,0,0,0,1.91-4c.53-1.19,1-2.4,1.41-3.64a11.93,11.93,0,0,0,.91-3.81c.38-.29.27-.71.33-1.09a7.15,7.15,0,0,0,.26-1.22,38.81,38.81,0,0,0-.23-5.6,12.16,12.16,0,0,0-2.55-5.43,16.23,16.23,0,0,0-7.39-4.65,44.94,44.94,0,0,0-6.17-1.45,28,28,0,0,0-4.39-.32H91.86a46.09,46.09,0,0,1-4.84.32h-.46c-.53.58-1.22.2-1.9.29s-1.22.23-1.91.31l-2.15.19c.61-1.53,1.26-3.09,1.9-4.67.38-1,1-1.91,1.34-2.92s.8-1.67,1.12-2.55a28.25,28.25,0,0,1,1.18-2.67c1-1.9,1.91-3.9,3.07-5.81.69-1.16,1.26-2.38,1.91-3.56C91.8,109.72,92.26,109.15,92.75,108.48Zm-127.4,95.26a48.1,48.1,0,0,1,2.15-5c.75-1.9,1.79-3.66,2.61-5.54,1-2.35,2.29-4.56,3.3-6.9,1.2-2.78,2.72-5.39,3.92-8.17s2.94-5.72,4.23-8.79,2.73-5.27,3.81-8c1-2.4,2.35-4.63,3.36-7.05.76-1.9,1.9-3.64,2.66-5.52.65-1.49,1.38-2.94,2.06-4.4.92-1.91,1.91-4,2.75-6s1.79-4.07,2.72-6.09a33.61,33.61,0,0,0,1.73-3.64c.33-1,.9-1.91,1.28-3a28.93,28.93,0,0,1,1.2-3c.86-1.69,1.56-3.47,2.31-5.22s1.44-3.31,2.05-5c.44-1.24,1-2.42,1.38-3.66.59-1.69,1.35-3.35,1.9-5.07s1.11-3,1.64-4.44c1.22-3.31,2.25-6.7,3.22-10.09a13.8,13.8,0,0,0,.67-2.42c0-.61.36-1.11.34-1.7A13.3,13.3,0,0,1,17,83.46a4.9,4.9,0,0,1,.29-1.65c.34-.73,0-1.53.28-2.14a4.73,4.73,0,0,0,.25-2.3,25.53,25.53,0,0,0-.23-5.17,23.4,23.4,0,0,0-.66-2.87A10.13,10.13,0,0,0,14.37,65c-.32-.29-.65-.63-.95-1a13.53,13.53,0,0,0-4.33-2.63,9.79,9.79,0,0,0-1.9-.61,12.54,12.54,0,0,1-1.91-.34,4,4,0,0,0-2.13-.25c-.74.12-1.31-.28-1.91-.34-2.32-.17-4.61.42-6.95.32h-.06a28.66,28.66,0,0,1-4.3.84,40,40,0,0,0-5.72,1.91,32.06,32.06,0,0,0-9.52,6.29,38.56,38.56,0,0,0-4,4.23,35.69,35.69,0,0,0-2.15,3c-.71,1-1.35,2.17-2.08,3.2-1.5,2.17-2.72,4.49-4.11,6.74s-2.25,4.17-3.39,6.27c-1.6,2.93-2.92,6-4.67,8.9-.36.59-.46,1.31-.76,1.9-1.47,3-3,6-4.44,9s-2.59,5.55-3.81,8.33c-1.09,2.36-2.14,4.74-3.2,7.11a23.21,23.21,0,0,0-1.07,2.42c-.65,1.9-1.49,3.62-2.27,5.39-.67,1.48-1.24,3-1.9,4.47s-1.15,2.84-1.7,4.27c-.42,1.13-1,2.21-1.37,3.36-.65,2-1.49,4-2.29,6-1,2.42-1.9,4.86-2.78,7.28s-1.64,4.46-2.38,6.7c-.53,1.59-1.05,3.17-1.6,4.75a79.42,79.42,0,0,0-2.55,7.83c-.31,1.07-.73,2.11-1,3.18-.52,1.7-1,3.39-1.51,5.09-.3,1-.63,2-.91,3.08-.46,1.74-.88,3.45-1.32,5.19a30,30,0,0,0-1,4.07,15.67,15.67,0,0,0-.67,3.64,10.88,10.88,0,0,0-.84,3.26c-.38,1.56-.61,3.16-.9,4.74s-.4,2.94-.62,4.42c-.14.84.13,1.76-.33,2.58a43.13,43.13,0,0,1-.28,4.4,35.88,35.88,0,0,0,.26,6.95,16.47,16.47,0,0,0,.27,2.14c.25,1,.4,2,.65,3a19.87,19.87,0,0,1,.91,3.09A36.37,36.37,0,0,0-81,246a23.31,23.31,0,0,0,5.71,5A31.14,31.14,0,0,0-68,254.5c1.5.44,3,1,4.53,1.39a31.92,31.92,0,0,0,4.75.84,36.53,36.53,0,0,0,5.33.36c3-.11,6,0,9,0a28.22,28.22,0,0,1,4.4-.31h.16a1.79,1.79,0,0,1,1.52-.28c.61,0,1.13-.32,1.7-.31,1.54,0,3-.61,4.55-.62.5-.42,1.16-.14,1.66-.35a16.1,16.1,0,0,1,2.17-.57c.78-.17,1.56-.42,2.31-.65a15.71,15.71,0,0,0,2.36-.82,18.94,18.94,0,0,1,2.19-.89c.78-.29,1.56-.57,2.32-.94a42.75,42.75,0,0,0,10.65-7A29,29,0,0,0-4.57,240a33.24,33.24,0,0,0,3.93-6.65A34,34,0,0,0,1.26,228c.29-1,.39-1.91.67-2.9a36.67,36.67,0,0,0,.8-4.78,24.23,24.23,0,0,0,0-3.81,9.45,9.45,0,0,0-.8-3.43,13.61,13.61,0,0,0-4.4-6,24.45,24.45,0,0,0-7.83-3.64c-1.37-.38-2.78-.44-4.15-.84a10.58,10.58,0,0,0-2.25,0c-.76,0-1.53-.25-2.29-.27H-22.3c-1.11,0-2.1.39-3.19.35a35.35,35.35,0,0,0-4.24.26h-.16c-.49.48-1.1.23-1.67.31s-1.13.19-1.68.29Z" transform="translate(138.2 138.06)"/><path class="cls-3" d="M257.94,164.4a5.36,5.36,0,0,0-.27,1.1v1.91a31.47,31.47,0,0,1-.34,4.23c-.13.67-.15,1.33-.29,1.9s-.19,1.22-.3,1.91c-.29,1.49-.52,3-.92,4.44-.3,1.12-.47,2.29-.83,3.41-.5,1.56-.75,3.2-1.26,4.74-.38,1.2-.67,2.42-1.16,3.59s-.8,2.38-1.22,3.56-.67,2-1.07,3a101.11,101.11,0,0,1-4.33,9.64c-.6,1.22-1.27,2.38-1.9,3.6S242.64,213.8,242,215c-1.2,2.19-2.61,4.25-4,6.31a63.58,63.58,0,0,1-3.92,5.16c-1,1.3-2.14,2.54-3.19,3.81a67.27,67.27,0,0,1-6.34,6.52c-1.54,1.45-3.18,2.82-4.88,4.13s-3.22,2.42-4.88,3.57-3.2,2.13-4.87,3.06c-2.21,1.22-4.46,2.33-6.73,3.43-1.29.63-2.61,1.22-3.94,1.72s-3.18,1.07-4.77,1.58-2.68.84-4,1.16L188,256c-.82.23-1.68.29-2.48.56a13.84,13.84,0,0,1-2.57.36c-.61,0-1.22.21-1.91.28s-1.18-.17-1.67.31H179c-2,.09-4,.25-6,.28a43.2,43.2,0,0,1-6,0,34.48,34.48,0,0,0-3.81-.24c-.49,0-.86-.37-1.39-.33a2.67,2.67,0,0,1-1.58-.15c-.38-.21-1,0-1.45-.13-1.66-.54-3.41-.67-5.07-1.19a44.8,44.8,0,0,1-4.93-1.54,62.6,62.6,0,0,1-9.05-4.7,41.08,41.08,0,0,1-7.62-6.86,37.27,37.27,0,0,1-4.44-6.42,50.22,50.22,0,0,1-2.71-5.81,35.82,35.82,0,0,1-1.65-5.34,5.18,5.18,0,0,0-.44-1.77c-.38-.59.19-1.34-.46-1.79v-.44a14.91,14.91,0,0,0-.59-3.81.81.81,0,0,1,0-.31,88,88,0,0,1-.25-10.4,31.49,31.49,0,0,1,.31-4.25,27.69,27.69,0,0,0,.24-2.89,13.72,13.72,0,0,1,.29-1.53,7.38,7.38,0,0,1,.25-1.39,11,11,0,0,0,.3-2.28c.16-1.53.5-3,.73-4.56a25.85,25.85,0,0,1,.74-3.58c.36-1.16.42-2.42.72-3.62.37-1.51.61-3,1.09-4.52s.61-2.85,1-4.24.82-3.07,1.26-4.6,1.06-3.39,1.45-5.12c.13-.53.45-1,.59-1.56a39.41,39.41,0,0,1,1.44-4.67c.61-1.56,1-3.18,1.57-4.78s1-3.11,1.52-4.63,1.28-3.49,1.91-5.22c.91-2.33,1.75-4.69,2.74-7s1.75-4.19,2.69-6.26q1.2-2.67,2.34-5.36c2.3-5.52,5.11-10.82,7.81-16.17,1.3-2.54,2.8-5,4.29-7.43s3.24-5.19,5-7.62c.91-1.34,1.91-2.63,2.82-4s2.34-2.68,3.31-4.19a1.39,1.39,0,0,1,.21-.21c2-2.13,4-4.27,6.08-6.36.54-.55,1.2-1,1.77-1.51l1.78-1.52c1-.84,2-1.62,3.06-2.44,1.41-1.12,3-2,4.46-3a61.37,61.37,0,0,1,8.77-4.67,47.26,47.26,0,0,1,7.27-2.76c1.76-.49,3.53-1,5.32-1.37a13.14,13.14,0,0,0,3.26-.84c.89.21,1.69-.3,2.57-.32A8.9,8.9,0,0,0,214,59.8c.52-.09,1.11.23,1.53-.3h.15c1.24.23,2.4-.38,3.64-.31,1.68.12,3.29-.42,5-.32s3.52,0,5.28,0h5.1a35.34,35.34,0,0,0,4.71.28,5.26,5.26,0,0,0,2.42.33,13.44,13.44,0,0,1,1.54.28,4,4,0,0,1,1.41.25,7.26,7.26,0,0,0,1.91.31,57.44,57.44,0,0,1,10.72,2.85,32.44,32.44,0,0,1,5.72,2.61,47,47,0,0,1,5.43,3.62,24.68,24.68,0,0,1,3.33,3.13,23,23,0,0,1,4.9,8.06A17.65,17.65,0,0,1,278.27,85c.3.88.11,1.91.36,2.86a36.58,36.58,0,0,1,.29,6.36,11.81,11.81,0,0,1-.31,2.44,10,10,0,0,1-.27,2.31,11.68,11.68,0,0,0-.34,2.7,9.85,9.85,0,0,1-.3,1.53c-.42,1.21-.46,2.51-.94,3.69s-.72,2.31-1.18,3.41a42,42,0,0,1-3.1,6.4,31.23,31.23,0,0,1-3.89,5.17c-.72.78-1.51,1.45-2.27,2.17a14.6,14.6,0,0,1-2.38,1.9,28.56,28.56,0,0,1-6.23,3.17c-1.45.53-2.93.89-4.38,1.39a8.63,8.63,0,0,1-2.42.34c-.67,0-1.26.46-1.91.34a2.4,2.4,0,0,0-1.9.29c-1.45-.17-3,.34-4.4-.31h-.59a21.26,21.26,0,0,1-6.42-1.2,22.49,22.49,0,0,1-4.73-2.43,9.55,9.55,0,0,1-3.49-4.42,15.45,15.45,0,0,1-.82-3.28v-2.4a17.67,17.67,0,0,1,1.09-5.58c.57-1.78,1.12-3.55,1.62-5.36a12.27,12.27,0,0,0,.3-2.27,6.35,6.35,0,0,0-.91-3.23,3.9,3.9,0,0,0-2.38-1.72,7.81,7.81,0,0,0-3.66-.65c-.4,0-.88.19-1.28-.21a.78.78,0,0,0-.7,0c-.84.42-1.75.12-2.59.31a23.54,23.54,0,0,0-4,1.14,19,19,0,0,0-3.93,2.15,27.25,27.25,0,0,0-2.38,1.91,29,29,0,0,0-3.81,4c-1.08,1.54-2.19,3.09-3.18,4.71a67.9,67.9,0,0,0-4.46,8.38c-.86,2-1.9,3.81-2.7,5.94-.54,1.45-1.43,2.75-1.91,4.18s-1.37,3-1.9,4.64c-.27.88-.86,1.66-1.17,2.54-.83,2.4-1.9,4.76-2.78,7.12-.78,1.91-1.54,3.81-2.28,5.83-1.07,2.82-2.14,5.72-3.09,8.5-1.12,3.41-2.36,6.77-3.35,10.21-.38,1.34-.84,2.67-1.28,4s-.63,2.78-1.16,4c-.9,2.18-1,4.58-2,6.69A13.81,13.81,0,0,1,172,188a20.23,20.23,0,0,1-.78,3.25,10.85,10.85,0,0,0-.36,2.27c-.1.57-.21,1.12-.29,1.68s.14,1.06-.28,1.56c-.14.13,0,.48,0,.72,0,1.76-.14,3.53,0,5.28a11.08,11.08,0,0,0,3.08,7.3,9.53,9.53,0,0,0,4.39,2.15,20.4,20.4,0,0,0,6.19.25,15.68,15.68,0,0,0,4.46-1.2,23.38,23.38,0,0,0,2.84-1.51,29.45,29.45,0,0,0,7.77-6.65,27.09,27.09,0,0,0,3.81-5.33c.88-1.66,1.79-3.26,2.63-4.94a53.31,53.31,0,0,0,2.19-5.71c.48-1.32.63-2.73,1.18-4a3.45,3.45,0,0,0,0-1.2,33.87,33.87,0,0,1-3.47-.42,25.41,25.41,0,0,1-3.6-1.12,15.22,15.22,0,0,1-5.89-3.55,10.79,10.79,0,0,1-2.76-5.71c-.11-.92-.17-1.91-.26-2.73a10.28,10.28,0,0,1,.34-2.13,8.21,8.21,0,0,1,.32-2.14c.36-1.18.73-2.4,1.16-3.58s.79-2.28,1.28-3.37a39.12,39.12,0,0,1,2.63-4.63,23.14,23.14,0,0,1,4.52-5.2,25.64,25.64,0,0,1,5.71-3.53A37.8,37.8,0,0,1,214.1,142c1.6-.43,3.26-.64,4.88-.95a17.36,17.36,0,0,0,2.44-.26c1.4-.39,2.87,0,4.24-.31a31.51,31.51,0,0,1,6.06-.25,29,29,0,0,1,4.84.31,35.58,35.58,0,0,1,6.75,1.5,26,26,0,0,1,6.46,3.38,20,20,0,0,1,6.19,8.13,26.85,26.85,0,0,1,1.62,9.85C257.65,163.73,257.56,164.15,257.94,164.4Z" transform="translate(138.2 138.06)"/><path class="cls-3" d="M362.35,59.13h5.83a46.45,46.45,0,0,1,5,.33c1.31.17,2.65.34,4,.61a33.88,33.88,0,0,1,6.8,1.71,10.58,10.58,0,0,1,3.2,1c1,.33,1.91.88,3,1.26A45.32,45.32,0,0,1,396,67.27a10,10,0,0,1,1.4,1,34.34,34.34,0,0,1,10.7,14.06,40.19,40.19,0,0,1,2.33,7.16,36.65,36.65,0,0,1,.85,4.77c.69.87.14,1.9.5,3s0,2.1.13,3.11a38.28,38.28,0,0,1,.25,7.1c0,1-.21,1.91-.27,2.9a15,15,0,0,1,0,2.84,14.41,14.41,0,0,0-.36,2.93c0,.57-.42,1.07-.32,1.7a3.68,3.68,0,0,1-.23,1.54,12.42,12.42,0,0,0-.3,2.42,39.93,39.93,0,0,0-.65,4.86c-.48.7-.33,1.56-.57,2.32s-.12,1.66-.37,2.42q-.59,3.19-1.48,6.31a24.67,24.67,0,0,1-.92,4.74c-.36,1.74-.82,3.47-1.25,5.2s-.82,2.88-1.17,4.33-.8,2.48-1.18,3.81c-.51,1.73-1,3.51-1.52,5.24-.9,2.74-1.7,5.52-2.75,8.19a61.21,61.21,0,0,1-2.95,7.62A20,20,0,0,1,394.3,181c-.52,1.39-1.2,2.73-1.66,4.12-.72,2.21-1.79,4.29-2.63,6.44-.51,1.33-1.14,2.65-1.75,3.94-.84,1.77-1.79,3.47-2.54,5.28a71.25,71.25,0,0,1-3.81,7.62c-.76,1.43-1.41,2.94-2.25,4.33-1.63,2.72-3,5.6-4.83,8.25-1,1.43-1.91,2.93-2.86,4.36s-1.91,2.67-2.84,3.94c-1.66,2.18-3.45,4.23-5.26,6.27a43.76,43.76,0,0,1-4.23,4.38c-1.58,1.36-3.07,2.82-4.78,4s-2.92,2.14-4.42,3.19a64.24,64.24,0,0,1-7.3,4.17,75.56,75.56,0,0,1-9.22,3.54c-1.33.46-2.76.61-4.12,1a37.12,37.12,0,0,0-4.13.9,13.61,13.61,0,0,0-3.05.3c-.76,0-1.5.23-2.28.29a7.58,7.58,0,0,0-2.23,0,7.83,7.83,0,0,1-2.77.23h-8.27a22.11,22.11,0,0,1-2.43-.31,19.22,19.22,0,0,1-2.4,0c-1.41-.3-2.86-.3-4.25-.63a10.27,10.27,0,0,1-1.91-.3c-.61-.29-1.27-.25-1.9-.52s-1.34-.15-1.91-.34c-1.6-.49-3.18-1-4.76-1.6a36.87,36.87,0,0,1-6.31-2.93c-1.52-.88-2.91-1.91-4.36-2.94a32,32,0,0,1-5.16-4.91,21.36,21.36,0,0,1-3.19-4.54c-.38-.7-.85-1.35-1.2-2.07a29.15,29.15,0,0,1-2.7-7.63c-.59-.83-.48-1.9-.86-2.8a10.36,10.36,0,0,1-.36-2.72,19.78,19.78,0,0,0-.29-2.13c-.07-.73.17-1.45-.28-2.14-.14-.23,0-.59,0-.89v-8.6c0-.76.21-1.5.26-2.26a10.7,10.7,0,0,1,0-2.4,9.47,9.47,0,0,0,.27-2.31,13.15,13.15,0,0,1,.29-1.68,7.41,7.41,0,0,1,.24-1.69,10.42,10.42,0,0,0,.31-2.42,47.24,47.24,0,0,0,.65-4.88c.66-.65.11-1.56.55-2.32s.13-1.64.38-2.4a31.6,31.6,0,0,1,1.18-4.79,9.25,9.25,0,0,1,.63-3.2,12.35,12.35,0,0,1,.88-3.1,57.82,57.82,0,0,1,1.54-6.75,21.24,21.24,0,0,1,.86-2.78c.42-1.45.8-2.89,1.22-4.32s1-2.92,1.37-4.4c.95-3.66,2.28-7.19,3.48-10.75q1-3.14,2.25-6.15c.46-1,.71-2.12,1.09-3.17s1.05-2.66,1.6-4c.93-2.32,1.77-4.68,2.72-7,.58-1.37,1.13-2.74,1.64-4.15s1.13-2.63,1.53-4a15.83,15.83,0,0,1,1.18-2.54c.55-1.22,1.12-2.44,1.64-3.67,1.16-2.75,2.38-5.45,3.81-8.08,1.12-2.14,2.15-4.33,3.33-6.44,1-1.72,2.12-3.34,3.11-5s2.21-3.28,3.24-5a38.68,38.68,0,0,1,2.51-3.19c1.28-1.67,2.72-3.2,4.12-4.78.82-.91,1.65-1.81,2.51-2.7a23.08,23.08,0,0,1,1.91-1.6c.64-.54,1.22-1.11,1.9-1.64,1.05-.88,2.08-1.74,3.2-2.52s2.54-1.9,3.81-2.65c1.74-1,3.51-1.9,5.28-2.87a60.44,60.44,0,0,1,7.89-3.17c1-.34,2.06-.57,3.08-.91s2.08-.48,3.11-.84a7.48,7.48,0,0,1,1.81-.32c1.43-.19,2.84-.48,4.25-.71a11.12,11.12,0,0,0,2.57-.28,15.28,15.28,0,0,1,2.61-.25A54.05,54.05,0,0,1,362.35,59.13ZM316.62,212.72a16.28,16.28,0,0,1,1.75.24,11.86,11.86,0,0,0,5.32-.57,10.85,10.85,0,0,0,4.93-3,41.28,41.28,0,0,0,2.9-3.16,43.07,43.07,0,0,0,3.56-5.6c1.26-2.5,2.61-4.94,3.66-7.53.57-1.47,1.2-2.91,1.91-4.34,1.1-2.46,2.09-5,3.14-7.43.84-2,1.71-4,2.42-6.08.4-1.18.86-2.36,1.33-3.51s.92-2.63,1.47-3.92.8-2.17,1.2-3.26c.55-1.49,1-3,1.62-4.44.86-2.08,1.47-4.21,2.27-6.29s1.48-4.4,2.19-6.63c.44-1.41.93-2.82,1.45-4.21a28.24,28.24,0,0,0,1.44-4.21c.29-1.48.9-2.86,1.28-4.3s1-3.4,1.51-5.09a30.22,30.22,0,0,0,.87-2.95c.29-1.78.92-3.45,1.34-5.19.49-2.09,1-4.21,1.39-6.32a5.24,5.24,0,0,0,.3-2.29c.57-.65.21-1.43.31-2.13s.24-1.43.28-2.14a3.56,3.56,0,0,0-.28-2.13,7,7,0,0,0-1.05-3.81,5.51,5.51,0,0,0-3-2.59,14.51,14.51,0,0,0-3.62-.71,9.12,9.12,0,0,0-1.81,0c-.61,0-1.22.27-1.91.27a9.18,9.18,0,0,0-3.14.78,14.5,14.5,0,0,0-5.07,3.81,31.86,31.86,0,0,0-2.46,3.22,73.38,73.38,0,0,0-3.66,6.46c-.47.86-.8,1.77-1.2,2.67-.64,1.43-1.35,2.84-2,4.27-.89,1.9-1.81,4-2.65,6-.32.78-.74,1.52-1,2.28-.69,1.91-1.53,3.82-2.31,5.84-.44,1.12-.91,2.22-1.33,3.35-.63,1.64-1.19,3.33-1.91,4.95s-1.18,3-1.75,4.54-1.09,3.06-1.64,4.59-1.33,3.56-1.91,5.35c-.45,1.32-.87,2.65-1.31,4-.76,2.25-1.6,4.48-2.34,6.73-.63,1.91-1.07,3.81-1.76,5.58a23.15,23.15,0,0,0-1.18,3.43c-.42,2-1.2,3.93-1.66,5.95-.36,1.52-1.06,3-1.35,4.55a62.47,62.47,0,0,0-1.54,7,18.47,18.47,0,0,0-1.13,5.54,15.37,15.37,0,0,0,.21,5.89,9.59,9.59,0,0,0,3.62,5.36c.63.51,1.51.59,2.23,1.18Z" transform="translate(138.2 138.06)"/><path class="cls-3" d="M92.75,108.48c-.49.72-1,1.3-1.31,1.91-.67,1.18-1.24,2.4-1.91,3.56-1.1,1.9-2.11,3.81-3.06,5.81-.44.88-.82,1.77-1.18,2.67s-.84,1.64-1.13,2.55-1,1.91-1.33,2.91c-.61,1.59-1.26,3.15-1.91,4.67l2.16-.19a12.24,12.24,0,0,0,1.9-.3c.67-.12,1.3.28,1.91-.29h.45a45.91,45.91,0,0,0,4.84-.32h8.73a27.89,27.89,0,0,1,4.38.32,43.53,43.53,0,0,1,6.17,1.45,16.18,16.18,0,0,1,7.4,4.65,12.32,12.32,0,0,1,2.55,5.43,40.29,40.29,0,0,1,.23,5.6,7.39,7.39,0,0,1-.27,1.22,1.36,1.36,0,0,1-.32,1.09,12.28,12.28,0,0,1-.92,3.81,34,34,0,0,1-1.41,3.63,31.26,31.26,0,0,1-1.9,4,15.12,15.12,0,0,1-2.19,3.14c-.61.63-1.13,1.35-1.74,2a26.54,26.54,0,0,1-8.61,6.1,20.27,20.27,0,0,1-2.72,1c-.9.26-1.78.59-2.69.8a47.81,47.81,0,0,1-4.74.93c-.82.09-1.66.09-2.44.25a54.93,54.93,0,0,1-8.31.28c-1.91.12-3.81-.53-5.72-.3a5.91,5.91,0,0,0-2.43-.31,15.49,15.49,0,0,1-2.42-.34c-1.34-.21-2.67-.32-4-.59a12.08,12.08,0,0,0-1.9-.27,1.57,1.57,0,0,1-.59-.3c-.84.11-.42,1-.94,1.35,0,1.07-.82,1.91-1,2.93a14.75,14.75,0,0,1-1,2.9,26.66,26.66,0,0,0-1,2.88c-.32,1.27-.84,2.47-1.12,3.81a19.39,19.39,0,0,0-1.05,3.81,34.56,34.56,0,0,0-1.74,5.45,30.66,30.66,0,0,0-1.29,5.18,7.65,7.65,0,0,1-.36,1.24c1.22-.33,2.3-.55,3.35-.88,1.52-.46,3.14-.53,4.65-1.12.57-.21,1.2,0,1.9-.33s1.64-.13,2.41-.38,1.52,0,2.11-.32,1.51,0,2.15-.27a18.21,18.21,0,0,1,2.75-.3,51.75,51.75,0,0,1,5.71-.31,22.2,22.2,0,0,1,3.64-.25c1,0,1.91.23,2.88.27a25.19,25.19,0,0,1,3,0c1.43.25,2.88.31,4.25.63a28,28,0,0,1,3.9,1.12,22.55,22.55,0,0,1,5.81,3.05,30,30,0,0,1,2.73,2.5,14.4,14.4,0,0,1,2.19,3.6,10.54,10.54,0,0,1,.91,2.5c0,.17.23.3.25.47.13.76.23,1.53.31,2.29s-.18,1.46.3,2.15a.68.68,0,0,1,0,.59,4.6,4.6,0,0,0-.28,2.59,30.64,30.64,0,0,1-1.6,8.21,25.05,25.05,0,0,1-2.33,5.07,23.5,23.5,0,0,1-3.41,4.92c-.44.44-.76,1-1.2,1.45a40.65,40.65,0,0,1-5.22,4.4,33.12,33.12,0,0,1-2.82,1.9c-1.73,1-3.54,1.91-5.32,2.78s-3.25,1.36-4.87,2c-1.3.54-2.67.82-4,1.26-1,.34-2.08.51-3.11.86s-2.19.44-3.26.84c-.66.24-1.46-.12-2.11.38-1.74,0-3.39.76-5.17.61-.91.45-1.9.09-2.87.32a27.64,27.64,0,0,1-5.6.27,17.7,17.7,0,0,1-1.91.32,41,41,0,0,0-6.36-.32,5.55,5.55,0,0,0-2.42-.31c-.78,0-1.49-.49-2.29-.28a22.52,22.52,0,0,0-3.43-.82c-1.16-.36-2.36-.54-3.5-1s-2.23-.69-3.32-1.07a32.64,32.64,0,0,1-5.09-2.27,46.14,46.14,0,0,1-6.66-4.3c-.65-.52-1.24-1.09-1.91-1.62a8.92,8.92,0,0,0-1.54-1.34c-.5-.24-.75-1-1.2-1.41a26.1,26.1,0,0,1-3.81-4.76A21.53,21.53,0,0,1,13.59,235c-.65-1.33-1.2-2.72-1.73-4.12s-.86-2.93-1.39-4.38c-.21-.59.13-1.27-.38-1.79,0-1-.52-1.9-.31-2.89a22.39,22.39,0,0,1-.29-5.72V210.2c0-.7.23-1.41.29-2.13a8.33,8.33,0,0,1,0-2.23,10,10,0,0,0,.27-2.31,14.18,14.18,0,0,1,.28-1.69,8.11,8.11,0,0,1,.25-1.7,10.36,10.36,0,0,0,.31-2.42,44.13,44.13,0,0,1,.72-4.84c.3-1.69.76-3.41,1.05-5.1s.76-3.43,1.05-5.19.85-3.35,1.23-5c.23-1,.56-1.9.8-3,.42-1.58.73-3.2,1.26-4.74.31-.88.5-1.79.84-2.67a22.74,22.74,0,0,0,.63-2.59c.28-1,.61-1.9.93-2.93,1-3,2.06-5.89,3-8.86.47-1.56,1-3.11,1.58-4.61a19.54,19.54,0,0,1,1.75-4.56c.44-2.15,1.52-4.07,2.13-6.19.35-1.18,1.07-2.27,1.47-3.45.63-1.9,1.54-3.67,2.13-5.6.25-.78.71-1.5,1-2.29.67-1.77,1.59-3.46,2.27-5.22.86-2.21,2-4.28,2.82-6.51a19.71,19.71,0,0,1,1.13-2.25q2.84-6.22,6-12.25c1.09-2.06,2.23-4.12,3.43-6.12q2.36-3.95,5-7.71c.74-1,1.44-2.12,2.24-3.15,1.07-1.37,2.31-2.61,3.24-4.07a3.75,3.75,0,0,1,.63-.63c1.6-1.6,3.11-3.3,4.8-4.77s3.32-2.78,5.07-4.07q2.37-1.69,4.9-3.15,2.33-1.26,4.76-2.28a69.19,69.19,0,0,1,6.82-2.44,17.59,17.59,0,0,1,3.28-.86,16.06,16.06,0,0,1,2.91-.55c.65-.69,1.55-.17,2.35-.53A9.17,9.17,0,0,1,97,59.13l1.91-.28a2.85,2.85,0,0,0,1.91-.31h.15a11.74,11.74,0,0,0,3.64-.3c2.72.23,5.43-.38,8.15-.32s5.43,0,8.14,0a31.4,31.4,0,0,1,4.84.32c1.22.21,2.45.28,3.65.57a62.89,62.89,0,0,1,7,1.91A34.67,34.67,0,0,1,142,63.29a18.87,18.87,0,0,1,4,2.76c.36.36.86.61,1.24,1a32.63,32.63,0,0,1,3.62,4.82c.26,1.58,1.41,2.92,1.24,4.61a6.91,6.91,0,0,1,.28,3.19,7.59,7.59,0,0,1-.11,2.81c-.33.84.19,1.78-.48,2.52a9.82,9.82,0,0,1-.91,3.68,38.69,38.69,0,0,1-2.23,4.8,26.46,26.46,0,0,1-5.53,6.27,16.59,16.59,0,0,1-4,2.72c-.8.38-1.56.82-2.34,1.26a33.89,33.89,0,0,1-3.47,1.45c-1.91.76-3.81,1.1-5.72,1.73-.57.19-1.2.1-1.9.32s-1.91,0-2.69.39c-1.31.49-2.67.11-4,.49a33.29,33.29,0,0,1-3.6.1c-2.92.47-5.87,0-8.75.32a83.36,83.36,0,0,1-9.22.23C95.67,108.82,94.26,108.48,92.75,108.48Z" transform="translate(138.2 138.06)"/><path class="cls-3" d="M-34.65,203.74l1.58-.26c.55-.1,1.11-.21,1.68-.29s1.18.17,1.67-.3h.16a33.57,33.57,0,0,1,4.25-.27c1.08,0,2.11-.36,3.18-.34h3.31c.76,0,1.53.21,2.29.26a12.08,12.08,0,0,1,2.25,0c1.37.4,2.78.46,4.15.84A24.35,24.35,0,0,1-2.3,207a13.54,13.54,0,0,1,4.4,6,9.45,9.45,0,0,1,.8,3.43,24.23,24.23,0,0,1,0,3.81,36.67,36.67,0,0,1-.8,4.78c-.28.92-.38,1.91-.66,2.9a35.13,35.13,0,0,1-1.91,5.35A32.92,32.92,0,0,1-4.39,240a29.63,29.63,0,0,1-3.82,4.4,43.07,43.07,0,0,1-10.65,7c-.76.36-1.54.64-2.32.93a18.94,18.94,0,0,0-2.19.89,15.71,15.71,0,0,1-2.36.82c-.75.23-1.53.48-2.31.65a16.1,16.1,0,0,0-2.17.57c-.5.21-1.16,0-1.66.35-1.54,0-3,.64-4.55.62-.57,0-1.09.39-1.7.31a1.76,1.76,0,0,0-1.52.29h-.15a28.26,28.26,0,0,0-4.41.3c-3,0-6-.09-9,0a36,36,0,0,1-5.58-.4,31.57,31.57,0,0,1-4.74-.84c-1.55-.4-3-1-4.54-1.39a30.9,30.9,0,0,1-7.28-3.5,23.94,23.94,0,0,1-5.71-5,35.71,35.71,0,0,1-4.15-6.86,19.47,19.47,0,0,0-.92-3.08c-.25-1-.4-2-.65-3a20.86,20.86,0,0,0-.26-2.14,35.11,35.11,0,0,1-.27-6.95,43.14,43.14,0,0,0,.29-4.4c.45-.82.19-1.73.32-2.57.23-1.49.38-3,.63-4.42s.51-3.19.89-4.75a10.88,10.88,0,0,1,.84-3.26,16,16,0,0,1,.67-3.63,28.4,28.4,0,0,1,1-4.08c.44-1.74.85-3.45,1.31-5.18.29-1,.61-2.06.92-3.09.49-1.7,1-3.39,1.5-5.09.33-1.06.74-2.11,1-3.18.72-2.65,1.64-5.24,2.55-7.83.55-1.58,1.07-3.16,1.6-4.74.75-2.25,1.55-4.5,2.38-6.71s1.91-4.86,2.79-7.28c.8-1.9,1.63-3.94,2.28-6,.38-1.14,1-2.23,1.37-3.35.56-1.43,1.07-2.9,1.7-4.27s1.24-3,1.9-4.48c.79-1.77,1.62-3.54,2.27-5.39.27-.82.71-1.6,1.07-2.42,1.07-2.36,2.11-4.75,3.2-7.11l3.81-8.32c1.45-3,3-6,4.44-9a17.1,17.1,0,0,1,.76-1.9c1.75-2.86,3.07-6,4.67-8.9,1.14-2.09,2.15-4.25,3.39-6.27s2.61-4.57,4.12-6.74c.72-1,1.33-2.15,2.07-3.2s1.36-2.08,2.16-3a38.47,38.47,0,0,1,3.94-4.23,32.3,32.3,0,0,1,9.53-6.29,38.23,38.23,0,0,1,5.71-1.9,31.55,31.55,0,0,0,4.31-.84h.07c2.35.09,4.63-.5,7-.33.68,0,1.26.46,1.9.35a4,4,0,0,1,2.14.24,12.22,12.22,0,0,0,1.9.35A9,9,0,0,1,9,61.31a13.24,13.24,0,0,1,4.32,2.63c.31.32.63.66,1,1a10.18,10.18,0,0,1,2.56,4.38,23.55,23.55,0,0,1,.66,2.88,25.47,25.47,0,0,1,.23,5.16,4.9,4.9,0,0,1-.24,2.31c-.27.61,0,1.41-.29,2.13a4.91,4.91,0,0,0-.29,1.66c0,.61-.4,1.1-.36,1.67s-.3,1.09-.34,1.7a12.58,12.58,0,0,1-.67,2.42,105.67,105.67,0,0,1-3.22,10.1c-.53,1.48-1.12,3-1.64,4.44s-1.35,3.37-1.9,5.06c-.42,1.24-.93,2.42-1.37,3.66-.61,1.7-1.36,3.36-2.06,5S3.93,121,3.07,122.69a30.53,30.53,0,0,0-1.2,3c-.38,1-.95,1.9-1.27,2.95a35.68,35.68,0,0,1-1.74,3.64c-.93,2-1.81,4.06-2.72,6.1s-1.91,4-2.74,5.94c-.69,1.47-1.41,2.91-2.06,4.4-.84,1.91-1.91,3.66-2.67,5.53-1,2.42-2.34,4.64-3.35,7-1.17,2.74-2.71,5.29-3.81,8s-2.94,5.81-4.23,8.78-2.73,5.39-3.93,8.17c-1,2.35-2.28,4.56-3.29,6.9-.82,1.91-1.91,3.66-2.61,5.54A47.49,47.49,0,0,0-34.65,203.74Z" transform="translate(138.2 138.06)"/><path d="M316.56,212.72c-.72-.59-1.6-.67-2.3-1.18a9.49,9.49,0,0,1-3.62-5.36,15.37,15.37,0,0,1-.21-5.89,18.77,18.77,0,0,1,1.12-5.54,62.51,62.51,0,0,1,1.55-7c.28-1.56,1-3,1.35-4.55.46-2,1.24-3.93,1.66-5.95a22.06,22.06,0,0,1,1.18-3.43c.68-1.9,1.12-3.81,1.75-5.58.74-2.25,1.58-4.48,2.34-6.73.44-1.31.86-2.64,1.32-4,.65-1.79,1.33-3.56,1.9-5.35s1.07-3.07,1.64-4.59,1.11-3.05,1.75-4.54,1.24-3.31,1.91-4.95c.42-1.13.9-2.23,1.33-3.36.78-1.9,1.62-3.81,2.31-5.83.27-.76.68-1.5,1-2.28.84-1.91,1.75-4,2.65-6,.66-1.43,1.37-2.84,2-4.27.4-.9.72-1.81,1.2-2.67,1.11-2.21,2.33-4.37,3.65-6.46a35.1,35.1,0,0,1,2.46-3.22,14.5,14.5,0,0,1,5.07-3.81,9.23,9.23,0,0,1,3.14-.78c.61,0,1.22-.21,1.91-.27a9.12,9.12,0,0,1,1.81,0,14.43,14.43,0,0,1,3.62.71,5.44,5.44,0,0,1,3,2.59,6.94,6.94,0,0,1,1.05,3.81,3.64,3.64,0,0,1,.29,2.13,17.45,17.45,0,0,1-.29,2.14c-.1.7.27,1.48-.31,2.13a5.1,5.1,0,0,1-.3,2.29c-.42,2.11-.9,4.23-1.39,6.32-.42,1.74-1.05,3.41-1.33,5.19-.22,1-.5,2-.82,3-.52,1.69-1.05,3.39-1.51,5.09s-1,2.82-1.28,4.3a28.24,28.24,0,0,1-1.44,4.21c-.52,1.39-1,2.8-1.45,4.21-.71,2.23-1.35,4.46-2.19,6.63s-1.41,4.21-2.27,6.29c-.61,1.43-1.07,3-1.62,4.44-.4,1.09-.76,2.19-1.2,3.26s-.91,2.63-1.47,3.92-.93,2.33-1.33,3.51c-.71,2.06-1.58,4.06-2.42,6.08-1,2.47-2,5-3.14,7.43-.65,1.42-1.28,2.87-1.91,4.34-1.05,2.59-2.4,5-3.66,7.53a43.07,43.07,0,0,1-3.56,5.6,41.28,41.28,0,0,1-2.9,3.16,10.89,10.89,0,0,1-4.93,3,12,12,0,0,1-5.32.57A18,18,0,0,0,316.56,212.72Z" transform="translate(138.2 138.06)"/></svg>