<svg id="Layer_1" data-name="Layer 1" xmlns="http://www.w3.org/2000/svg" viewBox="0 0 683.82 387.31"><defs><style>.cls-1{fill:#0000fe;}.cls-2{fill:#0000b3;}.cls-3{fill:#0000db;}</style></defs><path d="M648.86,444.36V499.8c-4.16.75-8.41.91-12.13,2.41-2.27.91-4.92-.16-6.75,1.79-3.08-.18-5.93,1-8.91,1.44s-5.81,1.44-8.85,1.64a13.53,13.53,0,0,0-5.3,1.6c-1.67.89-3.52-.47-5.14.94-1.46,1.28-4-.61-5.4,1.38-5.78-.08-11.13,2.18-16.74,3.1-7,1.14-13.92,2.59-20.82,4.07-6.28,1.36-12.63,2.46-18.84,4-5.28,1.31-10.88,1.4-15.88,3.83-4.36-.18-8.39,1.59-12.66,2.13-3.72.47-7.48,1.25-11.14,2.07s-7.4.9-10.87,2.67c-1.52.77-3.66.36-5.56,1-2.36.82-5.34.17-7.45,1.28-2.4,1.26-4.93.74-7.35,1.59a75.6,75.6,0,0,1-8.23,1.87c-2.78.62-5.69.69-8.42,1.43-6.49,1.74-13.2,2.46-19.59,4.58-2.08.68-4.31.75-6.46,1.27-3,.72-6.13,1.18-9.17,2-2.85.79-5.82,1-8.7,1.92-1.89.59-4,.62-6.06,1.07-5.95,1.32-12.05,1.91-17.88,3.92-1.88.65-4,.55-6.05,1-4.71,1.14-9.55,1.7-14.26,3-2.23.62-4.72.23-7.08,1-2.07.71-4.62.26-6.48,1.23-1.63.84-3.22.38-4.63.94a41.26,41.26,0,0,1-4.1,1,107,107,0,0,1-12.37,2.57c-4,.71-8,1.73-12,2.52-6.13,1.2-12.36,1.94-18.43,3.66-2.64.75-5.51,1.17-8.27,1.78s-5.66.78-8.42,1.43c-3.54.84-7.2,1.24-10.62,2.18s-7.08.93-10.39,2.64c-1.51.78-3.67.49-5.56,1s-3.69.82-5.55,1.11c-7.16,1.11-14.23,2.75-21.29,4.25-5.62,1.19-11.45,1.65-16.91,3.74-1,.39-2.31.06-3.81.06-2.26-2.33-4.67-4.86-7.13-7.32-39.71-39.72-79.09-79.77-119.28-119C62.28,444.54,43,425.12,23.44,405.88S-15.48,367-35,347.54V294.15c1.47-.66,3.14-2,4.81-2,2.19,0,4-.88,6.08-1.16a91.82,91.82,0,0,0,12.35-2.78c2-.56,4,0,6.06-1.09,1.7-.93,4-.8,6-1.12,2.19-.34,4.68-.14,6.5-1.15s4.28,0,5.76-1.85c4.37.26,8.35-1.84,12.66-2.06,2-.1,4-.81,6.69-1.4,2.37-3.27,6.26-6,10.33-8.19a44,44,0,0,1,11.21-4.23c4-.92,8.14-1.45,12.1-2.33,6.1-1.34,12.11-.36,18.13-.73,1.5-.09,3.05.64,4.59.93a29.35,29.35,0,0,1,4.18.73c1.94.66,4.51,1,6.63-.37,1.67-1.08,3.6-.07,5.55-1.15,2.21-1.21,5.27-1,8-1.17,2.23-.18,4.23-1.71,6.58-1,1.53-2.06,4-.44,5.9-1.48s4.21-1.09,6.36-1.51,4.09-.54,6.07-1c3.52-.9,7.2-1.25,10.62-2.19s7.24-.62,10.32-2.78c4.2.23,8.08-1.54,12.17-2,2.19-.26,4.35-.82,7.24-1.39,2.36-3.25,6.25-5.92,10.3-8.16a44.15,44.15,0,0,1,11.18-4.3c4-.93,8.13-1.47,12.1-2.33,5.94-1.28,11.78-.68,17.63-.64a29.22,29.22,0,0,1,9.26,1.62,8.38,8.38,0,0,0,5.37.12c3.83-1.51,8-1.28,11.86-2.72,2.08-.78,4.67-.6,7-1.08a115.57,115.57,0,0,0,12.8-2.93c1.89-.61,4-.31,6.06-1.08s4-.74,6.05-1.08c1.86-.32,3.73-.66,5.58-1,2-.38,3.93-1.11,6.09-1.13,1.74,0,3.44-1.23,5.2-1.79s3.68.76,5.06-1.08c4.85.27,9.29-2.24,14.28-2.06,2.6-4.05,6.77-6.44,10.75-8.77a43.38,43.38,0,0,1,11.27-4.09c4-1,8.08-1.6,12.11-2.32a69.17,69.17,0,0,1,9.13-.73c3.16-.15,6.55-.73,9.43.17s5.84-.2,8.24,1.8c2.19-.44,4.45.69,6.7-.76,1.5-1,3.61-.37,5.53-1.07,2.94-1.06,6.31-1,9.38-1.35q64.57,64.59,128.85,128.82c18.94,18.87,38.18,37.42,57.16,56.24S630.07,425.57,648.86,444.36ZM210.65,534.15c3.12-.76,6-1.52,8.89-2.13,2.17-.45,4.78-.08,6.48-1.18,2.09-1.34,4.29-.6,6.41-1.5a31.35,31.35,0,0,1,10-2.18c6.08-.37,11.75-2.5,17.72-3.35,4.75-.68,9.53-1.84,14.26-2.91,2-.46,4.32-.3,6-1.09,3.35-1.56,7-1.69,10.4-2.59s7.08-1.39,10.62-2.19c2.77-.62,5.62-.88,8.41-1.45s5.66-1,8.28-1.76c6.06-1.8,12.39-1.92,18.43-3.72,3-.89,6.15-1,9.16-2,2.07-.69,4.43-.52,6.54-1.13,2.35-.68,5-.32,7-1.11,4.71-1.79,9.85-1.42,14.48-3.68,2.58-1.26,5.95-.83,8.9-1.43s5.82-1.31,8.75-1.87c2-.38,4.23-.31,6-1,5.15-2,10.64-2.52,16-3.65,4.14-.88,8.27-2.36,12.63-2.18,6.73-2.68,14-3.38,21-4.77,5.7-1.14,11.29-3.17,17.21-3.23,3.84-2,8.26-1.54,12.29-2.88,1.42-.47,3-.55,4.57-1s3-.17,4.63-.94c1.91-.92,4.38-.61,6.5-1.19,2.35-.64,5-.37,7-1.13,4-1.46,8.3-1.46,12.35-2.72,3.88-1.2,8.09-1.32,12-2.39S532,468.1,536.07,467c3.18-.83,6.46-1.29,9.66-2.06,1.52-.37,3-.84,4.57-1.08,3.74-.55,7.52-1.2,11.14-2.1s7.31-1.36,10.85-2.68c2.47-.92,5.47-.39,8-1.22A49.62,49.62,0,0,1,588,456.2c5.47-.85,10.81-2.21,16.22-3.23,3.72-.69,7.55-1.21,11.12-2.19,4.08-1.12,8.28-1.51,12.34-2.68,5.31-1.52,10.83-2.31,16.46-3.46-14.31-14.31-28.24-28.42-42.38-42.32s-27.59-28.71-42.68-41.74L407.42,208.92,404.49,206l-9.72,1.65a36.8,36.8,0,0,0,4.36,2.33,28.75,28.75,0,0,1,13.56,9.38,15.28,15.28,0,0,1,3.38,10.09c-.24,8.16-.11,16.33-.05,24.5a15.47,15.47,0,0,1-4.51,11.17c-2.81,3-6.28,4.85-9.69,6.88-5.71,3.39-12.2,4.63-18.53,5.85a91,91,0,0,1-16.55,1.31,70.88,70.88,0,0,1-13.54-1.41,56.48,56.48,0,0,1-14.61-4.44c-7.61-3.71-8.91-4-12.71-7.92a16,16,0,0,1-4.93-12c.19-7.82,0-15.66.08-23.49,0-2.18.37-4.36.57-6.5L250,237.64v1.05a56.23,56.23,0,0,1,9.12,4.22,25.83,25.83,0,0,1,8.25,7.8c1.36,2.06,2.55,4,2.57,6.44.09,9.5.18,19-.06,28.49a12.81,12.81,0,0,1-2.23,7c-4,5.33-9.7,8.71-15.75,11.29-3.25,1.39-6.82,2-10.22,3.08-3.65,1.12-7.49.94-11.21,1.87s-19-.15-23.55-.88a1.51,1.51,0,0,1-.48-.05c-4.42-2.28-9.48-2.44-14-4.76-6.8-3.45-9.37-4.24-13-8.33A15.76,15.76,0,0,1,175,283.7c.18-7.33,0-14.67.06-22,0-2.84-.45-5.73,1.14-8.36C151.8,258,128,263.15,103.76,267.58c.55,1.77,2.22,1.94,3.31,2.34a30.3,30.3,0,0,1,13.58,9.36,15.14,15.14,0,0,1,3.42,10.08c-.22,8.16-.1,16.33-.06,24.49a15.53,15.53,0,0,1-4.8,11.55c-2.87,2.9-6.34,4.68-9.75,6.7-3.82,2.26-8.17,2.85-12.22,4.32-4.4,1.6-9,1.57-13.45,2.43-3.7.72-7.64.28-11.47.11s-7.39-.62-11.09-1a4.18,4.18,0,0,1-.92-.19c-5-1.69-10.2-2.56-15-4.8s-9.73-5-13.06-9.39a15.75,15.75,0,0,1-3.32-10.13c.24-9.33.08-18.66.08-27.22l1.05-3.17L-29.1,295.4c19,19,37.61,37.82,56.48,56.42s36.73,37.95,56.47,55.53Zm.48,53a28.83,28.83,0,0,1,3.62-1.14c2.51-.42,5.17-.34,7.55-1.12a72.42,72.42,0,0,1,8.68-2c2.89-.57,5.75-1.41,8.66-2,2.22-.48,4.6-.2,6.57-1,3.53-1.35,7.28-1.62,10.86-2.67a61.76,61.76,0,0,1,8.85-1.64,65.15,65.15,0,0,0,8.79-1.78c2-.56,4.12-.3,6-1,5.3-2,11-2.54,16.46-3.65,4-.8,8-2.27,12.16-2.09,5-2.42,10.58-2.79,15.88-3.76,4.5-.81,9-2.33,13.63-2.24,1.7-2,4.23-.72,6.36-1.53,3.47-1.33,7.28-1.78,11-2.44,2.67-.48,5.67-.1,8-1.21,1.92-.93,3.83-.25,5.55-1.1,4.72-2.32,10-2.56,15-3.56,4.17-.83,8.27-2.42,12.64-2.16,1.46-1.89,3.87-.74,5.76-1.85s4.3-.81,6.5-1.15c2-.32,4.32-.19,6-1.12,2-1.13,4.13-.43,6.06-1.12a70.21,70.21,0,0,1,10.88-2.59c4.18-.8,8.48-1.47,12.59-2.39,5.29-1.19,10.65-2.4,15.94-3.55,5.83-1.26,11.67-2.91,17.71-3.23,1.72-2,4.24-.72,6.36-1.52,3.48-1.31,7.29-1.79,11-2.45,2.67-.48,5.67-.1,8-1.21,1.93-.93,3.79-.38,5.57-1.05a64.4,64.4,0,0,1,10.89-2.61c4.18-.78,8.48-1.45,12.58-2.39,5.29-1.2,10.68-2.08,15.94-3.62,5.72-1.67,11.79-2.15,17.71-3.15,1.7-1.73,4-.62,6-1.31,5.34-1.86,11-2.54,16.48-3.61,4-.79,7.95-2.31,12.16-2.08,1.51-1.75,3.85-.92,5.74-1.87s4.32-.79,6.51-1.13c2-.32,4.35-.17,6-1.13,2-1.16,4.08-.52,6-1.13,3.89-1.2,7.92-1.82,11.87-2.75,2.83-.67,5.64-1.45,8.12-2.09V446.81c-.59.55-1,1.18-1.27,1.14-4.43-.54-8.28,2.48-12.68,2.05-2,2-4.85.6-7.25,1.84-2.13,1.1-5.1.45-7.46,1.28-1.9.66-4.11.2-5.53,1.05-1.89,1.13-4,.61-5.84,1.7-1.67,1-4,.8-6,1.13a42.08,42.08,0,0,0-6.07,1.06c-2.13.68-4.4.62-6.46,1.3a88.25,88.25,0,0,1-16,3.43c-4.27.56-8.23,2.77-12.64,2.21-1.44,1.95-3.88.66-5.77,1.84-1.73,1.08-4.3.82-6.49,1.16-2,.32-4.34.18-6,1.13-2,1.14-4.1.49-6.06,1.12-3.87,1.24-7.9,1.85-11.86,2.73-2.31.51-4.81.43-7,1.25a49.42,49.42,0,0,1-11.87,2.55c-6,.65-11.74,2.55-17.7,3.41-4.76.7-9.54,1.81-14.26,2.91-2,.47-4.24.36-6.05,1-6.64,2.53-13.71,3.13-20.54,4.62-5.66,1.23-11.25,3.37-17.2,3.23-3.87,1.91-8.2,2-12.3,2.81s-8,1.79-12,2.56c-3.59.69-7.28,1.85-10.89,2.44-4.05.67-7.87,2.68-12.11,2.26-1.6,2.13-4.22.33-6.32,1.75-1.77,1.2-4.66.63-6.95,1.24-2.63.69-5.33.74-8,1.29-3.66.75-7.22,2.15-10.9,2.55-4.28.46-8.29,2.36-12.66,2.1-1.45,2-3.95.12-5.41,1.37-1.62,1.39-3.47.08-5.14.94a19,19,0,0,1-5.3,1.65c-2.67.49-5.51.32-8,1.15s-5.21.83-7.76,1.75-5.82.38-8.48,1.29c-2.88,1-5.82,1.29-8.69,2-4.74,1.14-9.54,1.88-14.27,3-2,.46-4.24.36-6.05,1-6.31,2.45-13.26,2.19-19.48,4.85-4.6-.71-8.63,2.35-13.17,2-2,2-4.86.56-7.26,1.84-2.11,1.12-5.21.29-7.43,1.3-2.64,1.2-5.82.1-8,2.33ZM-31.79,345.75c46.4,46.2,92.51,92.57,139.24,138.34,33,32.3,65.36,65.22,98,97.86a11.49,11.49,0,0,0,2.4,2.14V536.36l-44-44c-14.5-14.5-28.89-29.1-43.52-43.46s-28.48-29.72-44.1-43.16Q24.11,353.61-28,301.45c-1.16-1.15-2.21-2.41-3.76-4.11ZM325,223.4c0,.67.27,1.54,0,1.94-2.38,3-.65,5.95.53,8.49a16.39,16.39,0,0,0,8.92,8.19c2.13.87,4.12,2.11,6.27,2.94s4.53,1.14,6.62,2.1c2.32,1.07,4.74,2,7.18,1.83s4.66,1.17,7.09,1.13c3.66-.07,7.33.11,11-.06s7.39-.63,11.08-1c.32,0,.72.05.95-.11,1.88-1.29,4.19-1.09,6.22-1.87s4.18-1.17,6.14-2.06c4.75-2.13,9.56-4.3,13-8.44a12.07,12.07,0,0,0,2.94-10.13c-.65-3.3-4-6.86-7.24-9.46s-7-4.07-10.72-5.54c-6.16-2.42-12.66-3.49-19.16-4.32-3.12-.4-6.32-.07-9.49-.07-2.16,0-4.72-.73-6.39.18-2.26,1.22-4.48.26-6.58,1s-4.53,1.18-6.73,1.87c-4.24,1.33-8.49,2.7-12.37,5.11C330.59,217.43,328.19,220.78,325,223.4Zm-146,30c0,.76.27,1.64,0,2.05-1.57,1.95-.85,3.69-.24,5.83,1.53,5.34,5.27,8.21,9.83,10.8,8.33,4.74,17.44,6.57,26.72,7.8a65.56,65.56,0,0,0,11.47,0c3.7-.16,7.39-.62,11.08-1a3.16,3.16,0,0,0,.91-.2c3.91-1.47,8.08-2,11.93-3.76,4.91-2.2,9.78-4.45,13.41-8.6a13.6,13.6,0,0,0,2.89-7.26c.36-2.58-.89-4.77-2.18-7.07-3.24-5.7-8.86-7.71-14.29-10.07a59.13,59.13,0,0,0-6.16-2,60.53,60.53,0,0,0-6.67-2c-2.17-.41-4.57.55-6.57-1.05h-17c-2,1.81-4.67.56-6.94,1.31s-4.62.9-6.78,1.74c-4.15,1.61-8.46,2.77-12.32,5.26C184.51,247.59,182.1,250.9,179,253.44ZM33,283.35c0,.82.28,1.72,0,2.11-1.62,1.94-.89,3.7-.28,5.83,1.53,5.33,5.23,8.27,9.83,10.8,9.13,5,19,7.16,29.2,7.89,6.54.47,13.06-.27,19.56-1a5.6,5.6,0,0,0,1.42-.2c3.89-1.49,8.07-2.05,11.92-3.76,4.93-2.19,9.87-4.38,13.38-8.61,2.27-2.73,3.73-6.24,2.88-9.69A16.9,16.9,0,0,0,114.4,277c-4.48-3.22-14.12-6.49-19.59-8.21-3.42-1.07-7.1.26-10.21-1.81H68.11c-2.06,1.78-4.67.58-7,1.3s-5,1-7.22,1.88c-4.12,1.63-8.46,2.71-12.29,5.4C38.35,277.89,36.13,281.15,33,283.35Zm291-45c0,5,.05,9.94,0,14.91a14.66,14.66,0,0,0,6.65,12.6,40.38,40.38,0,0,0,10.73,5.36c3.95,1.25,7.91,3,11.92,3.6a110.58,110.58,0,0,0,17,1.33,83.48,83.48,0,0,0,13.51-1.41,55.33,55.33,0,0,0,11.95-3.54c7.18-2.95,13.82-6,17.23-14.16,0-5.76,0-12.07,0-18.37a.72.72,0,0,0-.23-.4,1.28,1.28,0,0,0-.35-.18c-3.9,4.65-10.2,8.22-16.59,10.54a84.92,84.92,0,0,1-20.16,4.26,57.26,57.26,0,0,1-15.42-.08c-4.58-.78-9.26-1.29-13.81-2.64a66.13,66.13,0,0,1-11.67-4.36C331,243.88,326.94,241.87,324,238.35ZM178,268.22c0,5.62,0,11.24,0,16.86a11.12,11.12,0,0,0,.72,2.18c1.29,5.38,5,8.52,9.75,10.78,1.68.79,3.15,2,4.86,2.74a52.57,52.57,0,0,0,5.38,1.47c1.77.53,3.47,1.46,5.27,1.67s3.48,1.42,5.58,1.19c1.8-.2,3.69.81,5.56.85,8.6.19,17.16.12,25.63-1.9,5.76-1.37,15-4.72,19.6-8.09,3.16-2.3,6.09-5.35,6.46-9.18.6-6.2.16-12.5.16-19.42a34.14,34.14,0,0,1-13.63,9.75c-3.17,1.27-6.22,3-9.79,2.88-4.6,2.5-9.82,2.47-14.74,2.84a80.08,80.08,0,0,1-28.22-2.7,67.65,67.65,0,0,1-11.7-4.29C185.13,274,181.17,271.86,178,268.22ZM32,298.34c0,5.46,0,10.93,0,16.4a12.25,12.25,0,0,0,.82,2.63,14.23,14.23,0,0,0,6.57,8.77,68.68,68.68,0,0,0,10.33,5.25c6.13,2.63,12.63,3.49,19.07,4.5,3.73.59,7.64.24,11.45.07s7.71-.62,11.57-1a3.18,3.18,0,0,0,.89-.24c3.92-1.42,8.1-2,11.93-3.73,4.42-2,9-3.9,12.3-7.58a47.93,47.93,0,0,0,4-5.83c0-6.62,0-12.77,0-18.92a.72.72,0,0,0-.22-.41,1.71,1.71,0,0,0-.35-.21c-4.53,5.08-10.27,8.31-16.58,10.56a89.85,89.85,0,0,1-20.16,4.27,55.75,55.75,0,0,1-14.43-.06c-4.76-.72-9.57-1.39-14.32-2.59a67.35,67.35,0,0,1-12.15-4.46C39,304,35,301.85,32,298.34Z" transform="translate(34.96 -202.82)"/><path class="cls-1" d="M210.65,534.15,83.85,407.35c-19.74-17.58-37.67-37-56.47-55.53s-37.5-37.44-56.48-56.42l59.15-12.3L29,286.27c0,8.56.16,17.89-.08,27.22a15.75,15.75,0,0,0,3.32,10.13C35.57,328,40.35,330.7,45.3,333s10,3.11,15,4.8a4.18,4.18,0,0,0,.92.19c3.7.34,7.39.8,11.09,1s7.77.61,11.47-.11c4.46-.86,9-.83,13.45-2.43,4.05-1.47,8.4-2.06,12.22-4.32,3.41-2,6.88-3.8,9.75-6.7a15.53,15.53,0,0,0,4.8-11.55c0-8.16-.16-16.33.06-24.49a15.14,15.14,0,0,0-3.42-10.08,30.3,30.3,0,0,0-13.58-9.36c-1.09-.4-2.76-.57-3.31-2.34,24.21-4.43,48-9.62,72.39-14.24-1.59,2.63-1.13,5.52-1.14,8.36,0,7.33.12,14.67-.06,22a15.76,15.76,0,0,0,4.46,11.16c3.64,4.09,6.21,4.88,13,8.33,4.56,2.32,9.62,2.48,14,4.76a1.51,1.51,0,0,0,.48.05c4.54.73,19.79,1.81,23.55.88s7.56-.75,11.21-1.87c3.4-1.05,7-1.69,10.22-3.08,6.05-2.58,11.73-6,15.75-11.29a12.81,12.81,0,0,0,2.23-7c.24-9.49.15-19,.06-28.49,0-2.4-1.21-4.38-2.57-6.44a25.83,25.83,0,0,0-8.25-7.8,56.23,56.23,0,0,0-9.12-4.22v-1.05l71.58-14.23c-.2,2.14-.55,4.32-.57,6.5-.07,7.83.11,15.67-.08,23.49a16,16,0,0,0,4.93,12c3.8,3.94,5.1,4.21,12.71,7.92a56.48,56.48,0,0,0,14.61,4.44,70.88,70.88,0,0,0,13.54,1.41,91,91,0,0,0,16.55-1.31c6.33-1.22,12.82-2.46,18.53-5.85,3.41-2,6.88-3.9,9.69-6.88A15.47,15.47,0,0,0,416,253.94c-.06-8.17-.19-16.34.05-24.5a15.28,15.28,0,0,0-3.38-10.09A28.75,28.75,0,0,0,399.13,210a36.8,36.8,0,0,1-4.36-2.33l9.72-1.65,2.93,2.93L559.08,360.58c15.09,13,28.5,27.78,42.68,41.74s28.07,28,42.38,42.32c-5.63,1.15-11.15,1.94-16.46,3.46-4.06,1.17-8.26,1.56-12.34,2.68-3.57,1-7.4,1.5-11.12,2.19-5.41,1-10.75,2.38-16.22,3.23a49.62,49.62,0,0,0-7.71,1.69c-2.53.83-5.53.3-8,1.22-3.54,1.32-7.27,1.78-10.85,2.68s-7.4,1.55-11.14,2.1c-1.59.24-3,.71-4.57,1.08-3.2.77-6.48,1.23-9.66,2.06-4.09,1.07-8.28,1.56-12.37,2.68s-8.15,1.19-12,2.39c-4.05,1.26-8.31,1.26-12.35,2.72-2.08.76-4.69.49-7,1.13-2.12.58-4.59.27-6.5,1.19-1.61.77-3.16.47-4.63.94s-3.15.57-4.57,1c-4,1.34-8.45.89-12.29,2.88-5.92.06-11.51,2.09-17.21,3.23-7,1.39-14.24,2.09-21,4.77-4.36-.18-8.49,1.3-12.63,2.18-5.31,1.13-10.8,1.61-16,3.65-1.82.71-4,.64-6,1-2.93.56-5.83,1.27-8.75,1.87s-6.32.17-8.9,1.43c-4.63,2.26-9.77,1.89-14.48,3.68-2.06.79-4.69.43-7,1.11-2.11.61-4.47.44-6.54,1.13-3,1-6.2,1.14-9.16,2-6,1.8-12.37,1.92-18.43,3.72-2.62.78-5.51,1.19-8.28,1.76s-5.64.83-8.41,1.45c-3.54.8-7.18,1.29-10.62,2.19s-7.05,1-10.4,2.59c-1.7.79-4,.63-6,1.09-4.73,1.07-9.51,2.23-14.26,2.91-6,.85-11.64,3-17.72,3.35a31.35,31.35,0,0,0-10,2.18c-2.12.9-4.32.16-6.41,1.5-1.7,1.1-4.31.73-6.48,1.18C216.64,532.63,213.77,533.39,210.65,534.15ZM497,323.69c0-4.5,0-9,0-13.49a9.25,9.25,0,0,0-.76-3.67,22.78,22.78,0,0,0-8.85-10.79A69.34,69.34,0,0,0,475.74,290c-1-.42-2.07-.62-3.07-1-2.29-.91-5-.35-7-1.21-2.19-1-4.53.14-6.09-.91-2.28-1.54-4.48-.64-6.67-.81-3-.23-6-.06-9-.06-1.16,0-2.78-.45-3.38.13-1.36,1.31-2.81.61-4.19.88-1.54.3-3.06.65-4.58,1-2.29.51-4.58,1-6.85,1.57a43.73,43.73,0,0,0-14.22,6.56c-5.2,3.68-9.13,8.46-8.8,15.7.35,7.81.24,15.65,0,23.47-.13,4.82,1.79,8.59,4.86,12,4.46,5,10.4,7.56,16.49,9.6,4.72,1.58,9.54,3.32,14.7,3.1.5,0,1.16-.21,1.48,0,2.86,2.14,6.08.63,9.1.91s6.47.65,9.45-.08c4.57-1.12,9.25-1.43,13.81-2.74,7.5-2.16,14.36-5.15,20.14-10.53a15.52,15.52,0,0,0,5-12.42C496.93,331.34,497,327.51,497,323.69ZM490.61,429c3.13,2,5.32,4.07,7.9,4.8,3.73,1.06,7.28,2.61,11.08,3.53a111.86,111.86,0,0,0,15.85,2.59,62.63,62.63,0,0,0,9.49,0c3-.16,6-.78,9.07-.92s5.76-1.43,8.66-2.06a41.19,41.19,0,0,0,20.92-11A14.49,14.49,0,0,0,578,415.3c0-8.32-.06-16.65,0-25,.07-7-3.85-11.59-9.16-15.31a55.11,55.11,0,0,0-12.44-6.12c-.57-.22-1-.74-1.63-.88-5.35-1.31-10.87-1.68-16.26-2.9-3-.68-6.3-.24-9.46-.09a56.73,56.73,0,0,0-9.12.74c-3.83.8-7.78,1.28-11.61,2.24-7.7,1.92-14.77,5-20.57,10.66A15.27,15.27,0,0,0,483,390.2q0,12.74,0,25.47c0,2.79,1.09,5.07,2.48,7.48C487,425.8,489.4,427.48,490.61,429ZM432,432.78c0-4.5,0-9,0-13.49a12.12,12.12,0,0,0-.5-3.28c-1.6-5.31-5.21-9-9.79-11.85-3.42-2.16-7.21-3.51-10.86-5.14-1-.44-2.06-.66-3.07-1-2.3-.82-5-.39-7-1.23-2.28-1-4.61.07-6.54-1.09-2.2-1.33-4.51-.65-6.72-.61-4.69.08-9.36-.37-14.11.75-3.48.83-7.09,1.35-10.62,2.15-8.47,1.91-16,5.42-22.1,11.8a13,13,0,0,0-3.62,9c-.2,9.15,0,18.31-.1,27.47a12.75,12.75,0,0,0,1.66,5.81c2.93,5.86,8.42,9.19,14,11.78a35.65,35.65,0,0,0,11.06,3.52c2.38.26,4.74,1.41,7.24,1.69,2.7.3,5.38.85,8.08.95a91.58,91.58,0,0,0,27.75-2.88c7.88-2.15,15-5.3,20.88-11.14A14.59,14.59,0,0,0,432,445.26C432,441.1,432,436.94,432,432.78ZM191,462.52c0,4.49.11,9-.05,13.48a11.62,11.62,0,0,0,1.54,5.87c3,5.74,8.28,9.35,13.95,11.79,3.45,1.48,7,3.11,11.06,3.6,2.83.35,5.66,1.62,8.7,1.78s5.94,1.24,9.08,1c5-.35,10,0,15.09-.87,4.36-.72,8.56-1.91,12.85-2.83,5.13-1.11,9.59-3.62,13.81-6.43,5.39-3.59,9.22-8.31,9-15.45-.22-8-.17-16,0-24,.14-7.08-3.82-11.69-9-15.45-3.89-2.8-8.38-4.57-12.82-6.37a15.68,15.68,0,0,0-1.72-.67c-5.18-1.36-10.52-2-15.77-2.82a52.57,52.57,0,0,0-16.42,0c-4.58.75-9.23,1.52-13.8,2.67-4.88,1.24-16.83,6.68-20.3,10.27A16.88,16.88,0,0,0,191,451C191.09,454.86,191,458.69,191,462.52ZM351,350.87c0-4.5,0-9,0-13.5a11.48,11.48,0,0,0-.45-3.3c-1.33-4.28-4.26-7.5-8.52-10.1a95.42,95.42,0,0,0-12.88-6.32,18.45,18.45,0,0,0-2.23-.65,30.23,30.23,0,0,0-3.59-1c-1.29-.19-3,.39-3.85-.26-1.75-1.38-3.69-.06-5.18-.85a10.26,10.26,0,0,0-5.62-.9c-5.53.29-11-.32-16.62.79-4.15.83-8.37,1.68-12.58,2.37-4.72.78-15.66,7.08-19.59,10.51a12.82,12.82,0,0,0-1.87,2.7,12.42,12.42,0,0,0-2,7.17c0,8.32.16,16.66,0,25-.11,4.65,1.77,8.29,4.69,11.57,4.55,5.11,10.66,7.65,16.9,9.84,2.78,1,6,1.24,8.56,2.28,3.11,1.25,6.53-.42,9.26,1.77,5.49,0,11.1.67,16.45-.21,4.42-.73,8.92-1.41,13.34-2.59,8.26-2.21,15.66-5.45,21.74-11.54a13.81,13.81,0,0,0,4.09-9.8C351.09,359.53,351,355.2,351,350.87Zm-146,31c0-4.49,0-9,0-13.49a11.9,11.9,0,0,0-.44-3.31c-1.32-4.25-4.27-7.52-8.52-10.1a94.25,94.25,0,0,0-12.88-6.32,21.12,21.12,0,0,0-2.23-.65,28.43,28.43,0,0,0-3.59-1c-1.29-.19-3,.4-3.86-.26-1.74-1.37-3.69-.08-5.17-.85-1.86-1-3.71-.9-5.63-.91-3.83,0-7.66,0-11.49,0-.83,0-2-.35-2.44.06-1.44,1.28-3.07.76-4.64,1s-3.4.62-5.08,1c-2,.43-4,.82-5.91,1.42a61,61,0,0,0-19.22,10.26,10.42,10.42,0,0,0-1.88,2.69,12.59,12.59,0,0,0-2,7.17c0,8.33.16,16.66,0,25-.11,4.65,1.77,8.29,4.69,11.57,4.54,5.12,10.65,7.66,16.9,9.85,2.78,1,5.94,1.23,8.55,2.28,3.11,1.26,6.54-.43,9.26,1.77,5.49,0,11.1.67,16.45-.21,4.42-.73,8.92-1.41,13.34-2.59,8.26-2.2,15.66-5.45,21.75-11.54a13.82,13.82,0,0,0,4.1-9.79C205.08,390.54,205,386.21,205,381.87Z" transform="translate(34.96 -202.82)"/><path class="cls-2" d="M211.13,587.17v-49.7c2.21-2.23,5.39-1.13,8-2.33,2.22-1,5.32-.18,7.43-1.3,2.4-1.28,5.25.19,7.26-1.84,4.54.35,8.57-2.71,13.17-2,6.22-2.66,13.17-2.4,19.48-4.85,1.81-.69,4-.59,6.05-1,4.73-1.08,9.53-1.82,14.27-3,2.87-.7,5.81-1,8.69-2,2.66-.91,5.84-.33,8.48-1.29s5.21-.92,7.76-1.75,5.37-.66,8-1.15a19,19,0,0,0,5.3-1.65c1.67-.86,3.52.45,5.14-.94,1.46-1.25,4,.59,5.41-1.37,4.37.26,8.38-1.64,12.66-2.1,3.68-.4,7.24-1.8,10.9-2.55,2.63-.55,5.33-.6,8-1.29,2.29-.61,5.18,0,6.95-1.24,2.1-1.42,4.72.38,6.32-1.75,4.24.42,8.06-1.59,12.11-2.26,3.61-.59,7.3-1.75,10.89-2.44,4-.77,8-1.79,12-2.56s8.43-.9,12.3-2.81c5.95.14,11.54-2,17.2-3.23,6.83-1.49,13.9-2.09,20.54-4.62,1.81-.69,4-.58,6.05-1,4.72-1.1,9.5-2.21,14.26-2.91,6-.86,11.67-2.76,17.7-3.41a49.42,49.42,0,0,0,11.87-2.55c2.18-.82,4.68-.74,7-1.25,4-.88,8-1.49,11.86-2.73,2-.63,4,0,6.06-1.12,1.67-.95,4-.81,6-1.13,2.19-.34,4.76-.08,6.49-1.16,1.89-1.18,4.33.11,5.77-1.84,4.41.56,8.37-1.65,12.64-2.21a88.25,88.25,0,0,0,16-3.43c2.06-.68,4.33-.62,6.46-1.3a42.08,42.08,0,0,1,6.07-1.06c2-.33,4.34-.17,6-1.13,1.87-1.09,4-.57,5.84-1.7,1.42-.85,3.63-.39,5.53-1.05,2.36-.83,5.33-.18,7.46-1.28,2.4-1.24,5.24.16,7.25-1.84,4.4.43,8.25-2.59,12.68-2.05.3,0,.68-.59,1.27-1.14V496.9c-2.48.64-5.29,1.42-8.12,2.09-3.95.93-8,1.55-11.87,2.75-2,.61-4,0-6,1.13-1.67,1-4,.81-6,1.13-2.19.34-4.62.19-6.51,1.13s-4.23.12-5.74,1.87c-4.21-.23-8.13,1.29-12.16,2.08-5.51,1.07-11.14,1.75-16.48,3.61-2,.69-4.26-.42-6,1.31-5.92,1-12,1.48-17.71,3.15-5.26,1.54-10.65,2.42-15.94,3.62-4.1.94-8.4,1.61-12.58,2.39a64.4,64.4,0,0,0-10.89,2.61c-1.78.67-3.64.12-5.57,1.05-2.33,1.11-5.33.73-8,1.21-3.69.66-7.5,1.14-11,2.45-2.12.8-4.64-.51-6.36,1.52-6,.32-11.88,2-17.71,3.23-5.29,1.15-10.65,2.36-15.94,3.55-4.11.92-8.41,1.59-12.59,2.39a70.21,70.21,0,0,0-10.88,2.59c-1.93.69-4,0-6.06,1.12-1.69.93-4,.8-6,1.12-2.2.34-4.72.11-6.5,1.15s-4.3,0-5.76,1.85c-4.37-.26-8.47,1.33-12.64,2.16-5,1-10.27,1.24-15,3.56-1.72.85-3.63.17-5.55,1.1-2.33,1.11-5.33.73-8,1.21-3.7.66-7.51,1.11-11,2.44-2.13.81-4.66-.51-6.36,1.53-4.67-.09-9.13,1.43-13.63,2.24-5.3,1-10.88,1.34-15.88,3.76-4.2-.18-8.14,1.29-12.16,2.09-5.5,1.11-11.16,1.61-16.46,3.65-1.92.74-4,.48-6,1a65.15,65.15,0,0,1-8.79,1.78,61.76,61.76,0,0,0-8.85,1.64c-3.58,1-7.33,1.32-10.86,2.67-2,.76-4.35.48-6.57,1-2.91.62-5.77,1.46-8.66,2a72.42,72.42,0,0,0-8.68,2c-2.38.78-5,.7-7.55,1.12A28.83,28.83,0,0,0,211.13,587.17Z" transform="translate(34.96 -202.82)"/><path class="cls-3" d="M-31.79,345.75V297.34c1.55,1.7,2.6,3,3.76,4.11Q24.1,353.62,76.26,405.76c15.62,13.44,29.42,28.76,44.1,43.16s29,29,43.52,43.46l44,44v47.73a11.49,11.49,0,0,1-2.4-2.14c-32.65-32.64-65-65.56-98-97.86C60.72,438.32,14.61,392-31.79,345.75Z" transform="translate(34.96 -202.82)"/><path class="cls-1" d="M325,223.4c3.19-2.62,5.59-6,9.16-8.19,3.88-2.41,8.13-3.78,12.37-5.11,2.2-.69,4.54-1,6.73-1.87s4.32.17,6.58-1c1.67-.91,4.23-.18,6.39-.18,3.17,0,6.37-.33,9.49.07,6.5.83,13,1.9,19.16,4.32,3.76,1.47,7.49,2.88,10.72,5.54s6.59,6.16,7.24,9.46a12.07,12.07,0,0,1-2.94,10.13c-3.4,4.14-8.21,6.31-13,8.44-2,.89-4.12,1.29-6.14,2.06s-4.34.58-6.22,1.87c-.23.16-.63.08-.95.11-3.69.33-7.38.8-11.08,1s-7.32,0-11,.06c-2.43,0-4.55-1.32-7.09-1.13s-4.86-.76-7.18-1.83c-2.09-1-4.46-1.26-6.62-2.1s-4.14-2.07-6.27-2.94a16.39,16.39,0,0,1-8.92-8.19c-1.18-2.54-2.91-5.48-.53-8.49C325.27,224.94,325,224.07,325,223.4Z" transform="translate(34.96 -202.82)"/><path class="cls-1" d="M179,253.44c3.12-2.54,5.53-5.85,9.06-8.13,3.86-2.49,8.17-3.65,12.32-5.26,2.16-.84,4.57-1,6.78-1.74s4.9.5,6.94-1.31h17c2,1.6,4.4.64,6.57,1.05a60.53,60.53,0,0,1,6.67,2,59.13,59.13,0,0,1,6.16,2c5.43,2.36,11,4.37,14.29,10.07,1.29,2.3,2.54,4.49,2.18,7.07a13.6,13.6,0,0,1-2.89,7.26c-3.63,4.15-8.5,6.4-13.41,8.6-3.85,1.73-8,2.29-11.93,3.76a3.16,3.16,0,0,1-.91.2c-3.69.35-7.38.81-11.08,1a65.56,65.56,0,0,1-11.47,0c-9.28-1.23-18.39-3.06-26.72-7.8-4.56-2.59-8.3-5.46-9.83-10.8-.61-2.14-1.33-3.88.24-5.83C179.25,255.08,179,254.2,179,253.44Z" transform="translate(34.96 -202.82)"/><path class="cls-1" d="M33,283.35c3.13-2.2,5.35-5.46,8.65-7.77,3.83-2.69,8.17-3.77,12.29-5.4,2.2-.88,4.85-1.13,7.22-1.88s4.89.48,7-1.3H84.6c3.11,2.07,6.79.74,10.21,1.81,5.47,1.72,15.11,5,19.59,8.21a16.9,16.9,0,0,1,6.46,9.72c.85,3.45-.61,7-2.88,9.69-3.51,4.23-8.45,6.42-13.38,8.61-3.85,1.71-8,2.27-11.92,3.76a5.6,5.6,0,0,1-1.42.2c-6.5.71-13,1.45-19.56,1-10.24-.73-20.07-2.87-29.2-7.89-4.6-2.53-8.3-5.47-9.83-10.8-.61-2.13-1.34-3.89.28-5.83C33.28,285.07,33,284.17,33,283.35Z" transform="translate(34.96 -202.82)"/><path class="cls-2" d="M324,238.35c2.94,3.52,7,5.53,10.76,7.46a66.13,66.13,0,0,0,11.67,4.36c4.55,1.35,9.23,1.86,13.81,2.64a57.26,57.26,0,0,0,15.42.08,84.92,84.92,0,0,0,20.16-4.26c6.39-2.32,12.69-5.89,16.59-10.54a1.28,1.28,0,0,1,.35.18.72.72,0,0,1,.23.4c0,6.3,0,12.61,0,18.37-3.41,8.13-10.05,11.21-17.23,14.16a55.33,55.33,0,0,1-11.95,3.54,83.48,83.48,0,0,1-13.51,1.41,110.58,110.58,0,0,1-17-1.33c-4-.63-8-2.35-11.92-3.6a40.38,40.38,0,0,1-10.73-5.36,14.66,14.66,0,0,1-6.65-12.6C324.05,248.29,324,243.32,324,238.35Z" transform="translate(34.96 -202.82)"/><path class="cls-2" d="M178,268.22c3.17,3.64,7.13,5.74,10.92,7.63a67.65,67.65,0,0,0,11.7,4.29,80.08,80.08,0,0,0,28.22,2.7c4.92-.37,10.14-.34,14.74-2.84,3.57.1,6.62-1.61,9.79-2.88A34.14,34.14,0,0,0,267,267.37c0,6.92.44,13.22-.16,19.42-.37,3.83-3.3,6.88-6.46,9.18-4.62,3.37-13.84,6.72-19.6,8.09-8.47,2-17,2.09-25.63,1.9-1.87,0-3.76-1-5.56-.85-2.1.23-3.68-1-5.58-1.19s-3.5-1.14-5.27-1.67a52.57,52.57,0,0,1-5.38-1.47c-1.71-.7-3.18-1.95-4.86-2.74-4.76-2.26-8.46-5.4-9.75-10.78a11.12,11.12,0,0,1-.72-2.18C178,279.46,178,273.84,178,268.22Z" transform="translate(34.96 -202.82)"/><path class="cls-2" d="M32,298.34c3,3.51,7,5.68,10.78,7.45a67.35,67.35,0,0,0,12.15,4.46c4.75,1.2,9.56,1.87,14.32,2.59a55.75,55.75,0,0,0,14.43.06,89.85,89.85,0,0,0,20.16-4.27c6.31-2.25,12-5.48,16.58-10.56a1.71,1.71,0,0,1,.35.21.72.72,0,0,1,.22.41c0,6.15,0,12.3,0,18.92a47.93,47.93,0,0,1-4,5.83c-3.34,3.68-7.88,5.55-12.3,7.58-3.83,1.75-8,2.31-11.93,3.73a3.18,3.18,0,0,1-.89.24c-3.86.35-7.71.81-11.57,1s-7.72.52-11.45-.07c-6.44-1-12.94-1.87-19.07-4.5a68.68,68.68,0,0,1-10.33-5.25,14.23,14.23,0,0,1-6.57-8.77,12.25,12.25,0,0,1-.82-2.63C32,309.27,32,303.8,32,298.34Z" transform="translate(34.96 -202.82)"/><path d="M497,323.69c0,3.82-.07,7.65,0,11.48a15.52,15.52,0,0,1-5,12.42c-5.78,5.38-12.64,8.37-20.14,10.53-4.56,1.31-9.24,1.62-13.81,2.74-3,.73-6.31.36-9.45.08s-6.24,1.23-9.1-.91c-.32-.24-1,0-1.48,0-5.16.22-10-1.52-14.7-3.1-6.09-2-12-4.64-16.49-9.6-3.07-3.41-5-7.18-4.86-12,.22-7.82.33-15.66,0-23.47-.33-7.24,3.6-12,8.8-15.7a43.73,43.73,0,0,1,14.22-6.56c2.27-.58,4.56-1.06,6.85-1.57,1.52-.34,3-.69,4.58-1,1.38-.27,2.83.43,4.19-.88.6-.58,2.22-.13,3.38-.13,3,0,6-.17,9,.06,2.19.17,4.39-.73,6.67.81,1.56,1.05,3.9-.05,6.09.91,2,.86,4.69.3,7,1.21,1,.4,2.08.6,3.07,1a69.34,69.34,0,0,1,11.63,5.73,22.78,22.78,0,0,1,8.85,10.79,9.25,9.25,0,0,1,.76,3.67C497,314.7,497,319.19,497,323.69Zm-90.85-18.42a6.23,6.23,0,0,1-.42,2.43c-2,2.93-.4,5.75.75,8.07a18.66,18.66,0,0,0,8.83,8.34c4.19,2.09,8.63,3.33,12.9,5,4.69,1.87,9.58,1.79,14.33,2.71,3.53.69,7.3.27,11,.1s7.38-.62,11.07-1a10.76,10.76,0,0,0,1.34-.39,80.31,80.31,0,0,0,12-3.63c4.78-2.06,9.51-4.32,13-8.39a11.59,11.59,0,0,0,3-9.67,15.71,15.71,0,0,0-6.36-9.77,50.64,50.64,0,0,0-8.55-4.62c-3.07-1.43-6.55-1.81-9.53-3.52-6,0-11.62-2.49-17.66-2.05-3.64.27-7.44-.52-10.95.2-4.43.9-9,1.37-13.26,2.89s-8.48,2.75-12.37,5.14C411.62,299.38,409.22,302.72,406.15,305.27Zm87.69,14.91c-3.37,4.36-8.18,6.26-12.41,8.64-3.28,1.84-7.3,2.46-11,3.49a77,77,0,0,1-15.84,2.62,84.66,84.66,0,0,1-27.22-2.82,56.68,56.68,0,0,1-11.68-4.31c-3.69-1.95-7.75-3.94-10.34-7.86-.32,6.06-.4,12-.26,17.92a7.79,7.79,0,0,0,1.3,3.92c2.31,3.44,4.93,6.42,8.9,8.33,4.2,2,8.61,3.34,12.89,5,4.52,1.78,9.24,1.76,13.82,2.71,3.67.75,7.62.28,11.44.11s7.71-.63,11.57-1c.16,0,.39.07.49,0,1.76-1.57,4.17-1.07,6.19-1.94s4.58-1.06,6.59-2.12c4.29-2.26,9-4,12.18-7.92a53.33,53.33,0,0,0,3.41-5.24Z" transform="translate(34.96 -202.82)"/><path d="M490.61,429c-1.21-1.54-3.6-3.22-5.14-5.87-1.39-2.41-2.48-4.69-2.48-7.48q0-12.74,0-25.47a15.27,15.27,0,0,1,4.78-11.53c5.8-5.68,12.87-8.74,20.57-10.66,3.83-1,7.78-1.44,11.61-2.24a56.73,56.73,0,0,1,9.12-.74c3.16-.15,6.45-.59,9.46.09,5.39,1.22,10.91,1.59,16.26,2.9.58.14,1.06.66,1.63.88A55.11,55.11,0,0,1,568.86,375c5.31,3.72,9.23,8.29,9.16,15.31-.09,8.32,0,16.65,0,25A14.49,14.49,0,0,1,573.58,426a41.19,41.19,0,0,1-20.92,11c-2.9.63-5.61,1.93-8.66,2.06s-6,.76-9.07.92a62.63,62.63,0,0,1-9.49,0,111.86,111.86,0,0,1-15.85-2.59c-3.8-.92-7.35-2.47-11.08-3.53C495.93,433.09,493.74,431,490.61,429ZM487,384.4c0,.62.26,1.44,0,1.89-2.27,3.43-.36,6.29,1.07,9.25,1.91,4,5.45,6.07,9.08,8,4,2.15,8.38,3.11,12.53,4.72,4.54,1.75,9.28,1.67,13.89,2.56,3.53.67,7.31.26,11,.09s7.39-.62,11.08-1a9.54,9.54,0,0,0,1.33-.39,80,80,0,0,0,12-3.63c4.78-2.06,9.51-4.32,13-8.38a11.59,11.59,0,0,0,3-9.67,15.64,15.64,0,0,0-6.36-9.77,51.74,51.74,0,0,0-8.55-4.63c-3.06-1.44-6.55-1.81-9.53-3.52-5.79,0-11.28-2.42-17.15-2.05-3.81.25-7.78-.55-11.45.2-4.42.91-9,1.34-13.26,2.88s-8.48,2.76-12.37,5.15C492.62,378.37,490.22,381.71,487,384.4Zm-1,13.74c0,6.8-.09,12.58.06,18.35a9.84,9.84,0,0,0,1.39,4.39,18,18,0,0,0,9,8.15c2.14.85,4.12,2.1,6.26,2.93s4.56,1.1,6.61,2.12a20.42,20.42,0,0,0,6.71,1.8c2.37.29,4.72.8,7.06,1a77.57,77.57,0,0,0,13.46,0A101.19,101.19,0,0,0,549.19,435c5.21-1.11,15.54-5.22,19.52-8.29,3-2.29,5.77-5.25,6.12-8.87.61-6.21.17-12.52.17-20-1.45,1.78-2.11,2.7-2.88,3.51-3.33,3.48-7.74,5.34-11.85,7.56-2.13,1.14-4.73,1.41-7.11,2.08s-4.8,1.27-7.19,1.87-5.14-.18-7.54,1.13c-6.17-.54-12.46,1.18-18.54-1-4.26.58-8.14-1.14-12.14-2a43.21,43.21,0,0,1-11.6-4.48C492.61,404.51,489,402.48,486,398.14Z" transform="translate(34.96 -202.82)"/><path d="M432,432.78c0,4.16,0,8.32,0,12.48a14.59,14.59,0,0,1-4.38,10.68c-5.87,5.84-13,9-20.88,11.14A91.58,91.58,0,0,1,379,470c-2.7-.1-5.38-.65-8.08-.95-2.5-.28-4.86-1.43-7.24-1.69a35.65,35.65,0,0,1-11.06-3.52c-5.55-2.59-11-5.92-14-11.78a12.75,12.75,0,0,1-1.66-5.81c.07-9.16-.1-18.32.1-27.47a13,13,0,0,1,3.62-9c6.09-6.38,13.63-9.89,22.1-11.8,3.53-.8,7.14-1.32,10.62-2.15,4.75-1.12,9.42-.67,14.11-.75,2.21,0,4.52-.72,6.72.61,1.93,1.16,4.26.11,6.54,1.09,2,.84,4.68.41,7,1.23,1,.36,2.09.58,3.07,1,3.65,1.63,7.44,3,10.86,5.14,4.58,2.89,8.19,6.54,9.79,11.85a12.12,12.12,0,0,1,.5,3.28C432,423.79,432,428.28,432,432.78Zm-91-18.39c0,.71.28,1.6,0,2-2.45,3-.59,5.95.57,8.48,1.75,3.82,5.11,6.17,8.89,8.22a66.92,66.92,0,0,0,29.2,7.83,88.09,88.09,0,0,0,16.59-.71,74.28,74.28,0,0,0,19.69-5.64c3.78-1.68,7.43-3.77,10-7.07,2.27-2.9,3.85-6.36,2.84-10.11a14.86,14.86,0,0,0-5.61-8.6c-3.43-2.35-6.9-4.68-11.06-5.85-3.89-1.09-7.5-3.17-11.71-3-1.47-1.72-3.6-.2-5.09-1-1.86-1-3.71-.9-5.62-.91-2.5,0-5,0-7.49,0-2.16,0-4.74-.74-6.39.18-2.26,1.25-4.47.28-6.58,1.05S365,400.33,363,401c-4.38,1.46-8.81,2.69-12.84,5.22C346.56,408.48,344.18,411.84,341,414.39ZM429,429c-2.52,2-4.68,3.84-7,5.44a37.4,37.4,0,0,1-7.23,4.18,76.62,76.62,0,0,1-11.11,3.3,105.55,105.55,0,0,1-12.14,2,62.44,62.44,0,0,1-9,0c-2.88-.11-5.88.74-8.57-1-4.26.58-8.18-1-12.13-2.07s-7.9-2.05-11.24-4.09c-3.59-2.19-7.66-4-10.26-7.87-.32,5.25-.32,10.36-.32,15.47,0,5.39,2.64,9.48,6.76,12.49a34.5,34.5,0,0,0,11.17,5.51c1.79.49,3.58,1,5.34,1.57a51.34,51.34,0,0,0,5.68,1.93c1.89.38,4.1-.23,5.8.48,2.14.9,4.19.52,6.25.53a107.18,107.18,0,0,0,15.58-.75,68.29,68.29,0,0,0,12-2.56,48.24,48.24,0,0,0,13.7-6.64c3.31-2.44,6.22-5.53,6.59-9.56C429.42,441.39,429,435.24,429,429Z" transform="translate(34.96 -202.82)"/><path d="M191,462.52c0-3.83.09-7.66,0-11.49a16.88,16.88,0,0,1,5.19-12.89c3.47-3.59,15.42-9,20.3-10.27,4.57-1.15,9.22-1.92,13.8-2.67a52.57,52.57,0,0,1,16.42,0c5.25.83,10.59,1.46,15.77,2.82a15.68,15.68,0,0,1,1.72.67c4.44,1.8,8.93,3.57,12.82,6.37,5.22,3.76,9.18,8.37,9,15.45-.16,8-.21,16,0,24,.2,7.14-3.63,11.86-9,15.45-4.22,2.81-8.68,5.32-13.81,6.43-4.29.92-8.49,2.11-12.85,2.83-5.06.83-10.07.52-15.09.87-3.14.23-6.05-.84-9.08-1s-5.87-1.43-8.7-1.78c-4-.49-7.61-2.12-11.06-3.6-5.67-2.44-10.92-6.05-13.95-11.79A11.62,11.62,0,0,1,191,476C191.11,471.51,191,467,191,462.52Zm4-18c0,.74.27,1.62-.05,2-1.55,1.95-.84,3.69-.23,5.82,1.54,5.34,5.28,8.22,9.83,10.81,8.34,4.73,17.45,6.6,26.73,7.78a60.47,60.47,0,0,0,13,0,92.26,92.26,0,0,0,12.18-1.81A62.52,62.52,0,0,0,272.87,463c2.68-1.47,5.37-3.06,7.14-5.59,2.1-3,3.83-6.33,2.7-10.12a16.67,16.67,0,0,0-5.62-8.63c-5.75-4.4-12.56-6.62-19.4-8.59A67.8,67.8,0,0,0,247,428.18c-5.58-.67-11.3-.18-17-.18-2,1.81-4.67.56-6.94,1.32s-4.62.9-6.78,1.73c-4.16,1.61-8.46,2.78-12.32,5.27C200.5,438.6,198.08,441.89,195,444.47Zm88,13.84c-4.14,5.25-9.27,7.81-14.29,10.31-3.41,1.69-7.31,2.48-11.07,3.33a106.26,106.26,0,0,1-12.14,2,62.58,62.58,0,0,1-9,0c-2.87-.11-5.87.74-8.57-1-4.25.58-8.17-1-12.13-2.07s-7.9-2.05-11.24-4.09c-3.59-2.2-7.66-4-10.26-7.87-.32,5.25-.31,10.36-.32,15.46,0,5.4,2.65,9.49,6.76,12.5a34.2,34.2,0,0,0,11.17,5.51c1.79.49,3.57,1,5.34,1.57a51.89,51.89,0,0,0,5.67,1.93c1.9.38,4.11-.24,5.8.48,2.15.9,4.19.52,6.25.53a107.11,107.11,0,0,0,15.58-.75,68.4,68.4,0,0,0,12-2.56,48,48,0,0,0,13.7-6.64c3.31-2.44,6.21-5.53,6.59-9.56C283.42,471.39,283,465.24,283,458.31Z" transform="translate(34.96 -202.82)"/><path d="M351,350.87c0,4.33.09,8.66,0,13a13.81,13.81,0,0,1-4.09,9.8c-6.08,6.09-13.48,9.33-21.74,11.54-4.42,1.18-8.92,1.86-13.34,2.59-5.35.88-11,.21-16.45.21-2.73-2.19-6.15-.52-9.26-1.77-2.61-1-5.78-1.3-8.56-2.28-6.24-2.19-12.35-4.73-16.9-9.84-2.92-3.28-4.8-6.92-4.69-11.57.2-8.32.09-16.66,0-25a12.42,12.42,0,0,1,2-7.17,12.82,12.82,0,0,1,1.87-2.7c3.93-3.43,14.87-9.73,19.59-10.51,4.21-.69,8.43-1.54,12.58-2.37,5.59-1.11,11.09-.5,16.62-.79a10.26,10.26,0,0,1,5.62.9c1.49.79,3.43-.53,5.18.85.83.65,2.56.07,3.85.26a30.23,30.23,0,0,1,3.59,1,18.45,18.45,0,0,1,2.23.65A95.42,95.42,0,0,1,342,324c4.26,2.6,7.19,5.82,8.52,10.1a11.48,11.48,0,0,1,.45,3.3C351,341.87,351,346.37,351,350.87Zm-91-17.94c0,.29.27,1.16,0,1.58-1.52,2-.78,3.69-.22,5.83,1.39,5.28,5.1,8.17,9.43,10.66,4.05,2.32,8.53,3.53,12.88,5.12,4.68,1.72,9.55,1.88,14.32,2.75,3.71.67,7.64.26,11.47.09s7.39-.62,11.08-1a4.08,4.08,0,0,0,.89-.25c3.94-1.4,8.1-2,12-3.73,4.78-2.1,9.53-4.28,13-8.31a11.68,11.68,0,0,0,3.13-9.62,15.7,15.7,0,0,0-5.14-8.84c-2.47.62-3.71-1.64-5.41-2.58-8.39-4.64-17.62-6.12-26.84-7.59a39.4,39.4,0,0,0-8.48,0c-2.74.16-5.45-.4-8.25.55-2.49.84-5.29.74-7.93,1.36a65.15,65.15,0,0,0-14,4.81C267.52,325.87,263.28,328.21,260,332.93Zm87.9,13.74c-2.94,2.75-4.9,5.68-8.48,6.45-4,3.6-9.15,4.35-14,6-4.37,1.52-8.91,1.91-13.31,2.63a55,55,0,0,1-16.9,0,93.53,93.53,0,0,1-13.79-2.69c-7.4-2.28-14.52-4.81-20.19-10.36-.57-.56-.93-1.64-2.2-1.53,0,5.48,0,10.79,0,16.1,0,2.47,1.12,4.43,2.26,6.56,2.17,4.08,5.92,6,9.6,8.1s8.09,2.94,12.11,4.5c4.17,1.62,8.64,1.58,13,2.38,3.7.68,7.63.27,11.45.1s7.71-.63,11.56-1c.17,0,.4.07.49,0,1.76-1.6,4.19-1.55,6.19-1.8,2.47-.31,4.09-2.6,6.64-2.19,4.19-2.44,8.94-4.08,12.15-7.95a51.14,51.14,0,0,0,3.47-5.31Z" transform="translate(34.96 -202.82)"/><path d="M205,381.87c0,4.34.08,8.67,0,13a13.82,13.82,0,0,1-4.1,9.79c-6.09,6.09-13.49,9.34-21.75,11.54-4.42,1.18-8.92,1.86-13.34,2.59-5.35.88-11,.21-16.45.21-2.72-2.2-6.15-.51-9.26-1.77-2.61-1.05-5.77-1.31-8.55-2.28-6.25-2.19-12.36-4.73-16.9-9.85-2.92-3.28-4.8-6.92-4.69-11.57.2-8.32.09-16.65,0-25a12.59,12.59,0,0,1,2-7.17,10.42,10.42,0,0,1,1.88-2.69,61,61,0,0,1,19.22-10.26c1.93-.6,3.93-1,5.91-1.42,1.68-.37,3.37-.76,5.08-1s3.2.32,4.64-1c.47-.41,1.61-.06,2.44-.06,3.83,0,7.66,0,11.49,0,1.92,0,3.77-.07,5.63.91,1.48.77,3.43-.52,5.17.85.83.66,2.57.07,3.86.26a28.43,28.43,0,0,1,3.59,1,21.12,21.12,0,0,1,2.23.65A94.25,94.25,0,0,1,196,355c4.25,2.58,7.2,5.85,8.52,10.1a11.9,11.9,0,0,1,.44,3.31C205,372.88,205,377.38,205,381.87Zm-47.9,8.38A88.26,88.26,0,0,0,175.8,388a56.55,56.55,0,0,0,16.44-6.13c4.27-2.39,8.13-5.46,9.32-10.87.83-3.74-1.73-11.18-5.05-13-2.24.9-3.2-1.29-4.63-2.09-8.65-4.81-18.12-6.88-27.73-7.74-5.77-.51-11.75-1.1-17.6.72-1.89.59-4.05.21-6.08,1s-4.29.86-6.37,1.53c-1.89.61-3.59,1.85-5.5,2.38A28.39,28.39,0,0,0,115.5,362a8.75,8.75,0,0,0-2.36,8.41,16.8,16.8,0,0,0,6.25,9.35,43,43,0,0,0,8.94,4.92,78.28,78.28,0,0,0,13.74,4.18C147,389.81,152.08,389.83,157.1,390.25Zm44.73,7.53V378.17c-2.34,1.82-4.5,3.69-6.84,5.28a37.74,37.74,0,0,1-7.24,4.19A77.29,77.29,0,0,1,176.66,391a106.26,106.26,0,0,1-12.14,2,62.58,62.58,0,0,1-9,0c-2.87-.11-5.87.74-8.57-1-4.25.59-8.17-1-12.13-2.07s-7.91-2-11.24-4.08c-3.59-2.21-7.7-4-10.28-7.89a149.6,149.6,0,0,0-.18,17.44,12.48,12.48,0,0,0,1.81,5.21c2.38,4.07,6.08,6.29,10,8.39S133,412,137,413.55c4.18,1.66,8.67,1.45,13,2.3,3.68.73,7.63.28,11.45.11s7.7-.63,11.56-1c.16,0,.39.06.48,0,1.79-1.52,4.17-1.1,6.19-1.93s4.59-1.06,6.61-2.12c4.29-2.26,9-4,12.16-7.95A51.54,51.54,0,0,0,201.83,397.78Z" transform="translate(34.96 -202.82)"/><path class="cls-1" d="M406.15,305.27c3.07-2.55,5.47-5.89,9.05-8.09,3.89-2.39,8.17-3.64,12.37-5.14s8.83-2,13.26-2.89c3.51-.72,7.31.07,10.95-.2,6-.44,11.7,2,17.66,2.05,3,1.71,6.46,2.09,9.53,3.52a50.64,50.64,0,0,1,8.55,4.62,15.71,15.71,0,0,1,6.36,9.77,11.59,11.59,0,0,1-3,9.67c-3.48,4.07-8.21,6.33-13,8.39a80.31,80.31,0,0,1-12,3.63,10.76,10.76,0,0,1-1.34.39c-3.69.35-7.37.81-11.07,1s-7.43.59-11-.1c-4.75-.92-9.64-.84-14.33-2.71-4.27-1.71-8.71-2.95-12.9-5a18.66,18.66,0,0,1-8.83-8.34c-1.15-2.32-2.78-5.14-.75-8.07A6.23,6.23,0,0,0,406.15,305.27Z" transform="translate(34.96 -202.82)"/><path class="cls-2" d="M493.84,320.18v19.59a53.33,53.33,0,0,1-3.41,5.24c-3.2,3.9-7.89,5.66-12.18,7.92-2,1.06-4.48,1.21-6.59,2.12s-4.43.37-6.19,1.94c-.1.08-.33,0-.49,0-3.86.33-7.71.8-11.57,1s-7.77.64-11.44-.11c-4.58-1-9.3-.93-13.82-2.71-4.28-1.69-8.69-3-12.89-5-4-1.91-6.59-4.89-8.9-8.33a7.79,7.79,0,0,1-1.3-3.92c-.14-5.93-.06-11.86.26-17.92,2.59,3.92,6.65,5.91,10.34,7.86a56.68,56.68,0,0,0,11.68,4.31,84.66,84.66,0,0,0,27.22,2.82,77,77,0,0,0,15.84-2.62c3.73-1,7.75-1.65,11-3.49C485.66,326.44,490.47,324.54,493.84,320.18Z" transform="translate(34.96 -202.82)"/><path class="cls-1" d="M487,384.4c3.22-2.69,5.62-6,9.21-8.22,3.89-2.39,8.17-3.63,12.37-5.15s8.84-2,13.26-2.88c3.67-.75,7.64.05,11.45-.2,5.87-.37,11.36,2.07,17.15,2.05,3,1.71,6.47,2.08,9.53,3.52a51.74,51.74,0,0,1,8.55,4.63,15.64,15.64,0,0,1,6.36,9.77,11.59,11.59,0,0,1-3,9.67c-3.49,4.06-8.22,6.32-13,8.38a80,80,0,0,1-12,3.63,9.54,9.54,0,0,1-1.33.39c-3.69.35-7.38.81-11.08,1s-7.43.58-11-.09c-4.61-.89-9.35-.81-13.89-2.56-4.15-1.61-8.57-2.57-12.53-4.72-3.63-2-7.17-4.09-9.08-8-1.43-3-3.34-5.82-1.07-9.25C487.26,385.84,487,385,487,384.4Z" transform="translate(34.96 -202.82)"/><path class="cls-2" d="M486,398.14c2.95,4.34,6.61,6.37,10.15,8.35a43.21,43.21,0,0,0,11.6,4.48c4,.89,7.88,2.61,12.14,2,6.08,2.18,12.37.46,18.54,1,2.4-1.31,5.12-.52,7.54-1.13s4.81-1.19,7.19-1.87,5-.94,7.11-2.08c4.11-2.22,8.52-4.08,11.85-7.56.77-.81,1.43-1.73,2.88-3.51,0,7.51.44,13.82-.17,20-.35,3.62-3.15,6.58-6.12,8.87-4,3.07-14.31,7.18-19.52,8.29a101.19,101.19,0,0,1-12.66,1.87,77.57,77.57,0,0,1-13.46,0c-2.34-.21-4.69-.72-7.06-1a20.42,20.42,0,0,1-6.71-1.8c-2.05-1-4.45-1.28-6.61-2.12s-4.12-2.08-6.26-2.93a18,18,0,0,1-9-8.15,9.84,9.84,0,0,1-1.39-4.39C485.91,410.72,486,404.94,486,398.14Z" transform="translate(34.96 -202.82)"/><path class="cls-1" d="M341,414.39c3.18-2.55,5.56-5.91,9.12-8.15,4-2.53,8.46-3.76,12.84-5.22,2.06-.69,4.23-1,6.26-1.79s4.32.2,6.58-1.05c1.65-.92,4.23-.18,6.39-.18,2.5,0,5,0,7.49,0,1.91,0,3.76-.06,5.62.91,1.49.77,3.62-.75,5.09,1,4.21-.13,7.82,1.95,11.71,3,4.16,1.17,7.63,3.5,11.06,5.85a14.86,14.86,0,0,1,5.61,8.6c1,3.75-.57,7.21-2.84,10.11-2.6,3.3-6.25,5.39-10,7.07a74.28,74.28,0,0,1-19.69,5.64,88.09,88.09,0,0,1-16.59.71,66.92,66.92,0,0,1-29.2-7.83c-3.78-2.05-7.14-4.4-8.89-8.22-1.16-2.53-3-5.45-.57-8.48C341.28,416,341,415.1,341,414.39Z" transform="translate(34.96 -202.82)"/><path class="cls-2" d="M429,429c0,6.21.42,12.36-.15,18.41-.37,4-3.28,7.12-6.59,9.56a48.24,48.24,0,0,1-13.7,6.64,68.29,68.29,0,0,1-12,2.56A107.18,107.18,0,0,1,381,467c-2.06,0-4.11.37-6.25-.53-1.7-.71-3.91-.1-5.8-.48a51.34,51.34,0,0,1-5.68-1.93c-1.76-.57-3.55-1.08-5.34-1.57a34.5,34.5,0,0,1-11.17-5.51c-4.12-3-6.77-7.1-6.76-12.49,0-5.11,0-10.22.32-15.47,2.6,3.84,6.67,5.68,10.26,7.87,3.34,2,7.39,3.06,11.24,4.09s7.87,2.65,12.13,2.07c2.69,1.71,5.69.86,8.57,1a62.44,62.44,0,0,0,9,0,105.55,105.55,0,0,0,12.14-2,76.62,76.62,0,0,0,11.11-3.3,37.4,37.4,0,0,0,7.23-4.18C424.32,432.87,426.48,431,429,429Z" transform="translate(34.96 -202.82)"/><path class="cls-1" d="M195,444.47c3.11-2.58,5.53-5.87,9.06-8.15,3.86-2.49,8.16-3.66,12.32-5.27,2.16-.83,4.57-1,6.78-1.73s4.9.49,6.94-1.32c5.66,0,11.38-.49,17,.18a67.8,67.8,0,0,1,10.66,1.88c6.84,2,13.65,4.19,19.4,8.59a16.67,16.67,0,0,1,5.62,8.63c1.13,3.79-.6,7.14-2.7,10.12-1.77,2.53-4.46,4.12-7.14,5.59a62.52,62.52,0,0,1-16.47,6.11,92.26,92.26,0,0,1-12.18,1.81,60.47,60.47,0,0,1-13,0c-9.28-1.18-18.39-3.05-26.73-7.78-4.55-2.59-8.29-5.47-9.83-10.81-.61-2.13-1.32-3.87.23-5.82C195.24,446.09,195,445.21,195,444.47Z" transform="translate(34.96 -202.82)"/><path class="cls-2" d="M283,458.31c0,6.93.42,13.08-.15,19.13-.38,4-3.28,7.12-6.59,9.56a48,48,0,0,1-13.7,6.64,68.4,68.4,0,0,1-12,2.56A107.11,107.11,0,0,1,235,497c-2.06,0-4.1.37-6.25-.53-1.69-.72-3.9-.1-5.8-.48a51.89,51.89,0,0,1-5.67-1.93c-1.77-.57-3.55-1.08-5.34-1.57a34.2,34.2,0,0,1-11.17-5.51c-4.11-3-6.77-7.1-6.76-12.5,0-5.1,0-10.21.32-15.46,2.6,3.85,6.67,5.67,10.26,7.87,3.34,2,7.39,3.07,11.24,4.09S223.7,473.58,228,473c2.7,1.71,5.7.86,8.57,1a62.58,62.58,0,0,0,9,0,106.26,106.26,0,0,0,12.14-2c3.76-.85,7.66-1.64,11.07-3.33C273.73,466.12,278.86,463.56,283,458.31Z" transform="translate(34.96 -202.82)"/><path class="cls-1" d="M260,332.93c3.32-4.72,7.56-7.06,11.86-9.17a65.15,65.15,0,0,1,14-4.81c2.64-.62,5.44-.52,7.93-1.36,2.8-.95,5.51-.39,8.25-.55a39.4,39.4,0,0,1,8.48,0c9.22,1.47,18.45,2.95,26.84,7.59,1.7.94,2.94,3.2,5.41,2.58a15.7,15.7,0,0,1,5.14,8.84,11.68,11.68,0,0,1-3.13,9.62c-3.5,4-8.25,6.21-13,8.31-3.86,1.7-8,2.33-12,3.73a4.08,4.08,0,0,1-.89.25c-3.69.35-7.38.81-11.08,1s-7.76.58-11.47-.09c-4.77-.87-9.64-1-14.32-2.75-4.35-1.59-8.83-2.8-12.88-5.12-4.33-2.49-8-5.38-9.43-10.66-.56-2.14-1.3-3.87.22-5.83C260.23,334.09,260,333.22,260,332.93Z" transform="translate(34.96 -202.82)"/><path class="cls-2" d="M347.86,346.67v20.07a51.14,51.14,0,0,1-3.47,5.31c-3.21,3.87-8,5.51-12.15,7.95-2.55-.41-4.17,1.88-6.64,2.19-2,.25-4.43.2-6.19,1.8-.09.08-.32,0-.49,0-3.85.33-7.7.8-11.56,1s-7.75.58-11.45-.1c-4.31-.8-8.78-.76-13-2.38-4-1.56-8.33-2.35-12.11-4.5s-7.43-4-9.6-8.1c-1.14-2.13-2.27-4.09-2.26-6.56,0-5.31,0-10.62,0-16.1,1.27-.11,1.63,1,2.2,1.53,5.67,5.55,12.79,8.08,20.19,10.36a93.53,93.53,0,0,0,13.79,2.69,55,55,0,0,0,16.9,0c4.4-.72,8.94-1.11,13.31-2.63,4.84-1.68,10-2.43,14-6C343,352.35,344.92,349.42,347.86,346.67Z" transform="translate(34.96 -202.82)"/><path class="cls-1" d="M157.1,390.25c-5-.42-10.11-.44-15-1.36a78.28,78.28,0,0,1-13.74-4.18,43,43,0,0,1-8.94-4.92,16.8,16.8,0,0,1-6.25-9.35A8.75,8.75,0,0,1,115.5,362a28.39,28.39,0,0,1,13.1-8.19c1.91-.53,3.61-1.77,5.5-2.38,2.08-.67,4.37-.73,6.37-1.53s4.19-.44,6.08-1c5.85-1.82,11.83-1.23,17.6-.72,9.61.86,19.08,2.93,27.73,7.74,1.43.8,2.39,3,4.63,2.09,3.32,1.84,5.88,9.28,5.05,13-1.19,5.41-5.05,8.48-9.32,10.87A56.55,56.55,0,0,1,175.8,388,88.26,88.26,0,0,1,157.1,390.25Z" transform="translate(34.96 -202.82)"/><path class="cls-2" d="M201.83,397.78a51.54,51.54,0,0,1-3.37,5.2c-3.19,3.91-7.87,5.69-12.16,7.95-2,1.06-4.47,1.24-6.61,2.12s-4.4.41-6.19,1.93c-.09.08-.32,0-.48,0-3.86.33-7.7.8-11.56,1s-7.77.62-11.45-.11c-4.32-.85-8.81-.64-13-2.3-4-1.6-8.26-2.49-12.09-4.55s-7.6-4.32-10-8.39a12.48,12.48,0,0,1-1.81-5.21,149.6,149.6,0,0,1,.18-17.44c2.58,3.88,6.69,5.68,10.28,7.89,3.33,2,7.39,3.06,11.24,4.08s7.88,2.66,12.13,2.07c2.7,1.71,5.7.86,8.57,1a62.58,62.58,0,0,0,9,0,106.26,106.26,0,0,0,12.14-2,77.29,77.29,0,0,0,11.09-3.31,37.74,37.74,0,0,0,7.24-4.19c2.34-1.59,4.5-3.46,6.84-5.28Z" transform="translate(34.96 -202.82)"/></svg>