<svg id="Layer_1" data-name="Layer 1" xmlns="http://www.w3.org/2000/svg" viewBox="0 0 911.75 498.29"><defs><style>.cls-1{fill:#fef3e8;}.cls-2{fill:#d2c7bd;}.cls-3{fill:#e8ddd2;}</style></defs><path d="M-82.21,253.94c2.6-4,6.77-6.43,10.75-8.77a43.38,43.38,0,0,1,11.27-4.09c4-1,8.07-1.6,12.1-2.32A69.3,69.3,0,0,1-39,238c3.16-.15,6.56-.73,9.44.17s5.84-.19,8.23,1.8c2.2-.44,4.42.61,6.72-.74,1.65-1,4-.35,6-1.12,2.47-.93,5.39-.58,8-1.19,5-1.16,10.22-1.82,15.15-3.29,2.25-.67,4.64-.27,6.86-1.54,1.67-1,4-.78,6-1.12s3.72-.73,5.59-1c2-.28,4.1-.77,6-1.22,3.19-.74,6.39-1.45,9.61-2.09s6.17-1.26,9.24-1.91a57.83,57.83,0,0,1,5.79-.86c2.63-3.91,6.7-6.43,10.72-8.72,3.43-1.95,7.43-2.95,11.24-4.19,4.63-1.52,9.55-1.72,14.28-2.89,3-.74,6.32-.36,9.46-.08s6.27-1.23,9.09.94c2.8-.47,5.4.93,8.09.92a38,38,0,0,0,9-1.15c3.07-.76,6.13-1.33,9.24-1.84,5.4-.89,10.73-2.22,16.08-3.39,2.13-.47,4.22-1.33,6.37-1.47,3-.19,5.86-1.3,8.82-1.67a60.42,60.42,0,0,0,8.87-1.61c3.59-1,7.37-1.2,10.84-2.73,1.71-.75,3.64.09,5.67-.81,2.67-1.17,5.95-1,9.26-1.42,2.63-3.64,6.53-6.34,10.61-8.56a48,48,0,0,1,11.25-4.18c4-1,8.15-1.4,12.1-2.3,6.27-1.41,12.44-.32,18.63-.73,1.34-.09,2.71.68,4.09.92s2.77.43,4.14.79c2,.51,4.47.92,6.66-.47,1.61-1,3.61-.19,5.54-1.12,2.32-1.11,5.33-.7,8-1.21,5.39-1,10.74-2.21,16.1-3.37,2.13-.47,4.2-1.38,6.34-1.53,3-.21,5.88-1.22,8.85-1.63a57,57,0,0,0,8.85-1.63c5.09-1.58,10.41-1.93,15.48-3.6,2.83-.93,6-.93,9.38-1.41a29.38,29.38,0,0,1,10.55-8.45A60.39,60.39,0,0,1,379,150.93c4.55-1.24,9.33-1.24,13.79-2.89a7.6,7.6,0,0,1,2.48,0c3.5,0,7-.05,10.5,0,2.07,0,4.09-.24,6.14.88,1.59.87,3.62-.06,5.65.85a7.27,7.27,0,0,0,6.61-.42c1.65-1.06,4,.67,5.45-1.33l9.71-1.2c1.42,1.43,2.8,2.84,4.2,4.24L620.31,327.81c24.72,22.51,47.56,46.92,71.33,70.39s47.4,47.34,71.23,71.17V524.6c-4.39,1.49-9.17,1.5-13.58,3.3-1.66.67-3.71.55-5.58.92-2.92.58-5.84,1.36-8.81,1.76a53.46,53.46,0,0,0-8.85,1.61,124.51,124.51,0,0,1-15.95,3.56c-5.59,1-11,2.76-16.69,3.39a52.26,52.26,0,0,0-8.69,1.87c-2.7.78-5.65.49-8.19,2-4.25-.52-8,1.79-12.14,2.19a48.56,48.56,0,0,0-8.68,1.86c-2.7.78-5.66.46-8.19,2-4.25-.55-8,1.78-12.14,2.18A47.53,47.53,0,0,0,626.7,553c-2.7.79-5.52.86-8.23,1.83-2.16.77-4.7.12-7.07,1.06-2,.79-4.81.11-6.44,1.25-2.09,1.47-4.38.14-6.44,1.57-1.5,1-3.93.65-6,1.12-6.09,1.43-12.25,2.53-18.36,3.93-4.1.94-8.36,1.74-12.61,2.33a92.42,92.42,0,0,0-14.16,3.21c-2.25.69-4.65.17-6.86,1.55-1.62,1-4,.76-6,1.14s-4.53.46-6.36,1.48-4.38-.56-5.89,1.51c-4.37-.21-8.45,1.42-12.65,2.16-3.63.64-7.45.87-10.91,2.54-1.84.89-4,.19-6,1.14-2.21,1-5.33.19-7.42,1.33-2.41,1.29-5.25-.19-7.27,1.83-6.13-.26-11.75,2.42-17.73,3.17-1.82.23-4.22.06-5.49,1-2,1.45-4.22-.06-6,1.43-1.51,1.29-4-.65-5.41,1.4-4.25-.54-7.95,2.29-12.17,2-2.37,2.1-5.52.44-8.25,1.83-2.28,1.16-5.44.44-8,1.25-5.21,1.67-10.62,2.56-15.91,3.71-4.13.89-8.4,1.63-12.59,2.39-3.62.66-7.36,1.11-10.92,2.51a25.23,25.23,0,0,1-6.47,1.23c-2.55.24-4.87,1.16-7.3,1.74-.62.14-1.24.25-1.86.34-2.52.36-5.16.35-7.53,1.16-4.19,1.42-8.58,1.74-12.82,2.82-7.59,1.94-15.53,2.24-23,4.83-1.91.67-4,.08-6.06,1.08-1.77.87-4,.77-6,1.11s-3.72.74-5.59,1a60.3,60.3,0,0,0-6,1.2c-4.91,1.14-9.88,1.92-14.76,3-7,1.55-14.25,2.1-21,4.82-4.36-.18-8.49,1.31-12.63,2.18-5.32,1.12-10.77,1.74-16,3.56-2,.69-4.33.8-6.49,1.25-7.51,1.57-15.15,2.46-22.49,4.84-1.92.63-4,.58-6.06,1-4.9,1.07-9.89,1.7-14.73,3.11a13.45,13.45,0,0,1-3.34,0c-1.21-1.22-2.59-2.63-4-4C130.7,600.2,90.29,559.05,49,518.8c-22.13-21.58-43.88-43.53-65.87-65.24C-39,431.67-61,409.52-83,387.48l-65.87-65.87V268.13c1.46-.68,3-2,4.54-2,5.77-.17,11.1-2.43,16.73-3.26a32.34,32.34,0,0,0,6.85-1.45,35.3,35.3,0,0,1,6.93-1.38c2.36-.38,4.83-.35,7.07-1.07,6.16-2,12.5-2.92,18.82-4.1A42.73,42.73,0,0,1-82.21,253.94Zm-61.31,15.53c1.28,1.09,2.33,1.86,3.24,2.77q31.48,31.45,63,62.93c21,21,41.83,42.07,63,62.89s41.17,42.49,63.19,62.26L175.39,586.89l2.37,2.36a29.25,29.25,0,0,1,3.85-1.22c2.51-.43,5.25-.2,7.54-1.13,5.13-2.1,10.64-2.38,15.92-3.74,6.2-1.6,12.61-2.33,18.85-4a68.87,68.87,0,0,1,8.9-1.55,81,81,0,0,0,8.76-1.82c2-.48,4.24-.18,6-1,3.47-1.66,7.28-1.93,10.89-2.59,4.19-.76,8.47-1.5,12.59-2.39,5.29-1.16,10.62-2.56,15.93-3.59,6-1.18,12.09-2.43,18.21-3.23,1.22-.15,2.38-.71,3.6-1s2.44-.45,3.65-.78c3.3-.91,6.74-1.42,10.11-2.19,2.64-.59,5.58-.22,8-1.2,2.07-.84,4.2-.27,6.05-1.08,5.26-2.31,11-2.53,16.44-3.78,1-.24,2-.82,3.09-1,1.32-.17,2.85.38,4-.12,3.47-1.55,7.27-1.7,10.86-2.71a61.63,61.63,0,0,1,8.86-1.62,69,69,0,0,0,8.78-1.8c2-.53,4.16-.25,6-1,5.13-2.11,10.66-2.45,16-3.6,4.14-.89,8.27-2.37,12.63-2.16,7.21-2.86,15-3.38,22.46-4.86,4.17-.82,8.27-2.4,12.64-2.14,1.94-1.64,4.48-1.45,6.7-1.86,2.48-.45,4.91-1.77,7.56-1.14,1.88-1.93,4.54-.94,6.8-1.65a50.78,50.78,0,0,1,8.57-2.17c4.27-.52,8.31-2.24,12.65-2.18,1.77-1.58,4.08-.52,6-1.22a65.18,65.18,0,0,1,10.88-2.6c4.2-.76,8.49-1.47,12.59-2.4,5.29-1.21,10.66-2.42,16-3.53,5.84-1.21,11.65-3,17.7-3.25,1.73-1.69,4.12-.41,6-1.3,3.46-1.67,7.28-1.9,10.91-2.54,4.2-.74,8.28-2.37,12.65-2.16,1.56-2.2,4.21-.33,6.3-1.8,1.74-1.23,4.77-.43,6.91-1.32,2.38-1,4.87-.27,7.06-1.07,4-1.46,8.24-1.89,12.35-2.66,3.87-.72,7.71-1.73,11.58-2.45,4.09-.77,8.28-1.48,12.36-2.57,1.47-.39,3-1.15,4.55-1.05,1.86.11,3.41-.64,5.09-1.07,2.71-.7,5.42-1.71,8.17-1.93,4.3-.34,8.3-2.33,12.67-2.08,3.73-2.44,8.21-1.93,12.3-2.82s8.47-1.48,12.58-2.4c5.29-1.19,10.71-1.94,15.94-3.63a69.67,69.67,0,0,1,9.65-2c3.42-.58,6.78-1.57,10.16-2,5.81-.74,11.24-3,17.32-3.34C735,446.51,712.14,423.42,689,400.58S643.57,353.89,619.46,332L440.92,153.41c-1.16-1.17-2.21-2.46-3.31-3.69a39.16,39.16,0,0,1-4.37,1.24,48.15,48.15,0,0,1-5,.27c.84,1,1.14,1.61,1.57,1.73a34.06,34.06,0,0,1,8.77,4.2,23.19,23.19,0,0,1,7.52,7.24c1.45,2.21,2.77,4.33,2.81,6.85.13,9.5.2,19,0,28.5a13.32,13.32,0,0,1-3.58,8.5c-3.9,4.42-9.05,6.95-14,9.67-2.13,1.16-4.74,1.41-7.13,2.08s-4.81,1.28-7.2,1.87-5,.54-7.59,1c-3.89.64-8,.3-12,.13s-7.72-.63-11.58-1a1.37,1.37,0,0,1-.45-.13c-4.49-2.11-9.47-2.54-14.07-4.69-7.93-3.69-10.61-5.07-15.15-11.5a11.12,11.12,0,0,1-2.13-6.11c-.11-3.66,0-7.33,0-11s0-7.34,0-11c0-3.49-.5-7,.94-10.18-24.14,4.5-47.86,9.8-71.82,14.07l-.16,1a33.67,33.67,0,0,0,3.21,1.47,29.2,29.2,0,0,1,13.56,9.4,15.13,15.13,0,0,1,3.33,10.12c-.24,8-.11,16-.05,24a15.74,15.74,0,0,1-4.91,12A41.8,41.8,0,0,1,286.67,247c-7.58,3.66-15.83,4.77-24,5.92a62.87,62.87,0,0,1-11.48.05c-3.71-.16-7.4-.62-11.09-1a4.12,4.12,0,0,1-.88-.29,60.17,60.17,0,0,0-7.74-1.87,34.52,34.52,0,0,1-7.3-2.85c-5-2.27-9.77-5-13-9.48a16,16,0,0,1-3.23-10.17c.28-7.49,0-15,.11-22.5,0-2.51.38-5,.59-7.54l-72.93,14.38c.43.5.72,1.17,1.16,1.29a33.5,33.5,0,0,1,8.76,4.19,23.15,23.15,0,0,1,7.53,7.25c1.44,2.2,2.78,4.31,2.81,6.84.13,9.5.2,19,0,28.5a13.35,13.35,0,0,1-3.57,8.51c-3.9,4.41-9.07,6.92-14,9.67-2.11,1.16-4.73,1.41-7.12,2.08s-4.81,1.28-7.21,1.87-5,.54-7.58,1c-3.89.64-8,.3-12,.13s-7.72-.63-11.59-1a1.76,1.76,0,0,1-.45-.12c-4.48-2.13-9.46-2.55-14.06-4.69-7.95-3.72-10.61-5.08-15.15-11.5A11.16,11.16,0,0,1,61,259.58c-.12-3.66,0-7.33,0-11s0-7.33,0-11c0-3.49-.5-7,1-10.22-24.15,4.58-47.88,9.82-71.84,14.11l-.16,1A34.7,34.7,0,0,0-6.83,244a29.2,29.2,0,0,1,13.56,9.39,15.1,15.1,0,0,1,3.34,10.12c-.24,8-.11,16-.05,24a15.73,15.73,0,0,1-4.91,12A41.75,41.75,0,0,1-6.32,307c-7.58,3.66-15.84,4.77-24,5.92a63,63,0,0,1-11.49,0c-3.7-.16-7.39-.62-11.08-1a4.09,4.09,0,0,1-.88-.28,58.7,58.7,0,0,0-7.75-1.87A34.69,34.69,0,0,1-68.83,307c-5-2.27-9.78-5-13-9.48a15.61,15.61,0,0,1-3.24-10.17c.31-5.65.08-11.33.08-17,0-2.84-.09-5.67,0-8.5a37.33,37.33,0,0,1,.75-4.67ZM178.17,592.76v49.58c1-.55,1.59-1.14,2.24-1.21a106.17,106.17,0,0,0,14.74-3C201,636.67,207,636,212.88,635c1.69-1.73,4-.62,6-1.3,5.33-1.88,11-2.54,16.48-3.62,4-.79,8-2.31,12.15-2.08,3.08-2.16,6.9-1.85,10.32-2.78s7.08-1.34,10.62-2.18c2.76-.65,5.65-.79,8.42-1.42s5.49-1.28,8.3-1.77c3.39-.58,6.68-1.62,10.18-1.93s6.72-1.53,10.16-2.06c2-.31,4.22-.33,6-1,7.12-2.7,14.73-2.92,22-4.66,3.79-.9,7.44-2.56,11.43-2.68a13.78,13.78,0,0,0,4.68-.74c2.52-1,5.2-1.15,7.78-1.71s5.67-.1,8-1.2c3.35-1.57,7-1.69,10.38-2.63s7.09-1.34,10.62-2.18c2.76-.66,5.64-.83,8.42-1.44s5.39-1.86,8.32-1.6c1.81-2.06,4.53-.54,6.78-1.82,2.05-1.17,5-.58,7.46-1.26,2-.58,4.3-.34,6-1.08,5-2.11,10.46-1.82,15.42-3.79,1.74-.69,3.75.55,5.66-.91,1.26-.95,3.28.15,5.1-1,1.39-.85,3.67-.77,5.5-1a88.06,88.06,0,0,0,9.64-2.18c3.37-.82,6.85-.8,10.21-1.89,2.53-.83,5.45-.44,8-1.19,2.72-.79,5.4-1.48,8.17-2.07,4.75-1,9.53-1.86,14.26-2.94,2-.46,4.33-.29,6-1.09,3.34-1.56,7-1.69,10.39-2.59s7.09-1.38,10.62-2.19c2.77-.63,5.63-.88,8.41-1.45s5.57-1.14,8.3-1.75c4.75-1.05,9.54-1.84,14.27-2.93,2-.47,4.24-.35,6-1.06,5.16-2,10.65-2.4,15.94-3.73,6-1.51,12.24-2.59,18.35-3.91S615.9,551.91,622,551a32.47,32.47,0,0,0,6.49-1.23c3.72-1.42,7.6-1.87,11.38-2.59s7.65-1.91,11.62-2.32a24,24,0,0,0,6-1c5.16-2,10.64-2.52,16-3.65,4.14-.88,8.28-2.36,12.63-2.18,6.74-2.68,14-3.38,21-4.77,5.7-1.14,11.42-2.46,17.17-3.47a108.08,108.08,0,0,0,12.33-2.65c3-.88,6.17-.89,9.16-2.05,1.73-.67,3.71-.67,5.56-1.07,2.88-.63,5.74-1.34,8.52-2,.63-13.87.41-45.92-.31-49.8a5.54,5.54,0,0,1-1.63.77c-1.13.15-2.45-.24-3.43.18-5.1,2.19-10.63,2.55-15.94,3.68-4.14.88-8.47,1.46-12.58,2.39-6.28,1.41-12.52,2.85-18.89,3.79-1.67,2.08-4.22.88-6.33,1.57a71.36,71.36,0,0,1-15.61,3.28c-4.32.38-8.23,2.68-12.63,2.19-3.12,2.06-6.91,1.85-10.33,2.74s-7.09,1.4-10.62,2.19c-2.77.62-5.62.89-8.41,1.45s-5.65,1-8.29,1.76c-5.58,1.59-11.31,2.43-16.93,3.61-4.91,1-9.85,1.89-14.76,3-1.93.46-4,.91-6,1.2-1.87.26-3.72.66-5.58,1-2,.34-4.24.27-6,1.1-2,.94-4.16.43-6.06,1.08-5.83,2-11.94,2.59-17.89,3.93-2,.46-4,.67-6.07,1-1.79.31-3.47,1.72-5.21,1.73-2.16,0-4.06.76-6.08,1.13-1.86.34-3.72.68-5.59,1s-4.26.24-6,1.11c-2.22,1.09-4.59.86-6.85,1.53-5.09,1.52-10.41,2.28-15.62,3.36-2.18.46-4.52.59-6.53,1.19-4.39,1.32-8.92,1.8-13.26,3-2,.57-4.12.31-6,1.09-2.51,1-5.2,1.14-7.8,1.68s-5.49.36-8,1.21c-5.84,2-11.93,2.6-17.88,3.92-2,.45-4.23.4-6,1.07-3.55,1.33-7.26,1.78-10.86,2.7-6,1.52-12.19,1.9-18.19,3.27-2,.47-4.14.41-6.05,1-7.34,2.39-15,3.27-22.48,4.85a60.37,60.37,0,0,0-6.5,1.24c-5.38,1.8-11.05,2.11-16.43,3.75a22.94,22.94,0,0,1-3.59,1c-1.3.18-2.78-.28-3.95.15a53.77,53.77,0,0,1-13.3,2.89c-1.71,1.7-4.05.52-6,1.29-2.5,1-5.2,1.13-7.8,1.67s-5.54.3-8,1.27c-3.54,1.41-7.32,1.48-10.88,2.69-2.22.76-4.89.29-7,1.2-2.37,1-5.15.1-7.23,1.88-3.58-.31-6.81,1.18-10.16,2s-6.82,1.05-10.21,1.82c-3,.69-6.15,1.26-9.24,1.88s-6.42,1.34-9.61,2.08c-1.94.45-4,1-6,1.22-1.87.25-3.72.66-5.58,1-2,.34-4.26.26-6,1.11-2,1-4.15.42-6.06,1.07-5.67,2-11.58,2.66-17.41,3.83-2.17.43-4.48.63-6.5,1.23-3.59,1.07-7.28,1.88-10.88,2.57-4.17.79-8.27,2.37-12.63,2.19C183.82,592.12,180.41,589.74,178.17,592.76Zm-3.32-1.84C120.22,536.77,65.19,482.39,10.35,427.8Q-66.51,351.29-143,274.45a9.94,9.94,0,0,0-1.44-1.39c-.41-.27-.51-1.34-1.4-.73v47.28l48.53,48.53,48.77,48.77c16.14,16.14,32.16,32.39,48.44,48.38s31.75,33,49,48.1L171.16,635.66l3.69,3.69ZM358.16,167.23c-.15.93,0,1.88-.43,2.47-2,2.93-.39,5.74.75,8.08,1.81,3.73,5,6.36,8.83,8.32,4.19,2.12,8.63,3.34,12.91,5.05,4.68,1.87,9.57,1.78,14.32,2.71,3.53.7,7.31.27,11,.1s7.39-.63,11.08-1a3.42,3.42,0,0,0,1-.07c4-1.68,8.4-2.13,12.35-3.94,4.74-2.17,9.5-4.35,13-8.41a11.62,11.62,0,0,0,3-9.67,15.35,15.35,0,0,0-6.36-9.78c-6.82-4.74-14.71-7.37-22.71-8.93-5.17-1-10.59-1.8-16-1.25-2.64.27-5.45-.46-8,.16-4.4,1.09-9,1.43-13.25,2.93s-8.48,2.75-12.37,5.14C363.76,161.3,361.44,164.48,358.16,167.23ZM212,197.39c0,.58.18,1.17,0,1.56-2,3.76-.42,6.79,1.46,10.09,3.24,5.71,8.82,7.71,14.33,9.94,2,.81,4.23,1.1,6.12,2.09,2.15,1.12,4.51,1.14,6.74,1.81,2.06.62,4.5-.27,6.54,1.12a175.67,175.67,0,0,0,24-1,1.76,1.76,0,0,0,.44-.15c3.85-1.63,8.06-2.08,11.92-3.79,4.93-2.19,9.75-4.48,13.42-8.57s3.57-9.62.82-14.34c-2.24-3.84-5.59-6.14-9.21-7.92a70.71,70.71,0,0,0-29-7.21c-3.49-.12-7,0-10.49,0-.83,0-2-.35-2.44.06-2,1.88-4.41.38-6.53,1.19s-4.2,1.08-6.26,1.77c-4.38,1.46-8.81,2.7-12.83,5.25C217.54,191.52,215.15,194.86,212,197.39ZM65,227.46a3.3,3.3,0,0,1,0,1.16c-1.76,3.87-.68,7.07,1.5,10.58,2,3.18,4.72,5,7.69,6.8,4,2.43,8.55,3.48,12.87,5.12,4.67,1.78,9.55,1.88,14.31,2.74,3.7.68,7.64.27,11.46.1s7.38-.62,11.07-1a4.11,4.11,0,0,0,.89-.26c3.93-1.39,8.1-2,11.94-3.72,4.78-2.1,9.43-4.36,13.07-8.27,2-2.17,2.6-5,3.16-7.67.44-2.15-.84-4.33-2.3-7-3.14-5.76-8.79-7.75-14.28-10-2-.83-4.09-1.38-6.15-2a56.42,56.42,0,0,0-6.67-1.95c-2.18-.4-4.56.48-6.57-1.06H100c-2,1.84-4.66.55-6.93,1.36s-4.63.85-6.79,1.7c-4.15,1.62-8.43,2.84-12.3,5.31C70.41,221.63,68.07,225,65,227.46ZM-37.61,284.27-22.28,283a3.24,3.24,0,0,0,.93-.16c3.86-1.61,8.06-2.07,11.92-3.78C-4.5,276.87.32,274.58,4,270.49s3.57-9.62.82-14.34C2.57,252.31-.78,250-4.4,248.23a70.86,70.86,0,0,0-29-7.21c-3.49-.12-7,0-10.49,0-.83,0-2-.35-2.44.06-2,1.88-4.41.38-6.53,1.19s-4.2,1.08-6.26,1.77c-4.38,1.46-8.82,2.68-12.83,5.24-3,1.9-5.2,4.45-7.62,6.83a8.52,8.52,0,0,0-2.31,8.4c1,3.66,3,7.25,6.29,9.29a50,50,0,0,0,10.74,5.39,116,116,0,0,0,11.92,3.68C-48,283.89-42.89,283.83-37.61,284.27ZM211,210.84c0,7.06-.09,12.84.06,18.6a10,10,0,0,0,1.35,4.4,21.25,21.25,0,0,0,8.94,8.23,67.67,67.67,0,0,0,29.17,7.84,84.34,84.34,0,0,0,17.07-.71,73.71,73.71,0,0,0,12-2.56,48.24,48.24,0,0,0,13.7-6.64c3.28-2.45,6.21-5.53,6.58-9.57.55-6.06.14-12.2.14-19.12-4.14,5.25-9.27,7.83-14.3,10.32-3.41,1.69-7.32,2.47-11.08,3.32-4,.9-8.09,2-12.13,1.92-5.85-.05-11.81,1.34-17.56-.87-4.25.58-8.17-1-12.12-2.07s-7.89-2.07-11.24-4.1C218,217.66,213.94,215.78,211,210.84ZM64,242.34c0,5.46,0,10.93,0,16.4a12.25,12.25,0,0,0,.82,2.63,14.23,14.23,0,0,0,6.57,8.77,68.68,68.68,0,0,0,10.33,5.25c6.13,2.63,12.63,3.49,19.07,4.5,3.73.59,7.64.24,11.45.07s7.71-.62,11.57-1a3.18,3.18,0,0,0,.89-.24c3.92-1.42,8.1-2,11.93-3.73,4.42-2,9-3.9,12.3-7.58a47.93,47.93,0,0,0,4-5.83c0-6.62,0-12.77,0-18.92a.72.72,0,0,0-.22-.41,1.71,1.71,0,0,0-.35-.21c-4.53,5.08-10.27,8.31-16.58,10.56a89.85,89.85,0,0,1-20.16,4.27,55.75,55.75,0,0,1-14.43-.06c-4.76-.72-9.57-1.39-14.32-2.59a67.35,67.35,0,0,1-12.15-4.46C71,248,67,245.85,64,242.34Zm-57.11,29c-4,5.32-9,8-14,10.18a69.81,69.81,0,0,1-23.67,5.36c-5.8.32-11.79,1.27-17.54-.84-4.44.73-8.53-1.14-12.6-2.19a49.14,49.14,0,0,1-11.91-5A43.56,43.56,0,0,1-82,271.5c0,6.3-.16,11.77.08,17.23a14.64,14.64,0,0,0,2.08,6.11c2.13,3.91,5.68,5.91,9.21,7.93,3.88,2.22,8.32,3.18,12.52,4.68,4.36,1.55,9,1.66,13.43,2.42,3.72.63,7.64.26,11.46.09s7.38-.62,11.06-1a4,4,0,0,0,.9-.23c3.92-1.43,8.1-2,11.92-3.74,4.43-2,9-3.9,12.31-7.57a46.46,46.46,0,0,0,3.92-5.68ZM357,181c0,6.88-.09,12.65.06,18.42a10,10,0,0,0,1.37,4.4,20.81,20.81,0,0,0,8.93,8.23c4.16,2.16,8.61,3.36,12.88,5.08,4.53,1.82,9.25,1.8,13.83,2.66,4.34.81,9,.46,13.43.08a102.76,102.76,0,0,0,12.66-1.86c5.19-1.11,15.53-5.15,19.52-8.29,3.06-2.4,5.9-5.4,6.2-9.35.46-6.07.12-12.2.12-19.1-4.15,5.26-9.28,7.84-14.31,10.33-3.42,1.69-7.33,2.47-11.09,3.31-4,.89-8.09,1.93-12.13,1.92-5.85,0-11.81,1.25-17.56-.87-4.25.58-8.13-1.14-12.13-2a42.47,42.47,0,0,1-11.61-4.47C363.64,187.51,359.91,185.55,357,181Z" transform="translate(148.89 -146.8)"/><path class="cls-1" d="M-143.52,269.47l59.31-12.3a37.33,37.33,0,0,0-.75,4.67c-.13,2.83,0,5.66,0,8.5,0,5.66.23,11.34-.08,17a15.61,15.61,0,0,0,3.24,10.17c3.23,4.48,8,7.21,13,9.48a34.69,34.69,0,0,0,7.29,2.86,58.7,58.7,0,0,1,7.75,1.87,4.09,4.09,0,0,0,.88.28c3.69.35,7.38.81,11.08,1a63,63,0,0,0,11.49,0c8.18-1.15,16.44-2.26,24-5.92A41.75,41.75,0,0,0,5.11,299.5a15.73,15.73,0,0,0,4.91-12c-.06-8-.19-16,.05-24a15.1,15.1,0,0,0-3.34-10.12A29.2,29.2,0,0,0-6.83,244,34.7,34.7,0,0,1-10,242.5l.16-1c24-4.29,47.69-9.53,71.84-14.11-1.46,3.21-.92,6.73-1,10.22,0,3.67,0,7.34,0,11s-.09,7.34,0,11a11.16,11.16,0,0,0,2.14,6.11c4.54,6.42,7.2,7.78,15.15,11.5,4.6,2.14,9.58,2.56,14.06,4.69a1.76,1.76,0,0,0,.45.12c3.87.33,7.72.8,11.59,1s8.08.51,12-.13c2.55-.42,5.16-.35,7.58-1s4.82-1.2,7.21-1.87,5-.92,7.12-2.08c5-2.75,10.14-5.26,14-9.67a13.35,13.35,0,0,0,3.57-8.51c.24-9.49.17-19,0-28.5,0-2.53-1.37-4.64-2.81-6.84a23.15,23.15,0,0,0-7.53-7.25,33.5,33.5,0,0,0-8.76-4.19c-.44-.12-.73-.79-1.16-1.29l72.93-14.38c-.21,2.53-.57,5-.59,7.54-.08,7.5.17,15-.11,22.5a16,16,0,0,0,3.23,10.17c3.24,4.48,8,7.21,13,9.48a34.52,34.52,0,0,0,7.3,2.85,60.17,60.17,0,0,1,7.74,1.87,4.12,4.12,0,0,0,.88.29c3.69.35,7.38.81,11.09,1a62.87,62.87,0,0,0,11.48-.05c8.19-1.15,16.44-2.26,24-5.92a41.8,41.8,0,0,0,11.44-7.49,15.74,15.74,0,0,0,4.91-12c-.06-8-.19-16,.05-24a15.13,15.13,0,0,0-3.33-10.12,29.2,29.2,0,0,0-13.56-9.4,33.67,33.67,0,0,1-3.21-1.47l.16-1c24-4.27,47.68-9.57,71.82-14.07-1.44,3.16-.91,6.69-.94,10.18,0,3.66,0,7.33,0,11s-.08,7.33,0,11a11.12,11.12,0,0,0,2.13,6.11c4.54,6.43,7.22,7.81,15.15,11.5,4.6,2.15,9.58,2.58,14.07,4.69a1.37,1.37,0,0,0,.45.13c3.86.33,7.71.8,11.58,1s8.08.51,12-.13c2.55-.42,5.16-.35,7.59-1s4.81-1.19,7.2-1.87,5-.92,7.13-2.08c5-2.72,10.13-5.25,14-9.67a13.32,13.32,0,0,0,3.58-8.5c.24-9.49.17-19,0-28.5,0-2.52-1.36-4.64-2.81-6.85a23.19,23.19,0,0,0-7.52-7.24,34.06,34.06,0,0,0-8.77-4.2c-.43-.12-.73-.78-1.57-1.73a48.15,48.15,0,0,0,5-.27,39.16,39.16,0,0,0,4.37-1.24c1.1,1.23,2.15,2.52,3.31,3.69L619.46,332c24.11,21.93,46.39,45.73,69.56,68.62s46,45.93,69.28,69.22c-6.08.38-11.51,2.6-17.32,3.34-3.38.43-6.74,1.42-10.16,2a69.67,69.67,0,0,0-9.65,2c-5.23,1.69-10.65,2.44-15.94,3.63-4.11.92-8.45,1.5-12.58,2.4s-8.57.38-12.3,2.82c-4.37-.25-8.37,1.74-12.67,2.08-2.75.22-5.46,1.23-8.17,1.93-1.68.43-3.23,1.18-5.09,1.07-1.52-.1-3.08.66-4.55,1.05-4.08,1.09-8.27,1.8-12.36,2.57-3.87.72-7.71,1.73-11.58,2.45-4.11.77-8.33,1.2-12.35,2.66-2.19.8-4.68.08-7.06,1.07-2.14.89-5.17.09-6.91,1.32-2.09,1.47-4.74-.4-6.3,1.8-4.37-.21-8.45,1.42-12.65,2.16-3.63.64-7.45.87-10.91,2.54-1.84.89-4.23-.39-6,1.3-6,.23-11.86,2-17.7,3.25-5.29,1.11-10.66,2.32-16,3.53-4.1.93-8.39,1.64-12.59,2.4a65.18,65.18,0,0,0-10.88,2.6c-1.91.7-4.22-.36-6,1.22-4.34-.06-8.38,1.66-12.65,2.18a50.78,50.78,0,0,0-8.57,2.17c-2.26.71-4.92-.28-6.8,1.65-2.65-.63-5.08.69-7.56,1.14-2.22.41-4.76.22-6.7,1.86-4.37-.26-8.47,1.32-12.64,2.14-7.5,1.48-15.25,2-22.46,4.86-4.36-.21-8.49,1.27-12.63,2.16-5.32,1.15-10.85,1.49-16,3.6-1.88.78-4,.5-6,1a69,69,0,0,1-8.78,1.8,61.63,61.63,0,0,0-8.86,1.62c-3.59,1-7.39,1.16-10.86,2.71-1.11.5-2.64,0-4,.12-1.05.13-2,.71-3.09,1-5.48,1.25-11.18,1.47-16.44,3.78-1.85.81-4,.24-6.05,1.08-2.43,1-5.37.61-8,1.2-3.37.77-6.81,1.28-10.11,2.19-1.21.33-2.42.54-3.65.78s-2.38.8-3.6,1c-6.12.8-12.18,2-18.21,3.23-5.31,1-10.64,2.43-15.93,3.59-4.12.89-8.4,1.63-12.59,2.39-3.61.66-7.42.93-10.89,2.59-1.8.85-4,.55-6,1a81,81,0,0,1-8.76,1.82,68.87,68.87,0,0,0-8.9,1.55c-6.24,1.66-12.65,2.39-18.85,4-5.28,1.36-10.79,1.64-15.92,3.74-2.29.93-5,.7-7.54,1.13a29.25,29.25,0,0,0-3.85,1.22l-2.37-2.36L48.82,460.32c-22-19.77-42.13-41.5-63.19-62.26s-42-41.92-63-62.89-42-42-62.95-62.93C-141.19,271.33-142.24,270.56-143.52,269.47ZM223,406.52c0,4.5,0,9,0,13.49a9.41,9.41,0,0,0,.58,3.24c1.83,5.07,5.85,9.74,10.44,11.77,5.37,2.37,10.45,5.5,16.49,6,4.25,2.56,9.22,2.37,13.77,2.73,5.93.47,12,.88,18.09-.57,3.47-.82,7.09-1.33,10.64-2.07a42.26,42.26,0,0,0,22.14-11.75,12.72,12.72,0,0,0,3.77-8.91c.17-9.32,0-18.65.1-28a10.13,10.13,0,0,0-1.56-5.34,27.07,27.07,0,0,0-9.44-9.31c-3.54-2-7.36-3.21-10.88-5.15A10.54,10.54,0,0,0,295,372a28.75,28.75,0,0,0-3.58-1c-1.3-.18-3,.43-3.88-.22-1.88-1.46-4.09,0-5.63-.92-1.9-1.13-3.75-.82-5.64-.87-3.16-.08-6.33-.15-9.49,0a83.84,83.84,0,0,0-9.07,1c-2.3.36-4.52,1.19-6.82,1.58A46.29,46.29,0,0,0,240.73,375c-4.81,2-9.53,4-13.23,7.93A15.38,15.38,0,0,0,223,394C223.05,398.2,223,402.36,223,406.52ZM466,376.6c0-4.66.12-9.33-.06-14a10.86,10.86,0,0,0-1.35-5.39,28.27,28.27,0,0,0-9.44-9.36c-3.53-2-7.33-3.27-10.9-5.1a19.92,19.92,0,0,0-2.17-.77c-2.45-.89-5.35-.34-7.47-1.24s-4.49.15-6.08-.93c-2.11-1.43-4.15-.67-6.19-.78a56.32,56.32,0,0,0-10.47.05c-3.39.48-6.82.92-10.21,1.75-2.72.66-5.44,1.23-8.16,2a57.07,57.07,0,0,0-14.4,6.23c-5.53,3.43-9.29,8.21-9.14,15.32.17,8.32,0,16.65.05,25a10.15,10.15,0,0,0,.3,3.37c1.84,5.09,4.87,9.38,9.81,11.79,5.53,2.71,10.94,5.9,17.3,6.46,1.19,2,3.54.56,5.29,1.81,1.46,1.05,4.25,0,6.15.72s3.88.37,5.79.44a88.37,88.37,0,0,0,25.76-2.86c7.92-2.08,15-5.22,21-10.94A14.75,14.75,0,0,0,466,389.09C466,384.93,466,380.76,466,376.6Zm50-30.34c0,4,.17,8,0,12-.36,7.14,3.62,12,8.84,15.61,4.12,2.83,9,4.61,13.9,6.15,1.49.47,3.08.77,4.52,1.2s3,.26,4.06.92a6.53,6.53,0,0,0,4.65.82c1.74-.23,3,1,4.59,1.05,3.16,0,6.33.13,9.49,0s6.21.81,9.07-1c4.08.48,7.81-1.1,11.66-2a42.32,42.32,0,0,0,20.54-10.75A15.07,15.07,0,0,0,612,358.73c0-8.16,0-16.32,0-24.48,0-7-3.87-11.53-9.21-15.26-3.84-2.68-8.16-4.35-12.44-6.14a12.13,12.13,0,0,0-1.65-.83c-5.36-1.26-10.85-1.85-16.26-2.89-3.69-.7-7.63-.26-11.45-.09s-7.55.09-11,1.17c-2,.62-4,.53-6,1.18-3.37,1.12-6.72,2.2-10,3.51-5,2-9.8,4.13-13.62,8.17a14.93,14.93,0,0,0-4.35,10.7C516,337.94,516,342.1,516,346.26ZM238,326.72c0-4.49,0-9,0-13.48a13.24,13.24,0,0,0-.71-3.67c-1.58-5.1-5.05-8.29-9.25-11.11a56.21,56.21,0,0,0-10-4.9,47.17,47.17,0,0,0-4.79-1.74c-2.25-.67-4.77-.06-6.54-1-2.16-1.14-4.47.06-6.09-.95-2.27-1.4-4.46-.69-6.66-.82-3.32-.19-6.66-.05-10-.05-1.16,0-2.78-.47-3.4.11-1.35,1.28-2.79.65-4.17.9-1.54.28-3.06.65-4.58,1-2.29.51-4.6.93-6.86,1.55a45.76,45.76,0,0,0-14.22,6.56c-5.25,3.68-9.1,8.49-8.82,15.68.31,7.81.23,15.65,0,23.47a16.4,16.4,0,0,0,4.84,12c4.62,5,10.78,7.31,16.87,9.9,1.93.82,4,.36,5.86,1.62,1.56,1,3.92,1.05,6,1.17s4.11.77,6.08.91c5.64.4,11.4.73,17,0a109.69,109.69,0,0,0,14.3-2.7c7.7-2.15,14.68-5.26,20.5-10.86A15,15,0,0,0,238,338.71C238,334.72,238,330.72,238,326.72ZM304,487.4c0,4.66-.12,9.33.06,14a12.67,12.67,0,0,0,1.33,5.41c3.18,5.84,8.54,9.53,14.36,12a77.9,77.9,0,0,0,11,3.69,110.69,110.69,0,0,0,14.43,2.37,56.61,56.61,0,0,0,14.94,0,134.35,134.35,0,0,0,14.31-2.69c8.45-2.2,15.93-5.69,22-12a12.59,12.59,0,0,0,3.48-8.52c.24-9.48.15-19,0-28.46a9.24,9.24,0,0,0-1.34-4.89c-2.52-3.69-5.35-7-9.45-9.36-3.53-2-7.33-3.27-10.9-5.1a19.92,19.92,0,0,0-2.17-.77c-2.45-.89-5.23-.44-7.52-1.19a38.21,38.21,0,0,0-9.23-1.67,90.84,90.84,0,0,0-29.74,2.74,71.28,71.28,0,0,0-10.85,4,31.44,31.44,0,0,0-10.15,6.94A15.55,15.55,0,0,0,304,474.91C304,479.07,304,483.24,304,487.4Zm131-221c0,4.66-.12,9.33.06,14a12.67,12.67,0,0,0,1.33,5.41c3.1,5.69,8.27,9.36,14,11.8,3.46,1.49,6.92,3.82,11.07,3.41,1.19,2,3.54.56,5.3,1.81,1.46,1.05,4.24,0,6.14.72s3.88.37,5.8.44a89.37,89.37,0,0,0,25.75-2.85c8.45-2.2,15.93-5.67,22-12a12.17,12.17,0,0,0,3.45-8c.29-9.65.17-19.31.05-29a9.27,9.27,0,0,0-1.34-4.9c-2.52-3.68-5.35-7-9.45-9.35-3.53-2-7.33-3.27-10.9-5.1a19.92,19.92,0,0,0-2.17-.77,17.76,17.76,0,0,0-7.58-1c-1.21-1.75-3-.71-4.58-1a35.77,35.77,0,0,0-5.08-1,94.21,94.21,0,0,0-28.25,2.84,69.85,69.85,0,0,0-10.85,4,31.44,31.44,0,0,0-10.15,6.94A15.55,15.55,0,0,0,435,253.91C435,258.08,435,262.24,435,266.4ZM91,356.68c0-4.49,0-9,0-13.48a9.25,9.25,0,0,0-.76-3.67,22.8,22.8,0,0,0-8.85-10.8A69.29,69.29,0,0,0,69.74,323c-1-.42-2.08-.62-3.08-1-2.28-.92-5-.35-7-1.21-2.19-1-4.53.14-6.09-.91-2.27-1.54-4.47-.64-6.67-.81-3-.23-6-.06-9-.06-1.16,0-2.77-.45-3.39.14-1.36,1.29-2.81.61-4.19.87-1.53.29-3.05.65-4.58,1-2.28.52-4.57,1-6.84,1.57a43.34,43.34,0,0,0-14.22,6.56c-5.2,3.68-9.13,8.46-8.8,15.71.36,7.8.24,15.65,0,23.46-.13,4.83,1.79,8.59,4.86,12,4.47,5,10.4,7.56,16.49,9.6C22,391.48,26.84,393.22,32,393c.5,0,1.15-.21,1.47,0,2.86,2.14,6.08.63,9.11.91s6.46.65,9.45-.08c4.56-1.12,9.25-1.43,13.8-2.74,7.67-2.21,14.68-5.27,20.5-10.89A14.69,14.69,0,0,0,91,369.17Zm601,71.07c0-4-.17-8,0-12,.27-5-1.84-8.93-5.16-12.36-4.22-4.36-13.29-8.85-19.62-10.52-2.24-.6-4.73-.14-6.52-1.06-2.16-1.11-4.51.07-6.08-1-2.12-1.39-4.16-.85-6.16-.79-5,.15-10-.49-15.12.76-3.46.85-7.09,1.33-10.62,2.14-8.11,1.86-15.4,5.14-21.39,11.11A14.44,14.44,0,0,0,597,414.77c0,8.15.16,16.32-.06,24.47a16.46,16.46,0,0,0,4.82,12c4.61,5,10.68,7.57,16.94,9.75,1.47.51,3.08.78,4.51,1.21s3,.26,4.07.92a6.55,6.55,0,0,0,4.64.82c1.74-.22,3,1,4.59,1.05,3.16,0,6.33.13,9.49,0s6.21.81,9.08-1c4.08.48,7.8-1.11,11.66-2a42.34,42.34,0,0,0,20.54-10.74A15.08,15.08,0,0,0,692,439.73C692,435.74,692,431.74,692,427.75Zm-520,9.19c0-4.16-.09-8.33,0-12.49.19-7.05-3.81-11.65-9.05-15.41-3.9-2.8-8.4-4.57-12.83-6.38a21,21,0,0,0-2.22-.66,28.9,28.9,0,0,0-3.59-1c-1.29-.18-3,.41-3.86-.25-1.74-1.37-3.68-.09-5.16-.86-1.87-1-3.72-.9-5.63-.91-3.83,0-7.65,0-11.48,0-.84,0-2-.35-2.44.06-1.44,1.27-3.07.76-4.64,1a49.54,49.54,0,0,0-5.08,1c-2.1.51-4.18,1.14-6.27,1.71a47.44,47.44,0,0,0-13,6c-5.9,3.76-9.9,8.43-9.77,15.89.13,8,.17,16,0,24-.12,4.64,1.76,8.28,4.68,11.56,4.55,5.1,10.65,7.66,16.89,9.83,2.78,1,5.94,1.25,8.55,2.29,3.11,1.26,6.53-.44,9.25,1.77,5.49,0,11.1.68,16.45-.21,4.41-.73,9.16-.45,13.27-2.79a39.57,39.57,0,0,0,22.15-11.66,13.46,13.46,0,0,0,3.78-9.42C172.09,445.6,172,441.27,172,436.94Zm374,21c0-4.16-.09-8.32,0-12.48.19-7.06-3.81-11.66-9-15.42-3.9-2.8-8.39-4.57-12.83-6.38a20.32,20.32,0,0,0-2.22-.66,28.75,28.75,0,0,0-3.58-1c-1.3-.18-3,.41-3.87-.25-1.73-1.36-3.68-.09-5.16-.86-1.87-1-3.71-.9-5.62-.91-3.83,0-7.66,0-11.49,0-.83,0-2-.35-2.44.06-1.44,1.27-3.07.76-4.63,1a48.51,48.51,0,0,0-5.08,1c-2.11.51-4.19,1.14-6.28,1.71a47.85,47.85,0,0,0-13,5.95c-5.89,3.76-9.89,8.44-9.77,15.89.13,8,.17,16,0,24-.11,4.65,1.77,8.29,4.69,11.57,4.54,5.11,10.65,7.66,16.89,9.83,2.77,1,5.94,1.25,8.54,2.29,3.11,1.25,6.54-.44,9.26,1.77,5.49,0,11.1.68,16.44-.21,4.41-.73,9.17-.45,13.28-2.79a39.58,39.58,0,0,0,21.8-11.3A13.93,13.93,0,0,0,546,470.43C546,466.27,546,462.1,546,457.94ZM253,517.47c0-4.49-.11-9,.05-13.48a10.25,10.25,0,0,0-1.57-5.84,27,27,0,0,0-9.44-9.31c-3.54-2-7.37-3.21-10.88-5.15A10.73,10.73,0,0,0,229,483a28.75,28.75,0,0,0-3.58-1c-1.3-.18-3.05.42-3.87-.23-1.42-1.14-2.82-.54-4.2-.81-1.54-.29-3.08-1-4.58-.93-6,.37-12.12-1.13-18.08.9-1.62.55-3.37-.27-5.18.85-1.44.9-3.82-.24-5.47,1.19-4.4,0-8,2.39-11.78,4.1a30.51,30.51,0,0,0-10.41,7.5,13.68,13.68,0,0,0-3.74,8.94c-.17,9.32,0,18.65-.1,28a11.56,11.56,0,0,0,1.54,5.36c3,5.76,8.5,8.84,13.86,12,2.37-.23,4.07,1.48,6.06,2.26s4.49.19,6.21,1.88c5.24.51,10.34,2,15.65,2,3.5,0,7,0,10.49,0a7.07,7.07,0,0,0,2.48,0c4.26-1.75,8.9-1.58,13.31-2.78,5.86-1.58,16.13-6.32,20.24-10.35A16.35,16.35,0,0,0,253,529C252.91,525.13,253,521.3,253,517.47Zm131-221c0-4.66.13-9.32-.06-14a10.69,10.69,0,0,0-1.41-5.36,28.58,28.58,0,0,0-9.44-9.34c-3.26-1.87-6.86-2.85-10-4.82-1.05-.65-2.44-.74-3.51-1.17-2.38-1-5.08-.05-7-1.08s-4.05,0-5.64-.87c-2-1.13-4.08-.95-6.13-.86-5.19.21-10.37-.44-15.6.8-3.33.79-6.76,1.36-10.14,2.08-8.17,1.74-17.7,6.54-22.2,11.65a13.89,13.89,0,0,0-3.76,8.92c-.21,9.32-.06,18.65-.07,28,0,2.29,1,4.2,2.07,6.13,2.82,5.15,7.57,7.93,12.53,10.55a59,59,0,0,0,17.59,5.65c4.55.78,9.26,1.75,14,1.27,3.13-.31,6.47.54,9.45-.2,4.57-1.13,9.25-1.49,13.82-2.68,6.08-1.59,16.51-6.44,20.62-10.67a16,16,0,0,0,4.89-12C384,304.52,384,300.52,384,296.52Z" transform="translate(148.89 -146.8)"/><path class="cls-2" d="M178.17,592.76c2.24-3,5.65-.64,7.79-2.76,4.36.18,8.46-1.4,12.63-2.19,3.6-.69,7.29-1.5,10.88-2.57,2-.6,4.33-.8,6.5-1.23,5.83-1.17,11.74-1.87,17.41-3.83,1.91-.65,4-.1,6.06-1.07,1.78-.85,4-.77,6-1.11,1.86-.32,3.71-.73,5.58-1,2-.27,4.1-.77,6-1.22,3.19-.74,6.39-1.45,9.61-2.08s6.2-1.19,9.24-1.88c3.39-.77,6.85-1,10.21-1.82s6.58-2.33,10.16-2c2.08-1.78,4.86-.85,7.23-1.88,2.11-.91,4.78-.44,7-1.2,3.56-1.21,7.34-1.28,10.88-2.69,2.44-1,5.34-.72,8-1.27s5.3-.65,7.8-1.67c1.91-.77,4.25.41,6-1.29a53.77,53.77,0,0,0,13.3-2.89c1.17-.43,2.65,0,3.95-.15a22.94,22.94,0,0,0,3.59-1c5.38-1.64,11.05-2,16.43-3.75a60.37,60.37,0,0,1,6.5-1.24c7.5-1.58,15.14-2.46,22.48-4.85,1.91-.62,4-.56,6.05-1,6-1.37,12.24-1.75,18.19-3.27,3.6-.92,7.31-1.37,10.86-2.7,1.81-.67,4-.62,6-1.07,5.95-1.32,12-2,17.88-3.92,2.52-.85,5.37-.66,8-1.21s5.29-.67,7.8-1.68c1.9-.78,4-.52,6-1.09,4.34-1.2,8.87-1.68,13.26-3,2-.6,4.35-.73,6.53-1.19,5.21-1.08,10.53-1.84,15.62-3.36,2.26-.67,4.63-.44,6.85-1.53,1.77-.87,4-.77,6-1.11s3.73-.66,5.59-1c2-.37,3.92-1.12,6.08-1.13,1.74,0,3.42-1.42,5.21-1.73,2-.36,4-.57,6.07-1,6-1.34,12.06-1.94,17.89-3.93,1.9-.65,4-.14,6.06-1.08,1.8-.83,4-.76,6-1.1,1.86-.32,3.71-.72,5.58-1,2-.29,4.11-.74,6-1.2,4.91-1.14,9.85-2,14.76-3,5.62-1.18,11.35-2,16.93-3.61,2.64-.75,5.52-1.19,8.29-1.76s5.64-.83,8.41-1.45c3.53-.79,7.17-1.3,10.62-2.19s7.21-.68,10.33-2.74c4.4.49,8.31-1.81,12.63-2.19a71.36,71.36,0,0,0,15.61-3.28c2.11-.69,4.66.51,6.33-1.57,6.37-.94,12.61-2.38,18.89-3.79,4.11-.93,8.44-1.51,12.58-2.39,5.31-1.13,10.84-1.49,15.94-3.68,1-.42,2.3,0,3.43-.18a5.54,5.54,0,0,0,1.63-.77c.72,3.88.94,35.93.31,49.8-2.78.66-5.64,1.37-8.52,2-1.85.4-3.83.4-5.56,1.07-3,1.16-6.2,1.17-9.16,2.05a108.08,108.08,0,0,1-12.33,2.65c-5.75,1-11.47,2.33-17.17,3.47-7,1.39-14.23,2.09-21,4.77-4.35-.18-8.49,1.3-12.63,2.18-5.31,1.13-10.79,1.61-16,3.65a24,24,0,0,1-6,1c-4,.41-7.76,1.58-11.62,2.32s-7.66,1.17-11.38,2.59A32.47,32.47,0,0,1,622,551c-6.1.93-12.22,1.94-18.21,3.22s-12.3,2.4-18.35,3.91c-5.29,1.33-10.78,1.69-15.94,3.73-1.8.71-4,.59-6,1.06-4.73,1.09-9.52,1.88-14.27,2.93-2.73.61-5.53,1.18-8.3,1.75s-5.64.82-8.41,1.45c-3.53.81-7.18,1.28-10.62,2.19s-7.05,1-10.39,2.59c-1.7.8-4,.63-6,1.09-4.73,1.08-9.51,1.92-14.26,2.94-2.77.59-5.45,1.28-8.17,2.07-2.57.75-5.49.36-8,1.19-3.36,1.09-6.84,1.07-10.21,1.89a88.06,88.06,0,0,1-9.64,2.18c-1.83.24-4.11.16-5.5,1-1.82,1.11-3.84,0-5.1,1-1.91,1.46-3.92.22-5.66.91-5,2-10.45,1.68-15.42,3.79-1.74.74-4,.5-6,1.08-2.43.68-5.41.09-7.46,1.26-2.25,1.28-5-.24-6.78,1.82-2.93-.26-5.56,1-8.32,1.6s-5.66.78-8.42,1.44c-3.53.84-7.2,1.24-10.62,2.18s-7,1.06-10.38,2.63c-2.34,1.1-5.36.63-8,1.2s-5.26.69-7.78,1.71a13.78,13.78,0,0,1-4.68.74c-4,.12-7.64,1.78-11.43,2.68-7.3,1.74-14.91,2-22,4.66-1.82.69-4,.71-6,1-3.44.53-6.73,1.77-10.16,2.06s-6.79,1.35-10.18,1.93c-2.81.49-5.54,1.15-8.3,1.77s-5.66.77-8.42,1.42c-3.54.84-7.2,1.24-10.62,2.18s-7.24.62-10.32,2.78c-4.2-.23-8.13,1.29-12.15,2.08-5.52,1.08-11.15,1.74-16.48,3.62-2,.68-4.27-.43-6,1.3-5.92,1-11.92,1.67-17.73,3.1a106.17,106.17,0,0,1-14.74,3c-.65.07-1.26.66-2.24,1.21Z" transform="translate(148.89 -146.8)"/><path class="cls-3" d="M174.85,590.92v48.43l-3.69-3.69L48.89,513.39c-17.29-15.07-32.7-32.06-49-48.1s-32.3-32.24-48.44-48.38l-48.77-48.77-48.53-48.53V272.33c.89-.61,1,.46,1.4.73a9.94,9.94,0,0,1,1.44,1.39q76.68,76.68,153.4,153.35C65.19,482.39,120.22,536.77,174.85,590.92Z" transform="translate(148.89 -146.8)"/><path class="cls-1" d="M358.16,167.23c3.28-2.75,5.6-5.93,9-8,3.89-2.39,8.16-3.66,12.37-5.14s8.85-1.84,13.25-2.93c2.51-.62,5.32.11,8-.16,5.44-.55,10.86.24,16,1.25,8,1.56,15.89,4.19,22.71,8.93a15.35,15.35,0,0,1,6.36,9.78,11.62,11.62,0,0,1-3,9.67c-3.49,4.06-8.25,6.24-13,8.41-3.95,1.81-8.35,2.26-12.35,3.94a3.42,3.42,0,0,1-1,.07c-3.69.33-7.38.8-11.08,1s-7.43.6-11-.1c-4.75-.93-9.64-.84-14.32-2.71-4.28-1.71-8.72-2.93-12.91-5.05-3.87-2-7-4.59-8.83-8.32-1.14-2.34-2.77-5.15-.75-8.08C358.14,169.11,358,168.16,358.16,167.23Z" transform="translate(148.89 -146.8)"/><path class="cls-1" d="M212,197.39c3.15-2.53,5.54-5.87,9.09-8.12,4-2.55,8.45-3.79,12.83-5.25,2.06-.69,4.25-1,6.26-1.77s4.57.69,6.53-1.19c.44-.41,1.61-.06,2.44-.06,3.5,0,7-.1,10.49,0a70.71,70.71,0,0,1,29,7.21c3.62,1.78,7,4.08,9.21,7.92,2.75,4.72,2.83,10.29-.82,14.34s-8.49,6.38-13.42,8.57c-3.86,1.71-8.07,2.16-11.92,3.79a1.76,1.76,0,0,1-.44.15,175.67,175.67,0,0,1-24,1c-2-1.39-4.48-.5-6.54-1.12-2.23-.67-4.59-.69-6.74-1.81-1.89-1-4.12-1.28-6.12-2.09-5.51-2.23-11.09-4.23-14.33-9.94-1.88-3.3-3.5-6.33-1.46-10.09C212.18,198.56,212,198,212,197.39Z" transform="translate(148.89 -146.8)"/><path class="cls-1" d="M65,227.46c3.07-2.49,5.41-5.83,9-8.09,3.87-2.47,8.15-3.69,12.3-5.31,2.16-.85,4.61-.92,6.79-1.7S98,212.84,100,211h17c2,1.54,4.39.66,6.57,1.06a56.42,56.42,0,0,1,6.67,1.95c2.06.64,4.17,1.19,6.15,2,5.49,2.28,11.14,4.27,14.28,10,1.46,2.68,2.74,4.86,2.3,7-.56,2.71-1.14,5.5-3.16,7.67-3.64,3.91-8.29,6.17-13.07,8.27-3.84,1.7-8,2.33-11.94,3.72a4.11,4.11,0,0,1-.89.26c-3.69.35-7.37.81-11.07,1s-7.76.58-11.46-.1c-4.76-.86-9.64-1-14.31-2.74-4.32-1.64-8.86-2.69-12.87-5.12-3-1.8-5.71-3.62-7.69-6.8-2.18-3.51-3.26-6.71-1.5-10.58A3.3,3.3,0,0,0,65,227.46Z" transform="translate(148.89 -146.8)"/><path class="cls-1" d="M-37.61,284.27c-5.28-.44-10.4-.38-15.28-1.42a116,116,0,0,1-11.92-3.68,50,50,0,0,1-10.74-5.39c-3.3-2-5.29-5.63-6.29-9.29a8.52,8.52,0,0,1,2.31-8.4c2.42-2.38,4.65-4.93,7.62-6.83,4-2.56,8.45-3.78,12.83-5.24,2.06-.69,4.25-1,6.26-1.77s4.57.69,6.53-1.19c.44-.41,1.61-.06,2.44-.06,3.5,0,7-.1,10.49,0a70.86,70.86,0,0,1,29,7.21c3.62,1.78,7,4.08,9.21,7.92,2.75,4.72,2.83,10.29-.82,14.34s-8.49,6.38-13.42,8.57c-3.86,1.71-8.06,2.17-11.92,3.78a3.24,3.24,0,0,1-.93.16Z" transform="translate(148.89 -146.8)"/><path class="cls-2" d="M211,210.84c2.94,4.94,7,6.82,10.57,9,3.35,2,7.38,3.07,11.24,4.1s7.87,2.65,12.12,2.07c5.75,2.21,11.71.82,17.56.87,4,0,8.13-1,12.13-1.92,3.76-.85,7.67-1.63,11.08-3.32,5-2.49,10.16-5.07,14.3-10.32,0,6.92.41,13.06-.14,19.12-.37,4-3.3,7.12-6.58,9.57a48.24,48.24,0,0,1-13.7,6.64,73.71,73.71,0,0,1-12,2.56,84.34,84.34,0,0,1-17.07.71,67.67,67.67,0,0,1-29.17-7.84,21.25,21.25,0,0,1-8.94-8.23,10,10,0,0,1-1.35-4.4C210.91,223.68,211,217.9,211,210.84Z" transform="translate(148.89 -146.8)"/><path class="cls-2" d="M64,242.34c3,3.51,7,5.68,10.78,7.45a67.35,67.35,0,0,0,12.15,4.46c4.75,1.2,9.56,1.87,14.32,2.59a55.75,55.75,0,0,0,14.43.06,89.85,89.85,0,0,0,20.16-4.27c6.31-2.25,12-5.48,16.58-10.56a1.71,1.71,0,0,1,.35.21.72.72,0,0,1,.22.41c0,6.15,0,12.3,0,18.92a47.93,47.93,0,0,1-4,5.83c-3.34,3.68-7.88,5.55-12.3,7.58-3.83,1.75-8,2.31-11.93,3.73a3.18,3.18,0,0,1-.89.24c-3.86.35-7.71.81-11.57,1s-7.72.52-11.45-.07c-6.44-1-12.94-1.87-19.07-4.5a68.68,68.68,0,0,1-10.33-5.25,14.23,14.23,0,0,1-6.57-8.77,12.25,12.25,0,0,1-.82-2.63C64,253.27,64,247.8,64,242.34Z" transform="translate(148.89 -146.8)"/><path class="cls-2" d="M6.89,271.3v20.47A46.46,46.46,0,0,1,3,297.45C-.37,301.12-4.91,303-9.34,305c-3.82,1.75-8,2.31-11.92,3.74a4,4,0,0,1-.9.23c-3.68.35-7.37.81-11.06,1s-7.74.54-11.46-.09c-4.47-.76-9.07-.87-13.43-2.42-4.2-1.5-8.64-2.46-12.52-4.68-3.53-2-7.08-4-9.21-7.93a14.64,14.64,0,0,1-2.08-6.11c-.24-5.46-.08-10.93-.08-17.23a43.56,43.56,0,0,0,9.14,7.35,49.14,49.14,0,0,0,11.91,5c4.07,1.05,8.16,2.92,12.6,2.19,5.75,2.11,11.74,1.16,17.54.84a69.81,69.81,0,0,0,23.67-5.36C-2.08,279.32,2.89,276.62,6.89,271.3Z" transform="translate(148.89 -146.8)"/><path class="cls-2" d="M357,181c2.91,4.51,6.64,6.47,10.17,8.46A42.47,42.47,0,0,0,378.78,194c4,.89,7.88,2.61,12.13,2,5.75,2.12,11.71.85,17.56.87,4,0,8.13-1,12.13-1.92,3.76-.84,7.67-1.62,11.09-3.31,5-2.49,10.16-5.07,14.31-10.33,0,6.9.34,13-.12,19.1-.3,4-3.14,7-6.2,9.35-4,3.14-14.33,7.18-19.52,8.29a102.76,102.76,0,0,1-12.66,1.86c-4.46.38-9.09.73-13.43-.08-4.58-.86-9.3-.84-13.83-2.66-4.27-1.72-8.72-2.92-12.88-5.08a20.81,20.81,0,0,1-8.93-8.23,10,10,0,0,1-1.37-4.4C356.91,193.69,357,187.92,357,181Z" transform="translate(148.89 -146.8)"/><path d="M223,406.52c0-4.16.05-8.32,0-12.48a15.38,15.38,0,0,1,4.51-11.15c3.7-4,8.42-5.92,13.23-7.93a46.29,46.29,0,0,1,10.11-3.34c2.3-.39,4.52-1.22,6.82-1.58a83.84,83.84,0,0,1,9.07-1c3.16-.17,6.33-.1,9.49,0,1.89.05,3.74-.26,5.64.87,1.54.92,3.75-.54,5.63.92.85.65,2.58,0,3.88.22a28.75,28.75,0,0,1,3.58,1,10.54,10.54,0,0,1,2.21.69c3.52,1.94,7.34,3.15,10.88,5.15a27.07,27.07,0,0,1,9.44,9.31,10.13,10.13,0,0,1,1.56,5.34c-.08,9.32.07,18.65-.1,28a12.72,12.72,0,0,1-3.77,8.91A42.26,42.26,0,0,1,293,441.12c-3.55.74-7.17,1.25-10.64,2.07-6.08,1.45-12.16,1-18.09.57-4.55-.36-9.52-.17-13.77-2.73-6-.51-11.12-3.64-16.49-6-4.59-2-8.61-6.7-10.44-11.77A9.41,9.41,0,0,1,223,420C223,415.51,223,411,223,406.52Zm4-18c0,.66.28,1.67-.05,1.93-1.65,1.35-1.23,3.26-.85,4.61a17.73,17.73,0,0,0,6.75,10,34.91,34.91,0,0,0,5.79,2.92,72.69,72.69,0,0,0,14.4,5,82.27,82.27,0,0,0,15.65,2.09c5.91.22,11.72-.56,17.57-1.06a5.18,5.18,0,0,0,1.42-.2c3.89-1.49,8.07-2.05,11.92-3.76,4.93-2.19,9.74-4.48,13.43-8.57a20,20,0,0,0,3-7.76c.07-2.48-1.12-4.44-2.23-6.58-2.06-4-5.58-6.15-9.2-7.91-5.29-2.56-10.73-5-16.81-5.22-1.88-1.93-4.56-.16-6.45-1.29-2.39-1.44-4.83-.63-7.21-.64-4.7,0-9.36-.16-14.1.75a109,109,0,0,0-12.29,3c-4,1.26-8.1,2.24-11.38,5.14-.45.4-1.51.12-1.9.14C231.71,383.8,229.35,386.15,227,388.51Zm-1,13.82c0,6.05-.08,11.18,0,16.3.11,5.3,2.6,9.35,6.88,12.37,1.92,1.35,4.23,1.92,6.21,3.06,3.81,2.19,8.08,3,12.09,4.58s8.67,1.55,13,2.22a59,59,0,0,0,13,.07,86.5,86.5,0,0,0,12.66-1.87c5.58-1.23,15.27-4.83,19.6-8.1,3.1-2.34,6.07-5.34,6.43-9.21.57-6.21.15-12.5.15-18.76-3.38,4.36-8.08,6.41-12.39,8.68-3.34,1.76-7,3.45-11.08,3.33-1.48,1.8-3.86.83-5.73,1.86-1.56.84-3.8.42-5.73.58-2.09.17-4.17.4-6.26.55a65.86,65.86,0,0,1-18.51-1.18,74.07,74.07,0,0,1-15-4.6C235.87,409.79,230.52,407.72,226,402.33Z" transform="translate(148.89 -146.8)"/><path d="M466,376.6c0,4.16,0,8.33,0,12.49a14.75,14.75,0,0,1-4.63,11.08c-5.93,5.72-13,8.86-21,10.94A88.37,88.37,0,0,1,414.65,414c-1.91-.07-3.79.29-5.79-.44s-4.69.33-6.15-.72c-1.75-1.25-4.1.23-5.29-1.81-6.36-.56-11.77-3.75-17.3-6.46-4.94-2.41-8-6.7-9.81-11.79a10.15,10.15,0,0,1-.3-3.37c0-8.32.12-16.65-.05-25-.15-7.11,3.61-11.89,9.14-15.32a57.07,57.07,0,0,1,14.4-6.23c2.72-.78,5.44-1.35,8.16-2,3.39-.83,6.82-1.27,10.21-1.75a56.32,56.32,0,0,1,10.47-.05c2,.11,4.08-.65,6.19.78,1.59,1.08,3.89,0,6.08.93s5,.35,7.47,1.24a19.92,19.92,0,0,1,2.17.77c3.57,1.83,7.37,3.08,10.9,5.1a28.27,28.27,0,0,1,9.44,9.36,10.86,10.86,0,0,1,1.35,5.39C466.12,367.27,466,371.94,466,376.6Zm-91.85-18.25c-.21,2.37-2.07,4.65-1.08,7,1.58,3.73,3.2,7.44,7,9.78,1.74,1.06,3.6,1.84,5.38,2.73,3.86,1.94,8.14,2.9,12.13,4.47,4.23,1.66,8.65,1.55,12.92,2.5,3.8.85,8,.31,11.94.14s7.72-.63,11.58-1c.16,0,.37,0,.47,0,1.81-1.46,4.18-1.12,6.2-1.92s4.6-1.05,6.62-2.11c4.46-2.31,9.14-4.34,12.56-8.3,2.52-2.93,3.13-7.27,2.17-11.31-1.23-5.19-4.93-8-9.14-10.26a63.32,63.32,0,0,0-11.44-4.89,56.08,56.08,0,0,0-6.49-1.36c-4.38-.77-8.7-2-13.19-1.78-4.86.18-9.69-.17-14.61.76a114.8,114.8,0,0,0-11.94,2.68c-4.06,1.22-8.48,2.17-11.75,5.42-.43.42-1.53.17-2.12.22Zm88.68,34.43V372.54c-4,5-9.11,7.48-14.09,10.09-2.42,1.26-5.31,1.63-8,2.36s-5.12,1.94-7.65,1.86c-3-.11-5.64,1.41-8.57,1.16-5.68-.49-11.35.51-17.1-.81-3.48-.8-7.08-1.47-10.63-2.05-4.4-.73-8.25-2.72-12.23-4.29-4.2-1.66-8.31-3.93-11.57-8.87v16.42c0,5.39,2.72,9.38,6.73,12.54a25.53,25.53,0,0,0,5.73,3c4,1.72,8.18,2.8,12.16,4.39,4.21,1.68,8.63,1.54,12.9,2.5,3.8.85,7.94.31,11.93.14s7.71-.63,11.56-1c.17,0,.39.06.49,0,1.78-1.52,4.17-1.1,6.19-1.93s4.59-1.06,6.6-2.12c4.29-2.26,9-4,12.17-7.94A52.77,52.77,0,0,0,462.83,392.78Z" transform="translate(148.89 -146.8)"/><path d="M516,346.26c0-4.16,0-8.32,0-12.49a14.93,14.93,0,0,1,4.35-10.7c3.82-4,8.58-6.18,13.62-8.17,3.32-1.31,6.67-2.39,10-3.51,2-.65,4-.56,6-1.18,3.47-1.08,7.32-1,11-1.17s7.76-.61,11.45.09c5.41,1,10.9,1.63,16.26,2.89a12.13,12.13,0,0,1,1.65.83c4.28,1.79,8.6,3.46,12.44,6.14,5.34,3.73,9.25,8.27,9.21,15.26,0,8.16,0,16.32,0,24.48a15.07,15.07,0,0,1-4.73,11.54A42.32,42.32,0,0,1,586.74,381c-3.85.88-7.58,2.46-11.66,2-2.86,1.78-6,.82-9.07,1s-6.33,0-9.49,0c-1.58,0-2.85-1.28-4.59-1.05a6.53,6.53,0,0,1-4.65-.82c-1-.66-2.67-.51-4.06-.92s-3-.73-4.52-1.2c-4.86-1.54-9.78-3.32-13.9-6.15-5.22-3.59-9.2-8.47-8.84-15.61C516.17,354.26,516,350.26,516,346.26Zm4-17.75c0,.66.28,1.67,0,1.94-1.65,1.34-1.23,3.25-.85,4.6a17.73,17.73,0,0,0,6.75,10,35,35,0,0,0,5.8,2.92A72.6,72.6,0,0,0,546,353a82.27,82.27,0,0,0,15.65,2.09c5.91.22,11.72-.57,17.57-1.06a5.18,5.18,0,0,0,1.42-.2c3.89-1.49,8.07-2.05,11.92-3.76,4.93-2.19,9.74-4.48,13.43-8.58,1.11-1.23,2.93-6,3-7.75.07-2.48-1.12-4.44-2.23-6.58-2.06-4-5.58-6.15-9.21-7.91-5.28-2.57-10.72-5-16.8-5.22-1.88-1.93-4.56-.16-6.45-1.29-2.4-1.44-4.84-.63-7.21-.64-4.7,0-9.36-.16-14.11.75a108.28,108.28,0,0,0-12.28,3c-4,1.26-8.11,2.22-11.38,5.15-.36.32-1.26,0-1.81,0Zm89,34q0-9.51,0-19c0-.12-.21-.24-.5-.56-3,3.8-7.17,6-11.29,8.33-3.7,2.07-7.73,3.06-11.85,4-2.41.53-4.75,1.46-7.24,1.74-2.7.3-5.4,1-8.07.92-5.52-.2-11,.56-16.6-.73-3.48-.8-7.08-1.45-10.63-2.05-4.39-.75-8.26-2.71-12.24-4.29-4.19-1.67-8.31-3.93-11.57-8.88,0,6.21-.14,11.32,0,16.42a15,15,0,0,0,7.09,12.67c2,1.32,4.32,1.83,6.24,3,3.64,2.26,7.83,2.81,11.65,4.43,4.14,1.75,8.66,1.49,13,2.33,3.68.72,7.62.28,11.44.11s7.71-.63,11.57-1c.16,0,.39.07.48,0,1.78-1.54,4.18-1.1,6.19-1.94s4.59-1.06,6.6-2.12c4.29-2.26,9-4,12.17-7.94A57,57,0,0,0,609,362.51Z" transform="translate(148.89 -146.8)"/><path d="M238,326.72c0,4,0,8,0,12a15,15,0,0,1-4.72,11.55c-5.82,5.6-12.8,8.71-20.5,10.86a109.69,109.69,0,0,1-14.3,2.7c-5.55.77-11.31.44-17,0-2-.14-4-.8-6.08-.91s-4.39-.14-6-1.17c-1.89-1.26-3.93-.8-5.86-1.62-6.09-2.59-12.25-4.89-16.87-9.9a16.4,16.4,0,0,1-4.84-12c.22-7.82.3-15.66,0-23.47-.28-7.19,3.57-12,8.82-15.68A45.76,45.76,0,0,1,165,292.55c2.26-.62,4.57-1,6.86-1.55,1.52-.34,3-.71,4.58-1,1.38-.25,2.82.38,4.17-.9.62-.58,2.24-.11,3.4-.11,3.33,0,6.67-.14,10,.05,2.2.13,4.39-.58,6.66.82,1.62,1,3.93-.19,6.09.95,1.77.94,4.29.33,6.54,1a47.17,47.17,0,0,1,4.79,1.74,56.21,56.21,0,0,1,10,4.9c4.2,2.82,7.67,6,9.25,11.11a13.24,13.24,0,0,1,.71,3.67C238,317.74,238,322.23,238,326.72Zm-91.9-18.46a4.32,4.32,0,0,1-.12,1.48c-1.89,3.91-.39,7,1.57,10.55,2.13,3.83,5.6,5.6,8.93,7.51,3.71,2.14,8.09,3,12.11,4.49,4.39,1.65,8.95,1.67,13.39,2.55,3.84.77,8,.29,12,.12s8-.63,12.08-1c.16,0,.39.07.49,0,1.78-1.53,4.17-1.1,6.19-1.93s4.59-1.06,6.61-2.12c4.45-2.33,9.16-4.31,12.57-8.27,2.61-3,3.26-7.17,2.18-11.3-1.36-5.26-5-8.08-9.53-10.39-6.7-3.44-10.58-4.44-17.48-6.09A71.18,71.18,0,0,0,188.86,292c-2,0-4,0-6,0-.66,0-1.6-.29-2,.05-2,1.92-4.68.39-6.95,1.37-2.11.91-4.68.75-6.81,1.65-4.11,1.73-8.44,2.81-12.29,5.37C151.51,302.68,149.22,305.88,146.1,308.26Zm88.77,14.05c-4,5.36-9.08,7.86-14.06,10.23a53.22,53.22,0,0,1-11.05,3.4,86.16,86.16,0,0,1-12.13,2,95.61,95.61,0,0,1-12,0c-3.86-.16-7.71-.63-11.57-1-.16,0-.36.06-.49,0-4.61-2.22-9.87-2.31-14.47-4.86-3.77-2.09-9.08-4.59-11.54-7a5.76,5.76,0,0,0-1.07-1c-.45-.25-.53-1.34-1.52-.65,0,5.28,0,10.58,0,15.89,0,2.48,1.12,4.44,2.25,6.57,2.16,4.08,5.92,6,9.6,8.11s8.09,2.94,12.1,4.49c4.18,1.62,8.65,1.61,13,2.38,3.86.7,8,.28,11.94.11s8-.62,12.07-1a4.09,4.09,0,0,0,.88-.28c3.93-1.36,8.1-2,11.94-3.7,4.6-2,9.25-4.07,12.64-8a42.69,42.69,0,0,0,3.5-5.32Z" transform="translate(148.89 -146.8)"/><path d="M304,487.4c0-4.16,0-8.33,0-12.49a15.55,15.55,0,0,1,4.59-11.11,31.44,31.44,0,0,1,10.15-6.94,71.28,71.28,0,0,1,10.85-4,90.84,90.84,0,0,1,29.74-2.74,38.21,38.21,0,0,1,9.23,1.67c2.29.75,5.07.3,7.52,1.19a19.92,19.92,0,0,1,2.17.77c3.57,1.83,7.37,3.08,10.9,5.1,4.1,2.34,6.93,5.67,9.45,9.36a9.24,9.24,0,0,1,1.34,4.89c.12,9.49.21,19,0,28.46a12.59,12.59,0,0,1-3.48,8.52c-6.08,6.36-13.56,9.85-22,12a134.35,134.35,0,0,1-14.31,2.69,56.61,56.61,0,0,1-14.94,0,110.69,110.69,0,0,1-14.43-2.37,77.9,77.9,0,0,1-11-3.69c-5.82-2.49-11.18-6.18-14.36-12a12.67,12.67,0,0,1-1.33-5.41C303.88,496.73,304,492.06,304,487.4Zm4-18.07c0,.72.11,1.1,0,1.37-1.86,3.89-.47,7,1.55,10.56,2.15,3.79,5.56,5.64,8.91,7.52,3.75,2.09,8.09,3,12.11,4.5,4.4,1.64,9,1.65,13.39,2.56,3.83.78,8,.29,11.95.12s8.05-.63,12.07-1c.17,0,.4.07.49,0,1.77-1.57,4.19-1.06,6.2-1.93s4.59-1.07,6.61-2.13c4.44-2.33,9.22-4.23,12.56-8.26,2.44-2.95,3.88-6.53,3-10.13a16.08,16.08,0,0,0-5.86-9c-5.63-4.3-12.28-6.79-19-8.33s-13.58-2.87-20.61-2.24c-2.8.25-6-.74-8.39.26s-4.74.22-7,1.17-4.67.79-6.8,1.68c-4.11,1.7-8.44,2.81-12.29,5.34C313.52,463.63,311.25,466.85,308,469.33Zm-1,15v13.39c0,7.23,1.77,10.33,7.79,14.68a31.51,31.51,0,0,0,9.95,4.93c3.85,1.09,7.55,2.84,11.45,3.61,4.1.8,8.35.8,12.54,1.08,1.66.11,3.35-.16,5,0,4.77.63,9.44-.56,14-1.24a44.71,44.71,0,0,0,14.52-4.55c2.72-1.45,5.73-2.5,8.17-4.32a16.15,16.15,0,0,0,6.56-9.87c-.15-5.23.25-11.64-.21-18.38a39.91,39.91,0,0,1-16.9,10.93,88.75,88.75,0,0,1-20.14,4.29,64.81,64.81,0,0,1-15.93-.06,114.4,114.4,0,0,1-14.3-2.65,63.38,63.38,0,0,1-11.68-4.35C314.08,489.92,310,487.89,307,484.29Z" transform="translate(148.89 -146.8)"/><path d="M435,266.4c0-4.16,0-8.32,0-12.49a15.55,15.55,0,0,1,4.59-11.11,31.44,31.44,0,0,1,10.15-6.94,69.85,69.85,0,0,1,10.85-4A94.21,94.21,0,0,1,488.84,229a35.77,35.77,0,0,1,5.08,1c1.54.29,3.37-.75,4.58,1a17.76,17.76,0,0,1,7.58,1,19.92,19.92,0,0,1,2.17.77c3.57,1.83,7.37,3.08,10.9,5.1,4.1,2.34,6.93,5.67,9.45,9.35a9.27,9.27,0,0,1,1.34,4.9c.12,9.65.24,19.31-.05,29a12.17,12.17,0,0,1-3.45,8c-6.1,6.34-13.58,9.81-22,12A89.37,89.37,0,0,1,478.66,304c-1.92-.07-3.8.29-5.8-.44s-4.68.33-6.14-.72c-1.76-1.25-4.11.23-5.3-1.81-4.15.41-7.61-1.92-11.07-3.41-5.69-2.44-10.86-6.11-14-11.8a12.67,12.67,0,0,1-1.33-5.41C434.88,275.73,435,271.06,435,266.4Zm4-18.16c0,.93.28,1.83-.05,2.22-1.62,1.94-.89,3.7-.28,5.83,1.54,5.32,5.26,8.22,9.82,10.81,8.33,4.74,17.44,6.62,26.72,7.81a65.36,65.36,0,0,0,13,0,84,84,0,0,0,12.67-1.88,66.58,66.58,0,0,0,13.5-4.81c3.66-1.72,7.14-3.67,9.62-6.82,2.27-2.88,3.84-6.33,2.76-10.11a16.41,16.41,0,0,0-5.61-8.63c-5.75-4.4-12.55-6.65-19.39-8.61a66.69,66.69,0,0,0-10.66-1.89c-5.58-.66-11.3-.18-17-.18-2.06,1.78-4.67.58-6.95,1.3s-5,1-7.22,1.88c-4.12,1.63-8.47,2.7-12.29,5.39C444.49,242.8,442.35,245.91,439,248.24Zm87.84,34.53v-19.6l-.81-.64a7.35,7.35,0,0,1-.79,1.7c-3.33,4-8,6.18-12.5,8.36A51.47,51.47,0,0,1,501.68,276a106.26,106.26,0,0,1-12.14,2,62.58,62.58,0,0,1-9,0c-2.87-.11-5.87.73-8.57-1-4.25.59-8.17-1-12.13-2.07s-7.91-2-11.24-4.08c-3.58-2.23-7.73-4-10.3-7.9-.32,6.07-.4,12-.26,17.94a7.93,7.93,0,0,0,1.31,3.91,22.2,22.2,0,0,0,8.91,8.31c4.2,2,8.6,3.35,12.89,5,4.53,1.78,9.24,1.73,13.82,2.69,3.67.77,7.63.29,11.45.12s7.7-.63,11.56-1c.16,0,.39.07.49,0,1.77-1.55,4.17-1.09,6.19-1.94s4.59-1.06,6.6-2.12c4.28-2.26,9-4,12.16-7.93A53,53,0,0,0,526.84,282.77Z" transform="translate(148.89 -146.8)"/><path d="M91,356.68v12.49a14.69,14.69,0,0,1-4.67,11.06c-5.82,5.62-12.83,8.68-20.5,10.89-4.55,1.31-9.24,1.62-13.8,2.74-3,.73-6.32.36-9.45.08s-6.25,1.23-9.11-.91c-.32-.24-1,0-1.47,0-5.16.22-10-1.52-14.71-3.1-6.09-2-12-4.64-16.49-9.6-3.07-3.41-5-7.17-4.86-12,.22-7.81.34-15.66,0-23.46-.33-7.25,3.6-12,8.8-15.71a43.34,43.34,0,0,1,14.22-6.56c2.27-.58,4.56-1.05,6.84-1.57,1.53-.34,3-.7,4.58-1,1.38-.26,2.83.42,4.19-.87.62-.59,2.23-.14,3.39-.14,3,0,6-.17,9,.06,2.2.17,4.4-.73,6.67.81,1.56,1.05,3.9-.06,6.09.91,2,.86,4.7.29,7,1.21,1,.4,2.08.6,3.08,1a69.29,69.29,0,0,1,11.63,5.72,22.8,22.8,0,0,1,8.85,10.8A9.25,9.25,0,0,1,91,343.2C91,347.69,91,352.19,91,356.68ZM0,338.45a3.56,3.56,0,0,1,0,1.21c-1.76,3.87-.61,7,1.52,10.57,2.31,3.85,5.83,5.68,9.31,7.73,3.75,2.21,8.09,3,12.12,4.51s8.65,1.59,13,2.39c3.7.68,7.63.27,11.46.1s7.71-.63,11.57-1c.17,0,.4.07.49,0,1.76-1.61,4.19-1.53,6.2-1.8,2.46-.33,4.09-2.6,6.64-2.19,4.34-2.52,9.21-4.27,12.53-8.3,2.41-2.93,3.93-6.51,3.06-10.11a16.78,16.78,0,0,0-5.82-9c-4.28-3.46-15.48-7.61-21.4-8.67-2.38-.42-5.08-.11-7-1.05-3.14-1.52-6.14-.48-9.17-.76s-6.56-.79-9.4.17c-2.38.8-4.73.28-7,1.15s-4.66.81-6.79,1.68c-4.13,1.7-8.45,2.82-12.31,5.33C5.4,332.68,3.05,336,0,338.45Zm87.83,34.33V353.17c-2.34,1.82-4.5,3.69-6.84,5.28a37.74,37.74,0,0,1-7.24,4.19A77.29,77.29,0,0,1,62.66,366a106.26,106.26,0,0,1-12.14,2,62.58,62.58,0,0,1-9,0c-2.87-.11-5.87.74-8.57-1-4.25.59-8.17-1-12.13-2.07s-7.91-2-11.24-4.08C6,358.64,1.9,356.84-.68,353A149.6,149.6,0,0,0-.86,370.4,12.48,12.48,0,0,0,1,375.61c2.38,4.07,6.08,6.29,10,8.39S19,387,23,388.55c4.18,1.66,8.67,1.45,13,2.3,3.68.73,7.63.28,11.45.11s7.7-.63,11.56-1c.16,0,.39.06.48,0,1.79-1.52,4.17-1.1,6.19-1.93s4.59-1.06,6.61-2.12c4.29-2.26,9-4,12.16-7.95A51.54,51.54,0,0,0,87.83,372.78Z" transform="translate(148.89 -146.8)"/><path d="M692,427.75c0,4,0,8,0,12a15.08,15.08,0,0,1-4.73,11.55A42.34,42.34,0,0,1,666.74,462c-3.86.87-7.58,2.46-11.66,2-2.87,1.78-6.05.82-9.08,1s-6.33.06-9.49,0c-1.58,0-2.85-1.27-4.59-1.05a6.55,6.55,0,0,1-4.64-.82c-1-.66-2.68-.51-4.07-.92s-3-.7-4.51-1.21c-6.26-2.18-12.33-4.72-16.94-9.75a16.46,16.46,0,0,1-4.82-12c.22-8.15,0-16.32.06-24.47a14.44,14.44,0,0,1,4.37-10.69c6-6,13.28-9.25,21.39-11.11,3.53-.81,7.16-1.29,10.62-2.14,5.08-1.25,10.09-.61,15.12-.76,2-.06,4-.6,6.16.79,1.57,1,3.92-.15,6.08,1,1.79.92,4.28.46,6.52,1.06,6.33,1.67,15.4,6.16,19.62,10.52,3.32,3.43,5.43,7.34,5.16,12.36C691.83,419.75,692,423.75,692,427.75Zm-91-18.38c0,.7.27,1.57,0,2-2.37,3-.66,6,.53,8.49a16.35,16.35,0,0,0,8.92,8.19c2.14.87,4.12,2.11,6.27,2.94s4.54,1.14,6.62,2.1a15,15,0,0,0,7.19,1.83c2.54-.19,4.66,1.17,7.08,1.13,3.66-.07,7.33.11,11-.06s7.38-.63,11.07-1c.32,0,.72.05,1-.11,1.88-1.29,4.19-1.09,6.22-1.87s4.19-1.17,6.14-2.06c4.75-2.13,9.57-4.3,13-8.44,2.36-2.87,3.84-6.38,2.89-10.11a14.85,14.85,0,0,0-5.6-8.61,37.69,37.69,0,0,0-11.05-5.86c-3.88-1.15-7.51-3.16-11.72-3-1.63-1.81-4-.12-5.55-1-1.91-1.11-3.75-.81-5.65-.87-2.32-.08-4.66,0-7,0-2.16,0-4.72-.73-6.39.18-2.26,1.22-4.49.26-6.59,1.05s-4.52,1.18-6.72,1.87c-4.25,1.33-8.49,2.69-12.37,5.12C606.74,403.36,604.4,406.51,601,409.37Zm87.84,14c-2.79,4.07-6.47,6.05-10,8.11a41,41,0,0,1-13.07,4.63c-3.21.63-6.36,1.51-9.65,2a62.27,62.27,0,0,1-10.09.85c-2.66,0-5.32-.06-8,0s-5.24-1.26-8.08-1.17c-2.36.07-4.73-1.54-7.16-1.77-4.46-.43-8.47-2.36-12.19-4.3s-7.77-3.9-10.33-7.84c-.32,6.07-.4,12-.26,17.94a7.83,7.83,0,0,0,1.31,3.91,22.26,22.26,0,0,0,8.9,8.32c4.21,2,8.61,3.35,12.9,5,4.52,1.77,9.23,1.74,13.81,2.7,3.67.76,7.63.28,11.45.11s7.71-.63,11.56-1c.17,0,.4.07.49,0,1.77-1.56,4.17-1.08,6.19-1.94s4.59-1.06,6.6-2.12c4.28-2.26,9-4,12.17-7.93a53.52,53.52,0,0,0,3.4-5.22Z" transform="translate(148.89 -146.8)"/><path d="M172,436.94c0,4.33.09,8.66,0,13a13.46,13.46,0,0,1-3.78,9.42A39.57,39.57,0,0,1,146,471c-4.11,2.34-8.86,2.06-13.27,2.79-5.35.89-11,.21-16.45.21-2.72-2.21-6.14-.51-9.25-1.77-2.61-1-5.77-1.32-8.55-2.29-6.24-2.17-12.34-4.73-16.89-9.83-2.92-3.28-4.8-6.92-4.68-11.56.19-8,.15-16,0-24-.13-7.46,3.87-12.13,9.77-15.89a47.44,47.44,0,0,1,13-6c2.09-.57,4.17-1.2,6.27-1.71a49.54,49.54,0,0,1,5.08-1c1.57-.2,3.2.31,4.64-1,.46-.41,1.6-.06,2.44-.06,3.83,0,7.65,0,11.48,0,1.91,0,3.76-.06,5.63.91,1.48.77,3.42-.51,5.16.86.83.66,2.57.07,3.86.25a28.9,28.9,0,0,1,3.59,1,21,21,0,0,1,2.22.66c4.43,1.81,8.93,3.58,12.83,6.38,5.24,3.76,9.24,8.36,9.05,15.41C171.91,428.61,172,432.78,172,436.94ZM81,418.35c0,.82.28,1.72,0,2.11-1.62,1.94-.89,3.7-.28,5.83,1.53,5.33,5.26,8.22,9.82,10.81,8.33,4.74,17.44,6.62,26.72,7.81a66.12,66.12,0,0,0,13,0,84.22,84.22,0,0,0,12.67-1.88,66.58,66.58,0,0,0,13.5-4.81c3.66-1.72,7.14-3.67,9.62-6.82,2.27-2.88,3.84-6.33,2.76-10.1a16.34,16.34,0,0,0-5.61-8.64c-5.75-4.4-12.55-6.65-19.38-8.61a66,66,0,0,0-10.66-1.89c-5.59-.66-11.3-.18-17-.18-2.06,1.77-4.68.58-7,1.3s-5,1-7.22,1.88c-4.11,1.63-8.46,2.71-12.29,5.39C86.35,412.89,84.13,416.14,81,418.35Zm88,14c-4.15,5.26-9.27,7.84-14.31,10.33-3.41,1.68-7.32,2.47-11.08,3.31-4,.89-8.09,1.94-12.14,1.92-5.84,0-11.8,1.27-17.55-.87-4.25.58-8.17-1-12.12-2.07s-7.88-2.08-11.24-4.1c-3.61-2.17-7.61-4.07-10.56-9,0,7-.09,12.81.06,18.58a9.93,9.93,0,0,0,1.36,4.4,21.23,21.23,0,0,0,8.94,8.22,67.53,67.53,0,0,0,29.17,7.84,84.34,84.34,0,0,0,17.07-.71,74.67,74.67,0,0,0,12-2.57,46.81,46.81,0,0,0,13.7-6.63c3.28-2.45,6.22-5.52,6.58-9.58C169.4,445.36,169,439.22,169,432.31Z" transform="translate(148.89 -146.8)"/><path d="M546,457.94c0,4.16,0,8.33,0,12.49a13.93,13.93,0,0,1-4.16,10.27A39.58,39.58,0,0,1,520,492c-4.11,2.34-8.87,2.06-13.28,2.79-5.34.89-10.95.21-16.44.21-2.72-2.21-6.15-.52-9.26-1.77-2.6-1-5.77-1.32-8.54-2.29-6.24-2.17-12.35-4.72-16.89-9.83-2.92-3.28-4.8-6.92-4.69-11.57.2-8,.16-16,0-24-.12-7.45,3.88-12.13,9.77-15.89a47.85,47.85,0,0,1,13-5.95c2.09-.57,4.17-1.2,6.28-1.71a48.51,48.51,0,0,1,5.08-1c1.56-.2,3.19.31,4.63-1,.47-.41,1.61-.06,2.44-.06,3.83,0,7.66,0,11.49,0,1.91,0,3.75-.06,5.62.91,1.48.77,3.43-.5,5.16.86.84.66,2.57.07,3.87.25a28.75,28.75,0,0,1,3.58,1,20.32,20.32,0,0,1,2.22.66c4.44,1.81,8.93,3.58,12.83,6.38,5.24,3.76,9.24,8.36,9,15.42C545.91,449.62,546,453.78,546,457.94Zm-91-18.6c0,.76.19,1.37,0,1.74-2.12,3.58-.41,6.52,1.21,9.7,2,4,5.62,6,9.16,8,3.9,2.19,8.32,3.21,12.53,4.71,4.38,1.55,9,1.65,13.45,2.42,3.72.64,7.64.26,11.46.09s7.38-.62,11.07-1a4,4,0,0,0,.9-.24c3.93-1.41,8.1-2,11.94-3.73,4.76-2.13,9.44-4.34,13.06-8.26,2-2.17,2.65-4.93,3.19-7.66.42-2.1-.87-4.43-2.28-7-3.13-5.76-8.77-7.81-14.27-10-3-1.22-6.14-2.08-9.24-3A61.57,61.57,0,0,0,507,423.2c-5.56-.73-11.29-.2-17-.2-2,1.82-4.66.56-6.93,1.35s-4.63.88-6.79,1.7c-4.17,1.59-8.43,2.87-12.31,5.3C460.55,433.5,458.32,436.76,455,439.34ZM543,454c-2.52,2-4.68,3.84-7,5.44a38,38,0,0,1-7.24,4.18,77.76,77.76,0,0,1-11.1,3.3,106.26,106.26,0,0,1-12.14,2,62.58,62.58,0,0,1-9,0c-2.87-.11-5.87.74-8.57-1-4.25.58-8.17-1-12.12-2.07s-7.91-2-11.24-4.09c-3.6-2.2-7.67-4-10.27-7.88-.32,5.26-.31,10.36-.32,15.47,0,5.39,2.65,9.49,6.76,12.5a34.1,34.1,0,0,0,11.17,5.51c1.79.49,3.57,1,5.34,1.57a51.89,51.89,0,0,0,5.67,1.93c1.9.38,4.11-.24,5.8.48,2.15.91,4.19.52,6.25.53a108.54,108.54,0,0,0,15.58-.75,67.5,67.5,0,0,0,12-2.56,48.11,48.11,0,0,0,13.7-6.64c3.31-2.43,6.21-5.53,6.59-9.55C543.42,466.39,543,460.24,543,454Z" transform="translate(148.89 -146.8)"/><path d="M253,517.47c0,3.83-.09,7.66,0,11.49a16.35,16.35,0,0,1-5.22,12.87c-4.11,4-14.38,8.77-20.24,10.35-4.41,1.2-9.05,1-13.31,2.78a7.07,7.07,0,0,1-2.48,0c-3.5,0-7,0-10.49,0-5.31,0-10.41-1.49-15.65-2-1.72-1.69-4.16-1.08-6.21-1.88s-3.69-2.49-6.06-2.26c-5.36-3.15-10.85-6.23-13.86-12a11.56,11.56,0,0,1-1.54-5.36c.08-9.32-.07-18.65.1-28a13.68,13.68,0,0,1,3.74-8.94,30.51,30.51,0,0,1,10.41-7.5C176,485.39,179.59,483,184,483c1.65-1.43,4-.29,5.47-1.19,1.81-1.12,3.56-.3,5.18-.85,6-2,12.06-.53,18.08-.9,1.5-.09,3,.64,4.58.93,1.38.27,2.78-.33,4.2.81.82.65,2.57.05,3.87.23a28.75,28.75,0,0,1,3.58,1,10.73,10.73,0,0,1,2.21.69c3.51,1.94,7.34,3.15,10.88,5.15a27,27,0,0,1,9.44,9.31,10.25,10.25,0,0,1,1.57,5.84C252.89,508.48,253,513,253,517.47Zm-91.06-18c0,.73.27,1.6-.05,2-1.48,2-.76,3.68-.19,5.82,1.4,5.28,5.1,8.16,9.43,10.65,4,2.32,8.52,3.53,12.86,5.12,4.68,1.72,9.55,1.88,14.31,2.75,3.71.67,7.64.26,11.46.09s7.39-.62,11.08-1a4.1,4.1,0,0,0,.9-.23c3.92-1.43,8.1-2,11.94-3.74,4.75-2.14,9.43-4.33,13.06-8.25,2-2.17,2.66-4.93,3.21-7.66.41-2.06-.91-4.48-2.28-7-3.13-5.76-8.77-7.81-14.27-10-3-1.22-6.13-2.09-9.23-3A63.93,63.93,0,0,0,214,483.2c-5.57-.73-11.3-.2-17-.2-2,1.83-4.66.55-6.93,1.34s-4.63.88-6.79,1.71c-4.16,1.6-8.45,2.82-12.31,5.3C167.46,493.61,165.07,496.92,161.94,499.51ZM161,514.39c0,5.31,0,10.62,0,15.93,0,2.47,1.12,4.43,2.26,6.56,2.17,4.08,5.92,6,9.6,8.1s8.09,2.94,12.11,4.5,8.64,1.58,12.95,2.38c3.7.68,7.63.27,11.45.1s7.71-.63,11.56-1c.17,0,.4.07.49,0,1.76-1.6,4.19-1.55,6.19-1.8,2.47-.31,4.09-2.6,6.64-2.19,4.19-2.44,8.94-4.08,12.15-8a51.14,51.14,0,0,0,3.47-5.31V513.3c-2.75,3.68-6,5.55-9.13,7.62-3.86,2.53-8.16,3.66-12.4,5-2.2.72-4.51,1-6.73,1.84s-5.2-.62-7.49,1.2c-5.65,0-11.4.63-16.93-.2a115,115,0,0,1-13.81-2.64,59.12,59.12,0,0,1-11.66-4.37C168,519.85,163.88,517.91,161,514.39Z" transform="translate(148.89 -146.8)"/><path d="M384,296.52c0,4,0,8,0,12a16,16,0,0,1-4.89,12c-4.11,4.23-14.54,9.08-20.62,10.67-4.57,1.19-9.25,1.55-13.82,2.68-3,.74-6.32-.11-9.45.2-4.78.48-9.49-.49-14-1.27a59,59,0,0,1-17.59-5.65c-5-2.62-9.71-5.4-12.53-10.55-1.05-1.93-2.08-3.84-2.07-6.13,0-9.32-.14-18.65.07-28a13.89,13.89,0,0,1,3.76-8.92c4.5-5.11,14-9.91,22.2-11.65,3.38-.72,6.81-1.29,10.14-2.08,5.23-1.24,10.41-.59,15.6-.8,2.05-.09,4.08-.27,6.13.86,1.59.88,3.62-.2,5.64.87s4.64.13,7,1.08c1.07.43,2.46.52,3.51,1.17,3.16,2,6.76,3,10,4.82a28.58,28.58,0,0,1,9.44,9.34,10.69,10.69,0,0,1,1.41,5.36C384.13,287.2,384,291.86,384,296.52Zm-91-18.17c0,.82.28,1.72-.05,2.11-1.62,1.94-.89,3.7-.28,5.83,1.53,5.32,5.26,8.22,9.82,10.81,8.33,4.74,17.44,6.62,26.72,7.81a66.12,66.12,0,0,0,13,0,84.22,84.22,0,0,0,12.67-1.88,67.41,67.41,0,0,0,13.5-4.81c3.67-1.71,7.13-3.68,9.62-6.82,2.28-2.87,3.84-6.33,2.76-10.1a16.34,16.34,0,0,0-5.61-8.64c-5.75-4.4-12.55-6.65-19.38-8.61a66,66,0,0,0-10.66-1.89c-5.59-.66-11.3-.18-17-.18-2.06,1.77-4.68.58-7,1.3s-5,1-7.21,1.88c-4.12,1.63-8.47,2.71-12.3,5.39C298.35,272.89,296.13,276.14,293,278.35Zm-1,13.77c0,6.81-.09,12.59.06,18.36a9.83,9.83,0,0,0,1.38,4.39,20.87,20.87,0,0,0,8.94,8.22c4.16,2.16,8.61,3.36,12.88,5.08,4.53,1.82,9.24,1.81,13.82,2.66,4.35.8,9,.47,13.44.08A101.19,101.19,0,0,0,355.18,329c5.2-1.1,15.55-5.17,19.51-8.29,3.06-2.41,5.88-5.42,6.19-9.35.46-6.07.12-12.2.12-18.38-2.54,2-4.7,3.88-7.06,5.48a45.91,45.91,0,0,1-7.24,4.2,54.62,54.62,0,0,1-7.53,2.29c-2.54.71-5.08,1.79-7.66,1.89-2.76.1-5.4,1.13-8.06,1-5.85-.23-11.8,1.21-17.55-.91-4.26.59-8.14-1.13-12.14-2a43.16,43.16,0,0,1-11.6-4.46C298.62,298.52,294.94,296.5,292,292.12Z" transform="translate(148.89 -146.8)"/><path class="cls-1" d="M227,388.5l7.43-7.41c.39,0,1.45.26,1.9-.14,3.28-2.9,7.39-3.88,11.38-5.14a109,109,0,0,1,12.29-3c4.74-.91,9.4-.77,14.1-.75,2.38,0,4.82-.8,7.21.64,1.89,1.13,4.57-.64,6.45,1.29,6.08.19,11.52,2.66,16.81,5.22,3.62,1.76,7.14,3.95,9.2,7.91,1.11,2.14,2.3,4.1,2.23,6.58a20,20,0,0,1-3,7.76c-3.69,4.09-8.5,6.38-13.43,8.57-3.85,1.71-8,2.27-11.92,3.76a5.18,5.18,0,0,1-1.42.2c-5.85.5-11.66,1.28-17.57,1.06A82.27,82.27,0,0,1,253,413a72.69,72.69,0,0,1-14.4-5,34.91,34.91,0,0,1-5.79-2.92,17.73,17.73,0,0,1-6.75-10c-.38-1.35-.8-3.26.85-4.61C227.28,390.18,227,389.17,227,388.5Z" transform="translate(148.89 -146.8)"/><path class="cls-2" d="M226,402.33c4.52,5.39,9.87,7.46,15.27,9.88a74.07,74.07,0,0,0,15,4.6A65.86,65.86,0,0,0,274.81,418c2.09-.15,4.17-.38,6.26-.55,1.93-.16,4.17.26,5.73-.58,1.87-1,4.25-.06,5.73-1.86,4.06.12,7.74-1.57,11.08-3.33,4.31-2.27,9-4.32,12.39-8.68,0,6.26.42,12.55-.15,18.76-.36,3.87-3.33,6.87-6.43,9.21-4.33,3.27-14,6.87-19.6,8.1a86.5,86.5,0,0,1-12.66,1.87,59,59,0,0,1-13-.07c-4.34-.67-8.87-.58-13-2.22s-8.28-2.39-12.09-4.58c-2-1.14-4.29-1.71-6.21-3.06-4.28-3-6.77-7.07-6.88-12.37C225.92,413.51,226,408.38,226,402.33Z" transform="translate(148.89 -146.8)"/><path class="cls-1" d="M374.15,358.35l7.24-7.24c.59-.05,1.69.2,2.12-.22,3.27-3.25,7.69-4.2,11.75-5.42a114.8,114.8,0,0,1,11.94-2.68c4.92-.93,9.75-.58,14.61-.76,4.49-.18,8.81,1,13.19,1.78a56.08,56.08,0,0,1,6.49,1.36,63.32,63.32,0,0,1,11.44,4.89c4.21,2.26,7.91,5.07,9.14,10.26,1,4,.35,8.38-2.17,11.31-3.42,4-8.1,6-12.56,8.3-2,1.06-4.47,1.26-6.62,2.11s-4.39.46-6.2,1.92c-.1.08-.31,0-.47,0-3.86.33-7.71.8-11.58,1s-8.14.71-11.94-.14c-4.27-.95-8.69-.84-12.92-2.5-4-1.57-8.27-2.53-12.13-4.47-1.78-.89-3.64-1.67-5.38-2.73-3.83-2.34-5.45-6.05-7-9.78C372.08,363,373.94,360.72,374.15,358.35Z" transform="translate(148.89 -146.8)"/><path class="cls-2" d="M462.83,392.78a52.77,52.77,0,0,1-3.37,5.21c-3.19,3.91-7.88,5.68-12.17,7.94-2,1.06-4.47,1.24-6.6,2.12s-4.41.41-6.19,1.93c-.1.08-.32,0-.49,0-3.85.33-7.7.8-11.56,1s-8.13.71-11.93-.14c-4.27-1-8.69-.82-12.9-2.5-4-1.59-8.2-2.67-12.16-4.39a25.53,25.53,0,0,1-5.73-3c-4-3.16-6.74-7.15-6.73-12.54V372c3.26,4.94,7.37,7.21,11.57,8.87,4,1.57,7.83,3.56,12.23,4.29,3.55.58,7.15,1.25,10.63,2.05,5.75,1.32,11.42.32,17.1.81,2.93.25,5.56-1.27,8.57-1.16,2.53.08,5.1-1.16,7.65-1.86s5.57-1.1,8-2.36c5-2.61,10.12-5.09,14.09-10.09Z" transform="translate(148.89 -146.8)"/><path class="cls-1" d="M520,328.51l7.52-7.51c.55,0,1.45.28,1.81,0,3.27-2.93,7.39-3.89,11.38-5.15a108.28,108.28,0,0,1,12.28-3c4.75-.91,9.41-.77,14.11-.75,2.37,0,4.81-.8,7.21.64,1.89,1.13,4.57-.64,6.45,1.29,6.08.19,11.52,2.65,16.8,5.22,3.63,1.76,7.15,3.95,9.21,7.91,1.11,2.14,2.3,4.1,2.23,6.58,0,1.7-1.86,6.52-3,7.75-3.69,4.1-8.5,6.39-13.43,8.58-3.85,1.71-8,2.27-11.92,3.76a5.18,5.18,0,0,1-1.42.2c-5.85.49-11.66,1.28-17.57,1.06A82.27,82.27,0,0,1,546,353a72.6,72.6,0,0,1-14.39-5,35,35,0,0,1-5.8-2.92,17.73,17.73,0,0,1-6.75-10c-.38-1.35-.8-3.26.85-4.6C520.28,330.18,520,329.17,520,328.51Z" transform="translate(148.89 -146.8)"/><path class="cls-2" d="M609,362.51a57,57,0,0,1-3.55,5.48c-3.19,3.91-7.88,5.68-12.17,7.94-2,1.06-4.47,1.23-6.6,2.12s-4.41.4-6.19,1.94c-.09.08-.32,0-.48,0-3.86.33-7.71.8-11.57,1s-7.76.61-11.44-.11c-4.32-.84-8.84-.58-13-2.33-3.82-1.62-8-2.17-11.65-4.43-1.92-1.19-4.24-1.7-6.24-3A15,15,0,0,1,519,358.4c-.18-5.1,0-10.21,0-16.42,3.26,4.95,7.38,7.21,11.57,8.88,4,1.58,7.85,3.54,12.24,4.29,3.55.6,7.15,1.25,10.63,2.05,5.58,1.29,11.08.53,16.6.73,2.67.09,5.37-.62,8.07-.92,2.49-.28,4.83-1.21,7.24-1.74,4.12-.91,8.15-1.9,11.85-4,4.12-2.3,8.28-4.53,11.29-8.33.29.32.5.44.5.56Q609,353,609,362.51Z" transform="translate(148.89 -146.8)"/><path class="cls-1" d="M146.1,308.26c3.12-2.38,5.41-5.58,8.76-7.82,3.85-2.56,8.18-3.64,12.29-5.37,2.13-.9,4.7-.74,6.81-1.65,2.27-1,4.9.55,6.95-1.37.35-.34,1.29-.05,2-.05,2,0,4,0,6,0A71.18,71.18,0,0,1,207,293.88c6.9,1.65,10.78,2.65,17.48,6.09,4.51,2.31,8.17,5.13,9.53,10.39,1.08,4.13.43,8.26-2.18,11.3-3.41,4-8.12,5.94-12.57,8.27-2,1.06-4.48,1.24-6.61,2.12s-4.41.4-6.19,1.93c-.1.09-.33,0-.49,0-4,.33-8,.8-12.08,1s-8.11.65-12-.12c-4.44-.88-9-.9-13.39-2.55-4-1.52-8.4-2.35-12.11-4.49-3.33-1.91-6.8-3.68-8.93-7.51-2-3.53-3.46-6.64-1.57-10.55A4.32,4.32,0,0,0,146.1,308.26Z" transform="translate(148.89 -146.8)"/><path class="cls-2" d="M234.87,322.31v20.42a42.69,42.69,0,0,1-3.5,5.32c-3.39,3.89-8,5.92-12.64,8-3.84,1.7-8,2.34-11.94,3.7a4.09,4.09,0,0,1-.88.28c-4,.35-8,.81-12.07,1s-8.08.59-11.94-.11c-4.31-.77-8.78-.76-13-2.38-4-1.55-8.33-2.34-12.1-4.49s-7.44-4-9.6-8.11c-1.13-2.13-2.26-4.09-2.25-6.57,0-5.31,0-10.61,0-15.89,1-.69,1.07.4,1.52.65a5.76,5.76,0,0,1,1.07,1c2.46,2.45,7.77,5,11.54,7,4.6,2.55,9.86,2.64,14.47,4.86.13.07.33,0,.49,0,3.86.33,7.71.8,11.57,1a95.61,95.61,0,0,0,12,0,86.16,86.16,0,0,0,12.13-2,53.22,53.22,0,0,0,11.05-3.4C225.79,330.17,230.85,327.67,234.87,322.31Z" transform="translate(148.89 -146.8)"/><path class="cls-1" d="M308,469.33c3.25-2.48,5.52-5.7,8.9-7.92,3.85-2.53,8.18-3.64,12.29-5.34,2.13-.89,4.68-.78,6.8-1.68s4.62-.18,7-1.17,5.59,0,8.39-.26c7-.63,13.93.7,20.61,2.24s13.35,4,19,8.33a16.08,16.08,0,0,1,5.86,9c.86,3.6-.58,7.18-3,10.13-3.34,4-8.12,5.93-12.56,8.26-2,1.06-4.5,1.21-6.61,2.13s-4.43.36-6.2,1.93c-.09.08-.32,0-.49,0-4,.33-8,.8-12.07,1s-8.12.66-11.95-.12c-4.43-.91-9-.92-13.39-2.56-4-1.49-8.36-2.41-12.11-4.5-3.35-1.88-6.76-3.73-8.91-7.52-2-3.54-3.41-6.67-1.55-10.56C308.11,470.43,308,470.05,308,469.33Z" transform="translate(148.89 -146.8)"/><path class="cls-2" d="M307,484.29c3,3.6,7.08,5.63,10.84,7.54a63.38,63.38,0,0,0,11.68,4.35,114.4,114.4,0,0,0,14.3,2.65,64.81,64.81,0,0,0,15.93.06,88.75,88.75,0,0,0,20.14-4.29,39.91,39.91,0,0,0,16.9-10.93c.46,6.74.06,13.15.21,18.38a16.15,16.15,0,0,1-6.56,9.87c-2.44,1.82-5.45,2.87-8.17,4.32a44.71,44.71,0,0,1-14.52,4.55c-4.59.68-9.26,1.87-14,1.24-1.64-.21-3.33.06-5,0-4.19-.28-8.44-.28-12.54-1.08-3.9-.77-7.6-2.52-11.45-3.61a31.51,31.51,0,0,1-9.95-4.93c-6-4.35-7.79-7.45-7.79-14.68Z" transform="translate(148.89 -146.8)"/><path class="cls-1" d="M439,248.24c3.35-2.33,5.49-5.44,8.65-7.67,3.82-2.69,8.17-3.76,12.29-5.39,2.2-.88,4.85-1.13,7.22-1.88s4.89.48,6.95-1.3c5.66,0,11.38-.48,17,.18a66.69,66.69,0,0,1,10.66,1.89c6.84,2,13.64,4.21,19.39,8.61a16.41,16.41,0,0,1,5.61,8.63c1.08,3.78-.49,7.23-2.76,10.11-2.48,3.15-6,5.1-9.62,6.82a66.58,66.58,0,0,1-13.5,4.81,84,84,0,0,1-12.67,1.88,65.36,65.36,0,0,1-13,0c-9.28-1.19-18.39-3.07-26.72-7.81-4.56-2.59-8.28-5.49-9.82-10.81-.61-2.13-1.34-3.89.28-5.83C439.28,250.07,439,249.17,439,248.24Z" transform="translate(148.89 -146.8)"/><path class="cls-2" d="M526.84,282.77a53,53,0,0,1-3.4,5.23c-3.18,3.91-7.88,5.67-12.16,7.93-2,1.06-4.48,1.23-6.6,2.12s-4.42.39-6.19,1.94c-.1.08-.33,0-.49,0-3.86.33-7.7.8-11.56,1s-7.78.65-11.45-.12c-4.58-1-9.29-.91-13.82-2.69-4.29-1.69-8.69-3-12.89-5a22.2,22.2,0,0,1-8.91-8.31,7.93,7.93,0,0,1-1.31-3.91c-.14-5.93-.06-11.87.26-17.94,2.57,3.92,6.72,5.67,10.3,7.9,3.33,2.06,7.39,3.06,11.24,4.08s7.88,2.66,12.13,2.07c2.7,1.7,5.7.86,8.57,1a62.58,62.58,0,0,0,9,0,106.26,106.26,0,0,0,12.14-2,51.47,51.47,0,0,0,11.06-3.36c4.5-2.18,9.17-4.36,12.5-8.36a7.35,7.35,0,0,0,.79-1.7l.81.64Z" transform="translate(148.89 -146.8)"/><path class="cls-1" d="M0,338.45c3.05-2.45,5.4-5.77,8.93-8.06,3.86-2.51,8.18-3.63,12.31-5.33,2.13-.87,4.63-.86,6.79-1.68s4.62-.35,7-1.15c2.84-1,6.27-.45,9.4-.17s6-.76,9.17.76c1.94.94,4.64.63,7,1.05,5.92,1.06,17.12,5.21,21.4,8.67a16.78,16.78,0,0,1,5.82,9c.87,3.6-.65,7.18-3.06,10.11-3.32,4-8.19,5.78-12.53,8.3-2.55-.41-4.18,1.86-6.64,2.19-2,.27-4.44.19-6.2,1.8-.09.08-.32,0-.49,0-3.86.33-7.71.8-11.57,1s-7.76.58-11.46-.1c-4.31-.8-8.78-.8-13-2.39s-8.37-2.3-12.12-4.51c-3.48-2-7-3.88-9.31-7.73-2.13-3.55-3.28-6.7-1.52-10.57A3.56,3.56,0,0,0,0,338.45Z" transform="translate(148.89 -146.8)"/><path class="cls-2" d="M87.83,372.78a51.54,51.54,0,0,1-3.37,5.2c-3.19,3.91-7.87,5.69-12.16,7.95-2,1.06-4.47,1.24-6.61,2.12s-4.4.41-6.19,1.93c-.09.08-.32,0-.48,0-3.86.33-7.7.8-11.56,1s-7.77.62-11.45-.11c-4.32-.85-8.81-.64-13-2.3-4-1.6-8.26-2.49-12.09-4.55s-7.6-4.32-10-8.39A12.48,12.48,0,0,1-.86,370.4,149.6,149.6,0,0,1-.68,353C1.9,356.84,6,358.64,9.6,360.85c3.33,2,7.39,3.06,11.24,4.08S28.72,367.59,33,367c2.7,1.71,5.7.86,8.57,1a62.58,62.58,0,0,0,9,0,106.26,106.26,0,0,0,12.14-2,77.29,77.29,0,0,0,11.09-3.31A37.74,37.74,0,0,0,81,358.45c2.34-1.59,4.5-3.46,6.84-5.28Z" transform="translate(148.89 -146.8)"/><path class="cls-1" d="M601,409.37c3.4-2.86,5.74-6,9.16-8.15,3.88-2.43,8.12-3.79,12.37-5.12,2.2-.69,4.54-1.05,6.72-1.87s4.33.17,6.59-1.05c1.67-.91,4.23-.18,6.39-.18,2.33,0,4.67-.06,7,0,1.9.06,3.74-.24,5.65.87,1.55.91,3.92-.78,5.55,1,4.21-.14,7.84,1.87,11.72,3a37.69,37.69,0,0,1,11.05,5.86,14.85,14.85,0,0,1,5.6,8.61c1,3.73-.53,7.24-2.89,10.11-3.39,4.14-8.21,6.31-13,8.44-2,.89-4.12,1.29-6.14,2.06s-4.34.58-6.22,1.87c-.23.16-.63.08-1,.11-3.69.33-7.37.8-11.07,1s-7.33,0-11,.06c-2.42,0-4.54-1.32-7.08-1.13a15,15,0,0,1-7.19-1.83c-2.08-1-4.46-1.26-6.62-2.1s-4.13-2.07-6.27-2.94a16.35,16.35,0,0,1-8.92-8.19c-1.19-2.53-2.9-5.47-.53-8.49C601.27,410.94,601,410.07,601,409.37Z" transform="translate(148.89 -146.8)"/><path class="cls-2" d="M688.84,423.4v20.38a53.52,53.52,0,0,1-3.4,5.22c-3.19,3.91-7.89,5.67-12.17,7.93-2,1.06-4.48,1.22-6.6,2.12s-4.42.38-6.19,1.94c-.09.08-.32,0-.49,0-3.85.33-7.7.8-11.56,1s-7.78.65-11.45-.11c-4.58-1-9.29-.93-13.81-2.7-4.29-1.69-8.69-3-12.9-5a22.26,22.26,0,0,1-8.9-8.32,7.83,7.83,0,0,1-1.31-3.91c-.14-5.93-.06-11.87.26-17.94,2.56,3.94,6.65,5.93,10.33,7.84s7.73,3.87,12.19,4.3c2.43.23,4.8,1.84,7.16,1.77,2.84-.09,5.33,1.24,8.08,1.17s5.32,0,8,0a62.27,62.27,0,0,0,10.09-.85c3.29-.5,6.44-1.38,9.65-2a41,41,0,0,0,13.07-4.63C682.37,429.45,686.05,427.47,688.84,423.4Z" transform="translate(148.89 -146.8)"/><path class="cls-1" d="M81,418.35c3.13-2.21,5.35-5.46,8.65-7.78,3.83-2.68,8.18-3.76,12.29-5.39,2.2-.88,4.85-1.13,7.22-1.88s4.9.47,7-1.3c5.66,0,11.37-.48,17,.18a66,66,0,0,1,10.66,1.89c6.83,2,13.63,4.21,19.38,8.61a16.34,16.34,0,0,1,5.61,8.64c1.08,3.77-.49,7.22-2.76,10.1-2.48,3.15-6,5.1-9.62,6.82a66.58,66.58,0,0,1-13.5,4.81,84.22,84.22,0,0,1-12.67,1.88,66.12,66.12,0,0,1-13,0c-9.28-1.19-18.39-3.07-26.72-7.81-4.56-2.59-8.29-5.48-9.82-10.81-.61-2.13-1.34-3.89.28-5.83C81.28,420.07,81,419.17,81,418.35Z" transform="translate(148.89 -146.8)"/><path class="cls-2" d="M169,432.31c0,6.91.4,13.05-.14,19.11-.36,4.06-3.3,7.13-6.58,9.58a46.81,46.81,0,0,1-13.7,6.63,74.67,74.67,0,0,1-12,2.57,84.34,84.34,0,0,1-17.07.71,67.53,67.53,0,0,1-29.17-7.84,21.23,21.23,0,0,1-8.94-8.22,9.93,9.93,0,0,1-1.36-4.4c-.15-5.77-.06-11.54-.06-18.58,3,4.89,7,6.79,10.56,9,3.36,2,7.38,3.07,11.24,4.1s7.87,2.65,12.12,2.07c5.75,2.14,11.71.84,17.55.87,4.05,0,8.14-1,12.14-1.92,3.76-.84,7.67-1.63,11.08-3.31C159.73,440.15,164.85,437.57,169,432.31Z" transform="translate(148.89 -146.8)"/><path class="cls-1" d="M455,439.34c3.32-2.58,5.55-5.84,9-8,3.88-2.43,8.14-3.71,12.31-5.3,2.16-.82,4.59-.94,6.79-1.7s4.9.47,6.93-1.35c5.66,0,11.39-.53,17,.2A61.57,61.57,0,0,1,517.15,425c3.1.95,6.24,1.81,9.24,3,5.5,2.23,11.14,4.28,14.27,10,1.41,2.59,2.7,4.92,2.28,7-.54,2.73-1.18,5.49-3.19,7.66-3.62,3.92-8.3,6.13-13.06,8.26-3.84,1.71-8,2.32-11.94,3.73a4,4,0,0,1-.9.24c-3.69.35-7.37.81-11.07,1s-7.74.55-11.46-.09c-4.48-.77-9.07-.87-13.45-2.42-4.21-1.5-8.63-2.52-12.53-4.71-3.54-2-7.13-4-9.16-8-1.62-3.18-3.33-6.12-1.21-9.7C455.19,440.71,455,440.1,455,439.34Z" transform="translate(148.89 -146.8)"/><path class="cls-2" d="M543,454c0,6.21.42,12.36-.15,18.42-.38,4-3.28,7.12-6.59,9.55a48.11,48.11,0,0,1-13.7,6.64,67.5,67.5,0,0,1-12,2.56A108.54,108.54,0,0,1,495,492c-2.06,0-4.1.38-6.25-.53-1.69-.72-3.9-.1-5.8-.48a51.89,51.89,0,0,1-5.67-1.93c-1.77-.57-3.55-1.08-5.34-1.57a34.1,34.1,0,0,1-11.17-5.51c-4.11-3-6.77-7.11-6.76-12.5,0-5.11,0-10.21.32-15.47,2.6,3.86,6.67,5.68,10.27,7.88,3.33,2.05,7.38,3.07,11.24,4.09S483.7,468.58,488,468c2.7,1.71,5.7.86,8.57,1a62.58,62.58,0,0,0,9,0,106.26,106.26,0,0,0,12.14-2,77.76,77.76,0,0,0,11.1-3.3,38,38,0,0,0,7.24-4.18C538.32,457.87,540.48,456,543,454Z" transform="translate(148.89 -146.8)"/><path class="cls-1" d="M161.94,499.51c3.13-2.59,5.52-5.9,9.06-8.16,3.86-2.48,8.15-3.7,12.31-5.3,2.16-.83,4.59-.95,6.79-1.71s4.9.49,6.93-1.34c5.66,0,11.39-.53,17,.2A63.93,63.93,0,0,1,224.17,485c3.1.94,6.24,1.81,9.23,3,5.5,2.24,11.14,4.29,14.27,10,1.37,2.54,2.69,5,2.28,7-.55,2.73-1.19,5.49-3.21,7.66-3.63,3.92-8.31,6.11-13.06,8.25-3.84,1.73-8,2.31-11.94,3.74a4.1,4.1,0,0,1-.9.23c-3.69.35-7.38.81-11.08,1s-7.75.58-11.46-.09c-4.76-.87-9.63-1-14.31-2.75-4.34-1.59-8.82-2.8-12.86-5.12-4.33-2.49-8-5.37-9.43-10.65-.57-2.14-1.29-3.86.19-5.82C162.21,501.11,161.94,500.24,161.94,499.51Z" transform="translate(148.89 -146.8)"/><path class="cls-2" d="M161,514.39c2.88,3.52,7,5.46,10.71,7.4a59.12,59.12,0,0,0,11.66,4.37,115,115,0,0,0,13.81,2.64c5.53.83,11.28.2,16.93.2,2.29-1.82,5.13-.34,7.49-1.2s4.53-1.12,6.73-1.84c4.24-1.38,8.54-2.51,12.4-5,3.14-2.07,6.38-3.94,9.13-7.62v20.44a51.14,51.14,0,0,1-3.47,5.31c-3.21,3.87-8,5.51-12.15,8-2.55-.41-4.17,1.88-6.64,2.19-2,.25-4.43.2-6.19,1.8-.09.08-.32,0-.49,0-3.85.33-7.7.8-11.56,1s-7.75.58-11.45-.1c-4.31-.8-8.78-.76-12.95-2.38s-8.33-2.35-12.11-4.5-7.43-4-9.6-8.1c-1.14-2.13-2.27-4.09-2.26-6.56C161,525,161,519.7,161,514.39Z" transform="translate(148.89 -146.8)"/><path class="cls-1" d="M293,278.35c3.13-2.21,5.35-5.46,8.65-7.78,3.83-2.68,8.18-3.76,12.3-5.39,2.19-.88,4.84-1.13,7.21-1.88s4.9.47,7-1.3c5.66,0,11.37-.48,17,.18a66,66,0,0,1,10.66,1.89c6.83,2,13.63,4.21,19.38,8.61a16.34,16.34,0,0,1,5.61,8.64c1.08,3.77-.48,7.23-2.76,10.1-2.49,3.14-6,5.11-9.62,6.82a67.41,67.41,0,0,1-13.5,4.81,84.22,84.22,0,0,1-12.67,1.88,66.12,66.12,0,0,1-13,0c-9.28-1.19-18.39-3.07-26.72-7.81-4.56-2.59-8.29-5.49-9.82-10.81-.61-2.13-1.34-3.89.28-5.83C293.28,280.07,293,279.17,293,278.35Z" transform="translate(148.89 -146.8)"/><path class="cls-2" d="M292,292.12c2.94,4.38,6.62,6.4,10.16,8.38a43.16,43.16,0,0,0,11.6,4.46c4,.91,7.88,2.63,12.14,2,5.75,2.12,11.7.68,17.55.91,2.66.1,5.3-.93,8.06-1,2.58-.1,5.12-1.18,7.66-1.89a54.62,54.62,0,0,0,7.53-2.29,45.91,45.91,0,0,0,7.24-4.2c2.36-1.6,4.52-3.49,7.06-5.48,0,6.18.34,12.31-.12,18.38-.31,3.93-3.13,6.94-6.19,9.35-4,3.12-14.31,7.19-19.51,8.29a101.19,101.19,0,0,1-12.66,1.87c-4.46.39-9.09.72-13.44-.08-4.58-.85-9.29-.84-13.82-2.66-4.27-1.72-8.72-2.92-12.88-5.08a20.87,20.87,0,0,1-8.94-8.22,9.83,9.83,0,0,1-1.38-4.39C291.91,304.71,292,298.93,292,292.12Z" transform="translate(148.89 -146.8)"/></svg>