<svg xmlns="http://www.w3.org/2000/svg" width="46" height="31.625" viewBox="0 0 46 31.625">
  <g id="email_2_" data-name="email (2)" transform="translate(0 -80)">
    <g id="Grupo_7" data-name="Grupo 7" transform="translate(0 80)">
      <path id="Caminho_30" data-name="Caminho 30" d="M45.968,82.72a1.415,1.415,0,0,0-.057-.287A2.842,2.842,0,0,0,43.125,80H2.875A2.842,2.842,0,0,0,.089,82.432a1.415,1.415,0,0,0-.057.287c0,.055-.032.1-.032.155V108.75c0,.055.029.1.032.158a1.389,1.389,0,0,0,.057.285,2.843,2.843,0,0,0,2.786,2.432h40.25a2.843,2.843,0,0,0,2.786-2.435,1.389,1.389,0,0,0,.057-.285c0-.052.032-.1.032-.155V82.875C46,82.82,45.971,82.774,45.968,82.72Zm-3.838.155-15.956,11.7L23,96.9l-3.171-2.326a0,0,0,0,1,0,0L3.87,82.875ZM2.875,85.713l13.777,10.1-13.777,10.1ZM3.87,108.75,19.084,97.6l3.065,2.248a1.438,1.438,0,0,0,1.7,0L26.916,97.6,42.13,108.75Zm39.255-2.835-13.777-10.1,13.777-10.1Z" transform="translate(0 -80)" fill="#b30069"/>
    </g>
  </g>
</svg>
