<svg xmlns="http://www.w3.org/2000/svg" width="83.009" height="83.025" viewBox="0 0 83.009 83.025">
  <g id="instagram_1_" data-name="instagram (1)" transform="translate(-0.449)">
    <path id="Caminho_21" data-name="Caminho 21" d="M83.247,24.41a30.338,30.338,0,0,0-1.93-10.072A21.268,21.268,0,0,0,69.169,2.19,30.416,30.416,0,0,0,59.1.26C54.653.049,53.242,0,41.969,0S29.286.049,24.858.243a30.346,30.346,0,0,0-10.072,1.93,20.258,20.258,0,0,0-7.364,4.8,20.441,20.441,0,0,0-4.785,7.347A30.419,30.419,0,0,0,.708,24.393C.5,28.838.449,30.249.449,41.521S.5,54.2.692,58.632A30.336,30.336,0,0,0,2.622,68.7,21.265,21.265,0,0,0,14.77,80.852a30.42,30.42,0,0,0,10.072,1.93c4.427.2,5.839.243,17.111.243s12.683-.048,17.111-.243a30.33,30.33,0,0,0,10.072-1.93A21.236,21.236,0,0,0,81.285,68.7a30.439,30.439,0,0,0,1.93-10.072c.195-4.428.243-5.839.243-17.111s-.016-12.683-.211-17.111Zm-7.477,33.9a22.757,22.757,0,0,1-1.427,7.7,13.772,13.772,0,0,1-7.883,7.883,22.837,22.837,0,0,1-7.7,1.427c-4.379.2-5.693.243-16.77.243s-12.408-.048-16.771-.243a22.745,22.745,0,0,1-7.7-1.427,12.776,12.776,0,0,1-4.768-3.1,12.908,12.908,0,0,1-3.1-4.768,22.841,22.841,0,0,1-1.427-7.7c-.2-4.379-.243-5.693-.243-16.771s.048-12.408.243-16.77a22.745,22.745,0,0,1,1.427-7.7,12.619,12.619,0,0,1,3.115-4.769,12.888,12.888,0,0,1,4.768-3.1,22.853,22.853,0,0,1,7.7-1.427c4.379-.195,5.693-.243,16.77-.243,11.094,0,12.408.049,16.771.243a22.757,22.757,0,0,1,7.7,1.427,12.766,12.766,0,0,1,4.768,3.1,12.905,12.905,0,0,1,3.1,4.769,22.849,22.849,0,0,1,1.427,7.7c.194,4.379.243,5.693.243,16.77s-.049,12.375-.243,16.754Zm0,0" fill="#fff"/>
    <path id="Caminho_22" data-name="Caminho 22" d="M146.277,124.5a21.328,21.328,0,1,0,21.328,21.328A21.333,21.333,0,0,0,146.277,124.5Zm0,35.163a13.835,13.835,0,1,1,13.835-13.835,13.837,13.837,0,0,1-13.835,13.835Zm0,0" transform="translate(-104.308 -104.307)" fill="#fff"/>
    <path id="Caminho_23" data-name="Caminho 23" d="M372.409,93.581a4.979,4.979,0,1,1-4.98-4.979A4.98,4.98,0,0,1,372.409,93.581Zm0,0" transform="translate(-303.288 -74.231)" fill="#fff"/>
  </g>
</svg>
