<svg xmlns="http://www.w3.org/2000/svg" width="42.553" height="66" viewBox="0 0 42.553 66">
  <path id="Caminho_31" data-name="Caminho 31" d="M99.089,0H99A19.75,19.75,0,0,0,79.268,19.724c0,7.129,3.247,16.538,9.65,27.965a155.442,155.442,0,0,0,9.609,15.025A.71.71,0,0,0,99.1,63h.019a.711.711,0,0,0,.572-.317c.047-.072,4.827-7.29,9.542-16.118,6.364-11.915,9.591-20.946,9.591-26.841A19.751,19.751,0,0,0,99.089,0ZM108.2,20.206a9.153,9.153,0,1,1-9.153-9.153A9.163,9.163,0,0,1,108.2,20.206Z" transform="translate(-77.768 1.5)" fill="none" stroke="#b30069" stroke-width="3"/>
</svg>
