<svg id="whatsapp-logo-variant" xmlns="http://www.w3.org/2000/svg" width="43" height="43" viewBox="0 0 43 43">
  <path id="Caminho_29" data-name="Caminho 29" d="M43,20.947A21.148,21.148,0,0,1,11.687,39.288L0,43,3.81,31.759A20.733,20.733,0,0,1,.782,20.945a21.109,21.109,0,0,1,42.218,0ZM21.888,3.34A17.7,17.7,0,0,0,4.142,20.951,17.421,17.421,0,0,0,7.523,31.274L5.307,37.812l6.817-2.166a17.767,17.767,0,0,0,27.512-14.7A17.7,17.7,0,0,0,21.888,3.34ZM32.55,25.772c-.132-.212-.477-.341-.993-.6s-3.062-1.5-3.535-1.667-.822-.259-1.167.255-1.333,1.67-1.638,2.015-.6.387-1.12.133a14.266,14.266,0,0,1-4.163-2.548,15.447,15.447,0,0,1-2.877-3.556c-.3-.513-.031-.791.226-1.046.231-.231.517-.6.777-.9A3.423,3.423,0,0,0,18.577,17a.956.956,0,0,0-.043-.9c-.129-.258-1.162-2.782-1.6-3.81s-.861-.857-1.164-.857-.646-.042-.991-.042a1.894,1.894,0,0,0-1.378.639,5.746,5.746,0,0,0-1.81,4.282,9.926,9.926,0,0,0,2.112,5.31c.261.341,3.581,5.7,8.841,7.751s5.262,1.369,6.21,1.282,3.062-1.241,3.491-2.438A4.266,4.266,0,0,0,32.55,25.772Z" fill="#b30069"/>
</svg>
