<svg xmlns="http://www.w3.org/2000/svg" width="96" height="69.374" viewBox="0 0 96 69.374">
  <path id="youtube" d="M47.995,69.873h-.026c-2.9-.02-28.505-.253-35.761-2.216A14.837,14.837,0,0,1,1.769,57.225C-.13,50.1-.009,36.376,0,35.28-.008,34.19-.131,20.354,1.763,13.168c0-.007,0-.014.006-.021A15.15,15.15,0,0,1,12.2,2.646l.038-.01C19.408.75,45.066.519,47.969.5h.052c2.9.02,28.581.253,35.769,2.218A14.834,14.834,0,0,1,94.218,13.135c1.969,7.191,1.787,21.056,1.767,22.227.014,1.153.129,14.752-1.759,21.915,0,.007,0,.014-.005.021A14.84,14.84,0,0,1,83.776,67.732l-.021.006c-7.173,1.885-32.832,2.115-35.734,2.136h-.026ZM9.012,15.092c-1.667,6.343-1.51,20-1.508,20.139v.1c-.05,3.788.125,14.758,1.509,19.954a7.313,7.313,0,0,0,5.148,5.132c5.353,1.448,26.21,1.9,33.833,1.957,7.643-.053,28.531-.5,33.844-1.887a7.318,7.318,0,0,0,5.138-5.131c1.385-5.272,1.559-16.189,1.508-19.953,0-.04,0-.079,0-.119.069-3.833-.067-14.932-1.5-20.169a.117.117,0,0,1,0-.015,7.318,7.318,0,0,0-5.152-5.143C76.527,8.507,55.636,8.053,47.995,8c-7.638.053-28.505.5-33.835,1.885a7.522,7.522,0,0,0-5.147,5.208ZM90.6,56.322h0ZM38.436,50.373V20l26.25,15.187Zm0,0" transform="translate(0.002 -0.5)" fill="#fff"/>
</svg>
