<svg id="Layer_1" data-name="Layer 1" xmlns="http://www.w3.org/2000/svg" viewBox="0 0 87.87 100"><defs><style>.cls-1{fill:#fff;}</style></defs><path d="M293.32,446l-31.26-31.26V357.93a5.62,5.62,0,0,1,1.8-.75c2.21,0,4.23-1,6.4-1.24a20.67,20.67,0,0,0,3.32-.7,16.94,16.94,0,0,1,3.14-.67c1.6-.14,3.08-.67,4.63-.94a22.22,22.22,0,0,0,4.71-1.05,4.25,4.25,0,0,1,1.44,0,11.93,11.93,0,0,1,4.07-3.3,16.81,16.81,0,0,1,4.28-1.63c1.52-.35,3.11-.56,4.63-.89,2.33-.51,4.63-.14,6.93-.28a7.27,7.27,0,0,1,1.75.36,4.29,4.29,0,0,1,1.61.29,2.29,2.29,0,0,0,2,0c.84-.61,1.77-.22,2.64-.62a12.75,12.75,0,0,1,3.71-.52l30.81,30.8v57.48C331,438.21,312.11,442.17,293.32,446Zm.88-1.35a18.73,18.73,0,0,0,2.51-.43,38.13,38.13,0,0,1,4.17-1c1.6-.3,3.24-.56,4.81-.91,2-.46,4.07-.92,6.09-1.36a42.92,42.92,0,0,1,6.77-1.24c.65-.65,1.54-.22,2.28-.49a43.72,43.72,0,0,1,6.3-1.39,19.77,19.77,0,0,1,4.64-.79c.55-.75,1.48-.26,2.21-.71a6.93,6.93,0,0,1,2.48-.44,6.07,6.07,0,0,0,2.29-.43c.84-.57,1.89.07,2.59-.69,1.43.1,2.7-.62,4.07-.78a15.09,15.09,0,0,0,3.35-.87V378a10,10,0,0,0-2.12.32,41.43,41.43,0,0,1-6.3,1.38,19.28,19.28,0,0,1-4.65.8c-.57.67-1.57.16-2.16.77-.9-.28-1.65.38-2.52.4a5.32,5.32,0,0,0-2.3.41c-.78.4-1.6.12-2.32.42-1.95.82-4.07.92-6.1,1.38-1.58.35-3.24.55-4.81.91-2.34.54-4.69,1-7,1.5a20.58,20.58,0,0,0-2.31.4,25.35,25.35,0,0,1-4.15,1,21.43,21.43,0,0,1-4.83.83c-.89.69-2.2.09-3,.95Zm-31-85.34v54.34l29.72,29.72V389Zm52-11.6-.15.34a11.55,11.55,0,0,0,1.31.67,11.16,11.16,0,0,1,5.18,3.6,5.75,5.75,0,0,1,1.28,3.87c-.1,3.06-.05,6.12,0,9.18A6,6,0,0,1,321,370a16.25,16.25,0,0,1-4.37,2.86,30.43,30.43,0,0,1-9.19,2.26,23,23,0,0,1-4.39,0c-1.42-.06-2.83-.24-4.24-.37a1.5,1.5,0,0,1-.34-.11,50,50,0,0,1-5.57-1.77,12.45,12.45,0,0,1-5-3.52,5.66,5.66,0,0,1-1.36-3.84c.09-2.23,0-4.46,0-6.69,0-1.08,0-2.17,0-3.25a14.08,14.08,0,0,1,.28-1.78l-22.36,4.64,29.69,29.68,54-11.19-29.74-29.75ZM288,353.88c0,.29.1.62,0,.78-.59.75-.32,1.41-.09,2.23.59,2,2,3.14,3.76,4.13a27.55,27.55,0,0,0,10.22,3,24.75,24.75,0,0,0,4.39,0c1.42-.06,2.83-.24,4.24-.37a1.4,1.4,0,0,0,.34-.08c1.5-.56,3.1-.77,4.57-1.43a15.13,15.13,0,0,0,5-3.15,5.23,5.23,0,0,0,1.22-2.92,4.13,4.13,0,0,0-.83-2.7c-1.24-2.18-3.39-2.95-5.47-3.85a23.1,23.1,0,0,0-2.35-.78,23.8,23.8,0,0,0-2.55-.74c-.83-.16-1.75.21-2.51-.41h-6.5c-.78.7-1.78.22-2.65.51s-1.77.34-2.59.66a24.76,24.76,0,0,0-4.72,2A39.66,39.66,0,0,0,288,353.88Zm-.37,5.11c0,2.7,0,4.91,0,7.12a3.88,3.88,0,0,0,.52,1.68,8.14,8.14,0,0,0,3.42,3.15,26,26,0,0,0,11.15,3,32.54,32.54,0,0,0,6.53-.28,27.17,27.17,0,0,0,4.58-1,18.13,18.13,0,0,0,5.24-2.53,5.45,5.45,0,0,0,2.52-3.66c.21-2.32.05-4.67.05-7.31a14.56,14.56,0,0,1-5.46,3.94,18.54,18.54,0,0,1-4.24,1.27,20.66,20.66,0,0,1-4.64.73c-2.24,0-4.52.52-6.71-.33-1.63.23-3.13-.38-4.64-.79a16.27,16.27,0,0,1-4.3-1.57C290.3,361.6,288.76,360.89,287.64,359Z" transform="translate(-262.06 -346)"/><path class="cls-1" d="M294.2,444.65v-55.2c.77-.86,2.08-.26,3-.95a21.43,21.43,0,0,0,4.83-.83,25.35,25.35,0,0,0,4.15-1,20.58,20.58,0,0,1,2.31-.4c2.33-.54,4.68-1,7-1.5,1.57-.36,3.23-.56,4.81-.91,2-.46,4.15-.56,6.1-1.38.72-.3,1.54,0,2.32-.42a5.32,5.32,0,0,1,2.3-.41c.87,0,1.62-.68,2.52-.4.59-.61,1.59-.1,2.16-.77a19.28,19.28,0,0,0,4.65-.8,41.43,41.43,0,0,0,6.3-1.38,10,10,0,0,1,2.12-.32v55.18a15.09,15.09,0,0,1-3.35.87c-1.37.16-2.64.88-4.07.78-.7.76-1.75.12-2.59.69a6.07,6.07,0,0,1-2.29.43,6.93,6.93,0,0,0-2.48.44c-.73.45-1.66,0-2.21.71a19.77,19.77,0,0,0-4.64.79,43.72,43.72,0,0,0-6.3,1.39c-.74.27-1.63-.16-2.28.49a42.92,42.92,0,0,0-6.77,1.24c-2,.44-4.07.9-6.09,1.36-1.57.35-3.21.61-4.81.91a38.13,38.13,0,0,0-4.17,1A18.73,18.73,0,0,1,294.2,444.65Z" transform="translate(-262.06 -346)"/><path class="cls-1" d="M263.22,359.31,292.94,389v54.34l-29.72-29.72Z" transform="translate(-262.06 -346)"/><path class="cls-1" d="M315.23,347.71l3.15-.56,29.74,29.75-54,11.19-29.69-29.68,22.36-4.64a14.08,14.08,0,0,0-.28,1.78c-.05,1.08,0,2.17,0,3.25,0,2.23.07,4.46,0,6.69a5.66,5.66,0,0,0,1.36,3.84,12.45,12.45,0,0,0,5,3.52,50,50,0,0,0,5.57,1.77,1.5,1.5,0,0,0,.34.11c1.41.13,2.82.31,4.24.37a23,23,0,0,0,4.39,0,30.43,30.43,0,0,0,9.19-2.26A16.25,16.25,0,0,0,321,370a6,6,0,0,0,1.88-4.59c0-3.06-.08-6.12,0-9.18a5.75,5.75,0,0,0-1.28-3.87,11.16,11.16,0,0,0-5.18-3.6,11.55,11.55,0,0,1-1.31-.67Z" transform="translate(-262.06 -346)"/><path class="cls-1" d="M288,353.88a39.66,39.66,0,0,1,3.46-3.11,24.76,24.76,0,0,1,4.72-2c.82-.32,1.74-.38,2.59-.66s1.87.19,2.65-.51h6.5c.76.62,1.68.25,2.51.41a23.8,23.8,0,0,1,2.55.74,23.1,23.1,0,0,1,2.35.78c2.08.9,4.23,1.67,5.47,3.85a4.13,4.13,0,0,1,.83,2.7,5.23,5.23,0,0,1-1.22,2.92,15.13,15.13,0,0,1-5,3.15c-1.47.66-3.07.87-4.57,1.43a1.4,1.4,0,0,1-.34.08c-1.41.13-2.82.31-4.24.37a24.75,24.75,0,0,1-4.39,0,27.55,27.55,0,0,1-10.22-3c-1.74-1-3.17-2.09-3.76-4.13-.23-.82-.5-1.48.09-2.23C288.11,354.5,288,354.17,288,353.88Z" transform="translate(-262.06 -346)"/><path class="cls-1" d="M287.64,359c1.12,1.9,2.66,2.61,4,3.44A16.27,16.27,0,0,0,296,364c1.51.41,3,1,4.64.79,2.19.85,4.47.32,6.71.33a20.66,20.66,0,0,0,4.64-.73,18.54,18.54,0,0,0,4.24-1.27,14.56,14.56,0,0,0,5.46-3.94c0,2.64.16,5-.05,7.31a5.45,5.45,0,0,1-2.52,3.66,18.13,18.13,0,0,1-5.24,2.53,27.17,27.17,0,0,1-4.58,1,32.54,32.54,0,0,1-6.53.28,26,26,0,0,1-11.15-3,8.14,8.14,0,0,1-3.42-3.15,3.88,3.88,0,0,1-.52-1.68C287.6,363.9,287.64,361.69,287.64,359Z" transform="translate(-262.06 -346)"/></svg>