<svg id="Layer_1" data-name="Layer 1" xmlns="http://www.w3.org/2000/svg" viewBox="0 0 100 77.49"><defs><style>.cls-1{fill:#fff;}</style></defs><path d="M312.59,361.82a7.88,7.88,0,0,1,2.88-2.36,11.62,11.62,0,0,1,3-1.08,13,13,0,0,1,3.23-.58c.3,0,.58-.26,1-.25,1.33,0,2.66,0,4,0,.63.53,1.54,0,2.17.53.58-.12,1.19.21,1.78-.22.35-.25.87-.07,1.35-.25a12,12,0,0,1,2.6-.37L356,378.69v40a35.32,35.32,0,0,0-3.52.84,13.51,13.51,0,0,1-1.61.27,20.48,20.48,0,0,1-2.33.48,12.49,12.49,0,0,0-2.36.43c-1.4.46-2.87.49-4.25,1a5.27,5.27,0,0,1-1.48.24c-.53,0-1,.34-1.48.33a6.82,6.82,0,0,0-1.48.3,17.88,17.88,0,0,0-2.31.49c-.71.25-1.52.1-2.18.53-1.13-.15-2.13.48-3.23.58a3.46,3.46,0,0,0-1.46.26c-.53.39-1.13,0-1.59.38s-1.07-.17-1.44.38c-1.13-.15-2.13.49-3.24.58a3.16,3.16,0,0,0-1.45.26c-.53.38-1.13,0-1.59.38s-1,.05-1.47.31-1.24.12-1.86.31-1.19.12-1.75.3c-1.24.39-2.54.48-3.79.81a36.69,36.69,0,0,0-4.24,1,13.16,13.16,0,0,1-1.61.28c-1.62.37-3.26.67-4.88,1-1.09.25-2.25.39-3.35.64a23.77,23.77,0,0,0-4.25,1,11.75,11.75,0,0,1-1.61.27,20.48,20.48,0,0,1-2.33.48,13.8,13.8,0,0,0-2.37.42,35.31,35.31,0,0,1-4.11.94,13.52,13.52,0,0,1-3.73.6L256,413.08V373.54a3.92,3.92,0,0,1,1.25-.52c1.54,0,2.94-.68,4.45-.86a14.52,14.52,0,0,0,2.32-.49,11.3,11.3,0,0,1,2.18-.46c1.11-.1,2.14-.47,3.22-.66a16.33,16.33,0,0,0,3.28-.73,3,3,0,0,1,1,0,8.44,8.44,0,0,1,2.83-2.29,11.58,11.58,0,0,1,3-1.13c1.06-.25,2.17-.39,3.22-.62a30.18,30.18,0,0,1,4.83-.2,5.4,5.4,0,0,1,1.22.25,7.37,7.37,0,0,1,1.11.19,2.08,2.08,0,0,0,1.77-.09c.45-.29,1,0,1.48-.31a6.46,6.46,0,0,1,2.12-.32,5.42,5.42,0,0,0,1.84-.35c.56-.32,1.16-.06,1.71-.41s1.17-.13,1.72-.32c1.07-.38,2.24-.28,3.27-.78,1.58,0,3.05-.6,4.58-.86a11.24,11.24,0,0,0,3.15-.72A3,3,0,0,1,312.59,361.82Zm-34.22,72.09a9.08,9.08,0,0,0,1.39-.25c.53-.19,1.16-.09,1.6-.3a16,16,0,0,1,2.77-.69c.91-.25,1.88-.36,2.82-.58.74-.18,1.5-.22,2.24-.39a20.09,20.09,0,0,0,2.19-.49,13.43,13.43,0,0,0,2-.42c.57-.29,1.36-.12,2-.34s1.08-.06,1.48-.27a12.88,12.88,0,0,1,2.76-.71c.91-.25,1.89-.35,2.83-.58.73-.17,1.5-.22,2.24-.38a21.2,21.2,0,0,0,2.19-.49,12.39,12.39,0,0,0,1.95-.43c.57-.29,1.36-.12,2-.34s1.07-.06,1.47-.27a12.41,12.41,0,0,1,2.9-.71c1-.21,2-.33,3-.57.73-.18,1.5-.22,2.24-.38a18.89,18.89,0,0,0,2.19-.5,12.35,12.35,0,0,0,2-.42c.57-.29,1.36-.12,2-.34s1.07-.06,1.47-.27a12.94,12.94,0,0,1,2.77-.7c.91-.25,1.88-.36,2.82-.58.74-.18,1.5-.22,2.24-.38s1.52-.27,2.19-.5a12.23,12.23,0,0,0,2-.42c.56-.3,1.35-.12,2-.34s1.09-.06,1.47-.28,1.05-.19,1.56-.45a5.91,5.91,0,0,1,1.73-.31,4.6,4.6,0,0,0,1.6-.3c.53-.31,1.08-.14,1.6-.3,1-.32,2.11-.48,3.16-.73.76-.18,1.5-.38,2.17-.56V379.46c-.27.07-.5.15-.73.19a4.65,4.65,0,0,0-.76.09,33,33,0,0,1-4.39.95,13.67,13.67,0,0,1-3.23.56c-.38.52-1,.16-1.54.49a4.88,4.88,0,0,1-1.72.31,4.84,4.84,0,0,0-1.6.29c-.54.31-1.1.11-1.61.31a27.41,27.41,0,0,1-4.38,1,13.65,13.65,0,0,1-3.23.55c-.41.47-1.1.12-1.51.54-.63-.19-1.15.26-1.75.28a3.72,3.72,0,0,0-1.61.28c-.54.28-1.09.14-1.61.28a33.19,33.19,0,0,1-3.28.76,5.77,5.77,0,0,1-1.75.28c-.49.53-1.2.13-1.8.47a6.34,6.34,0,0,1-2,.31,11.42,11.42,0,0,0-1.85.36,39,39,0,0,1-4.39.95,13.65,13.65,0,0,1-3.23.55c-.39.52-1,.17-1.54.49A4.7,4.7,0,0,1,304,390a4.79,4.79,0,0,0-1.6.3c-.54.3-1.11.1-1.61.3a26.37,26.37,0,0,1-4.38,1,13.66,13.66,0,0,1-3.24.56c-.4.46-1.09.11-1.5.53-.63-.19-1.15.26-1.76.28a3.86,3.86,0,0,0-1.6.28c-.54.29-1.1.11-1.61.3a17.34,17.34,0,0,1-2.89.69,15.46,15.46,0,0,1-3.36.58c-.61.5-1.54,0-2,.64Zm53.42-75.45c0,.65.58.57.85.67a8.15,8.15,0,0,1,3.61,2.51,4,4,0,0,1,.9,2.68c-.06,2.22,0,4.44,0,6.65a3.91,3.91,0,0,1-1.18,2.84,11.53,11.53,0,0,1-2.69,1.88,18.32,18.32,0,0,1-4.82,1.54,12.57,12.57,0,0,1-2.68.28c-.92.05-1.86,0-2.79,0s-1.76-.44-2.68-.26c-1.23-.61-2.61-.65-3.86-1.29a10.14,10.14,0,0,1-3.45-2.26,4.21,4.21,0,0,1-1.14-2.85c0-2.53,0-5.05,0-7.48l.35-.69L293,366.51v.21a5.3,5.3,0,0,0,.73.42,7.84,7.84,0,0,1,3.56,2.31,4.22,4.22,0,0,1,1,2.77c0,2.17,0,4.34,0,6.51a4.18,4.18,0,0,1-1.31,3.19,11.14,11.14,0,0,1-3.05,2,21.08,21.08,0,0,1-6.39,1.57,16.35,16.35,0,0,1-3,0c-1,0-2-.16-3-.25a.92.92,0,0,1-.23-.09,35.75,35.75,0,0,1-3.89-1.22,8.53,8.53,0,0,1-3.57-2.56,3.79,3.79,0,0,1-.86-2.7c.06-2.17,0-4.35,0-6.52a8.72,8.72,0,0,1,.13-1c0-.17.06-.34.09-.5l-15.59,3.24,20.65,20.65c1-.19,2.13-.31,3.17-.6s2.11-.48,3.16-.7,2.16-.34,3.21-.61,2.1-.51,3.16-.71,2.15-.4,3.21-.64,2.11-.41,3.16-.68,2.15-.41,3.21-.64,2.11-.49,3.16-.67,2.13-.48,3.21-.66a27.32,27.32,0,0,0,3.15-.69c1-.31,2.2-.24,3.22-.6a31.92,31.92,0,0,1,3.17-.67c1-.26,2.14-.42,3.21-.63s2.11-.45,3.16-.71,2.14-.4,3.2-.62,2.12-.4,3.17-.69a24.77,24.77,0,0,1,3.2-.62c1.09-.15,2.17-.37,3.22-.61s2.1-.5,3.15-.71,2.15-.42,3.22-.61,2.1-.51,3.15-.72,2.17-.37,3.21-.62,2.12-.36,3.16-.71a22.63,22.63,0,0,1,3.08-.61l-20.66-20.66Zm-75,16.23v37.68L277.48,433V395.36Zm56.11-12c0,.19,0,.29,0,.36a2.82,2.82,0,0,0,.41,2.82,6.2,6.2,0,0,0,2.48,2.05,20.06,20.06,0,0,0,3.22,1.2,19.24,19.24,0,0,0,3.45.64,13.51,13.51,0,0,0,3,0c1,0,2.05-.16,3.08-.25,0,0,.1,0,.13,0a2.82,2.82,0,0,1,1.65-.47c.65-.09,1.09-.7,1.77-.59a11.12,11.12,0,0,0,3.33-2.21,3.09,3.09,0,0,0,.81-2.69,4.34,4.34,0,0,0-1.75-2.55,11.42,11.42,0,0,0-3.09-1.53c-1.32-.37-2.59-1-4-.86-.09,0-.2,0-.26,0-.76-.57-1.62-.17-2.42-.24a6.16,6.16,0,0,0-2.5,0c-.64.22-1.26.07-1.87.31s-1.24.21-1.8.45a18.54,18.54,0,0,0-3.28,1.41C314.39,361.18,313.79,362,312.92,362.7Zm-38.86,8a1.38,1.38,0,0,1,0,.36,2.77,2.77,0,0,0,.4,2.81,6.25,6.25,0,0,0,2.48,2.05,20.53,20.53,0,0,0,3.23,1.2,18.4,18.4,0,0,0,3.45.64,14.11,14.11,0,0,0,3.05,0c1,0,2.05-.17,3.08-.26,0,0,.1,0,.13,0a2.74,2.74,0,0,1,1.65-.48c.65-.09,1.08-.69,1.76-.58a11.36,11.36,0,0,0,3.34-2.21,3.14,3.14,0,0,0,.81-2.7,4.31,4.31,0,0,0-1.76-2.54,11.08,11.08,0,0,0-3.08-1.53,10.76,10.76,0,0,0-4-.87c-.09,0-.21,0-.26,0-.76-.57-1.62-.17-2.42-.24a6.39,6.39,0,0,0-2.51.05c-.63.21-1.26.07-1.86.3s-1.24.22-1.81.45a18.49,18.49,0,0,0-3.27,1.42C275.53,369.16,274.94,370,274.06,370.69Zm62.27-4.26a10.11,10.11,0,0,1-3.8,2.74,13.42,13.42,0,0,1-2.95.89,29,29,0,0,1-3.23.53,17.32,17.32,0,0,1-2.39,0,4.24,4.24,0,0,1-2.28-.26,8.22,8.22,0,0,1-3.22-.55,11.61,11.61,0,0,1-3-1.09,8,8,0,0,1-2.74-2.1c-.08,1.4-.08,2.76-.08,4.12a4,4,0,0,0,1.8,3.32,9.07,9.07,0,0,0,3,1.47c.48.13.95.27,1.42.42a14.9,14.9,0,0,0,1.51.51c.51.1,1.1-.06,1.55.13a3.94,3.94,0,0,0,1.66.14,28.91,28.91,0,0,0,4.15-.2,18.43,18.43,0,0,0,3.19-.68,12.79,12.79,0,0,0,3.64-1.77,3.78,3.78,0,0,0,1.76-2.54C336.45,369.91,336.33,368.27,336.33,366.43Zm-62.53,8.24c0,1.32,0,2.64,0,4a4,4,0,0,0,1.76,3.37,10.44,10.44,0,0,0,2.85,1.43,19.48,19.48,0,0,0,3.17.95,28.91,28.91,0,0,0,3.73.37,27.89,27.89,0,0,0,4.4-.36A13.39,13.39,0,0,0,294,383a18.25,18.25,0,0,0,1.92-1.13,5,5,0,0,0,1.56-2.21c-.05-1.64.06-3.34-.07-5.13a10.57,10.57,0,0,1-4.49,2.91,24.74,24.74,0,0,1-5.36,1.14,14.88,14.88,0,0,1-4.11,0,33.36,33.36,0,0,1-3.67-.69,17.77,17.77,0,0,1-3.11-1.16A8.59,8.59,0,0,1,273.8,374.67Z" transform="translate(-256 -357.25)"/><path class="cls-1" d="M278.37,433.91V395.46c.5-.61,1.43-.14,2-.64a15.46,15.46,0,0,0,3.36-.58,17.34,17.34,0,0,0,2.89-.69c.51-.19,1.07,0,1.61-.3a3.86,3.86,0,0,1,1.6-.28c.61,0,1.13-.47,1.76-.28.41-.42,1.1-.07,1.5-.53a13.66,13.66,0,0,0,3.24-.56,26.37,26.37,0,0,0,4.38-1c.5-.2,1.07,0,1.61-.3a4.79,4.79,0,0,1,1.6-.3,4.7,4.7,0,0,0,1.72-.31c.51-.32,1.15,0,1.54-.49a13.65,13.65,0,0,0,3.23-.55,39,39,0,0,0,4.39-.95,11.42,11.42,0,0,1,1.85-.36,6.34,6.34,0,0,0,2-.31c.6-.34,1.31.06,1.8-.47a5.77,5.77,0,0,0,1.75-.28,33.19,33.19,0,0,0,3.28-.76c.52-.14,1.07,0,1.61-.28a3.72,3.72,0,0,1,1.61-.28c.6,0,1.12-.47,1.75-.28.41-.42,1.1-.07,1.51-.54a13.65,13.65,0,0,0,3.23-.55,27.41,27.41,0,0,0,4.38-1c.51-.2,1.07,0,1.61-.31a4.84,4.84,0,0,1,1.6-.29,4.88,4.88,0,0,0,1.72-.31c.51-.33,1.16,0,1.54-.49a13.67,13.67,0,0,0,3.23-.56,33,33,0,0,0,4.39-.95,4.65,4.65,0,0,1,.76-.09c.23,0,.46-.12.73-.19v38.48c-.67.18-1.41.38-2.17.56-1.05.25-2.12.41-3.16.73-.52.16-1.07,0-1.6.3a4.6,4.6,0,0,1-1.6.3,5.91,5.91,0,0,0-1.73.31c-.51.26-1.06.15-1.56.45s-1,.1-1.47.28-1.42,0-2,.34a12.23,12.23,0,0,1-2,.42c-.67.23-1.45.33-2.19.5s-1.5.2-2.24.38c-.94.22-1.91.33-2.82.58a12.94,12.94,0,0,0-2.77.7c-.4.21-1,.09-1.47.27s-1.42.05-2,.34a12.35,12.35,0,0,1-2,.42,18.89,18.89,0,0,1-2.19.5c-.74.16-1.51.2-2.24.38-1,.24-2,.36-3,.57a12.41,12.41,0,0,0-2.9.71c-.4.21-1,.1-1.47.27s-1.42.05-2,.34a12.39,12.39,0,0,1-1.95.43,21.2,21.2,0,0,1-2.19.49c-.74.16-1.51.21-2.24.38-.94.23-1.92.33-2.83.58a12.88,12.88,0,0,0-2.76.71c-.4.21-1,.09-1.48.27s-1.41.05-2,.34a13.43,13.43,0,0,1-2,.42,20.09,20.09,0,0,1-2.19.49c-.74.17-1.5.21-2.24.39-.94.22-1.91.33-2.82.58a16,16,0,0,0-2.77.69c-.44.21-1.07.11-1.6.3A9.08,9.08,0,0,1,278.37,433.91Z" transform="translate(-256 -357.25)"/><path class="cls-1" d="M331.79,358.46l2.15-.32L354.6,378.8a22.63,22.63,0,0,0-3.08.61c-1,.35-2.11.46-3.16.71s-2.14.41-3.21.62-2.1.53-3.15.72-2.15.4-3.22.61-2.11.47-3.15.71-2.13.46-3.22.61a24.77,24.77,0,0,0-3.2.62c-1,.29-2.11.48-3.17.69s-2.15.35-3.2.62-2.11.5-3.16.71-2.16.37-3.21.63a31.92,31.92,0,0,0-3.17.67c-1,.36-2.18.29-3.22.6a27.32,27.32,0,0,1-3.15.69c-1.08.18-2.13.48-3.21.66s-2.11.45-3.16.67-2.16.38-3.21.64-2.11.44-3.16.68-2.14.43-3.21.64-2.11.43-3.16.71-2.14.39-3.21.61-2.12.4-3.16.7-2.14.41-3.17.6l-20.65-20.65,15.59-3.24c0,.16-.07.33-.09.5a8.72,8.72,0,0,0-.13,1c0,2.17,0,4.35,0,6.52a3.79,3.79,0,0,0,.86,2.7,8.53,8.53,0,0,0,3.57,2.56,35.75,35.75,0,0,0,3.89,1.22.92.92,0,0,0,.23.09c1,.09,2,.21,3,.25a16.35,16.35,0,0,0,3,0,21.08,21.08,0,0,0,6.39-1.57,11.14,11.14,0,0,0,3.05-2,4.18,4.18,0,0,0,1.31-3.19c0-2.17,0-4.34,0-6.51a4.22,4.22,0,0,0-1-2.77,7.84,7.84,0,0,0-3.56-2.31,5.3,5.3,0,0,1-.73-.42v-.21l19.23-3.82-.35.69c0,2.43,0,4.95,0,7.48a4.21,4.21,0,0,0,1.14,2.85,10.14,10.14,0,0,0,3.45,2.26c1.25.64,2.63.68,3.86,1.29.92-.18,1.78.28,2.68.26s1.87,0,2.79,0a12.57,12.57,0,0,0,2.68-.28,18.32,18.32,0,0,0,4.82-1.54,11.53,11.53,0,0,0,2.69-1.88,3.91,3.91,0,0,0,1.18-2.84c0-2.21,0-4.43,0-6.65a4,4,0,0,0-.9-2.68,8.15,8.15,0,0,0-3.61-2.51C332.37,359,331.82,359.11,331.79,358.46Z" transform="translate(-256 -357.25)"/><path class="cls-1" d="M256.81,374.69l20.67,20.67V433l-20.67-20.67Z" transform="translate(-256 -357.25)"/><path class="cls-1" d="M312.92,362.7c.87-.66,1.47-1.52,2.37-2.11a18.54,18.54,0,0,1,3.28-1.41c.56-.24,1.23-.23,1.8-.45s1.23-.09,1.87-.31a6.16,6.16,0,0,1,2.5,0c.8.07,1.66-.33,2.42.24.06,0,.17,0,.26,0,1.44-.15,2.71.49,4,.86a11.42,11.42,0,0,1,3.09,1.53,4.34,4.34,0,0,1,1.75,2.55,3.09,3.09,0,0,1-.81,2.69,11.12,11.12,0,0,1-3.33,2.21c-.68-.11-1.12.5-1.77.59a2.82,2.82,0,0,0-1.65.47s-.09,0-.13,0c-1,.09-2.05.21-3.08.25a13.51,13.51,0,0,1-3,0,19.24,19.24,0,0,1-3.45-.64,20.06,20.06,0,0,1-3.22-1.2,6.2,6.2,0,0,1-2.48-2.05,2.82,2.82,0,0,1-.41-2.82C313,363,312.92,362.89,312.92,362.7Z" transform="translate(-256 -357.25)"/><path class="cls-1" d="M274.06,370.69c.88-.66,1.47-1.53,2.38-2.11a18.49,18.49,0,0,1,3.27-1.42c.57-.23,1.24-.22,1.81-.45s1.23-.09,1.86-.3a6.39,6.39,0,0,1,2.51-.05c.8.07,1.66-.33,2.42.24.05,0,.17,0,.26,0a10.76,10.76,0,0,1,4,.87,11.08,11.08,0,0,1,3.08,1.53,4.31,4.31,0,0,1,1.76,2.54,3.14,3.14,0,0,1-.81,2.7,11.36,11.36,0,0,1-3.34,2.21c-.68-.11-1.11.49-1.76.58a2.74,2.74,0,0,0-1.65.48s-.09,0-.13,0c-1,.09-2.06.21-3.08.26a14.11,14.11,0,0,1-3.05,0,18.4,18.4,0,0,1-3.45-.64,20.53,20.53,0,0,1-3.23-1.2,6.25,6.25,0,0,1-2.48-2.05,2.77,2.77,0,0,1-.4-2.81A1.38,1.38,0,0,0,274.06,370.69Z" transform="translate(-256 -357.25)"/><path class="cls-1" d="M336.33,366.43c0,1.84.12,3.48,0,5.09a3.78,3.78,0,0,1-1.76,2.54,12.79,12.79,0,0,1-3.64,1.77,18.43,18.43,0,0,1-3.19.68,28.91,28.91,0,0,1-4.15.2,3.94,3.94,0,0,1-1.66-.14c-.45-.19-1,0-1.55-.13a14.9,14.9,0,0,1-1.51-.51c-.47-.15-.94-.29-1.42-.42a9.07,9.07,0,0,1-3-1.47,4,4,0,0,1-1.8-3.32c0-1.36,0-2.72.08-4.12a8,8,0,0,0,2.74,2.1,11.61,11.61,0,0,0,3,1.09,8.22,8.22,0,0,0,3.22.55,4.24,4.24,0,0,0,2.28.26,17.32,17.32,0,0,0,2.39,0,29,29,0,0,0,3.23-.53,13.42,13.42,0,0,0,2.95-.89A10.11,10.11,0,0,0,336.33,366.43Z" transform="translate(-256 -357.25)"/><path class="cls-1" d="M273.8,374.67a8.59,8.59,0,0,0,2.88,2,17.77,17.77,0,0,0,3.11,1.16,33.36,33.36,0,0,0,3.67.69,14.88,14.88,0,0,0,4.11,0,24.74,24.74,0,0,0,5.36-1.14,10.57,10.57,0,0,0,4.49-2.91c.13,1.79,0,3.49.07,5.13a5,5,0,0,1-1.56,2.21A18.25,18.25,0,0,1,294,383a13.39,13.39,0,0,1-4.31,1.41,27.89,27.89,0,0,1-4.4.36,28.91,28.91,0,0,1-3.73-.37,19.48,19.48,0,0,1-3.17-.95,10.44,10.44,0,0,1-2.85-1.43,4,4,0,0,1-1.76-3.37C273.82,377.31,273.8,376,273.8,374.67Z" transform="translate(-256 -357.25)"/></svg>