<svg id="Layer_1" data-name="Layer 1" xmlns="http://www.w3.org/2000/svg" viewBox="0 0 100 61.58"><defs><style>.cls-1{fill:#fff;}</style></defs><path d="M271.59,426.76,256,411.17V382.68a7.51,7.51,0,0,1,1-.38c.53-.12,1.08-.17,1.61-.28l1.59-.33c.91-.2,1.84-.33,2.74-.57a8.79,8.79,0,0,0,2.08-.51c.3-.16.7.12,1-.21.92,0,1.78-.44,2.74-.41a5.84,5.84,0,0,1,2.05-1.67,9.66,9.66,0,0,1,2.16-.8c.76-.2,1.56-.27,2.32-.44a22.49,22.49,0,0,1,3.57-.14,3.63,3.63,0,0,1,.78.17c.27.05.58-.1.79.2.42-.07.86.13,1.28-.13s.69,0,1.07-.22a6.71,6.71,0,0,1,1.53-.23c1-.2,2.06-.42,3.08-.65a9,9,0,0,1,1.22-.29c.58,0,1.12-.24,1.69-.31a11.61,11.61,0,0,0,1.7-.31c1-.31,2-.37,3-.69a10.37,10.37,0,0,1,1.79-.27,6.11,6.11,0,0,1,2-1.63,8.92,8.92,0,0,1,2.06-.81c1-.27,2-.34,2.92-.58a4.6,4.6,0,0,1,1.05,0,12.44,12.44,0,0,1,3.69.35,1.22,1.22,0,0,0,1.25-.16,13,13,0,0,0,2.62-.42,15.5,15.5,0,0,0,3.06-.67c.37-.14.82.08,1.14-.25a22.86,22.86,0,0,0,3.4-.62c1-.21,2-.37,3-.68a12.54,12.54,0,0,1,1.81-.28,6,6,0,0,1,2-1.61,8.94,8.94,0,0,1,2.14-.82c.77-.17,1.56-.27,2.32-.44a21.38,21.38,0,0,1,3.48-.14,3.53,3.53,0,0,1,.88.18,6,6,0,0,1,.8.13,1.46,1.46,0,0,0,1.27-.06c.32-.21.77.13,1-.26l1.88-.22L356,380.65v28.8c-.86.21-1.72.33-2.55.59-.39.12-.83.15-1.25.24a42.36,42.36,0,0,0-4.31.92c-.37.12-.77.11-1.16.2-1.17.27-2.35.49-3.52.75-.79.18-1.62.29-2.41.46a17.85,17.85,0,0,0-3.06.7c-.36.14-.77,0-1.16.21a4.77,4.77,0,0,1-1.16.21c-.36.06-.71.14-1.07.19s-.75.31-1.17.19a29.23,29.23,0,0,1-3.6.79c-1,.23-2,.32-3,.58-.69.19-1.4.26-2.08.52a8,8,0,0,1-1.16.2l-1.76.38a12.16,12.16,0,0,0-1.67.37,10,10,0,0,1-1.16.21c-1.14.26-2.3.39-3.43.74a12.34,12.34,0,0,1-1.24.23c-1.44.31-2.9.5-4.32.92a5.2,5.2,0,0,1-1.24.22,9.76,9.76,0,0,0-1.45.26c-.48.09-1,.18-1.48.32s-.93.2-1.39.36-.77.05-1.16.21a5.41,5.41,0,0,1-1.16.21l-1.07.19a6.26,6.26,0,0,1-1.16.22,4.34,4.34,0,0,0-1,.33c-.35.09-.72.11-1.07.17a10.4,10.4,0,0,1-1.26.25A5.41,5.41,0,0,0,295,422c-1,.27-2.07.33-3.06.69-.38.14-.82-.08-1.14.26-1.22.17-2.42.46-3.62.73-.79.17-1.62.28-2.41.45a19.08,19.08,0,0,0-3.06.7,8.23,8.23,0,0,1-1.16.21c-.91.21-1.83.35-2.73.57-.56.13-1.12.19-1.67.37s-1.12.07-1.63.25a19.7,19.7,0,0,0-2.27.54C272.12,426.84,271.85,426.76,271.59,426.76Zm.5-.53a5.32,5.32,0,0,1,.66-.23,6.76,6.76,0,0,0,1.45-.22,29.29,29.29,0,0,1,3.05-.71c.57-.16,1.18-.24,1.77-.36s1.23-.26,1.84-.4a10.82,10.82,0,0,1,1.16-.23c.36-.05.71-.13,1.07-.19a4.34,4.34,0,0,0,1.16-.22c.39-.18.8-.06,1.16-.2a17.85,17.85,0,0,1,3.06-.7,9.82,9.82,0,0,1,2.42-.42,28.94,28.94,0,0,1,4-.93c.92-.23,1.89-.33,2.83-.57a15.46,15.46,0,0,1,1.7-.29c.57-.08,1.13-.22,1.68-.35a8.24,8.24,0,0,0,1.16-.2,18.81,18.81,0,0,1,3.06-.69c.79-.18,1.63-.28,2.41-.46,1.17-.27,2.35-.48,3.52-.75a10.38,10.38,0,0,0,1.16-.2,12.84,12.84,0,0,1,2.08-.5c.8-.16,1.63-.29,2.42-.47,1-.23,2.05-.35,3.05-.68a9.29,9.29,0,0,1,1.7-.31,8.35,8.35,0,0,0,1.68-.35c.43-.15.88-.12,1.32-.28a14.88,14.88,0,0,1,1.92-.43,10.77,10.77,0,0,0,1.54-.23c.4-.15.8-.07,1.16-.2a12,12,0,0,1,2.09-.5c.8-.15,1.62-.28,2.41-.47,1-.23,2.06-.35,3.06-.68a9.14,9.14,0,0,1,1.7-.31,12.23,12.23,0,0,0,1.68-.35,10.79,10.79,0,0,0,1.16-.19,16.93,16.93,0,0,1,3.06-.69c.79-.17,1.63-.28,2.41-.46,1.17-.27,2.35-.47,3.52-.76.39-.09.84,0,1.14-.21s.83,0,1.23-.3.83-.13,1.25-.23,1-.28,1.4-.41V381.12c-.11.09-.17.19-.23.19a8.93,8.93,0,0,0-2.41.45c-1.08.24-2.18.38-3.25.69a13.41,13.41,0,0,1-1.58.34,13.1,13.1,0,0,0-1.7.31c-1,.29-2.06.35-3.06.69a10.22,10.22,0,0,1-1.7.31,13.15,13.15,0,0,0-1.68.34,8.5,8.5,0,0,0-1.16.2,26.51,26.51,0,0,1-3.15.71,11.45,11.45,0,0,1-1.58.34c-.77.07-1.46.39-2.22.45a5,5,0,0,0-1.25.23c-.34.13-.72,0-1,.18s-.66,0-.89.17a2.13,2.13,0,0,1-1,.18,5.05,5.05,0,0,0-1.24.25,9,9,0,0,1-2.09.48,10.56,10.56,0,0,1-2.43.41c-.29.4-.76.08-1.13.29a4,4,0,0,1-1.22.29,4.26,4.26,0,0,0-1.15.21c-.39.2-.8.08-1.16.21a12,12,0,0,1-2.09.5c-.8.15-1.62.28-2.41.46-1,.23-2.05.37-3.06.69a9.18,9.18,0,0,1-1.69.31c-.57.08-1.12.28-1.7.32a8.52,8.52,0,0,0-1.21.29c-1,.22-2.06.45-3.09.65a9.68,9.68,0,0,0-1.54.21c-1,.35-2.05.4-3.05.72a14.12,14.12,0,0,1-1.85.39c-.66.11-1.3.31-1.95.38-1.12.11-2.19.47-3.3.65s-2,.45-3.05.67a20.62,20.62,0,0,1-3.39.62c-.33.33-.78.11-1.15.25a20,20,0,0,1-3.16.69,9.18,9.18,0,0,1-2.33.4c-.27.37-.74.14-1.1.36a3.75,3.75,0,0,1-1.24.22c-.39.06-.79.11-1.17.2s-1,.26-1.56.4Zm38.49-54.38c0,.43.41.38.61.46a5.94,5.94,0,0,1,2.6,1.8,2.91,2.91,0,0,1,.65,1.93c0,1.6,0,3.2,0,4.79a2.85,2.85,0,0,1-.86,2.05,8.28,8.28,0,0,1-1.93,1.35,13,13,0,0,1-3.47,1.11,9.51,9.51,0,0,1-1.93.21c-.67,0-1.34,0-2,0s-1.27-.32-1.94-.19c-.88-.43-1.88-.47-2.78-.93a7.41,7.41,0,0,1-2.48-1.62,3,3,0,0,1-.82-2.06c0-1.56,0-3.13,0-4.69a11.12,11.12,0,0,1,.13-1.16l-13.73,2.72v.16a2.35,2.35,0,0,0,.54.29,5.21,5.21,0,0,1,2.55,1.68,2.91,2.91,0,0,1,.75,2c0,1.56,0,3.13,0,4.69a3.09,3.09,0,0,1-1,2.3,7.77,7.77,0,0,1-1.8,1.23,13.94,13.94,0,0,1-4.9,1.32,10.78,10.78,0,0,1-2.2,0c-.75,0-1.48-.13-2.22-.19h-.1c-.85-.45-1.89-.33-2.67-.95-.55.07-.85-.42-1.3-.58a3.13,3.13,0,0,1-1.21-1,3,3,0,0,1-.86-2.14c0-1.37,0-2.75,0-4.12a3.22,3.22,0,0,1,.25-1.76l-11.29,2.34,14.89,14.88c.39-.07.84-.12,1.28-.24.69-.19,1.39-.36,2.09-.48a11.14,11.14,0,0,1,2.42-.41c.29-.36.76,0,1-.26s.67,0,1-.18a4,4,0,0,1,1-.32,5,5,0,0,0,1.44-.23c.46-.25,1,0,1.39-.35.9-.09,1.76-.37,2.64-.54,1.33-.27,2.66-.56,4-.78,1.08-.18,2.13-.45,3.2-.65s2-.44,3.06-.67a19.28,19.28,0,0,1,3.39-.62c.33-.33.77-.12,1.14-.25a21.46,21.46,0,0,1,3.16-.69,9.25,9.25,0,0,1,2.33-.4c.34-.3.8-.24,1.19-.37s.95,0,1.34-.23.79-.1,1.16-.21a7.78,7.78,0,0,1,1.59-.35,5.28,5.28,0,0,0,1.44-.21,18,18,0,0,1,3.05-.71,10,10,0,0,1,2.42-.41,14.6,14.6,0,0,1,3-.74c1.19-.29,2.41-.51,3.61-.76s2.32-.44,3.49-.62c.42-.06.84-.14,1.25-.23s.93-.22,1.38-.35,1-.22,1.49-.32a9.63,9.63,0,0,1,1.44-.26,6.68,6.68,0,0,0,1.25-.22c.46-.11.93-.22,1.38-.35s1-.22,1.49-.32a9.63,9.63,0,0,1,1.44-.26,4.31,4.31,0,0,0,1.25-.22,24.61,24.61,0,0,1,3.06-.69,9.81,9.81,0,0,1,2.42-.41,12.84,12.84,0,0,1,3-.73c1-.22,2.07-.43,3.11-.62.69-.13,1.36-.3,2-.46l-14.86-14.86-1.6.26v.25a8.13,8.13,0,0,1,1.75.81,4.79,4.79,0,0,1,1.58,1.49,2.32,2.32,0,0,1,.49,1.24c0,1.82,0,3.64,0,5.46a2.51,2.51,0,0,1-.68,1.63,7.53,7.53,0,0,1-2.47,1.7,15.61,15.61,0,0,1-8.08,1c-.89-.16-1.76-.36-2.64-.58a7.71,7.71,0,0,1-2.65-1.21,3.43,3.43,0,0,1-1.69-3c.05-1.31,0-2.62,0-3.93a3.7,3.7,0,0,1,.21-1.78C319.77,370,315.22,371,310.58,371.85Zm-54,11.65v27.17l14.88,14.89V398.38ZM325,369.13a1,1,0,0,1,0,.25,2,2,0,0,0,.28,2,4,4,0,0,0,1.47,1.3,14.6,14.6,0,0,0,2.47,1,15.41,15.41,0,0,0,2.74.53,10.1,10.1,0,0,0,2.2,0c.71,0,1.41-.12,2.12-.19a.48.48,0,0,0,.17-.05c.76-.27,1.55-.39,2.29-.71a6.76,6.76,0,0,0,2.5-1.59,2.21,2.21,0,0,0,.6-1.93,2.84,2.84,0,0,0-1.12-1.73,6.42,6.42,0,0,0-2.13-1.09,3.59,3.59,0,0,1-1.17-.39c-.39-.24-.81-.18-1.21-.34s-.86.08-1.25-.22h-3.25c-.39.35-.89.11-1.33.26s-.89.17-1.3.33a12.9,12.9,0,0,0-2.36,1C326,368,325.6,368.64,325,369.13Zm-28,5.78c0,.12,0,.24,0,.31-.41.68-.08,1.25.23,1.86A3.87,3.87,0,0,0,299,378.6a14.42,14.42,0,0,0,2.4.9A15.19,15.19,0,0,0,304,380a10.67,10.67,0,0,0,2.19,0c.71,0,1.42-.12,2.13-.19a.64.64,0,0,0,.17-.05c.75-.27,1.55-.38,2.29-.71a6.81,6.81,0,0,0,2.49-1.59,2.18,2.18,0,0,0,.6-1.93,2.85,2.85,0,0,0-1.11-1.73,6.52,6.52,0,0,0-2.13-1.09c-.41-.09-.79-.24-1.19-.37a8.47,8.47,0,0,0-1.18-.37c-.42-.08-.87.09-1.26-.21H303.7c-.39.35-.9.11-1.33.26s-.89.17-1.3.33a12.24,12.24,0,0,0-2.36,1A18.59,18.59,0,0,0,297,374.91Zm-28,5.75a.8.8,0,0,1,0,.22,2,2,0,0,0,.29,2,3.9,3.9,0,0,0,1.47,1.3,14,14,0,0,0,2.46,1,15.52,15.52,0,0,0,2.75.53,10,10,0,0,0,2.19,0c.71,0,1.42-.12,2.13-.19a.64.64,0,0,0,.17-.05c.75-.27,1.55-.39,2.29-.71a7.25,7.25,0,0,0,2.5-1.59,2.86,2.86,0,0,0,.61-1.47,2.17,2.17,0,0,0-.44-1.34,4.81,4.81,0,0,0-2.74-1.92,11.64,11.64,0,0,0-1.18-.39,9.38,9.38,0,0,0-1.28-.37c-.42-.08-.87.09-1.26-.21h-3.25c-.39.35-.89.11-1.33.26s-.89.17-1.3.33a12.28,12.28,0,0,0-2.36,1A18.36,18.36,0,0,0,269,380.66Zm55.78-8.88c0,1.3,0,2.41,0,3.51a2,2,0,0,0,.26.85,4,4,0,0,0,1.72,1.57,22.42,22.42,0,0,0,2.46,1,13.79,13.79,0,0,0,2.65.52,10.12,10.12,0,0,0,2.58,0,20.35,20.35,0,0,0,2.43-.36,12.45,12.45,0,0,0,3.74-1.59,2.67,2.67,0,0,0,1.18-1.79c.09-1.16,0-2.34,0-3.66a7.87,7.87,0,0,1-2.75,2,6.7,6.7,0,0,1-1.44.44,5.85,5.85,0,0,1-1.47.36c-.53,0-1,.22-1.54.2a10.53,10.53,0,0,1-3.36-.17,6.59,6.59,0,0,1-2.33-.39,8.19,8.19,0,0,1-2.22-.86A5.07,5.07,0,0,1,324.78,371.78Zm-11,5.8a5.22,5.22,0,0,1-1.91,1.55,11,11,0,0,1-2.58.93,14.33,14.33,0,0,1-2.94.49,16,16,0,0,1-5.32-.53,11.49,11.49,0,0,1-2.24-.83,4.86,4.86,0,0,1-2-1.51c-.07,1.17-.08,2.3-.06,3.44a1.47,1.47,0,0,0,.26.75,4.24,4.24,0,0,0,1.7,1.6c.81.39,1.65.64,2.47,1a15.32,15.32,0,0,0,2.65.52,9.5,9.5,0,0,0,2.2,0c.74,0,1.47-.12,2.21-.18,0,0,.08,0,.1,0,.34-.29.8-.2,1.18-.37s.88-.2,1.27-.4a7,7,0,0,0,2.33-1.52,11.19,11.19,0,0,0,.65-1Zm-45,5.88c0,1.14,0,2.27,0,3.41a1.52,1.52,0,0,0,.25.75,4.26,4.26,0,0,0,1.71,1.6c.8.39,1.65.64,2.47,1a16.33,16.33,0,0,0,2.65.52,9.42,9.42,0,0,0,2.19,0c.74,0,1.48-.12,2.22-.18,0,0,.07,0,.09,0,.34-.29.8-.2,1.19-.37s.88-.2,1.26-.4a7.27,7.27,0,0,0,2.34-1.52c.26-.33.45-.7.68-1.05v-3.64s0-.05-.18-.21a1.53,1.53,0,0,1-.16.34,6.75,6.75,0,0,1-2.39,1.6,10.12,10.12,0,0,1-2.13.65,20,20,0,0,1-2.32.38,11,11,0,0,1-1.72,0,3.06,3.06,0,0,1-1.64-.18,6,6,0,0,1-2.33-.4,7.77,7.77,0,0,1-2.15-.78A6.61,6.61,0,0,1,268.81,383.46Z" transform="translate(-256 -365.21)"/><path class="cls-1" d="M272.09,426.23V398.42c.52-.14,1-.29,1.56-.4s.78-.14,1.17-.2a3.75,3.75,0,0,0,1.24-.22c.36-.22.83,0,1.1-.36a9.18,9.18,0,0,0,2.33-.4,20,20,0,0,0,3.16-.69c.37-.14.82.08,1.15-.25a20.62,20.62,0,0,0,3.39-.62c1-.22,2-.5,3.05-.67s2.18-.54,3.3-.65c.65-.07,1.29-.27,1.95-.38a14.12,14.12,0,0,0,1.85-.39c1-.32,2.05-.37,3.05-.72a9.68,9.68,0,0,1,1.54-.21c1-.2,2.06-.43,3.09-.65a8.52,8.52,0,0,1,1.21-.29c.58,0,1.13-.24,1.7-.32a9.18,9.18,0,0,0,1.69-.31c1-.32,2.05-.46,3.06-.69.79-.18,1.61-.31,2.41-.46a12,12,0,0,0,2.09-.5c.36-.13.77,0,1.16-.21a4.26,4.26,0,0,1,1.15-.21,4,4,0,0,0,1.22-.29c.37-.21.84.11,1.13-.29a10.56,10.56,0,0,0,2.43-.41,9,9,0,0,0,2.09-.48,5.05,5.05,0,0,1,1.24-.25,2.13,2.13,0,0,0,1-.18c.23-.15.58.06.89-.17s.63-.05,1-.18a5,5,0,0,1,1.25-.23c.76-.06,1.45-.38,2.22-.45a11.45,11.45,0,0,0,1.58-.34,26.51,26.51,0,0,0,3.15-.71,8.5,8.5,0,0,1,1.16-.2,13.15,13.15,0,0,1,1.68-.34,10.22,10.22,0,0,0,1.7-.31c1-.34,2.05-.4,3.06-.69a13.1,13.1,0,0,1,1.7-.31,13.41,13.41,0,0,0,1.58-.34c1.07-.31,2.17-.45,3.25-.69a8.93,8.93,0,0,1,2.41-.45c.06,0,.12-.1.23-.19V408.9c-.44.13-.92.3-1.4.41s-.92,0-1.25.23-.84,0-1.23.3-.75.12-1.14.21c-1.17.29-2.35.49-3.52.76-.78.18-1.62.29-2.41.46a16.93,16.93,0,0,0-3.06.69,10.79,10.79,0,0,1-1.16.19,12.23,12.23,0,0,1-1.68.35,9.14,9.14,0,0,0-1.7.31c-1,.33-2.05.45-3.06.68-.79.19-1.61.32-2.41.47a12,12,0,0,0-2.09.5c-.36.13-.76.05-1.16.2a10.77,10.77,0,0,1-1.54.23,14.88,14.88,0,0,0-1.92.43c-.44.16-.89.13-1.32.28a8.35,8.35,0,0,1-1.68.35,9.29,9.29,0,0,0-1.7.31c-1,.33-2,.45-3.05.68-.79.18-1.62.31-2.42.47a12.84,12.84,0,0,0-2.08.5,10.38,10.38,0,0,1-1.16.2c-1.17.27-2.35.48-3.52.75-.78.18-1.62.28-2.41.46a18.81,18.81,0,0,0-3.06.69,8.24,8.24,0,0,1-1.16.2c-.55.13-1.11.27-1.68.35a15.46,15.46,0,0,0-1.7.29c-.94.24-1.91.34-2.83.57a28.94,28.94,0,0,0-4,.93,9.82,9.82,0,0,0-2.42.42,17.85,17.85,0,0,0-3.06.7c-.36.14-.77,0-1.16.2a4.34,4.34,0,0,1-1.16.22c-.36.06-.71.14-1.07.19a10.82,10.82,0,0,0-1.16.23c-.61.14-1.22.28-1.84.4s-1.2.2-1.77.36a29.29,29.29,0,0,0-3.05.71,6.76,6.76,0,0,1-1.45.22A5.32,5.32,0,0,0,272.09,426.23Z" transform="translate(-256 -365.21)"/><path class="cls-1" d="M310.58,371.85c4.64-.84,9.19-1.83,13.83-2.71a3.7,3.7,0,0,0-.21,1.78c0,1.31,0,2.62,0,3.93a3.43,3.43,0,0,0,1.69,3,7.71,7.71,0,0,0,2.65,1.21c.88.22,1.75.42,2.64.58a15.61,15.61,0,0,0,8.08-1,7.53,7.53,0,0,0,2.47-1.7,2.51,2.51,0,0,0,.68-1.63c0-1.82,0-3.64,0-5.46a2.32,2.32,0,0,0-.49-1.24,4.79,4.79,0,0,0-1.58-1.49,8.13,8.13,0,0,0-1.75-.81v-.25l1.6-.26L355,380.68c-.68.16-1.35.33-2,.46-1,.19-2.08.4-3.11.62a12.84,12.84,0,0,0-3,.73,9.81,9.81,0,0,0-2.42.41,24.61,24.61,0,0,0-3.06.69,4.31,4.31,0,0,1-1.25.22,9.63,9.63,0,0,0-1.44.26c-.49.1-1,.18-1.49.32s-.92.24-1.38.35a6.68,6.68,0,0,1-1.25.22,9.63,9.63,0,0,0-1.44.26c-.49.1-1,.18-1.49.32s-.92.24-1.38.35-.83.17-1.25.23c-1.17.18-2.34.38-3.49.62s-2.42.47-3.61.76a14.6,14.6,0,0,0-3,.74,10,10,0,0,0-2.42.41,18,18,0,0,0-3.05.71,5.28,5.28,0,0,1-1.44.21,7.78,7.78,0,0,0-1.59.35c-.37.11-.77,0-1.16.21s-.91.09-1.34.23-.85.07-1.19.37a9.25,9.25,0,0,0-2.33.4,21.46,21.46,0,0,0-3.16.69c-.37.13-.81-.08-1.14.25a19.28,19.28,0,0,0-3.39.62c-1,.23-2,.49-3.06.67s-2.12.47-3.2.65c-1.33.22-2.66.51-4,.78-.88.17-1.74.45-2.64.54-.39.39-.93.1-1.39.35a5,5,0,0,1-1.44.23,4,4,0,0,0-1,.32c-.32.16-.67-.09-1,.18s-.75-.1-1,.26a11.14,11.14,0,0,0-2.42.41c-.7.12-1.4.29-2.09.48-.44.12-.89.17-1.28.24L257.2,382.92l11.29-2.34a3.22,3.22,0,0,0-.25,1.76c0,1.37,0,2.75,0,4.12a3,3,0,0,0,.86,2.14,3.13,3.13,0,0,0,1.21,1c.45.16.75.65,1.3.58.78.62,1.82.5,2.67.95h.1c.74.06,1.47.15,2.22.19a10.78,10.78,0,0,0,2.2,0,13.94,13.94,0,0,0,4.9-1.32,7.77,7.77,0,0,0,1.8-1.23,3.09,3.09,0,0,0,1-2.3c0-1.56,0-3.13,0-4.69a2.91,2.91,0,0,0-.75-2,5.21,5.21,0,0,0-2.55-1.68,2.35,2.35,0,0,1-.54-.29v-.16l13.73-2.72a11.12,11.12,0,0,0-.13,1.16c0,1.56,0,3.13,0,4.69a3,3,0,0,0,.82,2.06,7.41,7.41,0,0,0,2.48,1.62c.9.46,1.9.5,2.78.93.67-.13,1.28.2,1.94.19s1.34,0,2,0a9.51,9.51,0,0,0,1.93-.21,13,13,0,0,0,3.47-1.11,8.28,8.28,0,0,0,1.93-1.35,2.85,2.85,0,0,0,.86-2.05c0-1.59,0-3.19,0-4.79a2.91,2.91,0,0,0-.65-1.93,5.94,5.94,0,0,0-2.6-1.8C311,372.23,310.6,372.28,310.58,371.85Z" transform="translate(-256 -365.21)"/><path class="cls-1" d="M256.58,383.5l14.88,14.88v27.18l-14.88-14.89Z" transform="translate(-256 -365.21)"/><path class="cls-1" d="M325,369.13c.63-.49,1.06-1.11,1.72-1.53a12.9,12.9,0,0,1,2.36-1c.41-.16.88-.18,1.3-.33s.94.09,1.33-.26h3.25c.39.3.88.07,1.25.22s.82.1,1.21.34a3.59,3.59,0,0,0,1.17.39,6.42,6.42,0,0,1,2.13,1.09,2.84,2.84,0,0,1,1.12,1.73,2.21,2.21,0,0,1-.6,1.93,6.76,6.76,0,0,1-2.5,1.59c-.74.32-1.53.44-2.29.71a.48.48,0,0,1-.17.05c-.71.07-1.41.16-2.12.19a10.1,10.1,0,0,1-2.2,0,15.41,15.41,0,0,1-2.74-.53,14.6,14.6,0,0,1-2.47-1,4,4,0,0,1-1.47-1.3,2,2,0,0,1-.28-2A1,1,0,0,0,325,369.13Z" transform="translate(-256 -365.21)"/><path class="cls-1" d="M297,374.91a18.59,18.59,0,0,1,1.73-1.56,12.24,12.24,0,0,1,2.36-1c.41-.16.88-.18,1.3-.33s.94.09,1.33-.26H307c.39.3.84.13,1.26.21a8.47,8.47,0,0,1,1.18.37c.4.13.78.28,1.19.37a6.52,6.52,0,0,1,2.13,1.09,2.85,2.85,0,0,1,1.11,1.73,2.18,2.18,0,0,1-.6,1.93,6.81,6.81,0,0,1-2.49,1.59c-.74.33-1.54.44-2.29.71a.64.64,0,0,1-.17.05c-.71.07-1.42.16-2.13.19a10.67,10.67,0,0,1-2.19,0,15.19,15.19,0,0,1-2.58-.47,14.42,14.42,0,0,1-2.4-.9,3.87,3.87,0,0,1-1.76-1.52c-.31-.61-.64-1.18-.23-1.86C297,375.15,297,375,297,374.91Z" transform="translate(-256 -365.21)"/><path class="cls-1" d="M269,380.66a18.36,18.36,0,0,1,1.72-1.55,12.28,12.28,0,0,1,2.36-1c.41-.16.88-.18,1.3-.33s.94.09,1.33-.26H279c.39.3.84.13,1.26.21a9.38,9.38,0,0,1,1.28.37,11.64,11.64,0,0,1,1.18.39,4.81,4.81,0,0,1,2.74,1.92,2.17,2.17,0,0,1,.44,1.34,2.86,2.86,0,0,1-.61,1.47,7.25,7.25,0,0,1-2.5,1.59c-.74.32-1.54.44-2.29.71a.64.64,0,0,1-.17.05c-.71.07-1.42.16-2.13.19a10,10,0,0,1-2.19,0,15.52,15.52,0,0,1-2.75-.53,14,14,0,0,1-2.46-1,3.9,3.9,0,0,1-1.47-1.3,2,2,0,0,1-.29-2A.8.8,0,0,0,269,380.66Z" transform="translate(-256 -365.21)"/><path class="cls-1" d="M324.78,371.78a5.07,5.07,0,0,0,2,1.6,8.19,8.19,0,0,0,2.22.86,6.59,6.59,0,0,0,2.33.39,10.53,10.53,0,0,0,3.36.17c.51,0,1-.18,1.54-.2a5.85,5.85,0,0,0,1.47-.36,6.7,6.7,0,0,0,1.44-.44,7.87,7.87,0,0,0,2.75-2c0,1.32.06,2.5,0,3.66a2.67,2.67,0,0,1-1.18,1.79,12.45,12.45,0,0,1-3.74,1.59,20.35,20.35,0,0,1-2.43.36,10.12,10.12,0,0,1-2.58,0,13.79,13.79,0,0,1-2.65-.52,22.42,22.42,0,0,1-2.46-1,4,4,0,0,1-1.72-1.57,2,2,0,0,1-.26-.85C324.76,374.19,324.78,373.08,324.78,371.78Z" transform="translate(-256 -365.21)"/><path class="cls-1" d="M313.82,377.58v3.91a11.19,11.19,0,0,1-.65,1,7,7,0,0,1-2.33,1.52c-.39.2-.86.23-1.27.4s-.84.08-1.18.37c0,0-.07,0-.1,0-.74.06-1.47.15-2.21.18a9.5,9.5,0,0,1-2.2,0,15.32,15.32,0,0,1-2.65-.52c-.82-.32-1.66-.57-2.47-1a4.24,4.24,0,0,1-1.7-1.6,1.47,1.47,0,0,1-.26-.75c0-1.14,0-2.27.06-3.44a4.86,4.86,0,0,0,2,1.51,11.49,11.49,0,0,0,2.24.83,16,16,0,0,0,5.32.53,14.33,14.33,0,0,0,2.94-.49,11,11,0,0,0,2.58-.93A5.22,5.22,0,0,0,313.82,377.58Z" transform="translate(-256 -365.21)"/><path class="cls-1" d="M268.81,383.46a6.61,6.61,0,0,0,2,1.49,7.77,7.77,0,0,0,2.15.78,6,6,0,0,0,2.33.4,3.06,3.06,0,0,0,1.64.18,11,11,0,0,0,1.72,0,20,20,0,0,0,2.32-.38,10.12,10.12,0,0,0,2.13-.65,6.75,6.75,0,0,0,2.39-1.6,1.53,1.53,0,0,0,.16-.34c.14.16.18.18.18.21v3.64c-.23.35-.42.72-.68,1.05a7.27,7.27,0,0,1-2.34,1.52c-.38.2-.85.23-1.26.4s-.85.08-1.19.37c0,0-.06,0-.09,0-.74.06-1.48.15-2.22.18a9.42,9.42,0,0,1-2.19,0,16.33,16.33,0,0,1-2.65-.52c-.82-.32-1.67-.57-2.47-1a4.26,4.26,0,0,1-1.71-1.6,1.52,1.52,0,0,1-.25-.75C268.79,385.73,268.81,384.6,268.81,383.46Z" transform="translate(-256 -365.21)"/></svg>