<svg id="Layer_1" data-name="Layer 1" xmlns="http://www.w3.org/2000/svg" viewBox="0 0 100 48.92"><defs><style>.cls-1{fill:#fff;}</style></defs><path d="M263.65,436.86l-12.18-11.35v-20.7a2.35,2.35,0,0,1,.7-.27,14.89,14.89,0,0,0,2.5-.46,14.68,14.68,0,0,0,2.54-.52,7.48,7.48,0,0,0,1.81-.32,9,9,0,0,0,1.84-.38,1.77,1.77,0,0,1,.57,0,4.67,4.67,0,0,1,1.59-1.2,7,7,0,0,1,1.68-.59c.59-.13,1.22-.21,1.81-.33a19,19,0,0,1,2.71-.1,3.35,3.35,0,0,1,.69.13,2.36,2.36,0,0,1,.63.1,1.12,1.12,0,0,0,.86,0c.34-.2.7-.07,1-.23a5,5,0,0,1,1.2-.17,4,4,0,0,0,1-.19c.32-.14.65,0,1-.2s.65-.07,1-.17a16.31,16.31,0,0,0,1.84-.41,15,15,0,0,0,2.58-.45,8.36,8.36,0,0,0,1.84-.38,1.67,1.67,0,0,1,.51,0,4.49,4.49,0,0,1,1.58-1.19,8.85,8.85,0,0,1,1.75-.61c.59-.14,1.21-.22,1.81-.32a10.52,10.52,0,0,1,1.37-.1,4.43,4.43,0,0,1,1.41,0c.41.13.88,0,1.23.25.33-.06.66.08,1-.11s.59-.06.9-.15a11.93,11.93,0,0,1,1.2-.16c.73-.17,1.48-.28,2.21-.44a6.83,6.83,0,0,0,.68-.13c.23-.07.48-.08.69-.14a14.77,14.77,0,0,1,1.85-.37c.86-.14,1.7-.38,2.57-.47.53-.06,1.05-.24,1.63-.28a4.5,4.5,0,0,1,1.6-1.21,5.93,5.93,0,0,1,1.61-.57,13.88,13.88,0,0,1,3.85-.43c.36,0,.73-.1,1.09.1s.68-.09,1,.18c.33-.07.67.09,1-.1s.59-.05.9-.16a11.18,11.18,0,0,1,1.2-.17c.75-.16,1.53-.25,2.27-.45.33-.1.69,0,1-.22a2.88,2.88,0,0,1,.9-.15c.28-.05.56-.11.84-.14s.58-.23.91-.14a20.74,20.74,0,0,1,2.82-.58,4.69,4.69,0,0,1,.86-.12,4.53,4.53,0,0,1,1.61-1.22,10.43,10.43,0,0,1,1.68-.59c.7-.21,1.43-.24,2.14-.4a4.82,4.82,0,0,1,1.42,0c.45,0,.94-.18,1.36.13a8,8,0,0,1,1.21.13,5.6,5.6,0,0,0,1.35-.16,5.44,5.44,0,0,1,1.59-.25l12.09,11.26v20.87c-.66.21-1.36.29-2,.45s-1.21.21-1.81.32a17.18,17.18,0,0,0-2.47.51c-.29.1-.6,0-.9.16a3.2,3.2,0,0,1-.9.16,3.41,3.41,0,0,0-1,.15c-.28.14-.63,0-.86.26a8,8,0,0,0-1.82.29,19,19,0,0,0-2.47.51c-.29.09-.63-.06-.89.18a16.86,16.86,0,0,0-2.65.45c-.79.17-1.59.34-2.39.49s-1.34.27-2,.34a5.53,5.53,0,0,0-1.64.35,5,5,0,0,1-.9.15,11.22,11.22,0,0,1-1.31.25,8,8,0,0,0-1.33.23,19.47,19.47,0,0,1-2.39.49c-.83.14-1.65.38-2.5.48a8.51,8.51,0,0,0-1.3.25,6.68,6.68,0,0,1-1.23.24c-.62.05-1.19.28-1.81.34a8.55,8.55,0,0,0-1.3.26,6.68,6.68,0,0,1-1.23.24c-.63.05-1.19.28-1.81.34a7.3,7.3,0,0,0-1.3.26,5.62,5.62,0,0,0-1.23.27,8.66,8.66,0,0,0-1.82.31,8.51,8.51,0,0,0-1.3.25,5,5,0,0,0-1.22.28,8.65,8.65,0,0,0-1.82.3,7.3,7.3,0,0,0-1.3.26,4.68,4.68,0,0,0-1.23.28,8,8,0,0,0-1.82.3,6.65,6.65,0,0,0-1.3.26c-.4.11-.82.12-1.23.25s-.7,0-1.06.15-.72,0-1,.17-.66,0-1,.22-.59.09-.9.16c-.65.16-1.32.28-2,.41s-1.27.2-1.89.33a21,21,0,0,0-3.36.67,7.94,7.94,0,0,0-1.89.31,14.7,14.7,0,0,0-2.39.5,6.4,6.4,0,0,1-.91.15c-.91.2-1.83.35-2.75.55-.61.13-1.26.2-1.88.33a13.71,13.71,0,0,0-2.39.5,6.41,6.41,0,0,1-.91.14,11.24,11.24,0,0,1-1.31.26,7.1,7.1,0,0,0-1.33.22c-.76.23-1.55.33-2.32.49A8.67,8.67,0,0,1,263.65,436.86ZM351,419.69v-20.2c-.09.07-.14.14-.19.14-.65,0-1.23.34-1.89.3-.81.3-1.69.3-2.53.53a11.82,11.82,0,0,1-1.24.25,11.53,11.53,0,0,0-1.33.22c-.78.21-1.6.26-2.38.5a8,8,0,0,1-1.33.23,9.47,9.47,0,0,0-1.31.25,6.41,6.41,0,0,0-.91.14,22.88,22.88,0,0,1-2.46.52,9.2,9.2,0,0,1-1.23.24c-.6.06-1.15.29-1.74.33a3.71,3.71,0,0,0-1,.17c-.27.09-.57,0-.76.13s-.51,0-.7.12-.52.07-.76.14-.66.08-1,.18a23.44,23.44,0,0,1-2.47.49,8,8,0,0,1-1.82.29,4.54,4.54,0,0,1-1.55.39,9.29,9.29,0,0,1-1.59.29,8.65,8.65,0,0,1-1.82.3,5,5,0,0,1-1.22.28,7.28,7.28,0,0,1-1.3.25,8.06,8.06,0,0,1-1.82.31,5.12,5.12,0,0,1-1.22.27,7.48,7.48,0,0,1-1.3.26,8,8,0,0,1-1.82.3,9.61,9.61,0,0,1-2.07.41,7.36,7.36,0,0,1-1.81.29c-.27.22-.63.17-.93.26s-.74,0-1.05.18a7.5,7.5,0,0,1-.91.15,4.88,4.88,0,0,1-1.31.24c-.36,0-.68.24-1.06.15a5,5,0,0,1-1.54.38c-.52.13-1.06.19-1.59.31s-.85.11-1.26.2-.88.16-1.31.26c-.61.15-1.24.26-1.85.36s-1.16.24-1.73.34-1.09.27-1.63.35a7,7,0,0,1-1.82.31c-.23.3-.63.05-.94.25a3.71,3.71,0,0,1-1,.17c-.38.07-.79.06-1.13.16-.54.16-1.11.16-1.63.37a3.86,3.86,0,0,1-1,.16,3.37,3.37,0,0,0-1,.19c-.32.16-.7-.06-.95.23a18.56,18.56,0,0,0-2.58.45c-.79.13-1.59.33-2.38.49a18.24,18.24,0,0,1-2.66.45c-.25.24-.6.08-.89.18a18.65,18.65,0,0,1-2.47.51,8.54,8.54,0,0,1-1.81.29c-.22.26-.58.09-.87.25a2.7,2.7,0,0,1-1,.16c-.3.05-.61.08-.91.15s-.81.19-1.2.28c-.11,2.22-.07,19.6.06,20.24.11-.07.2-.17.3-.17a13.92,13.92,0,0,0,2.14-.4,8.93,8.93,0,0,1,.9-.17c.29,0,.56-.09.84-.14a3.68,3.68,0,0,0,.9-.15c.31-.14.63-.06.91-.15a19.47,19.47,0,0,1,2.61-.53c.32-.07.67-.09,1-.18a15.8,15.8,0,0,1,1.63-.35c.63-.12,1.27-.21,1.89-.34.79-.17,1.6-.26,2.38-.5a8,8,0,0,1,1.33-.22c.45-.05.88-.17,1.32-.25a4.24,4.24,0,0,0,.83-.13,15.46,15.46,0,0,1,2.61-.52c.62-.12,1.27-.2,1.89-.33.91-.2,1.83-.35,2.74-.55a3,3,0,0,0,.9-.15c.31-.2.65,0,1-.22s.66-.07,1-.18.75,0,1.06-.15a10,10,0,0,1,1.78-.36,6.19,6.19,0,0,1,1.81-.31c.21-.29.59,0,.81-.2s.6,0,.9-.2a1.89,1.89,0,0,1,.82-.13,9.36,9.36,0,0,1,1.82-.31c.21-.28.58,0,.81-.19s.59,0,.89-.2a1.91,1.91,0,0,1,.82-.14,8.65,8.65,0,0,1,1.82-.3c.21-.32.6,0,.88-.23s.53-.05.82-.16a3.13,3.13,0,0,1,.9-.16c.6,0,1.13-.37,1.74-.29.21-.29.58,0,.81-.2s.6,0,.9-.2a2.08,2.08,0,0,1,.82-.13,9.36,9.36,0,0,1,1.82-.31c.21-.28.58,0,.81-.19s.59,0,.89-.2a2.07,2.07,0,0,1,.82-.14,8.65,8.65,0,0,1,1.82-.3c.37-.23.82-.15,1.22-.28a6.65,6.65,0,0,1,1.3-.26,8.14,8.14,0,0,1,1.82-.3c.27-.28.68-.07,1-.26a3.72,3.72,0,0,1,1-.16c.18,0,.36-.1.54-.13s.37-.06.55-.11c.49-.13,1-.2,1.51-.31a8.91,8.91,0,0,0,1.2-.16c.31-.12.62-.06.91-.15a10.12,10.12,0,0,1,1.63-.37c.62-.1,1.27-.2,1.88-.33.79-.17,1.6-.27,2.39-.5a9.32,9.32,0,0,1,1.32-.23,9.33,9.33,0,0,0,1.32-.25,8.46,8.46,0,0,0,.9-.14,14.84,14.84,0,0,1,2.47-.51,8,8,0,0,1,1.82-.29c.22-.25.61-.06.85-.28.35.1.64-.14,1-.15a4.64,4.64,0,0,0,.91-.13c.32-.06.64-.16,1-.21.55-.1,1.09-.26,1.64-.34A9,9,0,0,0,351,419.69ZM252.49,405l11.62,10.81a4.48,4.48,0,0,0,.91-.14,11.59,11.59,0,0,1,1.63-.36c.62-.11,1.27-.2,1.88-.33.79-.18,1.61-.26,2.39-.5a8,8,0,0,1,1.33-.23,9.47,9.47,0,0,0,1.31-.25,6.64,6.64,0,0,0,.91-.14,13.71,13.71,0,0,1,2.39-.5l1.88-.34c.66-.13,1.33-.24,2-.4a8.44,8.44,0,0,0,.9-.15,10.33,10.33,0,0,1,1.63-.36c.63-.11,1.27-.21,1.88-.34a24.13,24.13,0,0,0,2.39-.5,8,8,0,0,1,1.33-.22,11.22,11.22,0,0,0,1.31-.25,8.26,8.26,0,0,0,.91-.14,14.72,14.72,0,0,1,2.39-.51c.62-.13,1.27-.2,1.88-.33.92-.19,1.84-.35,2.75-.55.31-.06.67,0,.89-.15s.66,0,1-.22.66-.07,1-.18.74,0,1.06-.14a9.3,9.3,0,0,1,1.77-.37,6.26,6.26,0,0,1,1.82-.31c.21-.29.58,0,.81-.2s.6,0,.89-.2a1.94,1.94,0,0,1,.82-.13,9.63,9.63,0,0,1,1.82-.31c.21-.28.58,0,.81-.19s.6,0,.9-.2a1.91,1.91,0,0,1,.82-.14,8.65,8.65,0,0,1,1.82-.3c.26-.3.68-.06,1-.26s.71-.07,1-.17.74,0,1.06-.15a9.83,9.83,0,0,0,1.62-.4c.9,0,1.75-.38,2.65-.42.26-.23.61-.07.9-.17a15.8,15.8,0,0,1,2.46-.51,8.12,8.12,0,0,1,1.82-.29c.49-.31,1.11-.17,1.61-.42.71,0,1.35-.29,2.05-.28.26-.23.61-.08.89-.18a17.43,17.43,0,0,1,2.47-.5,8,8,0,0,1,1.82-.29c.22-.27.58-.11.86-.26a3,3,0,0,1,1-.16,3.13,3.13,0,0,0,.9-.16c.31-.16.62-.06.91-.15a11.62,11.62,0,0,1,1.63-.37c.63-.11,1.27-.2,1.89-.33.79-.17,1.6-.26,2.38-.51a11.26,11.26,0,0,1,1.45-.27c.51-.09,1-.23,1.52-.28.87-.08,1.68-.44,2.51-.46L339,388.37l-1.2.19c0,.33.33.29.48.34a4.61,4.61,0,0,1,2,1.31,2.06,2.06,0,0,1,.51,1.41c0,1.16,0,2.32,0,3.48a1.92,1.92,0,0,1-.62,1.44,6.3,6.3,0,0,1-1.56,1,10.84,10.84,0,0,1-2.71.81,8.31,8.31,0,0,1-1.51.15c-.52,0-1.05,0-1.57,0a9.53,9.53,0,0,0-1.51-.14c-.69-.31-1.47-.34-2.17-.67a5.77,5.77,0,0,1-1.94-1.18,2.08,2.08,0,0,1-.64-1.5c0-1.14,0-2.27,0-3.41a6.15,6.15,0,0,1,.1-.85l-10.73,2v.11a3.29,3.29,0,0,0,.42.21,4.53,4.53,0,0,1,2,1.22,2.17,2.17,0,0,1,.59,1.45c0,1.14,0,2.27,0,3.41a2.12,2.12,0,0,1-.74,1.67,5.76,5.76,0,0,1-1.65,1,10.85,10.85,0,0,1-1.7.54,17.28,17.28,0,0,1-1.89.3,9.87,9.87,0,0,1-1.72,0c-.58,0-1.15-.09-1.73-.14h-.08c-.69-.31-1.46-.36-2.17-.67a5.71,5.71,0,0,1-2-1.25,2,2,0,0,1-.57-1.45c0-1,0-2.05,0-3.07,0-.39.05-.79.08-1.16l-10.76,2c.06.07.11.16.18.17a5.72,5.72,0,0,1,1.31.59,3.39,3.39,0,0,1,1.12,1,1.8,1.8,0,0,1,.42.95c0,1.33,0,2.65,0,4a1.84,1.84,0,0,1-.54,1.18,6.85,6.85,0,0,1-2,1.31,6.62,6.62,0,0,1-1.2.33,4.4,4.4,0,0,1-1.15.25c-.45,0-.85.2-1.29.17-.85-.07-1.7,0-2.56-.12a15.2,15.2,0,0,1-2.13-.45,7.29,7.29,0,0,1-1.59-.65,5.13,5.13,0,0,1-1.12-.82,1.84,1.84,0,0,1-.59-1.16c0-.51,0-1,0-1.53s0-1.07,0-1.6a3.13,3.13,0,0,1,.14-1.43c-3.62.64-7.19,1.36-10.94,2a3.57,3.57,0,0,0,.64.31,4.29,4.29,0,0,1,2,1.31,2,2,0,0,1,.51,1.41c0,1.14,0,2.27,0,3.41a2.07,2.07,0,0,1-.67,1.56,6.08,6.08,0,0,1-1.52,1,4.25,4.25,0,0,1-1.78.54c-.22.25-.58.11-.86.26a2.38,2.38,0,0,1-.86.08c-.31,0-.63.07-.94.07a15.62,15.62,0,0,1-2.26-.11,17.19,17.19,0,0,1-1.92-.4,9.21,9.21,0,0,1-1.78-.72,3.69,3.69,0,0,1-1.1-.87,2.09,2.09,0,0,1-.55-1.46c.05-.81,0-1.63,0-2.44a4.85,4.85,0,0,1,.14-1.78Zm11.06,11.25L251.93,405.4v19.76L263.55,436Zm63.69-25.48a1.56,1.56,0,0,1-.08.38.88.88,0,0,0,0,.76,2.66,2.66,0,0,0,1.47,1.51,11,11,0,0,0,4.37,1.1,16.88,16.88,0,0,0,2.93-.14,1.64,1.64,0,0,0,.22,0c.57-.22,1.2-.29,1.78-.53a5.19,5.19,0,0,0,2-1.2,1.5,1.5,0,0,0,.43-1.34,2.32,2.32,0,0,0-1-1.36,8.87,8.87,0,0,0-1.16-.56,10.91,10.91,0,0,0-3.52-.83,11.22,11.22,0,0,0-2.09,0,11.38,11.38,0,0,0-2.34.44,7.22,7.22,0,0,0-1.78.74C328,390,327.72,390.43,327.24,390.74ZM305.35,395c0,.12,0,.24,0,.3-.22.28-.12.51,0,.81a2.5,2.5,0,0,0,1.41,1.49,12,12,0,0,0,4.07,1.09,8.23,8.23,0,0,0,1.72,0c.55,0,1.1-.09,1.65-.14a.58.58,0,0,0,.14,0c.59-.2,1.21-.28,1.79-.52a5.36,5.36,0,0,0,2-1.16,1.55,1.55,0,0,0,.47-1.4,2.09,2.09,0,0,0-.87-1.26,5.14,5.14,0,0,0-1.67-.79c-.31-.07-.61-.18-.92-.27a6.4,6.4,0,0,0-.92-.27c-.33-.06-.69.07-1-.15H310.6c-.31.25-.7.08-1,.19s-.69.12-1,.23a11,11,0,0,0-1.85.74A17,17,0,0,0,305.35,395Zm-21.86,4.18c0,.12,0,.24,0,.3-.23.27-.12.51,0,.81a2.61,2.61,0,0,0,1.47,1.5,11.34,11.34,0,0,0,4,1.09,11,11,0,0,0,1.72,0c.55,0,1.1-.09,1.66-.14a.31.31,0,0,0,.13,0c.59-.2,1.21-.28,1.79-.52a5.61,5.61,0,0,0,2-1.2,1.76,1.76,0,0,0,.43-1,1.5,1.5,0,0,0-.33-1,3.92,3.92,0,0,0-2.14-1.4,8.94,8.94,0,0,0-.92-.28,8.68,8.68,0,0,0-1-.27c-.32-.06-.68.07-1-.15h-2.54c-.31.25-.7.08-1,.18s-.69.13-1,.25a9.66,9.66,0,0,0-1.84.73A15.2,15.2,0,0,0,283.49,399.14ZM268.15,407v0l2.25-.18a.37.37,0,0,0,.15,0c.6-.23,1.26-.29,1.85-.54a5.42,5.42,0,0,0,1.94-1.18,1.51,1.51,0,0,0,.45-1.34,2.11,2.11,0,0,0-1-1.37,10.63,10.63,0,0,0-3.4-1.26,9,9,0,0,0-1.65-.14c-.57,0-1.15,0-1.72,0a.88.88,0,0,0-.23,0c-.64.21-1.34.22-2,.43a8.83,8.83,0,0,0-1.85.71,6.61,6.61,0,0,0-1.14.95,1.12,1.12,0,0,0-.36,1.17,2.32,2.32,0,0,0,1,1.34,6.71,6.71,0,0,0,1.68.76c.31.08.61.21.92.29a3.91,3.91,0,0,0,1,.19c.35,0,.66.12,1,.15S267.77,407,268.15,407Zm58.92-14.2c0,.72,0,1.43,0,2.14a2.06,2.06,0,0,0,1,1.74,5.42,5.42,0,0,0,1.67.77l.8.22c.28.08.56.21.85.27a5,5,0,0,1,.87.06,2.3,2.3,0,0,0,.93.08,18.42,18.42,0,0,0,2.34-.11,11.34,11.34,0,0,0,1.79-.35,7.44,7.44,0,0,0,2.05-.93,2,2,0,0,0,1-1.33c.08-.85,0-1.7,0-2.67a5.79,5.79,0,0,1-2.14,1.44,7.54,7.54,0,0,1-1.66.46,16,16,0,0,1-1.82.28,12,12,0,0,1-1.34,0,2.53,2.53,0,0,1-1.28-.14,4.86,4.86,0,0,1-1.82-.29,6.66,6.66,0,0,1-1.68-.57A5.05,5.05,0,0,1,327.07,392.83ZM318.51,397l-.24.22a5.43,5.43,0,0,1-1.87,1.17,7.85,7.85,0,0,1-1.66.46,16,16,0,0,1-1.82.28,12,12,0,0,1-1.34,0,2.58,2.58,0,0,1-1.29-.14,4.84,4.84,0,0,1-1.81-.29,6.17,6.17,0,0,1-1.68-.57,4.31,4.31,0,0,1-1.55-1.1c-.05.85-.06,1.68,0,2.5a1.11,1.11,0,0,0,.2.55,3.28,3.28,0,0,0,1.33,1.16c.63.28,1.29.46,1.93.7a12.5,12.5,0,0,0,2.07.37,7.6,7.6,0,0,0,1.72,0c.58,0,1.15-.09,1.73-.13,0,0,.06,0,.07,0,.27-.21.63-.15.93-.27a10.31,10.31,0,0,0,1-.29,5.47,5.47,0,0,0,1.82-1.11,7.5,7.5,0,0,0,.51-.73Zm-21.84,4.13a4.79,4.79,0,0,1-2.22,1.47,12.52,12.52,0,0,1-4.09.72,7.36,7.36,0,0,1-1.63,0c-.37-.08-.73,0-1.07-.12s-.71-.18-1.07-.27a8.22,8.22,0,0,1-1.74-.63,4.28,4.28,0,0,1-1.51-1.14c0,.77,0,1.42,0,2.06a2.13,2.13,0,0,0,1.15,2,7.11,7.11,0,0,0,1.56.72,13.49,13.49,0,0,0,1.65.47,10.84,10.84,0,0,0,1.8.15,15.28,15.28,0,0,0,2.34-.11,11.58,11.58,0,0,0,1.79-.36,6.88,6.88,0,0,0,2-.91,2,2,0,0,0,1.06-1.78C296.65,402.62,296.67,401.93,296.67,401.08Zm-21.88,4.2a5.79,5.79,0,0,1-2,1.37,7.31,7.31,0,0,1-1.65.5,10.62,10.62,0,0,1-2.33.3h-1.57a1.53,1.53,0,0,1-.37,0c-.67-.22-1.39-.19-2.06-.41a13.08,13.08,0,0,1-1.92-.73,5.78,5.78,0,0,1-1.38-1c0,.88,0,1.64,0,2.4a1.92,1.92,0,0,0,.31.85,3,3,0,0,0,1.37,1.11,13.46,13.46,0,0,0,1.88.65,12.41,12.41,0,0,0,2,.34,9,9,0,0,0,1.72,0c.55,0,1.1-.09,1.65-.13l.14,0c.58-.21,1.21-.28,1.78-.53a5.51,5.51,0,0,0,1.79-1,6.67,6.67,0,0,0,.64-.83Z" transform="translate(-251.47 -387.94)"/><path class="cls-1" d="M351,419.69a9,9,0,0,1-1.32.31c-.55.08-1.09.24-1.64.34-.32.05-.64.15-1,.21a4.64,4.64,0,0,1-.91.13c-.34,0-.63.25-1,.15-.24.22-.63,0-.85.28a8,8,0,0,0-1.82.29,14.84,14.84,0,0,0-2.47.51,8.46,8.46,0,0,1-.9.14,9.33,9.33,0,0,1-1.32.25,9.32,9.32,0,0,0-1.32.23c-.79.23-1.6.33-2.39.5-.61.13-1.26.23-1.88.33a10.12,10.12,0,0,0-1.63.37c-.29.09-.6,0-.91.15a8.91,8.91,0,0,1-1.2.16c-.5.11-1,.18-1.51.31-.18,0-.37.07-.55.11s-.36.1-.54.13a3.72,3.72,0,0,0-1,.16c-.34.19-.75,0-1,.26a8.14,8.14,0,0,0-1.82.3,6.65,6.65,0,0,0-1.3.26c-.4.13-.85.05-1.22.28a8.65,8.65,0,0,0-1.82.3,2.07,2.07,0,0,0-.82.14c-.3.2-.63,0-.89.2s-.6-.09-.81.19a9.36,9.36,0,0,0-1.82.31,2.08,2.08,0,0,0-.82.13c-.3.21-.64,0-.9.2s-.6-.09-.81.2c-.61-.08-1.14.27-1.74.29a3.13,3.13,0,0,0-.9.16c-.29.11-.62,0-.82.16s-.67-.09-.88.23a8.65,8.65,0,0,0-1.82.3,1.91,1.91,0,0,0-.82.14c-.3.2-.63,0-.89.2s-.6-.09-.81.19a9.36,9.36,0,0,0-1.82.31,1.89,1.89,0,0,0-.82.13c-.3.21-.64,0-.9.2s-.6-.09-.81.2a6.19,6.19,0,0,0-1.81.31,10,10,0,0,0-1.78.36c-.31.12-.7,0-1.06.15s-.72,0-1,.18-.65,0-1,.22a3,3,0,0,1-.9.15c-.91.2-1.83.35-2.74.55-.62.13-1.27.21-1.89.33a15.46,15.46,0,0,0-2.61.52,4.24,4.24,0,0,1-.83.13c-.44.08-.87.2-1.32.25a8,8,0,0,0-1.33.22c-.78.24-1.59.33-2.38.5-.62.13-1.26.22-1.89.34a15.8,15.8,0,0,0-1.63.35c-.3.09-.65.11-1,.18a19.47,19.47,0,0,0-2.61.53c-.28.09-.6,0-.91.15a3.68,3.68,0,0,1-.9.15c-.28,0-.55.11-.84.14a8.93,8.93,0,0,0-.9.17,13.92,13.92,0,0,1-2.14.4c-.1,0-.19.1-.3.17-.13-.64-.17-18-.06-20.24.39-.09.79-.2,1.2-.28s.61-.1.91-.15a2.7,2.7,0,0,0,1-.16c.29-.16.65,0,.87-.25a8.54,8.54,0,0,0,1.81-.29,18.65,18.65,0,0,0,2.47-.51c.29-.1.64.06.89-.18a18.24,18.24,0,0,0,2.66-.45c.79-.16,1.59-.36,2.38-.49a18.56,18.56,0,0,1,2.58-.45c.25-.29.63-.07.95-.23a3.37,3.37,0,0,1,1-.19,3.86,3.86,0,0,0,1-.16c.52-.21,1.09-.21,1.63-.37.34-.1.75-.09,1.13-.16a3.71,3.71,0,0,0,1-.17c.31-.2.71.05.94-.25a7,7,0,0,0,1.82-.31c.54-.08,1.09-.24,1.63-.35s1.14-.24,1.73-.34,1.24-.21,1.85-.36c.43-.1.87-.16,1.31-.26s.84-.11,1.26-.2,1.07-.18,1.59-.31a5,5,0,0,0,1.54-.38c.38.09.7-.15,1.06-.15a4.88,4.88,0,0,0,1.31-.24,7.5,7.5,0,0,0,.91-.15c.31-.14.71-.07,1.05-.18s.66,0,.93-.26a7.36,7.36,0,0,0,1.81-.29,9.61,9.61,0,0,0,2.07-.41,8,8,0,0,0,1.82-.3,7.48,7.48,0,0,0,1.3-.26,5.12,5.12,0,0,0,1.22-.27,8.06,8.06,0,0,0,1.82-.31,7.28,7.28,0,0,0,1.3-.25,5,5,0,0,0,1.22-.28,8.65,8.65,0,0,0,1.82-.3,9.29,9.29,0,0,0,1.59-.29,4.54,4.54,0,0,0,1.55-.39,8,8,0,0,0,1.82-.29,23.44,23.44,0,0,0,2.47-.49c.31-.1.65-.1,1-.18s.51,0,.76-.14.46,0,.7-.12.49,0,.76-.13a3.71,3.71,0,0,1,1-.17c.59,0,1.14-.27,1.74-.33a9.2,9.2,0,0,0,1.23-.24,22.88,22.88,0,0,0,2.46-.52,6.41,6.41,0,0,1,.91-.14,9.47,9.47,0,0,1,1.31-.25,8,8,0,0,0,1.33-.23c.78-.24,1.6-.29,2.38-.5a11.53,11.53,0,0,1,1.33-.22,11.82,11.82,0,0,0,1.24-.25c.84-.23,1.72-.23,2.53-.53.66,0,1.24-.34,1.89-.3.05,0,.1-.07.19-.14Z" transform="translate(-251.47 -387.94)"/><path class="cls-1" d="M252.49,405l8.69-1.68a4.85,4.85,0,0,0-.14,1.78c0,.81,0,1.63,0,2.44a2.09,2.09,0,0,0,.55,1.46,3.69,3.69,0,0,0,1.1.87,9.21,9.21,0,0,0,1.78.72,17.19,17.19,0,0,0,1.92.4,15.62,15.62,0,0,0,2.26.11c.31,0,.63,0,.94-.07a2.38,2.38,0,0,0,.86-.08c.28-.15.64,0,.86-.26a4.25,4.25,0,0,0,1.78-.54,6.08,6.08,0,0,0,1.52-1,2.07,2.07,0,0,0,.67-1.56c0-1.14,0-2.27,0-3.41a2,2,0,0,0-.51-1.41,4.29,4.29,0,0,0-2-1.31,3.57,3.57,0,0,1-.64-.31c3.75-.64,7.32-1.36,10.94-2a3.13,3.13,0,0,0-.14,1.43c0,.53,0,1.06,0,1.6s0,1,0,1.53a1.84,1.84,0,0,0,.59,1.16,5.13,5.13,0,0,0,1.12.82,7.29,7.29,0,0,0,1.59.65,15.2,15.2,0,0,0,2.13.45c.86.15,1.71.05,2.56.12.44,0,.84-.18,1.29-.17a4.4,4.4,0,0,0,1.15-.25,6.62,6.62,0,0,0,1.2-.33,6.85,6.85,0,0,0,2-1.31,1.84,1.84,0,0,0,.54-1.18c0-1.33,0-2.65,0-4a1.8,1.8,0,0,0-.42-.95,3.39,3.39,0,0,0-1.12-1,5.72,5.72,0,0,0-1.31-.59c-.07,0-.12-.1-.18-.17l10.76-2c0,.37-.08.77-.08,1.16,0,1,0,2.05,0,3.07a2,2,0,0,0,.57,1.45,5.71,5.71,0,0,0,2,1.25c.71.31,1.48.36,2.17.67h.08c.58.05,1.15.11,1.73.14a9.87,9.87,0,0,0,1.72,0,17.28,17.28,0,0,0,1.89-.3,10.85,10.85,0,0,0,1.7-.54,5.76,5.76,0,0,0,1.65-1,2.12,2.12,0,0,0,.74-1.67c0-1.14,0-2.27,0-3.41a2.17,2.17,0,0,0-.59-1.45,4.53,4.53,0,0,0-2-1.22,3.29,3.29,0,0,1-.42-.21v-.11l10.73-2a6.15,6.15,0,0,0-.1.85c0,1.14,0,2.27,0,3.41a2.08,2.08,0,0,0,.64,1.5,5.77,5.77,0,0,0,1.94,1.18c.7.33,1.48.36,2.17.67a9.53,9.53,0,0,1,1.51.14c.52,0,1.05,0,1.57,0a8.31,8.31,0,0,0,1.51-.15,10.84,10.84,0,0,0,2.71-.81,6.3,6.3,0,0,0,1.56-1,1.92,1.92,0,0,0,.62-1.44c0-1.16,0-2.32,0-3.48a2.06,2.06,0,0,0-.51-1.41,4.61,4.61,0,0,0-2-1.31c-.15,0-.46,0-.48-.34l1.2-.19,11.65,10.84c-.83,0-1.64.38-2.51.46-.51.05-1,.19-1.52.28a11.26,11.26,0,0,0-1.45.27c-.78.25-1.59.34-2.38.51-.62.13-1.26.22-1.89.33a11.62,11.62,0,0,0-1.63.37c-.29.09-.6,0-.91.15a3.13,3.13,0,0,1-.9.16,3,3,0,0,0-1,.16c-.28.15-.64,0-.86.26a8,8,0,0,0-1.82.29,17.43,17.43,0,0,0-2.47.5c-.28.1-.63-.05-.89.18-.7,0-1.34.33-2.05.28-.5.25-1.12.11-1.61.42a8.12,8.12,0,0,0-1.82.29,15.8,15.8,0,0,0-2.46.51c-.29.1-.64-.06-.9.17-.9,0-1.75.41-2.65.42a9.83,9.83,0,0,1-1.62.4c-.32.1-.7,0-1.06.15s-.77,0-1,.17-.75,0-1,.26a8.65,8.65,0,0,0-1.82.3,1.91,1.91,0,0,0-.82.14c-.3.2-.64,0-.9.2s-.6-.09-.81.19a9.63,9.63,0,0,0-1.82.31,1.94,1.94,0,0,0-.82.13c-.29.21-.63,0-.89.2s-.6-.09-.81.2a6.26,6.26,0,0,0-1.82.31,9.3,9.3,0,0,0-1.77.37c-.32.11-.7,0-1.06.14s-.72,0-1,.18-.66,0-1,.22-.58.09-.89.15c-.91.2-1.83.36-2.75.55-.61.13-1.26.2-1.88.33a14.72,14.72,0,0,0-2.39.51,8.26,8.26,0,0,1-.91.14,11.22,11.22,0,0,1-1.31.25,8,8,0,0,0-1.33.22,24.13,24.13,0,0,1-2.39.5c-.61.13-1.25.23-1.88.34a10.33,10.33,0,0,0-1.63.36,8.44,8.44,0,0,1-.9.15c-.66.16-1.33.27-2,.4l-1.88.34a13.71,13.71,0,0,0-2.39.5,6.64,6.64,0,0,1-.91.14,9.47,9.47,0,0,1-1.31.25,8,8,0,0,0-1.33.23c-.78.24-1.6.32-2.39.5-.61.13-1.26.22-1.88.33a11.59,11.59,0,0,0-1.63.36,4.48,4.48,0,0,1-.91.14Z" transform="translate(-251.47 -387.94)"/><path class="cls-1" d="M263.55,416.22V436l-11.62-10.82V405.4Z" transform="translate(-251.47 -387.94)"/><path class="cls-1" d="M327.24,390.74c.48-.31.8-.74,1.27-1.05a7.22,7.22,0,0,1,1.78-.74,11.38,11.38,0,0,1,2.34-.44,11.22,11.22,0,0,1,2.09,0,10.91,10.91,0,0,1,3.52.83,8.87,8.87,0,0,1,1.16.56,2.32,2.32,0,0,1,1,1.36,1.5,1.5,0,0,1-.43,1.34,5.19,5.19,0,0,1-2,1.2c-.58.24-1.21.31-1.78.53a1.64,1.64,0,0,1-.22,0,16.88,16.88,0,0,1-2.93.14,11,11,0,0,1-4.37-1.1,2.66,2.66,0,0,1-1.47-1.51.88.88,0,0,1,0-.76A1.56,1.56,0,0,0,327.24,390.74Z" transform="translate(-251.47 -387.94)"/><path class="cls-1" d="M305.35,395a17,17,0,0,1,1.35-1.12,11,11,0,0,1,1.85-.74c.32-.11.68-.13,1-.23s.73.06,1-.19h2.54c.3.22.66.09,1,.15a6.4,6.4,0,0,1,.92.27c.31.09.61.2.92.27a5.14,5.14,0,0,1,1.67.79,2.09,2.09,0,0,1,.87,1.26,1.55,1.55,0,0,1-.47,1.4,5.36,5.36,0,0,1-2,1.16c-.58.24-1.2.32-1.79.52a.58.58,0,0,1-.14,0c-.55.05-1.1.11-1.65.14a8.23,8.23,0,0,1-1.72,0,12,12,0,0,1-4.07-1.09,2.5,2.5,0,0,1-1.41-1.49c-.09-.3-.19-.53,0-.81C305.39,395.2,305.35,395.08,305.35,395Z" transform="translate(-251.47 -387.94)"/><path class="cls-1" d="M283.49,399.14a15.2,15.2,0,0,1,1.36-1.12,9.66,9.66,0,0,1,1.84-.73c.33-.12.69-.15,1-.25s.73.07,1-.18h2.54c.3.22.66.09,1,.15a8.68,8.68,0,0,1,1,.27,8.94,8.94,0,0,1,.92.28,3.92,3.92,0,0,1,2.14,1.4,1.5,1.5,0,0,1,.33,1,1.76,1.76,0,0,1-.43,1,5.61,5.61,0,0,1-2,1.2c-.58.24-1.2.32-1.79.52a.31.31,0,0,1-.13,0c-.56.05-1.11.11-1.66.14a11,11,0,0,1-1.72,0,11.34,11.34,0,0,1-4-1.09,2.61,2.61,0,0,1-1.47-1.5c-.09-.3-.2-.54,0-.81C283.53,399.38,283.49,399.26,283.49,399.14Z" transform="translate(-251.47 -387.94)"/><path class="cls-1" d="M268.15,407c-.38,0-.75,0-1.12,0s-.64-.15-1-.15a3.91,3.91,0,0,1-1-.19c-.31-.08-.61-.21-.92-.29a6.71,6.71,0,0,1-1.68-.76,2.32,2.32,0,0,1-1-1.34,1.12,1.12,0,0,1,.36-1.17,6.61,6.61,0,0,1,1.14-.95,8.83,8.83,0,0,1,1.85-.71c.64-.21,1.34-.22,2-.43a.88.88,0,0,1,.23,0c.57,0,1.15,0,1.72,0a9,9,0,0,1,1.65.14,10.63,10.63,0,0,1,3.4,1.26,2.11,2.11,0,0,1,1,1.37,1.51,1.51,0,0,1-.45,1.34,5.42,5.42,0,0,1-1.94,1.18c-.59.25-1.25.31-1.85.54a.37.37,0,0,1-.15,0l-2.25.18Z" transform="translate(-251.47 -387.94)"/><path class="cls-1" d="M327.07,392.83a5.05,5.05,0,0,0,1.58,1.08,6.66,6.66,0,0,0,1.68.57,4.86,4.86,0,0,0,1.82.29,2.53,2.53,0,0,0,1.28.14,12,12,0,0,0,1.34,0,16,16,0,0,0,1.82-.28,7.54,7.54,0,0,0,1.66-.46,5.79,5.79,0,0,0,2.14-1.44c0,1,.06,1.82,0,2.67a2,2,0,0,1-1,1.33,7.44,7.44,0,0,1-2.05.93,11.34,11.34,0,0,1-1.79.35,18.42,18.42,0,0,1-2.34.11,2.3,2.3,0,0,1-.93-.08,5,5,0,0,0-.87-.06c-.29-.06-.57-.19-.85-.27l-.8-.22a5.42,5.42,0,0,1-1.67-.77,2.06,2.06,0,0,1-1-1.74C327.07,394.26,327.07,393.55,327.07,392.83Z" transform="translate(-251.47 -387.94)"/><path class="cls-1" d="M318.51,397v2.8a7.5,7.5,0,0,1-.51.73,5.47,5.47,0,0,1-1.82,1.11,10.31,10.31,0,0,1-1,.29c-.3.12-.66.06-.93.27,0,0-.05,0-.07,0-.58,0-1.15.11-1.73.13a7.6,7.6,0,0,1-1.72,0,12.5,12.5,0,0,1-2.07-.37c-.64-.24-1.3-.42-1.93-.7a3.28,3.28,0,0,1-1.33-1.16,1.11,1.11,0,0,1-.2-.55c0-.82,0-1.65,0-2.5a4.31,4.31,0,0,0,1.55,1.1,6.17,6.17,0,0,0,1.68.57,4.84,4.84,0,0,0,1.81.29,2.58,2.58,0,0,0,1.29.14,12,12,0,0,0,1.34,0,16,16,0,0,0,1.82-.28,7.85,7.85,0,0,0,1.66-.46,5.43,5.43,0,0,0,1.87-1.17Z" transform="translate(-251.47 -387.94)"/><path class="cls-1" d="M296.67,401.08c0,.85,0,1.54,0,2.23a2,2,0,0,1-1.06,1.78,6.88,6.88,0,0,1-2,.91,11.58,11.58,0,0,1-1.79.36,15.28,15.28,0,0,1-2.34.11,10.84,10.84,0,0,1-1.8-.15,13.49,13.49,0,0,1-1.65-.47,7.11,7.11,0,0,1-1.56-.72,2.13,2.13,0,0,1-1.15-2c0-.64,0-1.29,0-2.06a4.28,4.28,0,0,0,1.51,1.14,8.22,8.22,0,0,0,1.74.63c.36.09.72.17,1.07.27s.7,0,1.07.12a7.36,7.36,0,0,0,1.63,0,12.52,12.52,0,0,0,4.09-.72A4.79,4.79,0,0,0,296.67,401.08Z" transform="translate(-251.47 -387.94)"/><path class="cls-1" d="M274.79,405.28v2.85a6.67,6.67,0,0,1-.64.83,5.51,5.51,0,0,1-1.79,1c-.57.25-1.2.32-1.78.53l-.14,0c-.55,0-1.1.11-1.65.13a9,9,0,0,1-1.72,0,12.41,12.41,0,0,1-2-.34,13.46,13.46,0,0,1-1.88-.65,3,3,0,0,1-1.37-1.11,1.92,1.92,0,0,1-.31-.85c0-.76,0-1.52,0-2.4a5.78,5.78,0,0,0,1.38,1,13.08,13.08,0,0,0,1.92.73c.67.22,1.39.19,2.06.41a1.53,1.53,0,0,0,.37,0h1.57a10.62,10.62,0,0,0,2.33-.3,7.31,7.31,0,0,0,1.65-.5A5.79,5.79,0,0,0,274.79,405.28Z" transform="translate(-251.47 -387.94)"/></svg>