<svg id="Layer_1" data-name="Layer 1" xmlns="http://www.w3.org/2000/svg" viewBox="0 0 100 52.56"><defs><style>.cls-1{fill:#005000;}.cls-2{fill:#009500;}.cls-3{fill:#006e00;}</style></defs><path d="M270.24,423.78,258.05,411.6V389.36a2.21,2.21,0,0,1,.7-.3,14.28,14.28,0,0,0,2.51-.49,13.79,13.79,0,0,0,2.53-.56,6.58,6.58,0,0,0,1.81-.34,8.39,8.39,0,0,0,1.85-.41,1.7,1.7,0,0,1,.56,0,4.93,4.93,0,0,1,1.6-1.29,7,7,0,0,1,1.67-.64c.6-.14,1.22-.22,1.81-.35a17.79,17.79,0,0,1,2.72-.11,3.52,3.52,0,0,1,.69.14,2.53,2.53,0,0,1,.63.11,1,1,0,0,0,.86,0c.33-.22.69-.07,1-.25a4.49,4.49,0,0,1,1.19-.18,4.06,4.06,0,0,0,1-.2c.31-.15.65,0,1-.22s.66-.07,1-.18a16.42,16.42,0,0,0,1.84-.44,14,14,0,0,0,2.57-.48,8.39,8.39,0,0,0,1.85-.41c.12-.06.29,0,.5,0a4.64,4.64,0,0,1,1.59-1.28,7.59,7.59,0,0,1,1.74-.65c.6-.16,1.21-.25,1.82-.35a9,9,0,0,1,1.36-.11,4,4,0,0,1,1.42,0c.41.13.87,0,1.23.26.33-.06.66.09,1-.11s.6-.07.9-.17.81-.08,1.21-.17c.73-.18,1.47-.3,2.2-.47.23-.06.47-.07.69-.14s.47-.08.68-.15a13.59,13.59,0,0,1,1.85-.4c.86-.15,1.7-.41,2.58-.51.52-.06,1.05-.26,1.62-.29a4.59,4.59,0,0,1,1.6-1.3,5.49,5.49,0,0,1,1.62-.62,12.5,12.5,0,0,1,3.85-.45c.36,0,.73-.12,1.08.09s.69-.09,1,.2c.33-.07.66.1,1-.11s.59-.05.9-.17a11.55,11.55,0,0,1,1.2-.18c.76-.17,1.53-.27,2.27-.49.34-.1.7,0,1-.23a2.88,2.88,0,0,1,.9-.17c.28,0,.56-.11.84-.14s.58-.25.91-.16a20.71,20.71,0,0,1,2.81-.62,5.87,5.87,0,0,1,.87-.13,4.62,4.62,0,0,1,1.6-1.31,9.77,9.77,0,0,1,1.69-.63c.69-.22,1.43-.25,2.14-.43a4.44,4.44,0,0,1,1.41,0c.46,0,.94-.19,1.36.14a6.9,6.9,0,0,1,1.21.14,5.55,5.55,0,0,0,1.35-.17,5.2,5.2,0,0,1,1.59-.27l12.09,12.09v22.43c-.66.23-1.36.31-2,.48s-1.2.23-1.81.35a15.87,15.87,0,0,0-2.46.54c-.29.11-.6,0-.91.18a2.57,2.57,0,0,1-.9.16,3.71,3.71,0,0,0-1,.17c-.29.15-.64,0-.86.28a8,8,0,0,0-1.82.31,17.29,17.29,0,0,0-2.47.55c-.29.1-.64-.07-.89.19a16.71,16.71,0,0,0-2.65.48c-.8.18-1.6.37-2.39.53s-1.35.29-2,.37a4.94,4.94,0,0,0-1.63.37,5.3,5.3,0,0,1-.9.17,11,11,0,0,1-1.32.26,7.16,7.16,0,0,0-1.32.25,20.48,20.48,0,0,1-2.39.53c-.84.14-1.65.41-2.5.51a8.59,8.59,0,0,0-1.3.27,6.14,6.14,0,0,1-1.23.26c-.63.06-1.2.3-1.81.37a7.62,7.62,0,0,0-1.31.27,6,6,0,0,1-1.22.26c-.63.06-1.2.3-1.82.37a7.52,7.52,0,0,0-1.3.27,5.26,5.26,0,0,0-1.23.3,8.09,8.09,0,0,0-1.81.32,8.37,8.37,0,0,0-1.3.28,4.71,4.71,0,0,0-1.23.3,41.71,41.71,0,0,0-3.12.6,4.64,4.64,0,0,0-1.22.3,7.56,7.56,0,0,0-1.82.32,7.35,7.35,0,0,0-1.3.28c-.4.13-.83.13-1.23.27s-.71,0-1.06.16-.72,0-1,.19-.65,0-1,.24-.59.08-.89.16c-.66.17-1.33.3-2,.44s-1.27.21-1.88.36a20.42,20.42,0,0,0-3.37.72,7.14,7.14,0,0,0-1.89.33,13.31,13.31,0,0,0-2.39.54,8.44,8.44,0,0,1-.9.16c-.91.21-1.84.37-2.75.59-.62.14-1.27.22-1.89.35a14.22,14.22,0,0,0-2.39.54,6.5,6.5,0,0,1-.9.16,11.43,11.43,0,0,1-1.32.27,6.17,6.17,0,0,0-1.32.24,21,21,0,0,1-2.32.52A7.88,7.88,0,0,1,270.24,423.78Zm87.34-18.44v-21.7c-.09.07-.14.15-.18.15-.66-.05-1.24.36-1.89.32-.81.32-1.7.32-2.53.57a8.82,8.82,0,0,1-1.24.26c-.45.08-.91.12-1.33.24-.79.23-1.61.28-2.39.54a7,7,0,0,1-1.33.25,9.49,9.49,0,0,0-1.31.26c-.31.09-.62,0-.9.16A21,21,0,0,1,342,387a8.68,8.68,0,0,1-1.23.26c-.6.06-1.14.3-1.74.35a3.87,3.87,0,0,0-1,.18c-.27.1-.56,0-.76.14s-.51,0-.69.13-.52.08-.77.15-.66.09-1,.19a22.61,22.61,0,0,1-2.47.54,8,8,0,0,1-1.82.31,4.57,4.57,0,0,1-1.54.41,8.6,8.6,0,0,1-1.59.31,8.1,8.1,0,0,1-1.82.33,4.69,4.69,0,0,1-1.23.29,6.56,6.56,0,0,1-1.3.28,8.11,8.11,0,0,1-1.81.33,4.79,4.79,0,0,1-1.23.29,6.56,6.56,0,0,1-1.3.28A7.56,7.56,0,0,1,317,392a8.5,8.5,0,0,1-2.06.44,7,7,0,0,1-1.82.31c-.26.24-.62.18-.93.29s-.74,0-1,.18-.62.07-.91.16a4.56,4.56,0,0,1-1.31.27c-.37,0-.69.25-1.06.15a4.7,4.7,0,0,1-1.55.42c-.51.13-1.06.2-1.59.32s-.84.12-1.26.22-.88.17-1.31.28c-.61.16-1.23.28-1.85.39s-1.16.25-1.73.37-1.09.28-1.63.37a7,7,0,0,1-1.81.33c-.24.33-.63,0-.95.27s-.69.1-1,.18-.79.06-1.13.17a15.37,15.37,0,0,0-1.62.41,3.94,3.94,0,0,1-1,.16,3.5,3.5,0,0,0-1,.21c-.31.17-.7-.07-.95.24a17.38,17.38,0,0,0-2.57.49c-.8.14-1.6.35-2.39.53a16.92,16.92,0,0,1-2.65.48c-.26.26-.6.09-.89.19a17.29,17.29,0,0,1-2.47.55,8.56,8.56,0,0,1-1.82.31c-.22.29-.58.1-.86.27a3,3,0,0,1-1,.18c-.3,0-.61.08-.91.15s-.8.21-1.2.31c-.11,2.38-.06,21.06.06,21.74.11-.07.2-.18.31-.19a13,13,0,0,0,2.13-.43c.3-.06.6-.14.91-.18s.56-.09.84-.14a3.34,3.34,0,0,0,.9-.17c.3-.15.62-.06.91-.16a19.46,19.46,0,0,1,2.6-.57c.33-.07.67-.1,1-.19a15.39,15.39,0,0,1,1.63-.38c.62-.12,1.27-.22,1.88-.36.79-.18,1.61-.28,2.39-.54a7.84,7.84,0,0,1,1.33-.24c.44-.05.87-.18,1.31-.26a5.45,5.45,0,0,0,.84-.14,14.63,14.63,0,0,1,2.61-.56c.62-.13,1.27-.22,1.88-.36.91-.21,1.84-.37,2.75-.59.3-.07.67,0,.89-.16s.65,0,1-.24.65-.07,1-.19.74,0,1.06-.15a10,10,0,0,1,1.77-.4,5.91,5.91,0,0,1,1.82-.33c.21-.31.58,0,.81-.21s.6,0,.89-.22a1.77,1.77,0,0,1,.82-.14c.62-.05,1.18-.41,1.82-.33.21-.31.58,0,.81-.21s.6,0,.89-.21a1.79,1.79,0,0,1,.82-.15c.63-.05,1.19-.41,1.82-.33.22-.33.61,0,.88-.25s.54,0,.82-.16a2.94,2.94,0,0,1,.9-.18c.6,0,1.13-.39,1.75-.31.21-.3.58,0,.81-.21s.6,0,.89-.21a1.91,1.91,0,0,1,.82-.15c.62-.05,1.18-.41,1.82-.33.21-.3.58,0,.81-.21s.6,0,.89-.21a2,2,0,0,1,.83-.15c.62,0,1.18-.41,1.81-.32.38-.24.83-.16,1.23-.3a5.92,5.92,0,0,1,1.3-.28,7.1,7.1,0,0,1,1.82-.32c.27-.31.68-.08,1-.28a3.5,3.5,0,0,1,1.05-.17c.18,0,.35-.11.54-.15a5.17,5.17,0,0,0,.54-.11c.5-.14,1-.22,1.52-.33a9.37,9.37,0,0,0,1.2-.18c.3-.13.62-.06.9-.16a8.59,8.59,0,0,1,1.63-.39c.63-.11,1.27-.22,1.89-.36.79-.18,1.6-.29,2.38-.54a8,8,0,0,1,1.33-.24,9.51,9.51,0,0,0,1.31-.27,6.65,6.65,0,0,0,.91-.16,14.79,14.79,0,0,1,2.46-.54,7.46,7.46,0,0,1,1.82-.31c.23-.27.62-.06.85-.3.35.1.65-.16,1-.16a4.8,4.8,0,0,0,.91-.15c.32-.06.63-.16.95-.22.55-.1,1.09-.28,1.65-.36A9.37,9.37,0,0,0,357.58,405.34Zm-98.51-15.82,11.62,11.62a4.42,4.42,0,0,0,.91-.15,12,12,0,0,1,1.63-.39c.63-.11,1.27-.21,1.89-.36.79-.18,1.6-.27,2.39-.53a6.17,6.17,0,0,1,1.32-.24,11.43,11.43,0,0,0,1.32-.27,6.5,6.5,0,0,0,.9-.16,13.09,13.09,0,0,1,2.39-.53c.62-.14,1.27-.23,1.89-.36s1.33-.27,2-.44a8.19,8.19,0,0,0,.91-.16,10.59,10.59,0,0,1,1.62-.39c.63-.12,1.27-.22,1.89-.36a22.81,22.81,0,0,0,2.39-.54,7,7,0,0,1,1.33-.23c.44-.06.88-.17,1.31-.27a6.5,6.5,0,0,0,.9-.16,14.22,14.22,0,0,1,2.39-.54c.62-.14,1.27-.21,1.89-.35.91-.21,1.83-.38,2.75-.59.3-.07.66,0,.89-.17s.65,0,1-.24.66-.07,1-.18.74,0,1.05-.16a9.3,9.3,0,0,1,1.78-.39,5.63,5.63,0,0,1,1.81-.34c.22-.31.59,0,.81-.21s.6,0,.9-.21a1.77,1.77,0,0,1,.82-.15c.62-.05,1.18-.41,1.82-.33.21-.3.58,0,.81-.21s.6,0,.89-.21a1.91,1.91,0,0,1,.82-.15c.62-.05,1.18-.41,1.82-.33.27-.32.68-.06,1-.27s.7-.08,1-.19.73-.05,1.05-.16a8.76,8.76,0,0,0,1.62-.42c.91,0,1.75-.42,2.66-.45.26-.26.6-.08.89-.19a16,16,0,0,1,2.47-.55,7.46,7.46,0,0,1,1.82-.31c.48-.33,1.1-.18,1.61-.45.7,0,1.35-.31,2-.3.26-.25.61-.08.9-.19a15.9,15.9,0,0,1,2.46-.55,8.16,8.16,0,0,1,1.82-.31c.22-.28.58-.11.87-.27a2.7,2.7,0,0,1,1-.18,2.62,2.62,0,0,0,.9-.17c.3-.16.62-.06.91-.16a10.17,10.17,0,0,1,1.63-.39c.62-.12,1.27-.22,1.88-.36.79-.18,1.6-.28,2.39-.54a11.13,11.13,0,0,1,1.44-.3c.51-.09,1-.25,1.52-.3.88-.09,1.68-.47,2.51-.49l-11.65-11.65-1.19.21c0,.35.32.3.48.36a4.7,4.7,0,0,1,2,1.41,2.29,2.29,0,0,1,.5,1.51c0,1.25,0,2.5,0,3.75a2.19,2.19,0,0,1-.61,1.54,6.13,6.13,0,0,1-1.57,1.11,10.34,10.34,0,0,1-2.71.87,7.48,7.48,0,0,1-1.5.15c-.53,0-1,0-1.57,0s-1-.25-1.51-.15c-.69-.34-1.48-.36-2.18-.72a5.8,5.8,0,0,1-1.93-1.28,2.33,2.33,0,0,1-.65-1.6c0-1.22,0-2.45,0-3.67,0-.3.06-.6.09-.91l-10.72,2.14v.11a3.5,3.5,0,0,0,.42.24,4.47,4.47,0,0,1,2,1.3,2.42,2.42,0,0,1,.58,1.56c0,1.22,0,2.44,0,3.67a2.41,2.41,0,0,1-.75,1.79,6,6,0,0,1-1.64,1.1,11.1,11.1,0,0,1-1.71.58,15,15,0,0,1-1.88.31,9,9,0,0,1-1.72,0c-.58,0-1.16-.1-1.74-.15h-.07c-.69-.33-1.47-.39-2.17-.72a5.37,5.37,0,0,1-2-1.35,2.22,2.22,0,0,1-.58-1.56c0-1.09,0-2.19,0-3.29,0-.42.06-.85.08-1.25l-10.76,2.14c.07.07.11.17.18.19a5,5,0,0,1,1.31.63,3.42,3.42,0,0,1,1.13,1.08,2,2,0,0,1,.42,1c0,1.42,0,2.84,0,4.26a2,2,0,0,1-.54,1.28,6.84,6.84,0,0,1-2,1.41,5.92,5.92,0,0,1-1.2.34,4,4,0,0,1-1.15.28c-.45,0-.84.21-1.28.18-.85-.08-1.7,0-2.57-.12a13.87,13.87,0,0,1-2.12-.49,7,7,0,0,1-1.59-.7,5.13,5.13,0,0,1-1.12-.88,2.06,2.06,0,0,1-.59-1.25c0-.54,0-1.09,0-1.64v-1.73a3.58,3.58,0,0,1,.15-1.53c-3.63.69-7.2,1.47-10.94,2.15a4.68,4.68,0,0,0,.63.34,4.33,4.33,0,0,1,2,1.4,2.35,2.35,0,0,1,.51,1.52c0,1.22,0,2.44,0,3.66a2.29,2.29,0,0,1-.68,1.67,5.69,5.69,0,0,1-1.52,1.06,4,4,0,0,1-1.78.58c-.22.27-.58.11-.86.27a2.31,2.31,0,0,1-.85.1c-.32,0-.63.07-.94.07A14.4,14.4,0,0,1,273,396a17.77,17.77,0,0,1-1.92-.43,8.52,8.52,0,0,1-1.78-.78,3.8,3.8,0,0,1-1.1-.92,2.37,2.37,0,0,1-.54-1.58c0-.87,0-1.74,0-2.62a5.58,5.58,0,0,1,.15-1.91Zm11.07,12.09L258.51,390v21.23l11.63,11.63Zm63.69-27.37a2.71,2.71,0,0,1-.08.41,1,1,0,0,0,0,.81,2.7,2.7,0,0,0,1.47,1.62,10.29,10.29,0,0,0,4.37,1.18,16,16,0,0,0,2.93-.14.71.71,0,0,0,.21,0c.58-.24,1.21-.31,1.79-.56a5.3,5.3,0,0,0,2-1.29,1.71,1.71,0,0,0,.44-1.45,2.49,2.49,0,0,0-1-1.45,8.11,8.11,0,0,0-1.17-.61,10.26,10.26,0,0,0-3.52-.89,11.22,11.22,0,0,0-2.09,0,10.35,10.35,0,0,0-2.34.48,6.81,6.81,0,0,0-1.77.79C334.62,373.44,334.3,373.91,333.83,374.24Zm-21.9,4.53c0,.13,0,.26,0,.32-.22.3-.11.56,0,.88a2.61,2.61,0,0,0,1.42,1.59,11.84,11.84,0,0,0,1.92.77,12.24,12.24,0,0,0,2.14.41,7.61,7.61,0,0,0,1.72,0c.55,0,1.11-.09,1.66-.14l.13,0c.59-.21,1.22-.3,1.79-.56a5.2,5.2,0,0,0,1.95-1.24,1.68,1.68,0,0,0,.47-1.51,2.24,2.24,0,0,0-.87-1.35,5,5,0,0,0-1.66-.85c-.32-.07-.62-.19-.93-.29a7,7,0,0,0-.92-.29c-.33-.06-.68.08-1-.16h-2.55c-.3.27-.69.08-1,.2s-.7.13-1,.26a10.63,10.63,0,0,0-1.84.79C312.77,377.89,312.44,378.38,311.93,378.77Zm-21.85,4.49c0,.13,0,.26,0,.32-.24.29-.13.55,0,.87a2.73,2.73,0,0,0,1.47,1.62,10.72,10.72,0,0,0,4,1.17,10.84,10.84,0,0,0,1.71,0c.56,0,1.11-.1,1.66-.15a.35.35,0,0,0,.14,0c.58-.22,1.21-.3,1.78-.56a5.47,5.47,0,0,0,2-1.29,2,2,0,0,0,.43-1.09,1.69,1.69,0,0,0-.32-1.06,4,4,0,0,0-2.14-1.5c-.3-.13-.61-.21-.92-.31a8.78,8.78,0,0,0-1-.29c-.33-.06-.69.08-1-.16h-2.54c-.3.27-.7.09-1,.2s-.69.13-1,.26a9.72,9.72,0,0,0-1.85.79A16.38,16.38,0,0,0,290.08,383.26Zm-15.35,8.48v.05l2.25-.2a.32.32,0,0,0,.14,0c.6-.25,1.26-.32,1.85-.59a5.25,5.25,0,0,0,1.95-1.26,1.76,1.76,0,0,0,.45-1.44,2.3,2.3,0,0,0-1-1.47,10.17,10.17,0,0,0-3.39-1.35,7.6,7.6,0,0,0-1.66-.16c-.57,0-1.14,0-1.72,0a.55.55,0,0,0-.22,0c-.65.22-1.34.23-2,.45a9,9,0,0,0-1.85.77,6.61,6.61,0,0,0-1.15,1,1.27,1.27,0,0,0-.36,1.25,2.42,2.42,0,0,0,1,1.44,6,6,0,0,0,1.67.82c.31.09.61.22.92.31a3.68,3.68,0,0,0,1,.21c.34,0,.65.12,1,.15A10.46,10.46,0,0,0,274.73,391.74Zm58.92-15.25v2.29a2.24,2.24,0,0,0,1,1.87,5.08,5.08,0,0,0,1.68.83l.79.23a7.11,7.11,0,0,0,.85.29,5.9,5.9,0,0,1,.87.07,2.17,2.17,0,0,0,.94.08,15.15,15.15,0,0,0,2.33-.11,10.65,10.65,0,0,0,1.8-.38,7.36,7.36,0,0,0,2.05-1,2.1,2.1,0,0,0,1-1.43c.09-.91,0-1.83,0-2.86a5.74,5.74,0,0,1-2.14,1.54,7.77,7.77,0,0,1-1.66.5c-.6.13-1.21.23-1.82.3a10,10,0,0,1-1.34,0,2.38,2.38,0,0,1-1.29-.14,4.67,4.67,0,0,1-1.81-.31,6.45,6.45,0,0,1-1.69-.62A5.37,5.37,0,0,1,333.65,376.49Zm-8.56,4.42a2.3,2.3,0,0,0-.23.24A5.63,5.63,0,0,1,323,382.4a7.6,7.6,0,0,1-1.66.5,13.67,13.67,0,0,1-1.81.3,8.69,8.69,0,0,1-1.35,0,2.33,2.33,0,0,1-1.28-.14,4.54,4.54,0,0,1-1.82-.31,6.14,6.14,0,0,1-1.68-.61,4.33,4.33,0,0,1-1.54-1.19c0,.91-.06,1.8,0,2.69a1.16,1.16,0,0,0,.2.59,3.32,3.32,0,0,0,1.33,1.24c.63.31,1.29.5,1.93.76a13.5,13.5,0,0,0,2.07.4,7.51,7.51,0,0,0,1.71,0c.58,0,1.16-.1,1.73-.15h.08c.26-.23.62-.16.92-.29s.69-.16,1-.32a5.27,5.27,0,0,0,1.82-1.19,6.47,6.47,0,0,0,.51-.78Zm-21.84,4.43a4.85,4.85,0,0,1-2.22,1.59,11.77,11.77,0,0,1-4.08.77,7.46,7.46,0,0,1-1.64,0c-.36-.09-.73,0-1.06-.13s-.72-.2-1.08-.29a8.08,8.08,0,0,1-1.73-.68,4.16,4.16,0,0,1-1.51-1.22c0,.83,0,1.52,0,2.21a2.34,2.34,0,0,0,1.15,2.14,6.59,6.59,0,0,0,1.55.77,12.22,12.22,0,0,0,1.66.51,12,12,0,0,0,1.8.16,14,14,0,0,0,2.33-.12,10.34,10.34,0,0,0,1.79-.39,7.06,7.06,0,0,0,2-1,2.2,2.2,0,0,0,1.06-1.91C303.23,387,303.25,386.26,303.25,385.34Zm-21.87,4.52a5.88,5.88,0,0,1-2,1.47,7,7,0,0,1-1.64.54,9.64,9.64,0,0,1-2.34.32h-1.57a1.15,1.15,0,0,1-.37,0c-.66-.24-1.39-.21-2.06-.44a13.79,13.79,0,0,1-1.92-.78,5.71,5.71,0,0,1-1.37-1.1c0,.94,0,1.76,0,2.58a2.15,2.15,0,0,0,.31.91,3.17,3.17,0,0,0,1.38,1.19,11,11,0,0,0,1.87.7,11.82,11.82,0,0,0,2,.37,8.24,8.24,0,0,0,1.72,0c.55,0,1.1-.09,1.66-.14l.13,0c.59-.21,1.21-.3,1.79-.56a5.46,5.46,0,0,0,1.79-1.08,7.2,7.2,0,0,0,.64-.89Z" transform="translate(-258.05 -371.23)"/><path class="cls-1" d="M357.58,405.34a9.37,9.37,0,0,1-1.31.34c-.56.08-1.1.26-1.65.36-.32.06-.63.16-.95.22a4.8,4.8,0,0,1-.91.15c-.34,0-.64.26-1,.16-.23.24-.62,0-.85.3a7.46,7.46,0,0,0-1.82.31,14.79,14.79,0,0,0-2.46.54,6.65,6.65,0,0,1-.91.16,9.51,9.51,0,0,1-1.31.27,8,8,0,0,0-1.33.24c-.78.25-1.59.36-2.38.54-.62.14-1.26.25-1.89.36a8.59,8.59,0,0,0-1.63.39c-.28.1-.6,0-.9.16a9.37,9.37,0,0,1-1.2.18c-.51.11-1,.19-1.52.33a5.17,5.17,0,0,1-.54.11c-.19,0-.36.11-.54.15a3.5,3.5,0,0,0-1.05.17c-.33.2-.74,0-1,.28a7.1,7.1,0,0,0-1.82.32,5.92,5.92,0,0,0-1.3.28c-.4.14-.85.06-1.23.3-.63-.09-1.19.27-1.81.32a2,2,0,0,0-.83.15c-.29.22-.63,0-.89.21s-.6-.09-.81.21c-.64-.08-1.2.28-1.82.33a1.91,1.91,0,0,0-.82.15c-.29.21-.63,0-.89.21s-.6-.09-.81.21c-.62-.08-1.15.29-1.75.31a2.94,2.94,0,0,0-.9.18c-.28.11-.61,0-.82.16s-.66-.08-.88.25c-.63-.08-1.19.28-1.82.33a1.79,1.79,0,0,0-.82.15c-.29.21-.63,0-.89.21s-.6-.1-.81.21c-.64-.08-1.2.28-1.82.33a1.77,1.77,0,0,0-.82.14c-.29.22-.63,0-.89.22s-.6-.1-.81.21a5.91,5.91,0,0,0-1.82.33,10,10,0,0,0-1.77.4c-.32.12-.71,0-1.06.15s-.72,0-1,.19-.66,0-1,.24-.59.09-.89.16c-.91.22-1.84.38-2.75.59-.61.14-1.26.23-1.88.36a14.63,14.63,0,0,0-2.61.56,5.45,5.45,0,0,1-.84.14c-.44.08-.87.21-1.31.26a7.84,7.84,0,0,0-1.33.24c-.78.26-1.6.36-2.39.54-.61.14-1.26.24-1.88.36a15.39,15.39,0,0,0-1.63.38c-.31.09-.65.12-1,.19a19.46,19.46,0,0,0-2.6.57c-.29.1-.61,0-.91.16a3.34,3.34,0,0,1-.9.17c-.28.05-.56.11-.84.14s-.61.12-.91.18a13,13,0,0,1-2.13.43c-.11,0-.2.12-.31.19-.12-.68-.17-19.36-.06-21.74.4-.1.8-.22,1.2-.31s.61-.11.91-.15a3,3,0,0,0,1-.18c.28-.17.64,0,.86-.27a8.56,8.56,0,0,0,1.82-.31,17.29,17.29,0,0,0,2.47-.55c.29-.1.63.07.89-.19a16.92,16.92,0,0,0,2.65-.48c.79-.18,1.59-.39,2.39-.53a17.38,17.38,0,0,1,2.57-.49c.25-.31.64-.07.95-.24a3.5,3.5,0,0,1,1-.21,3.94,3.94,0,0,0,1-.16,15.37,15.37,0,0,1,1.62-.41c.34-.11.75-.09,1.13-.17s.78,0,1-.18.71.06.95-.27a7,7,0,0,0,1.81-.33c.54-.09,1.09-.26,1.63-.37s1.15-.27,1.73-.37,1.24-.23,1.85-.39c.43-.11.88-.17,1.31-.28s.85-.12,1.26-.22,1.08-.19,1.59-.32a4.7,4.7,0,0,0,1.55-.42c.37.1.69-.16,1.06-.15a4.56,4.56,0,0,0,1.31-.27c.29-.09.6,0,.91-.16s.71-.07,1-.18.67-.05.93-.29a7,7,0,0,0,1.82-.31A8.5,8.5,0,0,0,317,392a7.56,7.56,0,0,0,1.82-.32,6.56,6.56,0,0,0,1.3-.28,4.79,4.79,0,0,0,1.23-.29,8.11,8.11,0,0,0,1.81-.33,6.56,6.56,0,0,0,1.3-.28,4.69,4.69,0,0,0,1.23-.29,8.1,8.1,0,0,0,1.82-.33,8.6,8.6,0,0,0,1.59-.31,4.57,4.57,0,0,0,1.54-.41,8,8,0,0,0,1.82-.31,22.61,22.61,0,0,0,2.47-.54c.31-.1.65-.1,1-.19s.51,0,.77-.15.46.05.69-.13.49,0,.76-.14a3.87,3.87,0,0,1,1-.18c.6-.05,1.14-.29,1.74-.35A8.68,8.68,0,0,0,342,387a21,21,0,0,0,2.47-.56c.28-.11.59-.07.9-.16a9.49,9.49,0,0,1,1.31-.26,7,7,0,0,0,1.33-.25c.78-.26,1.6-.31,2.39-.54.42-.12.88-.16,1.33-.24a8.82,8.82,0,0,0,1.24-.26c.83-.25,1.72-.25,2.53-.57.65,0,1.23-.37,1.89-.32,0,0,.09-.08.18-.15Z" transform="translate(-258.05 -371.23)"/><path class="cls-2" d="M259.07,389.52l8.7-1.8a5.58,5.58,0,0,0-.15,1.91c0,.88,0,1.75,0,2.62a2.37,2.37,0,0,0,.54,1.58,3.8,3.8,0,0,0,1.1.92,8.52,8.52,0,0,0,1.78.78A17.77,17.77,0,0,0,273,396a14.4,14.4,0,0,0,2.27.12c.31,0,.62-.05.94-.07a2.31,2.31,0,0,0,.85-.1c.28-.16.64,0,.86-.27a4,4,0,0,0,1.78-.58,5.69,5.69,0,0,0,1.52-1.06,2.29,2.29,0,0,0,.68-1.67c0-1.22,0-2.44,0-3.66a2.35,2.35,0,0,0-.51-1.52,4.33,4.33,0,0,0-2-1.4,4.68,4.68,0,0,1-.63-.34c3.74-.68,7.31-1.46,10.94-2.15a3.58,3.58,0,0,0-.15,1.53v1.73c0,.55,0,1.1,0,1.64a2.06,2.06,0,0,0,.59,1.25,5.13,5.13,0,0,0,1.12.88,7,7,0,0,0,1.59.7,13.87,13.87,0,0,0,2.12.49c.87.15,1.72,0,2.57.12.44,0,.83-.2,1.28-.18a4,4,0,0,0,1.15-.28,5.92,5.92,0,0,0,1.2-.34,6.84,6.84,0,0,0,2-1.41,2,2,0,0,0,.54-1.28c0-1.42,0-2.84,0-4.26a2,2,0,0,0-.42-1,3.42,3.42,0,0,0-1.13-1.08,5,5,0,0,0-1.31-.63c-.07,0-.11-.12-.18-.19l10.76-2.14c0,.4-.07.83-.08,1.25,0,1.1,0,2.2,0,3.29a2.22,2.22,0,0,0,.58,1.56,5.37,5.37,0,0,0,2,1.35c.7.33,1.48.39,2.17.72h.07c.58.05,1.16.12,1.74.15a9,9,0,0,0,1.72,0,15,15,0,0,0,1.88-.31,11.1,11.1,0,0,0,1.71-.58,6,6,0,0,0,1.64-1.1,2.41,2.41,0,0,0,.75-1.79c0-1.23,0-2.45,0-3.67a2.42,2.42,0,0,0-.58-1.56,4.47,4.47,0,0,0-2-1.3,3.5,3.5,0,0,1-.42-.24v-.11l10.72-2.14c0,.31-.09.61-.09.91,0,1.22,0,2.45,0,3.67a2.33,2.33,0,0,0,.65,1.6,5.8,5.8,0,0,0,1.93,1.28c.7.36,1.49.38,2.18.72.51-.1,1,.16,1.51.15s1,0,1.57,0a7.48,7.48,0,0,0,1.5-.15,10.34,10.34,0,0,0,2.71-.87,6.13,6.13,0,0,0,1.57-1.11,2.19,2.19,0,0,0,.61-1.54c0-1.25,0-2.5,0-3.75a2.29,2.29,0,0,0-.5-1.51,4.7,4.7,0,0,0-2-1.41c-.16-.06-.46,0-.48-.36l1.19-.21,11.65,11.65c-.83,0-1.63.4-2.51.49-.5.05-1,.21-1.52.3a11.13,11.13,0,0,0-1.44.3c-.79.26-1.6.36-2.39.54-.61.14-1.26.24-1.88.36a10.17,10.17,0,0,0-1.63.39c-.29.1-.61,0-.91.16a2.62,2.62,0,0,1-.9.17,2.7,2.7,0,0,0-1,.18c-.29.16-.65,0-.87.27a8.16,8.16,0,0,0-1.82.31,15.9,15.9,0,0,0-2.46.55c-.29.11-.64-.06-.9.19-.69,0-1.34.35-2,.3-.51.27-1.13.12-1.61.45a7.46,7.46,0,0,0-1.82.31,16,16,0,0,0-2.47.55c-.29.11-.63-.07-.89.19-.91,0-1.75.43-2.66.45a8.76,8.76,0,0,1-1.62.42c-.32.11-.7,0-1.05.16s-.77,0-1,.19-.75-.05-1,.27c-.64-.08-1.2.28-1.82.33a1.91,1.91,0,0,0-.82.15c-.29.21-.63,0-.89.21s-.6-.09-.81.21c-.64-.08-1.2.28-1.82.33a1.77,1.77,0,0,0-.82.15c-.3.22-.63,0-.9.21s-.59-.1-.81.21a5.63,5.63,0,0,0-1.81.34,9.3,9.3,0,0,0-1.78.39c-.31.12-.7,0-1.05.16s-.72,0-1,.18-.65,0-1,.24-.59.1-.89.17c-.92.21-1.84.38-2.75.59-.62.14-1.27.21-1.89.35a14.22,14.22,0,0,0-2.39.54,6.5,6.5,0,0,1-.9.16c-.43.1-.87.21-1.31.27a7,7,0,0,0-1.33.23,22.81,22.81,0,0,1-2.39.54c-.62.14-1.26.24-1.89.36a10.59,10.59,0,0,0-1.62.39,8.19,8.19,0,0,1-.91.16c-.65.17-1.32.3-2,.44s-1.27.22-1.89.36a13.09,13.09,0,0,0-2.39.53,6.5,6.5,0,0,1-.9.16,11.43,11.43,0,0,1-1.32.27,6.17,6.17,0,0,0-1.32.24c-.79.26-1.6.35-2.39.53-.62.15-1.26.25-1.89.36a12,12,0,0,0-1.63.39,4.42,4.42,0,0,1-.91.15Z" transform="translate(-258.05 -371.23)"/><path class="cls-3" d="M270.14,401.61v21.24l-11.63-11.63V390Z" transform="translate(-258.05 -371.23)"/><path class="cls-2" d="M333.83,374.24c.47-.33.79-.8,1.27-1.13a6.81,6.81,0,0,1,1.77-.79,10.35,10.35,0,0,1,2.34-.48,11.22,11.22,0,0,1,2.09,0,10.26,10.26,0,0,1,3.52.89,8.11,8.11,0,0,1,1.17.61,2.49,2.49,0,0,1,1,1.45,1.71,1.71,0,0,1-.44,1.45,5.3,5.3,0,0,1-2,1.29c-.58.25-1.21.32-1.79.56a.71.71,0,0,1-.21,0,16,16,0,0,1-2.93.14,10.29,10.29,0,0,1-4.37-1.18,2.7,2.7,0,0,1-1.47-1.62,1,1,0,0,1,0-.81A2.71,2.71,0,0,0,333.83,374.24Z" transform="translate(-258.05 -371.23)"/><path class="cls-2" d="M311.93,378.77c.51-.39.84-.88,1.36-1.2a10.63,10.63,0,0,1,1.84-.79c.32-.13.69-.15,1-.26s.73.07,1-.2h2.55c.3.24.65.1,1,.16a7,7,0,0,1,.92.29c.31.1.61.22.93.29a5,5,0,0,1,1.66.85,2.24,2.24,0,0,1,.87,1.35,1.68,1.68,0,0,1-.47,1.51,5.2,5.2,0,0,1-1.95,1.24c-.57.26-1.2.35-1.79.56l-.13,0c-.55.05-1.11.12-1.66.14a7.61,7.61,0,0,1-1.72,0,12.24,12.24,0,0,1-2.14-.41,11.84,11.84,0,0,1-1.92-.77,2.61,2.61,0,0,1-1.42-1.59c-.08-.32-.19-.58,0-.88C312,379,311.93,378.9,311.93,378.77Z" transform="translate(-258.05 -371.23)"/><path class="cls-2" d="M290.08,383.26a16.38,16.38,0,0,1,1.35-1.2,9.72,9.72,0,0,1,1.85-.79c.32-.13.68-.15,1-.26s.74.07,1-.2h2.54c.3.24.66.1,1,.16a8.78,8.78,0,0,1,1,.29c.31.1.62.18.92.31a4,4,0,0,1,2.14,1.5,1.69,1.69,0,0,1,.32,1.06,2,2,0,0,1-.43,1.09,5.47,5.47,0,0,1-2,1.29c-.57.26-1.2.34-1.78.56a.35.35,0,0,1-.14,0c-.55,0-1.1.12-1.66.15a10.84,10.84,0,0,1-1.71,0,10.72,10.72,0,0,1-4-1.17,2.73,2.73,0,0,1-1.47-1.62c-.09-.32-.2-.58,0-.87C290.12,383.52,290.08,383.39,290.08,383.26Z" transform="translate(-258.05 -371.23)"/><path class="cls-2" d="M274.73,391.74a10.46,10.46,0,0,1-1.12,0c-.33,0-.64-.15-1-.15a3.68,3.68,0,0,1-1-.21c-.31-.09-.61-.22-.92-.31a6,6,0,0,1-1.67-.82,2.42,2.42,0,0,1-1-1.44,1.27,1.27,0,0,1,.36-1.25,6.61,6.61,0,0,1,1.15-1,9,9,0,0,1,1.85-.77c.64-.22,1.33-.23,2-.45a.55.55,0,0,1,.22,0c.58,0,1.15,0,1.72,0a7.6,7.6,0,0,1,1.66.16,10.17,10.17,0,0,1,3.39,1.35,2.3,2.3,0,0,1,1,1.47,1.76,1.76,0,0,1-.45,1.44A5.25,5.25,0,0,1,279,391c-.59.27-1.25.34-1.85.59a.32.32,0,0,1-.14,0l-2.25.2Z" transform="translate(-258.05 -371.23)"/><path class="cls-1" d="M333.65,376.49a5.37,5.37,0,0,0,1.58,1.15,6.45,6.45,0,0,0,1.69.62,4.67,4.67,0,0,0,1.81.31,2.38,2.38,0,0,0,1.29.14,10,10,0,0,0,1.34,0c.61-.07,1.22-.17,1.82-.3a7.77,7.77,0,0,0,1.66-.5,5.74,5.74,0,0,0,2.14-1.54c0,1,.06,1.95,0,2.86a2.1,2.1,0,0,1-1,1.43,7.36,7.36,0,0,1-2.05,1,10.65,10.65,0,0,1-1.8.38,15.15,15.15,0,0,1-2.33.11,2.17,2.17,0,0,1-.94-.08A5.9,5.9,0,0,0,338,382a7.11,7.11,0,0,1-.85-.29l-.79-.23a5.08,5.08,0,0,1-1.68-.83,2.24,2.24,0,0,1-1-1.87Z" transform="translate(-258.05 -371.23)"/><path class="cls-1" d="M325.09,380.91v3a6.47,6.47,0,0,1-.51.78,5.27,5.27,0,0,1-1.82,1.19c-.3.16-.67.19-1,.32s-.66.06-.92.29h-.08c-.57.05-1.15.12-1.73.15a7.51,7.51,0,0,1-1.71,0,13.5,13.5,0,0,1-2.07-.4c-.64-.26-1.3-.45-1.93-.76a3.32,3.32,0,0,1-1.33-1.24,1.16,1.16,0,0,1-.2-.59c0-.89,0-1.78,0-2.69a4.33,4.33,0,0,0,1.54,1.19,6.14,6.14,0,0,0,1.68.61,4.54,4.54,0,0,0,1.82.31,2.33,2.33,0,0,0,1.28.14,8.69,8.69,0,0,0,1.35,0,13.67,13.67,0,0,0,1.81-.3,7.6,7.6,0,0,0,1.66-.5,5.63,5.63,0,0,0,1.88-1.25A2.3,2.3,0,0,1,325.09,380.91Z" transform="translate(-258.05 -371.23)"/><path class="cls-1" d="M303.25,385.34c0,.92,0,1.66,0,2.41a2.2,2.2,0,0,1-1.06,1.91,7.06,7.06,0,0,1-2,1,10.34,10.34,0,0,1-1.79.39,14,14,0,0,1-2.33.12,12,12,0,0,1-1.8-.16,12.22,12.22,0,0,1-1.66-.51,6.59,6.59,0,0,1-1.55-.77,2.34,2.34,0,0,1-1.15-2.14c0-.69,0-1.38,0-2.21a4.16,4.16,0,0,0,1.51,1.22,8.08,8.08,0,0,0,1.73.68c.36.09.72.18,1.08.29s.7,0,1.06.13a7.46,7.46,0,0,0,1.64,0,11.77,11.77,0,0,0,4.08-.77A4.85,4.85,0,0,0,303.25,385.34Z" transform="translate(-258.05 -371.23)"/><path class="cls-1" d="M281.38,389.86v3.06a7.2,7.2,0,0,1-.64.89,5.46,5.46,0,0,1-1.79,1.08c-.58.26-1.2.35-1.79.56l-.13,0c-.56.05-1.11.12-1.66.14a8.24,8.24,0,0,1-1.72,0,11.82,11.82,0,0,1-2-.37,11,11,0,0,1-1.87-.7,3.17,3.17,0,0,1-1.38-1.19,2.15,2.15,0,0,1-.31-.91c0-.82,0-1.64,0-2.58a5.71,5.71,0,0,0,1.37,1.1,13.79,13.79,0,0,0,1.92.78c.67.23,1.4.2,2.06.44a1.15,1.15,0,0,0,.37,0h1.57a9.64,9.64,0,0,0,2.34-.32,7,7,0,0,0,1.64-.54A5.88,5.88,0,0,0,281.38,389.86Z" transform="translate(-258.05 -371.23)"/></svg>