<svg id="Layer_1" data-name="Layer 1" xmlns="http://www.w3.org/2000/svg" viewBox="0 0 100 42.85"><defs><style>.cls-1{fill:#fff;}</style></defs><path d="M356,388.52v15.66c-.47.12-.94.18-1.39.32a2.55,2.55,0,0,1-.68.12,4.89,4.89,0,0,0-.78.14c-.26.06-.54.1-.81.18l-.75.19-.68.13a13.88,13.88,0,0,0-1.81.39c-.2.07-.42,0-.64.12a2.07,2.07,0,0,1-.62.11l-.59.11c-.21,0-.4.17-.63.1a19,19,0,0,1-2,.43,9.24,9.24,0,0,0-1.65.4,5.29,5.29,0,0,0-1.32.23,18.47,18.47,0,0,0-2.3.49,5.48,5.48,0,0,1-.63.11c-.49.11-1,.19-1.48.31-.3.07-.61.1-.91.2s-.61,0-.88.13a15.47,15.47,0,0,0-1.66.41,5.3,5.3,0,0,0-1.31.23,8.77,8.77,0,0,0-1.67.38c-.19.07-.42,0-.63.11a2.6,2.6,0,0,1-.63.11l-.58.11a4.38,4.38,0,0,1-.63.12c-.18,0-.36.14-.55.18a2.32,2.32,0,0,0-.63.11,4.14,4.14,0,0,1-.63.11l-.58.1a3.29,3.29,0,0,1-.64.12c-.18,0-.35.15-.54.18s-.42.08-.63.1c-.41.05-.81.17-1.21.24a5.7,5.7,0,0,0-1.19.28,3.8,3.8,0,0,1-.62.11c-.5.12-1,.19-1.49.31-.3.07-.61.11-.91.21s-.6,0-.88.13-.54.1-.81.19-.57,0-.83.12-.79.08-1.13.31a7.55,7.55,0,0,0-1.32.21,3.33,3.33,0,0,0-1.05.22c-.24.12-.48,0-.71.17s-.55,0-.77.14-.53,0-.77.18-.27,0-.41,0-.21.07-.32.09a2.93,2.93,0,0,0-.68.13,1.31,1.31,0,0,1-.38.09c-.12,0-.25.08-.37.1a2.11,2.11,0,0,0-.73.12c-.23.14-.52,0-.71.19a6.05,6.05,0,0,0-1.26.22,7,7,0,0,0-1.11.22,3.27,3.27,0,0,0-1.07.29,5.45,5.45,0,0,0-1.27.22,12.53,12.53,0,0,0-1.72.37c-.2.08-.44,0-.62.14a13.88,13.88,0,0,0-1.84.33c-.55.16-1.11.25-1.66.38l-1.32.25a7.67,7.67,0,0,0-1.13.26c-.2.08-.42,0-.63.12a1.86,1.86,0,0,1-.63.12,2,2,0,0,0-.67.12c-.2.13-.46,0-.61.19a5.46,5.46,0,0,0-1.26.22,11.24,11.24,0,0,0-1.72.38c-.2.07-.41,0-.63.11s-.55,0-.77.14-.55,0-.76.19a4.25,4.25,0,0,0-1.32.22c-.6.16-1.21.27-1.81.38a7.86,7.86,0,0,1-1.79.34c-.16.15-.38,0-.53.12s-.39,0-.52.1-.37.06-.54.1c-.35.08-.72.12-1.05.23s-.48.07-.72.16a5.24,5.24,0,0,1-.91.19,5.35,5.35,0,0,0-.92.16c-.55.19-1.12.2-1.66.39a2.26,2.26,0,0,1-.58.09c-.21,0-.38.14-.58.13a2.85,2.85,0,0,0-.58.12,7.36,7.36,0,0,0-.91.19c-.28.09-.59,0-.85.21a5.07,5.07,0,0,0-1.27.23,4.13,4.13,0,0,0-.9.19c-.28.09-.59,0-.85.2-.43-.06-.8.2-1.22.22a7.26,7.26,0,0,0-.9.2,4,4,0,0,0-.91.2,1.12,1.12,0,0,1-.41,0L256,414.49V399a1.61,1.61,0,0,1,.54-.2c.6,0,1.14-.32,1.74-.32.18-.22.44-.05.66-.17a2.15,2.15,0,0,1,.72-.15,3.11,3.11,0,0,0,.69-.11c.53-.21,1.11-.21,1.65-.4a5.2,5.2,0,0,1,.94-.13,3.45,3.45,0,0,1,1.1-.88,4.41,4.41,0,0,1,1.16-.44c.42-.1.85-.16,1.26-.25a8.12,8.12,0,0,1,1.84-.06,2.94,2.94,0,0,1,1,.17,1,1,0,0,0,.56,0c.4-.16.84-.14,1.24-.29a5.57,5.57,0,0,1,.73-.11,12.34,12.34,0,0,0,1.34-.3,2.6,2.6,0,0,1,.63-.11c.41,0,.8-.16,1.21-.24a4.41,4.41,0,0,0,1.18-.28c.15-.09.38.07.52-.12a6.36,6.36,0,0,0,1.22-.21h.3c.05-.05.12-.17.21-.27a4.36,4.36,0,0,1,2.11-1.08c.4-.1.81-.15,1.21-.23a5.08,5.08,0,0,1,.95-.08,2.68,2.68,0,0,1,1,0c.29.09.61,0,.86.18.23,0,.46.07.7-.07s.41,0,.62-.12a5.86,5.86,0,0,1,.84-.12c.53-.13,1.06-.22,1.58-.33.24-.05.47-.13.71-.19l.63-.1.58-.11a6.38,6.38,0,0,0,.63-.12c.33-.08.67-.16,1-.22l1-.2a5.06,5.06,0,0,1,.6-.09,3.11,3.11,0,0,1,1.12-.91,6.28,6.28,0,0,1,1.17-.44,10.75,10.75,0,0,1,1.48-.29,11.61,11.61,0,0,1,1.77,0c.25.21.57.07.86.19a1.76,1.76,0,0,0,1.08-.13c.24-.06.51,0,.71-.16a17.18,17.18,0,0,0,2-.4c.43-.1.88-.15,1.31-.25a7.93,7.93,0,0,0,1.67-.38c.16-.07.38.07.52-.11.51,0,1-.24,1.49-.22a3.19,3.19,0,0,1,1.12-.91,6.56,6.56,0,0,1,1.17-.44,14.55,14.55,0,0,1,1.49-.3,5.14,5.14,0,0,1,1.24,0c.23,0,.46-.08.7.08s.44-.08.63.12c.23,0,.47.07.7-.07s.37,0,.57-.12a3.7,3.7,0,0,1,.84-.12c.56-.11,1.11-.23,1.67-.36a3.92,3.92,0,0,1,.66-.15,9.35,9.35,0,0,0,.92-.18,6.68,6.68,0,0,0,.93-.16c.53-.17,1.08-.2,1.61-.38a4.72,4.72,0,0,1,1-.14,3,3,0,0,1,1.11-.89,7,7,0,0,1,1.21-.46c.48-.12,1-.14,1.44-.29a1.81,1.81,0,0,1,.57,0,6.59,6.59,0,0,1,1.09,0,7.73,7.73,0,0,1,1,.18,2.63,2.63,0,0,0,1.14-.13,4,4,0,0,1,.66-.16,5.63,5.63,0,0,0,1.42-.24l1.66-.37,1.31-.25a6.2,6.2,0,0,0,1.13-.27c.17-.07.35,0,.54-.09a4.53,4.53,0,0,1,1-.17,3.25,3.25,0,0,1,1.09-.87,4.34,4.34,0,0,1,1.17-.44c.41-.1.85-.15,1.26-.25a12,12,0,0,1,1.89-.07,1.72,1.72,0,0,1,.48.1,2.26,2.26,0,0,1,.43.07.8.8,0,0,0,.69,0c.18-.11.42.08.57-.14l1-.12Zm-91.24,19.11v15.06c.1-.05.16-.12.23-.12a11.37,11.37,0,0,0,1.54-.32c.6-.15,1.23-.22,1.85-.32.17-.18.41-.07.62-.14a14.09,14.09,0,0,1,1.71-.38,5,5,0,0,1,1.27-.21,3.09,3.09,0,0,1,1.08-.29c.35-.1.73-.14,1.1-.23s.59-.08.88-.15a7.7,7.7,0,0,0,.86-.19c.25-.09.51,0,.76-.17s.54,0,.78-.13.41,0,.58-.1a10.91,10.91,0,0,1,1.76-.4c.51-.12,1-.18,1.54-.32a3.71,3.71,0,0,0,.68-.12c.21-.11.46,0,.62-.12s.49,0,.66-.18a14.11,14.11,0,0,0,1.44-.29c.63-.12,1.26-.24,1.9-.34a2.75,2.75,0,0,0,.67-.12,10.83,10.83,0,0,1,1.09-.27c.36-.09.74-.14,1.11-.22s.58-.1.87-.16l.87-.18c.49-.11,1-.19,1.48-.3a3.71,3.71,0,0,0,.63-.12,4.89,4.89,0,0,1,1.19-.27c.4-.08.79-.2,1.21-.25.2,0,.42-.06.63-.1s.36-.18.54-.18a4.5,4.5,0,0,0,.64-.11l.58-.11a4.37,4.37,0,0,0,.63-.11,2.78,2.78,0,0,1,.63-.11c.19,0,.36-.18.54-.18a3.29,3.29,0,0,0,.64-.12l.58-.1a3.19,3.19,0,0,0,.63-.12c.21-.08.44,0,.63-.11s.51-.13.75-.2.55-.12.81-.17a5.22,5.22,0,0,1,.79-.14,3,3,0,0,0,.67-.12c.62-.19,1.25-.27,1.87-.4a5.86,5.86,0,0,0,.63-.12,11,11,0,0,1,1.61-.37c.45-.09.9-.19,1.37-.24a3.76,3.76,0,0,0,.67-.12c.62-.19,1.25-.26,1.87-.41.23-.06.48-.1.71-.15l1.1-.25a3.85,3.85,0,0,1,.68-.1,5.27,5.27,0,0,0,.69-.14,2.8,2.8,0,0,0,.58-.09,5.49,5.49,0,0,1,1.13-.28c.43-.08.88-.15,1.31-.25a15.89,15.89,0,0,0,1.66-.37,5.29,5.29,0,0,1,.93-.17,7.32,7.32,0,0,0,.91-.18,6.37,6.37,0,0,0,.63-.11,10.5,10.5,0,0,1,1.66-.38c.43-.09.89-.15,1.31-.25.64-.14,1.28-.26,1.92-.41a4.35,4.35,0,0,0,.63-.1,6.22,6.22,0,0,1,1.13-.28c.43-.08.88-.15,1.31-.25s1.12-.19,1.66-.37a4.51,4.51,0,0,1,.93-.17,7.36,7.36,0,0,0,.91-.19,4.35,4.35,0,0,0,.63-.1,8.68,8.68,0,0,1,1.66-.38,4.93,4.93,0,0,1,1.32-.22,8,8,0,0,1,1.81-.41c.43-.08.89-.14,1.31-.24.64-.15,1.28-.26,1.91-.41a5.48,5.48,0,0,0,.63-.11,5.72,5.72,0,0,1,1.14-.27l1.31-.25c.55-.13,1.11-.21,1.66-.38a5.54,5.54,0,0,1,.92-.17,7.12,7.12,0,0,0,.92-.18,4.37,4.37,0,0,0,.63-.11,4.05,4.05,0,0,1,1.13-.27,6,6,0,0,1,1.32-.23c.19-.2.47-.06.7-.19a2.86,2.86,0,0,1,.73-.12c.25-.06.49-.16.71-.23v-15a3.52,3.52,0,0,0-.58.09,12.56,12.56,0,0,1-1.72.38,6.05,6.05,0,0,1-1.26.22c-.16.19-.41.08-.6.19a2.42,2.42,0,0,1-.68.12,2.13,2.13,0,0,0-.63.11c-.21.12-.43,0-.63.12a9.5,9.5,0,0,1-1.66.38,5.44,5.44,0,0,1-1.32.22c-.16.18-.43,0-.59.21-.25-.08-.45.1-.69.11a1.59,1.59,0,0,0-.62.11,2.46,2.46,0,0,1-.64.11c-.42.12-.85.22-1.28.3a3.18,3.18,0,0,0-.67.13c-.24.11-.49,0-.72.16a2.45,2.45,0,0,1-.78.12,5.88,5.88,0,0,0-.73.14,14.22,14.22,0,0,1-1.72.37,5,5,0,0,1-1.26.22c-.15.2-.41.08-.6.19a1.87,1.87,0,0,1-.68.12,2.13,2.13,0,0,0-.63.12c-.21.12-.43.05-.63.12a10.05,10.05,0,0,1-1.71.38,5.45,5.45,0,0,1-1.27.22,3.34,3.34,0,0,1-1.07.29c-.36.09-.74.14-1.11.22s-.59.08-.88.15-.59.11-.86.19c-.63.18-1.29.19-1.92.39a8.79,8.79,0,0,1-.87.15c-.29.07-.59.11-.87.19-.58.17-1.19.18-1.76.4-.65,0-1.25.3-1.9.31a9.16,9.16,0,0,1-1.28.3c-.15.05-.32.06-.48.11s-.31,0-.48.1a3.57,3.57,0,0,1-.68.12l-1.16.22a8.64,8.64,0,0,0-.85.19c-.28.08-.57.15-.86.21a6.13,6.13,0,0,1-1.21.21c-.18.16-.43.13-.65.2s-.51,0-.72.13a3.73,3.73,0,0,1-.64.11,4.88,4.88,0,0,1-.86.19,5.05,5.05,0,0,0-.78.11c-.19,0-.37.18-.55.18a3.34,3.34,0,0,0-.63.12l-.58.1a3.19,3.19,0,0,0-.63.12c-.21.08-.44,0-.63.11-.61.2-1.25.27-1.87.41a4.14,4.14,0,0,0-.63.11,7.32,7.32,0,0,1-.9.21c-.32.06-.64.12-1,.2l-.67.13c-.38.09-.76.22-1.14.27a8.44,8.44,0,0,1-1.32.21c-.15.21-.41,0-.56.15s-.36,0-.54.1a2.07,2.07,0,0,1-.55.17,3.08,3.08,0,0,0-.83.12c-.27.15-.59,0-.81.19a14.13,14.13,0,0,0-1.7.32,6.41,6.41,0,0,1-1.16.21c-.21.19-.5.09-.75.19a4.07,4.07,0,0,1-.79.12,6.63,6.63,0,0,0-.67.13,11.85,11.85,0,0,1-1.67.37c-.43.1-.88.15-1.31.25-.64.15-1.28.26-1.91.41a6.37,6.37,0,0,0-.63.11,15.9,15.9,0,0,1-2,.48,8.31,8.31,0,0,1-1.79.33c-.22.19-.51.1-.75.2a5,5,0,0,1-.79.12,3.61,3.61,0,0,0-.67.13,5.7,5.7,0,0,1-1.14.26l-1.31.25c-.55.12-1.11.23-1.66.38-.31.08-.64.13-1,.19l-1,.22a6.19,6.19,0,0,1-.62.13l-.59.1a2.6,2.6,0,0,0-.63.12c-.21.1-.43,0-.63.11a13.91,13.91,0,0,1-1.81.4,4.81,4.81,0,0,0-.68.13,11.5,11.5,0,0,1-1.13.26,5.37,5.37,0,0,1-1.32.23C265.35,407.56,265,407.32,264.76,407.63Zm5.71-11.28.33.15a3.09,3.09,0,0,1,1.42,1,1.57,1.57,0,0,1,.34,1.06c0,.83,0,1.67,0,2.5a1.65,1.65,0,0,1-.52,1.25,4.45,4.45,0,0,1-1.19.78,8.34,8.34,0,0,1-2.5.62,6.87,6.87,0,0,1-1.2,0c-.38,0-.77-.06-1.15-.1l-.09,0a15.78,15.78,0,0,1-1.52-.48,3.34,3.34,0,0,1-1.37-1,1.62,1.62,0,0,1-.37-1.05c0-.87,0-1.73,0-2.6a2.57,2.57,0,0,1,0-.4,1.06,1.06,0,0,1,0-.19l-6.1,1.26,8.09,8.09a2.71,2.71,0,0,0,.61-.11c.19-.07.43,0,.57-.11s.42-.05.61-.17a1.65,1.65,0,0,1,.68-.12,2.13,2.13,0,0,0,.63-.12c.21-.12.43-.05.63-.12a7.43,7.43,0,0,1,1.13-.27c.44-.08.89-.15,1.31-.25l1.67-.37a11.25,11.25,0,0,1,1.84-.33c.18-.18.42-.08.62-.14a6.3,6.3,0,0,1,1.14-.27,7.28,7.28,0,0,1,1.32-.22c.15-.2.4-.07.6-.19a2,2,0,0,1,.67-.12,1.86,1.86,0,0,0,.63-.12c.21-.11.43,0,.63-.11a6.62,6.62,0,0,1,1.13-.27l1.32-.25,1.66-.37a10.29,10.29,0,0,1,1.84-.34c.18-.18.42-.06.62-.13a11.5,11.5,0,0,1,1.72-.38,5.45,5.45,0,0,1,1.27-.22c.34-.23.77-.12,1.12-.31.49,0,.94-.22,1.42-.21.18-.18.42-.06.62-.14a12.53,12.53,0,0,1,1.72-.37,5.45,5.45,0,0,1,1.27-.22c.15-.18.4-.09.59-.19a2.16,2.16,0,0,1,.68-.12,1.81,1.81,0,0,0,.63-.12c.21-.12.42-.05.63-.12a12.41,12.41,0,0,1,1.24-.28,5.4,5.4,0,0,0,.72-.13c.41-.15.84-.16,1.24-.28a8.28,8.28,0,0,0,.89-.13,12.07,12.07,0,0,1,1.66-.38c.65-.16,1.32-.22,2-.43a4.4,4.4,0,0,1,.74-.11,1.73,1.73,0,0,1,.68-.1c.19-.23.51,0,.7-.21a3.79,3.79,0,0,0,1-.21c.35-.09.72-.09,1.07-.2s.57,0,.83-.12.57-.16.85-.22c.5-.11,1-.19,1.49-.31a3.19,3.19,0,0,0,.63-.11,10.76,10.76,0,0,1,1.66-.38,5.28,5.28,0,0,1,1.32-.22,7.23,7.23,0,0,1,1.65-.4c.65-.16,1.31-.28,2-.42s1.26-.24,1.89-.33a5.23,5.23,0,0,1,.69-.12c.18,0,.36-.18.54-.18a3.34,3.34,0,0,0,.63-.12l.59-.1a4.37,4.37,0,0,0,.63-.11,2.78,2.78,0,0,1,.63-.11c.18,0,.36-.18.54-.18a4.52,4.52,0,0,0,.64-.12l.58-.11a2.6,2.6,0,0,0,.63-.11c.21-.09.44,0,.63-.12a4.9,4.9,0,0,1,1.13-.27,6.52,6.52,0,0,1,1.32-.23c.19-.15.44,0,.63-.11a10.36,10.36,0,0,1,1.13-.28,5.54,5.54,0,0,1,.92-.17,7.15,7.15,0,0,0,.92-.19,4.35,4.35,0,0,0,.63-.1,10.5,10.5,0,0,1,1.66-.38,5.28,5.28,0,0,1,1.32-.22,7.41,7.41,0,0,1,1.81-.4c.43-.1.88-.15,1.31-.25.63-.15,1.28-.26,1.91-.41a6.37,6.37,0,0,0,.63-.11,6.62,6.62,0,0,1,1.13-.27l1.31-.25c.55-.13,1.12-.2,1.67-.38a5.35,5.35,0,0,1,.92-.17,6.66,6.66,0,0,0,.91-.18,3.93,3.93,0,0,0,.63-.11,4.12,4.12,0,0,1,1.14-.27c.43-.08.87-.2,1.31-.24a5.31,5.31,0,0,0,1-.21c.32-.11.67-.11,1-.23l-8.09-8.08-.9.15c.08.08.11.13.16.15a6.9,6.9,0,0,1,.87.41,2.47,2.47,0,0,1,.73.63,1.48,1.48,0,0,1,.39.93c0,.95,0,1.91,0,2.86a1.31,1.31,0,0,1-.26.78,4.31,4.31,0,0,1-1.6,1.16,2.82,2.82,0,0,1-.64.21,5.75,5.75,0,0,0-.72.15c-.24.1-.5,0-.69.08s-.5.06-.75.08a9.32,9.32,0,0,1-1.83-.1.39.39,0,0,1-.15,0,12.31,12.31,0,0,1-1.56-.5,3.46,3.46,0,0,1-1.37-1,1.65,1.65,0,0,1-.34-1c0-1,0-2,0-2.88l.14-.27-7.53,1.5v.08a2,2,0,0,0,.29.16,3,3,0,0,1,1.39.91,1.66,1.66,0,0,1,.41,1.08c0,.85,0,1.7,0,2.55a1.65,1.65,0,0,1-.51,1.25,4.37,4.37,0,0,1-1.15.77,7.8,7.8,0,0,1-1.18.4,9.82,9.82,0,0,1-1.32.22,5.91,5.91,0,0,1-1.19,0c-.41,0-.81-.07-1.21-.1h0c-.48-.23-1-.27-1.51-.5a3.94,3.94,0,0,1-1.38-.94,1.53,1.53,0,0,1-.4-1.09c0-.76,0-1.53,0-2.29,0-.29,0-.59.05-.87-2.47.48-4.95,1-7.5,1.48.06.06.09.12.14.14a6.3,6.3,0,0,1,.87.41,2.59,2.59,0,0,1,.77.66,1.43,1.43,0,0,1,.35.89c0,1,0,1.91,0,2.87a1.33,1.33,0,0,1-.38.93,3.75,3.75,0,0,1-1.38,1,8.1,8.1,0,0,1-2.62.58,10.43,10.43,0,0,1-2.09-.1h-.15c-.5-.19-1-.28-1.52-.5a3.59,3.59,0,0,1-1.41-1,1.57,1.57,0,0,1-.34-1.06c0-.85,0-1.7,0-2.55a5.73,5.73,0,0,1,.07-.58c-2.48.46-5,1-7.46,1.46l0,.1a2.09,2.09,0,0,0,.29.16,3,3,0,0,1,1.39.91,1.61,1.61,0,0,1,.41,1.08q0,1.27,0,2.55a1.68,1.68,0,0,1-.51,1.25,5.92,5.92,0,0,1-1,.68,4.52,4.52,0,0,1-1.4.5,6,6,0,0,1-1.63.22,11.19,11.19,0,0,1-1.63-.08,10.2,10.2,0,0,1-1.43-.33,5.56,5.56,0,0,1-1.15-.5,3.05,3.05,0,0,1-.74-.59,1.63,1.63,0,0,1-.43-1.12c0-.78,0-1.57,0-2.35,0-.27,0-.55.06-.82l-7.49,1.49c.05.05.08.12.12.13a3.39,3.39,0,0,1,.92.44,2.46,2.46,0,0,1,.78.76,1.33,1.33,0,0,1,.29.71q0,1.49,0,3a1.4,1.4,0,0,1-.38.88,4.9,4.9,0,0,1-1.46,1,3.53,3.53,0,0,1-.74.22l-.75.19c-.25.06-.53.06-.79.1a6.51,6.51,0,0,1-1.25,0c-.4,0-.8-.07-1.21-.11h0c-.47-.21-1-.27-1.47-.49a3.08,3.08,0,0,1-1.58-1.2,1.2,1.2,0,0,1-.22-.63c0-.38,0-.77,0-1.15v-1.14a2.56,2.56,0,0,1,.1-1.07c-2.52.48-5,1-7.49,1.47Zm-6.06,26V407.56l-8.09-8.09v14.81Zm74.72-40.1c0,.07,0,.16,0,.21-.25.31-.07.62.05.88a1.78,1.78,0,0,0,.93.86c.18.07.33.2.51.27s.38.09.56.16a4.22,4.22,0,0,0,.6.2,3.7,3.7,0,0,0,.58.1c.2,0,.39.08.58.09a11,11,0,0,0,1.15,0c.38,0,.77-.06,1.15-.1,0,0,.08,0,.1,0a3.75,3.75,0,0,1,.65-.2c.21-.08.43-.12.64-.21a3.48,3.48,0,0,0,1.35-.88,1.27,1.27,0,0,0,.3-1.06,2.08,2.08,0,0,0-.75-1,3.73,3.73,0,0,0-1.12-.58,8.56,8.56,0,0,0-2-.45,8.18,8.18,0,0,0-1,0,1.65,1.65,0,0,0-.67,0c-.23.13-.47,0-.68.11s-.48.13-.7.2a5.39,5.39,0,0,0-1.29.53A9.15,9.15,0,0,0,339.13,382.27Zm-15.21,3.13c0,.07,0,.16,0,.2-.25.32-.07.62.05.89a1.73,1.73,0,0,0,.93.85c.22.09.43.22.66.31s.47.11.68.21a1.49,1.49,0,0,0,.75.19c.27,0,.49.13.74.12h1.15c.38,0,.77-.07,1.15-.1,0,0,.07,0,.1,0a2.86,2.86,0,0,1,.65-.19c.21-.08.43-.12.64-.21a3.67,3.67,0,0,0,1.35-.88,1.27,1.27,0,0,0,.3-1.06,2.15,2.15,0,0,0-.75-1,4.09,4.09,0,0,0-1.12-.57,7.19,7.19,0,0,0-3-.46c-.23,0-.5-.08-.67,0s-.47,0-.69.11-.47.12-.7.19a5.12,5.12,0,0,0-1.28.54A8.24,8.24,0,0,0,323.92,385.4Zm-15.21,3.12c0,.06,0,.13,0,.17-.22.39,0,.7.15,1.05a2.64,2.64,0,0,0,1.49,1,5.31,5.31,0,0,0,.64.21,4.33,4.33,0,0,0,.7.21c.23,0,.47,0,.68.11a19.09,19.09,0,0,0,2.51-.11h0c.41-.17.84-.22,1.25-.4a4,4,0,0,0,1.39-.89,1.24,1.24,0,0,0,.09-1.5,2.06,2.06,0,0,0-1-.82,7.36,7.36,0,0,0-3-.75h-1.09c-.09,0-.21,0-.25,0-.21.2-.46,0-.68.13s-.44.11-.66.18a5.67,5.67,0,0,0-1.33.55A11,11,0,0,0,308.71,388.52Zm-15.21,3.13c0,.06,0,.12,0,.16a1,1,0,0,0,.16,1.05,2.58,2.58,0,0,0,1.49,1,4.83,4.83,0,0,1,.64.22,3.43,3.43,0,0,0,.7.18c.21.07.47,0,.68.12a19.16,19.16,0,0,0,2.51-.1l0,0c.4-.17.84-.21,1.24-.39a3.83,3.83,0,0,0,1.4-.9,1.23,1.23,0,0,0,.09-1.49,2.06,2.06,0,0,0-1-.82,7.37,7.37,0,0,0-3-.76h-1.09c-.09,0-.21,0-.26,0s-.46,0-.68.12-.43.12-.65.19a5.89,5.89,0,0,0-1.33.54C294.08,391,293.83,391.39,293.5,391.65Zm-15.21,3.12c0,.09,0,.18,0,.22-.17.2-.09.39,0,.61a1.87,1.87,0,0,0,1,1.12,7.19,7.19,0,0,0,3,.83,11.63,11.63,0,0,0,2-.11.32.32,0,0,0,.14,0c.41-.15.85-.21,1.25-.39a3.55,3.55,0,0,0,1.39-.9,1.15,1.15,0,0,0,.3-1,1.82,1.82,0,0,0-.67-1,9.23,9.23,0,0,0-2-.85c-.36-.12-.74,0-1.07-.19h-1.72c-.21.18-.48.06-.72.13s-.52.11-.75.2a5.79,5.79,0,0,0-1.28.56C278.84,394.2,278.61,394.54,278.29,394.77Zm-10.65,1.4v0a2.81,2.81,0,0,0-.92,0c-.24.08-.47,0-.69.1s-.47.12-.7.19a5.6,5.6,0,0,0-1.29.54,8,8,0,0,0-.76.66,1.09,1.09,0,0,0-.29.61.93.93,0,0,0,.14.67,2,2,0,0,0,.93.86c.43.22.89.35,1.34.53a8.68,8.68,0,0,0,1.49.28,4.91,4.91,0,0,0,1.15,0c.38,0,.76-.07,1.15-.1,0,0,.08,0,.1,0,.19-.14.44-.11.65-.2s.43-.12.64-.21a3.55,3.55,0,0,0,1.35-.88,1.2,1.2,0,0,0,.31-1,1.62,1.62,0,0,0-.66-1,6.58,6.58,0,0,0-2.37-.94A11.45,11.45,0,0,0,267.64,396.17Zm80.66-12.45a3.9,3.9,0,0,1-1.49,1.08,4.93,4.93,0,0,1-1.15.34,9.09,9.09,0,0,1-1.27.21,5.78,5.78,0,0,1-.93,0,1.64,1.64,0,0,1-.9-.1,3.18,3.18,0,0,1-1.26-.21,4.68,4.68,0,0,1-1.17-.43,3.82,3.82,0,0,1-1.1-.8v1.59a1.59,1.59,0,0,0,.7,1.31,3.74,3.74,0,0,0,1.17.57l.55.16a4.56,4.56,0,0,0,.59.2,4,4,0,0,1,.61.05,1.46,1.46,0,0,0,.65.06,11,11,0,0,0,1.62-.08,7.1,7.1,0,0,0,1.25-.27,4.85,4.85,0,0,0,1.43-.69,1.48,1.48,0,0,0,.69-1C348.34,385.08,348.3,384.44,348.3,383.72Zm-24.48,3.08v1.73a1.55,1.55,0,0,0,.7,1.3,3.56,3.56,0,0,0,1.17.58l.55.16c.2.06.39.16.59.2a4,4,0,0,1,.61.05,1.6,1.6,0,0,0,.65.05,11,11,0,0,0,1.62-.07,7.1,7.1,0,0,0,1.25-.27,5.11,5.11,0,0,0,1.43-.69,1.47,1.47,0,0,0,.68-1c.06-.63,0-1.27,0-1.92-.26.21-.49.4-.73.57a4.42,4.42,0,0,1-.76.44,9,9,0,0,1-1.15.34,6.21,6.21,0,0,1-1.27.2,5.12,5.12,0,0,1-1.83-.09,3.19,3.19,0,0,1-1.26-.22,4.3,4.3,0,0,1-1.17-.42A2.67,2.67,0,0,1,323.82,386.8Zm-6,3.22a4.88,4.88,0,0,1-2.34,1.3c-.46.12-.93.19-1.39.27a6.11,6.11,0,0,1-1.76,0,12.19,12.19,0,0,1-1.44-.28,6,6,0,0,1-1.21-.45,2.6,2.6,0,0,1-1.08-.82c0,.63-.05,1.25,0,1.86a1.58,1.58,0,0,0,.2.49,2.29,2.29,0,0,0,1,.89,11.91,11.91,0,0,0,1.26.46,6.29,6.29,0,0,0,1.35.25,5.35,5.35,0,0,0,1.2,0c.4,0,.8-.06,1.2-.1,0,0,0,0,0,0,.19-.17.44-.11.65-.2s.47-.11.68-.22a3.73,3.73,0,0,0,1.27-.83,4.31,4.31,0,0,0,.36-.55Zm-24.47,3.19c0,.56,0,1.14,0,1.7a1.58,1.58,0,0,0,.22.64,2.2,2.2,0,0,0,1,.83,7.22,7.22,0,0,0,1.3.48,7.65,7.65,0,0,0,1.4.26,6.76,6.76,0,0,0,1.19,0c.39,0,.77-.07,1.16-.1l.09,0c.41-.15.84-.21,1.24-.39a3.66,3.66,0,0,0,1.29-.79,5.55,5.55,0,0,0,.42-.61v-2a.09.09,0,0,0,0-.05l0,0a4.1,4.1,0,0,1-1.36,1,5.32,5.32,0,0,1-1.15.37,7.28,7.28,0,0,1-1.62.23h-1a.76.76,0,0,1-.26,0c-.44-.18-.95-.06-1.38-.31a3,3,0,0,1-1.27-.43A3.42,3.42,0,0,1,293.39,393.21Zm-15.21,3.11v1.76a.67.67,0,0,0,.05.19,1.94,1.94,0,0,0,1,1.17c.44.22.9.34,1.35.52a5.17,5.17,0,0,0,1.44.28,8,8,0,0,0,2.67-.19,6.81,6.81,0,0,0,2-.84,1.45,1.45,0,0,0,.67-1c.06-.64,0-1.3,0-2.05a3,3,0,0,1-1.24,1,2.53,2.53,0,0,1-1.2.38c-.15.2-.4.06-.6.19s-.41,0-.59.07a2.06,2.06,0,0,1-.65.05,9,9,0,0,1-2.63-.3,5.56,5.56,0,0,1-1.22-.45A3.4,3.4,0,0,1,278.18,396.32Zm-5.94,3a3.55,3.55,0,0,1-1.2.93,7.1,7.1,0,0,1-1.88.6,4.62,4.62,0,0,1-1.05.11c-.36,0-.73,0-1.09,0-.11,0-.24,0-.31,0-.24-.16-.5,0-.74-.11l-.74-.2a5.73,5.73,0,0,1-1.21-.47,3,3,0,0,1-1-.85c0,.58,0,1.06,0,1.54a1.61,1.61,0,0,0,.8,1.49,5.74,5.74,0,0,0,1.08.54,7.11,7.11,0,0,0,2.41.46,11,11,0,0,0,1.62-.08,7.32,7.32,0,0,0,1.25-.28,4.9,4.9,0,0,0,1.38-.67,1.54,1.54,0,0,0,.74-1.33C272.23,400.5,272.24,400,272.24,399.34Z" transform="translate(-256 -380.13)"/><path class="cls-1" d="M264.76,407.63c.23-.31.59-.07.81-.29a5.37,5.37,0,0,0,1.32-.23,11.5,11.5,0,0,0,1.13-.26,4.81,4.81,0,0,1,.68-.13,13.91,13.91,0,0,0,1.81-.4c.2-.07.42,0,.63-.11a2.6,2.6,0,0,1,.63-.12l.59-.1a6.19,6.19,0,0,0,.62-.13l1-.22c.32-.06.65-.11,1-.19.55-.15,1.11-.26,1.66-.38l1.31-.25a5.7,5.7,0,0,0,1.14-.26,3.61,3.61,0,0,1,.67-.13,5,5,0,0,0,.79-.12c.24-.1.53,0,.75-.2a8.31,8.31,0,0,0,1.79-.33,15.9,15.9,0,0,0,2-.48,6.37,6.37,0,0,1,.63-.11c.63-.15,1.27-.26,1.91-.41.43-.1.88-.15,1.31-.25a11.85,11.85,0,0,0,1.67-.37,6.63,6.63,0,0,1,.67-.13,4.07,4.07,0,0,0,.79-.12c.25-.1.54,0,.75-.19a6.41,6.41,0,0,0,1.16-.21,14.13,14.13,0,0,1,1.7-.32c.22-.22.54,0,.81-.19a3.08,3.08,0,0,1,.83-.12,2.07,2.07,0,0,0,.55-.17c.18-.1.37.05.54-.1s.41.06.56-.15a8.44,8.44,0,0,0,1.32-.21c.38-.05.76-.18,1.14-.27l.67-.13c.32-.08.64-.14,1-.2a7.32,7.32,0,0,0,.9-.21,4.14,4.14,0,0,1,.63-.11c.62-.14,1.26-.21,1.87-.41.19-.07.42,0,.63-.11a3.19,3.19,0,0,1,.63-.12l.58-.1a3.34,3.34,0,0,1,.63-.12c.18,0,.36-.14.55-.18a5.05,5.05,0,0,1,.78-.11,4.88,4.88,0,0,0,.86-.19,3.73,3.73,0,0,0,.64-.11c.21-.11.49-.06.72-.13s.47,0,.65-.2a6.13,6.13,0,0,0,1.21-.21c.29-.06.58-.13.86-.21a8.64,8.64,0,0,1,.85-.19l1.16-.22a3.57,3.57,0,0,0,.68-.12c.17-.09.33-.05.48-.1s.33-.06.48-.11a9.16,9.16,0,0,0,1.28-.3c.65,0,1.25-.34,1.9-.31.57-.22,1.18-.23,1.76-.4.28-.08.58-.12.87-.19a8.79,8.79,0,0,0,.87-.15c.63-.2,1.29-.21,1.92-.39.27-.08.57-.13.86-.19s.59-.08.88-.15.75-.13,1.11-.22a3.34,3.34,0,0,0,1.07-.29,5.45,5.45,0,0,0,1.27-.22,10.05,10.05,0,0,0,1.71-.38c.2-.07.42,0,.63-.12a2.13,2.13,0,0,1,.63-.12,1.87,1.87,0,0,0,.68-.12c.19-.11.45,0,.6-.19a5,5,0,0,0,1.26-.22,14.22,14.22,0,0,0,1.72-.37,5.88,5.88,0,0,1,.73-.14,2.45,2.45,0,0,0,.78-.12c.23-.13.48-.05.72-.16a3.18,3.18,0,0,1,.67-.13c.43-.08.86-.18,1.28-.3a2.46,2.46,0,0,0,.64-.11,1.59,1.59,0,0,1,.62-.11c.24,0,.44-.19.69-.11.16-.17.43,0,.59-.21a5.44,5.44,0,0,0,1.32-.22,9.5,9.5,0,0,0,1.66-.38c.2-.08.42,0,.63-.12a2.13,2.13,0,0,1,.63-.11,2.42,2.42,0,0,0,.68-.12c.19-.11.44,0,.6-.19a6.05,6.05,0,0,0,1.26-.22,12.56,12.56,0,0,0,1.72-.38,3.52,3.52,0,0,1,.58-.09v15c-.22.07-.46.17-.71.23a2.86,2.86,0,0,0-.73.12c-.23.13-.51,0-.7.19a6,6,0,0,0-1.32.23,4.05,4.05,0,0,0-1.13.27,4.37,4.37,0,0,1-.63.11,7.12,7.12,0,0,1-.92.18,5.54,5.54,0,0,0-.92.17c-.55.17-1.11.25-1.66.38l-1.31.25a5.72,5.72,0,0,0-1.14.27,5.48,5.48,0,0,1-.63.11c-.63.15-1.27.26-1.91.41-.42.1-.88.16-1.31.24a8,8,0,0,0-1.81.41,4.93,4.93,0,0,0-1.32.22,8.68,8.68,0,0,0-1.66.38,4.35,4.35,0,0,1-.63.1,7.36,7.36,0,0,1-.91.19,4.51,4.51,0,0,0-.93.17c-.54.18-1.11.24-1.66.37s-.88.17-1.31.25a6.22,6.22,0,0,0-1.13.28,4.35,4.35,0,0,1-.63.1c-.64.15-1.28.27-1.92.41-.42.1-.88.16-1.31.25a10.5,10.5,0,0,0-1.66.38,6.37,6.37,0,0,1-.63.11,7.32,7.32,0,0,1-.91.18,5.29,5.29,0,0,0-.93.17,15.89,15.89,0,0,1-1.66.37c-.43.1-.88.17-1.31.25a5.49,5.49,0,0,0-1.13.28,2.8,2.8,0,0,1-.58.09,5.27,5.27,0,0,1-.69.14,3.85,3.85,0,0,0-.68.1l-1.1.25c-.23.05-.48.09-.71.15-.62.15-1.25.22-1.87.41a3.76,3.76,0,0,1-.67.12c-.47.05-.92.15-1.37.24a11,11,0,0,0-1.61.37,5.86,5.86,0,0,1-.63.12c-.62.13-1.25.21-1.87.4a3,3,0,0,1-.67.12,5.22,5.22,0,0,0-.79.14c-.26.05-.54.1-.81.17s-.5.11-.75.2-.42,0-.63.11a3.19,3.19,0,0,1-.63.12l-.58.1a3.29,3.29,0,0,1-.64.12c-.18,0-.35.14-.54.18a2.78,2.78,0,0,0-.63.11,4.37,4.37,0,0,1-.63.11l-.58.11a4.5,4.5,0,0,1-.64.11c-.18,0-.35.15-.54.18s-.43.08-.63.1c-.42.05-.81.17-1.21.25a4.89,4.89,0,0,0-1.19.27,3.71,3.71,0,0,1-.63.12c-.49.11-1,.19-1.48.3l-.87.18c-.29.06-.59.09-.87.16s-.75.13-1.11.22a10.83,10.83,0,0,0-1.09.27,2.75,2.75,0,0,1-.67.12c-.64.1-1.27.22-1.9.34a14.11,14.11,0,0,1-1.44.29c-.17.22-.45,0-.66.18s-.41,0-.62.12a3.71,3.71,0,0,1-.68.12c-.51.14-1,.2-1.54.32a10.91,10.91,0,0,0-1.76.4c-.17.07-.38,0-.58.1s-.55,0-.78.13-.51.08-.76.17a7.7,7.7,0,0,1-.86.19c-.29.07-.59.08-.88.15s-.75.13-1.1.23a3.09,3.09,0,0,0-1.08.29,5,5,0,0,0-1.27.21,14.09,14.09,0,0,0-1.71.38c-.21.07-.45,0-.62.14-.62.1-1.25.17-1.85.32a11.37,11.37,0,0,1-1.54.32c-.07,0-.13.07-.23.12Z" transform="translate(-256 -380.13)"/><path class="cls-1" d="M270.47,396.35v-.11c2.5-.45,5-1,7.49-1.47a2.56,2.56,0,0,0-.1,1.07V397c0,.38,0,.77,0,1.15a1.2,1.2,0,0,0,.22.63,3.08,3.08,0,0,0,1.58,1.2c.48.22,1,.28,1.47.49h0c.41,0,.81.09,1.21.11a6.51,6.51,0,0,0,1.25,0c.26,0,.54,0,.79-.1l.75-.19a3.53,3.53,0,0,0,.74-.22,4.9,4.9,0,0,0,1.46-1,1.4,1.4,0,0,0,.38-.88q0-1.48,0-3a1.33,1.33,0,0,0-.29-.71,2.46,2.46,0,0,0-.78-.76,3.39,3.39,0,0,0-.92-.44s-.07-.08-.12-.13l7.49-1.49c0,.27-.05.55-.06.82,0,.78,0,1.57,0,2.35a1.63,1.63,0,0,0,.43,1.12,3.05,3.05,0,0,0,.74.59,5.56,5.56,0,0,0,1.15.5,10.2,10.2,0,0,0,1.43.33,11.19,11.19,0,0,0,1.63.08,6,6,0,0,0,1.63-.22,4.52,4.52,0,0,0,1.4-.5,5.92,5.92,0,0,0,1-.68,1.68,1.68,0,0,0,.51-1.25q0-1.28,0-2.55a1.61,1.61,0,0,0-.41-1.08,3,3,0,0,0-1.39-.91,2.09,2.09,0,0,1-.29-.16l0-.1c2.5-.45,5-1,7.46-1.46a5.73,5.73,0,0,0-.07.58c0,.85,0,1.7,0,2.55a1.57,1.57,0,0,0,.34,1.06,3.59,3.59,0,0,0,1.41,1c.5.22,1,.31,1.52.5h.15a10.43,10.43,0,0,0,2.09.1,8.1,8.1,0,0,0,2.62-.58,3.75,3.75,0,0,0,1.38-1,1.33,1.33,0,0,0,.38-.93c0-1,0-1.91,0-2.87a1.43,1.43,0,0,0-.35-.89,2.59,2.59,0,0,0-.77-.66,6.3,6.3,0,0,0-.87-.41c-.05,0-.08-.08-.14-.14,2.55-.47,5-1,7.5-1.48,0,.28-.05.58-.05.87,0,.76,0,1.53,0,2.29a1.53,1.53,0,0,0,.4,1.09,3.94,3.94,0,0,0,1.38.94c.49.23,1,.27,1.51.5h0c.4,0,.8.08,1.21.1a5.91,5.91,0,0,0,1.19,0,9.82,9.82,0,0,0,1.32-.22,7.8,7.8,0,0,0,1.18-.4,4.37,4.37,0,0,0,1.15-.77,1.65,1.65,0,0,0,.51-1.25c0-.85,0-1.7,0-2.55a1.66,1.66,0,0,0-.41-1.08,3,3,0,0,0-1.39-.91,2,2,0,0,1-.29-.16v-.08l7.53-1.5-.14.27c0,.93,0,1.91,0,2.88a1.65,1.65,0,0,0,.34,1,3.46,3.46,0,0,0,1.37,1,12.31,12.31,0,0,0,1.56.5.39.39,0,0,0,.15,0,9.32,9.32,0,0,0,1.83.1c.25,0,.49.07.75-.08s.45,0,.69-.08a5.75,5.75,0,0,1,.72-.15,2.82,2.82,0,0,0,.64-.21,4.31,4.31,0,0,0,1.6-1.16,1.31,1.31,0,0,0,.26-.78c0-1,0-1.91,0-2.86a1.48,1.48,0,0,0-.39-.93,2.47,2.47,0,0,0-.73-.63,6.9,6.9,0,0,0-.87-.41c-.05,0-.08-.07-.16-.15l.9-.15,8.09,8.08c-.3.12-.65.12-1,.23a5.31,5.31,0,0,1-1,.21c-.44,0-.88.16-1.31.24a4.12,4.12,0,0,0-1.14.27,3.93,3.93,0,0,1-.63.11,6.66,6.66,0,0,1-.91.18,5.35,5.35,0,0,0-.92.17c-.55.18-1.12.25-1.67.38l-1.31.25a6.62,6.62,0,0,0-1.13.27,6.37,6.37,0,0,1-.63.11c-.63.15-1.28.26-1.91.41-.43.1-.88.15-1.31.25a7.41,7.41,0,0,0-1.81.4,5.28,5.28,0,0,0-1.32.22,10.5,10.5,0,0,0-1.66.38,4.35,4.35,0,0,1-.63.1,7.15,7.15,0,0,1-.92.19,5.54,5.54,0,0,0-.92.17,10.36,10.36,0,0,0-1.13.28c-.19.07-.44,0-.63.11a6.52,6.52,0,0,0-1.32.23,4.9,4.9,0,0,0-1.13.27c-.19.09-.42,0-.63.12a2.6,2.6,0,0,1-.63.11l-.58.11a4.52,4.52,0,0,1-.64.12c-.18,0-.36.14-.54.18a2.78,2.78,0,0,0-.63.11,4.37,4.37,0,0,1-.63.11l-.59.1a3.34,3.34,0,0,1-.63.12c-.18,0-.36.17-.54.18a5.23,5.23,0,0,0-.69.12c-.63.09-1.27.2-1.89.33s-1.32.26-2,.42a7.23,7.23,0,0,0-1.65.4,5.28,5.28,0,0,0-1.32.22,10.76,10.76,0,0,0-1.66.38,3.19,3.19,0,0,1-.63.11c-.49.12-1,.2-1.49.31-.28.06-.56.13-.85.22s-.57,0-.83.12-.72.11-1.07.2a3.79,3.79,0,0,1-1,.21c-.19.22-.51,0-.7.21a1.73,1.73,0,0,0-.68.1,4.4,4.4,0,0,0-.74.11c-.64.21-1.31.27-2,.43a12.07,12.07,0,0,0-1.66.38,8.28,8.28,0,0,1-.89.13c-.4.12-.83.13-1.24.28a5.4,5.4,0,0,1-.72.13,12.41,12.41,0,0,0-1.24.28c-.21.07-.42,0-.63.12a1.81,1.81,0,0,1-.63.12,2.16,2.16,0,0,0-.68.12c-.19.1-.44,0-.59.19a5.45,5.45,0,0,0-1.27.22,12.53,12.53,0,0,0-1.72.37c-.2.08-.44,0-.62.14-.48,0-.93.25-1.42.21-.35.19-.78.08-1.12.31a5.45,5.45,0,0,0-1.27.22,11.5,11.5,0,0,0-1.72.38c-.2.07-.44-.05-.62.13a10.29,10.29,0,0,0-1.84.34l-1.66.37-1.32.25a6.62,6.62,0,0,0-1.13.27c-.2.07-.42,0-.63.11a1.86,1.86,0,0,1-.63.12,2,2,0,0,0-.67.12c-.2.12-.45,0-.6.19a7.28,7.28,0,0,0-1.32.22,6.3,6.3,0,0,0-1.14.27c-.2.06-.44,0-.62.14a11.25,11.25,0,0,0-1.84.33l-1.67.37c-.42.1-.87.17-1.31.25a7.43,7.43,0,0,0-1.13.27c-.2.07-.42,0-.63.12a2.13,2.13,0,0,1-.63.12,1.65,1.65,0,0,0-.68.12c-.19.12-.41,0-.61.17s-.38,0-.57.11a2.71,2.71,0,0,1-.61.11l-8.09-8.09,6.1-1.26a1.06,1.06,0,0,0,0,.19,2.57,2.57,0,0,0,0,.4c0,.87,0,1.73,0,2.6a1.62,1.62,0,0,0,.37,1.05,3.34,3.34,0,0,0,1.37,1,15.78,15.78,0,0,0,1.52.48l.09,0c.38,0,.77.08,1.15.1a6.87,6.87,0,0,0,1.2,0,8.34,8.34,0,0,0,2.5-.62,4.45,4.45,0,0,0,1.19-.78,1.65,1.65,0,0,0,.52-1.25c0-.83,0-1.67,0-2.5a1.57,1.57,0,0,0-.34-1.06,3.09,3.09,0,0,0-1.42-1Z" transform="translate(-256 -380.13)"/><path class="cls-1" d="M264.41,422.37l-8.09-8.09V399.47l8.09,8.09Z" transform="translate(-256 -380.13)"/><path class="cls-1" d="M339.13,382.27a9.15,9.15,0,0,1,1-.85,5.39,5.39,0,0,1,1.29-.53c.22-.07.47-.11.7-.2s.45,0,.68-.11a1.65,1.65,0,0,1,.67,0,8.18,8.18,0,0,1,1,0,8.56,8.56,0,0,1,2,.45,3.73,3.73,0,0,1,1.12.58,2.08,2.08,0,0,1,.75,1,1.27,1.27,0,0,1-.3,1.06,3.48,3.48,0,0,1-1.35.88c-.21.09-.43.13-.64.21a3.75,3.75,0,0,0-.65.2s-.06,0-.1,0c-.38,0-.77.08-1.15.1a11,11,0,0,1-1.15,0c-.19,0-.38-.09-.58-.09a3.7,3.7,0,0,1-.58-.1,4.22,4.22,0,0,1-.6-.2c-.18-.07-.38-.08-.56-.16s-.33-.2-.51-.27a1.78,1.78,0,0,1-.93-.86c-.12-.26-.3-.57-.05-.88C339.16,382.43,339.13,382.34,339.13,382.27Z" transform="translate(-256 -380.13)"/><path class="cls-1" d="M323.92,385.4a8.24,8.24,0,0,1,1-.85,5.12,5.12,0,0,1,1.28-.54c.23-.07.48-.11.7-.19s.46,0,.69-.11.44,0,.67,0a7.19,7.19,0,0,1,3,.46,4.09,4.09,0,0,1,1.12.57,2.15,2.15,0,0,1,.75,1,1.27,1.27,0,0,1-.3,1.06,3.67,3.67,0,0,1-1.35.88c-.21.09-.43.13-.64.21a2.86,2.86,0,0,0-.65.19s-.07,0-.1,0c-.38,0-.77.08-1.15.1h-1.15c-.25,0-.47-.13-.74-.12a1.49,1.49,0,0,1-.75-.19c-.21-.1-.46-.13-.68-.21s-.44-.22-.66-.31a1.73,1.73,0,0,1-.93-.85c-.12-.27-.3-.57-.05-.89C324,385.56,323.92,385.47,323.92,385.4Z" transform="translate(-256 -380.13)"/><path class="cls-1" d="M308.71,388.52a11,11,0,0,1,1-.84,5.67,5.67,0,0,1,1.33-.55c.22-.07.45-.1.66-.18s.47.07.68-.13c0,0,.16,0,.25,0h1.09a7.36,7.36,0,0,1,3,.75,2.06,2.06,0,0,1,1,.82,1.24,1.24,0,0,1-.09,1.5,4,4,0,0,1-1.39.89c-.41.18-.84.23-1.25.4h0a19.09,19.09,0,0,1-2.51.11c-.21-.15-.45-.08-.68-.11a4.33,4.33,0,0,1-.7-.21,5.31,5.31,0,0,1-.64-.21,2.64,2.64,0,0,1-1.49-1c-.2-.35-.37-.66-.15-1.05C308.73,388.65,308.71,388.58,308.71,388.52Z" transform="translate(-256 -380.13)"/><path class="cls-1" d="M293.5,391.65c.33-.26.58-.61.95-.85a5.89,5.89,0,0,1,1.33-.54c.22-.07.44-.11.65-.19s.48.07.68-.12.17,0,.26,0h1.09a7.37,7.37,0,0,1,3,.76,2.06,2.06,0,0,1,1,.82,1.23,1.23,0,0,1-.09,1.49,3.83,3.83,0,0,1-1.4.9c-.4.18-.84.22-1.24.39l0,0a19.16,19.16,0,0,1-2.51.1c-.21-.14-.47-.05-.68-.12a3.43,3.43,0,0,1-.7-.18,4.83,4.83,0,0,0-.64-.22,2.58,2.58,0,0,1-1.49-1,1,1,0,0,1-.16-1.05S293.5,391.71,293.5,391.65Z" transform="translate(-256 -380.13)"/><path class="cls-1" d="M278.29,394.77c.32-.23.55-.57.9-.81a5.79,5.79,0,0,1,1.28-.56c.23-.09.5-.12.75-.2s.51.05.72-.13h1.72c.33.21.71.07,1.07.19a9.23,9.23,0,0,1,2,.85,1.82,1.82,0,0,1,.67,1,1.15,1.15,0,0,1-.3,1,3.55,3.55,0,0,1-1.39.9c-.4.18-.84.24-1.25.39a.32.32,0,0,1-.14,0,11.63,11.63,0,0,1-2,.11,7.19,7.19,0,0,1-3-.83,1.87,1.87,0,0,1-1-1.12c-.06-.22-.14-.41,0-.61C278.32,395,278.29,394.86,278.29,394.77Z" transform="translate(-256 -380.13)"/><path class="cls-1" d="M267.64,396.17a11.45,11.45,0,0,1,1.56.14,6.58,6.58,0,0,1,2.37.94,1.62,1.62,0,0,1,.66,1,1.2,1.2,0,0,1-.31,1,3.55,3.55,0,0,1-1.35.88c-.21.09-.43.13-.64.21s-.46.06-.65.2c0,0-.07,0-.1,0-.39,0-.77.08-1.15.1a4.91,4.91,0,0,1-1.15,0,8.68,8.68,0,0,1-1.49-.28c-.45-.18-.91-.31-1.34-.53a2,2,0,0,1-.93-.86.93.93,0,0,1-.14-.67,1.09,1.09,0,0,1,.29-.61,8,8,0,0,1,.76-.66,5.6,5.6,0,0,1,1.29-.54c.23-.07.47-.1.7-.19s.45,0,.69-.1a2.81,2.81,0,0,1,.92,0Z" transform="translate(-256 -380.13)"/><path class="cls-1" d="M348.3,383.72c0,.72,0,1.36,0,2a1.48,1.48,0,0,1-.69,1,4.85,4.85,0,0,1-1.43.69,7.1,7.1,0,0,1-1.25.27,11,11,0,0,1-1.62.08,1.46,1.46,0,0,1-.65-.06,4,4,0,0,0-.61-.05,4.56,4.56,0,0,1-.59-.2l-.55-.16a3.74,3.74,0,0,1-1.17-.57,1.59,1.59,0,0,1-.7-1.31v-1.59a3.82,3.82,0,0,0,1.1.8,4.68,4.68,0,0,0,1.17.43,3.18,3.18,0,0,0,1.26.21,1.64,1.64,0,0,0,.9.1,5.78,5.78,0,0,0,.93,0,9.09,9.09,0,0,0,1.27-.21,4.93,4.93,0,0,0,1.15-.34A3.9,3.9,0,0,0,348.3,383.72Z" transform="translate(-256 -380.13)"/><path class="cls-1" d="M323.82,386.8a2.67,2.67,0,0,0,1.1.94,4.3,4.3,0,0,0,1.17.42,3.19,3.19,0,0,0,1.26.22,5.12,5.12,0,0,0,1.83.09,6.21,6.21,0,0,0,1.27-.2,9,9,0,0,0,1.15-.34,4.42,4.42,0,0,0,.76-.44c.24-.17.47-.36.73-.57,0,.65,0,1.29,0,1.92a1.47,1.47,0,0,1-.68,1,5.11,5.11,0,0,1-1.43.69,7.1,7.1,0,0,1-1.25.27,11,11,0,0,1-1.62.07,1.6,1.6,0,0,1-.65-.05,4,4,0,0,0-.61-.05c-.2,0-.39-.14-.59-.2l-.55-.16a3.56,3.56,0,0,1-1.17-.58,1.55,1.55,0,0,1-.7-1.3Z" transform="translate(-256 -380.13)"/><path class="cls-1" d="M317.86,390v2.08a4.31,4.31,0,0,1-.36.55,3.73,3.73,0,0,1-1.27.83c-.21.11-.46.12-.68.22s-.46,0-.65.2c0,0,0,0,0,0-.4,0-.8.08-1.2.1a5.35,5.35,0,0,1-1.2,0,6.29,6.29,0,0,1-1.35-.25,11.91,11.91,0,0,1-1.26-.46,2.29,2.29,0,0,1-1-.89,1.58,1.58,0,0,1-.2-.49c0-.61,0-1.23,0-1.86a2.6,2.6,0,0,0,1.08.82,6,6,0,0,0,1.21.45,12.19,12.19,0,0,0,1.44.28,6.11,6.11,0,0,0,1.76,0c.46-.08.93-.15,1.39-.27A4.88,4.88,0,0,0,317.86,390Z" transform="translate(-256 -380.13)"/><path class="cls-1" d="M293.39,393.21a3.42,3.42,0,0,0,1.13.78,3,3,0,0,0,1.27.43c.43.25.94.13,1.38.31a.76.76,0,0,0,.26,0h1a7.28,7.28,0,0,0,1.62-.23,5.32,5.32,0,0,0,1.15-.37,4.1,4.1,0,0,0,1.36-1l0,0a.09.09,0,0,1,0,.05v2a5.55,5.55,0,0,1-.42.61,3.66,3.66,0,0,1-1.29.79c-.4.18-.83.24-1.24.39l-.09,0c-.39,0-.77.08-1.16.1a6.76,6.76,0,0,1-1.19,0,7.65,7.65,0,0,1-1.4-.26,7.22,7.22,0,0,1-1.3-.48,2.2,2.2,0,0,1-1-.83,1.58,1.58,0,0,1-.22-.64C293.38,394.35,293.39,393.77,293.39,393.21Z" transform="translate(-256 -380.13)"/><path class="cls-1" d="M278.18,396.32a3.4,3.4,0,0,0,1.14.79,5.56,5.56,0,0,0,1.22.45,9,9,0,0,0,2.63.3,2.06,2.06,0,0,0,.65-.05c.18-.06.44,0,.59-.07s.45,0,.6-.19a2.53,2.53,0,0,0,1.2-.38,3,3,0,0,0,1.24-1c0,.75.05,1.41,0,2.05a1.45,1.45,0,0,1-.67,1,6.81,6.81,0,0,1-2,.84,8,8,0,0,1-2.67.19,5.17,5.17,0,0,1-1.44-.28c-.45-.18-.91-.3-1.35-.52a1.94,1.94,0,0,1-1-1.17.67.67,0,0,1-.05-.19Z" transform="translate(-256 -380.13)"/><path class="cls-1" d="M272.24,399.34c0,.64,0,1.16,0,1.68a1.54,1.54,0,0,1-.74,1.33,4.9,4.9,0,0,1-1.38.67,7.32,7.32,0,0,1-1.25.28,11,11,0,0,1-1.62.08,7.11,7.11,0,0,1-2.41-.46,5.74,5.74,0,0,1-1.08-.54,1.61,1.61,0,0,1-.8-1.49c0-.48,0-1,0-1.54a3,3,0,0,0,1,.85,5.73,5.73,0,0,0,1.21.47l.74.2c.24.07.5-.05.74.11.07,0,.2,0,.31,0,.36,0,.73,0,1.09,0a4.62,4.62,0,0,0,1.05-.11,7.1,7.1,0,0,0,1.88-.6A3.55,3.55,0,0,0,272.24,399.34Z" transform="translate(-256 -380.13)"/></svg>