<svg id="Layer_1" data-name="Layer 1" xmlns="http://www.w3.org/2000/svg" viewBox="0 0 456.87 372.33"><defs><style>.cls-1{fill:#fe7e27;}.cls-2{fill:#fec80e;}.cls-3{fill:#fd9d10;}.cls-4{fill:#fe7f27;}</style></defs><path d="M241.8,583.19,79,420.4V272.06a44.29,44.29,0,0,1,5.48-2c2.76-.65,5.62-.89,8.41-1.47s5.56-1.13,8.29-1.74c4.75-1.07,9.56-1.79,14.28-2.91,5.3-1.26,10.62-2.61,15.94-3.62,4.64-.89,9.24-2.48,14.28-2.34a29.6,29.6,0,0,1,10.7-8.66,60.71,60.71,0,0,1,11.69-4.38c4.54-1.24,9.29-1.39,13.79-2.85,1.51-.49,3.31-.08,5-.08,3.49,0,7-.4,10.47.12a59.7,59.7,0,0,1,9.72,1.79c3.5,1.13,6.95-1.24,10.53-1,1.84-2,4.86.08,6.69-1.94,4.71.36,9.22-1.18,13.61-2.23,5.29-1.27,10.66-2.35,15.95-3.55,4.1-.92,8.4-1.6,12.58-2.39,3.62-.69,7.39-1.23,10.87-2.63,1.65-.66,3.34-.08,5.15-.85,2.7-1.15,5.91-1.07,9.39-1.59,2.53-3.47,6.42-6.15,10.48-8.39a44.38,44.38,0,0,1,11.2-4.25c4-.92,8.13-1.46,12.09-2.33,6.1-1.34,12.11-.36,18.13-.73,1.5-.09,3.05.63,4.58.93s2.72-.07,4.21.76,4.08.94,5.26.09c2.18-1.56,4.6-.59,6.88-1.62,2.93-1.31,6.58-1,9.73-1.36L535.88,372.38V522.62c-5.14,1.12-10.32,2.29-15.53,3.37s-10.15,2.07-15.25,3c-5.25.95-10.45,2.24-15.67,3.31s-10.46,1.85-15.57,3.33-10.08,2.21-15.13,3.24C453.51,539.94,448.25,541,443,542c-5.08,1-10.18,2-15.25,3s-10.45,2-15.6,3.39-10.4,2.19-15.58,3.31-10.29,1.76-15.42,2.7-10.29,2.67-15.51,3.51-10.5,2-15.74,3.08c-5.08,1-10.19,1.9-15.24,3s-10.36,2.42-15.59,3.41c-5.07,1-10.1,2.18-15.18,3.13s-10.39,2.27-15.59,3.4-10.48,2.09-15.75,3c-5.1.89-10.07,2.37-15.23,3.15S246.9,582.45,241.8,583.19Zm291-63.1V375.45a28.89,28.89,0,0,0-5.56.86c-5.35,1.91-11,2.49-16.48,3.6-4,.8-8,2.26-12.14,2.09-1.51,1.77-4.12.39-5.67,2-2.35-.68-4.31,1-6.58,1.06a34.19,34.19,0,0,0-6.08,1c-2.14.44-4.24,1.05-6.37,1.52-5.34,1.17-10.65,2.73-16.07,3.33a123.46,123.46,0,0,0-12.53,2.52q-8.7,1.88-17.45,3.62c-1.21.25-2.38.72-3.59,1s-2.69-.55-3.65.86c-4-.16-7.63,1.88-11.59,2.21a25.67,25.67,0,0,0-6.49,1.21c-1.81.68-3.77,0-5.08.91-1.59,1.16-3.36.2-4.63.93-1.71,1-3.41.71-5.13.93a31.14,31.14,0,0,0-6.47,1.27c-5.34,1.92-11,2.5-16.47,3.61-4,.8-7.95,2.26-12.15,2.09-1.5,1.76-4.11.39-5.67,2-2.34-.68-4.31,1-6.58,1.06-2,.06-4.29.15-6,1.06-2,1.07-4.18.33-6.05,1.11-5.11,2.15-10.65,2.42-16,3.6-4.13.92-8.49,1.44-12.58,2.39-6.11,1.4-12.27,2.5-18.35,3.93-2,.47-4.16.35-6,1a65.27,65.27,0,0,1-10.86,2.62c-4.18.79-8.28,2.37-12.63,2.19-2.34,1.78-5.74.26-7.74,2.47V579.86a32.66,32.66,0,0,0,5.17-.91c2.12-.74,4.38-.65,6.45-1.31,5.39-1.72,11-2.48,16.5-3.56,4-.78,7.95-2.27,12.15-2.08,1.42-2,3.87-.63,5.77-1.84,1.71-1.09,4.28-.82,6.48-1.16,2-.32,4.32-.18,6-1.13,2-1.13,4.11-.44,6.05-1.12a72.58,72.58,0,0,1,10.88-2.59c4.18-.78,8.48-1.46,12.59-2.38,5.29-1.19,10.64-2.4,15.93-3.55,5.82-1.27,11.67-2.91,17.7-3.23,1.72-2,4.24-.72,6.36-1.52,3.48-1.3,7.28-1.79,11-2.45,2.66-.48,5.66-.11,8-1.21,1.93-.92,3.79-.37,5.57-1.05a65.26,65.26,0,0,1,10.88-2.61c4.18-.78,8.48-1.46,12.58-2.38,5.29-1.19,10.65-2.41,15.94-3.55,5.82-1.26,11.66-2.91,17.69-3.23,1.71-1.71,4-.59,6-1.29,5.32-1.92,11-2.55,16.47-3.63,4-.79,8-2.27,12.15-2.08,1.42-2,3.87-.63,5.77-1.84,1.71-1.09,4.28-.82,6.48-1.16,2-.32,4.44-.09,6-1.14,2.19-1.48,4.95.21,6.78-1.81,3.73.28,7.08-1.43,10.64-2.07C527,521.46,529.86,520.74,532.83,520.09ZM85.8,273.21,244.45,431.86c1.45-.24,3.53-.13,5.12-1,2-1.05,4.2-.34,6.06-1.1,5.13-2.1,10.65-2.44,16-3.62,4.13-.91,8.48-1.45,12.58-2.38,6.11-1.39,12.26-2.55,18.36-3.92,2-.47,4.18-.36,6-1.06a67.68,67.68,0,0,1,10.87-2.62c4.17-.8,8.48-1.47,12.58-2.41,5.29-1.22,10.73-1.83,16-3.58a47.24,47.24,0,0,1,8.86-1.59,45.21,45.21,0,0,0,8.74-1.85c2.27-.77,4.6-.6,6.88-1.45,3.14-1.17,6.69-1.51,10.06-2.25,2.8-.62,5.87-.24,8.53-1.16,5.2-1.8,10.71-1.95,15.95-3.7a47.91,47.91,0,0,1,8.86-1.6c3-.37,5.86-1.2,8.79-1.78,1.87-.37,4-.15,5.56-.94,4.73-2.4,10-2.22,14.94-3.74,3.09-.95,6.46-1.09,9.64-2.1s6.8-1.14,10.19-1.86c2.9-.62,5.9-1.21,8.89-1.59a69.7,69.7,0,0,0,8.78-1.8c2-.53,4.16-.25,6-1,5.12-2.11,10.65-2.44,16-3.6,4.14-.9,8.48-1.46,12.58-2.4,4.53-1,9.19-1.7,12.84-2.89L371.45,214.24l-7.9,1.23c.56.68.83,1.34,1.28,1.49a46.73,46.73,0,0,1,8.36,4,24.94,24.94,0,0,1,8.25,7.81c1.38,2.08,2.47,4.14,2.5,6.47.14,9.49.21,19,0,28.49a13.45,13.45,0,0,1-3.56,8.51c-3.77,4.32-8.75,6.84-13.64,9.42-2.41,1.27-5.31,1.62-8,2.35-2.55.7-5.13,1.94-7.66,1.86-3-.11-5.64,1.41-8.59,1.17-5.69-.47-11.36.16-17.12-.79a94.72,94.72,0,0,1-14.68-3.33,42.4,42.4,0,0,1-10.16-4.55,35.28,35.28,0,0,1-7.13-5.54A15.59,15.59,0,0,1,289,261.64c.18-6.67,0-13.33.06-20,0-3.49-.55-7,1-10.28-24.22,4.62-48.05,9.79-72.08,14.18.13,2.26,2.17,2,3.21,2.36a30.59,30.59,0,0,1,13.55,9.42,15.18,15.18,0,0,1,3.39,10.09c-.22,8.33-.06,16.66-.07,25a14.62,14.62,0,0,1-4.13,10.31c-3,3.24-6.72,5.26-10.45,7.41-5.63,3.26-12,4.19-18.09,5.78a49.49,49.49,0,0,1-10.06,1c-3.5.17-7,0-10.5.05s-6.62-1.67-10.08-1c-4.61-2.26-9.83-2.43-14.51-4.84-5.43-2.79-9.68-4.62-13-8.49-2.58-3.05-4.44-6.43-4.28-10.73.2-5.16,0-10.33.08-15.49s-.71-10.31.85-15.32ZM82.15,417.87l158.7,158.69V435.12L82.15,276.43ZM293,231.32c0,.69.11,1.07,0,1.34-1.75,3.87-.62,7,1.52,10.58,2.31,3.84,5.84,5.67,9.32,7.72,3.74,2.21,8.08,3,12.11,4.51s8.65,1.59,13,2.39c3.7.68,7.64.27,11.46.1s7.72-.63,11.57-1c.17,0,.4.07.49,0,1.77-1.59,4.19-1.55,6.2-1.8,2.46-.32,4.1-2.6,6.64-2.19,4.34-2.53,9.21-4.28,12.53-8.31,2.42-2.93,4-6.53,3.06-10.1a16.21,16.21,0,0,0-6.6-9.58,42.11,42.11,0,0,0-11.59-5.75c-4.95-1.42-9.75-3.8-15.14-3.26-.33,0-.77.14-1,0-2.85-2.16-6.07-.64-9.1-.92s-6.57-.8-9.41.17c-2.37.81-4.72.27-7,1.15s-4.66.8-6.8,1.68c-4.12,1.7-8.44,2.81-12.3,5.33C298.53,225.59,296.29,228.83,293,231.32Zm-146,30c0,.65.11,1,0,1.3-1.75,3.87-.68,7.07,1.51,10.58,2,3.18,4.72,5,7.68,6.8,4,2.43,8.55,3.48,12.87,5.12,4.67,1.78,9.55,1.88,14.31,2.74,3.7.68,7.64.27,11.46.1s7.38-.62,11.07-1a4.11,4.11,0,0,0,.89-.26c3.94-1.39,8.1-2,11.95-3.72,4.78-2.1,9.42-4.36,13.06-8.27,2-2.18,2.59-5,3.16-7.67.44-2.11-.87-4.38-2.3-7-3.14-5.76-8.8-7.75-14.28-10-2-.83-4.09-1.38-6.15-2a57.55,57.55,0,0,0-6.67-1.95c-2.18-.4-4.56.48-6.57-1.06H182c-2,1.84-4.66.55-6.93,1.36s-4.64.85-6.79,1.7c-4.15,1.62-8.43,2.85-12.31,5.3C152.53,255.53,150.31,258.79,147,261.32Zm234-16.45c-1.45,1.77-2.11,2.69-2.89,3.5-3.32,3.47-7.73,5.33-11.84,7.55-2.13,1.14-4.73,1.4-7.11,2.08s-4.8,1.28-7.19,1.87-5.14-.17-7.54,1.13c-6.17-.54-12.46,1.18-18.55-1-4.25.58-8.13-1.15-12.14-2a43.15,43.15,0,0,1-11.59-4.48c-3.54-2-7.2-4-10.15-8.34,0,6.79-.09,12.57.06,18.35a9.8,9.8,0,0,0,1.39,4.38,18,18,0,0,0,9,8.15c2.14.85,4.12,2.1,6.27,2.93s4.56,1.1,6.6,2.12a20.49,20.49,0,0,0,6.71,1.8c2.38.29,4.73.81,7.07,1a78.46,78.46,0,0,0,13.45,0A103.23,103.23,0,0,0,355.2,282c5.22-1.11,15.54-5.22,19.51-8.29,3-2.3,5.77-5.25,6.12-8.88C381.44,258.66,381,252.35,381,244.87ZM146,275.33c0,6.49,0,12.1,0,17.72a10.68,10.68,0,0,0,.7,2.19c1.33,5.34,5,8.58,9.76,10.77,2.1.95,4.11,2.12,6.26,2.95s4.6,1.05,6.59,2.13a19.37,19.37,0,0,0,6.73,1.77c2.35.35,4.71.86,7.05,1a98.48,98.48,0,0,0,13,.05,80.3,80.3,0,0,0,12.66-1.9c5.8-1.25,14.87-4.69,19.61-8.08,3.18-2.28,6.1-5.32,6.48-9.15.6-6.2.16-12.51.16-19.57-4.14,5.37-9.37,7.83-14.36,10.47-2.41,1.27-5.33,1.58-8,2.27s-5.41,1.48-8.16,2a60.36,60.36,0,0,1-8.56,1c-4.66.16-9.32,0-14,0-2.16-1.68-4.81-.41-7-1.1-2.38-.75-4.82-1.19-7.18-1.93a59.12,59.12,0,0,1-12.38-5.06A33.46,33.46,0,0,1,146,275.33Z" transform="translate(-79 -210.86)"/><path class="cls-1" d="M532.83,520.09c-3,.65-5.84,1.37-8.74,1.89-3.56.64-6.91,2.35-10.64,2.07-1.83,2-4.59.33-6.78,1.81-1.55,1-4,.82-6,1.14-2.2.34-4.77.07-6.48,1.16-1.9,1.21-4.35-.13-5.77,1.84-4.2-.19-8.13,1.29-12.15,2.08-5.51,1.08-11.15,1.71-16.47,3.63-1.94.7-4.26-.42-6,1.29-6,.32-11.87,2-17.69,3.23-5.29,1.14-10.65,2.36-15.94,3.55-4.1.92-8.4,1.6-12.58,2.38a65.26,65.26,0,0,0-10.88,2.61c-1.78.68-3.64.13-5.57,1.05-2.33,1.1-5.33.73-8,1.21-3.7.66-7.5,1.15-11,2.45-2.12.8-4.64-.5-6.36,1.52-6,.32-11.88,2-17.7,3.23-5.29,1.15-10.64,2.36-15.93,3.55-4.11.92-8.41,1.6-12.59,2.38a72.58,72.58,0,0,0-10.88,2.59c-1.94.68-4,0-6.05,1.12-1.69,1-4,.81-6,1.13-2.2.34-4.77.07-6.48,1.16-1.9,1.21-4.35-.13-5.77,1.84-4.2-.19-8.13,1.3-12.15,2.08-5.52,1.08-11.11,1.84-16.5,3.56-2.07.66-4.33.57-6.45,1.31a32.66,32.66,0,0,1-5.17.91V435.47c2-2.21,5.4-.69,7.74-2.47,4.35.18,8.45-1.4,12.63-2.19a65.27,65.27,0,0,0,10.86-2.62c1.88-.69,4-.57,6-1,6.08-1.43,12.24-2.53,18.35-3.93,4.09-1,8.45-1.47,12.58-2.39,5.31-1.18,10.85-1.45,16-3.6,1.87-.78,4,0,6.05-1.11,1.73-.91,4-1,6-1.06,2.27-.07,4.24-1.74,6.58-1.06,1.56-1.61,4.17-.24,5.67-2,4.2.17,8.13-1.29,12.15-2.09,5.5-1.11,11.13-1.69,16.47-3.61a31.14,31.14,0,0,1,6.47-1.27c1.72-.22,3.42.06,5.13-.93,1.27-.73,3,.23,4.63-.93,1.31-.95,3.27-.23,5.08-.91a25.67,25.67,0,0,1,6.49-1.21c4-.33,7.56-2.37,11.59-2.21,1-1.41,2.43-.6,3.65-.86s2.38-.72,3.59-1q8.75-1.75,17.45-3.62a123.46,123.46,0,0,1,12.53-2.52c5.42-.6,10.73-2.16,16.07-3.33,2.13-.47,4.23-1.08,6.37-1.52a34.19,34.19,0,0,1,6.08-1c2.27-.06,4.23-1.74,6.58-1.06,1.55-1.61,4.16-.23,5.67-2,4.19.17,8.13-1.29,12.14-2.09,5.5-1.11,11.13-1.69,16.48-3.6a28.89,28.89,0,0,1,5.56-.86Z" transform="translate(-79 -210.86)"/><path class="cls-2" d="M85.8,273.21l58.08-12.08c-1.56,5-.74,10.18-.85,15.32s.12,10.33-.08,15.49c-.16,4.3,1.7,7.68,4.28,10.73,3.27,3.87,7.52,5.7,13,8.49,4.68,2.41,9.9,2.58,14.51,4.84,3.46-.66,6.68,1.05,10.08,1s7,.12,10.5-.05a49.49,49.49,0,0,0,10.06-1c6.12-1.59,12.46-2.52,18.09-5.78,3.73-2.15,7.45-4.17,10.45-7.41A14.62,14.62,0,0,0,238,292.41c0-8.34-.15-16.67.07-25a15.18,15.18,0,0,0-3.39-10.09,30.59,30.59,0,0,0-13.55-9.42c-1-.4-3.08-.1-3.21-2.36,24-4.39,47.86-9.56,72.08-14.18-1.54,3.25-1,6.79-1,10.28-.05,6.67.12,13.33-.06,20a15.59,15.59,0,0,0,4.42,11.17,35.28,35.28,0,0,0,7.13,5.54,42.4,42.4,0,0,0,10.16,4.55,94.72,94.72,0,0,0,14.68,3.33c5.76.95,11.43.32,17.12.79,3,.24,5.58-1.28,8.59-1.17,2.53.08,5.11-1.16,7.66-1.86,2.7-.73,5.6-1.08,8-2.35,4.89-2.58,9.87-5.1,13.64-9.42a13.45,13.45,0,0,0,3.56-8.51c.23-9.49.16-19,0-28.49,0-2.33-1.12-4.39-2.5-6.47a24.94,24.94,0,0,0-8.25-7.81,46.73,46.73,0,0,0-8.36-4c-.45-.15-.72-.81-1.28-1.49l7.9-1.23L530.08,372.87c-3.65,1.19-8.31,1.85-12.84,2.89-4.1.94-8.44,1.5-12.58,2.4-5.32,1.16-10.85,1.49-16,3.6-1.88.78-4,.5-6,1a69.7,69.7,0,0,1-8.78,1.8c-3,.38-6,1-8.89,1.59-3.39.72-6.9.82-10.19,1.86s-6.55,1.15-9.64,2.1c-4.92,1.52-10.21,1.34-14.94,3.74-1.54.79-3.69.57-5.56.94-2.93.58-5.83,1.41-8.79,1.78a47.91,47.91,0,0,0-8.86,1.6c-5.24,1.75-10.75,1.9-15.95,3.7-2.66.92-5.73.54-8.53,1.16-3.37.74-6.92,1.08-10.06,2.25-2.28.85-4.61.68-6.88,1.45a45.21,45.21,0,0,1-8.74,1.85A47.24,47.24,0,0,0,348,410.2c-5.23,1.75-10.67,2.36-16,3.58-4.1.94-8.41,1.61-12.58,2.41a67.68,67.68,0,0,0-10.87,2.62c-1.86.7-4,.59-6,1.06-6.1,1.37-12.25,2.53-18.36,3.92-4.1.93-8.45,1.47-12.58,2.38-5.31,1.18-10.83,1.52-16,3.62-1.86.76-4,0-6.06,1.1-1.59.84-3.67.73-5.12,1ZM370,330.48c0,4.5,0,9,0,13.49a12.73,12.73,0,0,0,2.35,7c1.79,2.79,3.75,5.49,6.62,6.88s5.06,3.39,8.2,4.36,6.39,2.2,9.65,3.18c4.89,1.48,9.93,1.85,14.92,2.52a56.51,56.51,0,0,0,7.48.06c2.16,0,4.48.49,6.46-.1,4.53-1.35,9.24-1.53,13.81-2.74,8.62-2.29,16.27-5.86,22.31-12.5A12.21,12.21,0,0,0,465,344.5q.17-14,0-28a10.32,10.32,0,0,0-1.41-5.36,28.84,28.84,0,0,0-9.44-9.33c-3.26-1.87-6.87-2.85-10-4.82-1.05-.65-2.45-.74-3.5-1.17-2.38-1-5.08-.05-7-1.08s-4.05,0-5.65-.87c-1.88-1-3.73-.81-5.63-.9a92.58,92.58,0,0,0-26.75,2.9c-5.24,1.32-17,6.61-20.66,10.58a16.54,16.54,0,0,0-4.86,12C370,322.49,370,326.49,370,330.48ZM319,360.6c0-4.66.12-9.32-.06-14a10.86,10.86,0,0,0-1.35-5.39,28.27,28.27,0,0,0-9.44-9.36c-3.53-2-7.32-3.27-10.89-5.09a17.61,17.61,0,0,0-2.18-.78,17.92,17.92,0,0,0-7.58-1c-1.21-1.75-3-.71-4.57-1a36.18,36.18,0,0,0-5.09-1,92.25,92.25,0,0,0-28.24,2.89c-8.53,2.3-16.31,5.66-22.38,12.33a12,12,0,0,0-3.11,7.66c-.28,9.64-.17,19.31-.05,29a10.93,10.93,0,0,0,1.32,4.92c3.13,5.67,8.28,9.35,14,11.79,3.46,1.49,6.92,3.82,11.07,3.41,1.19,2,3.54.56,5.29,1.81,1.46,1.05,4.25,0,6.15.72s3.88.37,5.79.44a88.37,88.37,0,0,0,25.76-2.86c7.92-2.08,15-5.22,21-10.94A14.75,14.75,0,0,0,319,373.09C319,368.93,319,364.76,319,360.6Z" transform="translate(-79 -210.86)"/><path class="cls-3" d="M82.15,417.87V276.43l158.7,158.69V576.56Z" transform="translate(-79 -210.86)"/><path class="cls-2" d="M293,231.32c3.29-2.49,5.53-5.73,8.93-7.93,3.86-2.52,8.18-3.63,12.3-5.33,2.14-.88,4.64-.85,6.8-1.68s4.62-.34,7-1.15c2.84-1,6.27-.45,9.41-.17s6.25-1.24,9.1.92c.21.16.65.05,1,0,5.39-.54,10.19,1.84,15.14,3.26A42.11,42.11,0,0,1,374.24,225a16.21,16.21,0,0,1,6.6,9.58c.92,3.57-.64,7.17-3.06,10.1-3.32,4-8.19,5.78-12.53,8.31-2.54-.41-4.18,1.87-6.64,2.19-2,.25-4.43.21-6.2,1.8-.09.08-.32,0-.49,0-3.85.33-7.71.8-11.57,1s-7.76.58-11.46-.1c-4.31-.8-8.78-.79-13-2.39s-8.37-2.3-12.11-4.51c-3.48-2.05-7-3.88-9.32-7.72-2.14-3.55-3.27-6.71-1.52-10.58C293.11,232.39,293,232,293,231.32Z" transform="translate(-79 -210.86)"/><path class="cls-2" d="M147,261.32c3.31-2.53,5.53-5.79,9-8,3.88-2.45,8.16-3.68,12.31-5.3,2.15-.85,4.6-.92,6.79-1.7s4.91.48,6.93-1.36h17c2,1.54,4.39.66,6.57,1.06a57.55,57.55,0,0,1,6.67,1.95c2.06.64,4.16,1.19,6.15,2,5.48,2.28,11.14,4.27,14.28,10,1.43,2.63,2.74,4.9,2.3,7-.57,2.71-1.14,5.49-3.16,7.67-3.64,3.91-8.28,6.17-13.06,8.27-3.85,1.69-8,2.33-11.95,3.72a4.11,4.11,0,0,1-.89.26c-3.69.35-7.37.81-11.07,1s-7.76.58-11.46-.1c-4.76-.86-9.64-1-14.31-2.74-4.32-1.64-8.86-2.69-12.87-5.12-3-1.8-5.7-3.62-7.68-6.8-2.19-3.51-3.26-6.71-1.51-10.58C147.11,262.35,147,262,147,261.32Z" transform="translate(-79 -210.86)"/><path class="cls-4" d="M381,244.87c0,7.48.44,13.79-.17,20-.35,3.63-3.15,6.58-6.12,8.88-4,3.07-14.29,7.18-19.51,8.29a103.23,103.23,0,0,1-12.67,1.87,78.46,78.46,0,0,1-13.45,0c-2.34-.2-4.69-.72-7.07-1a20.49,20.49,0,0,1-6.71-1.8c-2-1-4.45-1.28-6.6-2.12s-4.13-2.08-6.27-2.93a18,18,0,0,1-9-8.15,9.8,9.8,0,0,1-1.39-4.38c-.15-5.78-.06-11.56-.06-18.35,2.95,4.33,6.61,6.36,10.15,8.34A43.15,43.15,0,0,0,313.74,258c4,.88,7.89,2.61,12.14,2,6.09,2.18,12.38.46,18.55,1,2.4-1.3,5.12-.53,7.54-1.13s4.8-1.19,7.19-1.87,5-.94,7.11-2.08c4.11-2.22,8.52-4.08,11.84-7.55C378.89,247.56,379.55,246.64,381,244.87Z" transform="translate(-79 -210.86)"/><path class="cls-4" d="M146,275.33a33.46,33.46,0,0,0,9.32,7.58A59.12,59.12,0,0,0,167.7,288c2.36.74,4.8,1.18,7.18,1.93,2.22.69,4.87-.58,7,1.1,4.66,0,9.32.12,14,0a60.36,60.36,0,0,0,8.56-1c2.75-.49,5.45-1.27,8.16-2s5.62-1,8-2.27c5-2.64,10.22-5.1,14.36-10.47,0,7.06.44,13.37-.16,19.57-.38,3.83-3.3,6.87-6.48,9.15-4.74,3.39-13.81,6.83-19.61,8.08a80.3,80.3,0,0,1-12.66,1.9,98.48,98.48,0,0,1-13-.05c-2.34-.18-4.7-.69-7.05-1a19.37,19.37,0,0,1-6.73-1.77c-2-1.08-4.44-1.29-6.59-2.13s-4.16-2-6.26-2.95c-4.81-2.19-8.43-5.43-9.76-10.77a10.68,10.68,0,0,1-.7-2.19C146,287.43,146,281.82,146,275.33Z" transform="translate(-79 -210.86)"/><path d="M370,330.48c0-4,0-8,0-12a16.54,16.54,0,0,1,4.86-12c3.66-4,15.42-9.26,20.66-10.58a92.58,92.58,0,0,1,26.75-2.9c1.9.09,3.75-.13,5.63.9,1.6.87,3.62-.21,5.65.87s4.64.12,7,1.08c1.05.43,2.45.52,3.5,1.17,3.16,2,6.77,3,10,4.82a28.84,28.84,0,0,1,9.44,9.33,10.32,10.32,0,0,1,1.41,5.36q.19,14,0,28a12.21,12.21,0,0,1-3.15,8.16c-6,6.64-13.69,10.21-22.31,12.5-4.57,1.21-9.28,1.39-13.81,2.74-2,.59-4.3.1-6.46.1a56.51,56.51,0,0,1-7.48-.06c-5-.67-10-1-14.92-2.52-3.26-1-6.45-2.19-9.65-3.18s-5.42-3-8.2-4.36-4.83-4.09-6.62-6.88a12.73,12.73,0,0,1-2.35-7C370,339.47,370,335,370,330.48Zm4-18.09c0,.71.28,1.59,0,2-2.44,3-.6,5.95.57,8.48,1.75,3.81,5.11,6.18,8.88,8.22a67,67,0,0,0,29.2,7.83,88,88,0,0,0,16.59-.71,73.87,73.87,0,0,0,19.7-5.64c3.78-1.68,7.43-3.77,10-7.07,2.28-2.9,3.86-6.36,2.85-10.11a14.86,14.86,0,0,0-5.61-8.6c-3.43-2.35-6.9-4.68-11.06-5.85-3.88-1.09-7.5-3.17-11.71-3-1.46-1.72-3.6-.2-5.08-1-1.87-1-3.72-.9-5.63-.91-2.49,0-5,0-7.49,0-2.16,0-4.73-.74-6.39.18-2.25,1.25-4.47.28-6.58,1.05S398,298.33,396,299c-4.38,1.46-8.81,2.69-12.84,5.22C379.56,306.48,377.18,309.83,374,312.39Zm-1,14.69c0,5.93-.08,11.87.06,17.8a7.83,7.83,0,0,0,1.31,3.92,22.24,22.24,0,0,0,8.9,8.31c4.21,2,8.61,3.35,12.9,5,4.52,1.78,9.24,1.74,13.82,2.7,3.66.76,7.62.28,11.44.11s7.71-.63,11.56-1c.17,0,.4.07.49,0,1.78-1.55,4.18-1.09,6.19-1.94s4.59-1.06,6.6-2.12c4.29-2.26,9-4,12.17-7.93a52.43,52.43,0,0,0,3.4-5.23v-19.6l-.82-.65a7.12,7.12,0,0,1-.77,1.7c-3.34,4-8,6.19-12.5,8.37A51.38,51.38,0,0,1,436.68,340a106.26,106.26,0,0,1-12.14,2,62.58,62.58,0,0,1-9,0c-2.87-.11-5.87.74-8.56-1-4.26.59-8.18-1-12.13-2.07s-7.92-2-11.24-4.09C380,332.62,375.88,330.88,373,327.08Z" transform="translate(-79 -210.86)"/><path d="M319,360.6c0,4.16,0,8.33,0,12.49a14.75,14.75,0,0,1-4.63,11.08c-5.93,5.72-13,8.86-21,10.94A88.37,88.37,0,0,1,267.65,398c-1.91-.07-3.79.29-5.79-.44s-4.69.33-6.15-.72c-1.75-1.25-4.1.23-5.29-1.81-4.15.41-7.61-1.92-11.07-3.41-5.69-2.44-10.84-6.12-14-11.79a10.93,10.93,0,0,1-1.32-4.92c-.12-9.65-.23-19.32.05-29a12,12,0,0,1,3.11-7.66c6.07-6.67,13.85-10,22.38-12.33A92.25,92.25,0,0,1,277.84,323a36.18,36.18,0,0,1,5.09,1c1.53.29,3.36-.75,4.57,1a17.92,17.92,0,0,1,7.58,1,17.61,17.61,0,0,1,2.18.78c3.57,1.82,7.36,3.07,10.89,5.09a28.27,28.27,0,0,1,9.44,9.36,10.86,10.86,0,0,1,1.35,5.39C319.12,351.28,319,355.94,319,360.6Zm-47.23-34.91,0,.31c-3,0-6.27-.75-8.9.23-2.28.84-4.47.21-6.57,1s-4.53,1.18-6.73,1.87c-4.24,1.33-8.51,2.66-12.37,5.12a40.85,40.85,0,0,0-7.28,6.45c-3.43,3.56-3.76,7.44-1.43,12.17a16.8,16.8,0,0,0,9,8.18c2.13.87,4.12,2.11,6.27,2.94s4.53,1.14,6.62,2.1c2.32,1.07,4.74,2,7.18,1.83s4.66,1.17,7.09,1.13c3.66-.07,7.33.11,11-.06s7.39-.63,11.08-1c.32,0,.72.05.95-.11,1.88-1.29,4.19-1.09,6.22-1.87s4.18-1.17,6.14-2.06c4.75-2.13,9.69-4.22,12.92-8.46,2.34-3.07,3.89-6.42,2.47-10.87-1.66-5.17-5.14-8.12-9.45-10.63-6.24-3.64-13.13-5.51-20.1-6.91C281.2,326.17,276.44,326.12,271.77,325.69ZM227,356c0,6.89-.09,12.67.06,18.44a9.89,9.89,0,0,0,1.37,4.4,20.81,20.81,0,0,0,8.93,8.23c4.16,2.16,8.62,3.35,12.87,5.08,4.54,1.86,9.28,1.5,13.84,2.69,2.8.74,6,.27,8.94.1,2.73-.16,5.47.53,8.22-.6s5.6-.49,8.46-1.19a62.73,62.73,0,0,0,20-8.45c3.22-2.13,5.92-5.37,6.23-9.3.47-6.07.12-12.2.12-19.11-4.15,5.26-9.28,7.84-14.31,10.33-3.41,1.69-7.32,2.47-11.09,3.31a107.76,107.76,0,0,1-12.14,2,62.44,62.44,0,0,1-9,0c-2.88-.11-5.88.74-8.57-1-4.26.58-8.19-1-12.13-2.08a53.7,53.7,0,0,1-11.61-4.42C233.63,362.54,229.91,360.55,227,356Z" transform="translate(-79 -210.86)"/><path class="cls-2" d="M374,312.39c3.18-2.56,5.56-5.91,9.12-8.15,4-2.53,8.46-3.76,12.84-5.22,2.06-.69,4.23-1,6.26-1.79s4.33.2,6.58-1.05c1.66-.92,4.23-.18,6.39-.18,2.5,0,5,0,7.49,0,1.91,0,3.76-.06,5.63.91,1.48.77,3.62-.75,5.08,1,4.21-.13,7.83,1.95,11.71,3,4.16,1.17,7.63,3.5,11.06,5.85a14.86,14.86,0,0,1,5.61,8.6c1,3.75-.57,7.21-2.85,10.11-2.59,3.3-6.24,5.39-10,7.07a73.87,73.87,0,0,1-19.7,5.64,88,88,0,0,1-16.59.71,67,67,0,0,1-29.2-7.83c-3.77-2-7.13-4.41-8.88-8.22-1.17-2.53-3-5.45-.57-8.48C374.28,314,374,313.1,374,312.39Z" transform="translate(-79 -210.86)"/><path class="cls-4" d="M373,327.08c2.88,3.8,7,5.54,10.63,7.76,3.32,2.07,7.38,3.07,11.24,4.09s7.87,2.66,12.13,2.07c2.69,1.71,5.69.86,8.56,1a62.58,62.58,0,0,0,9,0,106.26,106.26,0,0,0,12.14-2,51.38,51.38,0,0,0,11.07-3.36c4.5-2.18,9.16-4.36,12.5-8.37a7.12,7.12,0,0,0,.77-1.7l.82.65v19.6a52.43,52.43,0,0,1-3.4,5.23c-3.19,3.91-7.88,5.67-12.17,7.93-2,1.06-4.48,1.22-6.6,2.12s-4.41.39-6.19,1.94c-.09.08-.32,0-.49,0-3.85.33-7.7.8-11.56,1s-7.78.65-11.44-.11c-4.58-1-9.3-.92-13.82-2.7-4.29-1.69-8.69-3-12.9-5a22.24,22.24,0,0,1-8.9-8.31,7.83,7.83,0,0,1-1.31-3.92C372.92,339,373,333,373,327.08Z" transform="translate(-79 -210.86)"/><path class="cls-2" d="M271.77,325.69c4.67.43,9.43.48,14,1.4,7,1.4,13.86,3.27,20.1,6.91,4.31,2.51,7.79,5.46,9.45,10.63,1.42,4.45-.13,7.8-2.47,10.87-3.23,4.24-8.17,6.33-12.92,8.46-2,.89-4.12,1.29-6.14,2.06s-4.34.58-6.22,1.87c-.23.16-.63.08-.95.11-3.69.33-7.38.8-11.08,1s-7.32,0-11,.06c-2.43,0-4.55-1.32-7.09-1.13s-4.86-.76-7.18-1.83c-2.09-1-4.46-1.26-6.62-2.1s-4.14-2.07-6.27-2.94a16.8,16.8,0,0,1-9-8.18c-2.33-4.73-2-8.61,1.43-12.17a40.85,40.85,0,0,1,7.28-6.45c3.86-2.46,8.13-3.79,12.37-5.12,2.2-.69,4.54-1.05,6.73-1.87s4.29-.16,6.57-1c2.63-1,5.91-.23,8.9-.23Z" transform="translate(-79 -210.86)"/><path class="cls-4" d="M227,356c2.91,4.53,6.63,6.52,10.18,8.48a53.7,53.7,0,0,0,11.61,4.42c3.94,1.11,7.87,2.66,12.13,2.08,2.69,1.71,5.69.86,8.57,1a62.44,62.44,0,0,0,9,0,107.76,107.76,0,0,0,12.14-2c3.77-.84,7.68-1.62,11.09-3.31,5-2.49,10.16-5.07,14.31-10.33,0,6.91.35,13-.12,19.11-.31,3.93-3,7.17-6.23,9.3a62.73,62.73,0,0,1-20,8.45c-2.86.7-5.82.11-8.46,1.19s-5.49.44-8.22.6c-3,.17-6.14.64-8.94-.1-4.56-1.19-9.3-.83-13.84-2.69-4.25-1.73-8.71-2.92-12.87-5.08a20.81,20.81,0,0,1-8.93-8.23,9.89,9.89,0,0,1-1.37-4.4C226.91,368.69,227,362.91,227,356Z" transform="translate(-79 -210.86)"/></svg>