<svg id="Layer_1" data-name="Layer 1" xmlns="http://www.w3.org/2000/svg" viewBox="0 0 603 402.22"><defs><style>.cls-1{fill:#fff;}</style></defs><path d="M7.09,449V300.84a22.93,22.93,0,0,1,4.93-2,53.8,53.8,0,0,1,5.58-.89c2-.14,3.62-1.27,5.57-1.22s3.7-.81,5.55-1.15a66.63,66.63,0,0,0,8.7-1.84c2.67-.89,5.67-.4,8.17-2,4.27.6,8.1-1.48,12.13-2.21s8.36-1.1,12.32-2.73c1-.41,2.31-.06,3.69-.06,2.73-3.76,6.64-6.42,10.69-8.69a48.15,48.15,0,0,1,10.72-4.23c5-1.37,10.2-1.78,15.25-3,1.89-.46,4-.05,6-.08a64.94,64.94,0,0,1,18.71,1.85c1.92.53,4.6,1.1,6.54-.85,4.7.28,9.09-1.5,13.65-2.18,5.35-.8,10.83-1.6,16-3.51,1.93-.72,4.26.42,6-1.31,5.91-1,12-1.49,17.7-3.15,5.26-1.52,10.72-2,15.92-3.75,2.67-.92,5.68-.85,9-1.28,2.55-3.51,6.44-6.19,10.5-8.42a43.88,43.88,0,0,1,11.19-4.28c4-.92,8.13-1.46,12.09-2.32,6.1-1.33,12.11-.37,18.13-.73,1.51-.09,3.05.62,4.58.93s2.72-.12,4.23.73a7,7,0,0,0,5.31.16c3.84-1.5,8-1.29,11.86-2.71,2.08-.77,4.67-.61,7-1.1a110.54,110.54,0,0,0,12.79-2.92c1.88-.62,4-.58,6.06-1.05,4.72-1.09,9.52-1.84,14.26-3,2.88-.68,5.81-1,8.69-2,2.67-.9,5.77-.47,8.5-1.25a52.46,52.46,0,0,1,10.85-2c2.56-4,6.73-6.37,10.71-8.7a43.38,43.38,0,0,1,11.27-4.09c4-1,8.07-1.6,12.1-2.32a67.48,67.48,0,0,1,9.13-.72c3.16-.16,6.55-.74,9.43.16s5.84-.19,8.23,1.8c2.2-.44,4.46.7,6.71-.76,1.5-1,3.61-.37,5.53-1.06,2.94-1.07,6.3-1,9.31-1.35L610.08,371.29v150c-2.09.45-4.21,1-6.35,1.37s-4.59,0-6,1.16c-2,1.69-4.75-.42-6.29,1.85-4.37-.26-8.38,1.64-12.66,2.1-3.68.4-7.27,1.71-10.9,2.56-2.14.5-4.32.73-6.47,1.24-3,.72-6.11,1.38-9.17,2a58.84,58.84,0,0,0-8.71,2c-1.84.65-4,.61-6,1.08-4.73,1.09-9.52,1.89-14.27,2.93-2.74.6-5.53,1.17-8.3,1.75s-5.65.8-8.41,1.45c-3.53.84-7.19,1.26-10.62,2.18s-7.08.93-10.38,2.64c-1.54.79-3.68.63-5.54,1-4.94.94-9.9,1.71-14.74,3.11-1.23.35-2.67-.07-4,.09-1.06.14-2,.74-3.1.94-2.18.41-4.59.26-6.5,1.17a11.84,11.84,0,0,1-3.66.88c-1.21.2-2.37.74-3.59,1-2.35.41-5.08.07-7,1.18-2.24,1.32-4.94-.2-6.79,1.77-4.23-.39-8,1.79-12.12,2.21a65.72,65.72,0,0,0-10.63,2.08c-3.42.94-7,1.52-10.39,2.53a75.57,75.57,0,0,1-11.08,2.31,56.1,56.1,0,0,0-11,2.3,38.08,38.08,0,0,1-6.84,1.43c-3.91.61-7.74,1.63-11.61,2.37s-7.69,1-11.36,2.65c-1.75.78-4,.61-6,1.08-4.73,1.09-9.55,1.72-14.26,3-2.24.61-4.71.14-7.08,1-2,.75-4.66.22-6.47,1.24-1.65.93-3.26.31-4.63.93s-2.79.59-4.1,1a104.61,104.61,0,0,1-12.37,2.59c-4,.7-8,1.74-12,2.5-6.13,1.15-12.35,2-18.41,3.67-2.66.74-5.51,1.16-8.28,1.78s-5.65.77-8.42,1.42c-3.53.84-7.2,1.24-10.62,2.18s-7.23.62-10.31,2.78c-4.21-.23-8.13,1.29-12.16,2.08-5.51,1.08-11.16,1.69-16.46,3.65-1.81.67-4-.73-5.47,1.27-5.57.19-10.84,2-16.26,3a12.57,12.57,0,0,1-2.37,0ZM172.25,608.74c2.88-.71,5.55-1.79,8.27-1.93,4.17-.21,7.9-2.58,12.13-2.17,5.43-2.14,11.28-2.57,16.91-3.74,4-.82,7.87-2.65,12.1-2.27,5.44-2.12,11.28-2.56,16.91-3.73,4-.83,7.87-2.64,12.1-2.27,1.62-2.1,4.22-.33,6.33-1.74,1.78-1.2,4.65-.65,6.95-1.22,3.78-.95,7.64-1.48,11.4-2.61a101.17,101.17,0,0,1,12-2.33c2.68-.44,5.76,0,8-1.22,2-1.07,4.06.12,5.52-1.18s3.46,0,5.14-.94a17.77,17.77,0,0,1,5.3-1.64c4.37-.78,8.81-1.19,13.15-2.12,2-.43,4.36-.31,6-1.07,6.25-2.83,13.19-2.47,19.53-4.75,1.69-.6,3.71-.33,5.58-1s4.16-.41,6-1.17,4.12-.22,5.53-1.07c2.36-1.42,4.95-.44,7.35-1.68,2.13-1.1,5.1-.45,7.46-1.28,1.9-.66,4.11-.2,5.52-1.05,1.89-1.14,4-.61,5.85-1.69,1.66-1,4-.8,6-1.14a42.08,42.08,0,0,0,6.07-1.06c2.13-.68,4.33-.79,6.47-1.27,3.64-.82,7.22-2.16,10.9-2.56,4.27-.47,8.29-2.36,12.66-2.11,1.45-2,3.94-.12,5.4-1.37,1.63-1.38,3.47-.07,5.14-.94a19.07,19.07,0,0,1,5.31-1.65c2.66-.49,5.5-.32,8-1.15s5.2-.83,7.75-1.75,5.82-.38,8.48-1.29c2.89-1,5.82-1.29,8.7-2,4.73-1.15,9.53-1.88,14.26-3,2-.46,4.33-.29,6-1.09,3.34-1.56,7-1.69,10.39-2.59s7.09-1.39,10.62-2.19c2.78-.62,5.63-.89,8.41-1.45s5.64-1,8.29-1.76c5.75-1.59,11.65-2.35,17.43-3.64,4-.89,8-1.83,12-2.54s8.29-1.52,12.37-2.59c2.87-.75,5.87-.78,8.69-2,1.7-.72,3.71-.68,5.55-1.08,2.89-.62,5.75-1.33,8.53-2,.7-13.9.43-140.79-.29-145-.35.32-.73.93-1.09.93-3.23,0-6.14,1.42-9.19,1.91-7,1.11-13.86,2.91-20.84,4-5.61.89-11,3.18-16.74,3.1-1.45,2-3.94.13-5.4,1.37-1.63,1.38-3.48.08-5.14.94a16,16,0,0,1-5.3,1.64c-5.81.73-11.5,2.06-17.25,3.09-4.93.89-9.8,2.16-14.73,3.11-4.76.93-9.53,1.89-14.26,2.95-2,.46-4.19.43-6.06,1.05-4.36,1.46-8.9,1.89-13.25,3.05-2,.54-4.12.32-6,1.09-2.51,1-5.2,1.13-7.8,1.67s-5.47.41-8,1.22c-7.36,2.33-15,3.26-22.49,4.83-2.17.46-4.47.62-6.5,1.24-5.89,1.79-12,2.51-17.91,3.86-2,.46-4.05.68-6.07,1-1.79.3-3.47,1.72-5.21,1.73-2.16,0-4.06.76-6.08,1.13-1.86.34-3.72.68-5.59,1s-4.26.25-6,1.11c-2.23,1.08-4.6.86-6.86,1.53-5.09,1.52-10.4,2.28-15.62,3.37-2.17.45-4.52.58-6.53,1.18-4.38,1.32-8.92,1.8-13.26,3-2,.57-4.12.32-6,1.09-2.51,1-5.2,1.14-7.8,1.68s-5.47.41-8,1.23-4.84,1.2-7.22,1.88c-2.56.72-5.21,1.17-7.75,1.67A48.57,48.57,0,0,1,293,438.8a22.78,22.78,0,0,0-6.49,1.16c-5.53,2-11.32,2.47-17,3.59-4.16.82-8.28,2.34-12.64,2.16-5,2.43-10.63,2.32-15.89,3.83-2.94.85-6.14,1.27-9.23,1.88s-6.41,1.35-9.6,2.1c-1.94.45-4,.92-6,1.21-1.87.26-3.72.66-5.59,1-2,.35-4.24.28-6,1.11-2,.93-4.15.42-6.06,1.07-5.83,2-11.9,2.72-17.9,3.86-2.89.54-5.7,1.44-8.33,2.12Zm-.12-148.11c1.79-.28,4-.26,5.81-1s4.08-.26,5.54-1.08c1.89-1.06,3.94-.75,5.83-1.69s4.32-.79,6.52-1.14c2-.32,4.34-.16,6-1.13,2-1.16,4.09-.48,6-1.14a71.3,71.3,0,0,1,10.88-2.57c4.21-.72,8.49-1.46,12.59-2.39,5.29-1.19,10.77-1.73,15.93-3.68,2.33-.87,5.38-.11,7.46-1.26,2.41-1.33,5.26.23,7.27-1.83,2.35.73,4.32-1,6.58-1,2-.09,4.51-.05,6-1.16,2-1.57,4.72.4,6.31-1.79,6.19-.34,12.15-2.09,18.25-3a56.09,56.09,0,0,0,6.52-1.2,83.46,83.46,0,0,1,13.82-2.83c2.3-.24,4.52-1.21,6.82-1.58a58,58,0,0,0,9.06-2.27c2.37-.8,5.37-.13,7.46-1.26,2.41-1.3,4.93-.48,7.36-1.65s5.77-.43,8.44-1.34c2.88-1,5.82-1.29,8.69-2,4.74-1.14,9.54-1.86,14.27-3,2-.47,4.25-.35,6-1.06,5.16-2,10.64-2.53,15.95-3.66,4.14-.88,8.27-2.36,12.63-2.18,5-2.43,10.6-2.52,15.89-3.82,6.21-1.53,12.55-2.68,18.84-4,6-1.25,12.11-2.29,18.21-3.22a46,46,0,0,0,6.51-1.2c5.89-1.81,11.94-2.57,17.9-3.86,2-.45,4.39-.3,6-1.14,1.83-.95,3.54-.29,5.16-.88,1.44-.53,2.76-1.52,4.23-1.83,1.68-.35,3.44-.66,5.09-.89,5.48-.77,10.82-2.14,16.23-3.2,1-.2,2-.8,3.1-.94,1.31-.16,2.84.38,4-.11,3.94-1.72,8.23-1.95,12.32-2.74s8.28-2.36,12.64-2.19c5-2.42,10.59-2.64,15.89-3.79s10.78-2.24,16.2-3.24c3.59-.65,7.12-1.58,9.92-2.21L445.63,212.86l-7.5,1.25-.06,1.29a67.48,67.48,0,0,1,9.14,4.21,23.11,23.11,0,0,1,8.18,7.84c2.07,3.48,2.69,4.67,2.69,7.89,0,8.67-.06,17.33,0,26a13.24,13.24,0,0,1-2.35,8c-4,5.34-9.69,8.74-15.75,11.3-3.26,1.39-6.82,2-10.22,3.08-3.65,1.12-7.49,1.1-11.21,1.83s-8,.29-12,.13-7.72-.63-11.58-1a1.3,1.3,0,0,1-.49,0c-4.42-2.29-9.48-2.44-14-4.76-6.85-3.48-9.36-4.23-13-8.33A15.71,15.71,0,0,1,363,260.41c.17-7.33,0-14.66,0-22,0-2.84-.44-5.73,1.15-8.37-24.35,4.62-48.19,9.81-72.41,14.24.59,1.76,2.23,1.94,3.33,2.35A30.36,30.36,0,0,1,308.74,256a15.14,15.14,0,0,1,3.41,10.09c-.22,8.16-.1,16.33-.06,24.5a15.48,15.48,0,0,1-4.81,11.54c-2.86,2.9-6.31,4.73-9.76,6.69a26.49,26.49,0,0,1-11.88,3.9c-1.44,2-3.89.61-5.78,1.85-1.42.93-3.77.43-5.71.59s-4.18.55-6.27.53c-5-.06-10,0-15.11-.79A105,105,0,0,1,239.91,312,52,52,0,0,1,228,306.83a25.55,25.55,0,0,1-7-5.8c-2.39-2.95-4.05-6.25-4-10.36.17-9.49.05-19,.05-28.08l1.31-2.6-72.26,14.36,0,.79a14.51,14.51,0,0,0,2.8,1.54,27,27,0,0,1,13.33,8.77,15.23,15.23,0,0,1,3.93,10.37c-.18,8.16-.09,16.33,0,24.5a16,16,0,0,1-5,12c-2.77,2.79-6.15,4.45-9.39,6.41C148,341,143.6,341.63,139.52,343c-4.42,1.52-9,1.6-13.41,2.53-3.67.76-7.64.28-11.47.12s-7.72-.63-11.58-1a1.56,1.56,0,0,1-.49,0c-4.42-2.32-9.88-1.69-13.95-4.95-2.87.36-4.44-2.16-6.75-3-2.7-1-4.55-3.09-6.35-5.14-2.79-3.14-4.6-6.69-4.48-11.14.18-7,0-14,0-21,0-3.18-.51-6.4,1.28-9.67L13.5,302ZM169,464.22,10.19,305.44V446.21L169,605ZM367.08,230.05c0,.76.19,1.37,0,1.74-2.12,3.58-.41,6.52,1.21,9.7,2,4,5.62,6,9.16,8,3.9,2.2,8.33,3.2,12.53,4.71,4.37,1.56,9,1.65,13.45,2.42,3.72.64,7.64.26,11.46.1s7.38-.63,11.07-1a3.54,3.54,0,0,0,.9-.25c3.93-1.41,8.1-2,11.94-3.73,4.75-2.14,9.53-4.26,13-8.28,2.49-2.86,4-6.47,3.13-10.08a14.94,14.94,0,0,0-5.81-9c-3.43-2.35-6.92-4.71-11.12-5.67-2.1-.48-4.12-1.3-6.17-2a51.36,51.36,0,0,0-6.18-1.94c-2.17-.4-4.56.51-6.56-1.06h-17c-2,1.82-4.66.56-6.93,1.35s-4.62.88-6.79,1.7c-4.16,1.59-8.42,2.87-12.31,5.3C372.63,224.21,370.4,227.47,367.08,230.05ZM221,260.1c0,.86.27,1.72,0,2.14-1.48,2-.76,3.69-.19,5.83,1.39,5.27,5.1,8.15,9.42,10.64,4,2.32,8.52,3.53,12.87,5.13,4.68,1.71,9.55,1.87,14.31,2.74,3.7.67,7.64.26,11.46.1s7.38-.63,11.07-1a4,4,0,0,0,.9-.24c3.92-1.43,8.1-2,11.94-3.74,4.75-2.14,9.53-4.25,13-8.28,2.48-2.85,4-6.45,3.13-10.08a15,15,0,0,0-5.8-9c-3.42-2.38-6.93-4.69-11.12-5.68-2.1-.49-4.12-1.3-6.17-2a51.36,51.36,0,0,0-6.18-1.94c-2.17-.4-4.56.52-6.56-1.06h-17c-2,1.82-4.66.56-6.93,1.34s-4.62.89-6.79,1.71c-4.16,1.6-8.43,2.86-12.31,5.29C226.64,254.2,224.41,257.46,221,260.1Zm-146,30.08c0,.74.28,1.62,0,2-1.54,2-.84,3.69-.22,5.83,1.54,5.33,5.27,8.21,9.83,10.8,8.33,4.73,17.45,6.56,26.72,7.79a66.66,66.66,0,0,0,11.48.05c3.7-.17,7.38-.63,11.07-1a4,4,0,0,0,.91-.21c3.91-1.47,8.09-2,11.93-3.76,4.75-2.15,9.43-4.35,13.08-8.23,2-2.16,2.78-4.91,3.21-7.65.4-2.55-.88-4.76-2.19-7.05-3.24-5.7-8.85-7.72-14.29-10.07a62.26,62.26,0,0,0-6.15-2,59.14,59.14,0,0,0-6.68-2c-2.17-.41-4.56.54-6.56-1.06h-17c-2,1.82-4.66.56-6.94,1.32s-4.62.9-6.78,1.73c-4.15,1.61-8.46,2.78-12.32,5.27C80.59,284.31,78.16,287.61,75.05,290.18Zm380-46.16c-4.14,5.26-9.27,7.84-14.31,10.33-3.41,1.69-7.32,2.47-11.08,3.31a104.1,104.1,0,0,1-12.14,2,64.06,64.06,0,0,1-9,0c-2.87-.11-5.87.73-8.57-1-4.25.58-8.18-1-12.12-2.07a54.54,54.54,0,0,1-11.62-4.43c-3.54-2-7.27-3.94-10.18-8.48,0,6.89-.09,12.67.07,18.44a10,10,0,0,0,1.36,4.4,20.75,20.75,0,0,0,8.93,8.23c4.16,2.16,8.62,3.35,12.88,5.08,4.53,1.85,9.27,1.52,13.83,2.7,2.81.72,6,.27,8.94.09,2.74-.15,5.47.54,8.23-.59s5.59-.5,8.45-1.2a62.65,62.65,0,0,0,20-8.45c3.21-2.13,5.91-5.37,6.22-9.3C455.43,257.06,455.08,250.93,455.08,244Zm-235,29.55c0,7.05-.09,12.82.07,18.59a10,10,0,0,0,1.35,4.4,21.19,21.19,0,0,0,8.94,8.23,67.81,67.81,0,0,0,29.16,7.84,85.15,85.15,0,0,0,17.08-.72,74.89,74.89,0,0,0,12-2.56,47.73,47.73,0,0,0,13.7-6.64c3.28-2.45,6.22-5.52,6.58-9.57.55-6.06.14-12.2.14-19.12-4.14,5.26-9.27,7.84-14.3,10.32-3.41,1.69-7.32,2.48-11.08,3.32-4,.9-8.09,1.95-12.14,1.92-5.84-.05-11.8,1.32-17.55-.87-4.25.58-8.17-1-12.12-2.06s-7.88-2.08-11.24-4.11C227.05,280.37,223,278.49,220.08,273.57Zm-146,30c0,7-.09,12.81.07,18.58a10,10,0,0,0,1.35,4.39,21.31,21.31,0,0,0,8.94,8.23,67.85,67.85,0,0,0,29.17,7.84,85.18,85.18,0,0,0,17.08-.72,75.14,75.14,0,0,0,12-2.57,47.05,47.05,0,0,0,13.7-6.63c3.27-2.45,6.22-5.52,6.57-9.58.54-6.06.14-12.2.14-19.11-4.14,5.26-9.27,7.84-14.3,10.33-3.42,1.69-7.32,2.47-11.09,3.31-4,.9-8.09,1.94-12.13,1.92-5.84,0-11.81,1.28-17.55-.87-4.26.58-8.18-1-12.13-2.07s-7.87-2.08-11.24-4.1C81,310.38,77,308.47,74.08,303.59Z" transform="translate(-7.09 -209.54)"/><path class="cls-1" d="M172.25,608.74V463.87c2.63-.68,5.44-1.58,8.33-2.12,6-1.14,12.07-1.87,17.9-3.86,1.91-.65,4-.14,6.06-1.07,1.8-.83,4-.76,6-1.11,1.87-.32,3.72-.72,5.59-1,2-.29,4.1-.76,6-1.21,3.19-.75,6.38-1.46,9.6-2.1s6.29-1,9.23-1.88c5.26-1.51,10.89-1.4,15.89-3.83,4.36.18,8.48-1.34,12.64-2.16,5.65-1.12,11.44-1.62,17-3.59A22.78,22.78,0,0,1,293,438.8a48.57,48.57,0,0,0,7.53-1.35c2.54-.5,5.19-.95,7.75-1.67,2.38-.68,4.82-1.1,7.22-1.88s5.36-.68,8-1.23,5.29-.66,7.8-1.68c1.9-.77,4-.52,6-1.09,4.34-1.2,8.88-1.68,13.26-3,2-.6,4.36-.73,6.53-1.18,5.22-1.09,10.53-1.85,15.62-3.37,2.26-.67,4.63-.45,6.86-1.53,1.77-.86,4-.76,6-1.11s3.73-.66,5.59-1c2-.37,3.92-1.11,6.08-1.13,1.74,0,3.42-1.43,5.21-1.73,2-.35,4-.57,6.07-1,5.95-1.35,12-2.07,17.91-3.86,2-.62,4.33-.78,6.5-1.24,7.5-1.57,15.13-2.5,22.49-4.83,2.54-.81,5.37-.67,8-1.22s5.29-.65,7.8-1.67c1.9-.77,4-.55,6-1.09,4.35-1.16,8.89-1.59,13.25-3.05,1.87-.62,4-.59,6.06-1.05,4.73-1.06,9.5-2,14.26-2.95,4.93-.95,9.8-2.22,14.73-3.11,5.75-1,11.44-2.36,17.25-3.09a16,16,0,0,0,5.3-1.64c1.66-.86,3.51.44,5.14-.94,1.46-1.24,3.95.58,5.4-1.37,5.78.08,11.13-2.21,16.74-3.1,7-1.12,13.83-2.92,20.84-4,3.05-.49,6-1.95,9.19-1.91.36,0,.74-.61,1.09-.93.72,4.19,1,131.08.29,145-2.78.65-5.64,1.36-8.53,2-1.84.4-3.85.36-5.55,1.08-2.82,1.2-5.82,1.23-8.69,2-4.08,1.07-8.25,1.87-12.37,2.59s-8.06,1.65-12,2.54c-5.78,1.29-11.68,2.05-17.43,3.64-2.65.74-5.51,1.2-8.29,1.76s-5.63.83-8.41,1.45c-3.53.8-7.18,1.3-10.62,2.19s-7.05,1-10.39,2.59c-1.7.8-4,.63-6,1.09-4.73,1.09-9.53,1.82-14.26,3-2.88.69-5.81,1-8.7,2-2.66.91-5.84.34-8.48,1.29s-5.21.93-7.75,1.75-5.38.66-8,1.15A19.07,19.07,0,0,0,446,552.4c-1.67.87-3.51-.44-5.14.94-1.46,1.25-4-.59-5.4,1.37-4.37-.25-8.39,1.64-12.66,2.11-3.68.4-7.26,1.74-10.9,2.56-2.14.48-4.34.59-6.47,1.27a42.08,42.08,0,0,1-6.07,1.06c-2,.34-4.35.17-6,1.14-1.87,1.08-4,.55-5.85,1.69-1.41.85-3.62.39-5.52,1.05-2.36.83-5.33.18-7.46,1.28-2.4,1.24-5,.26-7.35,1.68-1.41.85-3.65.3-5.53,1.07s-4.12.48-6,1.17-3.89.42-5.58,1c-6.34,2.28-13.28,1.92-19.53,4.75-1.67.76-4,.64-6,1.07-4.34.93-8.78,1.34-13.15,2.12a17.77,17.77,0,0,0-5.3,1.64c-1.68.9-3.54-.49-5.14.94s-3.56.11-5.52,1.18c-2.21,1.21-5.29.78-8,1.22a101.17,101.17,0,0,0-12,2.33c-3.76,1.13-7.62,1.66-11.4,2.61-2.3.57-5.17,0-6.95,1.22-2.11,1.41-4.71-.36-6.33,1.74-4.23-.37-8.11,1.44-12.1,2.27-5.63,1.17-11.47,1.61-16.91,3.73-4.23-.38-8.11,1.45-12.1,2.27-5.63,1.17-11.48,1.6-16.91,3.74-4.23-.41-8,2-12.13,2.17C177.8,607,175.13,608,172.25,608.74Z" transform="translate(-7.09 -209.54)"/><path class="cls-1" d="M172.13,460.63,13.5,302l58.87-12.23c-1.79,3.27-1.26,6.49-1.28,9.67,0,7,.13,14,0,21-.12,4.45,1.69,8,4.48,11.14,1.8,2.05,3.65,4.14,6.35,5.14,2.31.86,3.88,3.38,6.75,3,4.07,3.26,9.53,2.63,13.95,4.95a1.56,1.56,0,0,0,.49,0c3.86.34,7.72.8,11.58,1s7.8.64,11.47-.12c4.44-.93,9-1,13.41-2.53,4.08-1.4,8.43-2,12.22-4.32,3.24-2,6.62-3.62,9.39-6.41a16,16,0,0,0,5-12c0-8.17-.14-16.34,0-24.5a15.23,15.23,0,0,0-3.93-10.37,27,27,0,0,0-13.33-8.77,14.51,14.51,0,0,1-2.8-1.54l0-.79L218.39,260l-1.31,2.6c0,9.09.12,18.59-.05,28.08-.08,4.11,1.58,7.41,4,10.36a25.55,25.55,0,0,0,7,5.8A52,52,0,0,0,239.91,312a105,105,0,0,0,12.86,2.88c5.07.83,10.07.73,15.11.79,2.09,0,4.18-.36,6.27-.53s4.29.34,5.71-.59c1.89-1.24,4.34.1,5.78-1.85a26.49,26.49,0,0,0,11.88-3.9c3.45-2,6.9-3.79,9.76-6.69a15.48,15.48,0,0,0,4.81-11.54c0-8.17-.16-16.34.06-24.5A15.14,15.14,0,0,0,308.74,256a30.36,30.36,0,0,0-13.58-9.35c-1.1-.41-2.74-.59-3.33-2.35,24.22-4.43,48.06-9.62,72.41-14.24-1.59,2.64-1.13,5.53-1.15,8.37,0,7.33.12,14.66,0,22a15.71,15.71,0,0,0,4.45,11.17c3.66,4.1,6.17,4.85,13,8.33,4.56,2.32,9.62,2.47,14,4.76a1.3,1.3,0,0,0,.49,0c3.86.34,7.71.8,11.58,1s8.11.61,12-.13,7.56-.71,11.21-1.83c3.4-1,7-1.69,10.22-3.08,6.06-2.56,11.75-6,15.75-11.3a13.24,13.24,0,0,0,2.35-8c-.1-8.67,0-17.33,0-26,0-3.22-.62-4.41-2.69-7.89a23.11,23.11,0,0,0-8.18-7.84,67.48,67.48,0,0,0-9.14-4.21l.06-1.29,7.5-1.25L604.24,371.47c-2.8.63-6.33,1.56-9.92,2.21-5.42,1-10.84,2.09-16.2,3.24s-10.89,1.37-15.89,3.79c-4.36-.17-8.47,1.38-12.64,2.19s-8.38,1-12.32,2.74c-1.12.49-2.65-.05-4,.11-1.06.14-2,.74-3.1.94-5.41,1.06-10.75,2.43-16.23,3.2-1.65.23-3.41.54-5.09.89-1.47.31-2.79,1.3-4.23,1.83-1.62.59-3.33-.07-5.16.88-1.6.84-3.95.69-6,1.14-6,1.29-12,2.05-17.9,3.86a46,46,0,0,1-6.51,1.2c-6.1.93-12.21,2-18.21,3.22-6.29,1.3-12.63,2.45-18.84,4-5.29,1.3-10.89,1.39-15.89,3.82-4.36-.18-8.49,1.3-12.63,2.18-5.31,1.13-10.79,1.63-15.95,3.66-1.79.71-4,.59-6,1.06-4.73,1.1-9.53,1.82-14.27,3-2.87.7-5.81,1-8.69,2-2.67.91-6,.15-8.44,1.34s-4.95.35-7.36,1.65c-2.09,1.13-5.09.46-7.46,1.26a58,58,0,0,1-9.06,2.27c-2.3.37-4.52,1.34-6.82,1.58a83.46,83.46,0,0,0-13.82,2.83,56.09,56.09,0,0,1-6.52,1.2c-6.1.93-12.06,2.68-18.25,3-1.59,2.19-4.27.22-6.31,1.79-1.44,1.11-3.92,1.07-6,1.16-2.26.09-4.23,1.78-6.58,1-2,2.06-4.86.5-7.27,1.83-2.08,1.15-5.13.39-7.46,1.26-5.16,1.95-10.64,2.49-15.93,3.68-4.1.93-8.38,1.67-12.59,2.39a71.3,71.3,0,0,0-10.88,2.57c-1.95.66-4,0-6,1.14-1.67,1-4,.81-6,1.13-2.2.35-4.63.19-6.52,1.14s-3.94.63-5.83,1.69c-1.46.82-3.65.31-5.54,1.08S173.92,460.35,172.13,460.63Zm272-131.53c0,4.67-.12,9.33.06,14a12.85,12.85,0,0,0,1.33,5.41c3.1,5.69,8.27,9.36,14,11.8,3.46,1.48,6.92,3.82,11.06,3.41,1.45,1.93,3.89.65,5.77,1.85,1.44.91,3.92,0,5.69.66,2.14.76,4.2.39,6.28.46a88.13,88.13,0,0,0,25.26-2.85c8.45-2.18,16-5.65,22-12a12.58,12.58,0,0,0,3.5-8.52c.22-9.48.15-19,0-28.46a9.27,9.27,0,0,0-1.33-4.9,29.05,29.05,0,0,0-9.45-9.36c-3.53-2-7.33-3.27-10.9-5.09a19.24,19.24,0,0,0-2.17-.78,17.92,17.92,0,0,0-7.58-1c-1.21-1.74-3-.71-4.58-1a35.77,35.77,0,0,0-5.08-1,94.53,94.53,0,0,0-28.25,2.84,70.23,70.23,0,0,0-10.85,4,32,32,0,0,0-10.15,6.93,15.41,15.41,0,0,0-4.59,11.12C444.07,320.78,444.08,324.94,444.08,329.1Zm-51,30.34c0-4.49,0-9,0-13.48a12.36,12.36,0,0,0-.71-3.68c-1.6-5.07-5-8.31-9.24-11.11a59.84,59.84,0,0,0-10-4.9,46.31,46.31,0,0,0-4.79-1.74c-2.25-.66-4.76-.06-6.54-1-2.17-1.13-4.52.09-6.08-.95-2.12-1.41-4.14-.7-6.17-.83a81.55,81.55,0,0,0-26.23,3c-7.49,2-14.42,5-20.19,10.38a15.8,15.8,0,0,0-5.08,12.41c.08,7.82.18,15.65,0,23.47-.13,4.82,1.74,8.62,4.84,12,4.61,5,10.79,7.29,16.87,9.9,1.93.83,4,.36,5.86,1.61,1.56,1,3.92,1.06,6,1.18s4.1.75,6.08.91a71.47,71.47,0,0,0,15.95,0,115,115,0,0,0,14.3-2.71c7.7-2.15,14.68-5.25,20.5-10.85a15,15,0,0,0,4.72-11.55C393.06,367.43,393.08,363.44,393.08,359.44Zm-241,29.46c0,4.67.08,9.33,0,14a12.41,12.41,0,0,0,1.64,5.82c2.95,5.83,8.4,9.21,14,11.78a59.31,59.31,0,0,0,11,3.58,116.21,116.21,0,0,0,15.86,2.59,65.2,65.2,0,0,0,9.48,0c3-.17,6-.78,9.08-.93s5.76-1.42,8.65-2.05A41.46,41.46,0,0,0,242.32,413a15.15,15.15,0,0,0,4.77-11.52c0-8.33,0-16.65,0-25a13.36,13.36,0,0,0-.48-3.79c-1.6-5.3-5.21-9-9.78-11.86-3.42-2.17-7.21-3.5-10.86-5.16a23,23,0,0,0-3.07-1,28.48,28.48,0,0,0-3.59-1c-1.28-.2-2.7.12-3.88-.29a29.35,29.35,0,0,0-9.27-1.61c-5.84,0-11.7-.67-17.6.71-3.48.81-7.09,1.32-10.63,2.12-8.12,1.85-15.4,5.13-21.4,11.08a14.53,14.53,0,0,0-4.4,10.67C152,380.58,152.08,384.74,152.08,388.9Z" transform="translate(-7.09 -209.54)"/><path class="cls-1" d="M169,464.22V605L10.19,446.21V305.44Z" transform="translate(-7.09 -209.54)"/><path class="cls-1" d="M367.08,230.05c3.32-2.58,5.55-5.84,9-8,3.89-2.43,8.15-3.71,12.31-5.3,2.17-.82,4.6-.94,6.79-1.7s4.9.47,6.93-1.35h17c2,1.57,4.39.66,6.56,1.06a51.36,51.36,0,0,1,6.18,1.94c2.05.67,4.07,1.49,6.17,2,4.2,1,7.69,3.32,11.12,5.67a14.94,14.94,0,0,1,5.81,9c.85,3.61-.64,7.22-3.13,10.08-3.5,4-8.28,6.14-13,8.28-3.84,1.73-8,2.32-11.94,3.73a3.54,3.54,0,0,1-.9.25c-3.69.34-7.37.8-11.07,1s-7.74.54-11.46-.1c-4.48-.77-9.08-.86-13.45-2.42-4.2-1.51-8.63-2.51-12.53-4.71-3.54-2-7.14-4-9.16-8-1.62-3.18-3.33-6.12-1.21-9.7C367.27,231.42,367.08,230.81,367.08,230.05Z" transform="translate(-7.09 -209.54)"/><path class="cls-1" d="M221,260.1c3.39-2.64,5.62-5.9,9.06-8.05,3.88-2.43,8.15-3.69,12.31-5.29,2.17-.82,4.59-.95,6.79-1.71s4.9.48,6.93-1.34h17c2,1.58,4.39.66,6.56,1.06a51.36,51.36,0,0,1,6.18,1.94c2.05.67,4.07,1.48,6.17,2,4.19,1,7.7,3.3,11.12,5.68a15,15,0,0,1,5.8,9c.84,3.63-.65,7.23-3.13,10.08-3.51,4-8.29,6.14-13,8.28-3.84,1.73-8,2.31-11.94,3.74a4,4,0,0,1-.9.24c-3.69.34-7.37.8-11.07,1s-7.76.57-11.46-.1c-4.76-.87-9.63-1-14.31-2.74-4.35-1.6-8.82-2.81-12.87-5.13-4.32-2.49-8-5.37-9.42-10.64-.57-2.14-1.29-3.86.19-5.83C221.29,261.82,221,261,221,260.1Z" transform="translate(-7.09 -209.54)"/><path class="cls-1" d="M75.05,290.18c3.11-2.57,5.54-5.87,9.06-8.15,3.86-2.49,8.17-3.66,12.32-5.27,2.16-.83,4.57-1,6.78-1.73s4.9.5,6.94-1.32h17c2,1.6,4.39.65,6.56,1.06a59.14,59.14,0,0,1,6.68,2,62.26,62.26,0,0,1,6.15,2c5.44,2.35,11.05,4.37,14.29,10.07,1.31,2.29,2.59,4.5,2.19,7.05-.43,2.74-1.17,5.49-3.21,7.65-3.65,3.88-8.33,6.08-13.08,8.23-3.84,1.73-8,2.29-11.93,3.76a4,4,0,0,1-.91.21c-3.69.34-7.37.8-11.07,1a66.66,66.66,0,0,1-11.48-.05c-9.27-1.23-18.39-3.06-26.72-7.79-4.56-2.59-8.29-5.47-9.83-10.8-.62-2.14-1.32-3.88.22-5.83C75.33,291.8,75.05,290.92,75.05,290.18Z" transform="translate(-7.09 -209.54)"/><path class="cls-1" d="M455.08,244c0,6.91.35,13-.12,19.11-.31,3.93-3,7.17-6.22,9.3a62.65,62.65,0,0,1-20,8.45c-2.86.7-5.82.12-8.45,1.2s-5.49.44-8.23.59c-3,.18-6.13.63-8.94-.09-4.56-1.18-9.3-.85-13.83-2.7-4.26-1.73-8.72-2.92-12.88-5.08a20.75,20.75,0,0,1-8.93-8.23,10,10,0,0,1-1.36-4.4c-.16-5.77-.07-11.55-.07-18.44,2.91,4.54,6.64,6.52,10.18,8.48a54.54,54.54,0,0,0,11.62,4.43c3.94,1.1,7.87,2.65,12.12,2.07,2.7,1.71,5.7.87,8.57,1a64.06,64.06,0,0,0,9,0,104.1,104.1,0,0,0,12.14-2c3.76-.84,7.67-1.62,11.08-3.31C445.81,251.86,450.94,249.28,455.08,244Z" transform="translate(-7.09 -209.54)"/><path class="cls-1" d="M220.08,273.57c2.94,4.92,7,6.8,10.57,9,3.36,2,7.38,3.07,11.24,4.11s7.87,2.64,12.12,2.06c5.75,2.19,11.71.82,17.55.87,4.05,0,8.14-1,12.14-1.92,3.76-.84,7.67-1.63,11.08-3.32,5-2.48,10.16-5.06,14.3-10.32,0,6.92.41,13.06-.14,19.12-.36,4.05-3.3,7.12-6.58,9.57a47.73,47.73,0,0,1-13.7,6.64,74.89,74.89,0,0,1-12,2.56,85.15,85.15,0,0,1-17.08.72,67.81,67.81,0,0,1-29.16-7.84,21.19,21.19,0,0,1-8.94-8.23,10,10,0,0,1-1.35-4.4C220,286.39,220.08,280.62,220.08,273.57Z" transform="translate(-7.09 -209.54)"/><path class="cls-1" d="M74.08,303.59c3,4.88,7,6.79,10.56,9,3.37,2,7.39,3.07,11.24,4.1s7.87,2.65,12.13,2.07c5.74,2.15,11.71.84,17.55.87,4,0,8.13-1,12.13-1.92,3.77-.84,7.67-1.62,11.09-3.31,5-2.49,10.16-5.07,14.3-10.33,0,6.91.4,13.05-.14,19.11-.35,4.06-3.3,7.13-6.57,9.58a47.05,47.05,0,0,1-13.7,6.63,75.14,75.14,0,0,1-12,2.57,85.18,85.18,0,0,1-17.08.72,67.85,67.85,0,0,1-29.17-7.84,21.31,21.31,0,0,1-8.94-8.23,10,10,0,0,1-1.35-4.39C74,316.4,74.08,310.62,74.08,303.59Z" transform="translate(-7.09 -209.54)"/><path d="M444.08,329.1c0-4.16,0-8.32,0-12.48a15.41,15.41,0,0,1,4.59-11.12,32,32,0,0,1,10.15-6.93,70.23,70.23,0,0,1,10.85-4,94.53,94.53,0,0,1,28.25-2.84,35.77,35.77,0,0,1,5.08,1c1.54.29,3.37-.74,4.58,1a17.92,17.92,0,0,1,7.58,1,19.24,19.24,0,0,1,2.17.78c3.57,1.82,7.37,3.07,10.9,5.09a29.05,29.05,0,0,1,9.45,9.36,9.27,9.27,0,0,1,1.33,4.9c.13,9.49.2,19,0,28.46a12.58,12.58,0,0,1-3.5,8.52c-6.06,6.36-13.56,9.83-22,12a88.13,88.13,0,0,1-25.26,2.85c-2.08-.07-4.14.3-6.28-.46-1.77-.64-4.25.25-5.69-.66-1.88-1.2-4.32.08-5.77-1.85-4.14.41-7.6-1.93-11.06-3.41-5.69-2.44-10.86-6.11-14-11.8a12.85,12.85,0,0,1-1.33-5.41C444,338.43,444.08,333.77,444.08,329.1Zm4-18.06c0,.72.12,1.1,0,1.38-1.86,3.89-.48,7,1.54,10.55,2.16,3.79,5.56,5.65,8.92,7.52,3.74,2.09,8.08,3,12.11,4.51,4.39,1.63,8.95,1.62,13.38,2.55,3.67.78,7.63.29,11.45.13s7.72-.63,11.58-1c.16,0,.39.07.49,0,1.77-1.57,4.18-1.06,6.2-1.93s4.58-1.06,6.6-2.12c4.44-2.34,9.16-4.3,12.58-8.25,3.2-3.68,4.06-9.79,1.75-13.59a21,21,0,0,0-9-8.17,68.43,68.43,0,0,0-17.49-6.08c-2.06-.45-4.27-.25-6.06-1a15.76,15.76,0,0,0-6.13-.85c-2.17,0-4.33,0-6.5,0s-4.73-.74-6.39.18c-2.36,1.3-4.75.26-7,1.21s-4.66.79-6.79,1.68c-4.12,1.71-8.45,2.81-12.3,5.35C453.6,305.35,451.34,308.56,448.08,311Zm88,14c-4.14,5.26-9.27,7.84-14.31,10.33-3.41,1.69-7.32,2.47-11.09,3.31a103.42,103.42,0,0,1-12.14,2,63.92,63.92,0,0,1-9,0c-2.87-.11-5.88.73-8.57-1-4.26.58-8.14-1.14-12.14-2a42.71,42.71,0,0,1-11.6-4.46c-3.53-2-7.27-4-10.18-8.47,0,6.88-.09,12.66.07,18.43a9.93,9.93,0,0,0,1.36,4.39,20.78,20.78,0,0,0,8.94,8.23c4.16,2.16,8.61,3.36,12.87,5.08,4.54,1.83,9.25,1.79,13.83,2.66,4.34.81,9,.47,13.44.09a103.07,103.07,0,0,0,12.66-1.87c5.18-1.1,15.52-5.15,19.52-8.29,3.05-2.4,5.89-5.4,6.19-9.34C536.42,338.06,536.08,331.93,536.08,325Z" transform="translate(-7.09 -209.54)"/><path d="M393.08,359.44c0,4,0,8,0,12A15,15,0,0,1,388.37,383c-5.82,5.6-12.8,8.7-20.5,10.85a115,115,0,0,1-14.3,2.71,71.47,71.47,0,0,1-15.95,0c-2-.16-4-.79-6.08-.91s-4.39-.14-6-1.18c-1.89-1.25-3.93-.78-5.86-1.61-6.08-2.61-12.26-4.88-16.87-9.9-3.1-3.38-5-7.18-4.84-12,.22-7.82.12-15.65,0-23.47a15.8,15.8,0,0,1,5.08-12.41c5.77-5.43,12.7-8.4,20.19-10.38a81.55,81.55,0,0,1,26.23-3c2,.13,4.05-.58,6.17.83,1.56,1,3.91-.18,6.08.95,1.78.94,4.29.34,6.54,1a46.31,46.31,0,0,1,4.79,1.74,59.84,59.84,0,0,1,10,4.9c4.23,2.8,7.64,6,9.24,11.11a12.36,12.36,0,0,1,.71,3.68C393.12,350.45,393.08,355,393.08,359.44Zm-91-18.41a4.39,4.39,0,0,1,0,1.3c-1.76,3.87-.69,7.07,1.5,10.58,2,3.19,4.72,5,7.68,6.8,4,2.43,8.55,3.48,12.87,5.12,4.67,1.78,9.55,1.88,14.31,2.75,3.7.67,7.64.26,11.46.1s7.38-.63,11.07-1a3.49,3.49,0,0,0,.89-.26c3.94-1.39,8.1-2,11.95-3.71,4.78-2.1,9.42-4.37,13.06-8.28,2-2.17,2.61-4.95,3.16-7.67.44-2.15-.84-4.33-2.3-7-3.13-5.76-8.77-7.79-14.28-10a89.59,89.59,0,0,0-9.23-3A66.56,66.56,0,0,0,354,324.9c-5.58-.68-11.3-.19-17-.19-2,1.84-4.65.55-6.92,1.36s-4.64.86-6.8,1.7c-4.15,1.62-8.43,2.86-12.3,5.31C307.62,335.24,305.39,338.5,302.08,341ZM390,355.14c-4,4.89-8.79,7.37-13.61,9.83a47.53,47.53,0,0,1-11,3.57,66.4,66.4,0,0,1-15.6,2.18c-3.49,0-7,0-10.48,0a7.9,7.9,0,0,1-2.48,0c-4.46-1.57-9.27-1.37-13.76-2.92a85.15,85.15,0,0,1-12.83-5.21,38.77,38.77,0,0,1-9.17-7.36c0,6.31-.15,11.78.08,17.24a14.5,14.5,0,0,0,2.08,6.11c2.12,3.91,5.66,5.93,9.2,7.93,3.89,2.2,8.32,3.19,12.52,4.69,4.37,1.55,9,1.65,13.43,2.42,3.72.64,7.64.26,11.46.1s7.37-.63,11.06-1a4,4,0,0,0,.9-.23c3.92-1.44,8.1-2,11.93-3.75,4.42-2,9-3.89,12.3-7.56a47.2,47.2,0,0,0,3.94-5.69Z" transform="translate(-7.09 -209.54)"/><path d="M152.08,388.9c0-4.16,0-8.32,0-12.48a14.53,14.53,0,0,1,4.4-10.67c6-5.95,13.28-9.23,21.4-11.08,3.54-.8,7.15-1.31,10.63-2.12,5.9-1.38,11.76-.74,17.6-.71a29.35,29.35,0,0,1,9.27,1.61c1.18.41,2.6.09,3.88.29a28.48,28.48,0,0,1,3.59,1,23,23,0,0,1,3.07,1c3.65,1.66,7.44,3,10.86,5.16,4.57,2.9,8.18,6.56,9.78,11.86a13.36,13.36,0,0,1,.48,3.79c0,8.32,0,16.64,0,25A15.15,15.15,0,0,1,242.32,413a41.46,41.46,0,0,1-20.57,10.67c-2.89.63-5.61,1.91-8.65,2.05s-6,.76-9.08.93a65.2,65.2,0,0,1-9.48,0,116.21,116.21,0,0,1-15.86-2.59,59.31,59.31,0,0,1-11-3.58c-5.56-2.57-11-5.95-14-11.78a12.41,12.41,0,0,1-1.64-5.82C152.16,398.23,152.08,393.57,152.08,388.9ZM199.39,398l15.32-1.27c.32,0,.72.05.95-.11,1.88-1.29,4.19-1.09,6.22-1.86s4.18-1.18,6.14-2.06c4.75-2.14,9.57-4.31,13-8.44,2.37-2.88,3.84-6.39,2.9-10.12a15,15,0,0,0-5.6-8.61,37.79,37.79,0,0,0-11.05-5.85c-3.88-1.16-7.52-3.17-11.73-3-1.62-1.81-4-.12-5.55-1-1.9-1.11-3.74-.84-5.64-.88-3.66-.07-7.32,0-11,0-.83,0-2-.35-2.44.06-2,1.8-4.44.38-6.54,1.17s-4.53,1.18-6.72,1.87c-4.25,1.33-8.51,2.67-12.38,5.12-3,1.88-5.21,4.41-7.63,6.81a8.51,8.51,0,0,0-2.38,8.38,17.38,17.38,0,0,0,6.6,9.6c6.73,4.69,14.51,6.93,22.28,8.85C188.93,397.76,194.11,397.54,199.39,398Zm-44.31-11.82c0,5.31-.11,10.63.06,15.94a11.48,11.48,0,0,0,1.35,5.39,20.84,20.84,0,0,0,8.87,8.33c4.21,2,8.61,3.36,12.89,5,4.53,1.78,9.25,1.74,13.82,2.7,3.67.77,7.63.28,11.45.12s7.71-.63,11.56-1c.17,0,.4.07.49,0,1.77-1.55,4.17-1.09,6.19-1.94s4.59-1.05,6.6-2.12c4.28-2.26,9-4,12.17-7.93a52.26,52.26,0,0,0,3.39-5.23v-19.6l-.81-.64a7.32,7.32,0,0,1-.78,1.7c-3.34,4-8,6.18-12.5,8.36a50.83,50.83,0,0,1-11.07,3.36,103.76,103.76,0,0,1-12.14,2,62.44,62.44,0,0,1-9,0c-2.88-.12-5.88.73-8.57-1-4.26.59-8.18-1-12.13-2.07s-7.92-2-11.24-4.08C162.12,391.33,158,389.59,155.08,386.16Z" transform="translate(-7.09 -209.54)"/><path class="cls-1" d="M448.08,311c3.26-2.48,5.52-5.69,8.9-7.91,3.85-2.54,8.18-3.64,12.3-5.35,2.13-.89,4.67-.78,6.79-1.68s4.66.09,7-1.21c1.66-.92,4.23-.18,6.39-.18s4.33,0,6.5,0a15.76,15.76,0,0,1,6.13.85c1.79.74,4,.54,6.06,1a68.43,68.43,0,0,1,17.49,6.08,21,21,0,0,1,9,8.17c2.31,3.8,1.45,9.91-1.75,13.59-3.42,4-8.14,5.91-12.58,8.25-2,1.06-4.49,1.2-6.6,2.12s-4.43.36-6.2,1.93c-.1.08-.33,0-.49,0-3.86.34-7.71.8-11.58,1s-7.78.65-11.45-.13c-4.43-.93-9-.92-13.38-2.55-4-1.5-8.37-2.42-12.11-4.51-3.36-1.87-6.76-3.73-8.92-7.52-2-3.54-3.4-6.66-1.54-10.55C448.2,312.14,448.08,311.76,448.08,311Z" transform="translate(-7.09 -209.54)"/><path class="cls-1" d="M536.08,325c0,6.91.34,13-.12,19.11-.3,3.94-3.14,6.94-6.19,9.34-4,3.14-14.34,7.19-19.52,8.29a103.07,103.07,0,0,1-12.66,1.87c-4.46.38-9.1.72-13.44-.09-4.58-.87-9.29-.83-13.83-2.66-4.26-1.72-8.71-2.92-12.87-5.08a20.78,20.78,0,0,1-8.94-8.23,9.93,9.93,0,0,1-1.36-4.39c-.16-5.77-.07-11.55-.07-18.43,2.91,4.51,6.65,6.47,10.18,8.47a42.71,42.71,0,0,0,11.6,4.46c4,.89,7.88,2.61,12.14,2,2.69,1.71,5.7.87,8.57,1a63.92,63.92,0,0,0,9,0,103.42,103.42,0,0,0,12.14-2c3.77-.84,7.68-1.62,11.09-3.31C526.81,332.86,531.94,330.28,536.08,325Z" transform="translate(-7.09 -209.54)"/><path class="cls-1" d="M302.08,341c3.31-2.53,5.54-5.79,9-7.95,3.87-2.45,8.15-3.69,12.3-5.31,2.16-.84,4.61-.92,6.8-1.7s4.9.48,6.92-1.36c5.66,0,11.38-.49,17,.19a66.56,66.56,0,0,1,10.18,1.84,89.59,89.59,0,0,1,9.23,3c5.51,2.23,11.15,4.26,14.28,10,1.46,2.68,2.74,4.86,2.3,7-.55,2.72-1.14,5.5-3.16,7.67-3.64,3.91-8.28,6.18-13.06,8.28-3.85,1.69-8,2.32-11.95,3.71a3.49,3.49,0,0,1-.89.26c-3.69.35-7.37.81-11.07,1s-7.76.57-11.46-.1c-4.76-.87-9.64-1-14.31-2.75-4.32-1.64-8.86-2.69-12.87-5.12-3-1.8-5.7-3.61-7.68-6.8-2.19-3.51-3.26-6.71-1.5-10.58A4.39,4.39,0,0,0,302.08,341Z" transform="translate(-7.09 -209.54)"/><path class="cls-1" d="M390,355.14v20.34a47.2,47.2,0,0,1-3.94,5.69c-3.34,3.67-7.88,5.54-12.3,7.56-3.83,1.75-8,2.31-11.93,3.75a4,4,0,0,1-.9.23c-3.69.34-7.37.8-11.06,1s-7.74.54-11.46-.1c-4.47-.77-9.06-.87-13.43-2.42-4.2-1.5-8.63-2.49-12.52-4.69-3.54-2-7.08-4-9.2-7.93a14.5,14.5,0,0,1-2.08-6.11c-.23-5.46-.08-10.93-.08-17.24a38.77,38.77,0,0,0,9.17,7.36,85.15,85.15,0,0,0,12.83,5.21c4.49,1.55,9.3,1.35,13.76,2.92a7.9,7.9,0,0,0,2.48,0c3.5,0,7,0,10.48,0a66.4,66.4,0,0,0,15.6-2.18,47.53,47.53,0,0,0,11-3.57C381.19,362.51,386,360,390,355.14Z" transform="translate(-7.09 -209.54)"/><path class="cls-1" d="M199.39,398c-5.28-.44-10.46-.22-15.28-1.41-7.77-1.92-15.55-4.16-22.28-8.85a17.38,17.38,0,0,1-6.6-9.6,8.51,8.51,0,0,1,2.38-8.38c2.42-2.4,4.67-4.93,7.63-6.81,3.87-2.45,8.13-3.79,12.38-5.12,2.19-.69,4.54-1.05,6.72-1.87s4.54.63,6.54-1.17c.46-.41,1.61-.06,2.44-.06,3.67,0,7.33,0,11,0,1.9,0,3.74-.23,5.64.88,1.56.9,3.93-.79,5.55,1,4.21-.14,7.85,1.87,11.73,3a37.79,37.79,0,0,1,11.05,5.85,15,15,0,0,1,5.6,8.61c.94,3.73-.53,7.24-2.9,10.12-3.39,4.13-8.21,6.3-13,8.44-2,.88-4.12,1.28-6.14,2.06s-4.34.57-6.22,1.86c-.23.16-.63.09-.95.11Z" transform="translate(-7.09 -209.54)"/><path class="cls-1" d="M155.08,386.16c2.89,3.43,7,5.17,10.63,7.4,3.32,2.06,7.38,3.06,11.24,4.08s7.87,2.66,12.13,2.07c2.69,1.71,5.69.86,8.57,1a62.44,62.44,0,0,0,9,0,103.76,103.76,0,0,0,12.14-2,50.83,50.83,0,0,0,11.07-3.36c4.5-2.18,9.16-4.35,12.5-8.36a7.32,7.32,0,0,0,.78-1.7l.81.64v19.6a52.26,52.26,0,0,1-3.39,5.23c-3.19,3.91-7.89,5.67-12.17,7.93-2,1.07-4.48,1.23-6.6,2.12s-4.42.39-6.19,1.94c-.09.08-.32,0-.49,0-3.85.34-7.7.8-11.56,1s-7.78.65-11.45-.12c-4.57-1-9.29-.92-13.82-2.7-4.28-1.68-8.68-3-12.89-5a20.84,20.84,0,0,1-8.87-8.33,11.48,11.48,0,0,1-1.35-5.39C155,396.79,155.08,391.47,155.08,386.16Z" transform="translate(-7.09 -209.54)"/></svg>