<svg id="Layer_1" data-name="Layer 1" xmlns="http://www.w3.org/2000/svg" viewBox="0 0 603 402.22"><defs><style>.cls-1{fill:#282828;}.cls-2{fill:#505050;}.cls-3{fill:#3c3c3c;}</style></defs><path d="M4,433.24V285.13c1.54-.67,3.17-1.73,4.93-2s3.79-.77,5.58-.9c2-.13,3.62-1.27,5.58-1.22s3.69-.8,5.55-1.15A63.36,63.36,0,0,0,34.33,278c2.68-.88,5.68-.39,8.18-2,4.26.6,8.1-1.49,12.13-2.21S63,272.69,67,271.06c1-.41,2.3-.06,3.69-.06,2.72-3.76,6.63-6.42,10.69-8.69a47.67,47.67,0,0,1,10.72-4.23c5-1.37,10.2-1.78,15.25-3,1.89-.45,4,0,6-.08,6.31-.11,12.53.16,18.71,1.86,1.91.53,4.59,1.1,6.54-.85,4.7.28,9.09-1.5,13.64-2.18,5.36-.81,10.84-1.6,16-3.52,1.94-.71,4.26.43,6-1.3,5.92-1,12-1.49,17.71-3.15,5.26-1.52,10.72-2,15.92-3.75,2.66-.92,5.67-.85,9-1.28,2.55-3.51,6.44-6.19,10.49-8.42a44.16,44.16,0,0,1,11.19-4.28c4-.92,8.13-1.46,12.1-2.33,6.1-1.32,12.1-.36,18.13-.73,1.5-.09,3.05.63,4.58.93s2.72-.11,4.22.73a6.94,6.94,0,0,0,5.32.17c3.83-1.51,8-1.29,11.86-2.72,2.08-.76,4.67-.61,7-1.09a113.14,113.14,0,0,0,12.79-2.92c1.88-.62,4-.59,6-1,4.73-1.09,9.53-1.84,14.27-3,2.87-.69,5.81-1,8.69-2,2.67-.9,5.77-.48,8.5-1.26a52.33,52.33,0,0,1,10.85-2c2.56-4,6.72-6.37,10.7-8.7a43.38,43.38,0,0,1,11.27-4.09c4-1,8.08-1.6,12.11-2.32a69.17,69.17,0,0,1,9.13-.73c3.15-.15,6.54-.73,9.43.17,2.74.86,5.83-.19,8.23,1.8,2.2-.44,4.45.7,6.71-.76,1.5-1,3.6-.37,5.52-1.06,2.95-1.07,6.31-1,9.32-1.35L607,355.57V505.62c-2.09.45-4.21,1-6.35,1.37s-4.59,0-6,1.16c-2,1.68-4.76-.42-6.3,1.85-4.36-.26-8.38,1.64-12.65,2.1-3.69.4-7.27,1.7-10.91,2.56-2.13.5-4.32.73-6.47,1.24-3,.72-6.11,1.38-9.17,2a59,59,0,0,0-8.7,2c-1.84.65-4,.61-6,1.07-4.72,1.09-9.52,1.9-14.26,2.94-2.75.6-5.53,1.17-8.3,1.75s-5.65.8-8.41,1.45c-3.53.83-7.19,1.25-10.62,2.18s-7.08.93-10.39,2.64c-1.54.79-3.68.63-5.54,1-4.94.94-9.89,1.71-14.74,3.11-1.23.35-2.66-.08-4,.09-1.05.13-2,.74-3.09.94-2.18.41-4.59.26-6.51,1.17A12,12,0,0,1,445,539c-1.22.19-2.38.74-3.59,1-2.35.41-5.09.06-7,1.18-2.24,1.32-4.94-.2-6.79,1.76-4.24-.39-8,1.79-12.13,2.21a66.71,66.71,0,0,0-10.62,2.09c-3.42.93-7,1.52-10.39,2.53a74.15,74.15,0,0,1-11.09,2.3,56.17,56.17,0,0,0-11,2.31,39.16,39.16,0,0,1-6.84,1.43c-3.92.61-7.75,1.63-11.61,2.37s-7.7,1-11.37,2.65c-1.74.78-4,.61-6,1.08-4.73,1.09-9.55,1.71-14.26,3-2.24.61-4.72.14-7.09,1-2,.76-4.65.23-6.46,1.25-1.65.93-3.26.31-4.63.93s-2.79.59-4.11,1a104.41,104.41,0,0,1-12.36,2.58c-4,.71-8,1.75-12.05,2.51-6.13,1.15-12.35,2-18.42,3.67-2.65.74-5.51,1.16-8.27,1.78s-5.66.77-8.42,1.42c-3.54.84-7.2,1.24-10.62,2.18s-7.24.62-10.32,2.78c-4.2-.23-8.13,1.29-12.15,2.08-5.52,1.07-11.16,1.69-16.47,3.65-1.81.67-4-.73-5.47,1.27-5.56.19-10.83,2-16.25,3a12.57,12.57,0,0,1-2.37,0ZM169.16,593c2.89-.7,5.56-1.78,8.27-1.92,4.18-.21,7.9-2.59,12.14-2.17,5.43-2.14,11.27-2.57,16.91-3.74,4-.83,7.87-2.66,12.1-2.27,5.43-2.12,11.27-2.56,16.91-3.73,4-.83,7.87-2.65,12.1-2.28,1.61-2.1,4.22-.32,6.32-1.73,1.79-1.2,4.66-.65,7-1.22,3.78-1,7.64-1.48,11.4-2.61a97,97,0,0,1,12-2.33c2.67-.44,5.75,0,8-1.22,2-1.07,4.05.11,5.51-1.18s3.47,0,5.14-1a17.91,17.91,0,0,1,5.31-1.63c4.37-.78,8.81-1.19,13.14-2.12,2-.43,4.36-.31,6-1.07,6.25-2.83,13.19-2.47,19.53-4.75,1.69-.6,3.71-.34,5.58-1s4.16-.41,6-1.17,4.12-.23,5.52-1.07c2.37-1.42,5-.44,7.35-1.68,2.14-1.1,5.11-.45,7.46-1.28,1.9-.67,4.11-.2,5.53-1,1.89-1.14,4-.61,5.85-1.7,1.66-1,4-.8,6-1.13a41.94,41.94,0,0,0,6.06-1.06c2.14-.69,4.33-.79,6.47-1.27,3.65-.82,7.22-2.17,10.9-2.57,4.28-.46,8.29-2.36,12.66-2.1,1.45-2,3.95-.12,5.41-1.37,1.63-1.39,3.47-.08,5.14-.94a19,19,0,0,1,5.3-1.65c2.67-.49,5.51-.32,8-1.15s5.21-.83,7.76-1.75,5.82-.38,8.48-1.29c2.88-1,5.82-1.29,8.69-2,4.74-1.14,9.54-1.88,14.27-3,2-.46,4.32-.3,6-1.09,3.35-1.56,7-1.7,10.4-2.59s7.08-1.39,10.62-2.19c2.77-.62,5.62-.89,8.41-1.45s5.64-1,8.29-1.76c5.75-1.59,11.65-2.35,17.43-3.65,4-.88,8-1.82,12-2.53s8.28-1.52,12.37-2.59c2.86-.75,5.87-.78,8.69-2,1.7-.72,3.7-.68,5.55-1.08,2.88-.63,5.75-1.33,8.53-2,.7-13.9.43-140.79-.29-145-.36.32-.73.93-1.09.93-3.23,0-6.15,1.42-9.19,1.9-7,1.12-13.87,2.92-20.84,4-5.62.9-11,3.19-16.74,3.11-1.46,1.95-3.94.13-5.41,1.37-1.63,1.38-3.47.08-5.14.94a16.1,16.1,0,0,1-5.3,1.64c-5.8.73-11.5,2.05-17.24,3.09-4.94.89-9.8,2.15-14.73,3.11-4.76.93-9.53,1.88-14.27,3-2,.46-4.18.43-6.05,1-4.36,1.46-8.9,1.88-13.26,3.05-2,.54-4.11.31-6,1.09-2.5,1-5.19,1.13-7.79,1.67s-5.47.41-8,1.22c-7.36,2.33-15,3.26-22.5,4.83-2.16.45-4.47.62-6.5,1.24-5.88,1.79-11.95,2.51-17.9,3.86-2,.46-4,.68-6.07,1-1.79.31-3.48,1.73-5.21,1.74-2.17,0-4.06.76-6.09,1.13-1.86.34-3.72.68-5.58,1-2,.34-4.26.24-6,1.11-2.23,1.08-4.6.86-6.86,1.53-5.09,1.51-10.4,2.28-15.62,3.36-2.18.46-4.52.58-6.53,1.19-4.39,1.32-8.92,1.8-13.26,3-2,.57-4.12.31-6,1.09-2.5,1-5.19,1.14-7.79,1.68s-5.47.41-8,1.23c-2.39.78-4.83,1.2-7.22,1.87-2.55.73-5.21,1.18-7.74,1.68a48.77,48.77,0,0,1-7.53,1.34,22.66,22.66,0,0,0-6.49,1.17c-5.53,2-11.32,2.47-17,3.58-4.17.82-8.28,2.35-12.64,2.17-5,2.43-10.63,2.32-15.89,3.83-3,.85-6.14,1.27-9.23,1.88s-6.42,1.34-9.61,2.09c-1.93.46-4,.93-6,1.22-1.88.26-3.73.66-5.59,1-2,.34-4.24.27-6,1.1-2,.94-4.16.43-6.06,1.08-5.83,2-11.91,2.72-17.91,3.85-2.88.55-5.7,1.44-8.33,2.13Zm-.11-148.1c1.79-.28,4-.26,5.81-1s4.08-.25,5.53-1.07c1.9-1.06,4-.75,5.83-1.7s4.33-.79,6.52-1.13c2-.32,4.35-.17,6-1.13,2-1.16,4.1-.48,6.05-1.15a71.27,71.27,0,0,1,10.88-2.56c4.2-.72,8.49-1.46,12.59-2.39,5.29-1.2,10.77-1.73,15.93-3.68,2.32-.87,5.38-.11,7.46-1.26,2.4-1.33,5.26.22,7.26-1.83,2.36.72,4.33-1,6.58-1.06,2-.08,4.51,0,5.95-1.15,2-1.57,4.73.4,6.31-1.79,6.2-.34,12.16-2.1,18.26-3a55.92,55.92,0,0,0,6.51-1.2,83.81,83.81,0,0,1,13.83-2.84c2.3-.23,4.52-1.2,6.82-1.58a56.12,56.12,0,0,0,9.06-2.27c2.37-.79,5.37-.12,7.46-1.26,2.4-1.3,4.93-.47,7.35-1.64s5.78-.43,8.44-1.35c2.88-1,5.82-1.28,8.7-2,4.73-1.15,9.54-1.87,14.26-3,2-.47,4.25-.35,6.05-1.06,5.15-2,10.64-2.53,15.94-3.66,4.14-.88,8.28-2.36,12.64-2.18,5-2.44,10.6-2.53,15.88-3.83,6.22-1.52,12.56-2.67,18.84-4,6-1.24,12.12-2.29,18.21-3.21a46.15,46.15,0,0,0,6.52-1.2c5.88-1.81,11.94-2.57,17.9-3.87,2-.44,4.38-.3,6-1.13,1.83-.95,3.53-.29,5.15-.89,1.45-.53,2.76-1.51,4.23-1.82,1.69-.35,3.45-.66,5.1-.9,5.48-.77,10.82-2.13,16.23-3.19,1-.2,2-.81,3.09-.94,1.31-.17,2.84.37,4-.11,4-1.73,8.24-1.95,12.33-2.74s8.28-2.37,12.64-2.19c5-2.43,10.59-2.64,15.88-3.79S585.82,359,591.24,358c3.58-.66,7.12-1.58,9.92-2.22L442.55,197.15l-7.5,1.24-.07,1.3a68.16,68.16,0,0,1,9.15,4.21,23.19,23.19,0,0,1,8.18,7.84c2.07,3.47,2.68,4.67,2.69,7.89,0,8.66-.06,17.33,0,26a13.12,13.12,0,0,1-2.35,8c-4,5.34-9.68,8.73-15.74,11.3-3.26,1.38-6.82,2-10.23,3.08-3.65,1.12-7.48,1.1-11.2,1.82s-8,.3-12,.13-7.73-.63-11.59-1a1.25,1.25,0,0,1-.48,0c-4.42-2.3-9.49-2.44-14.05-4.76-6.84-3.48-9.35-4.24-13-8.34A15.74,15.74,0,0,1,360,244.7c.18-7.33,0-14.66.06-22,0-2.84-.45-5.73,1.14-8.36-24.35,4.62-48.18,9.81-72.4,14.24.58,1.75,2.23,1.94,3.32,2.34a30.32,30.32,0,0,1,13.58,9.36,15.2,15.2,0,0,1,3.42,10.09c-.22,8.16-.1,16.33-.06,24.5a15.55,15.55,0,0,1-4.81,11.54c-2.87,2.9-6.31,4.73-9.76,6.68A26.54,26.54,0,0,1,282.56,297c-1.44,1.95-3.9.61-5.78,1.84-1.42.94-3.78.44-5.72.6s-4.18.55-6.26.52c-5-.06-10.05.05-15.12-.78a103,103,0,0,1-12.85-2.89A51.61,51.61,0,0,1,225,291.12a25.73,25.73,0,0,1-7-5.8c-2.39-3-4-6.26-4-10.36.18-9.49.06-19,.06-28.08l1.3-2.61-72.25,14.37-.05.78a13.7,13.7,0,0,0,2.79,1.55,27,27,0,0,1,13.34,8.77,15.27,15.27,0,0,1,3.92,10.37c-.18,8.16-.09,16.33,0,24.5a16,16,0,0,1-5,12c-2.77,2.79-6.14,4.45-9.39,6.4-3.78,2.28-8.13,2.93-12.22,4.33-4.42,1.52-9,1.6-13.4,2.52-3.68.77-7.64.29-11.47.12s-7.72-.63-11.59-1c-.16,0-.35,0-.48,0-4.42-2.31-9.88-1.68-14-4.94-2.86.36-4.43-2.16-6.75-3-2.7-1-4.54-3.1-6.35-5.14-2.78-3.15-4.59-6.69-4.48-11.15.18-7,0-14,.06-21,0-3.17-.51-6.39,1.28-9.67L10.41,286.28Zm-3.16,3.59L7.11,289.73V430.5L165.89,589.28ZM364,214.34c0,.76.19,1.37,0,1.74-2.12,3.58-.41,6.51,1.21,9.69,2,4,5.62,6,9.16,8,3.89,2.2,8.32,3.2,12.53,4.7,4.37,1.57,9,1.66,13.44,2.43,3.72.64,7.64.26,11.47.09s7.38-.62,11.07-1a4.13,4.13,0,0,0,.9-.24c3.92-1.41,8.1-2,11.94-3.73,4.75-2.14,9.52-4.26,13-8.29,2.49-2.85,4-6.46,3.13-10.08a15,15,0,0,0-5.81-9c-3.43-2.35-6.92-4.71-11.13-5.67-2.09-.48-4.11-1.3-6.17-2a49.48,49.48,0,0,0-6.17-1.94c-2.17-.4-4.56.51-6.57-1.06H399c-2,1.82-4.66.56-6.93,1.34s-4.63.88-6.79,1.71c-4.17,1.59-8.43,2.87-12.31,5.3C369.55,208.5,367.32,211.75,364,214.34Zm-146.06,30c0,.86.27,1.72-.05,2.14-1.48,2-.76,3.68-.19,5.83,1.4,5.27,5.1,8.15,9.43,10.64,4.05,2.32,8.52,3.53,12.86,5.12,4.69,1.72,9.56,1.88,14.31,2.75,3.71.67,7.64.26,11.47.09s7.38-.62,11.07-1a4.1,4.1,0,0,0,.9-.23c3.92-1.43,8.1-2,11.94-3.74,4.75-2.14,9.53-4.25,13-8.28,2.49-2.86,4-6.45,3.14-10.08a15.07,15.07,0,0,0-5.8-9c-3.42-2.37-6.93-4.69-11.13-5.67-2.09-.49-4.11-1.3-6.17-2a49.48,49.48,0,0,0-6.17-1.94c-2.17-.41-4.56.52-6.57-1.06H253c-2,1.82-4.66.56-6.93,1.34s-4.63.88-6.79,1.71c-4.16,1.6-8.43,2.86-12.31,5.29C223.56,238.49,221.32,241.74,217.94,244.39ZM72,274.47c0,.74.27,1.62,0,2-1.55,1.95-.84,3.69-.23,5.82,1.54,5.34,5.28,8.22,9.83,10.81,8.34,4.73,17.46,6.56,26.73,7.79a65.67,65.67,0,0,0,11.48,0c3.69-.16,7.38-.62,11.07-1a3.17,3.17,0,0,0,.91-.21c3.91-1.46,8.09-2,11.93-3.75,4.75-2.15,9.42-4.35,13.08-8.23,2-2.16,2.77-4.91,3.2-7.65.41-2.56-.88-4.76-2.18-7-3.24-5.7-8.85-7.72-14.3-10.07a61.41,61.41,0,0,0-6.15-2,60.53,60.53,0,0,0-6.67-2c-2.17-.41-4.57.55-6.57-1.05h-17c-2,1.81-4.67.56-6.94,1.32s-4.62.9-6.78,1.73c-4.16,1.61-8.46,2.78-12.32,5.27C77.5,268.6,75.08,271.89,72,274.47Zm380-46.16c-4.15,5.26-9.28,7.84-14.31,10.33-3.41,1.69-7.32,2.47-11.09,3.31a107.76,107.76,0,0,1-12.14,2,62.44,62.44,0,0,1-9,0c-2.87-.11-5.87.74-8.57-1-4.25.58-8.19-1-12.12-2.08a53.78,53.78,0,0,1-11.62-4.42c-3.54-2-7.27-3.95-10.18-8.48,0,6.89-.09,12.67.06,18.44a9.93,9.93,0,0,0,1.36,4.39,20.85,20.85,0,0,0,8.94,8.24c4.16,2.16,8.61,3.35,12.87,5.08,4.54,1.84,9.28,1.52,13.84,2.7,2.8.72,6,.26,8.94.09,2.73-.16,5.47.53,8.22-.6s5.59-.49,8.46-1.19a62.73,62.73,0,0,0,20-8.45c3.22-2.13,5.92-5.37,6.23-9.3C452.35,241.35,452,235.22,452,228.31ZM217,257.85c0,7-.09,12.83.06,18.6a10,10,0,0,0,1.36,4.4,21.27,21.27,0,0,0,8.93,8.22,67.71,67.71,0,0,0,29.17,7.84,84.44,84.44,0,0,0,17.08-.71,73.83,73.83,0,0,0,12-2.57,47.56,47.56,0,0,0,13.7-6.63c3.28-2.45,6.21-5.53,6.58-9.58.54-6.05.14-12.19.14-19.11-4.14,5.25-9.27,7.83-14.3,10.32-3.41,1.69-7.32,2.47-11.09,3.32-4,.89-8.09,1.95-12.13,1.92-5.84-.05-11.81,1.31-17.55-.87-4.25.58-8.17-1-12.13-2.07s-7.88-2.08-11.24-4.1C224,264.66,219.94,262.77,217,257.85Zm-146,30c0,7-.09,12.81.06,18.58a9.93,9.93,0,0,0,1.36,4.4,21.23,21.23,0,0,0,8.94,8.22,67.53,67.53,0,0,0,29.17,7.84,84.34,84.34,0,0,0,17.07-.71,74.67,74.67,0,0,0,12-2.57,46.81,46.81,0,0,0,13.7-6.63c3.28-2.45,6.22-5.52,6.58-9.58.54-6.06.14-12.2.14-19.11-4.15,5.26-9.27,7.84-14.31,10.33-3.41,1.68-7.32,2.47-11.08,3.31-4,.89-8.09,1.94-12.14,1.92-5.84,0-11.8,1.27-17.55-.87-4.25.58-8.17-1-12.12-2.07s-7.88-2.08-11.24-4.1C78,294.66,74,292.76,71,287.87Z" transform="translate(-4 -193.83)"/><path class="cls-1" d="M169.16,593V448.16c2.63-.69,5.45-1.58,8.33-2.13,6-1.13,12.08-1.86,17.91-3.85,1.9-.65,4-.14,6.06-1.08,1.8-.83,4-.76,6-1.1,1.86-.32,3.71-.72,5.59-1,2-.29,4.1-.76,6-1.22q4.78-1.12,9.61-2.09c3.09-.61,6.28-1,9.23-1.88,5.26-1.51,10.89-1.4,15.89-3.83,4.36.18,8.47-1.35,12.64-2.17,5.65-1.11,11.44-1.61,17-3.58a22.66,22.66,0,0,1,6.49-1.17,48.77,48.77,0,0,0,7.53-1.34c2.53-.5,5.19-.95,7.74-1.68,2.39-.67,4.83-1.09,7.22-1.87,2.54-.82,5.37-.68,8-1.23s5.29-.67,7.79-1.68c1.91-.78,4-.52,6-1.09,4.34-1.2,8.87-1.68,13.26-3,2-.61,4.35-.73,6.53-1.19,5.22-1.08,10.53-1.85,15.62-3.36,2.26-.67,4.63-.45,6.86-1.53,1.77-.87,4-.77,6-1.11,1.86-.32,3.72-.66,5.58-1,2-.37,3.92-1.12,6.09-1.13,1.73,0,3.42-1.43,5.21-1.74,2-.34,4-.56,6.07-1,6-1.35,12-2.07,17.9-3.86,2-.62,4.34-.79,6.5-1.24,7.51-1.57,15.14-2.5,22.5-4.83,2.54-.81,5.36-.67,8-1.22s5.29-.66,7.79-1.67c1.91-.78,4-.55,6-1.09,4.36-1.17,8.9-1.59,13.26-3.05,1.87-.62,4-.59,6.05-1,4.74-1.07,9.51-2,14.27-3,4.93-1,9.79-2.22,14.73-3.11,5.74-1,11.44-2.36,17.24-3.09a16.1,16.1,0,0,0,5.3-1.64c1.67-.86,3.51.44,5.14-.94,1.47-1.24,3.95.58,5.41-1.37,5.78.08,11.12-2.21,16.74-3.11,7-1.11,13.83-2.91,20.84-4,3-.48,6-1.94,9.19-1.9.36,0,.73-.61,1.09-.93.72,4.19,1,131.08.29,145-2.78.65-5.65,1.35-8.53,2-1.85.4-3.85.36-5.55,1.08-2.82,1.2-5.83,1.23-8.69,2-4.09,1.07-8.26,1.87-12.37,2.59s-8.07,1.65-12,2.53c-5.78,1.3-11.68,2.06-17.43,3.65-2.65.74-5.52,1.19-8.29,1.76s-5.64.83-8.41,1.45c-3.54.8-7.18,1.29-10.62,2.19s-7.05,1-10.4,2.59c-1.7.79-4,.63-6,1.09-4.73,1.08-9.53,1.82-14.27,3-2.87.7-5.81,1-8.69,2-2.66.91-5.84.33-8.48,1.29s-5.21.92-7.76,1.75-5.37.66-8,1.15a19,19,0,0,0-5.3,1.65c-1.67.86-3.51-.45-5.14.94-1.46,1.25-4-.59-5.41,1.37-4.37-.26-8.38,1.64-12.66,2.1-3.68.4-7.25,1.75-10.9,2.57-2.14.48-4.33.58-6.47,1.27a41.94,41.94,0,0,1-6.06,1.06c-2,.33-4.35.17-6,1.13-1.88,1.09-4,.56-5.85,1.7-1.42.85-3.63.38-5.53,1-2.35.83-5.32.18-7.46,1.28-2.39,1.24-5,.26-7.35,1.68-1.4.84-3.64.3-5.52,1.07s-4.13.48-6,1.17-3.89.42-5.58,1c-6.34,2.28-13.28,1.92-19.53,4.75-1.68.76-4,.64-6,1.07-4.33.93-8.77,1.34-13.14,2.12a17.91,17.91,0,0,0-5.31,1.63c-1.67.9-3.53-.48-5.14,1s-3.56.11-5.51,1.18c-2.22,1.21-5.3.78-8,1.22a97,97,0,0,0-12,2.33c-3.76,1.13-7.62,1.66-11.4,2.61-2.3.57-5.17,0-7,1.22-2.1,1.41-4.71-.37-6.32,1.73-4.23-.37-8.11,1.45-12.1,2.28-5.64,1.17-11.48,1.61-16.91,3.73-4.23-.39-8.11,1.44-12.1,2.27-5.64,1.17-11.48,1.6-16.91,3.74-4.24-.42-8,2-12.14,2.17C174.72,591.24,172.05,592.32,169.16,593Z" transform="translate(-4 -193.83)"/><path class="cls-2" d="M169.05,444.92,10.41,286.28l58.88-12.23c-1.79,3.28-1.26,6.5-1.28,9.67,0,7,.12,14-.06,21-.11,4.46,1.7,8,4.48,11.15,1.81,2,3.65,4.13,6.35,5.14,2.32.86,3.89,3.38,6.75,3,4.08,3.26,9.54,2.63,14,4.94.13.07.32,0,.48,0,3.87.33,7.72.8,11.59,1s7.79.65,11.47-.12c4.44-.92,9-1,13.4-2.52,4.09-1.4,8.44-2.05,12.22-4.33,3.25-1.95,6.62-3.61,9.39-6.4a16,16,0,0,0,5-12c0-8.17-.14-16.34,0-24.5a15.27,15.27,0,0,0-3.92-10.37A27,27,0,0,0,145.79,261a13.7,13.7,0,0,1-2.79-1.55l.05-.78,72.25-14.37-1.3,2.61c0,9.09.12,18.59-.06,28.08-.07,4.1,1.59,7.4,4,10.36a25.73,25.73,0,0,0,7,5.8,51.61,51.61,0,0,0,11.87,5.17,103,103,0,0,0,12.85,2.89c5.07.83,10.08.72,15.12.78,2.08,0,4.17-.35,6.26-.52s4.3.34,5.72-.6c1.88-1.23,4.34.11,5.78-1.84a26.54,26.54,0,0,0,11.88-3.91c3.45-1.95,6.89-3.78,9.76-6.68A15.55,15.55,0,0,0,309,274.87c0-8.17-.16-16.34.06-24.5a15.2,15.2,0,0,0-3.42-10.09,30.32,30.32,0,0,0-13.58-9.36c-1.09-.4-2.74-.59-3.32-2.34,24.22-4.43,48.05-9.62,72.4-14.24-1.59,2.63-1.13,5.52-1.14,8.36,0,7.34.12,14.67-.06,22a15.74,15.74,0,0,0,4.46,11.16c3.66,4.1,6.17,4.86,13,8.34,4.56,2.32,9.63,2.46,14.05,4.76a1.25,1.25,0,0,0,.48,0c3.86.33,7.72.8,11.59,1s8.11.62,12-.13,7.55-.7,11.2-1.82c3.41-1.05,7-1.7,10.23-3.08,6.06-2.57,11.74-6,15.74-11.3a13.12,13.12,0,0,0,2.35-8c-.09-8.67,0-17.34,0-26,0-3.22-.62-4.42-2.69-7.89a23.19,23.19,0,0,0-8.18-7.84,68.16,68.16,0,0,0-9.15-4.21l.07-1.3,7.5-1.24,158.61,158.6c-2.8.64-6.34,1.56-9.92,2.22-5.42,1-10.85,2.08-16.21,3.24s-10.88,1.36-15.88,3.79c-4.36-.18-8.47,1.38-12.64,2.19s-8.38,1-12.33,2.74c-1.12.48-2.65-.06-4,.11-1.05.13-2,.74-3.09.94-5.41,1.06-10.75,2.42-16.23,3.19-1.65.24-3.41.55-5.1.9-1.47.31-2.78,1.29-4.23,1.82-1.62.6-3.32-.06-5.15.89-1.61.83-4,.69-6,1.13-6,1.3-12,2.06-17.9,3.87A46.15,46.15,0,0,1,466,384c-6.09.92-12.2,2-18.21,3.21-6.28,1.31-12.62,2.46-18.84,4-5.28,1.3-10.88,1.39-15.88,3.83-4.36-.18-8.5,1.3-12.64,2.18-5.3,1.13-10.79,1.62-15.94,3.66-1.8.71-4,.59-6.05,1.06-4.72,1.09-9.53,1.81-14.26,3-2.88.7-5.82,1-8.7,2-2.66.92-6,.16-8.44,1.35s-4.95.34-7.35,1.64c-2.09,1.14-5.09.47-7.46,1.26a56.12,56.12,0,0,1-9.06,2.27c-2.3.38-4.52,1.35-6.82,1.58a83.81,83.81,0,0,0-13.83,2.84A55.92,55.92,0,0,1,296,419c-6.1.92-12.06,2.68-18.26,3-1.58,2.19-4.27.22-6.31,1.79-1.44,1.11-3.91,1.07-5.95,1.15-2.25.1-4.22,1.78-6.58,1.06-2,2.05-4.86.5-7.26,1.83-2.08,1.15-5.14.39-7.46,1.26-5.16,2-10.64,2.48-15.93,3.68-4.1.93-8.39,1.67-12.59,2.39a71.27,71.27,0,0,0-10.88,2.56c-2,.67-4,0-6.05,1.15-1.66,1-4,.81-6,1.13-2.19.34-4.63.19-6.52,1.13s-3.93.64-5.83,1.7c-1.45.82-3.65.3-5.53,1.07S170.84,444.64,169.05,444.92ZM441,313.39c0,4.66-.12,9.33.06,14a12.6,12.6,0,0,0,1.33,5.42c3.09,5.69,8.27,9.36,13.95,11.79,3.46,1.49,6.92,3.83,11.07,3.42,1.44,1.93,3.88.65,5.76,1.84,1.45.92,3.93,0,5.69.66,2.14.77,4.2.4,6.29.47a88,88,0,0,0,25.25-2.85c8.46-2.19,16-5.65,22-12a12.55,12.55,0,0,0,3.5-8.51c.22-9.48.14-19,0-28.46a9.27,9.27,0,0,0-1.34-4.9c-2.52-3.69-5.35-7-9.44-9.36-3.53-2-7.33-3.27-10.9-5.09a23.35,23.35,0,0,0-9.75-1.78c-1.22-1.75-3-.72-4.58-1a36.31,36.31,0,0,0-5.08-1,94.18,94.18,0,0,0-28.25,2.84,69,69,0,0,0-10.86,4,32.11,32.11,0,0,0-10.15,6.93A15.43,15.43,0,0,0,441,300.91C441,305.07,441,309.23,441,313.39Zm-51,30.34c0-4.5,0-9,0-13.48a12.68,12.68,0,0,0-.71-3.68c-1.61-5.07-5-8.31-9.25-11.11a58.24,58.24,0,0,0-10-4.9,46.48,46.48,0,0,0-4.8-1.74c-2.24-.67-4.76-.07-6.54-1-2.16-1.13-4.51.09-6.08-1-2.12-1.41-4.13-.69-6.17-.82A81.8,81.8,0,0,0,320.25,309c-7.5,2-14.43,5-20.19,10.39a15.79,15.79,0,0,0-5.08,12.4c.08,7.83.18,15.66,0,23.47-.13,4.83,1.73,8.63,4.84,12,4.61,5,10.79,7.29,16.86,9.9,1.93.82,4,.36,5.86,1.61,1.57,1,3.93,1.06,5.95,1.18s4.11.75,6.09.91a72.08,72.08,0,0,0,15.95,0,118.61,118.61,0,0,0,14.29-2.71c7.7-2.15,14.68-5.26,20.51-10.85A15,15,0,0,0,390,355.72C390,351.72,390,347.72,390,343.73ZM149,373.19c0,4.66.07,9.33,0,14a12.23,12.23,0,0,0,1.64,5.82c2.95,5.84,8.39,9.22,14,11.79a60,60,0,0,0,11,3.57,116.1,116.1,0,0,0,15.85,2.6,65.21,65.21,0,0,0,9.48,0c3-.16,6-.78,9.08-.92s5.76-1.42,8.66-2.06a41.41,41.41,0,0,0,20.57-10.66A15.2,15.2,0,0,0,244,385.79c0-8.32,0-16.64,0-25a13.46,13.46,0,0,0-.49-3.79c-1.59-5.3-5.2-8.95-9.78-11.85-3.42-2.17-7.2-3.5-10.85-5.16a22,22,0,0,0-3.07-1,26.89,26.89,0,0,0-3.59-1c-1.28-.2-2.7.12-3.89-.29a29.34,29.34,0,0,0-9.26-1.61c-5.85,0-11.7-.67-17.6.7-3.49.81-7.09,1.33-10.63,2.13-8.12,1.84-15.4,5.13-21.41,11.07a14.6,14.6,0,0,0-4.4,10.68C149,364.87,149,369,149,373.19Z" transform="translate(-4 -193.83)"/><path class="cls-3" d="M165.89,448.51V589.28L7.11,430.5V289.73Z" transform="translate(-4 -193.83)"/><path class="cls-2" d="M364,214.34c3.32-2.59,5.55-5.84,9-8,3.88-2.43,8.14-3.71,12.31-5.3,2.16-.83,4.59-.94,6.79-1.71s4.9.48,6.93-1.34h17c2,1.57,4.4.66,6.57,1.06a49.48,49.48,0,0,1,6.17,1.94c2.06.67,4.08,1.49,6.17,2,4.21,1,7.7,3.32,11.13,5.67a15,15,0,0,1,5.81,9c.85,3.62-.64,7.23-3.13,10.08-3.51,4-8.28,6.15-13,8.29-3.84,1.73-8,2.32-11.94,3.73a4.13,4.13,0,0,1-.9.24c-3.69.35-7.38.81-11.07,1s-7.75.55-11.47-.09c-4.47-.77-9.07-.86-13.44-2.43-4.21-1.5-8.64-2.5-12.53-4.7-3.54-2-7.14-4-9.16-8-1.62-3.18-3.33-6.11-1.21-9.69C364.19,215.71,364,215.1,364,214.34Z" transform="translate(-4 -193.83)"/><path class="cls-2" d="M217.94,244.39c3.38-2.65,5.62-5.9,9.06-8,3.88-2.43,8.15-3.69,12.31-5.29,2.16-.83,4.59-1,6.79-1.71s4.9.48,6.93-1.34h17c2,1.58,4.4.65,6.57,1.06a49.48,49.48,0,0,1,6.17,1.94c2.06.67,4.08,1.48,6.17,2,4.2,1,7.71,3.3,11.13,5.67a15.07,15.07,0,0,1,5.8,9c.84,3.63-.65,7.22-3.14,10.08-3.5,4-8.28,6.14-13,8.28-3.84,1.73-8,2.31-11.94,3.74a4.1,4.1,0,0,1-.9.23c-3.69.35-7.38.81-11.07,1s-7.76.58-11.47-.09c-4.75-.87-9.62-1-14.31-2.75-4.34-1.59-8.81-2.8-12.86-5.12-4.33-2.49-8-5.37-9.43-10.64-.57-2.15-1.29-3.87.19-5.83C218.21,246.11,217.94,245.25,217.94,244.39Z" transform="translate(-4 -193.83)"/><path class="cls-2" d="M72,274.47c3.11-2.58,5.53-5.87,9.06-8.15,3.86-2.49,8.16-3.66,12.32-5.27,2.16-.83,4.57-1,6.78-1.73s4.9.49,6.94-1.32h17c2,1.6,4.4.64,6.57,1.05a60.53,60.53,0,0,1,6.67,2,61.41,61.41,0,0,1,6.15,2c5.45,2.35,11.06,4.37,14.3,10.07,1.3,2.29,2.59,4.49,2.18,7-.43,2.74-1.16,5.49-3.2,7.65-3.66,3.88-8.33,6.08-13.08,8.23-3.84,1.73-8,2.29-11.93,3.75a3.17,3.17,0,0,1-.91.21c-3.69.35-7.38.81-11.07,1a65.67,65.67,0,0,1-11.48,0c-9.27-1.23-18.39-3.06-26.73-7.79-4.55-2.59-8.29-5.47-9.83-10.81-.61-2.13-1.32-3.87.23-5.82C72.24,276.09,72,275.21,72,274.47Z" transform="translate(-4 -193.83)"/><path class="cls-1" d="M452,228.31c0,6.91.35,13-.12,19.11-.31,3.93-3,7.17-6.23,9.3a62.73,62.73,0,0,1-20,8.45c-2.87.7-5.82.11-8.46,1.19s-5.49.44-8.22.6c-3,.17-6.14.63-8.94-.09-4.56-1.18-9.3-.86-13.84-2.7-4.26-1.73-8.71-2.92-12.87-5.08a20.85,20.85,0,0,1-8.94-8.24,9.93,9.93,0,0,1-1.36-4.39c-.15-5.77-.06-11.55-.06-18.44,2.91,4.53,6.64,6.52,10.18,8.48a53.78,53.78,0,0,0,11.62,4.42c3.93,1.11,7.87,2.66,12.12,2.08,2.7,1.71,5.7.86,8.57,1a62.44,62.44,0,0,0,9,0,107.76,107.76,0,0,0,12.14-2c3.77-.84,7.68-1.62,11.09-3.31C442.72,236.15,447.85,233.57,452,228.31Z" transform="translate(-4 -193.83)"/><path class="cls-1" d="M217,257.85c2.94,4.92,7,6.81,10.56,9,3.36,2,7.39,3.07,11.24,4.1s7.88,2.65,12.13,2.07c5.74,2.18,11.71.82,17.55.87,4,0,8.14-1,12.13-1.92,3.77-.85,7.68-1.63,11.09-3.32,5-2.49,10.16-5.07,14.3-10.32,0,6.92.4,13.06-.14,19.11-.37,4.05-3.3,7.13-6.58,9.58a47.56,47.56,0,0,1-13.7,6.63,73.83,73.83,0,0,1-12,2.57,84.44,84.44,0,0,1-17.08.71,67.71,67.71,0,0,1-29.17-7.84,21.27,21.27,0,0,1-8.93-8.22,10,10,0,0,1-1.36-4.4C216.91,270.68,217,264.9,217,257.85Z" transform="translate(-4 -193.83)"/><path class="cls-1" d="M71,287.87c3,4.89,7,6.79,10.56,9,3.36,2,7.38,3.07,11.24,4.1s7.87,2.65,12.12,2.07c5.75,2.14,11.71.84,17.55.87,4,0,8.14-1,12.14-1.92,3.76-.84,7.67-1.63,11.08-3.31,5-2.49,10.16-5.07,14.31-10.33,0,6.91.4,13.05-.14,19.11-.36,4.06-3.3,7.13-6.58,9.58a46.81,46.81,0,0,1-13.7,6.63,74.67,74.67,0,0,1-12,2.57,84.34,84.34,0,0,1-17.07.71,67.53,67.53,0,0,1-29.17-7.84,21.23,21.23,0,0,1-8.94-8.22,9.93,9.93,0,0,1-1.36-4.4C70.91,300.68,71,294.91,71,287.87Z" transform="translate(-4 -193.83)"/><path d="M441,313.39c0-4.16,0-8.32,0-12.48a15.43,15.43,0,0,1,4.59-11.12,32.11,32.11,0,0,1,10.15-6.93,69,69,0,0,1,10.86-4A94.18,94.18,0,0,1,494.85,276a36.31,36.31,0,0,1,5.08,1c1.54.28,3.36-.75,4.58,1a23.35,23.35,0,0,1,9.75,1.78c3.57,1.82,7.37,3.07,10.9,5.09,4.09,2.35,6.92,5.67,9.44,9.36a9.27,9.27,0,0,1,1.34,4.9c.12,9.48.2,19,0,28.46a12.55,12.55,0,0,1-3.5,8.51c-6.07,6.37-13.56,9.83-22,12A88,88,0,0,1,485.15,351c-2.09-.07-4.15.3-6.29-.47-1.76-.63-4.24.26-5.69-.66-1.88-1.19-4.32.09-5.76-1.84-4.15.41-7.61-1.93-11.07-3.42-5.68-2.43-10.86-6.1-13.95-11.79a12.6,12.6,0,0,1-1.33-5.42C440.88,322.72,441,318.05,441,313.39Zm4-18.06c0,.72.11,1.1,0,1.37-1.86,3.89-.47,7,1.55,10.56,2.15,3.79,5.56,5.64,8.91,7.52,3.75,2.09,8.09,3,12.11,4.5,4.4,1.64,9,1.63,13.39,2.56,3.66.78,7.63.29,11.45.12s7.72-.63,11.57-1c.17,0,.4.07.49,0,1.77-1.57,4.19-1.06,6.2-1.93s4.59-1.07,6.61-2.13c4.44-2.33,9.15-4.29,12.58-8.24,3.19-3.68,4.06-9.79,1.75-13.6a21.07,21.07,0,0,0-9-8.16,68.62,68.62,0,0,0-17.5-6.08c-2.06-.45-4.26-.25-6.05-1a15.78,15.78,0,0,0-6.14-.85c-2.16,0-4.33,0-6.49,0s-4.74-.74-6.4.18c-2.35,1.3-4.74.26-7,1.21s-4.67.79-6.8,1.68c-4.11,1.7-8.44,2.81-12.29,5.34C450.52,289.63,448.25,292.85,445,295.33Zm88,14c-4.15,5.26-9.28,7.84-14.31,10.33-3.42,1.69-7.33,2.47-11.09,3.31a108.51,108.51,0,0,1-12.14,2,62.58,62.58,0,0,1-9,0c-2.87-.11-5.87.74-8.56-1-4.26.58-8.14-1.14-12.14-2a42.47,42.47,0,0,1-11.61-4.47c-3.53-2-7.26-3.95-10.17-8.46,0,6.87-.09,12.65.06,18.42a10,10,0,0,0,1.37,4.4,20.75,20.75,0,0,0,8.93,8.23c4.16,2.16,8.61,3.36,12.88,5.08,4.53,1.83,9.25,1.79,13.83,2.65,4.34.82,9,.47,13.43.09a102.76,102.76,0,0,0,12.66-1.86c5.19-1.11,15.52-5.15,19.52-8.29,3.06-2.4,5.9-5.4,6.2-9.35C533.34,322.34,533,316.21,533,309.31Z" transform="translate(-4 -193.83)"/><path d="M390,343.73c0,4,0,8,0,12a15,15,0,0,1-4.72,11.55c-5.83,5.59-12.81,8.7-20.51,10.85a118.61,118.61,0,0,1-14.29,2.71,72.08,72.08,0,0,1-15.95,0c-2-.16-4-.79-6.09-.91s-4.38-.14-5.95-1.18c-1.88-1.25-3.93-.79-5.86-1.61-6.07-2.61-12.25-4.89-16.86-9.9-3.11-3.38-5-7.18-4.84-12,.22-7.81.12-15.64,0-23.47a15.79,15.79,0,0,1,5.08-12.4c5.76-5.43,12.69-8.4,20.19-10.39A81.8,81.8,0,0,1,346.47,306c2,.13,4-.59,6.17.82,1.57,1.05,3.92-.17,6.08,1,1.78.93,4.3.33,6.54,1a46.48,46.48,0,0,1,4.8,1.74,58.24,58.24,0,0,1,10,4.9c4.23,2.8,7.64,6,9.25,11.11a12.68,12.68,0,0,1,.71,3.68C390,334.74,390,339.23,390,343.73Zm-91-18.41c0,.64.11,1,0,1.3-1.76,3.87-.68,7.07,1.5,10.58,2,3.18,4.72,5,7.69,6.8,4,2.43,8.55,3.48,12.86,5.12,4.68,1.78,9.56,1.88,14.32,2.74,3.7.68,7.64.27,11.46.1s7.38-.62,11.07-1a4.11,4.11,0,0,0,.89-.26c3.93-1.39,8.1-2,11.94-3.72,4.78-2.1,9.43-4.36,13.07-8.27,2-2.17,2.6-5,3.16-7.67.44-2.15-.84-4.33-2.3-7-3.14-5.76-8.77-7.8-14.28-10a89.77,89.77,0,0,0-9.24-3A66.25,66.25,0,0,0,351,309.18c-5.58-.67-11.3-.18-17-.18-2,1.84-4.66.55-6.93,1.36s-4.63.85-6.79,1.7c-4.15,1.61-8.43,2.85-12.31,5.3C304.53,319.53,302.31,322.79,299,325.32Zm87.9,14.11c-4,4.89-8.79,7.37-13.62,9.83a47.94,47.94,0,0,1-11,3.57,66.46,66.46,0,0,1-15.6,2.17c-3.5,0-7,0-10.48,0a7.89,7.89,0,0,1-2.48,0c-4.47-1.56-9.28-1.36-13.76-2.91a85.15,85.15,0,0,1-12.83-5.21,38.77,38.77,0,0,1-9.17-7.36c0,6.31-.16,11.78.08,17.24a14.5,14.5,0,0,0,2.08,6.11c2.12,3.91,5.66,5.93,9.2,7.93,3.89,2.2,8.31,3.19,12.52,4.69,4.37,1.55,9,1.65,13.43,2.42,3.72.64,7.64.26,11.45.09s7.38-.62,11.07-1a3.59,3.59,0,0,0,.9-.22c3.91-1.44,8.09-2,11.92-3.75,4.43-2,9-3.89,12.31-7.56a46.48,46.48,0,0,0,3.94-5.7Z" transform="translate(-4 -193.83)"/><path d="M149,373.19c0-4.16,0-8.32,0-12.48a14.6,14.6,0,0,1,4.4-10.68c6-5.94,13.29-9.23,21.41-11.07,3.54-.8,7.14-1.32,10.63-2.13,5.9-1.37,11.75-.73,17.6-.7a29.34,29.34,0,0,1,9.26,1.61c1.19.41,2.61.09,3.89.29a26.89,26.89,0,0,1,3.59,1,22,22,0,0,1,3.07,1c3.65,1.66,7.43,3,10.85,5.16,4.58,2.9,8.19,6.55,9.78,11.85a13.46,13.46,0,0,1,.49,3.79c0,8.33,0,16.65,0,25a15.2,15.2,0,0,1-4.77,11.53A41.41,41.41,0,0,1,218.67,408c-2.9.64-5.61,1.92-8.66,2.06s-6,.76-9.08.92a65.21,65.21,0,0,1-9.48,0,116.1,116.1,0,0,1-15.85-2.6,60,60,0,0,1-11-3.57c-5.57-2.57-11-5.95-14-11.79a12.23,12.23,0,0,1-1.64-5.82C149.07,382.52,149,377.85,149,373.19Zm47.31,9.08L211.63,381c.32,0,.72.05,1-.11,1.87-1.29,4.19-1.09,6.22-1.87s4.18-1.17,6.14-2.06c4.75-2.13,9.56-4.3,13-8.43,2.36-2.88,3.84-6.39,2.9-10.12a14.94,14.94,0,0,0-5.61-8.61,37.76,37.76,0,0,0-11-5.86c-3.88-1.16-7.52-3.16-11.73-3-1.62-1.81-4-.12-5.55-1-1.9-1.1-3.75-.83-5.64-.87-3.66-.07-7.33,0-11,0-.83,0-2-.35-2.44.06-2,1.8-4.44.38-6.54,1.17s-4.53,1.18-6.73,1.87c-4.24,1.33-8.5,2.66-12.37,5.12-3,1.88-5.22,4.41-7.64,6.8a8.5,8.5,0,0,0-2.37,8.39,17.32,17.32,0,0,0,6.59,9.6c6.74,4.69,14.52,6.92,22.29,8.85C185.85,382.05,191,381.83,196.31,382.27ZM152,370.44c0,5.32-.11,10.64.06,15.95a11.4,11.4,0,0,0,1.35,5.39,20.9,20.9,0,0,0,8.87,8.33c4.2,2,8.6,3.35,12.89,5,4.52,1.78,9.24,1.73,13.82,2.69,3.67.77,7.63.29,11.44.12s7.71-.63,11.57-1c.16,0,.39.07.49,0,1.77-1.55,4.17-1.09,6.19-1.94s4.58-1.06,6.59-2.12c4.29-2.26,9-4,12.17-7.93a53.61,53.61,0,0,0,3.4-5.23v-19.6l-.81-.65a7,7,0,0,1-.79,1.7c-3.33,4-8,6.19-12.5,8.37A51.3,51.3,0,0,1,215.68,383a106.26,106.26,0,0,1-12.14,2,62.58,62.58,0,0,1-9,0c-2.87-.11-5.87.73-8.57-1-4.25.59-8.17-1-12.12-2.07s-7.92-2-11.24-4.09C159,375.62,154.89,373.87,152,370.44Z" transform="translate(-4 -193.83)"/><path class="cls-2" d="M445,295.33c3.25-2.48,5.52-5.7,8.9-7.92,3.85-2.53,8.18-3.64,12.29-5.34,2.13-.89,4.68-.78,6.8-1.68s4.66.09,7-1.21c1.66-.92,4.24-.18,6.4-.18s4.33,0,6.49,0a15.78,15.78,0,0,1,6.14.85c1.79.74,4,.54,6.05,1a68.62,68.62,0,0,1,17.5,6.08,21.07,21.07,0,0,1,9,8.16c2.31,3.81,1.44,9.92-1.75,13.6-3.43,3.95-8.14,5.91-12.58,8.24-2,1.06-4.5,1.21-6.61,2.13s-4.43.36-6.2,1.93c-.09.08-.32,0-.49,0-3.85.33-7.71.8-11.57,1s-7.79.66-11.45-.12c-4.43-.93-9-.92-13.39-2.56-4-1.49-8.36-2.41-12.11-4.5-3.35-1.88-6.76-3.73-8.91-7.52-2-3.54-3.41-6.67-1.55-10.56C445.11,296.43,445,296.05,445,295.33Z" transform="translate(-4 -193.83)"/><path class="cls-1" d="M533,309.31c0,6.9.34,13-.12,19.1-.3,3.95-3.14,6.95-6.2,9.35-4,3.14-14.33,7.18-19.52,8.29a102.76,102.76,0,0,1-12.66,1.86c-4.46.38-9.09.73-13.43-.09-4.58-.86-9.3-.82-13.83-2.65-4.27-1.72-8.72-2.92-12.88-5.08a20.75,20.75,0,0,1-8.93-8.23,10,10,0,0,1-1.37-4.4c-.15-5.77-.06-11.55-.06-18.42,2.91,4.51,6.64,6.47,10.17,8.46A42.47,42.47,0,0,0,465.78,322c4,.89,7.88,2.61,12.14,2,2.69,1.71,5.69.86,8.56,1a62.58,62.58,0,0,0,9,0,108.51,108.51,0,0,0,12.14-2c3.76-.84,7.67-1.62,11.09-3.31C523.72,317.15,528.85,314.57,533,309.31Z" transform="translate(-4 -193.83)"/><path class="cls-2" d="M299,325.32c3.31-2.53,5.53-5.79,9-8,3.88-2.45,8.16-3.69,12.31-5.3,2.16-.85,4.61-.92,6.79-1.7s4.91.48,6.93-1.36c5.66,0,11.38-.49,17,.18A66.25,66.25,0,0,1,361.12,311a89.77,89.77,0,0,1,9.24,3c5.51,2.22,11.14,4.26,14.28,10,1.46,2.68,2.74,4.86,2.3,7-.56,2.71-1.14,5.5-3.16,7.67-3.64,3.91-8.29,6.17-13.07,8.27-3.84,1.7-8,2.33-11.94,3.72a4.11,4.11,0,0,1-.89.26c-3.69.35-7.37.81-11.07,1s-7.76.58-11.46-.1c-4.76-.86-9.64-1-14.32-2.74-4.31-1.64-8.85-2.69-12.86-5.12-3-1.8-5.71-3.62-7.69-6.8-2.18-3.51-3.26-6.71-1.5-10.58C299.11,326.35,299,326,299,325.32Z" transform="translate(-4 -193.83)"/><path class="cls-1" d="M386.9,339.43v20.33a46.48,46.48,0,0,1-3.94,5.7c-3.34,3.67-7.88,5.54-12.31,7.56-3.83,1.75-8,2.31-11.92,3.75a3.59,3.59,0,0,1-.9.22c-3.69.35-7.37.81-11.07,1s-7.73.55-11.45-.09c-4.47-.77-9.06-.87-13.43-2.42-4.21-1.5-8.63-2.49-12.52-4.69-3.54-2-7.08-4-9.2-7.93a14.5,14.5,0,0,1-2.08-6.11c-.24-5.46-.08-10.93-.08-17.24a38.77,38.77,0,0,0,9.17,7.36A85.15,85.15,0,0,0,320,352.05c4.48,1.55,9.29,1.35,13.76,2.91a7.89,7.89,0,0,0,2.48,0c3.49,0,7,0,10.48,0a66.46,66.46,0,0,0,15.6-2.17,47.94,47.94,0,0,0,11-3.57C378.11,346.8,382.88,344.32,386.9,339.43Z" transform="translate(-4 -193.83)"/><path class="cls-2" d="M196.31,382.27c-5.29-.44-10.46-.22-15.28-1.41-7.77-1.93-15.55-4.16-22.29-8.85a17.32,17.32,0,0,1-6.59-9.6,8.5,8.5,0,0,1,2.37-8.39c2.42-2.39,4.67-4.92,7.64-6.8,3.87-2.46,8.13-3.79,12.37-5.12,2.2-.69,4.54-1.05,6.73-1.87s4.54.63,6.54-1.17c.46-.41,1.61-.06,2.44-.06,3.66,0,7.33-.05,11,0,1.89,0,3.74-.23,5.64.87,1.55.91,3.93-.78,5.55,1,4.21-.14,7.85,1.86,11.73,3a37.76,37.76,0,0,1,11,5.86,14.94,14.94,0,0,1,5.61,8.61c.94,3.73-.54,7.24-2.9,10.12-3.4,4.13-8.21,6.3-13,8.43-2,.89-4.12,1.29-6.14,2.06s-4.35.58-6.22,1.87c-.23.16-.63.08-1,.11Z" transform="translate(-4 -193.83)"/><path class="cls-1" d="M152,370.44c2.89,3.43,7,5.18,10.63,7.4,3.32,2.07,7.38,3.07,11.24,4.09s7.87,2.66,12.12,2.07c2.7,1.7,5.7.86,8.57,1a62.58,62.58,0,0,0,9,0,106.26,106.26,0,0,0,12.14-2,51.3,51.3,0,0,0,11.06-3.36c4.5-2.18,9.17-4.36,12.5-8.37a7,7,0,0,0,.79-1.7l.81.65v19.6a53.61,53.61,0,0,1-3.4,5.23c-3.18,3.91-7.88,5.67-12.17,7.93-2,1.06-4.47,1.23-6.59,2.12s-4.42.39-6.19,1.94c-.1.08-.33,0-.49,0-3.86.33-7.71.8-11.57,1s-7.77.65-11.44-.12c-4.58-1-9.3-.91-13.82-2.69-4.29-1.69-8.69-3-12.89-5a20.9,20.9,0,0,1-8.87-8.33,11.4,11.4,0,0,1-1.35-5.39C151.89,381.08,152,375.76,152,370.44Z" transform="translate(-4 -193.83)"/></svg>