<svg id="Layer_1" data-name="Layer 1" xmlns="http://www.w3.org/2000/svg" viewBox="0 0 1040.89 492.36"><defs><style>.cls-1{fill:#fff;}</style></defs><path d="M-165.08,315.54c2.61-4.26,6.7-6.47,10.55-8.71a43.9,43.9,0,0,1,11.22-4.19c4-1,8.15-1.4,12.1-2.29,6.27-1.42,12.45-.33,18.64-.74,1.33-.08,2.7.69,4.08.92s3-.53,4.08,1c2.22-.38,4.53.69,6.72-.69,1.61-1,3.61-.2,5.54-1.12,2.32-1.11,5.33-.71,8-1.22,5.39-1,10.74-2.2,16.1-3.37,2.12-.46,4.2-1.37,6.34-1.52,3-.21,5.88-1.22,8.84-1.63A58.18,58.18,0,0,0-44,290.37c5.09-1.59,10.42-1.94,15.48-3.6,2.84-.92,6-.94,9.39-1.42,2.57-3.55,6.48-6.2,10.53-8.47a47.65,47.65,0,0,1,10.71-4.25c5-1.36,10.2-1.78,15.26-3,1.88-.46,4-.08,6-.08,2.16,0,4.33-.05,6.49,0s4.09-.24,6.14.89c1.59.87,3.62-.09,5.65.83a7.23,7.23,0,0,0,6.61-.4c1.66-1.07,3.6-.09,5.55-1.14,2.23-1.2,5.3-.77,8-1.22a107.93,107.93,0,0,0,12-2.31c4.09-1.18,8.29-1.7,12.36-2.75s8.27-1.87,12.36-2.59,8-1.77,12-2.52,8.39-1,12.32-2.74c1-.43,2.31-.07,3.8-.07,2.68-3.68,6.57-6.36,10.63-8.59a44.35,44.35,0,0,1,11.18-4.29c4-.92,8.12-1.48,12.1-2.32,6.1-1.29,12.1-.4,18.13-.74,1.5-.08,3,.63,4.58.94s2.72-.09,4.22.72a7,7,0,0,0,5.32.17c3.84-1.5,8-1.28,11.86-2.72,2.08-.76,4.67-.6,7-1.08a113.35,113.35,0,0,0,12.8-2.93c1.88-.62,4-.58,6.05-1.05,4.73-1.09,9.52-1.84,14.26-3,2.88-.68,5.82-1,8.7-2,2.67-.9,5.84-.36,8.47-1.32,1.92-.7,4.12-.1,5.52-1.06,1.77-1.22,3.52-.3,5.44-1.06,2.48-3.84,6.64-6.23,10.63-8.56a43.25,43.25,0,0,1,11.27-4.09c4-1,8.07-1.6,12.1-2.32a67.48,67.48,0,0,1,9.13-.72c3.16-.16,6.55-.74,9.43.17s5.84-.21,8.24,1.79c2.19-.44,4.42.62,6.71-.74,1.65-1,3.95-.34,6-1.12,2.47-.92,5.39-.58,8-1.19,5-1.16,10.22-1.81,15.15-3.28,2.25-.68,4.64-.27,6.86-1.54,1.67-1,4-.78,6-1.13,1.86-.32,3.72-.73,5.59-1,2-.27,4.1-.77,6-1.22,3.19-.74,6.38-1.44,9.61-2.08s6.17-1.26,9.23-1.91a41.21,41.21,0,0,1,5.78-.84c2.66-3.92,6.7-6.46,10.73-8.74,3.44-1.94,7.43-3,11.23-4.2,4.64-1.51,9.55-1.72,14.29-2.89,3-.74,6.31-.36,9.45-.07s6.27-1.26,9.09.93c2.8-.45,5.4.92,8.09.92a26.58,26.58,0,0,0,9-1.23c1.66-.61,3.42,0,4.64-.79,1.56-1,3.11-.63,4.65-.93,5.37-1.06,10.72-2.24,16.07-3.41,2.13-.47,4.22-1.35,6.36-1.48,3-.2,5.87-1.29,8.83-1.66a48.22,48.22,0,0,0,8.86-1.62c5.08-1.69,10.43-1.83,15.47-3.61,2.81-1,6-.92,9.33-1.37a29.49,29.49,0,0,1,10.6-8.5,59.76,59.76,0,0,1,11.68-4.39c4.55-1.22,9.29-1.39,13.8-2.85,1.51-.49,3.31-.08,5-.08,3.5,0,7.06-.39,10.48.12a86.64,86.64,0,0,1,9.72,1.76c3.61,1,7.26-.72,10.88-1.31,3.44-.56,6.85-1.29,9.81-1.85L809,310.44V460.22c-4.5,1.13-9,1.74-13.33,3.08-2,.62-4.33.79-6.5,1.24-7.5,1.58-15.15,2.46-22.49,4.85-1.91.62-4,.57-6,1-6.1,1.38-12.25,2.53-18.36,3.92-4.1.93-8.45,1.47-12.58,2.38-5.31,1.17-10.83,1.53-16,3.63-1.86.75-4,.09-6.06,1.09-1.76.87-4,.77-6,1.12-1.86.31-3.71.77-5.59,1-2,.22-3.88,1.73-6.08,1-6.09,2.2-12.56,2.69-18.81,4.12-5.24,1.19-10.61,1.66-15.74,3-3.59,1-7.32,1.36-10.86,2.69-1.8.68-4,.64-6,1.08-6,1.28-12,2-17.88,3.92a30.46,30.46,0,0,1-6.05,1c-3.79.46-7.37,1.72-11.14,2.22s-7.22,1.86-10.83,2.73c-2.09.5-4.35.76-6.52,1.21-4.13.86-8.36,1.17-12.34,2.78-1.88.76-4,.51-6.05,1a75.75,75.75,0,0,1-8.77,1.81,48.06,48.06,0,0,0-8.86,1.59c-5.24,1.75-10.67,2.42-16,3.57a95.36,95.36,0,0,1-13.61,2.4,46.26,46.26,0,0,0-9.65,1.94c-3,.89-6.18,1.15-9.18,2-6.93,1.91-14.18,2.32-21,4.74-2.49.89-5.36.67-8,1.22s-5.29.66-7.8,1.68c-1.9.78-4,.12-6,1.14s-5.12.12-6.89,1.32c-2.09,1.43-4.74-.42-6.3,1.8a23.06,23.06,0,0,0-6.1.93c-6,1.31-12,2-17.89,3.87a52.84,52.84,0,0,1-6.51,1.2c-4.17.71-8.25,1.78-12.34,2.8-2.3.57-4.68.78-7,1.23-4,.79-7.94,1.7-11.89,2.66-2.13.51-4.32.91-6.47,1.22a82.4,82.4,0,0,0-13.79,2.95,30,30,0,0,1-6,1c-4,.41-7.76,1.58-11.62,2.32s-7.69,1-11.36,2.67c-2.24,1-5,.92-7.51,1.15a40.71,40.71,0,0,0-8.26,1.8c-2,.59-4,.08-6.06,1.08s-5.15.11-6.89,1.32c-2.09,1.46-4.77-.46-6.3,1.82-4.2-.23-8.09,1.46-12.16,2.05a63.15,63.15,0,0,0-11,2.32c-2.26.76-4.62.57-6.85,1.53-2,.84-4.73.17-6.45,1.26-2.08,1.32-4.33.32-6.42,1.53-1.92,1.11-4.61.83-6.92,1.33-4,.86-8,1.61-11.88,2.68a64.37,64.37,0,0,1-6.47,1.29c-2.35.39-4.77.48-7.07,1.07a63.25,63.25,0,0,0-6.75,1.76c-1.82.67-4,.64-6,1.08-4.74,1-9.5,2.27-14.26,2.92-6,.82-11.68,2.75-17.7,3.4a115,115,0,0,0-11.88,2.45c-3.51.76-7.07,1.51-10.56,2.39-7.12,1.79-14.51,2.31-21.5,4.78-1.86.66-4,.29-6.06,1.08-1.87.73-4,.74-6,1.09-1.86.31-3.72.65-5.58,1-2,.37-3.92,1.12-6.09,1.13-1.73,0-3.42,1.43-5.21,1.74-2,.35-4,.55-6.07,1-4.72,1.09-9.54,1.72-14.26,3-2.24.61-4.71.14-7.08,1-2,.75-4.66.22-6.47,1.24-1.65.93-3.26.32-4.63.93s-2.79.59-4.1,1a105,105,0,0,1-12.37,2.59c-4,.7-8,1.74-12,2.5-6.13,1.15-12.35,2-18.42,3.67-2.65.74-5.51,1.16-8.27,1.79s-5.66.76-8.43,1.41c-3.53.84-7.2,1.24-10.62,2.18s-7.23.62-10.31,2.78c-4.2-.22-8.13,1.29-12.16,2.08-5.51,1.08-11.16,1.68-16.46,3.65-1.81.68-4-.72-5.48,1.27-5.39.24-10.54,1.81-15.76,3a13.16,13.16,0,0,1-2.87,0L-231.95,477.82V329.61a46.13,46.13,0,0,1,5.49-2c2.76-.65,5.62-.89,8.4-1.47s5.57-1.13,8.3-1.74c4.75-1.06,9.59-1.71,14.26-2.95,3.62-1,7.48-.87,10.89-2.69,1.54-.82,3.65.67,5.05-1.08C-174.75,317.7-170.28,315.36-165.08,315.54Zm971,141.81V313a30.49,30.49,0,0,0-5.57.87c-5.36,1.89-11,2.49-16.49,3.59-4,.81-8,2.27-12.15,2.09-3.08,2.16-6.9,1.84-10.32,2.78a60.81,60.81,0,0,1-10.62,2.08c-4.15.38-7.9,2.73-12.16,2.14-2.5,1.6-5.46,1.47-8.19,1.88-3,.45-5.77,1.8-8.66,2-4.17.28-7.9,2.73-12.17,2.13-2.5,1.58-5.49,1.13-8.17,2a42.92,42.92,0,0,1-8.69,1.85c-4.13.43-7.88,2.76-12.15,2.18-1.78,2.14-4.54.41-6.78,1.82-1.84,1.17-4.66.65-7,1.23s-4.94.4-7,1.13c-3.56,1.24-7.49.9-10.82,2.81-6,.3-11.72,2.69-17.76,3-1.7,1.73-4,.7-6,1.28a64.16,64.16,0,0,1-10.89,2.62c-4.28.46-8.29,2.36-12.66,2.1-1.48,1.83-3.86.83-5.75,1.86s-4.31.8-6.51,1.15c-2,.32-4.32.18-6,1.12-2,1.12-4.13.41-6,1.11-3.54,1.27-7.32,1.44-10.88,2.69-2.06.72-4.82.09-6.45,1.23-2.09,1.47-4.68-.3-6.34,1.72-4-.25-7.64,1.87-11.61,2.17a23.44,23.44,0,0,0-6.47,1.25c-1.82.71-3.78-.11-5.09.91-1.58,1.21-3.43.11-4.63.9-1.73,1.12-3.51.48-5.14,1-2.14.64-4.39.62-6.46,1.29-5.39,1.73-11,2.48-16.5,3.56-4,.79-8,2.27-12.16,2.08-5.49,2.58-11.57,2.69-17.37,3.87-4.16.84-8.27,2.39-12.64,2.13-1.45,1.92-3.87.71-5.77,1.85-1.75,1.06-4.29.81-6.49,1.16-2,.32-4.34.17-6,1.12-2,1.15-4.09.5-6.05,1.13-3.88,1.22-7.94,1.71-11.86,2.78-2.56.69-5.2.88-7.77,1.73a62.75,62.75,0,0,1-10.59,2.17,23.75,23.75,0,0,0-4.1,1c-1.46.49-3.06.57-4.6.92-4.88,1.12-9.8,2.56-14.73,3-6.06.54-11.67,3.11-17.74,3.17-2,2-4.86.6-7.26,1.84-2.13,1.1-5.1.45-7.46,1.28-1.9.67-4,.24-5.56,1-3.47,1.75-7.3,2.13-10.86,2.62-4.57.63-9,2.34-13.64,2.24-1.78,2.14-4.48.65-6.77,1.8-3,1.49-6.65,1.8-10.08,2.14-4.27.41-8.29,2.32-12.66,2.06-1.54,2.25-4.21.35-6.3,1.82-1.74,1.22-4.83.35-6.89,1.32s-4.16.35-6.06,1.1c-5.29,2.09-11,2.51-16.46,3.66-3.83.81-7.59,2-11.55,2.42-2.76.3-5.43,1.43-8.27,1.7-2.53.25-5.23.21-7.53,1.12-5.14,2.07-10.64,2.43-15.93,3.75-6.05,1.51-12.24,2.6-18.35,3.91s-12.12,2.29-18.21,3.22c-2.19.34-4.29,1-6.56,1.16-1.76.09-3.47,1.69-5.2,1.69-2.17,0-4.07.76-6.09,1.13-1.86.34-3.72.68-5.59,1-2,.35-4.26.24-6,1.11-2.22,1.09-4.59.86-6.85,1.53-5.09,1.52-10.41,2.28-15.63,3.37-2.17.45-4.51.58-6.52,1.18-4.4,1.32-8.92,1.81-13.27,3-2,.55-4.12.31-6,1.08-2.51,1-5.2,1.14-7.8,1.68s-5.46.42-8,1.24-4.84,1.19-7.23,1.87c-2.55.73-5.21,1.17-7.74,1.67A50,50,0,0,1,54,467.64a22.45,22.45,0,0,0-6.49,1.17c-5.53,2-11.32,2.47-17,3.58-4.17.81-8.29,2.34-12.64,2.16-5,2.43-10.64,2.31-15.89,3.84-2.95.85-6.15,1.26-9.23,1.88-3.23.63-6.42,1.34-9.61,2.08-1.94.45-4,.95-6,1.22-1.87.25-3.73.66-5.59,1-2,.35-4.25.26-6,1.11-2,1-4.16.42-6.07,1.08-5.67,1.95-11.59,2.62-17.41,3.83-3,.63-6,1.43-8.79,2.1V637.42a30.33,30.33,0,0,0,5.17-.92c2.12-.78,4.38-.66,6.46-1.31,5.4-1.7,11-2.48,16.51-3.56,4-.79,8-2.31,12.15-2.08,3.08-2.16,6.9-1.84,10.32-2.78s7.09-1.34,10.62-2.18c2.77-.65,5.65-.8,8.43-1.42a75.6,75.6,0,0,0,8.23-1.87c2.42-.85,5-.32,7.35-1.58,2.12-1.12,5.1-.47,7.46-1.28,1.9-.66,4-.29,5.57-1,4.94-2.22,10.45-1.86,15.41-3.84,1.74-.69,3.76.57,5.67-.89,1.26-1,3.27.14,5.09-1,1.39-.85,3.67-.76,5.5-1a93.73,93.73,0,0,0,9.65-2.18c3.37-.8,6.85-.8,10.21-1.89,2.53-.82,5.44-.45,8-1.18s5.37-1.52,8.16-2.08c4.76-.94,9.52-1.93,14.27-2.94,2-.43,4.33-.29,6-1.08,3.35-1.57,7-1.69,10.4-2.6s7.08-1.37,10.62-2.18c2.77-.64,5.62-.88,8.41-1.46s5.57-1.13,8.3-1.74c4.75-1.06,9.55-1.85,14.27-2.94,2-.47,4.28-.32,6-1.07,5-2.11,10.33-2.54,15.47-3.57a109.83,109.83,0,0,1,13.11-2.29,31.89,31.89,0,0,0,3.6-.95,30.62,30.62,0,0,0,3.7-.69,74.47,74.47,0,0,1,11-2.3c2.68-.46,5.57-.22,8-1.18,2.22-.87,4.54-1,6.73-1.82s4.51-.61,6.44-1.38c2.26-.91,4.63-.46,6.88-1.51,2.06-1,4.78-.46,7-1.24,2-.72,4.07-.66,6.08-1,1.79-.34,3.48-1.73,5.22-1.73,2.17,0,4.06-.78,6.08-1.13,1.86-.32,3.72-.68,5.59-1s4.2-.33,6-1.1c2-.84,4.2-.4,6.06-1.08,6.82-2.48,14.08-2.84,21-4.75,3-.82,6.12-1.21,9.18-2,4.86-1.18,9.85-1.9,14.74-3.07,2.62-.62,5.52-.3,8-1.18,2.05-.71,4.47-.11,6-1.13,2.06-1.4,4.35-.13,6.43-1.58,1.64-1.13,4.41-.48,6.44-1.25,2.37-.89,5.05-.18,7-1.11s3.93.06,5.05-1c1.48-1.37,3.13-.35,4.57-1.22a8.92,8.92,0,0,1,4.81-1.49c2.22.15,4.06-.85,6.1-1.13,1.87-.26,3.72-.67,5.58-1,2-.35,4.25-.27,6-1.11,2-1,4.2-.35,6-1.09,5.15-2.06,10.65-2.49,16-3.63,4.13-.89,8.27-2.35,12.63-2.18,6.71-2.76,14-3.42,21-4.78,5.71-1.1,11.28-3.27,17.21-3.22,1.55-2.25,4.63.26,6.18-2,2.24,0,4.4,0,6.63-.89,2-.84,4.38-.6,6.53-1.15,2.56-.66,5.18-1,7.75-1.75,3.28-.94,6.74-1.4,10.11-2.16,2.64-.59,5.57-.23,8-1.2,2.06-.82,4.27-.18,6-1.09,4.73-2.44,10-2.44,15-3.58,4.12-.94,8.49-1.45,12.59-2.39,6.1-1.41,12.27-2.51,18.35-3.94,2-.47,4.16-.35,6-1a66.14,66.14,0,0,1,10.87-2.62c4.18-.78,8.48-1.46,12.58-2.41,5.29-1.23,10.73-1.83,16-3.58a48.07,48.07,0,0,1,8.86-1.61c3-.38,5.77-1.68,8.83-1.59,1.85-2,4.52-.89,6.79-1.69a77.47,77.47,0,0,1,10.06-2.27c2.66-.53,5.57-.23,8-1.18,2.07-.81,4.16-.36,6.06-1.06a63.08,63.08,0,0,1,10.88-2.61c4.19-.76,8.48-1.48,12.58-2.41,5.3-1.2,10.71-1.95,16-3.59a54.32,54.32,0,0,1,8.85-1.61,68.26,68.26,0,0,0,8.78-1.79c2-.56,4.13-.3,6-1,5.31-2.06,11-2.54,16.47-3.65,4-.81,8-2.27,12.15-2.1,1.51-1.76,4.12-.39,5.67-2,2.35.69,4.32-1,6.59-1.06a35.25,35.25,0,0,0,6.08-.95c2.14-.44,4.22-1.13,6.37-1.52,3.69-.67,7.29-1.82,11-2.39A60.42,60.42,0,0,0,805.88,457.35Zm-2.44-146.91L644.68,151.67,637.13,153c0,.34-.06.66-.09,1a17.81,17.81,0,0,0,2.78,1.57c5.44,1.93,10.39,4.9,13.35,8.72,2.33,3,4,6.28,3.93,10.38-.18,8.16-.09,16.33,0,24.5a16,16,0,0,1-5,12,39.07,39.07,0,0,1-11,7.33,73.6,73.6,0,0,1-11.37,3.89c-4.1,1.21-8.41,1.4-12.61,2.08-3.74.61-7.65.26-11.48.1s-7.73-.63-11.59-1c-.16,0-.36.06-.49,0-4.62-2.21-9.8-2.58-14.52-4.82-5-2.35-9.7-4.8-13.22-9A15.08,15.08,0,0,1,562,199.3c.23-7.16,0-14.33.07-21.5,0-3-.45-6.07,1.18-8.94-24.36,4.69-48.21,9.81-72.67,14.33.62.61.94,1.17,1.4,1.33a59.28,59.28,0,0,1,8.37,4,22.87,22.87,0,0,1,7,5.95c2,2.55,3.76,5.4,3.74,8.93q-.06,13.75,0,27.5a12.62,12.62,0,0,1-2.45,7.46c-3.89,5.24-9.61,8.29-15.31,11.18a29.92,29.92,0,0,1-6.15,2c-2.29.58-4.77.58-6.9,1.47-2.29,1-4.82-.32-6.68.74-2.44,1.39-4.8.58-7.18.79-5.89.52-11.73-.39-17.58-1a5.94,5.94,0,0,1-1.42-.18c-4.77-1.8-9.83-2.61-14.56-4.71-5.2-2.31-10-5.07-13.51-9.48A15.08,15.08,0,0,1,416,229.06c.24-8,0-16,.1-24,0-2,.42-4.05.64-6.08-23.71,4.46-47.54,9.74-71.59,14.06L345,214a17.24,17.24,0,0,0,2.76,1.58c5.54,2,10.37,4.86,13.36,8.71,2.33,3,4,6.27,3.95,10.37-.19,8.17-.1,16.34,0,24.5a15.66,15.66,0,0,1-5,12c-3.36,3.26-7.38,5.32-11.4,7.52-3.61,2-7.62,2.56-11.41,3.83s-8.09,1.4-12.15,2c-3.75.56-7.66.25-11.48.09s-7.73-.63-11.59-1c-.17,0-.36.06-.5,0-4.62-2.21-9.79-2.59-14.51-4.81-5-2.35-9.71-4.8-13.23-9A15.16,15.16,0,0,1,270,259.32c.22-7.33,0-14.67.09-22,0-2.83.35-5.66.52-8.32-23.72,4.52-47.56,9.7-72,14.16.61.62.92,1.2,1.38,1.36a60.84,60.84,0,0,1,8.36,4,22.73,22.73,0,0,1,7.32,6.31c1.84,2.44,3.47,5.18,3.44,8.55-.08,9.17.08,18.34-.09,27.5a13.58,13.58,0,0,1-3.65,9,36.39,36.39,0,0,1-13.26,9.08,79.91,79.91,0,0,1-25.17,5.6c-6.72.5-13.41-.21-20.08-1a5.55,5.55,0,0,1-1.43-.17c-4.76-1.82-9.82-2.62-14.55-4.72-5.21-2.3-10-5.05-13.52-9.47A15.13,15.13,0,0,1,124,289.08c.23-8,0-16,.1-24a61.23,61.23,0,0,1,.65-6.11C101,263.46,77.19,268.71,53.15,273l-.11.9a17.91,17.91,0,0,0,2.74,1.59c5.59,2,10.36,4.85,13.37,8.7,2.35,3,4,6.27,4,10.37-.19,8.16-.1,16.33,0,24.5a15.91,15.91,0,0,1-4.94,12c-2.77,2.77-6.17,4.4-9.33,6.5-4.13,2.74-8.94,3.6-13.5,4.78a55.49,55.49,0,0,1-15.63,2.16c-5.2-.18-10.36.16-15.62-.78A95.93,95.93,0,0,1,.32,340.57a52.13,52.13,0,0,1-11-4.83,28.72,28.72,0,0,1-7.09-5.64A15.58,15.58,0,0,1-22,319.34c.18-7.33,0-14.67.08-22,0-2.84.35-5.67.53-8.37l-71.9,14.3c.47.5.78,1.11,1.23,1.25a38.18,38.18,0,0,1,8.76,4.2A22.83,22.83,0,0,1-75.8,316c1.54,2.35,2.81,4.59,2.83,7.35.06,9.16,0,18.33,0,27.5a12,12,0,0,1-2.44,7.45,35.34,35.34,0,0,1-16.27,11.25c-2.19.77-4.51,1.17-6.64,2.06s-4.52,1-6.74,1.81-4.67.13-7.09,1c-2.65,1-20.6-.21-24-.87a1.69,1.69,0,0,1-.43-.15c-4.52-2-9.84-1.76-14-4.85-3.51.18-5.51-2.77-8.3-4.09-3.11-1.46-5.14-4.3-6.94-7.24a12.53,12.53,0,0,1-2.13-6.62v-11c0-3.5,0-7,0-10.5s-.44-7,1-10.44l-58.32,12.11L-66.45,489.55a21.27,21.27,0,0,1,3.09-1c2.51-.43,5.26-.19,7.54-1.13,5.14-2.1,10.68-2.2,15.93-3.73,3-.86,6.14-1.27,9.23-1.88s6.42-1.35,9.61-2.09c1.94-.45,4-.95,6-1.22,1.87-.24,3.72-.66,5.59-1,2-.35,4.25-.26,6-1.12,2-1,4.2-.34,6.06-1.09,5.13-2.08,10.65-2.47,16-3.62,4.13-.9,8.28-2.35,12.63-2.18,7.22-2.81,15-3.37,22.46-4.86,4.17-.83,8.33-1.87,12.62-2.34,2.13-.23,4.47-1.43,6.71-1.67,2.55-.28,4.89-1.36,7.57-1.27,2.23.08,4.47-1.4,6.75-1.59,3.2-.27,6.07-1.79,9.11-2.14a115.73,115.73,0,0,0,12.6-2.35c5.29-1.23,10.73-1.83,16-3.58a48.17,48.17,0,0,1,8.87-1.6,73.27,73.27,0,0,0,8.77-1.8c2-.53,4.17-.25,6-1,5.12-2.14,10.66-2.42,16-3.6,4.13-.92,8.27-2.37,12.63-2.17,7.21-2.85,15-3.37,22.46-4.85,4.17-.83,8.27-2.41,12.64-2.15,5.31-2.62,11.24-2.83,16.88-3.79,5.45-.92,10.56-3.52,16.22-3.21,2.5-1.59,5.5-1.09,8.18-2a41.48,41.48,0,0,1,8.68-1.84c4.14-.45,7.89-2.78,12.16-2.18,2.5-1.58,5.49-1.12,8.17-2a43.61,43.61,0,0,1,8.69-1.85c4.13-.43,7.88-2.76,12.15-2.17,2.51-1.56,5.49-1.16,8.18-2a45.88,45.88,0,0,1,8.68-1.85c4.14-.41,7.89-2.74,12.15-2.18,4.34-2.16,9.2-1.87,13.78-2.89,4-.88,7.95-2.29,12.15-2.1,1.94-1.62,4.47-1.45,6.7-1.87,2.48-.46,4.9-1.82,7.56-1.13,1.85-2,4.52-.85,6.79-1.69a36.07,36.07,0,0,1,9.06-2.22,98.71,98.71,0,0,0,12.61-2.31c5.29-1.2,10.66-2.4,15.95-3.53,5.83-1.26,11.66-3,17.7-3.25,1.72-1.7,4-.58,6-1.28,5.33-1.93,11-2.55,16.48-3.63,4-.79,8-2.27,12.15-2.09,5-2.49,10.59-2.79,15.89-3.76,4.49-.81,9-2.34,13.63-2.24,1.68-2.07,4.22-.72,6.35-1.56,3.45-1.36,7.29-1.76,11-2.41,2.67-.47,5.72-.05,8-1.22,2-1,3.8-.31,5.57-1.09,5.07-2.25,10.61-2.61,16-3.69,3.87-.77,7.64-2.16,11.67-2,1.49-1.79,3.85-.87,5.74-1.86s4.32-.79,6.51-1.14c2-.32,4.34-.17,6-1.12,2-1.16,4.1-.48,6-1.14a70.42,70.42,0,0,1,10.9-2.58c4.2-.72,8.49-1.46,12.59-2.39,5.29-1.19,10.66-2.37,15.95-3.54,5.81-1.29,11.65-3,17.7-3.23,1.69-2.06,4.23-.72,6.35-1.55,3.46-1.35,7.3-1.77,11-2.42,2.67-.47,5.7-.07,8-1.22,1.94-1,4.05.05,5.51-1.18,1.64-1.37,3.47-.07,5.14-.93a14,14,0,0,1,5.3-1.63c6-.42,11.69-2.92,17.75-3.07,1.67-1.78,4.12-.34,5.92-1.4,2.92-1.71,6.35-1.45,9.46-2.5,2.36-.81,5.27-.22,7.48-1.24,2.39-1.1,5-.36,7.3-1.76,1.38-.85,3.32-.83,5-1.08,2.69-.39,5.52-.28,8-1.1,5.69-1.85,11.62-2.52,17.41-3.74,4-.84,8-1.85,12-2.54s8.29-1.51,12.38-2.55c1.36-.35,2.73-.56,4.1-1s3-.44,4.6-.93C795.64,311.5,799.77,311.1,803.44,310.44ZM-70,493.33-228.87,334.49V474.78L-70,633.62ZM566.21,168.78a6.68,6.68,0,0,1-.44,2.48c-2,2.93-.35,5.7.75,8.09,1.75,3.82,5.05,6.3,8.87,8.28,4.15,2.17,8.59,3.41,12.89,5.08,4.69,1.82,9.57,1.79,14.33,2.71,3.53.68,7.3.26,11,.1s7.38-.63,11.07-1c.32,0,.74.08,1-.08,1.85-1.36,4.19-1.09,6.21-1.89s4.18-1.19,6.14-2.06c4.76-2.12,9.45-4.38,13-8.38,2.52-2.83,3.27-7.33,2.11-11.3a14.84,14.84,0,0,0-6.36-8.4A52.16,52.16,0,0,0,636,157c-6.17-2.41-12.66-3.48-19.16-4.33-2.95-.39-6-.07-9-.07-2.33,0-5-.73-6.89.19-2.28,1.12-4.5.23-6.59,1s-4.53,1.15-6.72,1.87c-4.23,1.38-8.49,2.7-12.38,5.1C571.81,162.86,569.48,166,566.21,168.78ZM420.05,198.87c0,.64.11,1,0,1.3-1.76,3.87-.68,7.07,1.5,10.58,2,3.19,4.72,5,7.69,6.8,4,2.43,8.55,3.48,12.86,5.12,4.68,1.78,9.56,1.88,14.32,2.75,3.7.67,7.63.26,11.46.1s7.38-.63,11.07-1a3.23,3.23,0,0,0,.89-.26c3.93-1.39,8.1-2,11.94-3.71,4.78-2.11,9.43-4.37,13.07-8.28,2-2.17,2.6-4.95,3.16-7.67.44-2.15-.84-4.33-2.3-7-3.14-5.76-8.79-7.75-14.27-10-2-.83-4.1-1.38-6.16-2a56.42,56.42,0,0,0-6.67-1.95c-2.18-.39-4.56.49-6.57-1.06H455c-2,1.84-4.65.55-6.92,1.36s-4.64.86-6.8,1.7c-4.15,1.62-8.43,2.86-12.31,5.31C425.58,193.08,423.36,196.34,420.05,198.87ZM274.2,228.82a6.68,6.68,0,0,1-.43,2.45c-2,2.93-.34,5.69.75,8.08,1.75,3.83,5.07,6.29,8.87,8.28,4.16,2.17,8.58,3.43,12.9,5.07,4.69,1.79,9.56,1.83,14.32,2.72,3.54.67,7.31.26,11,.1s7.38-.63,11.08-1c.32,0,.73.08,1-.08,1.86-1.35,4.19-1.09,6.22-1.89s4.18-1.18,6.14-2.06c4.74-2.13,9.45-4.37,13-8.38,2.52-2.83,3.27-7.34,2.11-11.31a14.88,14.88,0,0,0-6.37-8.4A51.87,51.87,0,0,0,344,217c-6.17-2.42-12.65-3.48-19.16-4.33-2.94-.39-6-.07-9-.07-2.33,0-5-.73-6.9.19-2.27,1.13-4.49.23-6.58,1s-4.54,1.16-6.73,1.87c-4.23,1.37-8.48,2.71-12.37,5.1C279.65,223,277.26,226.3,274.2,228.82ZM-163.95,319a3.36,3.36,0,0,1,0,1.17c-1.75,3.86-.68,7.06,1.51,10.57,2,3.19,4.72,5,7.68,6.8,4,2.43,8.55,3.48,12.87,5.12,4.67,1.78,9.55,1.88,14.31,2.75,3.71.67,7.64.26,11.46.1s7.38-.63,11.07-1a3.49,3.49,0,0,0,.89-.26c3.94-1.39,8.1-2,12-3.71,4.78-2.1,9.42-4.37,13.06-8.28,2-2.17,2.59-5,3.16-7.67.44-2.1-.87-4.38-2.3-7-3.13-5.76-8.79-7.75-14.28-10-2-.83-4.09-1.38-6.15-2a57.55,57.55,0,0,0-6.67-1.95c-2.18-.39-4.56.48-6.57-1.06h-17c-2,1.84-4.66.55-6.93,1.37s-4.64.84-6.79,1.69c-4.15,1.62-8.44,2.85-12.31,5.31C-158.54,313.19-160.88,316.53-163.95,319Zm292-60.07c0,.72.28,1.6,0,2-2.44,3-.6,5.94.57,8.47,1.75,3.81,5.11,6.18,8.88,8.23a67,67,0,0,0,29.2,7.82,88.16,88.16,0,0,0,16.6-.71A73.54,73.54,0,0,0,203,279.11c3.62-1.61,7.22-3.52,9.66-6.72,2.58-3.38,4.55-6.94,2.55-11.67-1.41-3.35-3.12-6.12-6.1-8.18a50.83,50.83,0,0,0-11.15-5.65,84.39,84.39,0,0,0-19.19-4.26c-3.27-.42-6.65-.08-10-.08-2,0-4.42-.71-5.89.17-2.23,1.33-4.47.29-6.58,1.06s-4.2,1.11-6.26,1.79c-4.38,1.46-8.81,2.69-12.83,5.22C133.61,253,131.23,256.38,128.05,258.94ZM-17.95,289a3.56,3.56,0,0,1,0,1.21c-1.76,3.87-.61,7,1.52,10.57,2.31,3.84,5.84,5.67,9.32,7.72C-3.39,310.72,1,311.48,5,313s8.65,1.59,13,2.39c3.7.69,7.64.27,11.46.11s7.72-.63,11.57-1c.17,0,.4.07.49,0,1.77-1.59,4.19-1.54,6.2-1.8,2.46-.32,4.1-2.6,6.64-2.19,4.34-2.52,9.21-4.27,12.53-8.3,2.42-2.93,4-6.54,3.06-10.11a16.19,16.19,0,0,0-6.6-9.58,42.11,42.11,0,0,0-11.59-5.75c-5-1.41-9.75-3.79-15.14-3.26-.33,0-.77.14-1,0-2.84-2.16-6.07-.64-9.1-.91s-6.57-.8-9.4.16c-2.38.81-4.73.28-7,1.15s-4.66.81-6.8,1.69c-4.12,1.69-8.44,2.81-12.3,5.32C-12.55,283.23-14.9,286.56-17.95,289Zm88,13.85c-4.14,5.26-9.27,7.84-14.3,10.33-3.42,1.68-7.32,2.47-11.09,3.31-4,.9-8.09,1.95-12.13,1.92-5.84,0-11.81,1.3-17.55-.87-4.26.58-8.18-1-12.13-2.06S-5,313.4-8.39,311.38c-3.6-2.17-7.62-4.06-10.56-9,0,7-.09,12.82.06,18.59a10,10,0,0,0,1.36,4.4,21.19,21.19,0,0,0,8.94,8.23,67.81,67.81,0,0,0,29.16,7.84,85.18,85.18,0,0,0,17.08-.72,72.78,72.78,0,0,0,12-2.57,47.18,47.18,0,0,0,13.7-6.63c3.28-2.45,6.22-5.52,6.58-9.58C70.45,315.92,70.05,309.78,70.05,302.86Zm584-120.17c-3.44,4.61-7.56,6.71-11.59,9-5.63,3.22-12,4.17-18.06,5.76a50.19,50.19,0,0,1-10,1.06c-3.48.16-7,0-10.48,0-1,0-2.24.39-2.94-.07-2.29-1.49-4.85-.37-7.09-1s-4.82-1.22-7.17-2a63.48,63.48,0,0,1-12.37-5.07,34,34,0,0,1-9.25-7.51c0,5.53.05,10.16,0,14.78-.08,6.22,2.33,10.82,7.73,14.26a48.4,48.4,0,0,0,10.36,5.16,82.36,82.36,0,0,0,11.07,3.35,75.68,75.68,0,0,0,12,1,95.7,95.7,0,0,0,15.57-.78,68.66,68.66,0,0,0,11.95-2.65,46,46,0,0,0,13.28-6.48c4.35-3.26,7.26-7,7-12.79C653.9,193.85,654.05,188.87,654.05,182.69Zm-235,31c0,5.11,0,10.22,0,15.33,0,5.39,2.65,9.48,6.76,12.5A34.38,34.38,0,0,0,437,247c1.79.49,3.58,1,5.34,1.57a51.89,51.89,0,0,0,5.67,1.93c1.9.38,4.11-.23,5.8.48,2.15.91,4.19.52,6.25.53a107.11,107.11,0,0,0,15.58-.75,67.31,67.31,0,0,0,12-2.56,48.21,48.21,0,0,0,13.7-6.63c3.31-2.44,6.21-5.54,6.59-9.56.57-6.06.15-12.2.15-19.13-4.14,5.24-9.26,7.8-14.29,10.3-3.41,1.69-7.31,2.48-11.07,3.33a104.1,104.1,0,0,1-12.14,2,64.07,64.07,0,0,1-9,0c-2.87-.12-5.87.73-8.57-1-4.25.59-8.17-1-12.13-2.06s-7.9-2.05-11.24-4.1C426,219.2,422,217.37,419.05,213.66Zm-57.14,29.5a45.23,45.23,0,0,1-8.74,7c-4.19,2.62-8.74,3.82-13.25,5.44s-9.21,2-13.78,2.73a58.08,58.08,0,0,1-16.91,0,94.88,94.88,0,0,1-13.79-2.7c-7.4-2.27-14.52-4.81-20.19-10.36-.57-.56-.93-1.63-2.2-1.53,0,5.48,0,10.79,0,16.1,0,2.47,1.12,4.43,2.26,6.56,2.16,4.08,5.92,6,9.6,8.1S293,277.47,297,279c4.17,1.62,8.64,1.58,12.95,2.38,3.7.68,7.63.27,11.45.11s7.71-.63,11.56-1c.17,0,.4.07.49,0,1.76-1.61,4.19-1.54,6.19-1.79,2.47-.32,4.09-2.61,6.64-2.2,4.19-2.43,8.94-4.08,12.15-7.95a50.1,50.1,0,0,0,3.47-5.31Zm-526.86,90.73c0,5.47,0,10.93,0,16.4a12.51,12.51,0,0,0,.82,2.64,14.23,14.23,0,0,0,6.57,8.76,67.76,67.76,0,0,0,10.33,5.25c6.13,2.63,12.63,3.49,19.07,4.51,3.73.59,7.64.23,11.45.07s7.71-.63,11.57-1a4,4,0,0,0,.89-.24c3.92-1.43,8.1-2,11.93-3.74,4.42-2,9-3.9,12.3-7.58a47.17,47.17,0,0,0,4-5.83c0-6.61,0-12.77,0-18.92a.7.7,0,0,0-.22-.4,1.08,1.08,0,0,0-.34-.21c-4.54,5.07-10.28,8.3-16.59,10.55a89.3,89.3,0,0,1-20.16,4.27,56.2,56.2,0,0,1-14.43-.05c-4.76-.73-9.57-1.4-14.32-2.6a68.09,68.09,0,0,1-12.15-4.45C-158,339.57-162,337.41-164.95,333.89Zm381-61.47c-1.45,1.77-2.11,2.69-2.88,3.5-3.33,3.47-7.74,5.33-11.85,7.55-2.13,1.14-4.73,1.41-7.11,2.08s-4.8,1.28-7.19,1.87-5.14-.17-7.54,1.13c-6.17-.54-12.46,1.18-18.55-1-4.25.58-8.13-1.14-12.13-2A43.08,43.08,0,0,1,137.2,281c-3.54-2-7.2-4-10.15-8.34,0,6.79-.09,12.57.06,18.35a9.89,9.89,0,0,0,1.39,4.38,18,18,0,0,0,9,8.15c2.14.85,4.12,2.1,6.27,2.94s4.56,1.09,6.6,2.11a20.24,20.24,0,0,0,6.71,1.8c2.38.29,4.73.81,7.07,1a78.46,78.46,0,0,0,13.45,0,105.19,105.19,0,0,0,12.67-1.87c5.22-1.12,15.54-5.23,19.51-8.3,3-2.29,5.77-5.25,6.12-8.88C216.49,286.22,216.05,279.91,216.05,272.42Z" transform="translate(231.95 -148.27)"/><path class="cls-1" d="M805.88,457.35a60.42,60.42,0,0,1-8.78,2.28c-3.7.57-7.3,1.72-11,2.39-2.15.39-4.23,1.08-6.37,1.52a35.25,35.25,0,0,1-6.08.95c-2.27.06-4.24,1.75-6.59,1.06-1.55,1.61-4.16.24-5.67,2-4.19-.17-8.13,1.29-12.15,2.1-5.5,1.11-11.16,1.59-16.47,3.65-1.91.74-4,.48-6,1a68.26,68.26,0,0,1-8.78,1.79,54.32,54.32,0,0,0-8.85,1.61c-5.25,1.64-10.66,2.39-16,3.59-4.1.93-8.39,1.65-12.58,2.41a63.08,63.08,0,0,0-10.88,2.61c-1.9.7-4,.25-6.06,1.06-2.45.95-5.36.65-8,1.18a77.47,77.47,0,0,0-10.06,2.27c-2.27.8-4.94-.31-6.79,1.69-3.06-.09-5.87,1.21-8.83,1.59a48.07,48.07,0,0,0-8.86,1.61c-5.23,1.75-10.67,2.35-16,3.58-4.1.95-8.4,1.63-12.58,2.41a66.14,66.14,0,0,0-10.87,2.62c-1.89.69-4,.57-6,1-6.08,1.43-12.25,2.53-18.35,3.94-4.1.94-8.47,1.45-12.59,2.39-5,1.14-10.26,1.14-15,3.58-1.76.91-4,.27-6,1.09-2.45,1-5.38.61-8,1.2-3.37.76-6.83,1.22-10.11,2.16-2.57.73-5.19,1.09-7.75,1.75-2.15.55-4.55.31-6.53,1.15-2.23.93-4.39.86-6.63.89-1.55,2.26-4.63-.25-6.18,2-5.93,0-11.5,2.12-17.21,3.22-7,1.36-14.26,2-21,4.78-4.36-.17-8.5,1.29-12.63,2.18-5.32,1.14-10.82,1.57-16,3.63-1.85.74-4,.13-6,1.09-1.79.84-4,.76-6,1.11-1.86.31-3.71.72-5.58,1-2,.28-3.88,1.28-6.1,1.13a8.92,8.92,0,0,0-4.81,1.49c-1.44.87-3.09-.15-4.57,1.22-1.12,1-3.21.09-5.05,1s-4.65.22-7,1.11c-2,.77-4.8.12-6.44,1.25-2.08,1.45-4.37.18-6.43,1.58-1.51,1-3.93.42-6,1.13-2.51.88-5.41.56-8,1.18-4.89,1.17-9.88,1.89-14.74,3.07-3.06.75-6.19,1.14-9.18,2-6.94,1.91-14.2,2.27-21,4.75-1.86.68-4,.24-6.06,1.08-1.84.77-4,.75-6,1.1s-3.73.67-5.59,1c-2,.35-3.91,1.13-6.08,1.13-1.74,0-3.43,1.39-5.22,1.73-2,.38-4,.32-6.08,1-2.2.78-4.92.27-7,1.24-2.25,1-4.62.6-6.88,1.51-1.93.77-4.35.62-6.44,1.38s-4.51.95-6.73,1.82c-2.46,1-5.35.72-8,1.18a74.47,74.47,0,0,0-11,2.3,30.62,30.62,0,0,1-3.7.69,31.89,31.89,0,0,1-3.6.95A109.83,109.83,0,0,0,193,583.81c-5.14,1-10.49,1.46-15.47,3.57-1.76.75-4,.6-6,1.07-4.72,1.09-9.52,1.88-14.27,2.94-2.73.61-5.53,1.17-8.3,1.74s-5.64.82-8.41,1.46c-3.54.81-7.19,1.27-10.62,2.18s-7,1-10.4,2.6c-1.69.79-4,.65-6,1.08-4.75,1-9.51,2-14.27,2.94-2.79.56-5.45,1.3-8.16,2.08s-5.5.36-8,1.18c-3.36,1.09-6.84,1.09-10.21,1.89a93.73,93.73,0,0,1-9.65,2.18c-1.83.25-4.11.16-5.5,1-1.82,1.12-3.83,0-5.09,1-1.91,1.46-3.93.2-5.67.89-5,2-10.47,1.62-15.41,3.84-1.6.71-3.67.34-5.57,1-2.36.81-5.34.16-7.46,1.28-2.4,1.26-4.93.73-7.35,1.58a75.6,75.6,0,0,1-8.23,1.87c-2.78.62-5.66.77-8.43,1.42-3.53.84-7.2,1.24-10.62,2.18s-7.24.62-10.32,2.78c-4.2-.23-8.13,1.29-12.15,2.08-5.52,1.08-11.11,1.86-16.51,3.56-2.08.65-4.34.53-6.46,1.31a30.33,30.33,0,0,1-5.17.92V492.67C-64,492-61,491.2-58,490.57c5.82-1.21,11.74-1.88,17.41-3.83,1.91-.66,4-.11,6.07-1.08,1.78-.85,4-.76,6-1.11,1.86-.32,3.72-.73,5.59-1,2-.27,4.1-.77,6-1.22,3.19-.74,6.38-1.45,9.61-2.08,3.08-.62,6.28-1,9.23-1.88,5.25-1.53,10.88-1.41,15.89-3.84,4.35.18,8.47-1.35,12.64-2.16,5.65-1.11,11.44-1.61,17-3.58A22.45,22.45,0,0,1,54,467.64a50,50,0,0,0,7.53-1.35c2.53-.5,5.19-.94,7.74-1.67,2.39-.68,4.83-1.1,7.23-1.87s5.36-.69,8-1.24,5.29-.66,7.8-1.68c1.9-.77,4-.53,6-1.08,4.35-1.2,8.87-1.69,13.27-3,2-.6,4.35-.73,6.52-1.18,5.22-1.09,10.54-1.85,15.63-3.37,2.26-.67,4.63-.44,6.85-1.53,1.77-.87,4-.76,6-1.11,1.87-.32,3.73-.66,5.59-1,2-.37,3.92-1.11,6.09-1.13,1.73,0,3.44-1.6,5.2-1.69,2.27-.13,4.37-.82,6.56-1.16,6.09-.93,12.21-1.94,18.21-3.22s12.3-2.4,18.35-3.91c5.29-1.32,10.79-1.68,15.93-3.75,2.3-.91,5-.87,7.53-1.12,2.84-.27,5.51-1.4,8.27-1.7,4-.42,7.72-1.61,11.55-2.42,5.5-1.15,11.17-1.57,16.46-3.66,1.9-.75,4-.12,6.06-1.1s5.15-.1,6.89-1.32c2.09-1.47,4.76.43,6.3-1.82,4.37.26,8.39-1.65,12.66-2.06,3.43-.34,7.11-.65,10.08-2.14,2.29-1.15,5,.34,6.77-1.8,4.67.1,9.07-1.61,13.64-2.24,3.56-.49,7.39-.87,10.86-2.62,1.53-.78,3.66-.35,5.56-1,2.36-.83,5.33-.18,7.46-1.28,2.4-1.24,5.24.17,7.26-1.84,6.07-.06,11.68-2.63,17.74-3.17,4.93-.44,9.85-1.88,14.73-3,1.54-.35,3.14-.43,4.6-.92a23.75,23.75,0,0,1,4.1-1,62.75,62.75,0,0,0,10.59-2.17c2.57-.85,5.21-1,7.77-1.73,3.92-1.07,8-1.56,11.86-2.78,2-.63,4,0,6.05-1.13,1.67-.95,4-.8,6-1.12,2.2-.35,4.74-.1,6.49-1.16,1.9-1.14,4.32.07,5.77-1.85,4.37.26,8.48-1.29,12.64-2.13,5.8-1.18,11.88-1.29,17.37-3.87,4.2.19,8.13-1.29,12.16-2.08,5.51-1.08,11.11-1.83,16.5-3.56,2.07-.67,4.32-.65,6.46-1.29,1.63-.48,3.41.16,5.14-1,1.2-.79,3,.31,4.63-.9,1.31-1,3.27-.2,5.09-.91a23.44,23.44,0,0,1,6.47-1.25c4-.3,7.57-2.42,11.61-2.17,1.66-2,4.25-.25,6.34-1.72,1.63-1.14,4.39-.51,6.45-1.23,3.56-1.25,7.34-1.42,10.88-2.69,1.92-.7,4,0,6-1.11,1.7-.94,4-.8,6-1.12,2.2-.35,4.67-.16,6.51-1.15s4.27,0,5.75-1.86c4.37.26,8.38-1.64,12.66-2.1a64.16,64.16,0,0,0,10.89-2.62c2-.58,4.26.45,6-1.28,6-.31,11.72-2.7,17.76-3,3.33-1.91,7.26-1.57,10.82-2.81,2.1-.73,4.68-.54,7-1.13s5.12-.06,7-1.23c2.24-1.41,5,.32,6.78-1.82,4.27.58,8-1.75,12.15-2.18a42.92,42.92,0,0,0,8.69-1.85c2.68-.85,5.67-.4,8.17-2,4.27.6,8-1.85,12.17-2.13,2.89-.19,5.68-1.54,8.66-2,2.73-.41,5.69-.28,8.19-1.88,4.26.59,8-1.76,12.16-2.14a60.81,60.81,0,0,0,10.62-2.08c3.42-.94,7.24-.62,10.32-2.78,4.19.18,8.13-1.28,12.15-2.09,5.51-1.1,11.13-1.7,16.49-3.59a30.49,30.49,0,0,1,5.57-.87Z" transform="translate(231.95 -148.27)"/><path class="cls-1" d="M803.44,310.44c-3.67.66-7.8,1.06-11.68,2.27-1.58.49-3.14.46-4.6.93s-2.74.65-4.1,1c-4.09,1-8.26,1.86-12.38,2.55s-8,1.7-12,2.54c-5.79,1.22-11.72,1.89-17.41,3.74-2.53.82-5.36.71-8,1.1-1.71.25-3.65.23-5,1.08-2.3,1.4-4.91.66-7.3,1.76-2.21,1-5.12.43-7.48,1.24-3.11,1.05-6.54.79-9.46,2.5-1.8,1.06-4.25-.38-5.92,1.4-6.06.15-11.72,2.65-17.75,3.07a14,14,0,0,0-5.3,1.63c-1.67.86-3.5-.44-5.14.93-1.46,1.23-3.57.21-5.51,1.18-2.28,1.15-5.31.75-8,1.22-3.7.65-7.54,1.07-11,2.42-2.12.83-4.66-.51-6.35,1.55-6.05.22-11.89,1.94-17.7,3.23-5.29,1.17-10.66,2.35-15.95,3.54-4.1.93-8.39,1.67-12.59,2.39a70.42,70.42,0,0,0-10.9,2.58c-1.94.66-4,0-6,1.14-1.68.95-4,.8-6,1.12-2.19.35-4.65.17-6.51,1.14s-4.25.07-5.74,1.86c-4-.13-7.8,1.26-11.67,2-5.36,1.08-10.9,1.44-16,3.69-1.77.78-3.62.07-5.57,1.09-2.25,1.17-5.3.75-8,1.22-3.71.65-7.55,1.05-11,2.41-2.13.84-4.67-.51-6.35,1.56-4.67-.1-9.14,1.43-13.63,2.24-5.3,1-10.9,1.27-15.89,3.76-4.19-.18-8.13,1.3-12.15,2.09-5.51,1.08-11.15,1.7-16.48,3.63-1.93.7-4.25-.42-6,1.28-6,.28-11.87,2-17.7,3.25-5.29,1.13-10.66,2.33-15.95,3.53a98.71,98.71,0,0,1-12.61,2.31,36.07,36.07,0,0,0-9.06,2.22c-2.27.84-4.94-.3-6.79,1.69-2.66-.69-5.08.67-7.56,1.13-2.23.42-4.76.25-6.7,1.87-4.2-.19-8.15,1.22-12.15,2.1-4.58,1-9.44.73-13.78,2.89-4.26-.56-8,1.77-12.15,2.18a45.88,45.88,0,0,0-8.68,1.85c-2.69.82-5.67.42-8.18,2-4.27-.59-8,1.74-12.15,2.17a43.61,43.61,0,0,0-8.69,1.85c-2.68.86-5.67.4-8.17,2-4.27-.6-8,1.73-12.16,2.18a41.48,41.48,0,0,0-8.68,1.84c-2.68.89-5.68.39-8.18,2-5.66-.31-10.77,2.29-16.22,3.21-5.64,1-11.57,1.17-16.88,3.79-4.37-.26-8.47,1.32-12.64,2.15-7.5,1.48-15.25,2-22.46,4.85-4.36-.2-8.5,1.25-12.63,2.17-5.32,1.18-10.86,1.46-16,3.6-1.87.78-4,.5-6,1a73.27,73.27,0,0,1-8.77,1.8,48.17,48.17,0,0,0-8.87,1.6c-5.23,1.75-10.67,2.35-16,3.58a115.73,115.73,0,0,1-12.6,2.35c-3,.35-5.91,1.87-9.11,2.14-2.28.19-4.52,1.67-6.75,1.59-2.68-.09-5,1-7.57,1.27-2.24.24-4.58,1.44-6.71,1.67-4.29.47-8.45,1.51-12.62,2.34-7.5,1.49-15.24,2.05-22.46,4.86-4.35-.17-8.5,1.28-12.63,2.18-5.31,1.15-10.83,1.54-16,3.62-1.86.75-4,.11-6.06,1.09-1.78.86-4,.77-6,1.12-1.87.31-3.72.73-5.59,1-2,.27-4.1.77-6,1.22-3.19.74-6.38,1.45-9.61,2.09s-6.28,1-9.23,1.88c-5.25,1.53-10.79,1.63-15.93,3.73-2.28.94-5,.7-7.54,1.13a21.27,21.27,0,0,0-3.09,1L-225.23,330.77l58.32-12.11c-1.47,3.43-1,6.95-1,10.44s0,7,0,10.5v11a12.53,12.53,0,0,0,2.13,6.62c1.8,2.94,3.83,5.78,6.94,7.24,2.79,1.32,4.79,4.27,8.3,4.09,4.15,3.09,9.47,2.8,14,4.85a1.69,1.69,0,0,0,.43.15c3.44.66,21.39,1.84,24,.87,2.42-.88,4.92-.25,7.09-1s4.56-.9,6.74-1.81,4.45-1.29,6.64-2.06a35.34,35.34,0,0,0,16.27-11.25,12,12,0,0,0,2.44-7.45c0-9.17,0-18.34,0-27.5,0-2.76-1.29-5-2.83-7.35a22.83,22.83,0,0,0-7.5-7.27,38.18,38.18,0,0,0-8.76-4.2c-.45-.14-.76-.75-1.23-1.25l71.9-14.3c-.18,2.7-.5,5.53-.53,8.37-.08,7.33.1,14.67-.08,22a15.58,15.58,0,0,0,4.19,10.76,28.72,28.72,0,0,0,7.09,5.64,52.13,52.13,0,0,0,11,4.83,95.93,95.93,0,0,0,13.73,3.18c5.26.94,10.42.6,15.62.78a55.49,55.49,0,0,0,15.63-2.16c4.56-1.18,9.37-2,13.5-4.78,3.16-2.1,6.56-3.73,9.33-6.5a15.91,15.91,0,0,0,4.94-12c-.06-8.17-.15-16.34,0-24.5.09-4.1-1.61-7.38-4-10.37-3-3.85-7.78-6.71-13.37-8.7A17.91,17.91,0,0,1,53,273.94l.11-.9c24-4.33,47.87-9.58,71.58-14.07a61.23,61.23,0,0,0-.65,6.11c-.07,8,.13,16-.1,24a15.13,15.13,0,0,0,3.35,10.11c3.52,4.42,8.31,7.17,13.52,9.47,4.73,2.1,9.79,2.9,14.55,4.72a5.55,5.55,0,0,0,1.43.17c6.67.76,13.36,1.47,20.08,1a79.91,79.91,0,0,0,25.17-5.6,36.39,36.39,0,0,0,13.26-9.08,13.58,13.58,0,0,0,3.65-9c.17-9.16,0-18.33.09-27.5,0-3.37-1.6-6.11-3.44-8.55a22.73,22.73,0,0,0-7.32-6.31,60.84,60.84,0,0,0-8.36-4c-.46-.16-.77-.74-1.38-1.36,24.46-4.46,48.3-9.64,72-14.16-.17,2.66-.49,5.49-.52,8.32-.08,7.33.13,14.67-.09,22a15.16,15.16,0,0,0,3.84,10.41c3.52,4.2,8.25,6.65,13.23,9,4.72,2.22,9.89,2.6,14.51,4.81.14.07.33,0,.5,0,3.86.34,7.72.8,11.59,1s7.73.47,11.48-.09c4.06-.59,8.28-.7,12.15-2s7.8-1.86,11.41-3.83c4-2.2,8-4.26,11.4-7.52a15.66,15.66,0,0,0,5-12c-.06-8.16-.15-16.33,0-24.5.09-4.1-1.62-7.38-3.95-10.37-3-3.85-7.82-6.74-13.36-8.71A17.24,17.24,0,0,1,345,214l.09-.91c24.05-4.32,47.88-9.6,71.59-14.06-.22,2-.62,4.06-.64,6.08-.07,8,.14,16-.1,24a15.08,15.08,0,0,0,3.34,10.12c3.52,4.41,8.31,7.17,13.51,9.48,4.73,2.1,9.79,2.91,14.56,4.71a5.94,5.94,0,0,0,1.42.18c5.85.58,11.69,1.49,17.58,1,2.38-.21,4.74.6,7.18-.79,1.86-1.06,4.39.22,6.68-.74,2.13-.89,4.61-.89,6.9-1.47a29.92,29.92,0,0,0,6.15-2c5.7-2.89,11.42-5.94,15.31-11.18a12.62,12.62,0,0,0,2.45-7.46q0-13.76,0-27.5c0-3.53-1.7-6.38-3.74-8.93a22.87,22.87,0,0,0-7-5.95,59.28,59.28,0,0,0-8.37-4c-.46-.16-.78-.72-1.4-1.33,24.46-4.52,48.31-9.64,72.67-14.33-1.63,2.87-1.17,5.93-1.18,8.94,0,7.17.16,14.34-.07,21.5a15.08,15.08,0,0,0,3.83,10.42c3.52,4.2,8.25,6.65,13.22,9,4.72,2.24,9.9,2.61,14.52,4.82.13.07.33,0,.49,0,3.86.34,7.72.8,11.59,1s7.74.51,11.48-.1c4.2-.68,8.51-.87,12.61-2.08a73.6,73.6,0,0,0,11.37-3.89,39.07,39.07,0,0,0,11-7.33,16,16,0,0,0,5-12c-.06-8.17-.15-16.34,0-24.5.1-4.1-1.6-7.38-3.93-10.38-3-3.82-7.91-6.79-13.35-8.72A17.81,17.81,0,0,1,637,154c0-.35.06-.67.09-1l7.55-1.28ZM738.05,268c0-4.49-.12-9,.05-13.48a10.32,10.32,0,0,0-1.57-5.84,26.9,26.9,0,0,0-9.44-9.31c-3.54-2-7.37-3.2-10.88-5.15a10.73,10.73,0,0,0-2.21-.69,26.8,26.8,0,0,0-3.59-1c-1.3-.19-2.79.28-3.92-.2-3-1.27-6.17-1.4-9.24-1.72a75.75,75.75,0,0,0-13.47,0,115.78,115.78,0,0,0-12.65,2c-1.81.34-3.51,1.2-5.3,1.66A43.41,43.41,0,0,0,652,240.62c-5.36,3.64-9.21,8.34-9,15.48.22,8,.2,16,0,24-.11,4.64,1.74,8.29,4.67,11.57,4.55,5.1,10.63,7.7,16.88,9.85,2.78.95,5.94,1.26,8.55,2.3,3.11,1.23,6.53-.44,9.25,1.76,5.5,0,11.09.65,16.45-.2a134.34,134.34,0,0,0,13.82-2.62c5.87-1.57,16.14-6.32,20.25-10.35a16.39,16.39,0,0,0,5.21-12.87C738,275.68,738.05,271.85,738.05,268Zm-438,90.28c0-4-.17-8,0-12,.27-5-1.84-8.93-5.16-12.36-4.22-4.36-13.29-8.85-19.62-10.52-2.24-.59-4.73-.13-6.52-1.06-2.16-1.11-4.51.08-6.08-.95-2.12-1.4-4.16-.86-6.17-.8-5,.15-10-.48-15.11.76-3.47.85-7.09,1.33-10.62,2.14-8.11,1.87-15.4,5.15-21.39,11.11a14.41,14.41,0,0,0-4.36,10.69c0,8.16.15,16.32-.07,24.47-.13,4.82,1.73,8.63,4.83,12,4.6,5,10.67,7.57,16.93,9.74,1.48.52,3.08.79,4.52,1.21s3,.26,4.06.92a6.58,6.58,0,0,0,4.65.82c1.74-.22,3,1,4.58,1.05,3.17,0,6.34.13,9.49,0s6.21.82,9.08-1c4.08.48,7.8-1.1,11.66-2a42.26,42.26,0,0,0,20.54-10.74,15.08,15.08,0,0,0,4.73-11.55C300,366.29,300.05,362.29,300.05,358.3ZM8.05,418c0-4.5-.11-9,0-13.48a10.2,10.2,0,0,0-1.56-5.85,27.1,27.1,0,0,0-9.44-9.32c-3.54-2-7.36-3.21-10.88-5.14a11.18,11.18,0,0,0-2.21-.7,26.66,26.66,0,0,0-3.58-1c-1.3-.18-3.05.42-3.87-.23-1.42-1.15-2.82-.55-4.2-.82-1.53-.29-3.08-1-4.58-.92-6,.37-12.12-1.14-18.08.89-1.61.55-3.37-.28-5.18.85-1.45.91-3.82-.27-5.46,1.19-4.42-.05-8,2.4-11.79,4.1a30.51,30.51,0,0,0-10.41,7.5,13.62,13.62,0,0,0-3.75,8.93c-.18,9.32,0,18.65-.09,28a11.42,11.42,0,0,0,1.52,5.37c3,5.74,8.5,8.83,13.86,12,2.36-.2,4.07,1.48,6.06,2.26s4.48.21,6.21,1.89c5.24.5,10.34,2.05,15.65,2,3.5,0,7,0,10.49,0a6.84,6.84,0,0,0,2.48,0c4.25-1.76,8.9-1.56,13.31-2.77,5.83-1.61,16.28-6.27,20.6-10.7a16,16,0,0,0,4.86-12C8,426,8.05,422,8.05,418Zm584-119.81c0-4.66.12-9.33-.06-14a10.88,10.88,0,0,0-1.3-5.41,27.6,27.6,0,0,0-9.43-9.39c-3.53-2-7.24-3.43-10.9-5.08a18.58,18.58,0,0,0-2.15-.81c-2.47-.76-5.3-.43-7.49-1.25s-4.52.17-6.08-.89c-2.27-1.54-4.47-.64-6.67-.81-3-.23-6-.06-9-.06-1.16,0-2.77-.44-3.39.14-1.36,1.29-2.81.61-4.19.87s-3.06.65-4.58,1c-2.28.52-4.57,1-6.84,1.58a43.12,43.12,0,0,0-14.22,6.55c-5.19,3.68-9.14,8.46-8.8,15.71.36,7.81.24,15.65,0,23.47-.13,4.82,1.79,8.59,4.86,12,4.47,5,10.41,7.57,16.49,9.6,4.73,1.59,9.55,3.32,14.71,3.11.5,0,1.15-.21,1.47,0,2.87,2.15,6.08.63,9.11.91s6.46.66,9.45-.08c4.57-1.11,9.25-1.43,13.81-2.74,7.66-2.21,14.67-5.27,20.49-10.89a14.69,14.69,0,0,0,4.67-11.06ZM59.05,388c0,4.66-.12,9.33.06,14a12.75,12.75,0,0,0,1.33,5.42c3.1,5.68,8.28,9.35,14,11.79,3.46,1.49,6.92,3.82,11.07,3.41,1.19,2,3.55.56,5.3,1.82,1.46,1,4.24,0,6.14.71s3.88.37,5.8.44a89,89,0,0,0,25.75-2.85c8.45-2.2,15.94-5.66,22-12a12.61,12.61,0,0,0,3.48-8.52c.25-9.31.16-18.64,0-28a10.39,10.39,0,0,0-1.35-5.39,28.27,28.27,0,0,0-9.44-9.36c-3.53-2-7.33-3.27-10.9-5.09a20,20,0,0,0-2.17-.78,17.92,17.92,0,0,0-7.58-1c-1.21-1.75-3-.71-4.58-1a36,36,0,0,0-5.08-1,94.5,94.5,0,0,0-28.25,2.84,68.88,68.88,0,0,0-10.85,4,31.25,31.25,0,0,0-10.15,6.93,15.57,15.57,0,0,0-4.59,11.12C59,379.63,59.05,383.79,59.05,388Zm387-59.66c0-4-.17-8,0-12,.27-5-1.84-8.93-5.16-12.36-4.22-4.35-13.3-8.85-19.63-10.52-2.24-.6-4.73-.13-6.51-1.06-2.17-1.12-4.52.08-6.08-.95-2.13-1.4-4.16-.86-6.17-.8-5,.15-10-.48-15.11.76-3.47.85-7.09,1.33-10.63,2.14-8.11,1.86-15.4,5.14-21.38,11.12a14.48,14.48,0,0,0-4.37,10.69c0,8.15.16,16.31-.06,24.47-.13,4.82,1.74,8.62,4.83,12,4.6,5,10.67,7.57,16.93,9.74,1.48.52,3.08.78,4.52,1.21s3,.26,4.06.92a6.53,6.53,0,0,0,4.65.82c1.74-.22,3,1,4.59,1.05,3.16,0,6.33.13,9.49,0s6.21.82,9.07-1c4.08.48,7.81-1.1,11.66-2a42.38,42.38,0,0,0,20.54-10.74,15.06,15.06,0,0,0,4.73-11.55C446,336.28,446.05,332.29,446.05,328.29Z" transform="translate(231.95 -148.27)"/><path class="cls-1" d="M-70,493.33V633.62L-228.87,474.78V334.49Q-150.09,413.29-70,493.33Z" transform="translate(231.95 -148.27)"/><path class="cls-1" d="M566.21,168.78c3.27-2.74,5.6-5.92,9-8,3.89-2.4,8.15-3.72,12.38-5.1,2.19-.72,4.53-1,6.72-1.87s4.31.09,6.59-1c1.87-.92,4.56-.19,6.89-.19,3,0,6-.32,9,.07,6.5.85,13,1.92,19.16,4.33a52.16,52.16,0,0,1,10.75,5.49,14.84,14.84,0,0,1,6.36,8.4c1.16,4,.41,8.47-2.11,11.3-3.57,4-8.26,6.26-13,8.38-2,.87-4.13,1.27-6.14,2.06s-4.36.53-6.21,1.89c-.22.16-.64.05-1,.08-3.69.34-7.38.8-11.07,1s-7.43.58-11-.1c-4.76-.92-9.64-.89-14.33-2.71-4.3-1.67-8.74-2.91-12.89-5.08-3.82-2-7.12-4.46-8.87-8.28-1.1-2.39-2.74-5.16-.75-8.09A6.68,6.68,0,0,0,566.21,168.78Z" transform="translate(231.95 -148.27)"/><path class="cls-1" d="M420.05,198.87c3.31-2.53,5.53-5.79,9-8,3.88-2.45,8.16-3.69,12.31-5.31,2.16-.84,4.61-.92,6.8-1.7s4.9.48,6.92-1.36h17c2,1.55,4.39.67,6.57,1.06a56.42,56.42,0,0,1,6.67,1.95c2.06.64,4.17,1.19,6.16,2,5.48,2.28,11.13,4.27,14.27,10,1.46,2.68,2.74,4.86,2.3,7-.56,2.72-1.14,5.5-3.16,7.67-3.64,3.91-8.29,6.17-13.07,8.28-3.84,1.69-8,2.32-11.94,3.71a3.23,3.23,0,0,1-.89.26c-3.69.35-7.37.81-11.07,1s-7.76.57-11.46-.1c-4.76-.87-9.64-1-14.32-2.75-4.31-1.64-8.85-2.69-12.86-5.12-3-1.8-5.71-3.61-7.69-6.8-2.18-3.51-3.26-6.71-1.5-10.58C420.16,199.9,420.05,199.51,420.05,198.87Z" transform="translate(231.95 -148.27)"/><path class="cls-1" d="M274.2,228.82c3.06-2.52,5.45-5.87,9-8.08,3.89-2.39,8.14-3.73,12.37-5.1,2.19-.71,4.54-1,6.73-1.87s4.31.1,6.58-1c1.87-.92,4.57-.19,6.9-.19,3,0,6-.32,9,.07,6.51.85,13,1.91,19.16,4.33a51.87,51.87,0,0,1,10.75,5.48,14.88,14.88,0,0,1,6.37,8.4c1.16,4,.41,8.48-2.11,11.31-3.56,4-8.27,6.25-13,8.38-2,.88-4.14,1.27-6.14,2.06s-4.36.54-6.22,1.89c-.22.16-.63.05-1,.08-3.7.34-7.38.8-11.08,1s-7.42.57-11-.1c-4.76-.89-9.63-.93-14.32-2.72-4.32-1.64-8.74-2.9-12.9-5.07-3.8-2-7.12-4.45-8.87-8.28-1.09-2.39-2.74-5.15-.75-8.08A6.68,6.68,0,0,0,274.2,228.82Z" transform="translate(231.95 -148.27)"/><path class="cls-1" d="M-163.95,319c3.07-2.48,5.41-5.82,9-8.09,3.87-2.46,8.16-3.69,12.31-5.31,2.15-.85,4.61-.91,6.79-1.69s4.91.47,6.93-1.37h17c2,1.54,4.39.67,6.57,1.06a57.55,57.55,0,0,1,6.67,1.95c2.06.64,4.17,1.19,6.15,2,5.49,2.28,11.15,4.27,14.28,10,1.43,2.63,2.74,4.91,2.3,7-.57,2.71-1.14,5.5-3.16,7.67-3.64,3.91-8.28,6.18-13.06,8.28-3.85,1.69-8,2.32-12,3.71a3.49,3.49,0,0,1-.89.26c-3.69.35-7.37.81-11.07,1s-7.75.57-11.46-.1c-4.76-.87-9.64-1-14.31-2.75-4.32-1.64-8.86-2.69-12.87-5.12-3-1.8-5.7-3.61-7.68-6.8-2.19-3.51-3.26-6.71-1.51-10.57A3.36,3.36,0,0,0-163.95,319Z" transform="translate(231.95 -148.27)"/><path class="cls-1" d="M128.05,258.94c3.18-2.56,5.56-5.91,9.13-8.15,4-2.53,8.45-3.76,12.83-5.22,2.06-.68,4.23-1,6.26-1.79s4.35.27,6.58-1.06c1.47-.88,3.89-.17,5.89-.17,3.33,0,6.71-.34,10,.08a84.39,84.39,0,0,1,19.19,4.26,50.83,50.83,0,0,1,11.15,5.65c3,2.06,4.69,4.83,6.1,8.18,2,4.73,0,8.29-2.55,11.67-2.44,3.2-6,5.11-9.66,6.72a73.54,73.54,0,0,1-19.69,5.64,88.16,88.16,0,0,1-16.6.71,67,67,0,0,1-29.2-7.82c-3.77-2.05-7.13-4.42-8.88-8.23-1.17-2.53-3-5.45-.57-8.47C128.33,260.54,128.05,259.66,128.05,258.94Z" transform="translate(231.95 -148.27)"/><path class="cls-1" d="M-17.95,289c3-2.45,5.4-5.78,8.93-8.07,3.86-2.51,8.18-3.63,12.3-5.32,2.14-.88,4.64-.86,6.8-1.69s4.62-.34,7-1.15c2.83-1,6.26-.45,9.4-.16s6.26-1.25,9.1.91c.21.16.65.05,1,0C42,273,46.75,275.4,51.7,276.81a42.11,42.11,0,0,1,11.59,5.75,16.19,16.19,0,0,1,6.6,9.58c.92,3.57-.64,7.18-3.06,10.11-3.32,4-8.19,5.78-12.53,8.3-2.54-.41-4.18,1.87-6.64,2.19-2,.26-4.43.21-6.2,1.8-.09.08-.32,0-.49,0-3.85.34-7.71.8-11.57,1s-7.76.58-11.46-.11c-4.31-.8-8.78-.79-13-2.39s-8.37-2.3-12.11-4.51c-3.48-2.05-7-3.88-9.32-7.72-2.13-3.55-3.28-6.7-1.52-10.57A3.56,3.56,0,0,0-17.95,289Z" transform="translate(231.95 -148.27)"/><path class="cls-1" d="M70.05,302.86c0,6.92.4,13.06-.14,19.11-.36,4.06-3.3,7.13-6.58,9.58a47.18,47.18,0,0,1-13.7,6.63,72.78,72.78,0,0,1-12,2.57,85.18,85.18,0,0,1-17.08.72,67.81,67.81,0,0,1-29.16-7.84,21.19,21.19,0,0,1-8.94-8.23,10,10,0,0,1-1.36-4.4c-.15-5.77-.06-11.54-.06-18.59,2.94,4.91,7,6.8,10.56,9,3.36,2,7.39,3.07,11.24,4.11s7.87,2.64,12.13,2.06c5.74,2.17,11.71.83,17.55.87,4,0,8.14-1,12.13-1.92,3.77-.84,7.67-1.63,11.09-3.31C60.78,310.7,65.91,308.12,70.05,302.86Z" transform="translate(231.95 -148.27)"/><path class="cls-1" d="M654.05,182.69c0,6.18-.15,11.16,0,16.12.22,5.77-2.69,9.53-7,12.79a46,46,0,0,1-13.28,6.48,68.66,68.66,0,0,1-11.95,2.65,95.7,95.7,0,0,1-15.57.78,75.68,75.68,0,0,1-12-1,82.36,82.36,0,0,1-11.07-3.35A48.4,48.4,0,0,1,572.77,212c-5.4-3.44-7.81-8-7.73-14.26.06-4.62,0-9.25,0-14.78a34,34,0,0,0,9.25,7.51,63.48,63.48,0,0,0,12.37,5.07c2.35.75,4.78,1.28,7.17,2s4.8-.47,7.09,1c.7.46,2,.07,2.94.07,3.5,0,7,.13,10.48,0a50.19,50.19,0,0,0,10-1.06c6.1-1.59,12.43-2.54,18.06-5.76C646.49,189.4,650.61,187.3,654.05,182.69Z" transform="translate(231.95 -148.27)"/><path class="cls-1" d="M419.05,213.66c2.92,3.71,7,5.54,10.58,7.73,3.34,2.05,7.39,3.07,11.24,4.1s7.88,2.65,12.13,2.06c2.7,1.71,5.7.86,8.57,1a64.07,64.07,0,0,0,9,0,104.1,104.1,0,0,0,12.14-2c3.76-.85,7.66-1.64,11.07-3.33,5-2.5,10.15-5.06,14.29-10.3,0,6.93.42,13.07-.15,19.13-.38,4-3.28,7.12-6.59,9.56a48.21,48.21,0,0,1-13.7,6.63,67.31,67.31,0,0,1-12,2.56,107.11,107.11,0,0,1-15.58.75c-2.06,0-4.1.38-6.25-.53-1.69-.71-3.9-.1-5.8-.48a51.89,51.89,0,0,1-5.67-1.93c-1.76-.57-3.55-1.08-5.34-1.57a34.38,34.38,0,0,1-11.17-5.5c-4.11-3-6.77-7.11-6.76-12.5C419.06,223.88,419.05,218.77,419.05,213.66Z" transform="translate(231.95 -148.27)"/><path class="cls-1" d="M361.91,243.16v20.13a50.1,50.1,0,0,1-3.47,5.31c-3.21,3.87-8,5.52-12.15,7.95-2.55-.41-4.17,1.88-6.64,2.2-2,.25-4.43.18-6.19,1.79-.09.08-.32,0-.49,0-3.85.34-7.7.8-11.56,1s-7.75.57-11.45-.11c-4.31-.8-8.78-.76-12.95-2.38-4-1.56-8.33-2.35-12.11-4.5s-7.44-4-9.6-8.1c-1.14-2.13-2.27-4.09-2.26-6.56,0-5.31,0-10.62,0-16.1,1.27-.1,1.63,1,2.2,1.53,5.67,5.55,12.79,8.09,20.19,10.36a94.88,94.88,0,0,0,13.79,2.7,58.08,58.08,0,0,0,16.91,0c4.57-.69,9.29-1.12,13.78-2.73s9.06-2.82,13.25-5.44A45.23,45.23,0,0,0,361.91,243.16Z" transform="translate(231.95 -148.27)"/><path class="cls-1" d="M-164.95,333.89c3,3.52,7,5.68,10.78,7.46A68.09,68.09,0,0,0-142,345.8c4.75,1.2,9.56,1.87,14.32,2.6a56.2,56.2,0,0,0,14.43.05,89.3,89.3,0,0,0,20.16-4.27c6.31-2.25,12-5.48,16.59-10.55a1.08,1.08,0,0,1,.34.21.7.7,0,0,1,.22.4c0,6.15,0,12.31,0,18.92A47.17,47.17,0,0,1-80,359c-3.34,3.68-7.88,5.55-12.3,7.58-3.83,1.75-8,2.31-11.93,3.74a4,4,0,0,1-.89.24c-3.86.34-7.7.8-11.57,1s-7.72.52-11.45-.07c-6.44-1-12.94-1.88-19.07-4.51a67.76,67.76,0,0,1-10.33-5.25,14.23,14.23,0,0,1-6.57-8.76,12.51,12.51,0,0,1-.82-2.64C-165,344.82-164.95,339.36-164.95,333.89Z" transform="translate(231.95 -148.27)"/><path class="cls-1" d="M216.05,272.42c0,7.49.44,13.8-.17,20-.35,3.63-3.15,6.59-6.12,8.88-4,3.07-14.29,7.18-19.51,8.3a105.19,105.19,0,0,1-12.67,1.87,78.46,78.46,0,0,1-13.45,0c-2.34-.2-4.69-.72-7.07-1a20.24,20.24,0,0,1-6.71-1.8c-2-1-4.45-1.28-6.6-2.11s-4.13-2.09-6.27-2.94a18,18,0,0,1-9-8.15,9.89,9.89,0,0,1-1.39-4.38c-.15-5.78-.06-11.56-.06-18.35,3,4.33,6.61,6.36,10.15,8.34a43.08,43.08,0,0,0,11.6,4.48c4,.89,7.88,2.61,12.13,2,6.09,2.18,12.38.46,18.55,1,2.4-1.3,5.12-.52,7.54-1.13s4.81-1.19,7.19-1.87,5-.94,7.11-2.08c4.11-2.22,8.52-4.08,11.85-7.55C213.94,275.11,214.6,274.19,216.05,272.42Z" transform="translate(231.95 -148.27)"/><path d="M738.05,268c0,3.83-.09,7.66,0,11.49a16.39,16.39,0,0,1-5.21,12.87c-4.11,4-14.38,8.78-20.25,10.35a134.34,134.34,0,0,1-13.82,2.62c-5.36.85-10.95.2-16.45.2-2.72-2.2-6.14-.53-9.25-1.76-2.61-1-5.77-1.35-8.55-2.3-6.25-2.15-12.33-4.75-16.88-9.85-2.93-3.28-4.78-6.93-4.67-11.57.21-8,.23-16,0-24-.2-7.14,3.65-11.84,9-15.48a43.41,43.41,0,0,1,13.82-6.37c1.79-.46,3.49-1.32,5.3-1.66a115.78,115.78,0,0,1,12.65-2,75.75,75.75,0,0,1,13.47,0c3.07.32,6.26.45,9.24,1.72,1.13.48,2.62,0,3.92.2a26.8,26.8,0,0,1,3.59,1,10.73,10.73,0,0,1,2.21.69c3.51,1.95,7.34,3.15,10.88,5.15a26.9,26.9,0,0,1,9.44,9.31,10.32,10.32,0,0,1,1.57,5.84C737.93,259,738.05,263.53,738.05,268Zm-91-18.11c0,.75.28,1.63,0,2-2.46,3-.58,5.94.57,8.47,1.74,3.83,5.12,6.18,8.89,8.22a66.68,66.68,0,0,0,29.2,7.83,88.09,88.09,0,0,0,16.59-.71A73.91,73.91,0,0,0,722,270.11c3.79-1.68,7.43-3.76,10-7.07,2.27-2.9,3.85-6.36,2.84-10.11a14.86,14.86,0,0,0-5.61-8.6c-3.43-2.35-6.9-4.68-11.06-5.85-3.89-1.09-7.5-3.17-11.71-3-1.47-1.72-3.6-.2-5.09-1-1.86-1-3.71-.89-5.62-.91-2.5,0-5,0-7.49,0-2.16,0-4.74-.73-6.39.18-2.26,1.25-4.47.28-6.58,1.06s-4.2,1.09-6.26,1.78c-4.38,1.47-8.82,2.68-12.84,5.22C652.77,244,650.43,247.11,647.05,249.91Zm-1,14.75c0,5.11,0,10.21,0,15.32,0,5.4,2.65,9.49,6.76,12.5A33.81,33.81,0,0,0,664,298q2.68.72,5.33,1.57a52.05,52.05,0,0,0,5.68,1.93c1.9.38,4.11-.24,5.8.48,2.15.91,4.19.52,6.25.53a107.18,107.18,0,0,0,15.58-.75,69.51,69.51,0,0,0,12-2.55,48.77,48.77,0,0,0,13.7-6.64c3.31-2.44,6.21-5.54,6.59-9.56.58-6.05.15-12.2.15-19.13-4.14,5.24-9.26,7.81-14.28,10.3-3.41,1.68-7.32,2.48-11.08,3.33a103.42,103.42,0,0,1-12.14,2,63.92,63.92,0,0,1-9,0c-2.88-.12-5.88.73-8.57-1-4.26.59-8.18-1-12.13-2.06s-7.9-2.05-11.24-4.09C653.05,270.2,649,268.37,646.05,264.66Z" transform="translate(231.95 -148.27)"/><path d="M300.05,358.3c0,4,0,8,0,12a15.08,15.08,0,0,1-4.73,11.55,42.26,42.26,0,0,1-20.54,10.74c-3.86.88-7.58,2.46-11.66,2-2.87,1.79-6,.82-9.08,1s-6.32.06-9.49,0c-1.58,0-2.84-1.27-4.58-1.05a6.58,6.58,0,0,1-4.65-.82c-1-.66-2.68-.51-4.06-.92s-3-.69-4.52-1.21c-6.26-2.17-12.33-4.72-16.93-9.74-3.1-3.38-5-7.19-4.83-12,.22-8.15,0-16.31.07-24.47a14.41,14.41,0,0,1,4.36-10.69c6-6,13.28-9.24,21.39-11.11,3.53-.81,7.15-1.29,10.62-2.14,5.08-1.24,10.09-.61,15.11-.76,2-.06,4-.6,6.17.8,1.57,1,3.92-.16,6.08.95,1.79.93,4.28.47,6.52,1.06,6.33,1.67,15.4,6.16,19.62,10.52,3.32,3.43,5.43,7.34,5.16,12.36C299.88,350.3,300.05,354.3,300.05,358.3Zm-91-18.41c0,.77.19,1.38,0,1.75-2.12,3.58-.41,6.51,1.21,9.69,2,4,5.62,6,9.17,8,3.89,2.19,8.32,3.2,12.53,4.7,4.37,1.55,9,1.65,13.44,2.42,3.72.64,7.64.26,11.47.1s7.38-.63,11.07-1a3.56,3.56,0,0,0,.89-.24c3.93-1.41,8.1-2,11.94-3.73,4.77-2.12,9.44-4.35,13.07-8.26,2-2.17,2.64-4.94,3.18-7.66.42-2.12-.86-4.41-2.28-7-3.14-5.76-8.79-7.77-14.27-10.05-2-.83-4.43-.92-6.08-2.14-2.15-1.59-4.63-.31-6.86-1.68-1.71-1-4.47.35-6.46-1.21h-17c-2,1.83-4.66.56-6.93,1.35s-4.62.88-6.79,1.7c-4.17,1.59-8.42,2.88-12.31,5.31C214.59,334.05,212.36,337.32,209.05,339.89ZM297,354c-4,4.89-8.79,7.37-13.61,9.83a47.69,47.69,0,0,1-11,3.57,66.47,66.47,0,0,1-15.6,2.18c-3.49,0-7,0-10.48,0a7.9,7.9,0,0,1-2.48,0c-4.46-1.57-9.28-1.37-13.76-2.92a85.15,85.15,0,0,1-12.83-5.21,38.77,38.77,0,0,1-9.17-7.36c0,6.31-.16,11.78.08,17.24a14.5,14.5,0,0,0,2.08,6.11c2.12,3.91,5.66,5.93,9.2,7.93,3.89,2.2,8.31,3.19,12.52,4.69,4.37,1.55,9,1.65,13.43,2.42,3.72.64,7.64.26,11.45.1s7.38-.63,11.07-1a4.1,4.1,0,0,0,.9-.23c3.91-1.44,8.09-2,11.92-3.75,4.28-1.94,8.66-3.76,11.95-7.22a47.72,47.72,0,0,0,4.3-5.92Z" transform="translate(231.95 -148.27)"/><path d="M8.05,418c0,4,0,8,0,12A16,16,0,0,1,3.2,442c-4.32,4.43-14.77,9.09-20.6,10.7-4.41,1.21-9.06,1-13.31,2.77a6.84,6.84,0,0,1-2.48,0c-3.5,0-7,0-10.49,0-5.31,0-10.41-1.51-15.65-2-1.73-1.68-4.17-1.08-6.21-1.89s-3.7-2.46-6.06-2.26c-5.36-3.15-10.84-6.24-13.86-12A11.42,11.42,0,0,1-87,432.05c.07-9.32-.09-18.65.09-28a13.62,13.62,0,0,1,3.75-8.93,30.51,30.51,0,0,1,10.41-7.5c3.77-1.7,7.37-4.15,11.79-4.1,1.64-1.46,4-.28,5.46-1.19,1.81-1.13,3.57-.3,5.18-.85,6-2,12.06-.52,18.08-.89,1.5-.1,3,.63,4.58.92,1.38.27,2.78-.33,4.2.82.82.65,2.57.05,3.87.23a26.66,26.66,0,0,1,3.58,1,11.18,11.18,0,0,1,2.21.7c3.52,1.93,7.34,3.15,10.88,5.14a27.1,27.1,0,0,1,9.44,9.32,10.2,10.2,0,0,1,1.56,5.85C7.94,409,8.05,413.54,8.05,418Zm-91-18c0,.74.27,1.62,0,2-1.55,1.95-.84,3.69-.23,5.83,1.54,5.33,5.28,8.21,9.83,10.8,8.34,4.73,17.45,6.6,26.73,7.78a61.79,61.79,0,0,0,13,0,92.29,92.29,0,0,0,12.18-1.82,62,62,0,0,0,16.47-6.11c2.68-1.47,5.37-3.06,7.14-5.58,2.1-3,3.83-6.33,2.7-10.12a16.57,16.57,0,0,0-5.62-8.63c-5.75-4.4-12.56-6.63-19.39-8.59a67,67,0,0,0-10.67-1.89c-5.58-.66-11.3-.18-17-.18-2,1.81-4.66.56-6.94,1.32s-4.62.9-6.78,1.73c-4.15,1.61-8.46,2.78-12.32,5.27C-77.44,394.15-79.87,397.45-83,400ZM4.91,413.88c-4,5.35-9.08,7.84-14,10.22a53.59,53.59,0,0,1-11,3.4,89.53,89.53,0,0,1-12.14,2,89.58,89.58,0,0,1-11.47,0c-3.7-.17-7.38-.63-11.07-1-.16,0-.36.06-.49,0-4.61-2.22-9.87-2.32-14.47-4.86-3.76-2.07-9.07-4.58-11.54-7.05a5.78,5.78,0,0,0-1.07-1c-.44-.25-.53-1.34-1.51-.63,0,5.28,0,10.59,0,15.89,0,2.48,1.12,4.44,2.25,6.57,2.17,4.08,5.93,6,9.61,8.1S-64,448.47-60,450c4.17,1.62,8.65,1.58,13,2.38,3.7.68,7.63.27,11.45.11s7.7-.63,11.56-1c.16,0,.4.07.49,0,1.75-1.62,4.19-1.53,6.19-1.79,2.46-.33,4.09-2.61,6.63-2.2,4.2-2.43,8.94-4.08,12.16-7.95a49.74,49.74,0,0,0,3.47-5.32Z" transform="translate(231.95 -148.27)"/><path d="M592.05,298.23v12.49a14.69,14.69,0,0,1-4.67,11.06c-5.82,5.62-12.83,8.68-20.49,10.89-4.56,1.31-9.24,1.63-13.81,2.74-3,.74-6.31.36-9.45.08s-6.24,1.24-9.11-.91c-.32-.23-1-.05-1.47,0-5.16.21-10-1.52-14.71-3.11-6.08-2-12-4.64-16.49-9.6-3.07-3.4-5-7.17-4.86-12,.22-7.82.34-15.66,0-23.47-.34-7.25,3.61-12,8.8-15.71A43.12,43.12,0,0,1,520,264.13c2.27-.58,4.56-1.06,6.84-1.58,1.52-.34,3-.7,4.58-1s2.83.42,4.19-.87c.62-.58,2.23-.13,3.39-.14,3,0,6-.17,9,.06,2.2.17,4.4-.73,6.67.81,1.56,1.06,3.9.07,6.08.89s5,.49,7.49,1.25a18.58,18.58,0,0,1,2.15.81c3.66,1.65,7.37,3.08,10.9,5.08a27.6,27.6,0,0,1,9.43,9.39,10.88,10.88,0,0,1,1.3,5.41C592.17,288.9,592.05,293.57,592.05,298.23Zm-90.88-18.44a4.45,4.45,0,0,1-.14,1.46c-1.85,3.9-.47,7,1.55,10.56,2.15,3.79,5.56,5.65,8.91,7.52,3.75,2.09,8.09,3,12.11,4.51,4.4,1.63,9,1.62,13.39,2.55,3.66.78,7.63.29,11.45.13s7.72-.63,11.58-1c.16,0,.39.07.49,0,1.76-1.57,4.18-1.06,6.19-1.93s4.59-1.06,6.61-2.12c4.44-2.34,9.15-4.3,12.58-8.25,3.19-3.68,4.06-9.79,1.75-13.6a21,21,0,0,0-9-8.15,68.52,68.52,0,0,0-17.5-6.09c-2.06-.45-4.26-.25-6-1a15.78,15.78,0,0,0-6.14-.85c-2.16,0-4.33,0-6.49,0s-4.74-.74-6.4.18c-2.35,1.3-4.74.26-7,1.21s-4.67.79-6.8,1.68c-4.11,1.71-8.44,2.81-12.29,5.35C506.57,274.19,504.3,277.4,501.17,279.79Zm-1.12,14.88V310c0,5.39,2.63,9.49,6.76,12.5A34.52,34.52,0,0,0,518,328c1.79.5,3.57,1,5.34,1.57a51.89,51.89,0,0,0,5.67,1.93c1.9.38,4.1-.22,5.8.49,2.15.89,4.19.51,6.25.52a107.11,107.11,0,0,0,15.58-.75,68.59,68.59,0,0,0,12-2.56,48.11,48.11,0,0,0,13.7-6.64c3.29-2.44,6.21-5.53,6.58-9.56.57-6.06.15-12.2.15-19.12-4.14,5.25-9.27,7.81-14.29,10.3-3.41,1.7-7.32,2.49-11.08,3.33a104.1,104.1,0,0,1-12.14,2,64.06,64.06,0,0,1-9,0c-2.87-.11-5.87.73-8.57-1-4.25.59-8.17-1-12.12-2.06s-7.9-2.06-11.24-4.1C507,300.2,503,298.35,500.05,294.67Z" transform="translate(231.95 -148.27)"/><path d="M59.05,388c0-4.16,0-8.32,0-12.48a15.57,15.57,0,0,1,4.59-11.12,31.25,31.25,0,0,1,10.15-6.93,68.88,68.88,0,0,1,10.85-4,94.5,94.5,0,0,1,28.25-2.84,36,36,0,0,1,5.08,1c1.54.29,3.37-.75,4.58,1a17.92,17.92,0,0,1,7.58,1,20,20,0,0,1,2.17.78c3.57,1.82,7.37,3.07,10.9,5.09a28.27,28.27,0,0,1,9.44,9.36,10.39,10.39,0,0,1,1.35,5.39c.13,9.32.22,18.65,0,28a12.61,12.61,0,0,1-3.48,8.52c-6.08,6.36-13.57,9.82-22,12a89,89,0,0,1-25.75,2.85c-1.92-.07-3.79.29-5.8-.44s-4.68.33-6.14-.71c-1.75-1.26-4.11.22-5.3-1.82-4.15.41-7.61-1.92-11.07-3.41-5.68-2.44-10.86-6.11-14-11.79a12.75,12.75,0,0,1-1.33-5.42C58.93,397.28,59.05,392.61,59.05,388Zm4-18c0,.71.28,1.6,0,2-2.44,3-.6,5.94.57,8.47,1.75,3.81,5.11,6.18,8.88,8.23a67,67,0,0,0,29.2,7.82,88.16,88.16,0,0,0,16.6-.71A73.91,73.91,0,0,0,138,390.11c3.78-1.68,7.43-3.76,10-7.07,2.28-2.9,3.85-6.36,2.84-10.11a14.86,14.86,0,0,0-5.61-8.6c-3.43-2.35-6.9-4.68-11.06-5.85-3.88-1.09-7.5-3.17-11.71-3-1.46-1.72-3.6-.2-5.08-1-1.87-1-3.72-.89-5.63-.91-2.49,0-5,0-7.49,0-2.16,0-4.73-.73-6.39.18-2.25,1.25-4.47.28-6.58,1s-4.2,1.11-6.26,1.79c-4.38,1.46-8.81,2.69-12.83,5.22C68.61,364,66.23,367.38,63.05,369.94Zm88,13.75c-3.44,4.62-7.57,6.71-11.59,9-5.64,3.23-12,4.17-18.07,5.76a50,50,0,0,1-10,1.06c-3.49.16-7,0-10.48,0-1,0-2.25.39-3-.07-2.29-1.49-4.84-.37-7.09-1s-4.81-1.22-7.16-2a63.82,63.82,0,0,1-12.38-5.07A36,36,0,0,1,62.05,384V398.7c0,6.7,1.94,10,7.76,14.19a38.65,38.65,0,0,0,9.94,4.95c10.42,3.72,16.37,4.4,23.5,4.69a78.66,78.66,0,0,0,8,0c2.7-.17,5.38-.87,8.07-.91a37.59,37.59,0,0,0,11.47-2.53c4.6-1.58,9.25-3.42,13.29-6.48,4.33-3.28,7.25-7,7-12.79C150.9,394.84,151.05,389.87,151.05,383.69Z" transform="translate(231.95 -148.27)"/><path d="M446.05,328.29c0,4,0,8,0,12a15.06,15.06,0,0,1-4.73,11.55,42.38,42.38,0,0,1-20.54,10.74c-3.85.88-7.58,2.46-11.66,2-2.86,1.79-6,.82-9.07,1s-6.33.06-9.49,0c-1.58,0-2.85-1.27-4.59-1.05a6.53,6.53,0,0,1-4.65-.82c-1-.66-2.67-.5-4.06-.92s-3-.69-4.52-1.21c-6.26-2.17-12.33-4.72-16.93-9.74-3.09-3.38-5-7.18-4.83-12,.22-8.16.05-16.32.06-24.47a14.48,14.48,0,0,1,4.37-10.69c6-6,13.27-9.26,21.38-11.12,3.54-.81,7.16-1.29,10.63-2.14,5.08-1.24,10.08-.61,15.11-.76,2-.06,4-.6,6.17.8,1.56,1,3.91-.17,6.08.95,1.78.93,4.27.46,6.51,1.06,6.33,1.67,15.41,6.17,19.63,10.52,3.32,3.43,5.43,7.34,5.16,12.36C445.88,320.29,446.05,324.3,446.05,328.29Zm-91-18.38c0,.75.28,1.63,0,2-2.44,3-.6,5.94.57,8.47,1.75,3.82,5.11,6.18,8.88,8.23a67,67,0,0,0,29.2,7.82,88.16,88.16,0,0,0,16.6-.71A73.91,73.91,0,0,0,430,330.11c3.78-1.68,7.43-3.76,10-7.07,2.28-2.9,3.85-6.36,2.84-10.11a14.86,14.86,0,0,0-5.61-8.6c-3.43-2.35-6.9-4.68-11.06-5.85-3.88-1.09-7.5-3.17-11.71-3-1.46-1.72-3.6-.2-5.08-1-1.87-1-3.72-.89-5.63-.91-2.49,0-5,0-7.49,0-2.16,0-4.73-.73-6.39.18-2.25,1.25-4.47.28-6.58,1s-4.2,1.11-6.26,1.79c-4.38,1.46-8.82,2.68-12.83,5.22C360.77,304,358.43,307.1,355.05,309.91Zm88,34.15c0-6.35,0-12.67,0-19,0-.11-.23-.22-.54-.49-3.59,4.53-8.69,7.12-13.72,9.59-3.42,1.68-7.32,2.49-11.08,3.34a103.42,103.42,0,0,1-12.14,2,63.92,63.92,0,0,1-9,0c-2.87-.12-5.87.73-8.57-1-4.25.59-8.17-1-12.13-2.06s-7.91-2-11.24-4.09c-3.59-2.21-7.69-4-10.28-7.89a149.62,149.62,0,0,0-.18,17.44,12.48,12.48,0,0,0,1.81,5.21c2.38,4.07,6.08,6.29,10,8.39s8.09,3,12.09,4.55c4.17,1.67,8.67,1.45,13,2.3,3.68.73,7.63.28,11.45.12s7.71-.63,11.56-1c.16,0,.39.06.49,0,1.78-1.51,4.17-1.1,6.19-1.93s4.59-1.05,6.6-2.11c4.29-2.27,9-4,12.16-8A56.12,56.12,0,0,0,443.05,344.06Z" transform="translate(231.95 -148.27)"/><path class="cls-1" d="M647.05,249.91c3.38-2.8,5.72-6,9.12-8.12,4-2.54,8.46-3.75,12.84-5.22,2.06-.69,4.23-1,6.26-1.78s4.32.19,6.58-1.06c1.65-.91,4.23-.18,6.39-.18,2.5,0,5,0,7.49,0,1.91,0,3.76-.06,5.62.91,1.49.77,3.62-.75,5.09,1,4.21-.13,7.82,1.95,11.71,3,4.16,1.17,7.63,3.5,11.06,5.85a14.86,14.86,0,0,1,5.61,8.6c1,3.75-.57,7.21-2.84,10.11-2.6,3.31-6.24,5.39-10,7.07a73.91,73.91,0,0,1-19.69,5.64,88.09,88.09,0,0,1-16.59.71,66.68,66.68,0,0,1-29.2-7.83c-3.77-2-7.15-4.39-8.89-8.22-1.15-2.53-3-5.45-.57-8.47C647.33,251.54,647.05,250.66,647.05,249.91Z" transform="translate(231.95 -148.27)"/><path class="cls-1" d="M646.05,264.66c2.91,3.71,7,5.54,10.59,7.74,3.34,2,7.39,3.06,11.24,4.09s7.87,2.65,12.13,2.06c2.69,1.71,5.69.86,8.57,1a63.92,63.92,0,0,0,9,0,103.42,103.42,0,0,0,12.14-2c3.76-.85,7.67-1.65,11.08-3.33,5-2.49,10.14-5.06,14.28-10.3,0,6.93.43,13.08-.15,19.13-.38,4-3.28,7.12-6.59,9.56a48.77,48.77,0,0,1-13.7,6.64,69.51,69.51,0,0,1-12,2.55,107.18,107.18,0,0,1-15.58.75c-2.06,0-4.1.38-6.25-.53-1.69-.72-3.9-.1-5.8-.48a52.05,52.05,0,0,1-5.68-1.93q-2.64-.85-5.33-1.57a33.81,33.81,0,0,1-11.17-5.51c-4.11-3-6.78-7.1-6.76-12.5C646.06,274.87,646.05,269.77,646.05,264.66Z" transform="translate(231.95 -148.27)"/><path class="cls-1" d="M209.05,339.89c3.31-2.57,5.54-5.84,9-8,3.89-2.43,8.14-3.72,12.31-5.31,2.17-.82,4.6-.93,6.79-1.7s4.9.48,6.93-1.35h17c2,1.56,4.75.17,6.46,1.21,2.23,1.37,4.71.09,6.86,1.68,1.65,1.22,4.09,1.31,6.08,2.14,5.48,2.28,11.13,4.29,14.27,10.05,1.42,2.61,2.7,4.9,2.28,7-.54,2.72-1.17,5.49-3.18,7.66-3.63,3.91-8.3,6.14-13.07,8.26-3.84,1.71-8,2.32-11.94,3.73a3.56,3.56,0,0,1-.89.24c-3.69.35-7.38.81-11.07,1s-7.75.54-11.47-.1c-4.47-.77-9.07-.87-13.44-2.42-4.21-1.5-8.64-2.51-12.53-4.7-3.55-2-7.14-4-9.17-8-1.62-3.18-3.33-6.11-1.21-9.69C209.24,341.27,209.05,340.66,209.05,339.89Z" transform="translate(231.95 -148.27)"/><path class="cls-1" d="M297,354v20.45a47.72,47.72,0,0,1-4.3,5.92c-3.29,3.46-7.67,5.28-11.95,7.22-3.83,1.75-8,2.31-11.92,3.75a4.1,4.1,0,0,1-.9.23c-3.69.34-7.37.8-11.07,1s-7.73.54-11.45-.1c-4.47-.77-9.06-.87-13.43-2.42-4.21-1.5-8.63-2.49-12.52-4.69-3.54-2-7.08-4-9.2-7.93a14.5,14.5,0,0,1-2.08-6.11c-.24-5.46-.08-10.93-.08-17.24a38.77,38.77,0,0,0,9.17,7.36,85.15,85.15,0,0,0,12.83,5.21c4.48,1.55,9.3,1.35,13.76,2.92a7.9,7.9,0,0,0,2.48,0c3.49,0,7,0,10.48,0a66.47,66.47,0,0,0,15.6-2.18,47.69,47.69,0,0,0,11-3.57C288.16,361.35,292.94,358.87,297,354Z" transform="translate(231.95 -148.27)"/><path class="cls-1" d="M-83,400c3.11-2.57,5.54-5.87,9.06-8.15,3.86-2.49,8.17-3.66,12.32-5.27,2.16-.83,4.57-1,6.78-1.73s4.9.49,6.94-1.32c5.66,0,11.38-.48,17,.18a67,67,0,0,1,10.67,1.89c6.83,2,13.64,4.19,19.39,8.59a16.57,16.57,0,0,1,5.62,8.63c1.13,3.79-.6,7.13-2.7,10.12-1.77,2.52-4.46,4.11-7.14,5.58a62,62,0,0,1-16.47,6.11,92.29,92.29,0,0,1-12.18,1.82,61.79,61.79,0,0,1-13,0c-9.28-1.18-18.39-3-26.73-7.78-4.55-2.59-8.29-5.47-9.83-10.8-.61-2.14-1.32-3.88.23-5.83C-82.71,401.64-83,400.76-83,400Z" transform="translate(231.95 -148.27)"/><path class="cls-1" d="M4.91,413.88v20.4a49.74,49.74,0,0,1-3.47,5.32c-3.22,3.87-8,5.52-12.16,7.95-2.54-.41-4.17,1.87-6.63,2.2-2,.26-4.44.17-6.19,1.79-.09.08-.33,0-.49,0-3.86.34-7.7.8-11.56,1s-7.75.57-11.45-.11c-4.31-.8-8.79-.76-13-2.38-4-1.56-8.33-2.34-12.1-4.5s-7.44-4-9.61-8.1c-1.13-2.13-2.26-4.09-2.25-6.57,0-5.3,0-10.61,0-15.89,1-.71,1.07.38,1.51.63a5.78,5.78,0,0,1,1.07,1c2.47,2.47,7.78,5,11.54,7.05,4.6,2.54,9.86,2.64,14.47,4.86.13.07.33,0,.49,0,3.69.34,7.37.8,11.07,1a89.58,89.58,0,0,0,11.47,0,89.53,89.53,0,0,0,12.14-2,53.59,53.59,0,0,0,11.05-3.4C-4.17,421.72.89,419.23,4.91,413.88Z" transform="translate(231.95 -148.27)"/><path class="cls-1" d="M501.17,279.79c3.13-2.39,5.4-5.6,8.78-7.82,3.85-2.54,8.18-3.64,12.29-5.35,2.13-.89,4.68-.78,6.8-1.68s4.66.09,7-1.21c1.66-.92,4.24-.18,6.4-.18s4.33,0,6.49,0a15.78,15.78,0,0,1,6.14.85c1.79.74,4,.54,6,1a68.52,68.52,0,0,1,17.5,6.09,21,21,0,0,1,9,8.15c2.31,3.81,1.44,9.92-1.75,13.6-3.43,3.95-8.14,5.91-12.58,8.25-2,1.06-4.49,1.2-6.61,2.12s-4.43.36-6.19,1.93c-.1.08-.33,0-.49,0-3.86.34-7.71.8-11.58,1s-7.79.65-11.45-.13c-4.43-.93-9-.92-13.39-2.55-4-1.5-8.36-2.42-12.11-4.51-3.35-1.87-6.76-3.73-8.91-7.52-2-3.54-3.4-6.66-1.55-10.56A4.45,4.45,0,0,0,501.17,279.79Z" transform="translate(231.95 -148.27)"/><path class="cls-1" d="M500.05,294.67c2.93,3.68,7,5.53,10.58,7.72,3.34,2,7.38,3.07,11.24,4.1s7.87,2.65,12.12,2.06c2.7,1.71,5.7.87,8.57,1a64.06,64.06,0,0,0,9,0,104.1,104.1,0,0,0,12.14-2c3.76-.84,7.67-1.63,11.08-3.33,5-2.49,10.15-5.05,14.29-10.3,0,6.92.42,13.06-.15,19.12-.37,4-3.29,7.12-6.58,9.56a48.11,48.11,0,0,1-13.7,6.64,68.59,68.59,0,0,1-12,2.56,107.11,107.11,0,0,1-15.58.75c-2.06,0-4.1.37-6.25-.52-1.7-.71-3.9-.11-5.8-.49a51.89,51.89,0,0,1-5.67-1.93c-1.77-.57-3.55-1.07-5.34-1.57a34.52,34.52,0,0,1-11.18-5.5c-4.13-3-6.76-7.11-6.76-12.5Z" transform="translate(231.95 -148.27)"/><path class="cls-1" d="M63.05,369.94c3.18-2.56,5.56-5.91,9.13-8.15,4-2.53,8.45-3.76,12.83-5.22,2.06-.68,4.23-1,6.26-1.79s4.33.2,6.58-1c1.66-.91,4.23-.18,6.39-.18,2.5,0,5,0,7.49,0,1.91,0,3.76-.06,5.63.91,1.48.77,3.62-.75,5.08,1,4.21-.13,7.83,1.95,11.71,3,4.16,1.17,7.63,3.5,11.06,5.85a14.86,14.86,0,0,1,5.61,8.6c1,3.75-.56,7.21-2.84,10.11-2.6,3.31-6.25,5.39-10,7.07a73.91,73.91,0,0,1-19.69,5.64,88.16,88.16,0,0,1-16.6.71,67,67,0,0,1-29.2-7.82c-3.77-2.05-7.13-4.42-8.88-8.23-1.17-2.53-3-5.45-.57-8.47C63.33,371.54,63.05,370.65,63.05,369.94Z" transform="translate(231.95 -148.27)"/><path class="cls-1" d="M151.05,383.69c0,6.18-.15,11.15,0,16.12.22,5.76-2.7,9.51-7,12.79-4,3.06-8.69,4.9-13.29,6.48a37.59,37.59,0,0,1-11.47,2.53c-2.69,0-5.37.74-8.07.91a78.66,78.66,0,0,1-8,0c-7.13-.29-13.08-1-23.5-4.69a38.65,38.65,0,0,1-9.94-4.95c-5.82-4.21-7.76-7.49-7.76-14.19V384a36,36,0,0,0,9.24,7.47,63.82,63.82,0,0,0,12.38,5.07c2.35.75,4.78,1.28,7.16,2s4.8-.47,7.09,1c.7.46,2,.07,3,.07,3.49,0,7,.13,10.48,0a50,50,0,0,0,10-1.06c6.11-1.59,12.43-2.53,18.07-5.76C143.48,390.4,147.61,388.31,151.05,383.69Z" transform="translate(231.95 -148.27)"/><path class="cls-1" d="M355.05,309.91c3.38-2.81,5.72-6,9.13-8.12,4-2.54,8.45-3.76,12.83-5.22,2.06-.68,4.23-1,6.26-1.79s4.33.2,6.58-1c1.66-.91,4.23-.18,6.39-.18,2.5,0,5,0,7.49,0,1.91,0,3.76-.06,5.63.91,1.48.77,3.62-.75,5.08,1,4.21-.13,7.83,1.95,11.71,3,4.16,1.17,7.63,3.5,11.06,5.85a14.86,14.86,0,0,1,5.61,8.6c1,3.75-.56,7.21-2.84,10.11-2.6,3.31-6.25,5.39-10,7.07a73.91,73.91,0,0,1-19.69,5.64,88.16,88.16,0,0,1-16.6.71,67,67,0,0,1-29.2-7.82c-3.77-2.05-7.13-4.41-8.88-8.23-1.17-2.53-3-5.45-.57-8.47C355.33,311.54,355.05,310.66,355.05,309.91Z" transform="translate(231.95 -148.27)"/><path class="cls-1" d="M443.05,344.06a56.12,56.12,0,0,1-3.54,5.47c-3.18,3.92-7.87,5.69-12.16,8-2,1.06-4.47,1.24-6.6,2.11s-4.41.42-6.19,1.93c-.1.08-.33,0-.49,0-3.85.34-7.7.8-11.56,1s-7.77.61-11.45-.12c-4.31-.85-8.81-.63-13-2.3-4-1.59-8.27-2.49-12.09-4.55s-7.61-4.32-10-8.39a12.48,12.48,0,0,1-1.81-5.21,149.62,149.62,0,0,1,.18-17.44c2.59,3.88,6.69,5.68,10.28,7.89,3.33,2.05,7.39,3.06,11.24,4.09s7.88,2.65,12.13,2.06c2.7,1.71,5.7.86,8.57,1a63.92,63.92,0,0,0,9,0,103.42,103.42,0,0,0,12.14-2c3.76-.85,7.66-1.66,11.08-3.34,5-2.47,10.13-5.06,13.72-9.59.31.27.53.38.54.49C443.05,331.39,443.05,337.71,443.05,344.06Z" transform="translate(231.95 -148.27)"/></svg>