<svg id="Layer_1" data-name="Layer 1" xmlns="http://www.w3.org/2000/svg" viewBox="0 0 1040.89 492.36"><defs><style>.cls-1{fill:#005000;}.cls-2{fill:#009500;}.cls-3{fill:#006e00;}</style></defs><path d="M-148.13,318c2.61-4.26,6.7-6.47,10.55-8.71a43.9,43.9,0,0,1,11.22-4.19c4-1,8.15-1.4,12.1-2.29,6.27-1.42,12.45-.33,18.64-.74,1.33-.09,2.7.68,4.08.92s3-.53,4.08,1c2.22-.39,4.53.69,6.72-.7,1.61-1,3.61-.19,5.54-1.12,2.32-1.11,5.33-.7,8-1.21,5.38-1,10.74-2.21,16.1-3.37,2.12-.47,4.2-1.38,6.34-1.53,3-.21,5.87-1.22,8.84-1.63a55.83,55.83,0,0,0,8.85-1.63c5.09-1.58,10.42-1.94,15.48-3.59,2.84-.93,6-.94,9.39-1.42,2.57-3.55,6.48-6.2,10.53-8.47A47.65,47.65,0,0,1,19,275.08c5-1.37,10.2-1.78,15.25-3,1.89-.45,4-.07,6-.07,2.16,0,4.33-.05,6.49,0s4.09-.23,6.14.89c1.59.88,3.62-.08,5.65.84a7.23,7.23,0,0,0,6.61-.4c1.66-1.07,3.6-.09,5.55-1.14,2.23-1.2,5.3-.78,8-1.22a107.67,107.67,0,0,0,12-2.31c4.09-1.18,8.29-1.7,12.36-2.76s8.27-1.86,12.36-2.58,8-1.77,12-2.52,8.39-1,12.32-2.75c1-.43,2.31-.06,3.8-.06,2.68-3.68,6.57-6.36,10.62-8.59a43.82,43.82,0,0,1,11.19-4.29c4-.93,8.12-1.48,12.1-2.32,6.09-1.29,12.1-.4,18.13-.74,1.5-.08,3.05.63,4.58.93s2.72-.09,4.22.73a7,7,0,0,0,5.32.17c3.84-1.51,8-1.29,11.86-2.72,2.08-.77,4.67-.6,7-1.09a111.18,111.18,0,0,0,12.8-2.92c1.88-.62,4-.58,6.05-1,4.73-1.09,9.52-1.84,14.26-3,2.88-.69,5.82-1,8.7-2,2.67-.9,5.84-.36,8.47-1.32,1.92-.7,4.12-.1,5.51-1.06,1.78-1.22,3.53-.3,5.45-1.06,2.48-3.84,6.64-6.23,10.63-8.56a43.31,43.31,0,0,1,11.26-4.09c4-1,8.08-1.6,12.11-2.32a69.17,69.17,0,0,1,9.13-.73c3.16-.15,6.55-.74,9.43.17s5.84-.2,8.24,1.8c2.19-.44,4.42.61,6.71-.74,1.65-1,3.95-.35,6-1.12,2.47-.93,5.39-.58,8-1.19,5-1.16,10.22-1.81,15.15-3.29,2.25-.67,4.64-.27,6.86-1.54,1.67-1,4-.78,6-1.12,1.86-.32,3.72-.73,5.59-1,2-.28,4.1-.77,6-1.22,3.2-.74,6.39-1.45,9.61-2.09s6.18-1.25,9.24-1.91a42.76,42.76,0,0,1,5.78-.83c2.66-3.92,6.7-6.46,10.73-8.74,3.44-1.95,7.43-3,11.23-4.2,4.64-1.52,9.55-1.72,14.28-2.89,3-.74,6.32-.36,9.46-.08s6.27-1.25,9.09.94c2.8-.45,5.4.92,8.09.91a26.33,26.33,0,0,0,9-1.22c1.66-.61,3.42,0,4.64-.79,1.56-1,3.11-.63,4.65-.93,5.37-1.06,10.72-2.24,16.07-3.42,2.13-.46,4.22-1.34,6.36-1.48,3-.19,5.86-1.28,8.83-1.66A48,48,0,0,0,557,172.8c5.09-1.69,10.44-1.83,15.48-3.61,2.81-1,6-.92,9.33-1.37a29.62,29.62,0,0,1,10.6-8.51,60.37,60.37,0,0,1,11.68-4.38c4.55-1.22,9.29-1.39,13.8-2.85,1.51-.49,3.3-.08,5-.08,3.5,0,7.06-.4,10.48.11a91.42,91.42,0,0,1,9.72,1.76c3.61,1,7.26-.71,10.88-1.3,3.44-.57,6.85-1.29,9.81-1.86L825.89,312.89V462.67c-4.49,1.12-9,1.74-13.33,3.08-2,.62-4.32.79-6.49,1.24-7.5,1.58-15.15,2.46-22.49,4.85-1.91.62-4,.57-6.05,1-6.1,1.37-12.25,2.53-18.36,3.92-4.1.93-8.45,1.47-12.58,2.38-5.31,1.17-10.83,1.53-16,3.62-1.85.76-4,.1-6,1.1-1.76.87-4,.77-6,1.11-1.86.32-3.71.77-5.59,1-2.05.22-3.88,1.73-6.08,1-6.09,2.2-12.56,2.69-18.81,4.12-5.24,1.19-10.61,1.66-15.74,3-3.59,1-7.32,1.36-10.86,2.69-1.8.68-4,.64-6,1.08-6,1.28-12,1.95-17.88,3.92a31.2,31.2,0,0,1-6,1c-3.79.45-7.37,1.72-11.14,2.22s-7.22,1.86-10.83,2.73c-2.09.5-4.35.76-6.52,1.21-4.13.86-8.36,1.17-12.34,2.78-1.88.76-4,.51-6,1a75.75,75.75,0,0,1-8.77,1.81A47.49,47.49,0,0,0,567,516.2c-5.23,1.75-10.66,2.42-16,3.57a95.36,95.36,0,0,1-13.61,2.4,45.63,45.63,0,0,0-9.65,1.94c-3,.89-6.18,1.15-9.18,2-6.94,1.91-14.18,2.31-21,4.74-2.49.89-5.36.67-8,1.22s-5.29.66-7.8,1.68c-1.9.77-4,.11-6,1.13s-5.12.12-6.89,1.33c-2.09,1.43-4.74-.43-6.3,1.79a23.49,23.49,0,0,0-6.1.94c-5.95,1.31-12,2.05-17.89,3.86A51,51,0,0,1,432,544c-4.17.71-8.25,1.78-12.34,2.8-2.3.56-4.68.77-7,1.23-4,.79-7.94,1.7-11.89,2.65-2.13.52-4.33.92-6.47,1.23a82.4,82.4,0,0,0-13.79,3,30,30,0,0,1-6.05,1c-4,.41-7.76,1.58-11.62,2.32s-7.69,1-11.36,2.66c-2.24,1-5,.93-7.51,1.15a41.26,41.26,0,0,0-8.26,1.81c-2,.59-4,.08-6.07,1.08s-5.14.1-6.88,1.32c-2.09,1.46-4.77-.46-6.3,1.82-4.2-.23-8.09,1.46-12.16,2a63.15,63.15,0,0,0-11,2.32c-2.26.76-4.62.58-6.86,1.53-2,.85-4.72.18-6.44,1.26-2.09,1.33-4.33.33-6.42,1.54-1.92,1.11-4.61.83-6.93,1.33-4,.86-7.95,1.61-11.88,2.68A63.63,63.63,0,0,1,248.3,582c-2.35.39-4.77.48-7.07,1.07a63.25,63.25,0,0,0-6.75,1.76c-1.82.67-4,.64-6,1.08-4.74,1-9.5,2.27-14.26,2.92-6,.82-11.68,2.75-17.71,3.4a115.26,115.26,0,0,0-11.87,2.44c-3.52.77-7.07,1.52-10.56,2.4-7.12,1.79-14.51,2.31-21.5,4.78-1.86.66-4,.28-6.06,1.08-1.87.73-4,.74-6,1.08-1.86.32-3.72.66-5.58,1-2,.37-3.92,1.12-6.09,1.13-1.73,0-3.42,1.43-5.21,1.74-2,.34-4,.55-6.07,1-4.73,1.09-9.54,1.71-14.26,3-2.24.61-4.71.14-7.08,1-2,.75-4.66.23-6.47,1.25-1.65.92-3.26.31-4.63.93a31.61,31.61,0,0,1-4.1,1,105,105,0,0,1-12.37,2.58c-4,.71-8,1.75-12,2.51-6.13,1.15-12.35,2-18.42,3.67-2.65.74-5.51,1.16-8.27,1.78s-5.66.77-8.43,1.42c-3.53.84-7.2,1.24-10.62,2.18S3.55,630.84.47,633c-4.2-.22-8.13,1.28-12.16,2.08-5.51,1.08-11.16,1.68-16.47,3.65-1.8.67-4-.72-5.47,1.27-5.39.24-10.54,1.8-15.76,3a13.16,13.16,0,0,1-2.87,0L-215,480.27V332.05a44.43,44.43,0,0,1,5.49-2c2.76-.65,5.62-.9,8.4-1.47s5.57-1.14,8.3-1.75c4.75-1.05,9.59-1.71,14.26-2.94,3.62-1,7.48-.87,10.89-2.69,1.54-.83,3.65.66,5-1.09C-157.8,320.14-153.33,317.81-148.13,318Zm971,141.81V315.45a29.66,29.66,0,0,0-5.57.86c-5.36,1.9-11,2.5-16.49,3.6-4,.8-8,2.27-12.15,2.09-3.08,2.16-6.9,1.84-10.32,2.78a61.75,61.75,0,0,1-10.62,2.08c-4.15.37-7.9,2.73-12.16,2.14-2.5,1.6-5.46,1.47-8.19,1.88-3,.45-5.77,1.8-8.66,2-4.18.28-7.9,2.73-12.17,2.13-2.5,1.58-5.49,1.12-8.17,2a42.92,42.92,0,0,1-8.69,1.85c-4.13.43-7.89,2.76-12.15,2.18-1.78,2.14-4.54.41-6.78,1.82-1.84,1.16-4.66.64-7,1.22s-4.94.4-7,1.13c-3.56,1.25-7.49.9-10.82,2.82-6,.29-11.72,2.68-17.76,3-1.7,1.73-4,.7-6,1.28a65.13,65.13,0,0,1-10.89,2.62c-4.28.46-8.29,2.36-12.66,2.1-1.48,1.83-3.86.83-5.75,1.86s-4.32.8-6.51,1.14c-2,.32-4.32.19-6,1.12-2,1.13-4.13.42-6.05,1.11-3.54,1.28-7.32,1.45-10.88,2.7-2.06.72-4.82.09-6.45,1.23-2.09,1.47-4.68-.3-6.34,1.72-4-.26-7.64,1.87-11.61,2.17a23.44,23.44,0,0,0-6.47,1.25c-1.82.71-3.78-.11-5.09.9-1.58,1.22-3.43.12-4.64.9-1.72,1.13-3.5.49-5.13,1-2.14.64-4.39.62-6.46,1.28-5.4,1.73-11,2.49-16.5,3.57-4,.79-8,2.27-12.16,2.08-5.49,2.58-11.57,2.69-17.37,3.86-4.16.85-8.27,2.39-12.64,2.14-1.45,1.92-3.87.7-5.77,1.85s-4.3.81-6.49,1.15c-2,.32-4.34.17-6,1.13-2,1.15-4.1.5-6,1.12-3.88,1.23-7.94,1.72-11.86,2.78-2.56.7-5.2.89-7.77,1.73A63.77,63.77,0,0,1,418,398.94a24.08,24.08,0,0,0-4.11,1c-1.45.49-3,.57-4.59.92-4.88,1.12-9.8,2.56-14.73,3-6.06.54-11.67,3.11-17.75,3.17-2,2-4.85.6-7.25,1.84-2.13,1.1-5.11.45-7.46,1.28-1.9.66-4,.24-5.56,1-3.47,1.75-7.3,2.13-10.86,2.62-4.57.63-9,2.34-13.64,2.24-1.78,2.14-4.48.65-6.77,1.8-3,1.49-6.65,1.8-10.08,2.13-4.28.42-8.29,2.32-12.66,2.07-1.54,2.25-4.21.35-6.3,1.82-1.74,1.22-4.83.35-6.89,1.32s-4.16.35-6.06,1.1c-5.3,2.09-11,2.51-16.46,3.66-3.83.81-7.59,2-11.55,2.42-2.76.29-5.43,1.43-8.27,1.7-2.53.25-5.23.2-7.53,1.12-5.15,2.06-10.64,2.42-15.93,3.75-6.06,1.51-12.24,2.6-18.35,3.91S193.09,445.09,187,446c-2.19.33-4.29,1-6.56,1.16-1.76.09-3.47,1.68-5.2,1.69-2.17,0-4.07.76-6.09,1.13-1.86.34-3.72.68-5.59,1-2,.34-4.26.24-6,1.11-2.22,1.09-4.59.86-6.85,1.53-5.09,1.52-10.41,2.28-15.63,3.36-2.17.46-4.51.59-6.52,1.19-4.4,1.31-8.92,1.81-13.27,3-2,.56-4.12.32-6,1.09-2.51,1-5.2,1.14-7.8,1.68s-5.47.42-8,1.24-4.84,1.19-7.23,1.87c-2.55.73-5.21,1.17-7.74,1.67a48.77,48.77,0,0,1-7.53,1.34,23.14,23.14,0,0,0-6.49,1.17c-5.53,2-11.32,2.47-17,3.58-4.17.82-8.29,2.35-12.64,2.17-5,2.43-10.64,2.31-15.89,3.83-2.95.86-6.15,1.27-9.23,1.88-3.23.64-6.42,1.35-9.61,2.09-1.94.45-4,.94-6,1.22-1.87.25-3.73.66-5.59,1-2,.34-4.25.26-6,1.11-2,1-4.16.42-6.07,1.07-5.67,2-11.59,2.63-17.41,3.84-3,.63-6,1.43-8.8,2.1V639.87a30.26,30.26,0,0,0,5.18-.93c2.12-.77,4.38-.65,6.46-1.3,5.4-1.7,11-2.48,16.51-3.56,4-.79,8-2.31,12.15-2.08,3.08-2.16,6.9-1.84,10.32-2.78s7.09-1.34,10.62-2.18c2.77-.65,5.65-.8,8.43-1.42a75.6,75.6,0,0,0,8.23-1.87c2.42-.85,5-.33,7.35-1.59,2.11-1.11,5.09-.46,7.46-1.28,1.89-.65,4-.28,5.57-1,4.94-2.21,10.45-1.86,15.41-3.83,1.74-.69,3.76.57,5.67-.9,1.26-1,3.27.14,5.09-1,1.39-.86,3.67-.76,5.5-1A96.42,96.42,0,0,0,89.77,611c3.37-.8,6.85-.81,10.21-1.89,2.53-.82,5.44-.45,8-1.19s5.38-1.51,8.17-2.07c4.76-.94,9.52-1.93,14.27-2.94,2-.43,4.33-.29,6-1.08,3.35-1.57,7-1.69,10.4-2.6s7.08-1.37,10.62-2.19c2.77-.63,5.62-.88,8.41-1.45s5.57-1.14,8.3-1.74c4.75-1.06,9.55-1.85,14.27-2.94,2-.48,4.28-.32,6-1.07,5-2.11,10.33-2.54,15.47-3.58A111.87,111.87,0,0,1,223.08,584a29.21,29.21,0,0,0,3.59-.94,30.42,30.42,0,0,0,3.71-.69A75.78,75.78,0,0,1,241.43,580c2.68-.45,5.57-.21,8-1.17,2.23-.87,4.55-1,6.74-1.83s4.51-.6,6.44-1.37c2.26-.91,4.63-.46,6.88-1.52,2.06-1,4.78-.45,7-1.23,2-.73,4.07-.66,6.08-1,1.79-.34,3.48-1.73,5.22-1.73,2.17,0,4.06-.78,6.08-1.13,1.86-.33,3.72-.68,5.59-1,2-.34,4.2-.32,6-1.09,2-.85,4.2-.4,6.06-1.08,6.82-2.48,14.08-2.84,21-4.75,3-.82,6.12-1.22,9.18-2,4.86-1.18,9.85-1.9,14.74-3.07,2.62-.63,5.52-.31,8-1.18,2.05-.71,4.47-.11,6-1.13,2.06-1.41,4.35-.13,6.43-1.58,1.64-1.14,4.41-.49,6.44-1.25,2.37-.89,5.05-.18,7-1.12s3.93.07,5.05-1c1.48-1.36,3.13-.34,4.57-1.22a8.82,8.82,0,0,1,4.81-1.48c2.22.15,4.06-.86,6.09-1.14,1.88-.25,3.73-.66,5.59-1,2-.34,4.25-.26,6-1.11,2-.95,4.2-.34,6.05-1.09,5.15-2.06,10.65-2.49,16-3.62,4.14-.89,8.28-2.36,12.64-2.18,6.71-2.76,14-3.42,21-4.78,5.71-1.11,11.28-3.27,17.21-3.22,1.55-2.25,4.63.26,6.17-2,2.25,0,4.41,0,6.63-.89,2-.84,4.39-.61,6.53-1.15,2.57-.66,5.19-1,7.76-1.75,3.28-.94,6.74-1.41,10.11-2.16,2.64-.59,5.57-.23,8-1.2,2.06-.82,4.27-.18,6-1.09,4.73-2.45,10-2.44,15-3.58,4.12-.95,8.49-1.46,12.58-2.4,6.11-1.4,12.28-2.5,18.36-3.93,2-.48,4.16-.35,6-1.05a66.6,66.6,0,0,1,10.87-2.61c4.19-.79,8.49-1.47,12.59-2.42,5.29-1.22,10.73-1.82,16-3.57a48.07,48.07,0,0,1,8.86-1.61c3-.38,5.77-1.69,8.83-1.59,1.85-2,4.52-.9,6.79-1.69A75.85,75.85,0,0,1,672.56,491c2.66-.54,5.57-.23,8-1.19,2.07-.8,4.16-.36,6.06-1.06a65,65,0,0,1,10.88-2.61c4.19-.76,8.48-1.47,12.58-2.4,5.29-1.2,10.71-1.95,16-3.59a55.41,55.41,0,0,1,8.85-1.62,66.6,66.6,0,0,0,8.78-1.79c2-.55,4.13-.29,6-1,5.31-2.06,11-2.54,16.47-3.66,4-.81,8-2.26,12.15-2.09,1.51-1.76,4.12-.39,5.67-2,2.35.68,4.32-1,6.59-1.06a34.33,34.33,0,0,0,6.08-1c2.14-.44,4.22-1.12,6.37-1.51,3.69-.67,7.29-1.83,11-2.4A60.36,60.36,0,0,0,822.83,459.8Zm-2.44-146.92L661.62,154.12l-7.54,1.28c0,.33-.06.65-.09,1a18.18,18.18,0,0,0,2.77,1.57c5.45,1.94,10.4,4.91,13.36,8.73,2.33,3,4,6.28,3.93,10.38-.18,8.16-.09,16.33,0,24.5a16,16,0,0,1-5,12,39.11,39.11,0,0,1-11,7.34,73.72,73.72,0,0,1-11.38,3.89c-4.09,1.21-8.4,1.4-12.6,2.08-3.74.61-7.65.26-11.48.09s-7.73-.63-11.59-1c-.16,0-.36.06-.49,0-4.62-2.21-9.8-2.59-14.52-4.82-5-2.35-9.7-4.81-13.22-9a15,15,0,0,1-3.83-10.41c.22-7.16,0-14.33.07-21.5,0-3-.45-6.07,1.18-8.95-24.36,4.69-48.21,9.82-72.67,14.34.62.6.94,1.17,1.4,1.33a59.28,59.28,0,0,1,8.37,4,22.6,22.6,0,0,1,7,5.95c2,2.55,3.76,5.4,3.74,8.93q-.06,13.76,0,27.5a12.65,12.65,0,0,1-2.45,7.46C521.67,246,516,249.06,510.25,252a29.54,29.54,0,0,1-6.15,2c-2.29.58-4.77.58-6.9,1.47-2.29.95-4.82-.32-6.68.73-2.44,1.39-4.8.59-7.18.8-5.89.52-11.73-.39-17.58-1a5.94,5.94,0,0,1-1.42-.18c-4.78-1.8-9.83-2.61-14.56-4.71-5.2-2.31-10-5.07-13.51-9.48a15.1,15.1,0,0,1-3.34-10.12c.24-8,0-16,.1-24,0-2,.42-4,.64-6.09-23.71,4.47-47.54,9.75-71.59,14.07l-.09.91a17.18,17.18,0,0,0,2.76,1.57c5.54,2,10.37,4.87,13.36,8.72,2.33,3,4,6.27,3.94,10.37-.18,8.16-.09,16.33,0,24.5a15.62,15.62,0,0,1-5,12c-3.36,3.26-7.38,5.32-11.4,7.51-3.61,2-7.62,2.57-11.41,3.84s-8.09,1.39-12.15,2a61.12,61.12,0,0,1-11.48.08c-3.87-.16-7.73-.63-11.59-1-.17,0-.36.06-.5,0-4.62-2.21-9.79-2.6-14.51-4.82-5-2.34-9.71-4.8-13.23-9a15.17,15.17,0,0,1-3.84-10.41c.22-7.33,0-14.67.09-22,0-2.83.35-5.67.52-8.33-23.72,4.53-47.56,9.71-72,14.17.61.62.92,1.19,1.38,1.36a59.7,59.7,0,0,1,8.36,4,22.61,22.61,0,0,1,7.32,6.31c1.84,2.43,3.47,5.17,3.44,8.55-.08,9.17.08,18.34-.09,27.5a13.54,13.54,0,0,1-3.65,9A36.3,36.3,0,0,1,219,311.37a80.46,80.46,0,0,1-25.17,5.6c-6.72.5-13.41-.21-20.08-1a6,6,0,0,1-1.43-.17c-4.77-1.82-9.82-2.62-14.55-4.72-5.21-2.31-10-5.06-13.52-9.47a15.09,15.09,0,0,1-3.35-10.12c.23-8,0-16,.1-24a60.92,60.92,0,0,1,.65-6.11C118,265.9,94.14,271.16,70.1,275.49l-.11.9A17.06,17.06,0,0,0,72.73,278c5.59,2,10.36,4.86,13.37,8.7,2.35,3,4.05,6.27,4,10.38-.18,8.16-.09,16.33,0,24.49a15.93,15.93,0,0,1-4.94,12c-2.77,2.77-6.17,4.4-9.33,6.5-4.13,2.74-8.94,3.6-13.5,4.78A55.49,55.49,0,0,1,46.62,347c-5.2-.17-10.36.17-15.62-.77A97.3,97.3,0,0,1,17.27,343a52.64,52.64,0,0,1-11-4.83,28.72,28.72,0,0,1-7.09-5.64A15.58,15.58,0,0,1-5,321.78c.18-7.33,0-14.66.08-22,0-2.84.35-5.67.53-8.37l-71.9,14.3c.47.49.78,1.11,1.23,1.24a37.81,37.81,0,0,1,8.76,4.21,22.83,22.83,0,0,1,7.5,7.27c1.54,2.35,2.81,4.59,2.83,7.35.06,9.16,0,18.33,0,27.5a12,12,0,0,1-2.44,7.45A35.25,35.25,0,0,1-74.7,372c-2.19.77-4.51,1.18-6.64,2.07s-4.52,1-6.74,1.81-4.67.13-7.09,1c-2.65,1-20.6-.21-24-.87a1.76,1.76,0,0,1-.44-.15c-4.51-2.05-9.83-1.76-14-4.85-3.5.18-5.5-2.78-8.29-4.09-3.11-1.46-5.14-4.31-6.94-7.25A12.47,12.47,0,0,1-151,353V342c0-3.5,0-7,0-10.5s-.44-7,1-10.44l-58.32,12.12L-49.5,492a20.1,20.1,0,0,1,3.09-1c2.51-.43,5.26-.2,7.54-1.13,5.14-2.11,10.68-2.21,15.93-3.73,3-.86,6.14-1.27,9.23-1.89s6.42-1.34,9.61-2.08c1.94-.45,4-.95,6-1.22,1.87-.25,3.72-.66,5.59-1,2-.34,4.25-.25,6-1.11,2-1,4.2-.34,6-1.09,5.14-2.08,10.65-2.47,16-3.63,4.13-.9,8.28-2.35,12.63-2.17,7.22-2.82,15-3.37,22.46-4.86,4.16-.83,8.33-1.88,12.62-2.34,2.13-.23,4.47-1.44,6.71-1.68,2.55-.27,4.89-1.35,7.57-1.26,2.23.08,4.47-1.41,6.75-1.6,3.2-.26,6.07-1.78,9.11-2.13a113.4,113.4,0,0,0,12.6-2.36c5.29-1.22,10.73-1.82,16-3.57a48.17,48.17,0,0,1,8.87-1.6,71.39,71.39,0,0,0,8.77-1.81c2-.52,4.17-.24,6-1,5.12-2.14,10.66-2.43,16-3.6,4.13-.92,8.27-2.37,12.63-2.17,7.21-2.85,15-3.37,22.46-4.86,4.17-.82,8.27-2.4,12.64-2.14,5.31-2.62,11.24-2.83,16.88-3.79,5.45-.93,10.56-3.52,16.22-3.21,2.5-1.6,5.5-1.09,8.18-2a42.16,42.16,0,0,1,8.68-1.85c4.13-.44,7.89-2.77,12.16-2.17,2.5-1.58,5.49-1.12,8.17-2a42.92,42.92,0,0,1,8.69-1.85c4.13-.43,7.88-2.76,12.15-2.18,2.51-1.55,5.48-1.15,8.18-2a46.71,46.71,0,0,1,8.68-1.86c4.14-.4,7.89-2.74,12.15-2.18,4.33-2.15,9.2-1.86,13.78-2.88,4-.89,7.95-2.29,12.15-2.1,1.94-1.62,4.47-1.45,6.7-1.87,2.48-.46,4.9-1.82,7.56-1.13,1.85-2,4.52-.85,6.79-1.69a36.53,36.53,0,0,1,9.06-2.23,97,97,0,0,0,12.61-2.3c5.29-1.2,10.66-2.4,15.95-3.54,5.83-1.25,11.66-3,17.7-3.24,1.72-1.7,4-.58,6-1.28,5.33-1.94,11-2.55,16.48-3.64,4-.79,8-2.27,12.15-2.08,5-2.49,10.59-2.8,15.89-3.76,4.49-.81,9-2.34,13.63-2.24,1.68-2.07,4.22-.72,6.35-1.56,3.45-1.36,7.29-1.76,11-2.41,2.68-.47,5.73,0,8-1.23,2-1,3.8-.3,5.57-1.09,5.07-2.24,10.61-2.61,16-3.68,3.87-.78,7.64-2.16,11.67-2,1.49-1.79,3.85-.88,5.74-1.86s4.32-.8,6.51-1.14c2-.32,4.34-.17,6-1.13,2-1.16,4.1-.47,6-1.14a71.55,71.55,0,0,1,10.9-2.57c4.2-.73,8.49-1.46,12.59-2.39,5.29-1.19,10.66-2.37,16-3.54,5.81-1.29,11.65-3,17.7-3.23,1.69-2.07,4.23-.72,6.35-1.55,3.46-1.35,7.3-1.77,11-2.42,2.67-.48,5.7-.07,8-1.22,1.94-1,4,0,5.51-1.18,1.64-1.37,3.47-.08,5.14-.94a14.33,14.33,0,0,1,5.3-1.63c6-.42,11.69-2.91,17.75-3.06,1.67-1.78,4.12-.35,5.92-1.4,2.92-1.71,6.34-1.45,9.45-2.51,2.37-.8,5.28-.22,7.49-1.24,2.39-1.1,5-.35,7.3-1.76,1.38-.84,3.32-.82,5-1.07,2.68-.4,5.52-.28,8.05-1.1,5.69-1.86,11.62-2.53,17.41-3.75,4-.84,8-1.84,12-2.53s8.29-1.51,12.38-2.56c1.36-.34,2.73-.55,4.1-1s3-.43,4.6-.92C812.59,314,816.72,313.55,820.39,312.88ZM-53.08,495.78q-80.31-80.29-158.84-158.84V477.23q80.29,80.29,158.84,158.84ZM583.16,171.23a6.68,6.68,0,0,1-.44,2.48c-2,2.93-.35,5.7.75,8.09,1.75,3.82,5,6.29,8.86,8.28,4.16,2.17,8.6,3.4,12.9,5.07,4.69,1.83,9.57,1.8,14.32,2.72,3.54.68,7.31.26,11,.09s7.38-.63,11.07-1c.32,0,.74.08,1-.08,1.85-1.36,4.19-1.09,6.21-1.89s4.18-1.19,6.14-2.06c4.76-2.12,9.45-4.38,13-8.38,2.52-2.83,3.27-7.33,2.11-11.31a14.84,14.84,0,0,0-6.37-8.4,52.54,52.54,0,0,0-10.74-5.48c-6.17-2.42-12.66-3.48-19.16-4.33-3-.39-6-.07-9-.07-2.33,0-5-.74-6.9.19-2.27,1.12-4.49.23-6.58,1s-4.53,1.15-6.72,1.87c-4.23,1.38-8.49,2.7-12.38,5.1C588.75,165.31,586.43,168.49,583.16,171.23ZM437,201.32c0,.64.11,1,0,1.3-1.76,3.87-.68,7.06,1.5,10.58,2,3.18,4.72,5,7.69,6.8,4,2.43,8.55,3.48,12.86,5.12,4.68,1.78,9.56,1.88,14.32,2.74,3.7.68,7.63.27,11.46.1s7.38-.62,11.07-1a4.11,4.11,0,0,0,.89-.26c3.93-1.39,8.1-2,11.94-3.72,4.78-2.1,9.43-4.36,13.06-8.27,2-2.17,2.61-5,3.17-7.67.44-2.15-.84-4.33-2.3-7-3.14-5.76-8.79-7.75-14.27-10-2-.83-4.1-1.38-6.16-2a56.42,56.42,0,0,0-6.67-1.95c-2.18-.4-4.56.48-6.57-1.06H472c-2,1.84-4.66.55-6.92,1.36s-4.64.85-6.8,1.69c-4.15,1.62-8.43,2.86-12.31,5.31C442.53,195.53,440.31,198.79,437,201.32Zm-145.85,30a6.58,6.58,0,0,1-.43,2.44c-2,2.93-.34,5.69.75,8.09,1.75,3.83,5.07,6.29,8.87,8.28,4.16,2.17,8.58,3.43,12.9,5.07,4.69,1.79,9.56,1.82,14.32,2.72,3.54.66,7.3.26,11,.09s7.38-.63,11.07-1c.33,0,.74.08,1-.09,1.86-1.34,4.19-1.08,6.22-1.88s4.18-1.19,6.14-2.07c4.74-2.13,9.45-4.37,13-8.37,2.52-2.83,3.27-7.34,2.11-11.31a14.88,14.88,0,0,0-6.37-8.4,51.87,51.87,0,0,0-10.75-5.48c-6.17-2.42-12.66-3.48-19.16-4.33-2.95-.39-6-.07-9-.07-2.33,0-5-.74-6.9.19-2.27,1.12-4.5.23-6.58,1s-4.54,1.16-6.73,1.87c-4.23,1.37-8.48,2.7-12.37,5.1C296.6,225.4,294.21,228.75,291.15,231.27ZM-147,321.46c0,.51.11.89,0,1.16-1.75,3.87-.68,7.07,1.51,10.58,2,3.18,4.72,5,7.68,6.8,4,2.43,8.55,3.48,12.87,5.12,4.67,1.78,9.55,1.88,14.31,2.74,3.7.68,7.64.27,11.46.1s7.38-.62,11.07-1a4.11,4.11,0,0,0,.89-.26c3.94-1.39,8.1-2,12-3.72,4.78-2.1,9.42-4.36,13.06-8.27,2-2.18,2.59-5,3.16-7.67.44-2.11-.87-4.38-2.3-7-3.14-5.76-8.8-7.75-14.28-10-2-.83-4.09-1.38-6.15-2a57.55,57.55,0,0,0-6.67-1.95c-2.18-.4-4.56.48-6.57-1.06h-17c-2,1.84-4.66.55-6.93,1.36s-4.64.85-6.79,1.7c-4.15,1.62-8.44,2.84-12.31,5.31C-141.59,315.63-143.93,319-147,321.46Zm292-60.07c0,.71.28,1.59,0,2-2.44,3-.6,5.95.57,8.48,1.75,3.81,5.11,6.18,8.88,8.22a67,67,0,0,0,29.2,7.83,88,88,0,0,0,16.59-.71,73.52,73.52,0,0,0,19.7-5.65c3.62-1.6,7.22-3.51,9.66-6.71,2.58-3.39,4.55-6.94,2.55-11.68C230.7,259.82,229,257,226,255a50.83,50.83,0,0,0-11.15-5.65,84.41,84.41,0,0,0-19.19-4.27c-3.27-.41-6.65-.07-10-.07-2,0-4.42-.71-5.89.17-2.23,1.33-4.47.29-6.58,1.06S169,247.33,167,248c-4.38,1.46-8.81,2.69-12.84,5.22C150.56,255.48,148.18,258.83,145,261.39ZM-1,291.45a3.55,3.55,0,0,1,0,1.21c-1.76,3.87-.62,7,1.52,10.58,2.31,3.84,5.84,5.67,9.32,7.72,3.74,2.21,8.08,3,12.11,4.51s8.65,1.59,13,2.39c3.7.68,7.64.27,11.46.1s7.72-.63,11.57-1c.17,0,.4.07.49,0,1.77-1.59,4.19-1.55,6.2-1.8,2.46-.32,4.1-2.6,6.64-2.19,4.34-2.53,9.21-4.28,12.53-8.31,2.42-2.93,4-6.53,3.06-10.1a16.21,16.21,0,0,0-6.6-9.58,42.11,42.11,0,0,0-11.59-5.75c-5-1.42-9.75-3.8-15.14-3.26-.33,0-.77.14-1,0-2.85-2.16-6.07-.64-9.1-.92s-6.57-.8-9.41.17c-2.37.8-4.72.28-7,1.15s-4.66.8-6.8,1.68c-4.12,1.7-8.44,2.81-12.3,5.33C4.4,285.68,2.05,289-1,291.45Zm88,13.86c-4.14,5.25-9.27,7.83-14.3,10.32-3.42,1.69-7.32,2.47-11.09,3.32-4,.89-8.09,1.94-12.13,1.92-5.84,0-11.81,1.3-17.55-.87-4.26.58-8.18-1-12.13-2.07s-7.88-2.08-11.24-4.1C5,311.66.94,309.77-2,304.86c0,7-.09,12.82.06,18.59a10,10,0,0,0,1.36,4.4,21.23,21.23,0,0,0,8.94,8.22,67.53,67.53,0,0,0,29.16,7.84,84.44,84.44,0,0,0,17.08-.71,74.9,74.9,0,0,0,12-2.57A47.31,47.31,0,0,0,80.28,334c3.28-2.45,6.22-5.52,6.58-9.58C87.4,318.37,87,312.22,87,305.31ZM671,185.14c-3.44,4.61-7.56,6.71-11.59,9-5.63,3.22-12,4.17-18.07,5.76a49.3,49.3,0,0,1-10,1.05c-3.48.17-7,0-10.48,0-1,0-2.24.39-2.94-.07-2.29-1.49-4.85-.37-7.09-1s-4.82-1.22-7.17-2a63.48,63.48,0,0,1-12.37-5.07,34.17,34.17,0,0,1-9.25-7.51c0,5.53,0,10.15,0,14.78-.08,6.22,2.33,10.82,7.73,14.26a48.36,48.36,0,0,0,10.36,5.15,82.41,82.41,0,0,0,11.07,3.36,75.68,75.68,0,0,0,12.05,1,94.59,94.59,0,0,0,15.57-.78,67.43,67.43,0,0,0,11.94-2.64A45.9,45.9,0,0,0,664,214.05c4.35-3.26,7.26-7,7-12.79C670.85,196.3,671,191.32,671,185.14Zm-235,31c0,5.11,0,10.22,0,15.32,0,5.4,2.65,9.49,6.76,12.5a34.2,34.2,0,0,0,11.17,5.51c1.79.49,3.58,1,5.34,1.57a51.89,51.89,0,0,0,5.67,1.93c1.9.38,4.11-.23,5.8.48,2.15.9,4.19.52,6.25.53a107.11,107.11,0,0,0,15.58-.75,68.21,68.21,0,0,0,12-2.56,48,48,0,0,0,13.7-6.64c3.31-2.44,6.21-5.53,6.59-9.56.57-6.05.15-12.2.15-19.13-4.14,5.25-9.27,7.81-14.29,10.31-3.41,1.69-7.31,2.48-11.07,3.33a106.26,106.26,0,0,1-12.14,2,62.58,62.58,0,0,1-9,0c-2.87-.11-5.87.74-8.57-1-4.25.58-8.17-1-12.13-2.07s-7.9-2.05-11.24-4.09C443,221.64,438.92,219.81,436,216.11Zm-57.14,29.5a45.23,45.23,0,0,1-8.74,7c-4.19,2.62-8.74,3.82-13.25,5.44s-9.21,2-13.78,2.72a57.73,57.73,0,0,1-16.91,0,93.53,93.53,0,0,1-13.79-2.69c-7.4-2.27-14.52-4.81-20.19-10.36-.57-.56-.93-1.63-2.2-1.53,0,5.48,0,10.79,0,16.09,0,2.48,1.12,4.44,2.25,6.57,2.17,4.08,5.93,6,9.61,8.1s8.09,2.94,12.11,4.5,8.64,1.58,13,2.38c3.7.68,7.63.27,11.45.1s7.71-.63,11.56-1c.17,0,.4.07.49,0,1.76-1.61,4.19-1.54,6.19-1.8,2.47-.32,4.09-2.6,6.64-2.19,4.19-2.44,8.93-4.08,12.15-7.95a51.82,51.82,0,0,0,3.47-5.32ZM-148,336.34c0,5.46,0,10.93,0,16.4a12.25,12.25,0,0,0,.82,2.63,14.23,14.23,0,0,0,6.57,8.77,68.68,68.68,0,0,0,10.33,5.25c6.13,2.63,12.63,3.49,19.07,4.5,3.73.59,7.64.24,11.45.07s7.71-.62,11.57-1a3.18,3.18,0,0,0,.89-.24c3.92-1.42,8.1-2,11.93-3.73,4.42-2,9-3.9,12.3-7.58a47.93,47.93,0,0,0,4-5.83c0-6.62,0-12.77,0-18.92a.72.72,0,0,0-.22-.41,1.71,1.71,0,0,0-.35-.21c-4.53,5.08-10.27,8.31-16.58,10.56a89.85,89.85,0,0,1-20.16,4.27,55.75,55.75,0,0,1-14.43-.06c-4.76-.72-9.57-1.39-14.32-2.59a67.35,67.35,0,0,1-12.15-4.46C-141,342-145,339.85-148,336.34Zm381-61.47c-1.45,1.76-2.11,2.69-2.88,3.5-3.33,3.47-7.74,5.33-11.85,7.55-2.13,1.14-4.73,1.4-7.11,2.08s-4.8,1.28-7.19,1.87-5.14-.17-7.54,1.13c-6.17-.54-12.46,1.18-18.55-1-4.25.58-8.13-1.15-12.14-2a43.15,43.15,0,0,1-11.59-4.48c-3.54-2-7.2-4-10.15-8.34,0,6.79-.09,12.57.06,18.35a9.8,9.8,0,0,0,1.39,4.38,18,18,0,0,0,9,8.15c2.14.85,4.12,2.1,6.27,2.93s4.56,1.1,6.6,2.12a20.42,20.42,0,0,0,6.71,1.8c2.38.29,4.73.81,7.07,1a78.46,78.46,0,0,0,13.45,0A102.79,102.79,0,0,0,207.19,312c5.23-1.11,15.55-5.22,19.52-8.29,3-2.29,5.77-5.25,6.12-8.88C233.44,288.66,233,282.35,233,274.87Z" transform="translate(215 -150.71)"/><path class="cls-1" d="M822.83,459.8a60.36,60.36,0,0,1-8.78,2.27c-3.7.57-7.3,1.73-11,2.4-2.15.39-4.23,1.07-6.37,1.51a34.33,34.33,0,0,1-6.08,1c-2.27.05-4.24,1.74-6.59,1.06-1.55,1.61-4.16.24-5.67,2-4.19-.17-8.13,1.28-12.15,2.09-5.5,1.12-11.16,1.6-16.47,3.66-1.91.74-4,.48-6,1a66.6,66.6,0,0,1-8.78,1.79,55.41,55.41,0,0,0-8.85,1.62c-5.25,1.64-10.67,2.39-16,3.59-4.1.93-8.39,1.64-12.58,2.4a65,65,0,0,0-10.88,2.61c-1.9.7-4,.26-6.06,1.06-2.45,1-5.36.65-8,1.19a75.85,75.85,0,0,0-10.06,2.27c-2.27.79-4.94-.31-6.79,1.69-3.06-.1-5.87,1.21-8.83,1.59A48.07,48.07,0,0,0,638,498.2c-5.23,1.75-10.67,2.35-16,3.57-4.1,1-8.4,1.63-12.59,2.42a66.6,66.6,0,0,0-10.87,2.61c-1.88.7-4,.57-6,1.05-6.08,1.43-12.25,2.53-18.36,3.93-4.09.94-8.46,1.45-12.58,2.4-5,1.14-10.26,1.13-15,3.58-1.76.91-4,.27-6,1.09-2.45,1-5.38.61-8,1.2-3.37.75-6.83,1.22-10.11,2.16-2.57.73-5.19,1.09-7.76,1.75-2.14.54-4.54.31-6.53,1.15-2.22.93-4.38.85-6.63.89-1.54,2.26-4.62-.25-6.17,2-5.93,0-11.5,2.11-17.21,3.22-7,1.36-14.26,2-21,4.78-4.36-.18-8.5,1.29-12.64,2.18-5.31,1.13-10.81,1.56-16,3.62-1.85.75-4,.14-6.05,1.09-1.79.85-4,.77-6,1.11-1.86.32-3.71.73-5.59,1-2,.28-3.87,1.29-6.09,1.14A8.82,8.82,0,0,0,400,547.6c-1.44.88-3.09-.14-4.57,1.22-1.12,1-3.21.1-5.05,1s-4.65.23-7,1.12c-2,.76-4.8.11-6.44,1.25-2.08,1.45-4.37.17-6.43,1.58-1.51,1-3.93.42-6,1.13-2.51.87-5.41.55-8,1.18-4.89,1.17-9.88,1.89-14.74,3.07-3.06.74-6.19,1.14-9.18,2-6.94,1.91-14.2,2.27-21,4.75-1.86.68-4,.23-6.06,1.08-1.84.77-4,.75-6,1.09-1.87.32-3.73.67-5.59,1-2,.35-3.91,1.13-6.08,1.13-1.74,0-3.43,1.39-5.22,1.73-2,.38-4,.31-6.08,1-2.2.78-4.92.27-7,1.23-2.25,1.06-4.62.61-6.88,1.52-1.93.77-4.35.61-6.44,1.37s-4.51,1-6.74,1.83c-2.45,1-5.34.72-8,1.17a75.78,75.78,0,0,0-11.05,2.31,30.42,30.42,0,0,1-3.71.69,29.21,29.21,0,0,1-3.59.94A111.87,111.87,0,0,0,210,586.25c-5.14,1-10.5,1.47-15.47,3.58-1.76.75-4,.59-6,1.07-4.72,1.09-9.52,1.88-14.27,2.94-2.73.6-5.53,1.17-8.3,1.74s-5.64.82-8.41,1.45c-3.54.82-7.19,1.28-10.62,2.19s-7.05,1-10.4,2.6c-1.69.79-4,.65-6,1.08-4.75,1-9.51,2-14.27,2.94-2.79.56-5.45,1.3-8.17,2.07s-5.49.37-8,1.19c-3.36,1.08-6.84,1.09-10.21,1.89a96.42,96.42,0,0,1-9.65,2.18c-1.83.25-4.11.15-5.5,1-1.82,1.11-3.83,0-5.09,1-1.91,1.47-3.93.21-5.67.9-5,2-10.47,1.62-15.41,3.83-1.6.72-3.68.35-5.57,1-2.37.82-5.35.17-7.46,1.28-2.4,1.26-4.93.74-7.35,1.59a75.6,75.6,0,0,1-8.23,1.87c-2.78.62-5.66.77-8.43,1.42-3.53.84-7.2,1.24-10.62,2.18s-7.24.62-10.32,2.78c-4.2-.23-8.13,1.29-12.15,2.08-5.52,1.08-11.11,1.86-16.51,3.56-2.08.65-4.34.53-6.46,1.3a30.26,30.26,0,0,1-5.18.93V495.12c2.77-.67,5.77-1.47,8.8-2.1,5.82-1.21,11.74-1.88,17.41-3.84,1.91-.65,4-.1,6.07-1.07,1.78-.85,4-.77,6-1.11,1.86-.32,3.72-.73,5.59-1,2-.28,4.1-.77,6-1.22,3.19-.74,6.38-1.45,9.61-2.09,3.08-.61,6.28-1,9.23-1.88,5.25-1.52,10.88-1.4,15.89-3.83,4.35.18,8.47-1.35,12.64-2.17,5.65-1.11,11.44-1.6,17-3.58a23.14,23.14,0,0,1,6.49-1.17,48.77,48.77,0,0,0,7.53-1.34c2.53-.5,5.19-.94,7.74-1.67,2.39-.68,4.83-1.1,7.23-1.87s5.36-.69,8-1.24,5.29-.66,7.8-1.68c1.9-.77,4-.53,6-1.09,4.35-1.19,8.87-1.69,13.27-3,2-.6,4.35-.73,6.52-1.19,5.22-1.08,10.54-1.84,15.63-3.36,2.26-.67,4.63-.44,6.85-1.53,1.77-.87,4-.77,6-1.11,1.87-.32,3.73-.66,5.59-1,2-.37,3.92-1.12,6.09-1.13,1.73,0,3.44-1.6,5.2-1.69,2.27-.13,4.37-.83,6.56-1.16,6.09-.93,12.21-1.94,18.21-3.22s12.29-2.4,18.35-3.91c5.29-1.33,10.78-1.69,15.93-3.75,2.3-.92,5-.87,7.53-1.12,2.84-.27,5.51-1.41,8.27-1.7,4-.42,7.72-1.61,11.55-2.42,5.5-1.15,11.16-1.57,16.46-3.66,1.9-.75,4-.12,6.06-1.1s5.15-.1,6.89-1.32c2.09-1.47,4.76.43,6.3-1.82,4.37.25,8.38-1.65,12.66-2.07,3.43-.33,7.1-.64,10.08-2.13,2.29-1.15,5,.34,6.77-1.8,4.67.1,9.07-1.61,13.64-2.24,3.56-.49,7.39-.87,10.86-2.62,1.53-.78,3.66-.36,5.56-1,2.35-.83,5.33-.18,7.46-1.28,2.4-1.24,5.24.17,7.25-1.84,6.08-.06,11.69-2.63,17.75-3.17,4.93-.44,9.85-1.88,14.73-3,1.54-.35,3.14-.43,4.59-.92a24.08,24.08,0,0,1,4.11-1,63.77,63.77,0,0,0,10.59-2.18c2.57-.84,5.21-1,7.77-1.73,3.92-1.06,8-1.55,11.86-2.78,1.95-.62,4,0,6-1.12,1.67-1,4-.81,6-1.13,2.19-.34,4.73-.1,6.49-1.15s4.32.07,5.77-1.85c4.37.25,8.48-1.29,12.64-2.14,5.8-1.17,11.88-1.28,17.37-3.86,4.2.19,8.13-1.29,12.16-2.08,5.51-1.08,11.1-1.84,16.5-3.57,2.07-.66,4.32-.64,6.46-1.28,1.63-.48,3.41.16,5.13-1,1.21-.78,3.06.32,4.64-.9,1.31-1,3.27-.19,5.09-.9a23.44,23.44,0,0,1,6.47-1.25c4-.3,7.57-2.43,11.61-2.17,1.66-2,4.25-.25,6.34-1.72,1.63-1.14,4.39-.51,6.45-1.23,3.56-1.25,7.34-1.42,10.88-2.7,1.92-.69,4,0,6.05-1.11,1.7-.93,4-.8,6-1.12,2.19-.34,4.67-.15,6.51-1.14s4.27,0,5.75-1.86c4.37.26,8.38-1.64,12.66-2.1a65.13,65.13,0,0,0,10.89-2.62c2-.58,4.26.45,6-1.28,6-.32,11.72-2.71,17.76-3,3.33-1.92,7.26-1.57,10.82-2.82,2.1-.73,4.68-.53,7-1.13s5.12-.06,7-1.22c2.24-1.41,5,.32,6.78-1.82,4.26.58,8-1.75,12.15-2.18a42.92,42.92,0,0,0,8.69-1.85c2.68-.86,5.67-.4,8.17-2,4.27.6,8-1.85,12.17-2.13,2.89-.19,5.68-1.54,8.66-2,2.73-.41,5.69-.28,8.19-1.88,4.26.59,8-1.77,12.16-2.14a61.75,61.75,0,0,0,10.62-2.08c3.42-.94,7.24-.62,10.32-2.78,4.19.18,8.13-1.29,12.15-2.09,5.51-1.1,11.13-1.7,16.49-3.6a29.66,29.66,0,0,1,5.57-.86Z" transform="translate(215 -150.71)"/><path class="cls-2" d="M820.39,312.88c-3.67.67-7.8,1.07-11.68,2.28-1.58.49-3.15.45-4.6.92s-2.74.66-4.1,1c-4.09,1.05-8.26,1.86-12.38,2.56s-8,1.69-12,2.53c-5.79,1.22-11.72,1.89-17.41,3.75-2.53.82-5.37.7-8.05,1.1-1.71.25-3.65.23-5,1.07-2.3,1.41-4.91.66-7.3,1.76-2.21,1-5.12.44-7.49,1.24-3.11,1.06-6.53.8-9.45,2.51-1.8,1-4.25-.38-5.92,1.4-6.06.15-11.72,2.64-17.75,3.06a14.33,14.33,0,0,0-5.3,1.63c-1.67.86-3.5-.43-5.14.94-1.46,1.22-3.57.2-5.51,1.18-2.28,1.15-5.31.74-8,1.22-3.7.65-7.54,1.07-11,2.42-2.12.83-4.66-.52-6.35,1.55-6,.22-11.89,1.94-17.7,3.23-5.29,1.17-10.66,2.35-16,3.54-4.1.93-8.39,1.66-12.59,2.39a71.55,71.55,0,0,0-10.9,2.57c-1.94.67-4,0-6,1.14-1.68,1-4,.81-6,1.13-2.19.34-4.65.17-6.51,1.14s-4.25.07-5.74,1.86c-4-.13-7.8,1.25-11.67,2-5.36,1.07-10.9,1.44-16,3.68-1.77.79-3.62.07-5.57,1.09-2.25,1.18-5.3.76-8,1.23-3.7.65-7.54,1.05-11,2.41-2.13.84-4.67-.51-6.35,1.56-4.67-.1-9.14,1.43-13.63,2.24-5.3,1-10.9,1.27-15.89,3.76-4.19-.19-8.13,1.29-12.15,2.08-5.51,1.09-11.15,1.7-16.48,3.64-1.93.7-4.25-.42-6,1.28-6,.28-11.87,2-17.7,3.24-5.29,1.14-10.66,2.34-15.95,3.54a97,97,0,0,1-12.61,2.3,36.53,36.53,0,0,0-9.06,2.23c-2.27.84-4.94-.31-6.79,1.69-2.66-.69-5.08.67-7.56,1.13-2.23.42-4.76.25-6.7,1.87-4.2-.19-8.15,1.21-12.15,2.1-4.58,1-9.45.73-13.78,2.88-4.26-.56-8,1.78-12.15,2.18a46.71,46.71,0,0,0-8.68,1.86c-2.7.82-5.67.42-8.18,2-4.27-.58-8,1.75-12.15,2.18a42.92,42.92,0,0,0-8.69,1.85c-2.68.86-5.67.4-8.17,2-4.27-.6-8,1.73-12.16,2.17a42.16,42.16,0,0,0-8.68,1.85c-2.68.89-5.68.38-8.18,2-5.66-.31-10.77,2.28-16.22,3.21-5.64,1-11.57,1.17-16.88,3.79-4.37-.26-8.47,1.32-12.64,2.14-7.5,1.49-15.25,2-22.46,4.86-4.36-.2-8.5,1.25-12.63,2.17-5.32,1.17-10.86,1.46-16,3.6-1.87.78-4,.5-6,1a71.39,71.39,0,0,1-8.77,1.81,48.17,48.17,0,0,0-8.87,1.6c-5.23,1.75-10.67,2.35-16,3.57a113.4,113.4,0,0,1-12.6,2.36c-3,.35-5.91,1.87-9.11,2.13-2.28.19-4.52,1.68-6.75,1.6-2.68-.09-5,1-7.57,1.26-2.24.24-4.58,1.45-6.71,1.68-4.29.46-8.46,1.51-12.62,2.34-7.5,1.49-15.24,2-22.46,4.86-4.35-.18-8.5,1.27-12.63,2.17-5.32,1.16-10.83,1.55-16,3.63-1.85.75-4,.11-6,1.09-1.78.86-4,.77-6,1.11-1.87.32-3.72.73-5.59,1-2,.27-4.1.77-6,1.22-3.19.74-6.39,1.45-9.61,2.08s-6.28,1-9.23,1.89c-5.25,1.52-10.79,1.62-15.93,3.73-2.28.93-5,.7-7.54,1.13a20.1,20.1,0,0,0-3.09,1L-208.28,333.22-150,321.1c-1.47,3.44-1,7-1,10.44s0,7,0,10.5v11a12.47,12.47,0,0,0,2.13,6.62c1.8,2.94,3.83,5.79,6.94,7.25,2.79,1.31,4.79,4.27,8.29,4.09,4.16,3.09,9.48,2.8,14,4.85a1.76,1.76,0,0,0,.44.15c3.44.66,21.39,1.84,24,.87,2.42-.88,4.92-.26,7.09-1s4.56-.91,6.74-1.81,4.45-1.3,6.64-2.07a35.25,35.25,0,0,0,16.27-11.24A12,12,0,0,0-56,353.29c0-9.17,0-18.34,0-27.5,0-2.76-1.29-5-2.83-7.35a22.83,22.83,0,0,0-7.5-7.27A37.81,37.81,0,0,0-75.11,307c-.45-.13-.76-.75-1.23-1.24l71.9-14.3c-.18,2.7-.5,5.53-.53,8.37-.08,7.33.1,14.66-.08,22A15.58,15.58,0,0,0-.86,332.55a28.72,28.72,0,0,0,7.09,5.64,52.64,52.64,0,0,0,11,4.83A97.3,97.3,0,0,0,31,346.2c5.26.94,10.42.6,15.62.77a55.49,55.49,0,0,0,15.63-2.15c4.56-1.18,9.37-2,13.5-4.78,3.16-2.1,6.56-3.73,9.33-6.5a15.93,15.93,0,0,0,4.94-12c-.06-8.16-.15-16.33,0-24.49.1-4.11-1.6-7.38-4-10.38-3-3.84-7.78-6.7-13.37-8.7A17.06,17.06,0,0,1,70,276.39l.11-.9c24-4.33,47.87-9.59,71.58-14.07a60.92,60.92,0,0,0-.65,6.11c-.07,8,.13,16-.1,24a15.09,15.09,0,0,0,3.35,10.12c3.52,4.41,8.31,7.16,13.52,9.47,4.73,2.1,9.78,2.9,14.55,4.72a6,6,0,0,0,1.43.17c6.67.76,13.36,1.47,20.08,1a80.46,80.46,0,0,0,25.17-5.6,36.3,36.3,0,0,0,13.26-9.09,13.54,13.54,0,0,0,3.65-9c.17-9.16,0-18.33.09-27.5,0-3.38-1.6-6.12-3.44-8.55a22.61,22.61,0,0,0-7.32-6.31,59.7,59.7,0,0,0-8.36-4c-.46-.17-.77-.74-1.38-1.36,24.46-4.46,48.3-9.64,72-14.17-.17,2.66-.49,5.5-.52,8.33-.08,7.33.13,14.67-.09,22a15.17,15.17,0,0,0,3.84,10.41c3.52,4.19,8.25,6.65,13.23,9,4.72,2.22,9.89,2.61,14.51,4.82.14.07.33,0,.5,0,3.86.33,7.72.8,11.59,1a61.12,61.12,0,0,0,11.48-.08c4.06-.6,8.28-.71,12.15-2s7.8-1.87,11.41-3.84c4-2.19,8-4.25,11.4-7.51a15.62,15.62,0,0,0,5-12c-.05-8.17-.14-16.34,0-24.5.1-4.1-1.61-7.38-3.94-10.37-3-3.85-7.82-6.74-13.36-8.72A17.18,17.18,0,0,1,362,216.4l.09-.91c24.05-4.32,47.88-9.6,71.59-14.07-.22,2-.62,4.06-.64,6.09-.07,8,.14,16-.1,24a15.1,15.1,0,0,0,3.34,10.12c3.51,4.41,8.31,7.17,13.51,9.48,4.73,2.1,9.78,2.91,14.56,4.71a5.94,5.94,0,0,0,1.42.18c5.85.58,11.69,1.49,17.58,1,2.38-.21,4.74.59,7.18-.8,1.86-1.05,4.39.22,6.68-.73,2.13-.89,4.61-.89,6.9-1.47a29.54,29.54,0,0,0,6.15-2c5.7-2.89,11.42-5.93,15.31-11.17a12.65,12.65,0,0,0,2.45-7.46q0-13.75,0-27.5c0-3.53-1.71-6.38-3.74-8.93a22.6,22.6,0,0,0-7-5.95,59.28,59.28,0,0,0-8.37-4c-.46-.16-.78-.73-1.4-1.33,24.46-4.52,48.31-9.65,72.67-14.34-1.63,2.88-1.17,5.94-1.18,8.95,0,7.17.15,14.34-.07,21.5a15,15,0,0,0,3.83,10.41c3.52,4.2,8.25,6.66,13.22,9,4.72,2.23,9.9,2.61,14.52,4.82.13.07.33,0,.49,0,3.86.33,7.72.8,11.59,1s7.74.52,11.48-.09c4.2-.68,8.51-.87,12.6-2.08a73.72,73.72,0,0,0,11.38-3.89,39.11,39.11,0,0,0,11-7.34,16,16,0,0,0,5-12c0-8.17-.14-16.34,0-24.5.1-4.1-1.6-7.38-3.93-10.38-3-3.82-7.91-6.79-13.36-8.73A18.18,18.18,0,0,1,654,156.4c0-.35.06-.67.09-1l7.54-1.28ZM755,270.47c0-4.5-.12-9,0-13.48a10.28,10.28,0,0,0-1.57-5.84,27,27,0,0,0-9.44-9.31c-3.54-2-7.37-3.21-10.88-5.15A10.15,10.15,0,0,0,731,236a28.9,28.9,0,0,0-3.59-1c-1.3-.18-2.79.29-3.92-.19-3-1.28-6.17-1.4-9.24-1.72a75.75,75.75,0,0,0-13.47,0,113.41,113.41,0,0,0-12.65,2c-1.81.34-3.51,1.2-5.3,1.65A43.65,43.65,0,0,0,669,243.07c-5.36,3.64-9.21,8.33-9,15.48.22,8,.2,16,0,24-.11,4.64,1.74,8.29,4.67,11.57,4.55,5.1,10.63,7.69,16.88,9.85,2.78.95,5.94,1.26,8.55,2.29,3.11,1.24,6.53-.43,9.25,1.77,5.49,0,11.09.65,16.45-.2a134.4,134.4,0,0,0,13.82-2.63c5.87-1.56,16.14-6.31,20.25-10.34A16.4,16.4,0,0,0,755,282C754.91,278.13,755,274.3,755,270.47ZM317,360.74c0-4-.17-8,0-12,.27-5-1.84-8.93-5.16-12.36-4.22-4.36-13.29-8.85-19.62-10.52-2.24-.6-4.74-.13-6.52-1.06-2.16-1.11-4.51.07-6.08-1-2.12-1.39-4.16-.85-6.17-.79-5,.15-10-.49-15.11.76-3.47.85-7.09,1.33-10.62,2.14-8.11,1.86-15.4,5.14-21.39,11.11A14.44,14.44,0,0,0,222,347.77c0,8.16.16,16.32-.06,24.47a16.43,16.43,0,0,0,4.83,12c4.6,5,10.67,7.57,16.93,9.75,1.48.51,3.08.78,4.51,1.21s3,.26,4.07.92a6.58,6.58,0,0,0,4.65.82c1.74-.22,3,1,4.58,1.05,3.17,0,6.34.13,9.49,0s6.21.81,9.08-1c4.08.48,7.8-1.11,11.66-2a42.43,42.43,0,0,0,20.54-10.74A15.09,15.09,0,0,0,317,372.73C317,368.74,317,364.74,317,360.74ZM25,420.49c0-4.5-.11-9,.05-13.49a10.18,10.18,0,0,0-1.56-5.84,27,27,0,0,0-9.44-9.32c-3.54-2-7.36-3.22-10.88-5.14A11.39,11.39,0,0,0,1,386a28.75,28.75,0,0,0-3.58-1c-1.3-.18-3,.43-3.87-.22-1.42-1.15-2.82-.55-4.2-.82-1.54-.29-3.08-1-4.58-.93-6,.38-12.12-1.14-18.08.9-1.62.55-3.37-.28-5.18.84-1.45.91-3.82-.26-5.47,1.2-4.41-.06-8,2.4-11.78,4.09a30.51,30.51,0,0,0-10.41,7.5,13.64,13.64,0,0,0-3.75,8.94c-.18,9.32,0,18.65-.1,28a11.47,11.47,0,0,0,1.53,5.36c3,5.75,8.5,8.84,13.86,12,2.36-.2,4.07,1.48,6.06,2.26s4.48.21,6.21,1.89c5.24.5,10.34,2.05,15.65,2,3.49,0,7,0,10.49,0a7.07,7.07,0,0,0,2.48,0c4.25-1.77,8.89-1.56,13.31-2.77,5.83-1.61,16.28-6.27,20.6-10.71a16,16,0,0,0,4.86-12C25,428.48,25,424.48,25,420.49ZM609,300.68c0-4.66.12-9.33-.06-14a10.88,10.88,0,0,0-1.3-5.41,27.72,27.72,0,0,0-9.43-9.4c-3.53-2-7.24-3.43-10.9-5.07a18.06,18.06,0,0,0-2.16-.81c-2.46-.76-5.29-.44-7.48-1.26s-4.52.17-6.08-.88c-2.27-1.54-4.47-.64-6.67-.81-3-.23-6-.06-9-.06-1.16,0-2.77-.45-3.39.14-1.36,1.29-2.81.61-4.19.87s-3.06.65-4.58,1c-2.28.52-4.58,1-6.84,1.57a43.48,43.48,0,0,0-14.23,6.56c-5.18,3.68-9.13,8.46-8.79,15.71.36,7.81.24,15.65,0,23.47-.13,4.82,1.79,8.59,4.86,12,4.47,5,10.41,7.57,16.49,9.6,4.73,1.58,9.55,3.32,14.71,3.1.5,0,1.15-.21,1.47,0,2.86,2.14,6.08.63,9.11.91s6.46.65,9.45-.08c4.57-1.12,9.25-1.43,13.8-2.74,7.67-2.21,14.68-5.27,20.5-10.89A14.7,14.7,0,0,0,609,313.16ZM76,390.4c0,4.66-.12,9.33.06,14a12.67,12.67,0,0,0,1.33,5.41c3.1,5.69,8.28,9.36,14,11.8,3.46,1.49,6.92,3.82,11.07,3.41,1.19,2,3.54.56,5.3,1.81,1.46,1.05,4.24,0,6.14.72s3.88.37,5.8.44a89.37,89.37,0,0,0,25.75-2.85c8.45-2.2,15.94-5.66,22-12a12.63,12.63,0,0,0,3.48-8.52c.25-9.32.16-18.64,0-28a10.48,10.48,0,0,0-1.35-5.39,28.27,28.27,0,0,0-9.44-9.36c-3.53-2-7.33-3.27-10.9-5.1a19.92,19.92,0,0,0-2.17-.77,17.76,17.76,0,0,0-7.58-1c-1.22-1.75-3-.71-4.58-1a36,36,0,0,0-5.08-1,94.49,94.49,0,0,0-28.25,2.83,69.92,69.92,0,0,0-10.85,4,31.25,31.25,0,0,0-10.15,6.93A15.57,15.57,0,0,0,76,377.92C76,382.08,76,386.24,76,390.4Zm387-59.66c0-4-.17-8,0-12,.27-5-1.84-8.93-5.16-12.36-4.22-4.36-13.3-8.85-19.63-10.52-2.24-.6-4.73-.13-6.51-1.06-2.17-1.12-4.52.08-6.08-1-2.13-1.4-4.16-.85-6.17-.79-5,.15-10-.49-15.11.76-3.47.85-7.09,1.33-10.63,2.14-8.11,1.86-15.4,5.14-21.38,11.11A14.46,14.46,0,0,0,368,317.77c0,8.16.16,16.32-.06,24.47-.13,4.82,1.74,8.63,4.83,12,4.6,5,10.67,7.57,16.93,9.74,1.48.52,3.08.78,4.52,1.21s3,.26,4.06.92a6.58,6.58,0,0,0,4.65.82c1.74-.22,3,1,4.59,1.05,3.16,0,6.33.13,9.49,0s6.21.81,9.07-1c4.08.48,7.81-1.1,11.66-2a42.36,42.36,0,0,0,20.54-10.75A15,15,0,0,0,463,342.73C463,338.73,463,334.74,463,330.74Z" transform="translate(215 -150.71)"/><path class="cls-3" d="M-53.08,495.78V636.07q-78.78-78.8-158.84-158.84V336.94Z" transform="translate(215 -150.71)"/><path class="cls-2" d="M583.16,171.23c3.27-2.74,5.59-5.92,9-8,3.89-2.4,8.15-3.72,12.38-5.1,2.19-.72,4.53-1,6.72-1.87s4.31.09,6.58-1c1.88-.93,4.57-.19,6.9-.19,3,0,6-.32,9,.07,6.5.85,13,1.91,19.16,4.33a52.54,52.54,0,0,1,10.74,5.48,14.84,14.84,0,0,1,6.37,8.4c1.16,4,.41,8.48-2.11,11.31-3.57,4-8.26,6.26-13,8.38-2,.87-4.13,1.26-6.14,2.06s-4.36.53-6.21,1.89c-.22.16-.64.05-1,.08-3.69.33-7.38.8-11.07,1s-7.43.59-11-.09c-4.75-.92-9.63-.89-14.32-2.72-4.3-1.67-8.74-2.9-12.9-5.07-3.81-2-7.11-4.46-8.86-8.28-1.1-2.39-2.74-5.16-.75-8.09A6.68,6.68,0,0,0,583.16,171.23Z" transform="translate(215 -150.71)"/><path class="cls-2" d="M437,201.32c3.31-2.53,5.53-5.79,9-8,3.88-2.45,8.16-3.69,12.31-5.31,2.16-.84,4.61-.91,6.8-1.69s4.9.48,6.92-1.36h17c2,1.54,4.39.66,6.57,1.06a56.42,56.42,0,0,1,6.67,1.95c2.06.64,4.17,1.19,6.16,2,5.48,2.28,11.13,4.27,14.27,10,1.46,2.68,2.74,4.86,2.3,7-.56,2.72-1.14,5.5-3.17,7.67-3.63,3.91-8.28,6.17-13.06,8.27-3.84,1.7-8,2.33-11.94,3.72a4.11,4.11,0,0,1-.89.26c-3.69.35-7.38.81-11.07,1s-7.76.58-11.46-.1c-4.76-.86-9.64-1-14.32-2.74-4.31-1.64-8.85-2.69-12.86-5.12-3-1.8-5.71-3.62-7.69-6.8-2.18-3.52-3.26-6.71-1.5-10.58C437.11,202.34,437,202,437,201.32Z" transform="translate(215 -150.71)"/><path class="cls-2" d="M291.15,231.27c3.06-2.52,5.45-5.87,9-8.08,3.89-2.4,8.14-3.73,12.37-5.1,2.19-.71,4.54-1,6.73-1.87s4.31.09,6.58-1c1.87-.93,4.57-.19,6.9-.19,3,0,6-.32,9,.07,6.5.85,13,1.91,19.16,4.33a51.87,51.87,0,0,1,10.75,5.48,14.88,14.88,0,0,1,6.37,8.4c1.16,4,.41,8.48-2.11,11.31-3.56,4-8.27,6.24-13,8.37-2,.88-4.14,1.28-6.14,2.07s-4.36.54-6.22,1.88c-.22.17-.63.06-1,.09-3.69.33-7.37.8-11.07,1s-7.42.57-11-.09c-4.76-.9-9.63-.93-14.32-2.72-4.32-1.64-8.74-2.9-12.9-5.07-3.8-2-7.12-4.45-8.87-8.28-1.09-2.4-2.74-5.16-.75-8.09A6.58,6.58,0,0,0,291.15,231.27Z" transform="translate(215 -150.71)"/><path class="cls-2" d="M-147,321.46c3.07-2.49,5.41-5.83,9-8.09,3.87-2.47,8.16-3.69,12.31-5.31,2.15-.85,4.6-.92,6.79-1.7s4.91.48,6.93-1.36h17c2,1.54,4.39.66,6.57,1.06A57.55,57.55,0,0,1-81.79,308c2.06.64,4.16,1.19,6.15,2,5.48,2.28,11.14,4.27,14.28,10,1.43,2.63,2.74,4.9,2.3,7-.57,2.71-1.14,5.49-3.16,7.67-3.64,3.91-8.28,6.17-13.06,8.27-3.85,1.69-8,2.33-12,3.72a4.11,4.11,0,0,1-.89.26c-3.69.35-7.37.81-11.07,1s-7.76.58-11.46-.1c-4.76-.86-9.64-1-14.31-2.74-4.32-1.64-8.86-2.69-12.87-5.12-3-1.8-5.7-3.62-7.68-6.8-2.19-3.51-3.26-6.71-1.51-10.58C-146.89,322.35-147,322-147,321.46Z" transform="translate(215 -150.71)"/><path class="cls-2" d="M145,261.39c3.18-2.56,5.56-5.91,9.12-8.15,4-2.53,8.46-3.76,12.84-5.22,2.06-.69,4.23-1,6.26-1.79s4.35.27,6.58-1.06c1.47-.88,3.89-.17,5.89-.17,3.33,0,6.71-.34,10,.07a84.41,84.41,0,0,1,19.19,4.27A50.83,50.83,0,0,1,226,255c3,2.05,4.69,4.83,6.1,8.17,2,4.74,0,8.29-2.55,11.68-2.44,3.2-6,5.11-9.66,6.71a73.52,73.52,0,0,1-19.7,5.65,88,88,0,0,1-16.59.71,67,67,0,0,1-29.2-7.83c-3.77-2-7.13-4.41-8.88-8.22-1.17-2.53-3-5.45-.57-8.48C145.28,263,145,262.1,145,261.39Z" transform="translate(215 -150.71)"/><path class="cls-2" d="M-1,291.45c3.05-2.44,5.4-5.77,8.93-8.06,3.86-2.52,8.18-3.63,12.3-5.33,2.14-.88,4.64-.85,6.8-1.68s4.62-.35,7-1.15c2.84-1,6.27-.45,9.41-.17s6.25-1.24,9.1.92c.21.16.65,0,1,0,5.39-.54,10.19,1.84,15.14,3.26A42.11,42.11,0,0,1,80.24,285a16.21,16.21,0,0,1,6.6,9.58c.92,3.57-.64,7.17-3.06,10.1-3.32,4-8.19,5.78-12.53,8.31-2.54-.41-4.18,1.87-6.64,2.19-2,.25-4.43.21-6.2,1.8-.09.08-.32,0-.49,0-3.85.33-7.71.8-11.57,1s-7.76.58-11.46-.1c-4.31-.8-8.78-.79-13-2.39s-8.37-2.3-12.11-4.51c-3.48-2-7-3.88-9.32-7.72-2.14-3.55-3.28-6.71-1.52-10.58A3.55,3.55,0,0,0-1,291.45Z" transform="translate(215 -150.71)"/><path class="cls-1" d="M87,305.31c0,6.91.4,13.06-.14,19.11-.36,4.06-3.3,7.13-6.58,9.58a47.31,47.31,0,0,1-13.7,6.63,74.9,74.9,0,0,1-12,2.57,84.44,84.44,0,0,1-17.08.71,67.53,67.53,0,0,1-29.16-7.84,21.23,21.23,0,0,1-8.94-8.22,10,10,0,0,1-1.36-4.4C-2.09,317.68-2,311.9-2,304.86c2.94,4.91,7,6.8,10.56,9,3.36,2,7.39,3.07,11.24,4.1s7.87,2.65,12.13,2.07c5.74,2.17,11.71.83,17.55.87,4,0,8.14-1,12.13-1.92,3.77-.85,7.67-1.63,11.09-3.32C77.73,313.14,82.86,310.56,87,305.31Z" transform="translate(215 -150.71)"/><path class="cls-1" d="M671,185.14c0,6.18-.15,11.16,0,16.12.22,5.76-2.69,9.53-7,12.79a45.9,45.9,0,0,1-13.29,6.48,67.43,67.43,0,0,1-11.94,2.64,94.59,94.59,0,0,1-15.57.78,75.68,75.68,0,0,1-12.05-1,82.41,82.41,0,0,1-11.07-3.36,48.36,48.36,0,0,1-10.36-5.15c-5.4-3.44-7.81-8-7.73-14.26.06-4.63,0-9.25,0-14.78a34.17,34.17,0,0,0,9.25,7.51,63.48,63.48,0,0,0,12.37,5.07c2.35.75,4.78,1.28,7.17,2s4.8-.47,7.09,1c.7.46,2,.07,2.94.07,3.5,0,7,.13,10.48,0a49.3,49.3,0,0,0,10-1.05c6.11-1.59,12.44-2.54,18.07-5.76C663.44,191.85,667.56,189.75,671,185.14Z" transform="translate(215 -150.71)"/><path class="cls-1" d="M436,216.11c2.92,3.7,7,5.53,10.58,7.73,3.34,2,7.39,3.07,11.24,4.09S465.7,230.58,470,230c2.7,1.71,5.7.86,8.57,1a62.58,62.58,0,0,0,9,0,106.26,106.26,0,0,0,12.14-2c3.76-.85,7.66-1.64,11.07-3.33,5-2.5,10.15-5.06,14.29-10.31,0,6.93.42,13.08-.15,19.13-.38,4-3.28,7.12-6.59,9.56a48,48,0,0,1-13.7,6.64,68.21,68.21,0,0,1-12,2.56A107.11,107.11,0,0,1,477,254c-2.06,0-4.1.37-6.25-.53-1.69-.71-3.9-.1-5.8-.48a51.89,51.89,0,0,1-5.67-1.93c-1.76-.57-3.55-1.08-5.34-1.57a34.2,34.2,0,0,1-11.17-5.51c-4.11-3-6.77-7.1-6.76-12.5C436,226.33,436,221.22,436,216.11Z" transform="translate(215 -150.71)"/><path class="cls-1" d="M378.86,245.61v20.12a51.82,51.82,0,0,1-3.47,5.32c-3.22,3.87-8,5.51-12.15,7.95-2.55-.41-4.17,1.87-6.64,2.19-2,.26-4.43.19-6.19,1.8-.09.08-.32,0-.49,0-3.85.33-7.7.8-11.56,1s-7.75.58-11.45-.1c-4.31-.8-8.79-.76-13-2.38s-8.33-2.35-12.11-4.5-7.44-4-9.61-8.1c-1.13-2.13-2.26-4.09-2.25-6.57,0-5.3,0-10.61,0-16.09,1.27-.1,1.63,1,2.2,1.53,5.67,5.55,12.79,8.09,20.19,10.36a93.53,93.53,0,0,0,13.79,2.69,57.73,57.73,0,0,0,16.91,0c4.57-.68,9.29-1.11,13.78-2.72s9.06-2.82,13.25-5.44A45.23,45.23,0,0,0,378.86,245.61Z" transform="translate(215 -150.71)"/><path class="cls-1" d="M-148,336.34c3,3.51,7,5.68,10.78,7.45a67.35,67.35,0,0,0,12.15,4.46c4.75,1.2,9.56,1.87,14.32,2.59a55.75,55.75,0,0,0,14.43.06,89.85,89.85,0,0,0,20.16-4.27c6.31-2.25,12-5.48,16.58-10.56a1.71,1.71,0,0,1,.35.21.72.72,0,0,1,.22.41c0,6.15,0,12.3,0,18.92a47.93,47.93,0,0,1-4,5.83c-3.34,3.68-7.88,5.55-12.3,7.58-3.83,1.75-8,2.31-11.93,3.73a3.18,3.18,0,0,1-.89.24c-3.86.35-7.71.81-11.57,1s-7.72.52-11.45-.07c-6.44-1-12.94-1.87-19.07-4.5a68.68,68.68,0,0,1-10.33-5.25,14.23,14.23,0,0,1-6.57-8.77,12.25,12.25,0,0,1-.82-2.63C-148,347.27-148,341.8-148,336.34Z" transform="translate(215 -150.71)"/><path class="cls-1" d="M233,274.87c0,7.48.44,13.79-.17,20-.35,3.63-3.15,6.59-6.12,8.88-4,3.07-14.29,7.18-19.52,8.29a102.79,102.79,0,0,1-12.66,1.87,78.46,78.46,0,0,1-13.45,0c-2.34-.2-4.69-.72-7.07-1a20.42,20.42,0,0,1-6.71-1.8c-2-1-4.45-1.28-6.6-2.12s-4.13-2.08-6.27-2.93a18,18,0,0,1-9-8.15,9.8,9.8,0,0,1-1.39-4.38c-.15-5.78-.06-11.56-.06-18.35,2.95,4.33,6.61,6.36,10.15,8.34A43.15,43.15,0,0,0,165.74,288c4,.88,7.89,2.61,12.14,2,6.09,2.18,12.38.46,18.55,1,2.4-1.3,5.12-.53,7.54-1.13s4.81-1.19,7.19-1.87,5-.94,7.11-2.08c4.11-2.22,8.52-4.08,11.85-7.55C230.89,277.56,231.55,276.63,233,274.87Z" transform="translate(215 -150.71)"/><path d="M755,270.47c0,3.83-.09,7.66,0,11.48a16.4,16.4,0,0,1-5.21,12.88c-4.11,4-14.38,8.78-20.25,10.34a134.4,134.4,0,0,1-13.82,2.63c-5.36.85-11,.2-16.45.2-2.72-2.2-6.14-.53-9.25-1.77-2.61-1-5.77-1.34-8.55-2.29-6.25-2.16-12.33-4.75-16.88-9.85-2.93-3.28-4.78-6.93-4.67-11.57.21-8,.23-16,0-24-.2-7.15,3.65-11.84,9-15.48a43.65,43.65,0,0,1,13.82-6.38c1.79-.45,3.49-1.31,5.3-1.65a113.41,113.41,0,0,1,12.65-2,75.75,75.75,0,0,1,13.47,0c3.07.32,6.26.44,9.24,1.72,1.13.48,2.62,0,3.92.19a28.9,28.9,0,0,1,3.59,1,10.15,10.15,0,0,1,2.21.69c3.51,1.94,7.34,3.14,10.88,5.15a27,27,0,0,1,9.44,9.31,10.28,10.28,0,0,1,1.57,5.84C754.88,261.47,755,266,755,270.47Zm-91-18.11c0,.74.28,1.63,0,2-2.46,3-.58,5.94.57,8.47,1.74,3.82,5.12,6.17,8.89,8.22a66.78,66.78,0,0,0,29.2,7.83,88.09,88.09,0,0,0,16.59-.71,74.28,74.28,0,0,0,19.69-5.64c3.78-1.68,7.43-3.77,10-7.07,2.27-2.9,3.85-6.36,2.84-10.12a14.83,14.83,0,0,0-5.62-8.59c-3.42-2.35-6.89-4.68-11-5.85-3.89-1.09-7.5-3.17-11.71-3-1.47-1.72-3.6-.2-5.09-1-1.86-1-3.71-.9-5.62-.91-2.5,0-5,0-7.49,0-2.17,0-4.74-.74-6.39.18-2.26,1.25-4.47.28-6.58,1S688,238.33,686,239c-4.38,1.46-8.82,2.68-12.84,5.22C669.72,246.4,667.38,249.55,664,252.36Zm-1,14.75c0,5.1,0,10.21,0,15.32,0,5.39,2.65,9.48,6.76,12.5a33.79,33.79,0,0,0,11.17,5.5c1.79.49,3.57,1,5.33,1.58a51.34,51.34,0,0,0,5.68,1.93c1.9.38,4.11-.24,5.8.48,2.15.91,4.19.52,6.25.53a110.07,110.07,0,0,0,15.58-.75,68.59,68.59,0,0,0,12-2.56,48.23,48.23,0,0,0,13.7-6.64c3.31-2.43,6.21-5.53,6.59-9.55.57-6.05.15-12.2.15-19.13-4.14,5.24-9.26,7.8-14.28,10.29-3.41,1.69-7.32,2.49-11.08,3.34a105.55,105.55,0,0,1-12.14,2,62.44,62.44,0,0,1-9,0c-2.88-.11-5.88.74-8.57-1-4.26.59-8.18-1-12.13-2.07s-7.9-2-11.24-4.09C670,272.64,665.91,270.82,663,267.11Z" transform="translate(215 -150.71)"/><path d="M317,360.74c0,4,0,8,0,12a15.09,15.09,0,0,1-4.73,11.55A42.43,42.43,0,0,1,291.74,395c-3.86.87-7.58,2.46-11.66,2-2.87,1.78-6,.82-9.08,1s-6.32.06-9.49,0c-1.58,0-2.84-1.27-4.58-1.05a6.58,6.58,0,0,1-4.65-.82c-1-.66-2.68-.51-4.07-.92s-3-.7-4.51-1.21c-6.26-2.18-12.33-4.72-16.93-9.75a16.43,16.43,0,0,1-4.83-12c.22-8.15.05-16.31.06-24.47a14.44,14.44,0,0,1,4.37-10.69c6-6,13.28-9.25,21.39-11.11,3.53-.81,7.15-1.29,10.62-2.14,5.08-1.25,10.09-.61,15.11-.76,2-.06,4.05-.6,6.17.79,1.57,1,3.92-.15,6.08,1,1.78.93,4.28.46,6.52,1.06,6.33,1.67,15.4,6.16,19.62,10.52,3.32,3.43,5.43,7.34,5.16,12.36C316.83,352.75,317,356.75,317,360.74Zm-91-18.4c0,.77.19,1.38,0,1.75-2.12,3.58-.41,6.51,1.21,9.69,2,4,5.62,6,9.16,8,3.9,2.19,8.33,3.2,12.54,4.7,4.37,1.55,9,1.65,13.44,2.42,3.72.64,7.64.26,11.47.09s7.38-.62,11.07-1a3.59,3.59,0,0,0,.89-.25c3.93-1.4,8.1-2,11.94-3.73,4.77-2.11,9.44-4.34,13.07-8.26,2-2.17,2.64-4.93,3.18-7.66.42-2.11-.87-4.4-2.29-7-3.13-5.76-8.78-7.77-14.26-10.05-2-.83-4.43-.92-6.08-2.14-2.15-1.59-4.63-.31-6.86-1.68-1.71-1-4.47.35-6.46-1.21H261c-2,1.83-4.66.56-6.93,1.35s-4.63.88-6.79,1.7c-4.17,1.59-8.42,2.88-12.31,5.3C231.54,336.5,229.31,339.76,226,342.34Zm87.9,14.09c-4,4.89-8.79,7.37-13.62,9.83a47.94,47.94,0,0,1-11,3.57,66.46,66.46,0,0,1-15.6,2.17c-3.49,0-7,0-10.48,0a7.89,7.89,0,0,1-2.48,0c-4.47-1.56-9.28-1.36-13.76-2.91a85.15,85.15,0,0,1-12.83-5.21,38.77,38.77,0,0,1-9.17-7.36c0,6.31-.16,11.78.08,17.24a14.5,14.5,0,0,0,2.08,6.11c2.12,3.91,5.66,5.93,9.19,7.93,3.9,2.19,8.32,3.19,12.53,4.69,4.36,1.55,9,1.65,13.43,2.42,3.72.64,7.64.26,11.45.09s7.38-.62,11.07-1a3.59,3.59,0,0,0,.9-.22c3.91-1.44,8.09-2,11.92-3.75,4.28-1.95,8.66-3.77,12-7.22a47.72,47.72,0,0,0,4.3-5.92Z" transform="translate(215 -150.71)"/><path d="M25,420.49c0,4-.05,8,0,12a16,16,0,0,1-4.86,12c-4.32,4.44-14.77,9.1-20.6,10.71-4.42,1.21-9.06,1-13.31,2.77a7.07,7.07,0,0,1-2.48,0c-3.5,0-7,0-10.49,0-5.31,0-10.41-1.51-15.65-2-1.73-1.68-4.17-1.08-6.21-1.89s-3.7-2.46-6.06-2.26c-5.36-3.15-10.84-6.24-13.86-12A11.47,11.47,0,0,1-70,434.5c.08-9.32-.08-18.65.1-28a13.64,13.64,0,0,1,3.75-8.94,30.51,30.51,0,0,1,10.41-7.5C-52,388.4-48.41,385.94-44,386c1.65-1.46,4-.29,5.47-1.2,1.81-1.12,3.56-.29,5.18-.84,6-2,12.06-.52,18.08-.9,1.5-.09,3,.64,4.58.93,1.38.27,2.78-.33,4.2.82.82.65,2.57,0,3.87.22A28.75,28.75,0,0,1,1,386a11.39,11.39,0,0,1,2.21.7c3.52,1.92,7.34,3.15,10.88,5.14a27,27,0,0,1,9.44,9.32A10.18,10.18,0,0,1,25.05,407C24.89,411.49,25,416,25,420.49Zm-91-18c0,.74.27,1.62,0,2-1.55,2-.84,3.69-.23,5.83,1.54,5.34,5.28,8.22,9.83,10.8,8.34,4.74,17.45,6.61,26.73,7.79a61.79,61.79,0,0,0,13,0A94,94,0,0,0-4.6,427.09,61.58,61.58,0,0,0,11.87,421c2.68-1.47,5.37-3.06,7.14-5.58,2.1-3,3.83-6.34,2.7-10.13a16.61,16.61,0,0,0-5.62-8.63c-5.75-4.39-12.56-6.62-19.4-8.59A66.67,66.67,0,0,0-14,386.18c-5.58-.67-11.3-.18-17-.18-2,1.81-4.67.56-6.94,1.32s-4.62.9-6.78,1.73c-4.16,1.61-8.46,2.78-12.32,5.27C-60.49,396.6-62.92,399.89-66,402.47Zm87.89,13.85c-4,5.35-9.08,7.85-14,10.22a52.4,52.4,0,0,1-11,3.4,88,88,0,0,1-12.14,2,87.8,87.8,0,0,1-11.47,0c-3.7-.16-7.38-.63-11.07-1-.16,0-.36.06-.49,0-4.61-2.22-9.87-2.33-14.47-4.86-3.76-2.07-9.07-4.59-11.54-7.05a5.47,5.47,0,0,0-1.07-1c-.44-.25-.53-1.34-1.51-.63,0,5.28,0,10.58,0,15.89,0,2.48,1.12,4.43,2.25,6.57,2.17,4.08,5.93,6,9.61,8.1s8.09,2.94,12.1,4.5c4.17,1.62,8.65,1.58,13,2.38,3.69.68,7.63.27,11.44.1s7.71-.63,11.57-1c.16,0,.4.07.49,0,1.75-1.62,4.19-1.53,6.19-1.79,2.46-.33,4.09-2.61,6.63-2.2,4.2-2.43,8.94-4.08,12.16-7.95a50.76,50.76,0,0,0,3.47-5.32Z" transform="translate(215 -150.71)"/><path d="M609,300.68v12.48a14.7,14.7,0,0,1-4.67,11.07c-5.82,5.62-12.83,8.68-20.5,10.89-4.55,1.31-9.23,1.62-13.8,2.74-3,.73-6.31.36-9.45.08s-6.25,1.23-9.11-.91c-.32-.24-1,0-1.47,0-5.16.22-10-1.52-14.71-3.1-6.08-2-12-4.64-16.49-9.6-3.07-3.4-5-7.17-4.86-12,.22-7.82.34-15.66,0-23.47-.34-7.25,3.61-12,8.79-15.71a43.48,43.48,0,0,1,14.23-6.56c2.26-.57,4.56-1.05,6.84-1.57,1.52-.34,3.05-.7,4.58-1s2.83.42,4.19-.87c.62-.59,2.23-.14,3.39-.14,3,0,6-.17,9,.06,2.2.17,4.4-.73,6.67.81,1.56,1.05,3.9.07,6.08.88s5,.5,7.48,1.26a18.06,18.06,0,0,1,2.16.81c3.66,1.64,7.37,3.08,10.9,5.07a27.72,27.72,0,0,1,9.43,9.4,10.88,10.88,0,0,1,1.3,5.41C609.12,291.35,609,296,609,300.68Zm-90.88-18.44a4.48,4.48,0,0,1-.14,1.46c-1.85,3.9-.47,7,1.55,10.56,2.15,3.79,5.56,5.64,8.91,7.52,3.75,2.09,8.09,3,12.11,4.5,4.4,1.64,9,1.63,13.39,2.56,3.66.78,7.63.29,11.45.12s7.72-.63,11.57-1c.17,0,.4.07.49,0,1.77-1.57,4.19-1.06,6.2-1.93s4.59-1.07,6.61-2.13c4.44-2.33,9.15-4.29,12.58-8.24,3.19-3.68,4.06-9.79,1.75-13.6a21,21,0,0,0-9-8.16,68,68,0,0,0-17.49-6.08c-2.06-.45-4.27-.25-6.05-1a15.78,15.78,0,0,0-6.14-.85c-2.16,0-4.33,0-6.49,0s-4.74-.74-6.4.18c-2.35,1.3-4.74.26-7,1.21s-4.67.79-6.8,1.68c-4.11,1.7-8.44,2.81-12.29,5.34C523.52,276.63,521.25,279.85,518.12,282.24ZM517,297.12v15.32c0,5.38,2.63,9.48,6.76,12.5a34.93,34.93,0,0,0,11.18,5.5c1.78.5,3.57,1,5.34,1.57a51.89,51.89,0,0,0,5.67,1.93c1.9.38,4.1-.23,5.8.48,2.15.9,4.19.52,6.25.53a107.11,107.11,0,0,0,15.58-.75,68.59,68.59,0,0,0,12-2.56,48.11,48.11,0,0,0,13.7-6.64c3.29-2.44,6.21-5.53,6.58-9.56.57-6.06.15-12.2.15-19.13-4.14,5.25-9.27,7.82-14.29,10.31-3.41,1.69-7.32,2.48-11.08,3.33a106.26,106.26,0,0,1-12.14,2,62.58,62.58,0,0,1-9,0c-2.87-.11-5.87.74-8.57-1-4.25.58-8.17-1-12.12-2.07s-7.9-2.06-11.24-4.09C524,302.65,519.92,300.8,517,297.12Z" transform="translate(215 -150.71)"/><path d="M76,390.4c0-4.16,0-8.32,0-12.48a15.57,15.57,0,0,1,4.59-11.12,31.25,31.25,0,0,1,10.15-6.93,69.92,69.92,0,0,1,10.85-4A94.49,94.49,0,0,1,129.84,353a36,36,0,0,1,5.08,1c1.54.29,3.36-.75,4.58,1a17.76,17.76,0,0,1,7.58,1,19.92,19.92,0,0,1,2.17.77c3.57,1.83,7.37,3.08,10.9,5.1a28.27,28.27,0,0,1,9.44,9.36,10.48,10.48,0,0,1,1.35,5.39c.13,9.32.22,18.64,0,28a12.63,12.63,0,0,1-3.48,8.52c-6.08,6.36-13.57,9.82-22,12A89.37,89.37,0,0,1,119.66,428c-1.92-.07-3.79.29-5.8-.44s-4.68.33-6.14-.72c-1.76-1.25-4.11.23-5.3-1.81-4.15.41-7.61-1.92-11.07-3.41-5.68-2.44-10.86-6.11-14-11.8a12.67,12.67,0,0,1-1.33-5.41C75.88,399.73,76,395.06,76,390.4Zm4-18c0,.71.28,1.59,0,2-2.44,3-.6,5.95.57,8.48,1.75,3.81,5.11,6.18,8.88,8.22a67,67,0,0,0,29.2,7.83,88,88,0,0,0,16.59-.71,73.87,73.87,0,0,0,19.7-5.64c3.78-1.68,7.43-3.77,10-7.07,2.28-2.9,3.86-6.36,2.85-10.11a14.86,14.86,0,0,0-5.61-8.6c-3.43-2.35-6.9-4.68-11.06-5.85-3.88-1.09-7.5-3.17-11.71-3-1.46-1.72-3.6-.2-5.08-1-1.87-1-3.72-.9-5.63-.91-2.49,0-5,0-7.49,0-2.16,0-4.73-.74-6.39.18-2.25,1.25-4.47.28-6.58,1.05S104,358.33,102,359c-4.38,1.46-8.81,2.69-12.84,5.22C85.56,366.48,83.18,369.83,80,372.39Zm88,13.74c-3.44,4.63-7.57,6.72-11.6,9-5.63,3.22-12,4.17-18.06,5.76a49.3,49.3,0,0,1-10,1c-3.49.17-7,0-10.48,0-1,0-2.25.39-2.95-.07-2.29-1.49-4.84-.37-7.09-1s-4.82-1.22-7.16-2a64.42,64.42,0,0,1-12.38-5.06A36,36,0,0,1,79,386.4v14.74c0,6.71,1.94,10,7.76,14.2a39,39,0,0,0,9.94,5c10.42,3.72,16.37,4.4,23.5,4.69a75.86,75.86,0,0,0,8,0c2.7-.17,5.38-.86,8.07-.91,4-.06,7.86-1.28,11.47-2.52,4.6-1.58,9.25-3.42,13.29-6.48,4.33-3.28,7.25-7,7-12.8C167.85,397.29,168,392.32,168,386.13Z" transform="translate(215 -150.71)"/><path d="M463,330.74c0,4,0,8,0,12a15,15,0,0,1-4.73,11.54A42.36,42.36,0,0,1,437.74,365c-3.85.88-7.58,2.46-11.66,2-2.86,1.78-6,.82-9.07,1s-6.33,0-9.49,0c-1.59,0-2.85-1.27-4.59-1.05a6.58,6.58,0,0,1-4.65-.82c-1-.66-2.67-.51-4.06-.92s-3-.69-4.52-1.21c-6.26-2.17-12.33-4.72-16.93-9.74-3.09-3.38-5-7.19-4.83-12,.22-8.15.05-16.31.06-24.47a14.46,14.46,0,0,1,4.37-10.69c6-6,13.27-9.25,21.38-11.11,3.54-.81,7.16-1.29,10.63-2.14,5.08-1.25,10.08-.61,15.11-.76,2-.06,4-.61,6.17.79,1.56,1,3.91-.16,6.08,1,1.78.93,4.27.46,6.51,1.06,6.33,1.67,15.41,6.16,19.63,10.52,3.32,3.43,5.43,7.34,5.16,12.36C462.83,322.74,463,326.75,463,330.74Zm-91-18.38c0,.74.28,1.62,0,2-2.44,3-.6,5.95.57,8.48,1.75,3.81,5.11,6.18,8.88,8.22a67,67,0,0,0,29.2,7.83,88,88,0,0,0,16.59-.71,73.87,73.87,0,0,0,19.7-5.64c3.78-1.68,7.43-3.77,10-7.07,2.28-2.9,3.86-6.36,2.85-10.11a14.86,14.86,0,0,0-5.61-8.6c-3.43-2.35-6.9-4.68-11.06-5.85-3.88-1.09-7.5-3.17-11.71-3-1.46-1.72-3.6-.2-5.08-1-1.87-1-3.72-.9-5.63-.91-2.49,0-5,0-7.49,0-2.16,0-4.73-.74-6.39.18-2.25,1.25-4.47.28-6.58,1.05S396,298.33,394,299c-4.38,1.46-8.82,2.68-12.83,5.22C377.72,306.4,375.37,309.55,372,312.36Zm88,34.15c0-6.36,0-12.68,0-19,0-.11-.23-.22-.53-.49-3.59,4.53-8.69,7.12-13.72,9.59-3.42,1.67-7.32,2.49-11.08,3.34a105.55,105.55,0,0,1-12.14,2,62.44,62.44,0,0,1-9,0c-2.87-.11-5.87.74-8.57-1-4.26.59-8.17-1-12.13-2.07s-7.91-2-11.24-4.08c-3.59-2.21-7.69-4-10.28-7.89a149.6,149.6,0,0,0-.18,17.44,12.48,12.48,0,0,0,1.81,5.21c2.38,4.07,6.08,6.29,10,8.39S391,361,395,362.55c4.18,1.67,8.68,1.45,13,2.3,3.68.73,7.63.28,11.45.11s7.71-.63,11.56-1c.16,0,.39.06.49,0,1.78-1.51,4.17-1.11,6.19-1.93s4.59-1.06,6.6-2.12c4.29-2.26,9-4,12.16-7.95A56.12,56.12,0,0,0,460,346.51Z" transform="translate(215 -150.71)"/><path class="cls-2" d="M664,252.36c3.38-2.81,5.72-6,9.12-8.12,4-2.54,8.46-3.76,12.84-5.22,2.06-.69,4.23-1,6.26-1.79s4.32.2,6.58-1c1.65-.92,4.22-.18,6.39-.18,2.5,0,5,0,7.49,0,1.91,0,3.76-.07,5.62.91,1.49.77,3.62-.75,5.09,1,4.21-.13,7.82,2,11.71,3,4.16,1.17,7.63,3.5,11,5.85a14.83,14.83,0,0,1,5.62,8.59c1,3.76-.57,7.22-2.84,10.12-2.6,3.3-6.25,5.39-10,7.07a74.28,74.28,0,0,1-19.69,5.64,88.09,88.09,0,0,1-16.59.71,66.78,66.78,0,0,1-29.2-7.83c-3.77-2.05-7.15-4.4-8.89-8.22-1.15-2.53-3-5.45-.57-8.47C664.28,254,664,253.1,664,252.36Z" transform="translate(215 -150.71)"/><path class="cls-1" d="M663,267.11c2.91,3.71,7,5.53,10.59,7.73,3.34,2.05,7.39,3.07,11.24,4.09S692.7,281.59,697,281c2.69,1.71,5.69.86,8.57,1a62.44,62.44,0,0,0,9,0,105.55,105.55,0,0,0,12.14-2c3.76-.85,7.67-1.65,11.08-3.34,5-2.49,10.14-5.05,14.28-10.29,0,6.93.42,13.08-.15,19.13-.38,4-3.28,7.12-6.59,9.55a48.23,48.23,0,0,1-13.7,6.64,68.59,68.59,0,0,1-12,2.56A110.07,110.07,0,0,1,704,305c-2.06,0-4.1.38-6.25-.53-1.69-.72-3.9-.1-5.8-.48a51.34,51.34,0,0,1-5.68-1.93c-1.76-.57-3.54-1.09-5.33-1.58a33.79,33.79,0,0,1-11.17-5.5c-4.11-3-6.78-7.11-6.76-12.5C663,277.32,663,272.21,663,267.11Z" transform="translate(215 -150.71)"/><path class="cls-2" d="M226,342.34c3.31-2.58,5.54-5.84,9-8,3.89-2.42,8.14-3.71,12.31-5.3,2.16-.82,4.6-.93,6.79-1.7s4.9.48,6.93-1.35h17c2,1.56,4.75.16,6.46,1.21,2.23,1.37,4.71.09,6.86,1.68,1.65,1.22,4.09,1.31,6.08,2.14,5.48,2.28,11.13,4.29,14.26,10.05,1.42,2.61,2.71,4.9,2.29,7-.54,2.73-1.17,5.49-3.18,7.66-3.63,3.92-8.3,6.15-13.07,8.26-3.84,1.71-8,2.33-11.94,3.73a3.59,3.59,0,0,1-.89.25c-3.69.35-7.38.81-11.07,1s-7.75.55-11.47-.09c-4.47-.77-9.07-.87-13.44-2.42-4.21-1.5-8.64-2.51-12.54-4.7-3.54-2-7.13-4-9.16-8-1.62-3.18-3.33-6.11-1.21-9.69C226.19,343.72,226,343.11,226,342.34Z" transform="translate(215 -150.71)"/><path class="cls-1" d="M313.9,356.43v20.45a47.72,47.72,0,0,1-4.3,5.92c-3.29,3.45-7.67,5.27-12,7.22-3.83,1.75-8,2.31-11.92,3.75a3.59,3.59,0,0,1-.9.22c-3.69.35-7.37.81-11.07,1s-7.73.55-11.45-.09c-4.47-.77-9.07-.87-13.43-2.42-4.21-1.5-8.63-2.5-12.53-4.69-3.53-2-7.07-4-9.19-7.93a14.5,14.5,0,0,1-2.08-6.11c-.24-5.46-.08-10.93-.08-17.24a38.77,38.77,0,0,0,9.17,7.36A85.15,85.15,0,0,0,247,369.05c4.48,1.55,9.29,1.35,13.76,2.91a7.89,7.89,0,0,0,2.48,0c3.49,0,7,0,10.48,0a66.46,66.46,0,0,0,15.6-2.17,47.94,47.94,0,0,0,11-3.57C305.11,363.8,309.88,361.32,313.9,356.43Z" transform="translate(215 -150.71)"/><path class="cls-2" d="M-66,402.47c3.11-2.58,5.54-5.87,9.06-8.15,3.86-2.49,8.16-3.66,12.32-5.27,2.16-.83,4.57-1,6.78-1.73s4.9.49,6.94-1.32c5.66,0,11.38-.49,17,.18a66.67,66.67,0,0,1,10.66,1.88c6.84,2,13.65,4.2,19.4,8.59a16.61,16.61,0,0,1,5.62,8.63c1.13,3.79-.6,7.14-2.7,10.13-1.77,2.52-4.46,4.11-7.14,5.58a61.58,61.58,0,0,1-16.47,6.1,94,94,0,0,1-12.18,1.83,61.79,61.79,0,0,1-13,0c-9.28-1.18-18.39-3.05-26.73-7.79-4.55-2.58-8.29-5.46-9.83-10.8-.61-2.14-1.32-3.87.23-5.83C-65.76,404.09-66,403.21-66,402.47Z" transform="translate(215 -150.71)"/><path class="cls-1" d="M21.86,416.32v20.41a50.76,50.76,0,0,1-3.47,5.32c-3.22,3.87-8,5.52-12.16,7.95-2.54-.41-4.17,1.87-6.63,2.2-2,.26-4.44.17-6.19,1.79-.09.08-.33,0-.49,0-3.86.33-7.7.8-11.57,1s-7.75.58-11.44-.1c-4.31-.8-8.79-.76-13-2.38-4-1.56-8.33-2.35-12.1-4.5s-7.44-4-9.61-8.1c-1.13-2.14-2.26-4.09-2.25-6.57,0-5.31,0-10.61,0-15.89,1-.71,1.07.38,1.51.63a5.47,5.47,0,0,1,1.07,1c2.47,2.46,7.78,5,11.54,7.05,4.6,2.53,9.86,2.64,14.47,4.86.13.07.33,0,.49,0,3.69.33,7.37.8,11.07,1a87.8,87.8,0,0,0,11.47,0,88,88,0,0,0,12.14-2,52.4,52.4,0,0,0,11.05-3.4C12.78,424.17,17.84,421.67,21.86,416.32Z" transform="translate(215 -150.71)"/><path class="cls-2" d="M518.12,282.24c3.13-2.39,5.4-5.61,8.78-7.83,3.85-2.53,8.18-3.64,12.29-5.34,2.13-.89,4.68-.78,6.8-1.68s4.66.09,7-1.21c1.66-.92,4.23-.18,6.4-.18s4.33,0,6.49,0a15.78,15.78,0,0,1,6.14.85c1.78.74,4,.54,6.05,1a68,68,0,0,1,17.49,6.08,21,21,0,0,1,9,8.16c2.31,3.81,1.44,9.92-1.75,13.6-3.43,3.95-8.14,5.91-12.58,8.24-2,1.06-4.5,1.21-6.61,2.13s-4.43.36-6.2,1.93c-.09.08-.32,0-.49,0-3.85.33-7.7.8-11.57,1s-7.79.66-11.45-.12c-4.43-.93-9-.92-13.39-2.56-4-1.49-8.36-2.41-12.11-4.5-3.35-1.88-6.76-3.73-8.91-7.52-2-3.54-3.4-6.66-1.55-10.56A4.48,4.48,0,0,0,518.12,282.24Z" transform="translate(215 -150.71)"/><path class="cls-1" d="M517,297.12c2.92,3.68,7,5.53,10.58,7.72,3.34,2,7.38,3.06,11.24,4.09s7.87,2.65,12.12,2.07c2.7,1.71,5.7.86,8.57,1a62.58,62.58,0,0,0,9,0,106.26,106.26,0,0,0,12.14-2c3.76-.85,7.67-1.64,11.08-3.33,5-2.49,10.15-5.06,14.29-10.31,0,6.93.42,13.07-.15,19.13-.37,4-3.29,7.12-6.58,9.56a48.11,48.11,0,0,1-13.7,6.64,68.59,68.59,0,0,1-12,2.56A107.11,107.11,0,0,1,558,335c-2.06,0-4.1.37-6.25-.53-1.7-.71-3.9-.1-5.8-.48a51.89,51.89,0,0,1-5.67-1.93c-1.77-.57-3.56-1.07-5.34-1.57a34.93,34.93,0,0,1-11.18-5.5c-4.13-3-6.76-7.12-6.76-12.5Z" transform="translate(215 -150.71)"/><path class="cls-2" d="M80,372.39c3.18-2.56,5.56-5.91,9.12-8.15,4-2.53,8.46-3.76,12.84-5.22,2.06-.69,4.23-1,6.26-1.79s4.33.2,6.58-1.05c1.66-.92,4.23-.18,6.39-.18,2.5,0,5,0,7.49,0,1.91,0,3.76-.06,5.63.91,1.48.77,3.62-.75,5.08,1,4.21-.13,7.83,1.95,11.71,3,4.16,1.17,7.63,3.5,11.06,5.85a14.86,14.86,0,0,1,5.61,8.6c1,3.75-.57,7.21-2.85,10.11-2.59,3.3-6.24,5.39-10,7.07a73.87,73.87,0,0,1-19.7,5.64,88,88,0,0,1-16.59.71,67,67,0,0,1-29.2-7.83c-3.77-2-7.13-4.41-8.88-8.22-1.17-2.53-3-5.45-.57-8.48C80.28,374,80,373.1,80,372.39Z" transform="translate(215 -150.71)"/><path class="cls-1" d="M168,386.13c0,6.19-.15,11.16,0,16.12.22,5.77-2.7,9.52-7,12.8-4,3.06-8.69,4.9-13.29,6.48-3.61,1.24-7.45,2.46-11.47,2.52-2.69.05-5.37.74-8.07.91a75.86,75.86,0,0,1-8,0c-7.13-.29-13.08-1-23.5-4.69a39,39,0,0,1-9.94-5c-5.82-4.21-7.76-7.49-7.76-14.2V386.4a36,36,0,0,0,9.24,7.47,64.42,64.42,0,0,0,12.38,5.06c2.34.76,4.78,1.29,7.16,2s4.8-.47,7.09,1c.7.46,1.95.07,2.95.07,3.49,0,7,.13,10.48,0a49.3,49.3,0,0,0,10-1c6.11-1.59,12.43-2.54,18.06-5.76C160.43,392.85,164.56,390.76,168,386.13Z" transform="translate(215 -150.71)"/><path class="cls-2" d="M372,312.36c3.37-2.81,5.72-6,9.13-8.12,4-2.54,8.45-3.76,12.83-5.22,2.06-.69,4.23-1,6.26-1.79s4.33.2,6.58-1.05c1.66-.92,4.23-.18,6.39-.18,2.5,0,5,0,7.49,0,1.91,0,3.76-.06,5.63.91,1.48.77,3.62-.75,5.08,1,4.21-.13,7.83,1.95,11.71,3,4.16,1.17,7.63,3.5,11.06,5.85a14.86,14.86,0,0,1,5.61,8.6c1,3.75-.57,7.21-2.85,10.11-2.59,3.3-6.24,5.39-10,7.07a73.87,73.87,0,0,1-19.7,5.64,88,88,0,0,1-16.59.71,67,67,0,0,1-29.2-7.83c-3.77-2-7.13-4.41-8.88-8.22-1.17-2.53-3-5.45-.57-8.48C372.28,314,372,313.1,372,312.36Z" transform="translate(215 -150.71)"/><path class="cls-1" d="M460,346.51a56.12,56.12,0,0,1-3.54,5.47c-3.18,3.92-7.87,5.69-12.16,7.95-2,1.06-4.47,1.24-6.6,2.12s-4.41.42-6.19,1.93c-.1.08-.33,0-.49,0-3.85.33-7.7.8-11.56,1s-7.77.62-11.45-.11c-4.31-.85-8.81-.63-13-2.3-4-1.6-8.26-2.49-12.08-4.55s-7.61-4.32-10-8.39a12.48,12.48,0,0,1-1.81-5.21,149.6,149.6,0,0,1,.18-17.44c2.59,3.88,6.69,5.68,10.28,7.89,3.33,2,7.39,3.06,11.24,4.08s7.87,2.66,12.13,2.07c2.7,1.71,5.7.86,8.57,1a62.44,62.44,0,0,0,9,0,105.55,105.55,0,0,0,12.14-2c3.76-.85,7.66-1.67,11.08-3.34,5-2.47,10.13-5.06,13.72-9.59.3.27.53.38.53.49C460,333.83,460,340.15,460,346.51Z" transform="translate(215 -150.71)"/></svg>