<svg id="Layer_1" data-name="Layer 1" xmlns="http://www.w3.org/2000/svg" viewBox="0 0 229.78 166.5"><defs><style>.cls-1{fill:#fff;}</style></defs><path d="M255.35,477.75,173.61,396V342.44c1.59-.69,3.14-1.93,4.7-1.95,5.79-.08,11.06-2.58,16.74-3.25a55,55,0,0,0,8.69-1.84,45.06,45.06,0,0,1,8.21-1.74c4.17-.36,8.05-1.77,12.09-2.46s8.35-1.16,12.32-2.75c1-.4,2.3-.06,3.76-.06,2.69-3.71,6.59-6.4,10.65-8.63a44,44,0,0,1,11.2-4.25c4-.92,8.14-1.46,12.1-2.33,6.1-1.34,12.1-.36,18.13-.73,1.5-.09,3.05.64,4.58.93a27.86,27.86,0,0,1,4.19.72c1.95.68,4.53,1,6.63-.35,1.68-1.07,4,.69,5.44-1.36l9.8-1.14,80.55,80.54v55.32C353.87,457.39,304.46,467.72,255.35,477.75Zm2.13-56.44,141.17-29.25-77.8-77.8-8.24,1.46-.13,1.06a16.55,16.55,0,0,0,2.73,1.58c5.62,2,10.34,4.84,13.37,8.7,2.35,3,4.05,6.26,4,10.37-.19,8.16-.09,16.33,0,24.5a15.94,15.94,0,0,1-4.93,12c-2.77,2.77-6.16,4.41-9.33,6.5-4.13,2.72-8.93,3.62-13.5,4.78a55.78,55.78,0,0,1-15.62,2.15c-5.2-.17-10.37.18-15.62-.77a97.3,97.3,0,0,1-13.73-3.18,52.42,52.42,0,0,1-11-4.83,28.33,28.33,0,0,1-7.1-5.63,15.56,15.56,0,0,1-4.19-10.76c.18-7.5,0-15,.07-22.5,0-2.67.38-5.34.59-8.09l-58.25,12.07Zm.09,53.06c2-.39,3.51-.63,5-1,2.16-.51,4.51-.57,6.48-1.26,5.21-1.84,10.66-2.42,16-3.55,4.14-.88,8.27-2.35,12.63-2.18,5-2.43,10.62-2.31,15.87-3.83,2.95-.85,6.14-1.27,9.23-1.88s6.41-1.35,9.6-2.09c1.93-.45,4-.93,6-1.21,1.87-.27,3.72-.67,5.59-1s4.22-.28,6-1.1c2-.92,4.17-.4,6.06-1.07,6.81-2.46,14.05-2.91,21-4.75,3-.8,6.18-.89,9.16-2,1.74-.66,3.71-.67,5.56-1.07,2.88-.63,5.73-1.35,8.51-2,.62-14.93.4-45.82-.27-49.55L257.57,424.36ZM254.27,424,176.7,346.41V393.8l77.57,77.58Zm-12.63-92.32a6.58,6.58,0,0,1-.43,2.44c-2,2.93-.35,5.7.75,8.09,1.75,3.83,5.06,6.29,8.86,8.28,4.16,2.17,8.59,3.42,12.9,5.07,4.69,1.8,9.57,1.82,14.32,2.72,3.54.67,7.31.26,11,.09s7.39-.63,11.08-1c.32,0,.74.08,1-.08,1.85-1.35,4.19-1.09,6.21-1.89s4.18-1.19,6.14-2.06c4.75-2.13,9.45-4.37,13-8.38,2.51-2.83,3.26-7.34,2.11-11.31a14.92,14.92,0,0,0-6.37-8.4,52.12,52.12,0,0,0-10.75-5.48c-6.17-2.42-12.66-3.48-19.16-4.33-2.95-.39-6-.07-9-.07-2.33,0-5-.74-6.9.19-2.28,1.12-4.5.23-6.58,1s-4.54,1.16-6.73,1.87c-4.23,1.38-8.49,2.7-12.38,5.1C247.09,325.79,244.7,329.14,241.64,331.66Zm-1.15,15c0,5.47-.16,10.94.07,16.4a14.64,14.64,0,0,0,2.08,6.11c2.12,3.91,5.67,5.93,9.2,7.93,3.89,2.2,8.32,3.19,12.52,4.69,4.37,1.55,9,1.65,13.44,2.42,3.71.64,7.63.26,11.45.09s7.38-.62,11.06-1a3.39,3.39,0,0,0,.9-.22c3.92-1.44,8.1-2,11.93-3.75,4.27-2,8.66-3.76,11.95-7.22a51.38,51.38,0,0,0,4.4-6.07c0-6.72,0-12.87,0-19a.71.71,0,0,0-.21-.41,2.08,2.08,0,0,0-.38-.26c-3.52,4.28-8.29,6.76-13.12,9.22a48,48,0,0,1-11,3.57,66.32,66.32,0,0,1-15.6,2.18c-3.32,0-6.65,0-10,0a7.08,7.08,0,0,1-2.48,0c-4.26-1.69-9.14-.58-13.24-3-4.58.12-8.39-2.41-12.22-4.19S243.5,350.23,240.49,346.71Z" transform="translate(-173.61 -311.25)"/><path class="cls-1" d="M257.48,421.31l-77.63-77.64L238.1,331.6c-.21,2.75-.56,5.42-.59,8.09-.08,7.5.11,15-.07,22.5A15.56,15.56,0,0,0,241.63,373a28.33,28.33,0,0,0,7.1,5.63,52.42,52.42,0,0,0,11,4.83,97.3,97.3,0,0,0,13.73,3.18c5.25,1,10.42.6,15.62.77a55.78,55.78,0,0,0,15.62-2.15c4.57-1.16,9.37-2.06,13.5-4.78,3.17-2.09,6.56-3.73,9.33-6.5a15.94,15.94,0,0,0,4.93-12c-.05-8.17-.15-16.34,0-24.5.09-4.11-1.61-7.38-4-10.37-3-3.86-7.75-6.68-13.37-8.7a16.55,16.55,0,0,1-2.73-1.58l.13-1.06,8.24-1.46,77.8,77.8Z" transform="translate(-173.61 -311.25)"/><path class="cls-1" d="M257.57,474.37v-50L400,394.82c.67,3.73.89,34.62.27,49.55-2.78.66-5.63,1.38-8.51,2-1.85.4-3.82.41-5.56,1.07-3,1.13-6.16,1.22-9.16,2-6.95,1.84-14.19,2.29-21,4.75-1.89.67-4,.15-6.06,1.07-1.81.82-4,.76-6,1.1s-3.72.72-5.59,1c-2,.28-4.1.76-6,1.21-3.19.74-6.38,1.45-9.6,2.09s-6.28,1-9.23,1.88c-5.25,1.52-10.87,1.4-15.87,3.83-4.36-.17-8.49,1.3-12.63,2.18-5.31,1.13-10.76,1.71-16,3.55-2,.69-4.32.75-6.48,1.26C261.08,473.74,259.54,474,257.57,474.37Z" transform="translate(-173.61 -311.25)"/><path class="cls-1" d="M254.27,424v47.4L176.7,393.8V346.41Z" transform="translate(-173.61 -311.25)"/><path class="cls-1" d="M241.64,331.66c3.06-2.52,5.45-5.87,9-8.08,3.89-2.4,8.15-3.72,12.38-5.1,2.19-.71,4.54-1,6.73-1.87s4.3.09,6.58-1c1.87-.93,4.57-.19,6.9-.19,3,0,6-.32,9,.07,6.5.85,13,1.91,19.16,4.33a52.12,52.12,0,0,1,10.75,5.48,14.92,14.92,0,0,1,6.37,8.4c1.15,4,.4,8.48-2.11,11.31-3.57,4-8.27,6.25-13,8.38-2,.87-4.13,1.27-6.14,2.06s-4.36.54-6.21,1.89c-.22.16-.64.05-1,.08-3.69.33-7.38.8-11.08,1s-7.42.58-11-.09c-4.75-.9-9.63-.92-14.32-2.72-4.31-1.65-8.74-2.9-12.9-5.07-3.8-2-7.11-4.45-8.86-8.28-1.1-2.39-2.74-5.16-.75-8.09A6.58,6.58,0,0,0,241.64,331.66Z" transform="translate(-173.61 -311.25)"/><path class="cls-1" d="M240.49,346.71c3,3.52,7,5.72,10.79,7.49s7.64,4.31,12.22,4.19c4.1,2.38,9,1.27,13.24,3a7.08,7.08,0,0,0,2.48,0c3.33,0,6.66,0,10,0a66.32,66.32,0,0,0,15.6-2.18,48,48,0,0,0,11-3.57c4.83-2.46,9.6-4.94,13.12-9.22a2.08,2.08,0,0,1,.38.26.71.71,0,0,1,.21.41c0,6.15,0,12.3,0,19a51.38,51.38,0,0,1-4.4,6.07c-3.29,3.46-7.68,5.27-11.95,7.22-3.83,1.75-8,2.31-11.93,3.75a3.39,3.39,0,0,1-.9.22c-3.68.35-7.37.81-11.06,1s-7.74.55-11.45-.09c-4.47-.77-9.07-.87-13.44-2.42-4.2-1.5-8.63-2.49-12.52-4.69-3.53-2-7.08-4-9.2-7.93a14.64,14.64,0,0,1-2.08-6.11C240.33,357.65,240.49,352.18,240.49,346.71Z" transform="translate(-173.61 -311.25)"/></svg>