<svg id="Layer_1" data-name="Layer 1" xmlns="http://www.w3.org/2000/svg" viewBox="0 0 375.77 197.44"><defs><style>.cls-1{fill:#fff;}</style></defs><path d="M182.29,493.22l-81.67-81.67V357c1.54-.69,3.08-1.93,4.64-2,5.94-.13,11.35-2.95,17.25-3.1,1.68-2.07,4.25-.47,6.35-1.62s4.58-1,6.91-1.37,4.54-.29,6.56-1.08c5.14-2,10.71-2,15.9-3.83,2.67-.93,5.68-.84,9-1.28,2.54-3.49,6.43-6.16,10.49-8.39a43.89,43.89,0,0,1,11.18-4.31c4-.93,8.12-1.47,12.09-2.33,5.94-1.28,11.78-.68,17.63-.64a29.17,29.17,0,0,1,9.26,1.62,8.38,8.38,0,0,0,5.37.12c3.84-1.51,8-1.27,11.86-2.72,2.08-.78,4.67-.59,7-1.08a112.86,112.86,0,0,0,12.8-2.93c1.89-.61,4-.29,6.06-1.08s4-.74,6-1.08,3.73-.66,5.59-1c2-.38,3.92-1.11,6.08-1.13,1.74,0,3.45-1.23,5.21-1.79s3.67.76,5-1.08c4.85.27,9.29-2.24,14.29-2.06,2.6-4,6.77-6.43,10.75-8.77A43.25,43.25,0,0,1,335.33,300c4-1,8.07-1.59,12.1-2.32a69.17,69.17,0,0,1,9.13-.73c3.16-.15,6.55-.73,9.44.17s5.83-.19,8.23,1.8c2.2-.44,4.45.7,6.71-.76,1.5-1,3.61-.37,5.53-1.06,2.94-1.07,6.3-1,9.32-1.35l80.59,80.6v56.17c-4.38,1.49-9.16,1.5-13.57,3.3-1.66.67-3.71.55-5.58.92-2.93.58-5.84,1.37-8.81,1.76a53.27,53.27,0,0,0-8.85,1.61c-5.25,1.65-10.76,1.88-15.94,3.71a25.2,25.2,0,0,1-5.57.89c-2,.21-3.61,1.34-5.57,1.22s-3.66.88-5.55,1.17a69.39,69.39,0,0,0-8.7,1.83c-2.7.78-5.65.49-8.19,2-4.25-.52-8,1.79-12.14,2.19a48.56,48.56,0,0,0-8.68,1.86c-2.7.78-5.66.46-8.19,2-4.25-.55-8,1.79-12.14,2.18a47.53,47.53,0,0,0-8.68,1.86c-2.7.79-5.52.86-8.23,1.83-2.16.77-4.7.12-7.07,1.06-2,.79-4.81.11-6.44,1.25-2.09,1.47-4.38.13-6.44,1.57-1.5,1.05-3.93.65-6,1.12-6.09,1.43-12.25,2.53-18.36,3.94-4.1.94-8.41,1.59-12.59,2.38-3.62.68-7.44.88-10.9,2.56-1.83.88-4,.51-6,1.06a69,69,0,0,1-8.78,1.79,52.2,52.2,0,0,0-8.86,1.62c-5.24,1.66-10.66,2.37-15.95,3.58-4.1.94-8.4,1.64-12.59,2.41a62.07,62.07,0,0,0-10.87,2.61c-1.45.55-3.13.48-4.69.77C191.66,491.41,186.85,492.35,182.29,493.22Zm56.93-162.56c.42.48.72,1.13,1.16,1.25a34.83,34.83,0,0,1,8.76,4.2,23.22,23.22,0,0,1,7.52,7.25c1.45,2.2,2.77,4.32,2.8,6.84.14,9.5.21,19,0,28.49a13,13,0,0,1-3.58,8.5c-3.07,3.38-6.85,5.64-10.79,7.78-8.46,4.59-17.77,6.11-27.11,6.83a70.84,70.84,0,0,1-17.11-.62,95,95,0,0,1-14.68-3.33c-3.47-1.17-7.36-1.77-10-4.77-3.08-.58-5-2.86-6.93-5-3-3.23-4.88-6.91-4.74-11.54.17-6,0-12,.07-18,.08-4.15-.76-8.36,1.07-12.53L107.1,358.2,184.87,436c1.56-.54,3.71-.69,5.59-1.22s4-.17,5.57-.95c3.63-1.76,7.58-2,11.36-2.69S215,429.2,219,428.79c2-.2,4.27-.25,6-1,3.67-1.62,7.59-1.93,11.37-2.65S244,423.2,248,422.79a24,24,0,0,0,6-1c5.15-2,10.64-2.52,16-3.65,4.14-.88,8.27-2.36,12.63-2.18,5-2.43,10.59-2.52,15.88-3.83,6.21-1.53,12.55-2.67,18.83-4,6-1.25,12.11-2.3,18.21-3.22,2.18-.33,4.28-1,6.55-1.16,1.76-.11,3.47-1.69,5.2-1.69,2.17,0,4.06-.77,6.09-1.13,1.86-.33,3.72-.68,5.58-1,2-.34,4.19-.34,6.05-1.09,2-.8,4.23-.37,6.05-1.09,5.15-2,10.64-2.51,15.94-3.64,4.14-.88,8.28-2.36,12.63-2.18,5-2.43,10.6-2.51,15.88-3.83,6.21-1.55,12.66-2.11,18.82-4.11,2.23-.72,4.71-.68,7.06-1.07,2.19-.36,4.27-1.45,6.58-1,1.78-2.16,4.89.14,6.67-2,5.76-.41,11.12-2.65,16.11-3.21l-77.66-77.65-7.51,1.25-.07,1a14.51,14.51,0,0,0,2.8,1.54,27,27,0,0,1,13.33,8.76,15.23,15.23,0,0,1,3.93,10.37c-.18,8.16-.09,16.33,0,24.49a15.94,15.94,0,0,1-5,12,41.19,41.19,0,0,1-11,7.35c-3.3,1.66-7,2.4-10.62,3.36a69.23,69.23,0,0,1-16.34,2.64,83.81,83.81,0,0,1-16.11-.73A94.3,94.3,0,0,1,332.77,368a51.51,51.51,0,0,1-11-4.82,28.75,28.75,0,0,1-7.09-5.65,15.5,15.5,0,0,1-4.18-10.76c.18-7.5,0-15,.08-22.49,0-2.67.38-5.34.57-7.88ZM184.64,490.11a29,29,0,0,1,3.6-1.13c2.51-.42,5.18-.3,7.55-1.11,6-2,12.24-2.62,18.32-4.08,2-.49,4.14-.34,6-1A63.8,63.8,0,0,1,231,480.14c4.18-.77,8.48-1.46,12.58-2.41,5.28-1.23,10.72-1.83,16-3.58a48,48,0,0,1,8.85-1.61,69.19,69.19,0,0,0,8.77-1.8c2-.52,4.17-.24,6-1,5.12-2.13,10.65-2.43,16-3.6,4.13-.91,8.26-2.37,12.62-2.17,5.49-2.58,11.57-2.65,17.36-3.85,4.16-.86,8.49-1.42,12.59-2.37,6.1-1.4,12.26-2.49,18.34-3.93,2-.48,4.16-.34,6-1A65.27,65.27,0,0,1,377,450.14c4.18-.79,8.48-1.47,12.58-2.41,5.28-1.23,10.72-1.83,15.95-3.58a48.06,48.06,0,0,1,8.86-1.6,75.72,75.72,0,0,0,8.77-1.8c2-.51,4.17-.24,6-1,5.11-2.15,10.72-2,15.94-3.71,2.24-.72,5-.14,7-1.22,2.38-1.31,5-.16,7.33-1.73,1.43-1,3.65-.73,5.5-1.13,2.87-.63,5.73-1.35,8.47-2V379.17c-3.6,1.22-7.27,1.66-10.81,2.58a69,69,0,0,1-8.89,1.58,83.47,83.47,0,0,0-8.76,1.81c-2,.49-4.14.34-6.05,1-5.66,2-11.59,2.64-17.41,3.82-2.17.43-4.55.54-6.49,1.23-5.21,1.85-10.65,2.46-16,3.58-4.14.88-8.27,2.36-12.63,2.18-6.73,2.68-14,3.38-21,4.78-5.69,1.13-11.45,2.32-17.15,3.46s-11.3,2.34-16.92,3.56c-4.89,1.07-9.85,1.87-14.75,3a60.67,60.67,0,0,1-6,1.2c-1.88.25-3.73.66-5.59,1-2,.34-4.24.26-6,1.11-2,1-4.15.42-6.06,1.07-5.83,2-11.93,2.61-17.88,3.93-2,.45-4.27.3-6,1.08-3.67,1.63-7.59,1.93-11.36,2.65S250,425.7,246,426.11c-2,.21-4.27.25-6,1-3.66,1.63-7.58,1.93-11.36,2.65s-7.65,1.9-11.61,2.32a27,27,0,0,0-6,1,61.35,61.35,0,0,1-8.7,2c-3.06.61-6.09,1.39-9.19,1.91-2.89.48-5.71,1.37-8.47,2.06Zm-81-81.34,77.7,77.71V439.13l-77.7-77.71Zm210.85-92.42c0,.68.27,1.55,0,2-2.36,3-.67,5.94.54,8.48a16.52,16.52,0,0,0,8.91,8.2c1.71.7,3.18,2,4.88,2.68s3.66.83,5.37,1.51a41.28,41.28,0,0,0,5.74,1.85,28.68,28.68,0,0,0,5.6,1c1.87.07,3.71.82,5.58.9,3.66.15,7.33.17,11,0s7.38-.63,11.07-1c.32,0,.71,0,.95-.12,1.88-1.27,4.19-1.09,6.22-1.86s4.18-1.17,6.14-2.05c4.75-2.14,9.57-4.32,13-8.46,2.35-2.87,3.69-6.33,2.92-10.12-.67-3.34-4-6.83-7.24-9.46s-6.95-4.09-10.72-5.55c-6.17-2.4-12.66-3.48-19.17-4.31-3.11-.4-6.32-.07-9.48-.07-2.16,0-4.73-.73-6.4.18-2.25,1.23-4.47.26-6.58,1.05s-4.52,1.19-6.72,1.88c-4.25,1.32-8.49,2.68-12.37,5.11C320.1,310.4,317.7,313.74,314.52,316.35Zm-146,29.94c0,.91.2,1.54,0,1.89-2.26,3.4-.38,6.31,1,9.27,2,4.27,6,6.37,9.88,8.5s8.1,2.93,12.11,4.51c4.17,1.65,8.66,1.53,13,2.35,3.7.7,7.64.27,11.46.1s7.72-.63,11.57-1c.17,0,.4.07.49,0,1.78-1.54,4.18-1.1,6.2-1.94s4.59-1.06,6.61-2.12c4.44-2.33,9.21-4.26,12.55-8.29,2.43-2.94,3.86-6.51,3-10.13a15,15,0,0,0-6.28-9.29,50.46,50.46,0,0,0-10.74-5.39c-4-1.3-7.91-3.08-11.91-3.62-5.11-.7-10.27-1.81-15.55-1.26-2.8.29-6-.74-8.39.27s-4.73.22-7,1.2c-2.11.91-4.68.76-6.81,1.65-4.1,1.73-8.44,2.81-12.29,5.37C174,340.63,171.74,343.83,168.52,346.29Zm145-15.23c0,5.11,0,10.22,0,15.32,0,5.4,2.64,9.49,6.76,12.5a34.2,34.2,0,0,0,11.17,5.51c1.79.49,3.57,1,5.34,1.57a51.89,51.89,0,0,0,5.67,1.93c1.9.38,4.11-.23,5.8.48,2.15.91,4.19.52,6.25.53a107.11,107.11,0,0,0,15.58-.75,68.4,68.4,0,0,0,12-2.56,48,48,0,0,0,13.7-6.64c3.31-2.44,6.21-5.53,6.59-9.55.57-6.06.15-12.21.15-18.42-2.52,2-4.68,3.84-7,5.44a37.1,37.1,0,0,1-7.23,4.18,76.25,76.25,0,0,1-11.11,3.3,103.42,103.42,0,0,1-12.14,2,63.92,63.92,0,0,1-9,0c-2.87-.12-5.87.73-8.57-1-4.25.59-8.17-1-12.13-2.07s-7.9-2.05-11.24-4.09C320.51,336.6,316.44,334.77,313.52,331.06Zm-146,30.23c0,5.46-.13,10.94.07,16.4a12.93,12.93,0,0,0,1.56,5.31c2,3.74,5.16,6.17,8.95,8.17,4.15,2.2,8.63,3.3,12.91,5,4.54,1.79,9.25,1.73,13.84,2.64,3.68.73,7.63.28,11.45.11s7.38-.62,11.06-1a3.5,3.5,0,0,0,.9-.23c3.92-1.43,8.1-2,11.93-3.74,4.42-2,9-3.9,12.3-7.58a48.28,48.28,0,0,0,4-5.83c0-6.61,0-12.77,0-18.92a.7.7,0,0,0-.22-.4,1.38,1.38,0,0,0-.35-.22c-4.54,5.07-10.27,8.31-16.58,10.56a89.85,89.85,0,0,1-20.16,4.27,55.75,55.75,0,0,1-14.43-.06c-4.76-.72-9.57-1.39-14.32-2.59a68.09,68.09,0,0,1-12.15-4.45C174.51,367,170.5,364.8,167.52,361.29Z" transform="translate(-100.62 -295.78)"/><path class="cls-1" d="M239.22,330.66l71.9-14.3c-.19,2.54-.54,5.21-.57,7.88-.08,7.49.1,15-.08,22.49a15.5,15.5,0,0,0,4.18,10.76,28.75,28.75,0,0,0,7.09,5.65,51.51,51.51,0,0,0,11,4.82,94.3,94.3,0,0,0,13.73,3.18,83.81,83.81,0,0,0,16.11.73A69.23,69.23,0,0,0,379,369.23c3.62-1,7.32-1.7,10.62-3.36a41.19,41.19,0,0,0,11-7.35,15.94,15.94,0,0,0,5-12c0-8.16-.14-16.33,0-24.49a15.23,15.23,0,0,0-3.93-10.37,27,27,0,0,0-13.33-8.76,14.51,14.51,0,0,1-2.8-1.54l.07-1,7.51-1.25,77.66,77.65c-5,.56-10.35,2.8-16.11,3.21-1.78,2.14-4.89-.16-6.67,2-2.31-.46-4.39.63-6.58,1-2.35.39-4.83.35-7.06,1.07-6.16,2-12.61,2.56-18.82,4.11-5.28,1.32-10.87,1.4-15.88,3.83-4.35-.18-8.49,1.3-12.63,2.18-5.3,1.13-10.79,1.61-15.94,3.64-1.82.72-4,.29-6.05,1.09-1.86.75-4,.75-6.05,1.09-1.86.32-3.72.67-5.58,1-2,.36-3.92,1.12-6.09,1.13-1.73,0-3.44,1.58-5.2,1.69-2.27.13-4.37.83-6.55,1.16-6.1.92-12.21,2-18.21,3.22-6.28,1.3-12.62,2.44-18.83,4-5.29,1.31-10.88,1.4-15.88,3.83-4.36-.18-8.49,1.3-12.63,2.18-5.31,1.13-10.8,1.61-16,3.65a24,24,0,0,1-6,1c-4,.41-7.76,1.58-11.62,2.32s-7.7,1-11.37,2.65c-1.74.78-4,.83-6,1-4,.41-7.76,1.57-11.62,2.32s-7.73.93-11.36,2.69c-1.61.78-3.67.41-5.57.95s-4,.68-5.59,1.22L107.1,358.2,165.62,346c-1.83,4.17-1,8.38-1.07,12.53-.12,6,.1,12-.07,18-.14,4.63,1.73,8.31,4.74,11.54,1.95,2.11,3.85,4.39,6.93,5,2.65,3,6.54,3.6,10,4.77a95,95,0,0,0,14.68,3.33,70.84,70.84,0,0,0,17.11.62c9.34-.72,18.65-2.24,27.11-6.83,3.94-2.14,7.72-4.4,10.79-7.78a13,13,0,0,0,3.58-8.5c.24-9.49.17-19,0-28.49,0-2.52-1.35-4.64-2.8-6.84a23.22,23.22,0,0,0-7.52-7.25,34.83,34.83,0,0,0-8.76-4.2C239.94,331.79,239.64,331.14,239.22,330.66Z" transform="translate(-100.62 -295.78)"/><path class="cls-1" d="M184.64,490.11V439.06c2.76-.69,5.58-1.58,8.47-2.06,3.1-.52,6.13-1.3,9.19-1.91a61.35,61.35,0,0,0,8.7-2,27,27,0,0,1,6-1c4-.42,7.75-1.57,11.61-2.32s7.7-1,11.36-2.65c1.75-.78,4-.82,6-1,4-.41,7.76-1.58,11.62-2.32s7.69-1,11.36-2.65c1.75-.78,4-.63,6-1.08,6-1.32,12.05-1.95,17.88-3.93,1.91-.65,4-.11,6.06-1.07,1.79-.85,4-.77,6-1.11,1.86-.32,3.71-.73,5.59-1a60.67,60.67,0,0,0,6-1.2c4.9-1.15,9.86-1.95,14.75-3,5.62-1.22,11.3-2.44,16.92-3.56s11.46-2.33,17.15-3.46c7-1.4,14.23-2.1,21-4.78,4.36.18,8.49-1.3,12.63-2.18,5.31-1.12,10.75-1.73,16-3.58,1.94-.69,4.32-.8,6.49-1.23,5.82-1.18,11.75-1.85,17.41-3.82,1.91-.66,4-.51,6.05-1a83.47,83.47,0,0,1,8.76-1.81,69,69,0,0,0,8.89-1.58c3.54-.92,7.21-1.36,10.81-2.58v50.76c-2.74.66-5.6,1.38-8.47,2-1.85.4-4.07.16-5.5,1.13-2.31,1.57-4.95.42-7.33,1.73-2,1.08-4.74.5-7,1.22-5.22,1.68-10.83,1.56-15.94,3.71-1.87.78-4,.51-6,1a75.72,75.72,0,0,1-8.77,1.8,48.06,48.06,0,0,0-8.86,1.6c-5.23,1.75-10.67,2.35-15.95,3.58-4.1.94-8.4,1.62-12.58,2.41a65.27,65.27,0,0,0-10.86,2.62c-1.88.7-4,.56-6,1-6.08,1.44-12.24,2.53-18.34,3.93-4.1.95-8.43,1.51-12.59,2.37-5.79,1.2-11.87,1.27-17.36,3.85-4.36-.2-8.49,1.26-12.62,2.17-5.32,1.17-10.85,1.47-16,3.6-1.87.78-4,.5-6,1a69.19,69.19,0,0,1-8.77,1.8,48,48,0,0,0-8.85,1.61c-5.23,1.75-10.67,2.35-16,3.58-4.1.95-8.4,1.64-12.58,2.41a63.8,63.8,0,0,0-10.86,2.61c-1.9.7-4,.55-6,1-6.08,1.46-12.34,2-18.32,4.08-2.37.81-5,.69-7.55,1.11A29,29,0,0,0,184.64,490.11Z" transform="translate(-100.62 -295.78)"/><path class="cls-1" d="M103.67,408.77V361.42l77.7,77.71v47.35Z" transform="translate(-100.62 -295.78)"/><path class="cls-1" d="M314.52,316.35c3.18-2.61,5.58-6,9.15-8.18,3.88-2.43,8.12-3.79,12.37-5.11,2.2-.69,4.54-1.06,6.72-1.88s4.33.18,6.58-1.05c1.67-.91,4.24-.18,6.4-.18,3.16,0,6.37-.33,9.48.07,6.51.83,13,1.91,19.17,4.31,3.77,1.46,7.48,2.9,10.72,5.55s6.57,6.12,7.24,9.46c.77,3.79-.57,7.25-2.92,10.12-3.39,4.14-8.21,6.32-13,8.46-2,.88-4.12,1.29-6.14,2.05s-4.34.59-6.22,1.86c-.24.16-.63.09-.95.12-3.69.33-7.37.8-11.07,1s-7.33.15-11,0c-1.87-.08-3.71-.83-5.58-.9a28.68,28.68,0,0,1-5.6-1,41.28,41.28,0,0,1-5.74-1.85c-1.71-.68-3.66-.81-5.37-1.51s-3.17-2-4.88-2.68a16.52,16.52,0,0,1-8.91-8.2c-1.21-2.54-2.9-5.47-.54-8.48C314.79,317.9,314.52,317,314.52,316.35Z" transform="translate(-100.62 -295.78)"/><path class="cls-1" d="M168.52,346.29c3.22-2.46,5.51-5.66,8.86-7.9,3.85-2.56,8.19-3.64,12.29-5.37,2.13-.89,4.7-.74,6.81-1.65,2.27-1,4.61-.2,7-1.2s5.59,0,8.39-.27c5.28-.55,10.44.56,15.55,1.26,4,.54,8,2.32,11.91,3.62a50.46,50.46,0,0,1,10.74,5.39,15,15,0,0,1,6.28,9.29c.88,3.62-.55,7.19-3,10.13-3.34,4-8.11,6-12.55,8.29-2,1.06-4.48,1.24-6.61,2.12s-4.42.4-6.2,1.94c-.09.08-.32,0-.49,0-3.85.33-7.71.8-11.57,1s-7.76.6-11.46-.1c-4.32-.82-8.81-.7-13-2.35-4-1.58-8.29-2.43-12.11-4.51s-7.83-4.23-9.88-8.5c-1.41-3-3.29-5.87-1-9.27C168.72,347.83,168.52,347.2,168.52,346.29Z" transform="translate(-100.62 -295.78)"/><path class="cls-1" d="M313.52,331.06c2.92,3.71,7,5.54,10.58,7.73,3.34,2,7.39,3.07,11.24,4.09s7.88,2.66,12.13,2.07c2.7,1.71,5.7.86,8.57,1a63.92,63.92,0,0,0,9,0,103.42,103.42,0,0,0,12.14-2,76.25,76.25,0,0,0,11.11-3.3,37.1,37.1,0,0,0,7.23-4.18c2.35-1.6,4.51-3.47,7-5.44,0,6.21.42,12.36-.15,18.42-.38,4-3.28,7.11-6.59,9.55a48,48,0,0,1-13.7,6.64,68.4,68.4,0,0,1-12,2.56,107.11,107.11,0,0,1-15.58.75c-2.06,0-4.1.38-6.25-.53-1.69-.71-3.9-.1-5.8-.48a51.89,51.89,0,0,1-5.67-1.93c-1.77-.57-3.55-1.08-5.34-1.57a34.2,34.2,0,0,1-11.17-5.51c-4.12-3-6.77-7.1-6.76-12.5C313.53,341.28,313.52,336.17,313.52,331.06Z" transform="translate(-100.62 -295.78)"/><path class="cls-1" d="M167.52,361.29c3,3.51,7,5.68,10.78,7.46a68.09,68.09,0,0,0,12.15,4.45c4.75,1.2,9.56,1.87,14.32,2.59a55.75,55.75,0,0,0,14.43.06,89.85,89.85,0,0,0,20.16-4.27c6.31-2.25,12-5.49,16.59-10.56a1.52,1.52,0,0,1,.34.22.7.7,0,0,1,.22.4c0,6.15,0,12.31,0,18.92a48.28,48.28,0,0,1-4,5.83c-3.34,3.68-7.88,5.55-12.3,7.58-3.83,1.75-8,2.31-11.93,3.74a3.5,3.5,0,0,1-.9.23c-3.68.35-7.37.81-11.06,1s-7.77.62-11.45-.11c-4.59-.91-9.3-.85-13.84-2.64-4.28-1.69-8.76-2.79-12.91-5-3.79-2-7-4.43-8.95-8.17a12.93,12.93,0,0,1-1.56-5.31C167.39,372.23,167.52,366.75,167.52,361.29Z" transform="translate(-100.62 -295.78)"/></svg>