<svg id="Layer_1" data-name="Layer 1" xmlns="http://www.w3.org/2000/svg" viewBox="0 0 375.77 197.44"><defs><style>.cls-1{fill:#fec80e;}.cls-2{fill:#fe7f27;}.cls-3{fill:#fd9d10;}</style></defs><path d="M200.77,495.27,119.1,413.6V359.06c1.54-.69,3.08-1.93,4.64-2,5.94-.13,11.36-3,17.26-3.1,1.67-2.07,4.24-.47,6.34-1.62s4.58-1,6.91-1.37,4.54-.29,6.56-1.09c5.14-2,10.71-2,15.9-3.82,2.67-.93,5.68-.84,9-1.28,2.53-3.49,6.42-6.16,10.48-8.39a43.89,43.89,0,0,1,11.18-4.31c4-.93,8.13-1.47,12.09-2.33,5.94-1.28,11.78-.68,17.63-.64a29.17,29.17,0,0,1,9.26,1.62,8.45,8.45,0,0,0,5.37.12c3.84-1.51,8-1.27,11.86-2.72,2.08-.78,4.67-.59,7.05-1.08a113.18,113.18,0,0,0,12.79-2.93c1.89-.61,4-.29,6.06-1.08s4-.74,6.05-1.08,3.73-.66,5.59-1c2-.38,3.92-1.11,6.08-1.13,1.74,0,3.45-1.23,5.21-1.79s3.68.76,5.05-1.08c4.86.27,9.29-2.24,14.29-2.06,2.6-4,6.77-6.43,10.75-8.77a43.38,43.38,0,0,1,11.27-4.09c4-1,8.07-1.6,12.1-2.32A69.17,69.17,0,0,1,375,299c3.16-.15,6.55-.73,9.44.17,2.74.86,5.83-.19,8.23,1.8,2.2-.44,4.46.69,6.71-.76,1.5-1,3.61-.37,5.53-1.07,2.94-1.06,6.31-1,9.32-1.34l80.59,80.6V434.6c-4.38,1.49-9.16,1.5-13.57,3.3-1.66.67-3.71.55-5.58.92-2.93.58-5.84,1.37-8.81,1.76a53.46,53.46,0,0,0-8.85,1.61c-5.24,1.65-10.76,1.88-15.94,3.71a25.2,25.2,0,0,1-5.57.89c-2,.21-3.61,1.34-5.57,1.22s-3.66.88-5.55,1.17a69.39,69.39,0,0,0-8.7,1.83c-2.7.78-5.65.49-8.19,2-4.25-.52-8,1.79-12.14,2.19a48.56,48.56,0,0,0-8.68,1.86c-2.7.78-5.66.46-8.19,2-4.25-.55-8,1.79-12.14,2.18A47.71,47.71,0,0,0,358.7,463c-2.7.79-5.52.86-8.23,1.83-2.16.77-4.7.12-7.07,1-2,.8-4.81.12-6.44,1.26-2.08,1.47-4.37.13-6.43,1.57-1.51,1-3.93.65-6,1.12-6.09,1.43-12.25,2.53-18.36,3.93-4.1.94-8.41,1.6-12.59,2.39-3.62.68-7.44.88-10.9,2.56-1.83.88-4,.51-6,1.06a68.61,68.61,0,0,1-8.78,1.79,52.37,52.37,0,0,0-8.86,1.61c-5.24,1.67-10.66,2.38-16,3.59-4.1.94-8.4,1.64-12.59,2.4a62.31,62.31,0,0,0-10.87,2.62c-1.45.55-3.13.47-4.68.77C210.14,493.46,205.34,494.4,200.77,495.27ZM257.7,332.71c.42.48.72,1.13,1.16,1.25a34.67,34.67,0,0,1,8.76,4.2,23.19,23.19,0,0,1,7.52,7.24c1.45,2.21,2.77,4.33,2.81,6.85.13,9.5.2,19,0,28.49a13.09,13.09,0,0,1-3.57,8.5c-3.08,3.38-6.86,5.64-10.8,7.78-8.46,4.59-17.77,6.11-27.11,6.83a70.84,70.84,0,0,1-17.11-.62,95,95,0,0,1-14.68-3.33c-3.47-1.17-7.36-1.78-10-4.77-3.08-.58-5-2.86-6.93-5-3-3.23-4.88-6.91-4.74-11.54.17-6-.05-12,.07-18,.08-4.15-.76-8.36,1.07-12.53l-58.52,12.16L203.36,438c1.55-.54,3.7-.69,5.58-1.22s4-.17,5.57-.95c3.63-1.76,7.58-2,11.36-2.69s7.65-1.91,11.62-2.32c2-.21,4.27-.25,6-1,3.66-1.63,7.58-1.93,11.36-2.65s7.65-1.91,11.62-2.32a24,24,0,0,0,6-1c5.16-2,10.64-2.52,16-3.65,4.14-.88,8.27-2.36,12.63-2.18,5-2.43,10.59-2.52,15.88-3.83,6.21-1.53,12.55-2.67,18.83-4,6-1.24,12.11-2.29,18.21-3.21,2.19-.33,4.28-1,6.55-1.16,1.76-.11,3.47-1.69,5.21-1.69,2.16,0,4.06-.77,6.08-1.13,1.86-.33,3.72-.68,5.58-1,2-.34,4.19-.34,6.05-1.09,2-.81,4.23-.37,6.05-1.09,5.15-2,10.64-2.51,15.95-3.64,4.14-.88,8.27-2.36,12.62-2.18,5-2.43,10.6-2.52,15.88-3.83,6.21-1.55,12.66-2.11,18.82-4.11,2.23-.72,4.71-.68,7.06-1.07,2.19-.37,4.27-1.45,6.59-1,1.77-2.16,4.88.14,6.66-2,5.76-.41,11.12-2.66,16.11-3.21l-77.66-77.65-7.51,1.25-.06,1a13.7,13.7,0,0,0,2.79,1.55,26.92,26.92,0,0,1,13.33,8.76,15.23,15.23,0,0,1,3.93,10.37c-.18,8.16-.09,16.33,0,24.49a15.94,15.94,0,0,1-5,12,41.3,41.3,0,0,1-11,7.35c-3.31,1.66-7,2.4-10.63,3.36a69.23,69.23,0,0,1-16.34,2.64,83.81,83.81,0,0,1-16.11-.73A93.87,93.87,0,0,1,351.26,370a51.37,51.37,0,0,1-11-4.82,28.75,28.75,0,0,1-7.09-5.65A15.5,15.5,0,0,1,329,348.78c.18-7.5,0-15,.08-22.5,0-2.66.38-5.33.57-7.87ZM203.12,492.16a29,29,0,0,1,3.6-1.13c2.51-.42,5.18-.3,7.55-1.11,6-2,12.25-2.62,18.32-4.08,2-.49,4.15-.34,6-1a64,64,0,0,1,10.86-2.61c4.18-.78,8.48-1.47,12.58-2.42,5.28-1.22,10.72-1.82,15.95-3.57a48,48,0,0,1,8.85-1.61,71,71,0,0,0,8.77-1.8c2-.52,4.17-.25,6-1,5.12-2.13,10.65-2.43,16-3.61,4.13-.9,8.27-2.36,12.62-2.16,5.49-2.58,11.57-2.65,17.37-3.85,4.15-.86,8.48-1.42,12.58-2.37,6.1-1.4,12.26-2.5,18.34-3.93,2-.48,4.16-.35,6-1a65.27,65.27,0,0,1,10.86-2.62c4.18-.79,8.49-1.47,12.58-2.42,5.29-1.22,10.72-1.82,15.95-3.57a48.06,48.06,0,0,1,8.86-1.6,75.72,75.72,0,0,0,8.77-1.8c2-.52,4.17-.24,6-1,5.12-2.15,10.72-2,15.95-3.72,2.23-.72,5-.14,7-1.21,2.38-1.31,5-.16,7.33-1.73,1.43-1,3.66-.73,5.5-1.13,2.87-.63,5.73-1.35,8.47-2V381.22c-3.6,1.22-7.27,1.66-10.81,2.58a72.66,72.66,0,0,1-8.89,1.58,83.47,83.47,0,0,0-8.76,1.81c-2,.49-4.14.33-6.05,1-5.66,2-11.59,2.64-17.41,3.82-2.17.43-4.55.54-6.49,1.23-5.21,1.85-10.65,2.45-16,3.58-4.14.88-8.27,2.36-12.63,2.18-6.72,2.68-14,3.38-21,4.77l-17.15,3.46c-5.62,1.13-11.3,2.35-16.92,3.57-4.89,1.07-9.84,1.87-14.75,3a60.67,60.67,0,0,1-6,1.2c-1.88.25-3.72.66-5.59,1-2,.34-4.24.26-6,1.11-2,.95-4.15.42-6.06,1.07-5.83,2-11.92,2.61-17.88,3.93-2,.45-4.27.3-6,1.08-3.67,1.63-7.59,1.93-11.36,2.65s-7.65,1.91-11.62,2.32c-2,.21-4.27.25-6,1-3.66,1.63-7.58,1.93-11.36,2.65s-7.65,1.9-11.61,2.32a27.06,27.06,0,0,0-6,1,61.35,61.35,0,0,1-8.7,2c-3.06.61-6.09,1.39-9.18,1.91-2.9.48-5.72,1.37-8.48,2.06Zm-81-81.34,77.7,77.71V441.18l-77.7-77.71ZM333,318.4c0,.68.27,1.55,0,2-2.36,3-.67,5.95.54,8.49a16.52,16.52,0,0,0,8.91,8.2c1.71.7,3.18,2,4.88,2.68s3.66.82,5.38,1.51a40.72,40.72,0,0,0,5.73,1.85,28.68,28.68,0,0,0,5.6,1c1.87.07,3.71.82,5.58.9,3.66.15,7.33.17,11,0s7.38-.63,11.07-1c.32,0,.71,0,.95-.12,1.88-1.27,4.19-1.09,6.22-1.86S403,340.85,405,340c4.75-2.13,9.57-4.31,13-8.45,2.35-2.87,3.69-6.33,2.92-10.13-.67-3.34-4-6.82-7.24-9.45s-6.95-4.09-10.72-5.55c-6.17-2.4-12.66-3.48-19.17-4.31-3.11-.4-6.32-.07-9.48-.07-2.16,0-4.73-.73-6.39.18-2.26,1.23-4.48.26-6.58,1.05s-4.53,1.19-6.73,1.87c-4.25,1.32-8.49,2.69-12.37,5.12C338.59,312.45,336.18,315.79,333,318.4ZM187,348.34c0,.91.2,1.54,0,1.89-2.26,3.4-.38,6.31,1,9.27,2.05,4.27,6,6.37,9.88,8.49s8.1,2.94,12.11,4.52c4.17,1.65,8.67,1.53,13,2.34,3.7.71,7.64.28,11.46.11s7.72-.63,11.57-1c.17,0,.4.07.49,0,1.78-1.54,4.18-1.1,6.2-1.94s4.59-1.06,6.61-2.12c4.44-2.33,9.22-4.26,12.55-8.29,2.43-2.95,3.86-6.51,3-10.13a14.91,14.91,0,0,0-6.28-9.29,50.46,50.46,0,0,0-10.74-5.39c-3.95-1.3-7.91-3.08-11.91-3.62-5.11-.7-10.27-1.81-15.55-1.26-2.8.29-6-.74-8.39.27s-4.73.22-7,1.19c-2.11.92-4.68.77-6.81,1.66-4.1,1.73-8.44,2.81-12.28,5.37C192.51,342.68,190.22,345.88,187,348.34Zm145-15.23c0,5.11,0,10.22,0,15.32,0,5.4,2.65,9.49,6.76,12.5a34.2,34.2,0,0,0,11.17,5.51c1.79.49,3.58,1,5.34,1.57a51.89,51.89,0,0,0,5.67,1.93c1.9.38,4.11-.23,5.8.48,2.15.9,4.19.52,6.25.53a107.11,107.11,0,0,0,15.58-.75,68.21,68.21,0,0,0,12-2.56,48,48,0,0,0,13.7-6.64c3.31-2.44,6.21-5.53,6.59-9.56.57-6.05.15-12.2.15-18.41-2.52,2-4.68,3.84-7,5.44a38,38,0,0,1-7.24,4.18,77.76,77.76,0,0,1-11.1,3.3,106.26,106.26,0,0,1-12.14,2,62.58,62.58,0,0,1-9,0c-2.87-.11-5.87.74-8.57-1-4.25.58-8.17-1-12.13-2.07s-7.9-2.05-11.24-4.09C339,338.64,334.92,336.81,332,333.11ZM186,363.34c0,5.46-.13,10.93.07,16.39a12.84,12.84,0,0,0,1.56,5.31c2,3.75,5.17,6.18,9,8.18,4.16,2.19,8.63,3.29,12.91,5,4.54,1.79,9.26,1.73,13.84,2.64,3.69.73,7.63.28,11.45.11s7.38-.62,11.06-1a3.52,3.52,0,0,0,.9-.24c3.92-1.42,8.1-2,11.93-3.73,4.42-2,9-3.9,12.3-7.58a47.17,47.17,0,0,0,4-5.83c0-6.61,0-12.77,0-18.92a.7.7,0,0,0-.22-.4,1.33,1.33,0,0,0-.34-.22c-4.54,5.07-10.27,8.31-16.59,10.56a89.85,89.85,0,0,1-20.16,4.27,55.75,55.75,0,0,1-14.43-.06c-4.76-.72-9.57-1.39-14.32-2.59a68.09,68.09,0,0,1-12.15-4.45C193,369,189,366.85,186,363.34Z" transform="translate(-119.1 -297.83)"/><path class="cls-1" d="M257.7,332.71l71.9-14.3c-.19,2.54-.54,5.21-.57,7.87-.08,7.5.1,15-.08,22.5a15.5,15.5,0,0,0,4.18,10.76,28.75,28.75,0,0,0,7.09,5.65,51.37,51.37,0,0,0,11,4.82A93.87,93.87,0,0,0,365,373.19a83.81,83.81,0,0,0,16.11.73,69.23,69.23,0,0,0,16.34-2.64c3.62-1,7.32-1.7,10.63-3.36a41.3,41.3,0,0,0,11-7.35,15.94,15.94,0,0,0,5-12c-.05-8.16-.14-16.33,0-24.49a15.23,15.23,0,0,0-3.93-10.37A26.92,26.92,0,0,0,406.79,305a13.7,13.7,0,0,1-2.79-1.55l.06-1,7.51-1.25,77.66,77.65c-5,.55-10.35,2.8-16.11,3.21-1.78,2.14-4.89-.16-6.66,2-2.32-.46-4.4.62-6.59,1-2.35.39-4.83.35-7.06,1.07-6.16,2-12.61,2.56-18.82,4.11-5.28,1.31-10.87,1.4-15.88,3.83-4.35-.18-8.48,1.3-12.62,2.18-5.31,1.13-10.8,1.61-15.95,3.64-1.82.72-4,.28-6.05,1.09-1.86.75-4,.75-6.05,1.09-1.86.32-3.72.67-5.58,1-2,.36-3.92,1.12-6.08,1.13-1.74,0-3.45,1.58-5.21,1.69-2.27.13-4.36.83-6.55,1.16-6.1.92-12.2,2-18.21,3.21-6.28,1.31-12.62,2.45-18.83,4-5.29,1.31-10.88,1.4-15.88,3.83-4.36-.18-8.49,1.3-12.63,2.18-5.31,1.13-10.79,1.61-16,3.65a24,24,0,0,1-6,1c-4,.41-7.76,1.58-11.62,2.32s-7.7,1-11.36,2.65c-1.75.78-4,.82-6,1-4,.41-7.76,1.57-11.62,2.32s-7.73.93-11.36,2.69c-1.61.78-3.67.41-5.57.95s-4,.68-5.58,1.22l-77.78-77.77,58.52-12.16c-1.83,4.17-1,8.38-1.07,12.53-.12,6,.1,12-.07,18-.14,4.63,1.74,8.31,4.74,11.54,2,2.11,3.85,4.39,6.93,5,2.65,3,6.54,3.6,10,4.77a95,95,0,0,0,14.68,3.33,70.84,70.84,0,0,0,17.11.62c9.34-.72,18.65-2.24,27.11-6.83,3.94-2.14,7.72-4.4,10.8-7.78a13.09,13.09,0,0,0,3.57-8.5c.24-9.49.17-19,0-28.49,0-2.52-1.36-4.64-2.81-6.85a23.19,23.19,0,0,0-7.52-7.24,34.67,34.67,0,0,0-8.76-4.2C258.42,333.84,258.12,333.19,257.7,332.71Z" transform="translate(-119.1 -297.83)"/><path class="cls-2" d="M203.12,492.16V441.11c2.76-.69,5.58-1.58,8.48-2.06,3.09-.52,6.12-1.3,9.18-1.91a61.35,61.35,0,0,0,8.7-2,27.06,27.06,0,0,1,6-1c4-.42,7.75-1.57,11.61-2.32s7.7-1,11.36-2.65c1.75-.78,4-.82,6-1,4-.41,7.76-1.58,11.62-2.32s7.69-1,11.36-2.65c1.75-.78,4-.63,6-1.08,6-1.32,12.05-1.95,17.88-3.93,1.91-.65,4-.12,6.06-1.07,1.79-.85,4-.77,6-1.11,1.87-.32,3.71-.73,5.59-1a60.67,60.67,0,0,0,6-1.2c4.91-1.15,9.86-1.95,14.75-3,5.62-1.22,11.3-2.44,16.92-3.57l17.15-3.46c7-1.39,14.24-2.09,21-4.77,4.36.18,8.49-1.3,12.63-2.18,5.31-1.13,10.75-1.73,16-3.58,1.94-.69,4.32-.8,6.49-1.23,5.82-1.18,11.75-1.85,17.41-3.82,1.91-.67,4-.51,6.05-1a83.47,83.47,0,0,1,8.76-1.81,72.66,72.66,0,0,0,8.89-1.58c3.54-.92,7.21-1.36,10.81-2.58V432c-2.74.66-5.6,1.38-8.47,2-1.84.4-4.07.16-5.5,1.13-2.31,1.57-5,.42-7.33,1.73-1.95,1.07-4.74.49-7,1.21-5.23,1.69-10.83,1.57-15.95,3.72-1.87.78-4,.5-6,1a75.72,75.72,0,0,1-8.77,1.8,48.06,48.06,0,0,0-8.86,1.6c-5.23,1.75-10.66,2.35-15.95,3.57-4.09,1-8.4,1.63-12.58,2.42a65.27,65.27,0,0,0-10.86,2.62c-1.88.69-4,.56-6,1-6.08,1.43-12.24,2.53-18.34,3.93-4.1,1-8.43,1.51-12.58,2.37-5.8,1.2-11.88,1.27-17.37,3.85-4.35-.2-8.49,1.26-12.62,2.16-5.32,1.18-10.85,1.48-16,3.61-1.87.77-4,.5-6,1a71,71,0,0,1-8.77,1.8A48,48,0,0,0,278,476.2c-5.23,1.75-10.67,2.35-15.95,3.57-4.1,1-8.4,1.64-12.58,2.42a64,64,0,0,0-10.86,2.61c-1.89.7-4,.55-6,1-6.07,1.46-12.33,2.05-18.32,4.08-2.37.81-5,.69-7.55,1.11A29,29,0,0,0,203.12,492.16Z" transform="translate(-119.1 -297.83)"/><path class="cls-3" d="M122.15,410.82V363.47l77.7,77.71v47.35Z" transform="translate(-119.1 -297.83)"/><path class="cls-1" d="M333,318.4c3.18-2.61,5.59-5.95,9.15-8.18,3.88-2.43,8.12-3.8,12.37-5.12,2.2-.68,4.54-1.05,6.73-1.87s4.32.18,6.58-1.05c1.66-.91,4.23-.18,6.39-.18,3.16,0,6.37-.33,9.48.07,6.51.83,13,1.91,19.17,4.31,3.77,1.46,7.48,2.9,10.72,5.55s6.57,6.11,7.24,9.45c.77,3.8-.57,7.26-2.92,10.13-3.39,4.14-8.21,6.32-13,8.45-1.95.89-4.12,1.3-6.14,2.06s-4.34.59-6.22,1.86c-.24.16-.63.09-.95.12-3.69.33-7.37.8-11.07,1s-7.33.15-11,0c-1.87-.08-3.71-.83-5.58-.9a28.68,28.68,0,0,1-5.6-1,40.72,40.72,0,0,1-5.73-1.85c-1.72-.69-3.67-.81-5.38-1.51s-3.17-2-4.88-2.68a16.52,16.52,0,0,1-8.91-8.2c-1.21-2.54-2.9-5.47-.54-8.49C333.27,320,333,319.08,333,318.4Z" transform="translate(-119.1 -297.83)"/><path class="cls-1" d="M187,348.34c3.22-2.46,5.51-5.66,8.87-7.9,3.84-2.56,8.18-3.64,12.28-5.37,2.13-.89,4.7-.74,6.81-1.66,2.27-1,4.62-.19,7-1.19s5.59,0,8.39-.27c5.28-.55,10.44.56,15.55,1.26,4,.54,8,2.32,11.91,3.62a50.46,50.46,0,0,1,10.74,5.39,14.91,14.91,0,0,1,6.28,9.29c.88,3.62-.55,7.18-3,10.13-3.33,4-8.11,6-12.55,8.29-2,1.06-4.48,1.23-6.61,2.12s-4.42.4-6.2,1.94c-.09.08-.32,0-.49,0-3.85.33-7.71.8-11.57,1s-7.76.6-11.46-.11c-4.31-.81-8.81-.69-13-2.34-4-1.58-8.29-2.43-12.11-4.52s-7.83-4.22-9.88-8.49c-1.41-3-3.29-5.87-1-9.27C187.2,349.88,187,349.25,187,348.34Z" transform="translate(-119.1 -297.83)"/><path class="cls-2" d="M332,333.11c2.92,3.7,7,5.53,10.58,7.73,3.34,2,7.39,3.07,11.24,4.09S361.7,347.58,366,347c2.7,1.71,5.7.86,8.57,1a62.58,62.58,0,0,0,9,0,106.26,106.26,0,0,0,12.14-2,77.76,77.76,0,0,0,11.1-3.3,38,38,0,0,0,7.24-4.18c2.34-1.6,4.5-3.47,7-5.44,0,6.21.42,12.36-.15,18.41-.38,4-3.28,7.12-6.59,9.56a48,48,0,0,1-13.7,6.64,68.21,68.21,0,0,1-12,2.56A107.11,107.11,0,0,1,373,371c-2.06,0-4.1.37-6.25-.53-1.69-.71-3.9-.1-5.8-.48a51.89,51.89,0,0,1-5.67-1.93c-1.76-.57-3.55-1.08-5.34-1.57a34.2,34.2,0,0,1-11.17-5.51c-4.11-3-6.77-7.1-6.76-12.5C332,343.33,332,338.22,332,333.11Z" transform="translate(-119.1 -297.83)"/><path class="cls-2" d="M186,363.34c3,3.51,7,5.68,10.78,7.46a68.09,68.09,0,0,0,12.15,4.45c4.75,1.2,9.56,1.87,14.32,2.59a55.75,55.75,0,0,0,14.43.06,89.85,89.85,0,0,0,20.16-4.27c6.32-2.25,12.05-5.49,16.59-10.56a1.33,1.33,0,0,1,.34.22.7.7,0,0,1,.22.4c0,6.15,0,12.31,0,18.92a47.17,47.17,0,0,1-4,5.83c-3.34,3.68-7.88,5.55-12.3,7.58-3.83,1.75-8,2.31-11.93,3.73a3.52,3.52,0,0,1-.9.24c-3.68.35-7.36.81-11.06,1s-7.76.62-11.45-.11c-4.58-.91-9.3-.85-13.84-2.64-4.28-1.7-8.75-2.8-12.91-5-3.78-2-7-4.43-9-8.18a12.84,12.84,0,0,1-1.56-5.31C185.87,374.27,186,368.8,186,363.34Z" transform="translate(-119.1 -297.83)"/></svg>