<svg id="Layer_1" data-name="Layer 1" xmlns="http://www.w3.org/2000/svg" viewBox="0 0 456.77 277.1"><defs><style>.cls-1{fill:#505050;}.cls-2{fill:#282828;}.cls-3{fill:#3c3c3c;}</style></defs><path d="M239.5,535,77.1,372.6V319.05c1.54-.68,3.08-1.92,4.64-1.95,5.94-.13,11.35-3,17.25-3.1,1.67-2.07,4.25-.47,6.35-1.62s4.57-1,6.9-1.37,4.54-.29,6.55-1.08c5.14-2,10.71-2,15.9-3.83,2.67-.93,5.68-.84,9.05-1.27,2.53-3.48,6.4-6.19,10.47-8.38a53.29,53.29,0,0,1,11.66-4.36c4-1,8.07-1.61,12.1-2.33a69.17,69.17,0,0,1,9.13-.73c3.16-.15,6.59-.79,9.42.19s5.86-.28,8.24,1.78c2.19-.45,4.4.59,6.71-.75,1.63-.95,3.95-.41,6-1.12,2.51-.87,5.4-.55,8-1.18,5-1.21,10.18-1.91,15.14-3.29,1.26-.35,2.48-.41,3.7-.68s2.38-.71,3.59-1c7.5-1.57,15.17-2.38,22.47-4.9,1.63-.57,3.67.72,5.05-1.06,4.84.18,9.29-2.27,14.31-2.11,2.62-3.94,6.7-6.43,10.72-8.72,3.42-2,7.43-3,11.23-4.19,4.63-1.51,9.55-1.72,14.28-2.89,3-.74,6.32-.36,9.46-.08s6.26-1.23,9.09.94c2.79-.46,5.39.93,8.08.92a36.4,36.4,0,0,0,9-1.14c3.55-.94,7-2,10.63-1.77L533.87,419.64V474.8c-4.14.75-8.27,1.13-12.16,2.31-2.88.88-5.83,1.2-8.69,1.94-4.09,1.06-8.26,1.87-12.37,2.59s-8.06,1.65-12,2.52c-7,1.52-14.21,2.19-21,4.66-1.88.68-4,.16-6.06,1.08-1.8.82-4,.76-6,1.1s-3.72.69-5.59,1c-2,.33-4.11.73-6,1.2-3.19.78-6.39,1.46-9.61,2.1s-6.28,1-9.23,1.88c-5.25,1.51-10.88,1.4-15.88,3.83-4.36-.18-8.53,1.21-12.63,2.18-7.3,1.73-14.91,1.95-22,4.66-1.82.7-4,.59-6.05,1.06-4.72,1.08-9.52,1.83-14.26,3-2.87.69-5.81,1-8.69,2-2.67.9-5.83.36-8.49,1.27-5.2,1.78-10.87,1.47-15.87,3.9-4.36-.18-8.49,1.31-12.63,2.18-5.31,1.12-10.76,1.73-16,3.57-2,.68-4.32.79-6.49,1.24-7.5,1.58-15.14,2.46-22.48,4.85-1.91.62-4,.58-6.05,1-4.9,1.06-9.89,1.69-14.73,3.1A13.17,13.17,0,0,1,239.5,535ZM216,293.39a17.06,17.06,0,0,0,2.74,1.58c5.58,2,10.36,4.86,13.37,8.7,2.35,3,4.05,6.27,4,10.37-.18,8.16-.09,16.33,0,24.5a15.72,15.72,0,0,1-4.94,12A41.72,41.72,0,0,1,219.65,358c-7.59,3.65-15.84,4.77-24,5.91a62.86,62.86,0,0,1-11.48,0c-3.7-.16-7.39-.62-11.08-1a4.72,4.72,0,0,1-.87-.3c-4.87-1.51-9.86-2.54-14.59-4.61-5.22-2.29-10.07-5.08-13.45-9.61a14.31,14.31,0,0,1-3.21-10.16c.2-8.16,0-16.33.08-24.49a28.79,28.79,0,0,1,.47-3.8c.09-.65.24-1.3.35-1.87L84,320.15,242.71,478.86c4-.88,8.67-1.74,13.21-2.9s8.87-1.86,13.29-2.82c4.6-1,9.27-1.79,13.89-2.74s9.22-1.91,13.83-2.82,9-1.54,13.42-2.63,9.13-2.17,13.76-3,9.16-2,13.77-2.93c4.45-.86,8.83-2.14,13.27-2.91,4.65-.82,9.27-1.8,13.91-2.69s9.22-1.89,13.83-2.81,8.94-1.78,13.42-2.61,9.18-1.93,13.75-3,9.2-1.89,13.78-2.88,8.85-2,13.27-2.95c4.59-1,9.23-2.09,13.91-2.69s9.22-2.06,13.94-2.73a133.55,133.55,0,0,0,13.3-2.73c4.55-1.13,9.22-1.69,13.76-3a127.42,127.42,0,0,1,13.77-2.85c4.52-.76,9.14-1.54,13.58-2.47s9.19-1.67,13.24-3.08L370,261.08l-8.67,1.48c.79.72,1.13,1.24,1.6,1.41a65.89,65.89,0,0,1,8.36,4,22.48,22.48,0,0,1,7,6c2,2.56,3.74,5.41,3.72,8.94q-.06,13.74,0,27.49a12.45,12.45,0,0,1-2.46,7.46,33,33,0,0,1-15.36,11,83.48,83.48,0,0,1-26.86,5.22A158.6,158.6,0,0,1,319.75,333a5.94,5.94,0,0,1-1.42-.19c-4.78-1.79-9.83-2.6-14.56-4.7-5.19-2.32-10-5.05-13.51-9.49a15.2,15.2,0,0,1-3.33-10.12c.24-8,0-16,.1-24,0-2,.42-4.05.64-6.08-23.71,4.46-47.53,9.75-71.58,14.05Zm315,129c-2.13.31-4,.29-5.74.89-5.35,1.89-11,2.5-16.48,3.6-4,.8-7.95,2.27-12.14,2.09-1.5,1.77-4.11.39-5.67,2-2.35-.69-4.31,1-6.58,1.06a33.44,33.44,0,0,0-6.08,1c-2.13.44-4.23,1.05-6.36,1.52-5.35,1.17-10.66,2.73-16.07,3.33a123.46,123.46,0,0,0-12.53,2.52q-8.7,1.88-17.45,3.62c-1.21.25-2.38.72-3.59,1s-2.69-.55-3.65.86c-4-.15-7.63,1.88-11.59,2.21a25.84,25.84,0,0,0-6.49,1.21c-1.8.67-3.77,0-5.07.91-1.59,1.16-3.36.2-4.63.93-1.71,1-3.41.72-5.13.93a30.37,30.37,0,0,0-6.47,1.26c-5.34,1.94-11,2.5-16.47,3.61-4,.82-7.95,2.27-12.14,2.1-1.52,1.74-4.11.41-5.67,2-2.36-.72-4.32,1-6.58,1.06a14.37,14.37,0,0,0-6,1.06c-2,1.06-4.18.32-6.05,1.1-5.11,2.14-10.65,2.42-16,3.61-4.12.92-8.48,1.45-12.57,2.39-6.11,1.4-12.26,2.51-18.35,3.92-2,.47-4.17.35-6,1.05a67.31,67.31,0,0,1-10.86,2.62c-4.18.8-8.27,2.37-12.63,2.19-2.33,1.83-5.76.2-7.76,2.46v49.41a30.26,30.26,0,0,0,5.18-.93c2.12-.76,4.38-.65,6.46-1.3,5.39-1.7,11-2.48,16.49-3.56,4-.8,7.95-2.27,12.15-2.08,1.43-2,3.87-.67,5.76-1.84,1.73-1.08,4.29-.82,6.48-1.16,2-.32,4.33-.18,6-1.13,2-1.14,4.11-.44,6-1.12a72.7,72.7,0,0,1,10.89-2.59c4.18-.78,8.48-1.46,12.58-2.38,5.29-1.19,10.65-2.4,15.93-3.55,5.82-1.27,11.67-2.9,17.7-3.23,1.71-2,4.23-.72,6.36-1.51,3.48-1.31,7.28-1.79,11-2.46,2.67-.48,5.66-.11,8-1.21,1.93-.91,3.8-.37,5.58-1.05a64.15,64.15,0,0,1,10.87-2.6c4.18-.79,8.48-1.47,12.58-2.39,5.29-1.19,10.65-2.41,15.94-3.55C440,491,445.8,489.3,451.83,489c1.71-1.7,4-.58,6-1.28,5.33-1.93,11-2.56,16.47-3.64,4-.78,7.95-2.26,12.15-2.08,1.44-1.92,3.86-.71,5.76-1.85s4.29-.81,6.48-1.15c2-.32,4.07-.6,6.08-1s4.21-1.15,6.35-1.53c3.7-.65,7.31-1.79,11-2.38a56.15,56.15,0,0,0,8.92-2.35Zm-451-53L238.88,528.32V482.44L80.13,323.68c0-.12-.12.19-.12.49C80,339.64,80,355.12,80,369.44Zm211-91.12c0,.69.11,1.07,0,1.35-1.75,3.87-.62,7,1.52,10.57,2.32,3.84,5.84,5.67,9.32,7.72,3.74,2.21,8.09,3,12.11,4.51,4.18,1.6,8.65,1.59,13,2.39,3.71.68,7.64.27,11.46.1s7.72-.63,11.58-1c.16,0,.4.07.49,0,1.76-1.6,4.19-1.53,6.2-1.8,2.45-.33,4.09-2.6,6.63-2.19,4.34-2.53,9.21-4.28,12.54-8.31,2.42-2.93,4-6.53,3-10.11a16.19,16.19,0,0,0-6.6-9.57,42.25,42.25,0,0,0-11.59-5.75c-4.95-1.42-9.75-3.8-15.14-3.26-.33,0-.78.14-1,0-2.84-2.17-6.07-.64-9.09-.92s-6.58-.8-9.41.17c-2.37.81-4.73.27-7,1.15s-4.66.8-6.79,1.68c-4.12,1.7-8.45,2.81-12.31,5.33C296.53,272.6,294.28,275.83,291,278.32Zm-146,30c0,.64.11,1,0,1.3-1.76,3.87-.68,7.06,1.5,10.58,2,3.18,4.72,5,7.69,6.8,4,2.43,8.55,3.48,12.86,5.12,4.68,1.78,9.56,1.88,14.32,2.74,3.7.68,7.63.27,11.46.1s7.38-.62,11.07-1a4.11,4.11,0,0,0,.89-.26c3.93-1.39,8.1-2,11.94-3.72,4.78-2.1,9.43-4.36,13.06-8.27,2-2.17,2.61-4.95,3.17-7.67.44-2.15-.84-4.33-2.3-7-3.14-5.76-8.79-7.75-14.27-10-2-.83-4.1-1.38-6.16-2a56.42,56.42,0,0,0-6.67-1.95c-2.18-.4-4.56.48-6.57-1.06H180c-2,1.84-4.66.55-6.92,1.36s-4.64.85-6.8,1.69c-4.15,1.62-8.43,2.86-12.31,5.31C150.53,302.53,148.31,305.79,145,308.32ZM290,292.1c0,6.82-.09,12.6.06,18.37a9.94,9.94,0,0,0,1.37,4.39,20.78,20.78,0,0,0,8.94,8.23c4.16,2.16,8.6,3.37,12.87,5.08,4.54,1.8,9.25,1.81,13.83,2.66,4.34.8,9,.47,13.43.08a103.2,103.2,0,0,0,12.67-1.86c5.18-1.11,15.52-5.15,19.51-8.29,3.06-2.4,5.89-5.42,6.2-9.35.47-6.07.12-12.2.12-19.1-4.15,5.26-9.28,7.84-14.32,10.33-3.41,1.69-7.32,2.47-11.08,3.31-4,.89-8.09,1.93-12.14,1.92-5.84,0-11.8,1.25-17.55-.87-4.25.58-8.13-1.14-12.14-2a43.16,43.16,0,0,1-11.6-4.46C296.63,298.52,292.94,296.51,290,292.1Zm-57,29.82c-1.44,1.73-2.11,2.64-2.89,3.45-3.33,3.48-7.74,5.33-11.85,7.55-2.13,1.14-4.73,1.4-7.11,2.08s-4.8,1.27-7.19,1.87-5.14-.18-7.54,1.13c-6.17-.54-12.46,1.18-18.55-1-4.25.58-8.13-1.16-12.14-2a42.62,42.62,0,0,1-11.59-4.48c-3.54-2-7.19-4-10.14-8.32,0,6.79-.09,12.57.06,18.35a9.94,9.94,0,0,0,1.4,4.38,17.93,17.93,0,0,0,9,8.14c2.14.85,4.12,2.1,6.27,2.93s4.56,1.1,6.6,2.12a19.94,19.94,0,0,0,6.71,1.8c2.38.28,4.73.82,7.07,1a79.49,79.49,0,0,0,13.45,0A103.23,103.23,0,0,0,207.21,359c5.22-1.11,15.56-5.24,19.51-8.3,3-2.3,5.76-5.24,6.11-8.88C233.43,335.65,233,329.34,233,321.92Z" transform="translate(-77.1 -257.99)"/><path class="cls-1" d="M216,293.39l.1-.91c24-4.3,47.87-9.59,71.58-14.05-.22,2-.62,4.05-.64,6.08-.07,8,.14,16-.1,24a15.2,15.2,0,0,0,3.33,10.12c3.5,4.44,8.32,7.17,13.51,9.49,4.73,2.1,9.78,2.91,14.56,4.7a5.94,5.94,0,0,0,1.42.19,158.6,158.6,0,0,0,17.58,1.06,83.48,83.48,0,0,0,26.86-5.22,33,33,0,0,0,15.36-11,12.45,12.45,0,0,0,2.46-7.46q0-13.74,0-27.49c0-3.53-1.71-6.38-3.72-8.94a22.48,22.48,0,0,0-7-6,65.89,65.89,0,0,0-8.36-4c-.47-.17-.81-.69-1.6-1.41l8.67-1.48L528.61,419.66c-4.05,1.41-8.72,2.13-13.24,3.08s-9.06,1.71-13.58,2.47A127.42,127.42,0,0,0,488,428.06c-4.54,1.29-9.21,1.85-13.76,3a133.55,133.55,0,0,1-13.3,2.73c-4.72.67-9.23,2.13-13.94,2.73s-9.32,1.69-13.91,2.69c-4.42,1-8.83,2-13.27,2.95s-9.2,1.83-13.78,2.88-9.14,2.13-13.75,3-8.95,1.71-13.42,2.61-9.21,1.92-13.83,2.81-9.26,1.87-13.91,2.69c-4.44.77-8.82,2.05-13.27,2.91-4.61.88-9.15,2.11-13.77,2.93s-9.2,1.86-13.76,3-9,1.74-13.42,2.63-9.22,1.87-13.83,2.82-9.29,1.73-13.89,2.74c-4.42,1-8.89,1.7-13.29,2.82s-9.16,2-13.21,2.9L84,320.15l57.84-12c-.11.57-.26,1.22-.35,1.87a28.79,28.79,0,0,0-.47,3.8c0,8.16.12,16.33-.08,24.49a14.31,14.31,0,0,0,3.21,10.16c3.38,4.53,8.23,7.32,13.45,9.61,4.73,2.07,9.72,3.1,14.59,4.61a4.72,4.72,0,0,0,.87.3c3.69.35,7.38.81,11.08,1a62.86,62.86,0,0,0,11.48,0c8.19-1.14,16.44-2.26,24-5.91a41.72,41.72,0,0,0,11.43-7.48,15.72,15.72,0,0,0,4.94-12c-.06-8.17-.15-16.34,0-24.5.1-4.1-1.6-7.38-4-10.37-3-3.84-7.79-6.71-13.37-8.7A17.06,17.06,0,0,1,216,293.39Zm247,84.36c0-4.49,0-9,0-13.48a12.46,12.46,0,0,0-.7-3.69c-1.64-5-5-8.3-9.24-11.11-3.52-2.35-7.44-3.74-11.23-5.45-1-.45-2.06-.66-3.08-1-2.29-.82-5-.38-7-1.24-2.28-1-4.6.08-6.54-1.09-2.19-1.32-4.51-.64-6.72-.6-4.69.09-9.36-.38-14.11.76-3.47.83-7.09,1.33-10.62,2.14-8.11,1.85-15.41,5.14-21.39,11.1A14.42,14.42,0,0,0,368,364.76c0,8.16.15,16.32-.07,24.47-.13,4.82,1.73,8.63,4.82,12,4.6,5,10.68,7.56,16.93,9.76,1.89.66,3.77,1.37,5.71,1.86a33.63,33.63,0,0,0,6,1.09,56.4,56.4,0,0,1,6.1.91A43.31,43.31,0,0,0,417,415c3-.15,6.21.81,9.08-1,4.08.48,7.8-1.11,11.66-2a42.26,42.26,0,0,0,20.54-10.74A15,15,0,0,0,463,389.74C463,385.74,463,381.75,463,377.75ZM317,407.6c0-4.66.12-9.32-.06-14a10.86,10.86,0,0,0-1.35-5.39,28.36,28.36,0,0,0-9.44-9.36c-3.52-2-7.32-3.27-10.89-5.09a17.61,17.61,0,0,0-2.18-.78,17.89,17.89,0,0,0-7.57-1c-1.22-1.75-3.05-.71-4.58-1a36.31,36.31,0,0,0-5.08-1,92.59,92.59,0,0,0-28.25,2.89c-8.53,2.3-16.31,5.66-22.37,12.32a12,12,0,0,0-3.12,7.67c-.28,9.64-.17,19.3-.05,29a10.85,10.85,0,0,0,1.32,4.91c3.13,5.68,8.28,9.36,14,11.8,3.46,1.48,6.92,3.82,11.06,3.41,1.19,2,3.55.56,5.3,1.81,1.46,1.05,4.25,0,6.15.72s3.88.37,5.79.44a88.37,88.37,0,0,0,25.76-2.86c7.92-2.08,15-5.22,21-10.94A14.75,14.75,0,0,0,317,420.09C317,415.93,317,411.77,317,407.6Z" transform="translate(-77.1 -257.99)"/><path class="cls-2" d="M531,422.42v49.3a56.15,56.15,0,0,1-8.92,2.35c-3.69.59-7.3,1.73-11,2.38-2.14.38-4.22,1.09-6.35,1.53s-4.05.7-6.08,1c-2.19.34-4.72.1-6.48,1.15s-4.32-.07-5.76,1.85c-4.2-.18-8.13,1.3-12.15,2.08-5.51,1.08-11.14,1.71-16.47,3.64-1.93.7-4.25-.42-6,1.28-6,.3-11.87,2-17.69,3.23-5.29,1.14-10.65,2.36-15.94,3.55-4.1.92-8.4,1.6-12.58,2.39a64.15,64.15,0,0,0-10.87,2.6c-1.78.68-3.65.14-5.58,1.05-2.33,1.1-5.32.73-8,1.21-3.69.67-7.49,1.15-11,2.46-2.13.79-4.65-.51-6.36,1.51-6,.33-11.88,2-17.7,3.23-5.28,1.15-10.64,2.36-15.93,3.55-4.1.92-8.4,1.6-12.58,2.38a72.7,72.7,0,0,0-10.89,2.59c-1.93.68-4,0-6,1.12-1.69,1-4,.81-6,1.13-2.19.34-4.75.08-6.48,1.16-1.89,1.17-4.33-.11-5.76,1.84-4.2-.19-8.13,1.28-12.15,2.08-5.51,1.08-11.1,1.86-16.49,3.56-2.08.65-4.34.54-6.46,1.3a30.26,30.26,0,0,1-5.18.93V482.46c2-2.26,5.43-.63,7.76-2.46,4.36.18,8.45-1.39,12.63-2.19a67.31,67.31,0,0,0,10.86-2.62c1.87-.7,4-.58,6-1.05,6.09-1.41,12.24-2.52,18.35-3.92,4.09-.94,8.45-1.47,12.57-2.39,5.31-1.19,10.85-1.47,16-3.61,1.87-.78,4,0,6.05-1.1a14.37,14.37,0,0,1,6-1.06c2.26-.07,4.22-1.78,6.58-1.06,1.56-1.59,4.15-.26,5.67-2,4.19.17,8.13-1.28,12.14-2.1,5.5-1.11,11.13-1.67,16.47-3.61a30.37,30.37,0,0,1,6.47-1.26c1.72-.21,3.42,0,5.13-.93,1.27-.73,3,.23,4.63-.93,1.3-.95,3.27-.24,5.07-.91a25.84,25.84,0,0,1,6.49-1.21c4-.33,7.57-2.36,11.59-2.21,1-1.41,2.43-.6,3.65-.86s2.38-.72,3.59-1q8.75-1.75,17.45-3.62a123.46,123.46,0,0,1,12.53-2.52c5.41-.6,10.72-2.16,16.07-3.33,2.13-.47,4.23-1.08,6.36-1.52a33.44,33.44,0,0,1,6.08-1c2.27-.05,4.23-1.75,6.58-1.06,1.56-1.61,4.17-.23,5.67-2,4.19.18,8.13-1.29,12.14-2.09,5.51-1.1,11.13-1.71,16.48-3.6C527,422.71,528.87,422.73,531,422.42Z" transform="translate(-77.1 -257.99)"/><path class="cls-3" d="M80,369.44c0-14.32,0-29.8,0-45.27,0-.3.15-.61.12-.49L238.88,482.44v45.88Z" transform="translate(-77.1 -257.99)"/><path class="cls-1" d="M291,278.32c3.28-2.49,5.53-5.72,8.92-7.93,3.86-2.52,8.19-3.63,12.31-5.33,2.13-.88,4.64-.84,6.79-1.68s4.63-.34,7-1.15c2.83-1,6.27-.45,9.41-.17s6.25-1.25,9.09.92c.21.16.66,0,1,0,5.39-.54,10.19,1.84,15.14,3.26A42.25,42.25,0,0,1,372.24,272a16.19,16.19,0,0,1,6.6,9.57c.92,3.58-.63,7.18-3,10.11-3.33,4-8.2,5.78-12.54,8.31-2.54-.41-4.18,1.86-6.63,2.19-2,.27-4.44.2-6.2,1.8-.09.08-.33,0-.49,0-3.86.33-7.71.8-11.58,1s-7.75.58-11.46-.1c-4.31-.8-8.78-.79-13-2.39-4-1.54-8.37-2.3-12.11-4.51-3.48-2-7-3.88-9.32-7.72-2.14-3.55-3.27-6.7-1.52-10.57C291.11,279.39,291,279,291,278.32Z" transform="translate(-77.1 -257.99)"/><path class="cls-1" d="M145,308.32c3.31-2.53,5.53-5.79,9-8,3.88-2.45,8.16-3.69,12.31-5.31,2.16-.84,4.61-.91,6.8-1.69s4.9.48,6.92-1.36h17c2,1.54,4.39.66,6.57,1.06a56.42,56.42,0,0,1,6.67,1.95c2.06.64,4.17,1.19,6.16,2,5.48,2.28,11.13,4.27,14.27,10,1.46,2.68,2.74,4.86,2.3,7-.56,2.72-1.14,5.5-3.17,7.67-3.63,3.91-8.28,6.17-13.06,8.27-3.84,1.7-8,2.33-11.94,3.72a4.11,4.11,0,0,1-.89.26c-3.69.35-7.38.81-11.07,1s-7.76.58-11.46-.1c-4.76-.86-9.64-1-14.32-2.74-4.31-1.64-8.85-2.69-12.86-5.12-3-1.8-5.71-3.62-7.69-6.8-2.18-3.52-3.26-6.71-1.5-10.58C145.11,309.34,145,309,145,308.32Z" transform="translate(-77.1 -257.99)"/><path class="cls-2" d="M290,292.1c2.94,4.41,6.63,6.42,10.17,8.41a43.16,43.16,0,0,0,11.6,4.46c4,.89,7.89,2.61,12.14,2,5.75,2.12,11.71.85,17.55.87,4.05,0,8.14-1,12.14-1.92,3.76-.84,7.67-1.62,11.08-3.31,5-2.49,10.17-5.07,14.32-10.33,0,6.9.35,13-.12,19.1-.31,3.93-3.14,6.95-6.2,9.35-4,3.14-14.33,7.18-19.51,8.29a103.2,103.2,0,0,1-12.67,1.86c-4.45.39-9.09.72-13.43-.08-4.58-.85-9.29-.86-13.83-2.66-4.27-1.71-8.71-2.92-12.87-5.08a20.78,20.78,0,0,1-8.94-8.23,9.94,9.94,0,0,1-1.37-4.39C289.91,304.7,290,298.92,290,292.1Z" transform="translate(-77.1 -257.99)"/><path class="cls-2" d="M233,321.92c0,7.42.43,13.73-.17,19.94-.35,3.64-3.15,6.58-6.11,8.88-3.95,3.06-14.29,7.19-19.51,8.3a103.23,103.23,0,0,1-12.67,1.87,79.49,79.49,0,0,1-13.45,0c-2.34-.19-4.69-.73-7.07-1a19.94,19.94,0,0,1-6.71-1.8c-2-1-4.45-1.28-6.6-2.12s-4.13-2.08-6.27-2.93a17.93,17.93,0,0,1-9-8.14,9.94,9.94,0,0,1-1.4-4.38c-.15-5.78-.06-11.56-.06-18.35,2.95,4.31,6.6,6.35,10.14,8.32A42.62,42.62,0,0,0,165.73,335c4,.88,7.89,2.62,12.14,2,6.09,2.18,12.38.46,18.55,1,2.4-1.31,5.12-.52,7.54-1.13s4.81-1.18,7.19-1.87,5-.94,7.11-2.08c4.11-2.22,8.52-4.07,11.85-7.55C230.89,324.56,231.56,323.65,233,321.92Z" transform="translate(-77.1 -257.99)"/><path d="M463,377.75c0,4,0,8,0,12a15,15,0,0,1-4.74,11.54A42.26,42.26,0,0,1,437.73,412c-3.86.87-7.58,2.46-11.66,2-2.87,1.78-6,.82-9.08,1a43.31,43.31,0,0,1-9.46-.11,56.4,56.4,0,0,0-6.1-.91,33.63,33.63,0,0,1-6-1.09c-1.94-.49-3.82-1.2-5.71-1.86-6.25-2.2-12.33-4.73-16.93-9.76-3.09-3.38-4.95-7.19-4.82-12,.22-8.15,0-16.31.07-24.47a14.42,14.42,0,0,1,4.37-10.69c6-6,13.28-9.25,21.39-11.1,3.53-.81,7.15-1.31,10.62-2.14,4.75-1.14,9.42-.67,14.11-.76,2.21,0,4.53-.72,6.72.6,1.94,1.17,4.26.08,6.54,1.09,1.94.86,4.68.42,7,1.24,1,.36,2.1.57,3.08,1,3.79,1.71,7.71,3.1,11.23,5.45,4.24,2.81,7.6,6.08,9.24,11.11a12.46,12.46,0,0,1,.7,3.69C463,368.76,463,373.26,463,377.75Zm-91-18.43c0,.64.11,1,0,1.3-1.76,3.87-.68,7.07,1.5,10.58,2,3.18,4.72,5,7.69,6.8,4,2.43,8.55,3.48,12.87,5.12,4.67,1.78,9.55,1.88,14.31,2.74,3.7.68,7.64.27,11.46.1s7.38-.62,11.07-1a4.11,4.11,0,0,0,.89-.26c3.93-1.39,8.1-2,11.94-3.72,4.78-2.1,9.43-4.36,13.07-8.27,2-2.17,2.6-5,3.16-7.67.43-2.1-.88-4.39-2.3-7-3.13-5.76-8.77-7.8-14.28-10a89.77,89.77,0,0,0-9.24-3A67.48,67.48,0,0,0,424,343.18c-5.58-.67-11.3-.18-17-.18-2,1.84-4.66.55-6.93,1.36s-4.63.85-6.79,1.7c-4.15,1.62-8.43,2.85-12.31,5.3C377.53,353.53,375.31,356.79,372,359.32Zm-1,14.9c0,5.62,0,11.24,0,16.86a11.35,11.35,0,0,0,.72,2.18c1.3,5.36,5,8.53,9.75,10.78,1.68.79,3.15,2,4.85,2.74a54,54,0,0,0,5.38,1.47c1.78.53,3.48,1.46,5.28,1.67s3.48,1.42,5.57,1.19c1.8-.2,3.7.81,5.57.85,8.59.19,17.16.12,25.63-1.9,5.73-1.37,15-4.74,19.6-8.09,3.16-2.3,6.09-5.34,6.46-9.17.6-6.21.16-12.51.16-19.07-2.68,1.9-3.95,4.52-6.73,5.58-2.44.94-4.31,3-6.89,3.85-3.23,1.07-6.22,2.94-9.8,2.84-4.6,2.5-9.82,2.47-14.73,2.84a80.11,80.11,0,0,1-28.23-2.7,68,68,0,0,1-11.7-4.29C378.13,380,374.18,377.86,371,374.22Z" transform="translate(-77.1 -257.99)"/><path d="M317,407.6c0,4.17,0,8.33,0,12.49a14.75,14.75,0,0,1-4.63,11.08c-5.93,5.72-13,8.86-21,10.94A88.37,88.37,0,0,1,265.65,445c-1.91-.07-3.79.29-5.79-.44s-4.69.33-6.15-.72c-1.75-1.25-4.11.23-5.3-1.81-4.14.41-7.6-1.93-11.06-3.41-5.69-2.44-10.84-6.12-14-11.8a10.85,10.85,0,0,1-1.32-4.91c-.12-9.66-.23-19.32.05-29a12,12,0,0,1,3.12-7.67c6.06-6.66,13.84-10,22.37-12.32A92.59,92.59,0,0,1,275.85,370a36.31,36.31,0,0,1,5.08,1c1.53.29,3.36-.75,4.58,1a17.89,17.89,0,0,1,7.57,1,17.61,17.61,0,0,1,2.18.78c3.57,1.82,7.37,3.07,10.89,5.09a28.36,28.36,0,0,1,9.44,9.36,10.86,10.86,0,0,1,1.35,5.39C317.12,398.28,317,402.94,317,407.6Zm-91-18.27c0,.72.11,1.11,0,1.38-1.86,3.89-.47,7,1.55,10.55,2.15,3.79,5.56,5.64,8.92,7.52,3.74,2.09,8.08,3,12.11,4.5,4.39,1.64,8.95,1.63,13.38,2.56,3.67.77,7.63.29,11.45.12s7.72-.63,11.58-1c.16,0,.39.07.49,0,1.77-1.57,4.18-1.06,6.19-1.93s4.59-1.07,6.61-2.13c4.44-2.33,9.16-4.29,12.58-8.24,3.2-3.68,4.05-9.79,1.75-13.6a21,21,0,0,0-9-8.16,68,68,0,0,0-17.49-6.08c-2.06-.45-4.27-.25-6.05-1a15.78,15.78,0,0,0-6.14-.85c-2.16,0-4.33,0-6.49,0s-4.74-.74-6.4.18c-2.35,1.3-4.74.25-7,1.21s-4.67.79-6.8,1.68c-4.12,1.71-8.44,2.81-12.3,5.34C231.52,383.64,229.25,386.85,226,389.33Zm87.84,34.44v-19.6l-.81-.65a7,7,0,0,1-.79,1.7c-3.33,4-8,6.19-12.5,8.37A51.3,51.3,0,0,1,288.68,417a106.26,106.26,0,0,1-12.14,2,62.58,62.58,0,0,1-9,0c-2.87-.11-5.87.73-8.57-1-4.25.59-8.17-1-12.12-2.07s-7.92-2-11.24-4.09c-3.59-2.22-7.74-4-10.31-7.89-.32,6.07-.4,12-.26,17.93a7.93,7.93,0,0,0,1.31,3.92,22.27,22.27,0,0,0,8.91,8.31c4.2,2,8.6,3.35,12.89,5,4.52,1.78,9.24,1.74,13.82,2.69,3.66.77,7.62.29,11.44.12s7.71-.63,11.57-1c.16,0,.39.07.49,0,1.77-1.55,4.17-1.09,6.18-1.94s4.59-1.06,6.6-2.12c4.29-2.26,9-4,12.17-7.93A53.61,53.61,0,0,0,313.84,423.77Z" transform="translate(-77.1 -257.99)"/><path class="cls-1" d="M372,359.32c3.31-2.53,5.53-5.79,9-8,3.88-2.45,8.16-3.68,12.31-5.3,2.16-.85,4.61-.92,6.79-1.7s4.91.48,6.93-1.36c5.66,0,11.38-.49,17,.18A67.48,67.48,0,0,1,434.12,345a89.77,89.77,0,0,1,9.24,3c5.51,2.22,11.15,4.26,14.28,10,1.42,2.62,2.73,4.91,2.3,7-.56,2.71-1.14,5.5-3.16,7.67-3.64,3.91-8.29,6.17-13.07,8.27-3.84,1.69-8,2.33-11.94,3.72a4.11,4.11,0,0,1-.89.26c-3.69.35-7.37.81-11.07,1s-7.76.58-11.46-.1c-4.76-.86-9.64-1-14.31-2.74-4.32-1.64-8.86-2.69-12.87-5.12-3-1.8-5.71-3.62-7.69-6.8-2.18-3.51-3.26-6.71-1.5-10.58C372.11,360.35,372,360,372,359.32Z" transform="translate(-77.1 -257.99)"/><path class="cls-2" d="M371,374.22c3.18,3.64,7.13,5.74,10.92,7.63a68,68,0,0,0,11.7,4.29,80.11,80.11,0,0,0,28.23,2.7c4.91-.37,10.13-.34,14.73-2.84,3.58.1,6.57-1.77,9.8-2.84,2.58-.85,4.45-2.91,6.89-3.85,2.78-1.06,4.05-3.68,6.73-5.58,0,6.56.44,12.86-.16,19.07-.37,3.83-3.3,6.87-6.46,9.17-4.61,3.35-13.87,6.72-19.6,8.09-8.47,2-17,2.09-25.63,1.9-1.87,0-3.77-1-5.57-.85-2.09.23-3.67-1-5.57-1.19s-3.5-1.14-5.28-1.67a54,54,0,0,1-5.38-1.47c-1.7-.7-3.17-1.95-4.85-2.74-4.77-2.25-8.45-5.42-9.75-10.78a11.35,11.35,0,0,1-.72-2.18C371,385.46,371,379.84,371,374.22Z" transform="translate(-77.1 -257.99)"/><path class="cls-1" d="M226,389.33c3.25-2.48,5.52-5.69,8.89-7.92,3.86-2.53,8.18-3.63,12.3-5.34,2.13-.89,4.68-.78,6.8-1.68s4.66.09,7-1.21c1.66-.92,4.23-.18,6.4-.18s4.33,0,6.49,0a15.78,15.78,0,0,1,6.14.85c1.78.74,4,.54,6.05,1a68,68,0,0,1,17.49,6.08,21,21,0,0,1,9,8.16c2.3,3.81,1.45,9.92-1.75,13.6-3.42,3.95-8.14,5.91-12.58,8.24-2,1.06-4.49,1.21-6.61,2.13s-4.42.36-6.19,1.93c-.1.08-.33,0-.49,0-3.86.33-7.71.8-11.58,1s-7.78.65-11.45-.12c-4.43-.93-9-.92-13.38-2.56-4-1.49-8.37-2.41-12.11-4.5-3.36-1.88-6.77-3.73-8.92-7.52-2-3.54-3.41-6.66-1.55-10.55C226.11,390.44,226,390.05,226,389.33Z" transform="translate(-77.1 -257.99)"/><path class="cls-2" d="M313.84,423.77a53.61,53.61,0,0,1-3.4,5.23c-3.18,3.91-7.88,5.67-12.17,7.93-2,1.06-4.47,1.23-6.6,2.12s-4.41.39-6.18,1.94c-.1.08-.33,0-.49,0-3.86.33-7.71.8-11.57,1s-7.78.65-11.44-.12c-4.58-.95-9.3-.91-13.82-2.69-4.29-1.69-8.69-3-12.89-5a22.27,22.27,0,0,1-8.91-8.31,7.93,7.93,0,0,1-1.31-3.92c-.14-5.93-.06-11.86.26-17.93,2.57,3.92,6.72,5.67,10.31,7.89,3.32,2.07,7.38,3.07,11.24,4.09s7.87,2.66,12.12,2.07c2.7,1.7,5.7.86,8.57,1a62.58,62.58,0,0,0,9,0,106.26,106.26,0,0,0,12.14-2,51.3,51.3,0,0,0,11.06-3.36c4.5-2.18,9.17-4.36,12.5-8.37a7,7,0,0,0,.79-1.7l.81.65Z" transform="translate(-77.1 -257.99)"/></svg>