<svg id="Layer_1" data-name="Layer 1" xmlns="http://www.w3.org/2000/svg" viewBox="0 0 602.82 307.36"><defs><style>.cls-1{fill:#fff;}</style></defs><path d="M149.5,548-12.91,385.59V332.13c1.51-.7,3-2,4.6-2,5.77-.17,11.09-2.43,16.72-3.27a30.65,30.65,0,0,0,6.84-1.46c2.16-.85,4.61-1,6.94-1.36s4.84-.32,7.06-1.08c6-2.05,12.18-2.88,18.36-3.95,1.84-.32,3.65-.88,5.48-1.32l.62.85a29.39,29.39,0,0,1,2.42-3.11c5.62-5.58,12.63-8.52,20.17-10.39,3.84-1,7.79-1.45,11.62-2.24a56.76,56.76,0,0,1,9.13-.74c3.16-.15,6.56-.74,9.43.17s5.84-.21,8.24,1.8c2.19-.45,4.42.61,6.71-.75,1.65-1,3.95-.34,6-1.11,2.47-.93,5.39-.58,8-1.19,5-1.16,10.22-1.82,15.14-3.29,2.26-.67,4.65-.26,6.86-1.54,1.67-1,4-.78,6-1.13,1.87-.32,3.72-.73,5.59-1,2-.27,4.1-.76,6-1.21,3.19-.74,6.38-1.45,9.61-2.09,3.08-.61,6.16-1.26,9.23-1.9a44.71,44.71,0,0,1,5.77-.85c2.7-3.87,6.68-6.48,10.73-8.73,3.46-1.92,7.43-3,11.24-4.21,4.63-1.51,9.55-1.71,14.28-2.89,3-.73,6.32-.35,9.46-.07s6.26-1.26,9.09.94c3-.68,5.68,1.21,8.58,1s5.87-.25,8.46-1.27c1.67-.66,3.41,0,4.64-.81,1.56-1,3.1-.63,4.64-.93,5.38-1,10.73-2.22,16.09-3.39,2.12-.47,4.21-1.36,6.35-1.5,3-.2,5.86-1.26,8.83-1.65A53.27,53.27,0,0,0,321,262.8c5.1-1.59,10.42-1.91,15.48-3.61,2.82-.94,6-.92,9.35-1.38,2.59-3.58,6.51-6.24,10.56-8.51a48.63,48.63,0,0,1,10.72-4.23c5-1.37,10.21-1.75,15.25-3,1.73-.42,3.65,0,5.49-.07,6.46-.08,12.87,0,19.2,1.88,1.82.54,4.05.16,6.21-.42,4.88-1.31,10-1.91,14.46-2.71L589.91,403v54.66c-4.45,1.18-9,1.47-13.28,3.15-1.88.74-4,.52-6,1a81,81,0,0,1-8.76,1.82,47.45,47.45,0,0,0-8.88,1.58c-5.23,1.74-10.74,1.91-15.94,3.7-2.66.91-5.81.37-8.5,1.24a56.22,56.22,0,0,1-8.2,2c-5.1.84-10.18,2-15.23,3.07-5.3,1.14-10.63,2.47-15.92,3.61-4.13.89-8.4,1.63-12.59,2.39-3.62.67-7.45.87-10.89,2.59-1.67.83-3.64.24-5.55,1.07-2.4,1-5.55.29-7.95,1.32s-4.92,1.07-7.29,1.62c-3.33.79-6.83,1.06-10.2,2a70.92,70.92,0,0,1-9.61,2c-4.25.57-8.41,1.62-12.61,2.37-3.61.64-7.38,1-10.88,2.6-1.79.81-4,.63-6,1.07-7.34,1.58-14.79,2.56-22,5-1.91.65-4,.49-6.05,1-4.36,1.16-8.85,1.94-13.27,2.93-4,.88-8.08,1.5-12.1,2.31-5.5,1.12-11.17,1.56-16.45,3.67-1.76.71-3.64.18-5.57,1.06-2.35,1.08-5.57.26-7.93,1.34s-5.18,0-7.23,1.84c-6.31-.33-12.1,2.33-18.23,3.19a125.5,125.5,0,0,0-14.25,2.93c-3.6.94-7.35,1.17-10.91,2.56-1.93.76-4.3.85-6.46,1.28-2.5.5-5.23.25-7.53,1.16s-5.16,0-7.22,1.88c-5.94-.1-11.5,2.11-17.21,3.22-7,1.36-14.26,2-21,4.78-4.36-.19-8.5,1.25-12.63,2.17-5.32,1.18-10.84,1.5-16,3.61-1.86.77-4,.56-6,1.05-4.87,1.15-9.88,1.73-14.73,3.12A12.27,12.27,0,0,1,149.5,548Zm2.24-55.76c2.18-.77,4.33-.9,6.21-1.45s3.78-.45,5.6-.9,3.48-1.76,5.21-1.76c2.17,0,4.06-.77,6.09-1.13,1.86-.34,3.72-.68,5.58-1,2-.35,4.19-.35,6-1.09,2-.8,4.07-.68,6.08-1.05,1.79-.34,3.48-1.73,5.22-1.73,2.17,0,4.06-.78,6.08-1.13,1.86-.33,3.72-.68,5.59-1,2-.35,4.19-.33,6.05-1.09,2-.83,4.06-.66,6.07-1.06,1.79-.35,3.47-1.72,5.2-1.72,2.17,0,4.06-.77,6.09-1.13,1.86-.34,3.72-.68,5.58-1,2-.35,4.19-.34,6.05-1.09,2-.82,4.26-.34,6-1.1,5-2.11,10.34-2.53,15.48-3.56A107.86,107.86,0,0,1,279.12,466a31.82,31.82,0,0,0,3.6-.94,36.87,36.87,0,0,0,3.69-.72c3.26-1,6.71-1.44,10.07-2.24,2.63-.63,5.51-.33,8-1.19,2.05-.69,4.31-.23,6-1.08,4.75-2.35,10-2.53,15-3.6,4.14-.89,8.28-2.37,12.63-2.19,5-2.43,10.64-2.32,15.9-3.83,2.94-.86,6.14-1.27,9.23-1.88s6.41-1.35,9.61-2.1c1.93-.45,4-.93,6-1.21,1.87-.26,3.73-.66,5.59-1,2-.35,4.25-.27,6-1.11,2-1,4.15-.42,6.06-1.08,5.67-1.95,11.59-2.65,17.41-3.83,1.21-.24,2.38-.7,3.59-1s2.69.58,3.67-.8c3.67-.06,7.06-1.49,10.59-2.19a41.13,41.13,0,0,1,6.58-1c2.27-.07,4.23-1.78,6.59-1.05,5.08-2.13,10.67-2.06,15.91-3.8a48,48,0,0,1,8.87-1.59,78.36,78.36,0,0,0,8.77-1.81c2-.5,4.29-.12,6-1,4.56-2.43,9.74-2.08,14.5-3.62,3.07-1,6.47-1,9.65-2.08s6.79-1.17,10.19-1.89c2.9-.61,5.9-1.19,8.89-1.57a73.3,73.3,0,0,0,8.77-1.81c2-.51,4.18-.24,6-1,5.12-2.15,10.66-2.42,16-3.6,4.13-.93,8.47-1.49,12.58-2.41,4.54-1,9.18-1.77,12.85-2.89L425.43,244.24l-7.91,1.23c.6.69.88,1.37,1.32,1.48a32.9,32.9,0,0,1,8.76,4.2,22.82,22.82,0,0,1,7.53,7.24c1.44,2.2,2.79,4.29,2.82,6.84.12,9.5.2,19,0,28.5a13.33,13.33,0,0,1-3.57,8.51c-3.79,4.29-8.75,6.83-13.64,9.41-2.41,1.28-5.32,1.61-8,2.34s-5.13,1.94-7.66,1.85c-3-.1-5.65,1.42-8.6,1.17-5.68-.46-11.35.24-17.12-.8A106,106,0,0,1,365.08,313a54.36,54.36,0,0,1-11-4.84,30.06,30.06,0,0,1-7.08-5.73,13.91,13.91,0,0,1-3.94-8.33c-.23-3.65-.05-7.33-.05-11,0-3.83,0-7.67,0-11.5,0-3.49-.52-7,1-10.21-24.22,4.56-48,9.79-73.07,14.35a37.94,37.94,0,0,0,4.26,2.24,29.38,29.38,0,0,1,13.56,9.39,15.13,15.13,0,0,1,3.35,10.11c-.24,8-.11,16-.06,24a15.66,15.66,0,0,1-4.89,12,41.94,41.94,0,0,1-11.43,7.5c-7.57,3.67-15.83,4.76-24,5.93a62.86,62.86,0,0,1-11.48,0c-3.7-.16-7.39-.63-11.09-1a4.06,4.06,0,0,1-.88-.27,60.35,60.35,0,0,0-7.75-1.88c-2.52-.49-4.9-1.8-7.29-2.86-5-2.21-9.74-5-13-9.47a15.8,15.8,0,0,1-3.26-10.16c.29-7.66,0-15.33.11-23,0-2.34.38-4.68.57-7L126,305.65v1.09a41.49,41.49,0,0,1,9.19,4.19,25.44,25.44,0,0,1,8.24,7.82c1.38,2.07,2.47,4.13,2.51,6.46.14,9.5.21,19,0,28.5a13.34,13.34,0,0,1-3.56,8.51c-3.77,4.32-8.75,6.84-13.63,9.42-2.41,1.27-5.32,1.62-8,2.35-2.55.69-5.13,1.94-7.66,1.85-3-.1-5.65,1.41-8.59,1.17-5.69-.46-11.41.65-17.12-.87-2.22-.59-4.75-.35-7.06-1.13s-4.5-1.28-6.73-1.8a43.62,43.62,0,0,1-13.84-6.38,18.64,18.64,0,0,1-7.89-10.07,22.81,22.81,0,0,1-.78-6.15c-.13-3.33,0-6.66,0-10s0-6.66,0-10c0-3.16-.44-6.36,1.17-9.53L-7.11,333.39Zm.35,52.55c2.46-.33,4.62-.26,6.47-1a62.35,62.35,0,0,1,10.87-2.63c4.17-.8,8.48-1.47,12.58-2.42,5.29-1.22,10.73-1.83,16-3.57a47.2,47.2,0,0,1,8.87-1.59,73.73,73.73,0,0,0,8.77-1.82c2-.5,4.18-.24,6-1,5.12-2.14,10.66-2.43,16-3.61,4.13-.93,8.28-2.37,12.64-2.17,5-2.43,10.66-2.17,15.87-3.91,2.52-.85,5.5-.34,8-1.21a49.66,49.66,0,0,1,7.75-1.65c3.42-.62,6.74-1.58,10.12-2.29a100.16,100.16,0,0,1,10.2-1.73c5.57-.57,10.66-2.85,16.22-3.41,2.83-.29,5.75-1.31,8.68-1.84s5.76-1.68,8.69-1.87c4-.26,7.55-2.68,11.66-2.09,1.4-2.05,3.88-.12,5.4-1.42,1.75-1.48,4,0,6-1.42,1.26-.93,3.69-.81,5.48-1,4.15-.38,7.89-2.77,12.15-2.19,2.49-1.61,5.51-1.06,8.18-2a40.12,40.12,0,0,1,8.68-1.84c4.13-.46,7.89-2.76,12.15-2.17,1.81-2.06,4.54-.54,6.77-1.84,1.9-1.12,4.64-.78,7-1.18,1.22-.22,2.38-.73,3.6-1s2.44-.44,3.65-.78c3.3-.92,6.74-1.42,10.11-2.19,2.64-.6,5.58-.23,8-1.2,2.07-.83,4.15-.37,6.06-1.07a65,65,0,0,1,10.88-2.6c4.19-.76,8.48-1.47,12.58-2.4,5.29-1.21,10.72-1.93,16-3.6a55.29,55.29,0,0,1,8.84-1.62,70.14,70.14,0,0,0,8.79-1.78c2-.56,4.12-.31,6-1,5.31-2,11-2.54,16.47-3.64,4-.81,7.95-2.27,12.15-2.09,1.49-1.8,3.86-.87,5.74-1.86s4.32-.8,6.51-1.15c2-.32,4.07-.59,6.08-1s4.22-1.14,6.36-1.52c3.7-.67,7.3-1.82,11-2.39a56.87,56.87,0,0,0,8.76-2.29V405.36c-3.7.92-7.37,1.88-10.92,2.43-5.94.93-11.68,2.94-17.72,3.21-1.71,1.69-4.1.41-5.95,1.31-3.46,1.66-7.28,1.9-10.92,2.53-4.2.72-8.27,2.39-12.64,2.16-5,2.44-10.73,2-15.84,4-4.58-.6-8.61,2.47-13.17,2-1.52,1.72-4.1.42-5.67,2-2.35-.69-4.32,1-6.58,1.05-2,.07-4.3.16-6,1.07-2,1.07-4.1.53-6.07,1.07-4.07,1.11-8.16,2.11-12.33,2.82-2.18.38-4.67.47-6.45,1.29-2.28,1-4.64.28-6.9,1.52-2.08,1.15-5,.79-7.49,1.19a47.29,47.29,0,0,0-6.94,1.35c-5.4,1.7-11,2.47-16.5,3.56-4,.8-8,2.27-12.16,2.08-3.08,2.16-6.9,1.84-10.31,2.78a62.64,62.64,0,0,1-10.63,2.08c-4.15.37-7.89,2.68-12.14,2.17-2.54,1.46-5.49,1.18-8.19,2a49.58,49.58,0,0,1-8.68,1.84c-4.14.43-7.89,2.7-12.14,2.21-3.3,2-7.21,2.18-10.81,2.75-4.06.65-7.87,2.8-12.13,2.21-1.8,2.08-4.54.53-6.77,1.84-1.9,1.11-4.67.63-7,1.21s-4.93.4-7,1.13c-3.56,1.25-7.49.9-10.82,2.82-6.05.24-11.72,2.69-17.75,3-1.72,2-4.24.71-6.37,1.51-3.48,1.3-7.28,1.79-11,2.46-2.67.48-5.54.25-8.05,1.12-5.19,1.8-10.63,2.52-15.92,3.68-5.82,1.28-11.67,2.91-17.71,3.23-1.7,1.72-4,.61-6,1.29-5.33,1.9-11,2.55-16.48,3.63-4,.79-7.95,2.28-12.15,2.08-1.47,1.87-3.87.77-5.76,1.85s-4.31.8-6.5,1.15c-2,.32-4.08.57-6.08,1-2.72.61-5.4,1.38-8.11,2.09ZM-9.85,382.86l158.7,158.69V495.13L-9.85,336.43ZM347,261.39c0,.68.27,1.55-.05,1.95-2.36,3-.65,6,.54,8.49a16.35,16.35,0,0,0,8.92,8.19c2.13.87,4.12,2.11,6.27,2.94s4.54,1.13,6.62,2.1a14.88,14.88,0,0,0,7.18,1.82c2.54-.18,4.66,1.18,7.09,1.13,3.66-.06,7.33.12,11-.05s7.38-.63,11.07-1c.32,0,.72,0,.95-.11,1.88-1.29,4.19-1.1,6.22-1.87s4.18-1.18,6.14-2.06c4.75-2.13,9.57-4.31,13-8.44a12,12,0,0,0,2.93-10.13c-.65-3.32-4-6.85-7.23-9.47s-7-4.06-10.72-5.54c-6.17-2.41-12.66-3.49-19.17-4.31-3.11-.4-6.32-.07-9.48-.07-2.17,0-4.73-.73-6.4.18-2.26,1.22-4.48.26-6.58,1s-4.53,1.19-6.73,1.88a52.12,52.12,0,0,0-12.37,5.11C352.58,255.44,350.19,258.78,347,261.39ZM201,291.24c0,.93.28,1.83-.05,2.22-1.62,1.94-.89,3.7-.28,5.83,1.53,5.32,5.22,8.26,9.82,10.79,9.13,5,19,7.16,29.2,7.9,6.55.47,13.06-.29,19.56-1a5.93,5.93,0,0,0,1.42-.2c3.9-1.5,8.07-2.05,11.93-3.76,4.92-2.19,9.86-4.38,13.38-8.61,2.26-2.73,3.72-6.24,2.88-9.69A16.9,16.9,0,0,0,282.4,285c-4.45-3.21-14.14-6.49-19.59-8.21-3.42-1.08-7.1.25-10.21-1.81H236.11c-2.06,1.77-4.67.57-7,1.29s-5,1-7.22,1.88c-4.12,1.64-8.47,2.71-12.29,5.4C206.49,285.8,204.35,288.9,201,291.24Zm-102.69,57L113.63,347c.32,0,.72.05,1-.11,1.88-1.29,4.19-1.09,6.22-1.87s4.18-1.18,6.14-2.06c4.75-2.13,9.56-4.31,13-8.44a12,12,0,0,0,2.93-10.13c-.65-3.31-4-6.85-7.23-9.47s-7-4.06-10.72-5.54a72.82,72.82,0,0,0-19.17-4.29c-4.78-.49-9.65-.09-14.48-.09-.49,0-1.2-.22-1.46,0-1.93,1.88-4.42.4-6.52,1.19s-4.53,1.19-6.72,1.88c-4.25,1.32-8.51,2.66-12.37,5.11-3,1.89-5.22,4.42-7.64,6.81a8.57,8.57,0,0,0-2.38,8.39,16.83,16.83,0,0,0,6.21,9.37c6.81,4.81,14.74,7.15,22.68,9.08C87.86,348,93,347.83,98.31,348.27ZM346,276.32c0,5.47-.16,10.94.08,16.39a14.39,14.39,0,0,0,2.07,6.11c2.12,3.92,5.67,5.94,9.2,7.93,3.89,2.2,8.32,3.2,12.52,4.69,4.37,1.56,9,1.66,13.44,2.43,3.71.64,7.63.26,11.45.09s7.38-.63,11.06-1a3.58,3.58,0,0,0,.91-.23c3.91-1.44,8.09-2,11.92-3.74,4.42-2,9-3.89,12.31-7.57a49.67,49.67,0,0,0,4-5.84c0-6.6,0-12.75,0-18.91a.74.74,0,0,0-.21-.41,2.08,2.08,0,0,0-.38-.26c-3.52,4.28-8.29,6.77-13.12,9.22a47.56,47.56,0,0,1-11,3.58,66.84,66.84,0,0,1-15.6,2.17c-3.32,0-6.65,0-10,0a7.26,7.26,0,0,1-2.47,0c-4.27-1.7-9.15-.59-13.25-3-4.58.11-8.39-2.41-12.22-4.2S349,279.83,346,276.32ZM200,306.39c0,5.31,0,10.61,0,15.92,0,2.48,1.12,4.43,2.25,6.57,2.17,4.08,5.93,6,9.61,8.1s8.09,2.94,12.1,4.5c4.17,1.62,8.65,1.58,13,2.38,3.69.68,7.63.27,11.44.1s7.71-.63,11.57-1c.16,0,.4.07.49,0,1.75-1.62,4.19-1.54,6.19-1.8,2.46-.32,4.09-2.61,6.63-2.19,4.2-2.44,8.94-4.08,12.16-7.95a58.48,58.48,0,0,0,3.61-5.53c0-3.29,0-6.61,0-9.93,0-3.16.17-6.35-.18-9.91a57.18,57.18,0,0,1-4.71,4.63c-1.19.94-2.88,1.25-4.05,2.2-3.88,3.16-8.67,3.95-13.18,5.56s-9.21,2.05-13.79,2.73a57.66,57.66,0,0,1-16.9,0,115,115,0,0,1-13.81-2.64,60.4,60.4,0,0,1-11.66-4.37C207,311.85,202.88,309.91,200,306.39Zm-57.09,29c-4,4.92-8.69,7.54-13.63,9.77a48.32,48.32,0,0,1-9.76,3c-2.88.63-5.66,1.68-8.7,1.82s-5.93,1.3-9.07,1-6.32-.06-9.48-.06a7.89,7.89,0,0,1-2.48,0c-4.46-1.58-9.28-1.33-13.76-2.9a85.2,85.2,0,0,1-12.83-5.22,36.09,36.09,0,0,1-9.2-7.42c0,5.84.07,10.8,0,15.76a14.81,14.81,0,0,0,6.6,12.64,38.76,38.76,0,0,0,10.72,5.37c4,1.26,7.9,3.07,11.91,3.6a108.39,108.39,0,0,0,14,1.36,105.2,105.2,0,0,0,16.52-1.33A50.81,50.81,0,0,0,130,367.5a74.09,74.09,0,0,0,7.21-4.25c2.83-2,4.37-5,5.73-8Z" transform="translate(12.91 -240.74)"/><path class="cls-1" d="M151.74,492.24-7.11,333.39l59.28-12.31c-1.61,3.17-1.14,6.37-1.17,9.53,0,3.34,0,6.67,0,10s-.1,6.67,0,10a22.81,22.81,0,0,0,.78,6.15,18.64,18.64,0,0,0,7.89,10.07,43.62,43.62,0,0,0,13.84,6.38c2.23.52,4.53,1.06,6.73,1.8s4.84.54,7.06,1.13c5.71,1.52,11.43.41,17.12.87,2.94.24,5.58-1.27,8.59-1.17,2.53.09,5.11-1.16,7.66-1.85,2.7-.73,5.61-1.08,8-2.35,4.88-2.58,9.86-5.1,13.63-9.42a13.34,13.34,0,0,0,3.56-8.51c.24-9.5.17-19,0-28.5,0-2.33-1.13-4.39-2.51-6.46a25.44,25.44,0,0,0-8.24-7.82,41.49,41.49,0,0,0-9.19-4.19v-1.09l71.59-14.25c-.19,2.27-.54,4.61-.57,7-.07,7.67.18,15.34-.11,23a15.8,15.8,0,0,0,3.26,10.16c3.27,4.43,8,7.26,13,9.47,2.39,1.06,4.77,2.37,7.29,2.86a60.35,60.35,0,0,1,7.75,1.88,4.06,4.06,0,0,0,.88.27c3.7.34,7.39.81,11.09,1a62.86,62.86,0,0,0,11.48,0c8.19-1.17,16.45-2.26,24-5.93a41.94,41.94,0,0,0,11.43-7.5,15.66,15.66,0,0,0,4.89-12c-.05-8-.18-16,.06-24a15.13,15.13,0,0,0-3.35-10.11A29.38,29.38,0,0,0,275.16,278a37.94,37.94,0,0,1-4.26-2.24c25-4.56,48.85-9.79,73.07-14.35-1.48,3.19-.93,6.72-1,10.21-.05,3.83,0,7.67,0,11.5,0,3.67-.18,7.35.05,11a13.91,13.91,0,0,0,3.94,8.33,30.06,30.06,0,0,0,7.08,5.73,54.36,54.36,0,0,0,11,4.84,106,106,0,0,0,14.22,3.22c5.77,1,11.44.34,17.12.8,2.95.25,5.58-1.27,8.6-1.17,2.53.09,5.11-1.16,7.66-1.85s5.61-1.06,8-2.34c4.89-2.58,9.85-5.12,13.64-9.41a13.33,13.33,0,0,0,3.57-8.51c.24-9.49.16-19,0-28.5,0-2.55-1.38-4.64-2.82-6.84a22.82,22.82,0,0,0-7.53-7.24,32.9,32.9,0,0,0-8.76-4.2c-.44-.11-.72-.79-1.32-1.48l7.91-1.23L584.06,402.87c-3.67,1.12-8.31,1.87-12.85,2.89-4.11.92-8.45,1.48-12.58,2.41-5.31,1.18-10.85,1.45-16,3.6-1.87.78-4,.51-6,1a73.3,73.3,0,0,1-8.77,1.81c-3,.38-6,1-8.89,1.57-3.4.72-6.92.82-10.19,1.89s-6.58,1.09-9.65,2.08c-4.76,1.54-9.94,1.19-14.5,3.62-1.73.92-4,.54-6,1a78.36,78.36,0,0,1-8.77,1.81A48,48,0,0,0,461,428.2c-5.24,1.74-10.83,1.67-15.91,3.8-2.36-.73-4.32,1-6.59,1.05a41.13,41.13,0,0,0-6.58,1c-3.53.7-6.92,2.13-10.59,2.19-1,1.38-2.44.53-3.67.8s-2.38.73-3.59,1c-5.82,1.18-11.74,1.88-17.41,3.83-1.91.66-4,.12-6.06,1.08-1.79.84-4,.76-6,1.11-1.86.32-3.72.72-5.59,1-2,.28-4.1.76-6,1.21-3.2.75-6.39,1.46-9.61,2.1s-6.29,1-9.23,1.88c-5.26,1.51-10.89,1.4-15.9,3.83-4.35-.18-8.49,1.3-12.63,2.19-5,1.07-10.22,1.25-15,3.6-1.73.85-4,.39-6,1.08-2.52.86-5.4.56-8,1.19-3.36.8-6.81,1.25-10.07,2.24a36.87,36.87,0,0,1-3.69.72,31.82,31.82,0,0,1-3.6.94A107.86,107.86,0,0,0,266,468.25c-5.14,1-10.5,1.45-15.48,3.56-1.78.76-4,.28-6,1.1-1.86.75-4,.74-6.05,1.09-1.86.32-3.72.66-5.58,1-2,.36-3.92,1.12-6.09,1.13-1.73,0-3.41,1.37-5.2,1.72-2,.4-4,.23-6.07,1.06-1.86.76-4,.74-6.05,1.09-1.87.32-3.73.67-5.59,1-2,.35-3.91,1.12-6.08,1.13-1.74,0-3.43,1.39-5.22,1.73-2,.37-4.05.25-6.08,1.05-1.86.74-4,.74-6,1.09-1.86.32-3.72.66-5.58,1-2,.36-3.92,1.12-6.09,1.13-1.73,0-3.42,1.31-5.21,1.76s-3.7.35-5.6.9S153.92,491.47,151.74,492.24ZM424,360.25c0,4,.17,8-.05,12-.26,4.82,1.72,8.63,4.81,12,4.6,5,10.67,7.57,16.93,9.75,1.48.51,3.08.78,4.52,1.21s3,.26,4.06.91a6.59,6.59,0,0,0,4.65.83c1.74-.22,3,1,4.59,1,3.16,0,6.33.13,9.48,0s6.21.82,9.08-1c4.08.48,7.81-1.11,11.66-2a42.17,42.17,0,0,0,20.9-11.1A14.08,14.08,0,0,0,519,373.73c.12-8.82.06-17.64,0-26.47a12.14,12.14,0,0,0-.7-3.68c-1.64-5-5-8.3-9.24-11.12-3.52-2.34-7.44-3.74-11.24-5.45-1-.44-2.06-.66-3.07-1-2.3-.82-4.83-.59-7-1.21-1.75-.49-3.49-.36-5.12-.85A15.16,15.16,0,0,0,477,323c-5.52.44-11-.56-16.61.84-3.46.87-7.09,1.33-10.62,2.14-8.11,1.85-15.4,5.14-21.39,11.1A14.5,14.5,0,0,0,424,347.76C424,351.92,424,356.09,424,360.25Zm-51,30.43c0-4.67.11-9.33-.06-14a11,11,0,0,0-1.3-5.41,27.87,27.87,0,0,0-9.43-9.39c-3.53-2-7.25-3.43-10.9-5.07a18.11,18.11,0,0,0-2.16-.82c-2.46-.75-5.29-.43-7.48-1.25s-4.53.17-6.08-.88c-2.28-1.55-4.48-.64-6.67-.82-3-.23-6-.06-9-.05-1.16,0-2.77-.45-3.38.14-1.37,1.29-2.81.6-4.19.87-1.54.29-3.06.65-4.58,1-2.29.51-4.58,1-6.85,1.57a43,43,0,0,0-14.22,6.56c-5.19,3.68-9.13,8.45-8.79,15.71.36,7.8.23,15.64,0,23.46-.13,4.83,1.79,8.59,4.86,12,4.47,4.95,10.4,7.56,16.49,9.6,4.73,1.58,9.55,3.31,14.71,3.1.49,0,1.15-.21,1.47,0,2.86,2.14,6.08.63,9.1.9s6.47.66,9.45-.07c4.57-1.12,9.26-1.43,13.81-2.75,7.67-2.2,14.68-5.27,20.49-10.88A14.7,14.7,0,0,0,373,403.16ZM227,420.9V408.41c0-6.33-3.88-12-9.46-15.55-3.71-2.38-7.73-3.9-11.59-5.84a18.85,18.85,0,0,0-3.08-1,26.31,26.31,0,0,0-3.58-1c-1.29-.19-2.7.14-3.92-.22A43.1,43.1,0,0,0,185.14,383c-4-.2-8,0-12,0-.83,0-2-.35-2.44.06-1.44,1.27-3.07.75-4.63,1a49,49,0,0,0-5.08,1c-2.1.52-4.17,1.19-6.27,1.74a46.67,46.67,0,0,0-13,6c-5.92,3.75-9.88,8.44-9.75,15.9.15,7.82.19,15.65,0,23.47A16.64,16.64,0,0,0,137,444.5c4.58,4.82,10.48,7.32,16.56,9.45,2.79,1,5.94,1.24,8.55,2.28,3.11,1.23,6.53-.39,9.26,1.77,5.49,0,11.09.67,16.44-.21,4.41-.73,8.91-1.41,13.33-2.59,8.26-2.2,15.65-5.45,21.73-11.53a13.76,13.76,0,0,0,4.12-9.79C227.07,429.55,227,425.23,227,420.9Z" transform="translate(12.91 -240.74)"/><path class="cls-1" d="M152.09,544.79V495.11c2.71-.71,5.39-1.48,8.11-2.09,2-.45,4.05-.7,6.08-1,2.19-.35,4.7-.13,6.5-1.15s4.29,0,5.76-1.85c4.2.2,8.13-1.29,12.15-2.08,5.52-1.08,11.15-1.73,16.48-3.63,2-.68,4.26.43,6-1.29,6-.32,11.89-1.95,17.71-3.23,5.29-1.16,10.73-1.88,15.92-3.68,2.51-.87,5.38-.64,8.05-1.12,3.7-.67,7.5-1.16,11-2.46,2.13-.8,4.65.51,6.37-1.51,6-.31,11.7-2.76,17.75-3,3.33-1.92,7.26-1.57,10.82-2.82,2.1-.73,4.68-.54,7-1.13s5.08-.1,7-1.21c2.23-1.31,5,.24,6.77-1.84,4.26.59,8.07-1.56,12.13-2.21,3.6-.57,7.51-.71,10.81-2.75,4.25.49,8-1.78,12.14-2.21a49.58,49.58,0,0,0,8.68-1.84c2.7-.78,5.65-.5,8.19-2,4.25.51,8-1.8,12.14-2.17a62.64,62.64,0,0,0,10.63-2.08c3.41-.94,7.23-.62,10.31-2.78,4.2.19,8.13-1.28,12.16-2.08,5.51-1.09,11.1-1.86,16.5-3.56a47.29,47.29,0,0,1,6.94-1.35c2.52-.4,5.41,0,7.49-1.19,2.26-1.24,4.62-.48,6.9-1.52,1.78-.82,4.27-.91,6.45-1.29,4.17-.71,8.26-1.71,12.33-2.82,2-.54,4,0,6.07-1.07,1.73-.91,4-1,6-1.07,2.26-.07,4.23-1.74,6.58-1.05,1.57-1.58,4.15-.28,5.67-2,4.56.47,8.59-2.6,13.17-2,5.11-2,10.84-1.56,15.84-4,4.37.23,8.44-1.44,12.64-2.16,3.64-.63,7.46-.87,10.92-2.53,1.85-.9,4.24.38,5.95-1.31,6-.27,11.78-2.28,17.72-3.21,3.55-.55,7.22-1.51,10.92-2.43v49.42a56.87,56.87,0,0,1-8.76,2.29c-3.7.57-7.3,1.72-11,2.39-2.14.38-4.22,1.08-6.36,1.52s-4.05.69-6.08,1c-2.19.35-4.65.17-6.51,1.15s-4.25.06-5.74,1.86c-4.2-.18-8.14,1.28-12.15,2.09-5.51,1.1-11.16,1.61-16.47,3.64-1.92.74-4,.49-6,1a70.14,70.14,0,0,1-8.79,1.78,55.29,55.29,0,0,0-8.84,1.62c-5.24,1.67-10.67,2.39-16,3.6-4.1.93-8.39,1.64-12.58,2.4a65,65,0,0,0-10.88,2.6c-1.91.7-4,.24-6.06,1.07-2.43,1-5.37.6-8,1.2-3.37.77-6.81,1.27-10.11,2.19-1.21.34-2.42.54-3.65.78s-2.38.74-3.6,1c-2.34.4-5.08.06-7,1.18-2.23,1.3-5-.22-6.77,1.84-4.26-.59-8,1.71-12.15,2.17a40.12,40.12,0,0,0-8.68,1.84c-2.67.93-5.69.38-8.18,2-4.26-.58-8,1.81-12.15,2.19-1.79.16-4.22,0-5.48,1-2,1.45-4.23-.06-6,1.42-1.52,1.3-4-.63-5.4,1.42-4.11-.59-7.66,1.83-11.66,2.09-2.93.19-5.77,1.36-8.69,1.87s-5.85,1.55-8.68,1.84c-5.56.56-10.65,2.84-16.22,3.41a100.16,100.16,0,0,0-10.2,1.73c-3.38.71-6.7,1.67-10.12,2.29a49.66,49.66,0,0,0-7.75,1.65c-2.51.87-5.49.36-8,1.21-5.21,1.74-10.87,1.48-15.87,3.91-4.36-.2-8.51,1.24-12.64,2.17-5.31,1.18-10.85,1.47-16,3.61-1.86.77-4,.51-6,1a73.73,73.73,0,0,1-8.77,1.82A47.2,47.2,0,0,0,198,535.2c-5.23,1.74-10.67,2.35-16,3.57-4.1,1-8.41,1.62-12.58,2.42a62.35,62.35,0,0,0-10.87,2.63C156.71,544.53,154.55,544.46,152.09,544.79Z" transform="translate(12.91 -240.74)"/><path class="cls-1" d="M-9.85,382.86V336.43l158.7,158.7v46.42Z" transform="translate(12.91 -240.74)"/><path class="cls-1" d="M347,261.39c3.19-2.61,5.58-5.95,9.15-8.18a52.12,52.12,0,0,1,12.37-5.11c2.2-.69,4.54-1.06,6.73-1.88s4.32.18,6.58-1c1.67-.91,4.23-.18,6.4-.18,3.16,0,6.37-.33,9.48.07,6.51.82,13,1.9,19.17,4.31,3.76,1.48,7.48,2.89,10.72,5.54s6.58,6.15,7.23,9.47a12,12,0,0,1-2.93,10.13c-3.39,4.13-8.21,6.31-13,8.44-2,.88-4.12,1.29-6.14,2.06s-4.34.58-6.22,1.87c-.23.15-.63.08-.95.11-3.69.33-7.38.79-11.07,1s-7.33,0-11,.05c-2.43.05-4.55-1.31-7.09-1.13a14.88,14.88,0,0,1-7.18-1.82c-2.08-1-4.46-1.27-6.62-2.1s-4.14-2.07-6.27-2.94a16.35,16.35,0,0,1-8.92-8.19c-1.19-2.54-2.9-5.47-.54-8.49C347.27,262.94,347,262.07,347,261.39Z" transform="translate(12.91 -240.74)"/><path class="cls-1" d="M201,291.24c3.35-2.34,5.49-5.44,8.65-7.67,3.82-2.69,8.17-3.76,12.29-5.4,2.2-.87,4.84-1.13,7.22-1.88s4.89.48,7-1.29H252.6c3.11,2.06,6.79.73,10.21,1.81,5.45,1.72,15.14,5,19.59,8.21a16.9,16.9,0,0,1,6.46,9.72c.84,3.45-.62,7-2.88,9.69-3.52,4.23-8.46,6.42-13.38,8.61-3.86,1.71-8,2.26-11.93,3.76a5.93,5.93,0,0,1-1.42.2c-6.5.69-13,1.45-19.56,1-10.23-.74-20.07-2.87-29.2-7.9-4.6-2.53-8.29-5.47-9.82-10.79-.61-2.13-1.34-3.89.28-5.83C201.28,293.07,201,292.17,201,291.24Z" transform="translate(12.91 -240.74)"/><path class="cls-1" d="M98.31,348.27C93,347.83,87.86,348,83,346.86c-7.94-1.93-15.87-4.27-22.68-9.08a16.83,16.83,0,0,1-6.21-9.37A8.57,8.57,0,0,1,56.52,320c2.42-2.39,4.67-4.92,7.64-6.81,3.86-2.45,8.12-3.79,12.37-5.11,2.19-.69,4.54-1.06,6.72-1.88s4.59.69,6.52-1.19c.26-.25,1,0,1.46,0,4.83,0,9.7-.4,14.48.09a72.82,72.82,0,0,1,19.17,4.29c3.76,1.48,7.48,2.89,10.72,5.54s6.58,6.16,7.23,9.47a12,12,0,0,1-2.93,10.13c-3.4,4.13-8.21,6.31-13,8.44-2,.88-4.12,1.29-6.14,2.06s-4.34.58-6.22,1.87c-.23.16-.63.08-1,.11Z" transform="translate(12.91 -240.74)"/><path class="cls-1" d="M346,276.32c3,3.51,7,5.71,10.79,7.48s7.64,4.31,12.22,4.2c4.1,2.37,9,1.26,13.25,3a7.26,7.26,0,0,0,2.47,0c3.33,0,6.66,0,10,0a66.84,66.84,0,0,0,15.6-2.17,47.56,47.56,0,0,0,11-3.58c4.83-2.45,9.6-4.94,13.12-9.22a2.08,2.08,0,0,1,.38.26.74.74,0,0,1,.21.41c0,6.16,0,12.31,0,18.91a49.67,49.67,0,0,1-4,5.84c-3.34,3.68-7.89,5.54-12.31,7.57-3.83,1.75-8,2.3-11.92,3.74a3.58,3.58,0,0,1-.91.23c-3.68.34-7.36.81-11.06,1s-7.74.55-11.45-.09c-4.47-.77-9.07-.87-13.44-2.43-4.2-1.49-8.63-2.49-12.52-4.69-3.53-2-7.08-4-9.2-7.93a14.39,14.39,0,0,1-2.07-6.11C345.84,287.26,346,281.79,346,276.32Z" transform="translate(12.91 -240.74)"/><path class="cls-1" d="M200,306.39c2.88,3.52,7,5.46,10.71,7.4a60.4,60.4,0,0,0,11.66,4.37,115,115,0,0,0,13.81,2.64,57.66,57.66,0,0,0,16.9,0c4.58-.68,9.3-1.12,13.79-2.73s9.3-2.4,13.18-5.56c1.17-.95,2.86-1.26,4.05-2.2a57.18,57.18,0,0,0,4.71-4.63c.35,3.56.14,6.75.18,9.91,0,3.32,0,6.64,0,9.93a58.48,58.48,0,0,1-3.61,5.53c-3.22,3.87-8,5.51-12.16,7.95-2.54-.42-4.17,1.87-6.63,2.19-2,.26-4.44.18-6.19,1.8-.09.08-.33,0-.49,0-3.86.33-7.7.79-11.57,1s-7.75.58-11.44-.1c-4.31-.8-8.79-.76-13-2.38-4-1.56-8.33-2.35-12.1-4.5s-7.44-4-9.61-8.1c-1.13-2.14-2.26-4.09-2.25-6.57C200,317,200,311.7,200,306.39Z" transform="translate(12.91 -240.74)"/><path class="cls-1" d="M142.91,335.4v19.85c-1.36,3-2.9,6-5.73,8A74.09,74.09,0,0,1,130,367.5a50.81,50.81,0,0,1-16.21,5.32,105.2,105.2,0,0,1-16.52,1.33,108.39,108.39,0,0,1-14-1.36c-4-.53-8-2.34-11.91-3.6a38.76,38.76,0,0,1-10.72-5.37A14.81,14.81,0,0,1,54,351.18c.09-5,0-9.92,0-15.76a36.09,36.09,0,0,0,9.2,7.42A85.2,85.2,0,0,0,76,348.06c4.48,1.57,9.3,1.32,13.76,2.9a7.89,7.89,0,0,0,2.48,0c3.16,0,6.34-.22,9.48.06s6-.88,9.07-1,5.82-1.19,8.7-1.82a48.32,48.32,0,0,0,9.76-3C134.22,342.94,138.93,340.32,142.91,335.4Z" transform="translate(12.91 -240.74)"/><path d="M424,360.25c0-4.16,0-8.33,0-12.49a14.5,14.5,0,0,1,4.37-10.69c6-6,13.28-9.25,21.39-11.1,3.53-.81,7.16-1.27,10.62-2.14,5.58-1.4,11.09-.4,16.61-.84a15.16,15.16,0,0,1,5.6.94c1.63.49,3.37.36,5.12.85,2.19.62,4.72.39,7,1.21,1,.36,2.09.58,3.07,1,3.8,1.71,7.72,3.11,11.24,5.45,4.23,2.82,7.6,6.08,9.24,11.12a12.14,12.14,0,0,1,.7,3.68c0,8.83.1,17.65,0,26.47a14.08,14.08,0,0,1-4.33,10.19,42.17,42.17,0,0,1-20.9,11.1c-3.85.87-7.58,2.46-11.66,2-2.87,1.78-6,.82-9.08,1s-6.32.07-9.48,0c-1.58,0-2.85-1.26-4.59-1a6.59,6.59,0,0,1-4.65-.83c-1-.65-2.68-.5-4.06-.91s-3-.7-4.52-1.21c-6.26-2.18-12.33-4.73-16.93-9.75-3.09-3.38-5.07-7.19-4.81-12C424.17,368.25,424,364.24,424,360.25Zm4-17.93c0,.64.11,1,0,1.3-1.76,3.86-.68,7.06,1.5,10.58,2,3.18,4.72,5,7.68,6.79,4,2.43,8.55,3.49,12.87,5.13,4.67,1.78,9.55,1.87,14.31,2.74,3.71.68,7.64.27,11.46.1s7.39-.63,11.08-1a4,4,0,0,0,.88-.26c3.94-1.39,8.1-2,11.95-3.72,4.78-2.1,9.43-4.36,13.06-8.27,2-2.18,2.61-5,3.17-7.67.43-2.15-.84-4.34-2.3-7-3.14-5.76-8.77-7.8-14.28-10a92.26,92.26,0,0,0-9.24-3A66.22,66.22,0,0,0,480,326.18c-5.58-.67-11.3-.18-17-.18-2,1.83-4.66.55-6.93,1.36s-4.63.85-6.79,1.69c-4.16,1.62-8.43,2.86-12.31,5.31C433.53,336.52,431.31,339.79,428,342.32Zm-1,14.9c0,5.62,0,11.23,0,16.85a11.38,11.38,0,0,0,.71,2.19c1.31,5.36,5,8.53,9.76,10.77,1.68.79,3.15,2,4.85,2.75s3.6.94,5.38,1.47,3.48,1.46,5.27,1.66,3.48,1.43,5.58,1.2c1.8-.2,3.7.8,5.56.84,8.6.19,17.16.13,25.64-1.89,5.72-1.37,15-4.74,19.6-8.09,3.15-2.3,6.08-5.35,6.45-9.18.61-6.2.17-12.5.17-18.92-2.75,1.67-3.94,4.39-6.73,5.44-2.44.93-4.31,3-6.89,3.85-3.24,1.07-6.23,2.94-9.8,2.84-4.6,2.5-9.82,2.47-14.74,2.84a80.16,80.16,0,0,1-28.23-2.7,68.29,68.29,0,0,1-11.7-4.3C434.13,363,430.17,360.86,427,357.22Z" transform="translate(12.91 -240.74)"/><path d="M373,390.68v12.48a14.7,14.7,0,0,1-4.68,11.07c-5.81,5.61-12.82,8.68-20.49,10.88-4.55,1.32-9.24,1.63-13.81,2.75-3,.73-6.31.36-9.45.07s-6.24,1.24-9.1-.9c-.32-.24-1,0-1.47,0-5.16.21-10-1.52-14.71-3.1-6.09-2-12-4.65-16.49-9.6-3.07-3.41-5-7.17-4.86-12,.21-7.82.34-15.66,0-23.46-.34-7.26,3.6-12,8.79-15.71a43,43,0,0,1,14.22-6.56c2.27-.58,4.56-1.06,6.85-1.57,1.52-.34,3-.7,4.58-1,1.38-.27,2.82.42,4.19-.87.61-.59,2.22-.14,3.38-.14,3,0,6-.18,9,.05,2.19.18,4.39-.73,6.67.82,1.55,1.05,3.9.06,6.08.88s5,.5,7.48,1.25a18.11,18.11,0,0,1,2.16.82c3.65,1.64,7.37,3.08,10.9,5.07a27.87,27.87,0,0,1,9.43,9.39,11,11,0,0,1,1.3,5.41C373.11,381.35,373,386,373,390.68Zm-91-18.34c0,.83.28,1.73,0,2.12-1.62,1.94-.89,3.7-.28,5.83,1.53,5.32,5.26,8.21,9.82,10.81,8.33,4.73,17.44,6.62,26.72,7.8a65.25,65.25,0,0,0,13,0,84.16,84.16,0,0,0,12.68-1.88,67.45,67.45,0,0,0,13.5-4.82c3.66-1.71,7.13-3.66,9.62-6.81,2.27-2.88,3.84-6.34,2.75-10.11a16.29,16.29,0,0,0-5.6-8.63c-5.75-4.4-12.55-6.65-19.39-8.62a67.82,67.82,0,0,0-10.66-1.89c-5.58-.66-11.3-.17-17-.17-2.06,1.77-4.67.57-6.95,1.29s-5,1-7.22,1.88c-4.12,1.64-8.46,2.72-12.29,5.4C287.35,366.89,285.12,370.14,282,372.34Zm-1,15.05c0,5.31,0,10.61,0,15.92,0,2.48,1.12,4.43,2.25,6.57,2.17,4.08,5.93,6,9.61,8.1s8.09,2.94,12.1,4.5c4.17,1.62,8.65,1.58,13,2.38,3.69.68,7.63.27,11.44.1s7.71-.63,11.57-1c.16,0,.4.07.49,0,1.75-1.62,4.19-1.54,6.19-1.8,2.46-.32,4.09-2.61,6.63-2.19,4.2-2.44,8.94-4.08,12.16-7.95a58.48,58.48,0,0,0,3.61-5.53c0-3.29,0-6.61,0-9.93,0-3.16.17-6.35-.18-9.93a45.26,45.26,0,0,1-8.69,7c-4.2,2.62-8.74,3.83-13.25,5.44s-9.21,2.05-13.79,2.73a57.66,57.66,0,0,1-16.9,0,115,115,0,0,1-13.81-2.64,60.4,60.4,0,0,1-11.66-4.37C288,392.85,283.88,390.91,281,387.39Z" transform="translate(12.91 -240.74)"/><path d="M227,420.9c0,4.33.07,8.65,0,13a13.76,13.76,0,0,1-4.12,9.79c-6.08,6.08-13.47,9.33-21.73,11.53-4.42,1.18-8.92,1.86-13.33,2.59-5.35.88-11,.21-16.44.21-2.73-2.16-6.15-.54-9.26-1.77-2.61-1-5.76-1.3-8.55-2.28-6.08-2.13-12-4.63-16.56-9.45a16.64,16.64,0,0,1-5.05-12.42c.21-7.82.17-15.65,0-23.47-.13-7.46,3.83-12.15,9.75-15.9a46.67,46.67,0,0,1,13-6c2.1-.55,4.17-1.22,6.27-1.74a49,49,0,0,1,5.08-1c1.56-.21,3.19.31,4.63-1,.47-.41,1.61-.06,2.44-.06,4,0,8-.16,12,0a43.1,43.1,0,0,1,10.23,1.77c1.22.36,2.63,0,3.92.22a26.31,26.31,0,0,1,3.58,1,18.85,18.85,0,0,1,3.08,1c3.86,1.94,7.88,3.46,11.59,5.84,5.58,3.59,9.45,9.22,9.46,15.55Zm-47.92,8.34c4.06-.34,8.07-.59,12.11-1.06a67.41,67.41,0,0,0,19.7-5.63c3.79-1.67,7.44-3.76,10-7.06,2.28-2.9,3.85-6.36,2.85-10.12a14.83,14.83,0,0,0-5.62-8.59c-3.42-2.36-6.89-4.68-11.05-5.85-3.89-1.1-7.5-3.17-11.71-3-1.47-1.72-3.6-.21-5.09-1-1.86-1-3.71-.9-5.62-.91-3.83,0-7.66,0-11.49,0a7.33,7.33,0,0,0-2.48,0c-4.13,1.53-8.62,1.46-12.76,2.95-4.35,1.56-8.83,2.67-12.83,5.25-3,1.9-5.22,4.41-7.63,6.81a8.61,8.61,0,0,0-2.35,8.4,16.79,16.79,0,0,0,6.24,9.36c6.82,4.77,14.74,7.16,22.68,9.05C168.9,429,174.06,428.83,179.08,429.24ZM135,417.11q0,7.65,0,15.32c0,5.39,2.66,9.48,6.76,12.5a34.23,34.23,0,0,0,11.18,5.5c1.79.49,3.57,1,5.33,1.58a52.05,52.05,0,0,0,5.68,1.93c1.9.38,4.1-.24,5.8.48,2.15.9,4.19.51,6.25.53a108.62,108.62,0,0,0,15.58-.76,68.58,68.58,0,0,0,12-2.55,48.5,48.5,0,0,0,13.7-6.64c3.31-2.44,6.21-5.54,6.59-9.56.57-6.05.15-12.2.15-18.41-2.52,2-4.68,3.84-7,5.43a38,38,0,0,1-7.23,4.19,76.21,76.21,0,0,1-11.11,3.29,105.57,105.57,0,0,1-12.14,2,62.44,62.44,0,0,1-9,0c-2.87-.11-5.87.73-8.57-1-4.25.58-8.17-1-12.13-2.07s-7.9-2.05-11.24-4.09C142,422.64,137.91,420.81,135,417.11Z" transform="translate(12.91 -240.74)"/><path class="cls-1" d="M428,342.32c3.31-2.53,5.53-5.8,9-8,3.88-2.45,8.15-3.69,12.31-5.31,2.16-.84,4.6-.91,6.79-1.69s4.91.47,6.93-1.36c5.66,0,11.38-.49,17,.18A66.22,66.22,0,0,1,490.12,328a92.26,92.26,0,0,1,9.24,3c5.51,2.23,11.14,4.27,14.28,10,1.46,2.67,2.73,4.86,2.3,7-.56,2.71-1.15,5.49-3.17,7.67-3.63,3.91-8.28,6.17-13.06,8.27-3.85,1.69-8,2.33-11.95,3.72a4,4,0,0,1-.88.26c-3.69.34-7.38.81-11.08,1s-7.75.58-11.46-.1c-4.76-.87-9.64-1-14.31-2.74-4.32-1.64-8.86-2.7-12.87-5.13-3-1.79-5.7-3.61-7.68-6.79-2.18-3.52-3.26-6.72-1.5-10.58C428.11,343.34,428,343,428,342.32Z" transform="translate(12.91 -240.74)"/><path class="cls-1" d="M427,357.22c3.17,3.64,7.13,5.74,10.91,7.62a68.29,68.29,0,0,0,11.7,4.3,80.16,80.16,0,0,0,28.23,2.7c4.92-.37,10.14-.34,14.74-2.84,3.57.1,6.56-1.77,9.8-2.84,2.58-.85,4.45-2.92,6.89-3.85,2.79-1.05,4-3.77,6.73-5.44,0,6.42.44,12.72-.17,18.92-.37,3.83-3.3,6.88-6.45,9.18-4.61,3.35-13.88,6.72-19.6,8.09-8.48,2-17,2.08-25.64,1.89-1.86,0-3.76-1-5.56-.84-2.1.23-3.67-1-5.58-1.2s-3.5-1.13-5.27-1.66-3.67-.77-5.38-1.47-3.17-2-4.85-2.75c-4.77-2.24-8.45-5.41-9.76-10.77a11.38,11.38,0,0,1-.71-2.19C427,368.45,427,362.84,427,357.22Z" transform="translate(12.91 -240.74)"/><path class="cls-1" d="M282,372.34c3.13-2.2,5.36-5.45,8.66-7.77,3.83-2.68,8.17-3.76,12.29-5.4,2.19-.87,4.84-1.13,7.22-1.88s4.89.48,6.95-1.29c5.66,0,11.38-.49,17,.17a67.82,67.82,0,0,1,10.66,1.89c6.84,2,13.64,4.22,19.39,8.62a16.29,16.29,0,0,1,5.6,8.63c1.09,3.77-.48,7.23-2.75,10.11-2.49,3.15-6,5.1-9.62,6.81a67.45,67.45,0,0,1-13.5,4.82,84.16,84.16,0,0,1-12.68,1.88,65.25,65.25,0,0,1-13,0c-9.28-1.18-18.39-3.07-26.72-7.8-4.56-2.6-8.29-5.49-9.82-10.81-.61-2.13-1.34-3.89.28-5.83C282.27,374.07,282,373.17,282,372.34Z" transform="translate(12.91 -240.74)"/><path class="cls-1" d="M281,387.39c2.88,3.52,7,5.46,10.71,7.4a60.4,60.4,0,0,0,11.66,4.37,115,115,0,0,0,13.81,2.64,57.66,57.66,0,0,0,16.9,0c4.58-.68,9.3-1.12,13.79-2.73s9.05-2.82,13.25-5.44a45.26,45.26,0,0,0,8.69-7c.35,3.58.14,6.77.18,9.93,0,3.32,0,6.64,0,9.93a58.48,58.48,0,0,1-3.61,5.53c-3.22,3.87-8,5.51-12.16,7.95-2.54-.42-4.17,1.87-6.63,2.19-2,.26-4.44.18-6.19,1.8-.09.08-.33,0-.49,0-3.86.33-7.7.79-11.57,1s-7.75.58-11.44-.1c-4.31-.8-8.79-.76-13-2.38-4-1.56-8.33-2.35-12.1-4.5s-7.44-4-9.61-8.1c-1.13-2.14-2.26-4.09-2.25-6.57C281,398,281,392.7,281,387.39Z" transform="translate(12.91 -240.74)"/><path class="cls-1" d="M179.08,429.24c-5-.41-10.18-.23-15-1.38-7.94-1.89-15.86-4.28-22.68-9.05a16.79,16.79,0,0,1-6.24-9.36,8.61,8.61,0,0,1,2.35-8.4c2.41-2.4,4.68-4.91,7.63-6.81,4-2.58,8.48-3.69,12.83-5.25,4.14-1.49,8.63-1.42,12.76-2.95a7.33,7.33,0,0,1,2.48,0c3.83,0,7.66,0,11.49,0,1.91,0,3.76-.06,5.62.91,1.49.77,3.62-.74,5.09,1,4.21-.13,7.82,1.94,11.71,3,4.16,1.17,7.63,3.49,11.05,5.85a14.83,14.83,0,0,1,5.62,8.59c1,3.76-.57,7.22-2.85,10.12-2.59,3.3-6.24,5.39-10,7.06a67.41,67.41,0,0,1-19.7,5.63C187.15,428.65,183.14,428.9,179.08,429.24Z" transform="translate(12.91 -240.74)"/><path class="cls-1" d="M135,417.11c2.91,3.7,7,5.53,10.58,7.73,3.34,2,7.39,3.06,11.24,4.09S164.7,431.58,169,431c2.7,1.7,5.7.86,8.57,1a62.44,62.44,0,0,0,9,0,105.57,105.57,0,0,0,12.14-2,76.21,76.21,0,0,0,11.11-3.29,38,38,0,0,0,7.23-4.19c2.35-1.59,4.51-3.47,7-5.43,0,6.21.42,12.36-.15,18.41-.38,4-3.28,7.12-6.59,9.56a48.5,48.5,0,0,1-13.7,6.64,68.58,68.58,0,0,1-12,2.55A108.62,108.62,0,0,1,176,455c-2.06,0-4.1.37-6.25-.53-1.7-.72-3.9-.1-5.8-.48a52.05,52.05,0,0,1-5.68-1.93c-1.76-.58-3.54-1.09-5.33-1.58a34.23,34.23,0,0,1-11.18-5.5c-4.1-3-6.77-7.11-6.76-12.5Q135,424.77,135,417.11Z" transform="translate(12.91 -240.74)"/></svg>