<svg id="Layer_1" data-name="Layer 1" xmlns="http://www.w3.org/2000/svg" viewBox="0 0 749.98 337.18"><defs><style>.cls-1{fill:#fff;}</style></defs><path d="M-86.49,346.92A47.9,47.9,0,0,1-81,345.05c2.78-.62,5.63-.86,8.41-1.46s5.56-1.15,8.3-1.74c4.75-1,9.55-1.81,14.28-2.92,5.3-1.24,10.62-2.6,15.94-3.61,4.65-.88,9.24-2.49,14.28-2.34a29.53,29.53,0,0,1,10.71-8.66,60.37,60.37,0,0,1,11.68-4.38c4.55-1.23,9.29-1.4,13.8-2.86,1.51-.49,3.31-.07,5-.07,3.5,0,7.06-.4,10.48.11a59.73,59.73,0,0,1,9.72,1.8c3.5,1.12,7-1.24,10.53-1,1.84-2,4.86.08,6.69-1.94,4.71.36,9.22-1.19,13.61-2.24,5.29-1.26,10.66-2.35,15.95-3.54,4.11-.92,8.41-1.6,12.59-2.39,3.62-.69,7.38-1.24,10.87-2.63,1.64-.67,3.34-.09,5.14-.86,2.7-1.14,5.92-1.07,9.39-1.58,2.53-3.48,6.42-6.17,10.49-8.4a44.24,44.24,0,0,1,11.2-4.25c4-.91,8.13-1.45,12.09-2.32,6.1-1.34,12.11-.37,18.13-.73,1.51-.09,3.05.63,4.59.93a25.91,25.91,0,0,1,4.19.72,7.73,7.73,0,0,0,6.62-.35c1.69-1.08,3.61-.09,5.55-1.16,2.21-1.22,5.28-.84,8-1.22,2.35-.33,5-.18,6.93-1.29,2.1-1.22,4.34-.21,6.43-1.54,1.71-1.09,4.4-.5,6.46-1.22,4-1.4,8.41-1,12.28-2.93,5.94.1,11.35-2.85,17.25-3,2.38-2.05,5.51-.52,8.25-1.84,2.45-1.19,5.59-1,8.69-1.4,2.51-3.91,6.69-6.26,10.66-8.64a36.44,36.44,0,0,1,10.79-4c4-.87,8.11-1.5,12.1-2.3,5.92-1.2,11.77-.73,17.62-.67a31.64,31.64,0,0,1,9.27,1.61,8.64,8.64,0,0,0,5.36.15c3.83-1.51,8-1.17,11.85-2.77,1.93-.8,4.32-.37,6.57-1,3.15-.83,6.45-1.19,9.65-2.09a61.23,61.23,0,0,1,9.17-1.9c4.27-.52,8.42-1.61,12.61-2.35,3.61-.65,7.43-.92,10.85-2.68,1.52-.78,3.66.69,5-1.11,4.85.27,9.27-2.35,14.26-2,2.66-4,6.77-6.49,10.77-8.8,3.42-2,7.43-2.94,11.24-4.18,4.63-1.51,9.52-2.09,14.28-2.83,5.53-.85,11.3-.19,17-.19,2.39,2,5.49.67,8.25,1.81,3.29,1.36,7-.48,10.42-1.1s7-1.89,10.65-1.71L663.49,387.7v55.1c-5.72.43-11.11,2.92-17,3.21-1.68,2.07-4.25.47-6.35,1.61s-4.58,1-6.91,1.38-4.54.29-6.55,1.08c-5.14,2-10.63,2.7-15.92,3.68-5.57,1-11,2.57-16.68,3.4a31.76,31.76,0,0,0-6.85,1.46,34.58,34.58,0,0,1-6.93,1.37c-2.35.39-4.84.33-7.06,1.08-6,2-12.28,2.54-18.33,4.05-5.29,1.32-10.78,1.68-15.94,3.72-1.8.71-4,.59-6,1.06-4.72,1.09-9.55,1.69-14.26,3-2.24.62-4.71.13-7.09,1-2,.76-4.57.29-6.49,1.2-2.52,1.18-5.22,1-7.75,1.8-2.24.73-5.15.07-6.94,1.26-2.11,1.4-4.7-.34-6.33,1.73-4.23-.35-8.07,1.53-12.09,2.29s-8.43.89-12.29,2.81c-5.64-.21-10.8,2.23-16.21,3.24s-10.88,1.33-15.89,3.76c-4.35-.18-8.49,1.3-12.63,2.18-5.31,1.12-10.8,1.6-15.95,3.64-1.82.72-4,.57-6,1.05-4.72,1.11-9.54,1.72-14.25,3-2.24.62-4.72.21-7.09,1-2.06.71-4.61.25-6.47,1.22-1.64.86-3.23.38-4.63.94s-2.78.6-4.1,1a109.15,109.15,0,0,1-12.37,2.57c-4,.7-8,1.73-12,2.51-6.13,1.2-12.36,1.95-18.42,3.67-2.65.75-5.51,1.16-8.28,1.77s-5.65.78-8.42,1.44c-3.53.84-7.2,1.23-10.62,2.17s-7,1-10.39,2.61c-1.65.79-4,.65-6,1a34.46,34.46,0,0,0-4.57,1.08c-3.13,1.06-6.5.83-9.69,1.94a68.19,68.19,0,0,1-9.17,2c-3.08.61-6.15,1.43-9.25,1.82s-6.38.94-9.42,1.57c-3.59.75-7.55.57-10.81,2.77-4.2-.24-8.12,1.29-12.15,2.07-5.52,1.07-11.1,1.9-16.51,3.55A51.77,51.77,0,0,1,181.4,542c-2.52.4-5.39,0-7.49,1.19-2.26,1.22-4.93-.18-6.8,1.73-4.23-.35-8.07,1.53-12.09,2.29s-8.43.89-12.29,2.81c-6-.18-11.38,2.56-17.24,3.15-3.37.34-6.74,1.4-10.16,2a76.77,76.77,0,0,0-9.65,2c-5.1,1.57-10.38,2.16-15.49,3.56-4.57,1.25-9.35,1.7-13.78,2.46q-81.63-81.61-162.9-162.9Zm139-25.5A18.69,18.69,0,0,0,55.29,323c5.37,1.9,10.41,4.93,13.35,8.73,2.32,3,4,6.27,3.92,10.36-.18,8.16-.09,16.33,0,24.49a16,16,0,0,1-4.94,12c-2.77,2.77-6.18,4.39-9.33,6.49-4.13,2.74-9,3.59-13.51,4.77A55,55,0,0,1,29.12,392c-5.2-.18-10.36.16-15.62-.78A95.49,95.49,0,0,1-.22,388a51.91,51.91,0,0,1-11-4.83,28.49,28.49,0,0,1-7.09-5.64,15.56,15.56,0,0,1-4.19-10.76c.18-7.49,0-15,.08-22.49,0-2.67.38-5.34.59-8.09l-58.4,12.11L78.59,507.17a9.63,9.63,0,0,1,2.72-1.12c4.88-.45,9.52-2.14,14.27-2.86,6-.9,11.69-2.94,17.73-3.18,1.72-1.7,4-.56,6-1.28,5.32-2,11-2.54,16.47-3.64,4-.8,8-2.27,12.16-2.08,3.07-2.16,6.89-1.85,10.31-2.79s7.09-1.34,10.62-2.17c2.77-.65,5.67-.74,8.44-1.38s5.48-1.31,8.28-1.81c3.39-.6,6.7-1.56,10.18-1.95s7.09-1.43,10.66-2.06c1.86-.33,3.93-.27,5.56-1,5.45-2.28,11.32-2.38,16.93-3.73a41.25,41.25,0,0,1,5.54-1.2c1.71-.17,3.62-.24,5-1.06,1.87-1.08,4.13-.15,5.53-1.1,2.18-1.49,4.62-.38,6.88-1.63,2.08-1.15,5-.79,7.49-1.19a46,46,0,0,0,6.94-1.34c5.39-1.73,11-2.49,16.5-3.56,4-.79,8-2.28,12.15-2.08,3.08-2.16,6.9-1.85,10.32-2.79s7.08-1.34,10.62-2.17c2.77-.65,5.66-.77,8.43-1.41s5.49-1.29,8.29-1.78c3.39-.59,6.69-1.61,10.18-1.94s6.73-1.49,10.16-2a34,34,0,0,0,6-1.06,65.72,65.72,0,0,1,6.75-1.76c2.3-.58,4.73-.64,7.07-1.08s4.54-1.14,6.83-1.58c3.06-.59,6.06-1.73,9-2.21,5.93-.95,11.69-2.9,17.73-3.18,1.69-1.74,4-.64,5.95-1.32,5.34-1.84,11-2.55,16.48-3.61,4-.78,8-2.31,12.16-2.07,3.08-2.16,6.9-1.85,10.31-2.79s7.09-1.34,10.62-2.17c2.77-.66,5.65-.82,8.42-1.43a78.21,78.21,0,0,0,8.24-1.87c2.42-.83,5-.35,7.34-1.58,2.14-1.1,5.11-.46,7.46-1.28,1.9-.67,3.95-.31,5.58-1,3.82-1.61,7.88-1.93,11.82-2.82s8.14-1.19,12.13-2.14c2-.48,4.22-.43,6.05-1.08a63.46,63.46,0,0,1,8.7-2c3.06-.62,6.1-1.37,9.19-1.9,2.3-.39,4.52-1.21,6.82-1.6,3.09-.51,6.05-1.7,9.05-2.22,7.15-1.21,14.22-2.75,21.29-4.27,2.22-.48,4.62-.22,6.56-1,3.84-1.55,7.94-1.77,11.85-2.66,6.41-1.47,13-2.33,19.31-4.16a59.16,59.16,0,0,1,6.57-1.05c2.33-.39,4.91-.35,6.9-1.4s4.67.48,6.36-1.59c5.8-.33,11.17-2.74,16.41-3.2Q578.72,308.55,499.14,229l-3.22,1.21h-4.24c-.07.49-.12.8-.2,1.33a34.7,34.7,0,0,0,3.2,1.48,29.23,29.23,0,0,1,13.56,9.39,15.08,15.08,0,0,1,3.34,10.11c-.24,8-.11,16-.06,24a15.69,15.69,0,0,1-4.89,12A41.9,41.9,0,0,1,495.2,296c-7.57,3.67-15.83,4.76-24,5.92a62.08,62.08,0,0,1-11.49.06c-3.7-.16-7.39-.63-11.08-1-.17,0-.36.05-.5,0-4.62-2.22-9.79-2.59-14.52-4.81-5-2.34-9.72-4.74-13.24-8.94a15.21,15.21,0,0,1-3.9-10.38c.17-7.83,0-15.67.08-23.5,0-2.34.36-4.68.55-7l-71.58,14.25v1.09a40.42,40.42,0,0,1,9.17,4.19,25.1,25.1,0,0,1,8.25,7.8c1.34,2.07,2.5,4.09,2.53,6.45.12,9.5.19,19,0,28.5a13,13,0,0,1-3.55,8.51A38.88,38.88,0,0,1,349,326a70.48,70.48,0,0,1-25,5.83,69.35,69.35,0,0,1-17.11-.64c-4.66-.85-9.2-1.91-13.79-3a40.84,40.84,0,0,1-13.83-6.36c-5.18-3.63-9.1-8.52-8.81-15.68.28-6.82,0-13.66.07-20.5,0-3.16-.48-6.37,1.14-9.46l-73.22,14.42c.1,2.15,2.14,1.88,3.18,2.27a30.91,30.91,0,0,1,13.55,9.4,15.13,15.13,0,0,1,3.41,10.09c-.22,8.33-.07,16.66-.07,25a14.94,14.94,0,0,1-4.46,10.68c-2.92,3.09-6.5,5-10.11,7a26.78,26.78,0,0,1-11.89,3.9c-1.45,1.9-3.88.67-5.76,1.84-1.46.92-3.78.44-5.72.6-2.09.17-4.18.55-6.27.52-5-.06-10,0-15.11-.78a106.27,106.27,0,0,1-12.85-2.89,53.88,53.88,0,0,1-11.88-5.17,26.38,26.38,0,0,1-7.37-6.17,15.76,15.76,0,0,1-3.65-10.49c.21-9.33.07-18.66.07-27.6l1.31-2.59L52.57,320.64ZM660.34,439.8V390.45a30.62,30.62,0,0,0-5.57.87c-5.36,1.89-11,2.49-16.49,3.59-4,.81-7.95,2.27-12.15,2.1-3.08,2.16-6.89,1.84-10.31,2.78a61.73,61.73,0,0,1-10.62,2.07c-4.15.38-7.9,2.72-12.16,2.15-2.49,1.61-5.46,1.44-8.19,1.87-3,.47-5.77,1.8-8.66,2-4.17.27-7.9,2.71-12.16,2.13-2.49,1.6-5.51,1.06-8.17,2a41,41,0,0,1-8.69,1.84c-4.13.46-7.88,2.77-12.15,2.18-1.8,2.06-4.53.55-6.76,1.84-1.91,1.1-4.68.63-7,1.21s-4.94.4-7,1.13c-3.57,1.25-7.49.9-10.82,2.82-6.05.22-11.72,2.7-17.76,3-1.71,1.7-4.09.42-5.95,1.31-3.45,1.67-7.28,1.91-10.91,2.53-4.21.71-8.28,2.4-12.64,2.16-1.51,1.75-4.12.39-5.67,2-2.35-.69-4.32,1-6.59,1.05-2,.06-4.3.15-6,1.06-2,1.08-4.15.41-6.06,1.11-3.53,1.28-7.31,1.46-10.87,2.7-2.06.73-4.75.14-6.46,1.23-2.09,1.33-4.63-.2-6.33,1.69-4-.17-7.64,1.88-11.6,2.21a25.24,25.24,0,0,0-6.49,1.21c-1.81.68-3.78-.06-5.08.92-1.59,1.19-3.39.15-4.63.91-1.72,1.06-3.42.7-5.14.94a32,32,0,0,0-6.47,1.28c-5.35,1.88-11,2.49-16.48,3.6-4,.8-7.95,2.26-12.15,2.09-5.49,2.58-11.56,2.71-17.37,3.84-4.17.82-8.27,2.42-12.64,2.16-1.47,1.85-3.86.8-5.75,1.85s-4.31.8-6.5,1.15c-2,.32-4.32.18-6,1.12-2,1.12-4.13.41-6.06,1.11-3.53,1.28-7.28,1.61-10.88,2.66-3,.86-6.18.89-9.16,2.05a12.54,12.54,0,0,1-5.06,1c-4.41-.25-8.25,2.68-12.67,2.07-1.8,2.07-4.54.53-6.76,1.83-1.91,1.12-4.68.64-7,1.22s-4.94.4-7,1.13c-3.57,1.25-7.5.9-10.82,2.82-6.05.23-11.72,2.7-17.76,3-1.72,2-4.24.71-6.37,1.51-3.48,1.3-7.28,1.79-11,2.46-2.67.48-5.54.25-8.05,1.12-5.19,1.8-10.63,2.52-15.92,3.68-5.82,1.27-11.67,2.9-17.71,3.23-1.7,1.72-4,.59-6,1.29-5.33,1.91-11,2.54-16.47,3.63-4,.79-8,2.26-12.16,2.08-1.44,1.94-3.87.67-5.77,1.84-1.74,1.07-4.29.81-6.48,1.16-2,.32-4.08.57-6.08,1-2.72.61-5.4,1.38-8,2.07-.64,13.83-.41,45.86.3,49.66,2-.28,4.21-.2,6.06-.92a60.52,60.52,0,0,1,10.86-2.64c4.17-.8,8.48-1.48,12.58-2.42,5.29-1.21,10.73-1.83,16-3.57a48,48,0,0,1,8.87-1.59,80.67,80.67,0,0,0,8.77-1.81c2-.49,4.18-.25,6-1,5.13-2.1,10.65-2.44,16-3.61,4.13-.92,8.27-2.36,12.63-2.17,7.22-2.82,14.95-3.38,22.45-4.86,4.17-.83,8.33-1.89,12.62-2.35,2.13-.23,4.47-1.43,6.7-1.67,2.55-.27,4.9-1.35,7.58-1.26,2.23.07,4.46-1.42,6.75-1.6,3.19-.26,6.06-1.8,9.1-2.14,4.27-.48,8.3-2.3,12.65-2.12,1.84-1.53,4.22-.39,6-1.11,3.52-1.37,7.27-1.68,10.85-2.69a62,62,0,0,1,8.87-1.6,75.48,75.48,0,0,0,8.78-1.81c2-.52,4.17-.24,6-1,5.12-2.15,10.65-2.42,16-3.61,4.13-.92,8.27-2.36,12.63-2.16,5-2.43,10.67-2.18,15.87-3.92,2.52-.84,5.5-.35,8-1.2a51.72,51.72,0,0,1,7.74-1.66c3.43-.6,6.75-1.57,10.12-2.28a99.94,99.94,0,0,1,10.21-1.74c5.56-.57,10.61-3.31,16.23-3.2,1.4-2.06,3.88-.12,5.4-1.42,1.75-1.48,4,0,6-1.42,1.27-.93,3.7-.81,5.49-1,4.14-.38,7.89-2.76,12.15-2.19,1.4-2.06,3.87-.13,5.4-1.42,1.74-1.47,4,0,6-1.42,1.27-.93,3.69-.81,5.48-1,4.15-.38,7.89-2.78,12.16-2.19,2.49-1.61,5.5-1.07,8.17-2a40.12,40.12,0,0,1,8.68-1.84c4.13-.46,7.89-2.77,12.15-2.17,1.81-2.06,4.54-.54,6.77-1.84,1.9-1.12,4.64-.78,7-1.19,1.21-.21,2.37-.72,3.59-1s2.44-.44,3.66-.78c3.29-.92,6.73-1.42,10.1-2.19,2.63-.6,5.57-.23,8-1.21,2.07-.82,4.15-.36,6.06-1.06a64.1,64.1,0,0,1,10.87-2.6c4.2-.75,8.49-1.47,12.59-2.41,5.29-1.2,10.71-1.93,16-3.58a53.27,53.27,0,0,1,8.85-1.63,67.06,67.06,0,0,0,8.79-1.78c2-.56,4.12-.31,6-1,5.31-2.05,11-2.54,16.47-3.65,4-.81,7.95-2.27,12.15-2.09,1.5-1.77,4.11-.4,5.67-2,2.35.68,4.31-1,6.58-1.07a34.17,34.17,0,0,0,6.08-.95c2.14-.44,4.23-1.13,6.37-1.51,3.69-.68,7.29-1.83,11-2.4A60.42,60.42,0,0,0,660.34,439.8ZM-83.33,397.93,75.35,556.61V510.08L-83.33,351.39ZM420.51,246.34c0,.77.19,1.38,0,1.75-2.12,3.58-.41,6.51,1.21,9.69,2,4,5.61,6,9.16,8,3.91,2.18,8.32,3.21,12.53,4.7,4.38,1.55,9,1.65,13.45,2.42,3.72.65,7.64.27,11.46.1s7.38-.63,11.07-1a3.54,3.54,0,0,0,.9-.25c3.93-1.41,8.1-2,11.94-3.73,4.76-2.12,9.53-4.26,13-8.28,2.49-2.86,4-6.47,3.13-10.09a15,15,0,0,0-5.82-9c-3.43-2.34-6.91-4.71-11.12-5.67-2.1-.47-4.12-1.3-6.17-2a49.62,49.62,0,0,0-6.18-1.94c-2.17-.41-4.56.5-6.56-1.06h-17c-2,1.82-4.65.55-6.93,1.34s-4.62.88-6.79,1.71c-4.16,1.59-8.42,2.87-12.31,5.3C426.05,240.5,423.82,243.76,420.51,246.34ZM274.66,276.28a6.37,6.37,0,0,1-.43,2.43c-2,2.94-.35,5.7.75,8.09,1.75,3.82,5,6.3,8.86,8.29,4.16,2.16,8.6,3.4,12.9,5.07,4.69,1.82,9.57,1.79,14.32,2.71,3.53.68,7.31.27,11,.1s7.39-.63,11.08-1c.32,0,.74.08,1-.09,1.85-1.35,4.19-1.08,6.21-1.89s4.18-1.19,6.14-2.06c4.76-2.11,9.45-4.38,13-8.38,2.52-2.83,3.27-7.33,2.11-11.3a14.84,14.84,0,0,0-6.37-8.4,51.56,51.56,0,0,0-10.74-5.48c-6.18-2.42-12.66-3.48-19.17-4.34-2.94-.39-6-.06-9-.06-2.33,0-5-.74-6.9.18-2.27,1.13-4.49.24-6.58,1s-4.53,1.15-6.72,1.87c-4.23,1.39-8.49,2.71-12.38,5.1C280.12,270.4,277.72,273.75,274.66,276.28ZM127.51,306.46c0,.55.11.93,0,1.2-1.76,3.87-.61,7,1.52,10.58,2.3,3.84,5.83,5.67,9.31,7.72,3.75,2.21,8.09,3,12.11,4.51,4.19,1.6,8.65,1.59,13,2.39,3.7.69,7.63.28,11.45.11s7.72-.63,11.58-1c.16,0,.4.07.49,0,1.75-1.61,4.19-1.52,6.2-1.79,2.45-.33,4.09-2.61,6.64-2.19,4.34-2.53,9.21-4.28,12.53-8.31,2.41-2.93,4-6.53,3.05-10.1a16.23,16.23,0,0,0-6.58-9.59,42.22,42.22,0,0,0-11.59-5.74c-5-1.42-9.76-3.8-15.15-3.27-.33,0-.77.14-1,0-2.84-2.16-6.07-.64-9.1-.91s-6.56-.8-9.4.16c-2.38.8-4.73.29-7,1.15s-4.66.81-6.79,1.69c-4.13,1.69-8.45,2.81-12.31,5.32C132.91,300.68,130.56,304,127.51,306.46ZM24.59,363.25c4.07-.35,8.07-.59,12.12-1.06a67.65,67.65,0,0,0,19.69-5.63c3.63-1.61,7.23-3.51,9.67-6.72,2.58-3.38,4.55-6.93,2.55-11.67-1.41-3.35-3.12-6.12-6.1-8.18a51.23,51.23,0,0,0-11.15-5.64,84.41,84.41,0,0,0-19.19-4.27c-3.27-.42-6.65-.07-10-.07-2,0-4.14-.48-6,.09C12,321.41,7.6,321.51,3.46,323c-4.35,1.56-8.82,2.67-12.82,5.25A47.32,47.32,0,0,0-17,335.06a8.61,8.61,0,0,0-2.35,8.4,16.73,16.73,0,0,0,6.24,9.35c6.83,4.78,14.74,7.17,22.69,9.06C14.42,363,19.57,362.84,24.59,363.25Zm394.92-102c0,5,.08,9.93,0,14.89a14.81,14.81,0,0,0,6.59,12.64,38.92,38.92,0,0,0,10.72,5.38c3.95,1.26,7.9,3.07,11.91,3.6a110.2,110.2,0,0,0,14,1.36,106.54,106.54,0,0,0,16.53-1.34,45.26,45.26,0,0,0,14.52-4.58c2.72-1.45,5.73-2.5,8.16-4.32a16.17,16.17,0,0,0,6.57-9.86c-.15-5.24.25-11.65-.21-18.38a39.79,39.79,0,0,1-16.9,10.92,88.75,88.75,0,0,1-20.14,4.29,56.54,56.54,0,0,1-15.43-.08A123.37,123.37,0,0,1,442,273.19a65.35,65.35,0,0,1-11.67-4.36C426.59,266.93,422.55,264.89,419.51,261.29ZM273.51,290c0,6.78,0,12.4,0,18a10.57,10.57,0,0,0,.7,2.2c1.33,5.33,4.95,8.57,9.76,10.76,2.1,1,4.11,2.13,6.26,3s4.6,1,6.59,2.12a19.39,19.39,0,0,0,6.73,1.78c2.35.35,4.71.83,7.06,1a84.26,84.26,0,0,0,11.46.06c3.7-.16,7.38-.63,11.07-1a2.61,2.61,0,0,0,.94-.12c3.63-1.78,7.7-2.09,11.45-3.7a67.15,67.15,0,0,0,10.66-5.52c3.1-2.05,5.79-5.17,6.13-8.83.57-6.21.16-12.51.16-19.56-3.47,4.4-7.52,6.55-11.52,8.85a32.92,32.92,0,0,1-8.2,3.12c-2.84.76-5.61,1.77-8.47,2.41s-6,.84-8.95,1.21a64.22,64.22,0,0,1-13.44.06A90.57,90.57,0,0,1,299.27,304a64.52,64.52,0,0,1-14-4.8C281.15,297.17,277.06,295,273.51,290Zm-58,29.85c-1.45,1.76-2.11,2.67-2.89,3.49-3.33,3.47-7.73,5.32-11.85,7.54-2.13,1.15-4.73,1.41-7.11,2.09s-4.8,1.27-7.19,1.87-5.14-.18-7.53,1.13c-6.18-.54-12.47,1.18-18.55-1-4.26.57-8.14-1.15-12.14-2a43,43,0,0,1-11.6-4.48c-3.53-2-7.19-4-10.14-8.33,0,6.79-.09,12.57.06,18.35a9.8,9.8,0,0,0,1.39,4.38,17.88,17.88,0,0,0,9,8.14c2.14.85,4.12,2.11,6.27,2.94s4.56,1.09,6.61,2.11a20.21,20.21,0,0,0,6.7,1.81c2.38.28,4.73.81,7.07,1a79.6,79.6,0,0,0,13.46,0,105,105,0,0,0,12.66-1.87c5.24-1.12,15.54-5.22,19.52-8.3,3-2.29,5.76-5.25,6.11-8.88C216,333.67,215.51,327.36,215.51,319.89ZM69.39,351.27c-3,3.64-7.06,5.46-10.72,7.64-5.77,3.43-12.49,4.45-18.93,6a54.3,54.3,0,0,1-10,1c-3.49.17-7,0-10.48,0s-6.61-1.67-10.06-1c-4.6-2.25-9.87-2.31-14.47-4.87-3.93-2.18-9.1-4.57-11.55-7l-2.62-2.62c0,6.31-.17,11.79.09,17.25a13.73,13.73,0,0,0,2.09,6.1c2.1,3.69,5.38,5.69,8.82,7.62,3.93,2.22,8.37,3.13,12.51,4.74,4.53,1.77,9.25,1.76,13.84,2.64,3.69.71,7.63.28,11.45.11s7.38-.63,11.06-1a4.08,4.08,0,0,0,.89-.25c3.93-1.41,8.1-2,11.93-3.73,4.43-2,9-3.89,12.3-7.58a46.82,46.82,0,0,0,3.9-5.65Z" transform="translate(86.49 -225.99)"/><path class="cls-1" d="M52.5,321.42l.07-.78,72.25-14.36-1.31,2.59c0,8.94.14,18.27-.07,27.6A15.76,15.76,0,0,0,127.09,347a26.38,26.38,0,0,0,7.37,6.17,53.88,53.88,0,0,0,11.88,5.17,106.27,106.27,0,0,0,12.85,2.89c5.07.82,10.07.72,15.11.78,2.09,0,4.18-.35,6.27-.52,1.94-.16,4.26.32,5.72-.6,1.88-1.17,4.31.06,5.76-1.84a26.78,26.78,0,0,0,11.89-3.9c3.61-2,7.19-3.95,10.11-7a14.94,14.94,0,0,0,4.46-10.68c0-8.34-.15-16.67.07-25a15.13,15.13,0,0,0-3.41-10.09,30.91,30.91,0,0,0-13.55-9.4c-1-.39-3.08-.12-3.18-2.27l73.22-14.42c-1.62,3.09-1.13,6.3-1.14,9.46,0,6.84.21,13.68-.07,20.5-.29,7.16,3.63,12.05,8.81,15.68a40.84,40.84,0,0,0,13.83,6.36c4.59,1.1,9.13,2.16,13.79,3a69.35,69.35,0,0,0,17.11.64A70.48,70.48,0,0,0,349,326a38.88,38.88,0,0,0,12.86-8.83,13,13,0,0,0,3.55-8.51c.22-9.5.15-19,0-28.5,0-2.36-1.19-4.38-2.53-6.45a25.1,25.1,0,0,0-8.25-7.8,40.42,40.42,0,0,0-9.17-4.19v-1.09l71.58-14.25c-.19,2.28-.53,4.62-.55,7-.08,7.83.09,15.67-.08,23.5a15.21,15.21,0,0,0,3.9,10.38c3.52,4.2,8.27,6.6,13.24,8.94,4.73,2.22,9.9,2.59,14.52,4.81.14.06.33,0,.5,0,3.69.33,7.38.8,11.08,1a62.08,62.08,0,0,0,11.49-.06c8.18-1.16,16.44-2.25,24-5.92a41.9,41.9,0,0,0,11.43-7.49,15.69,15.69,0,0,0,4.89-12c0-8-.18-16,.06-24a15.08,15.08,0,0,0-3.34-10.11A29.23,29.23,0,0,0,494.68,233a34.7,34.7,0,0,1-3.2-1.48c.08-.53.13-.84.2-1.33h4.24l3.22-1.21L658,387.81c-5.24.46-10.61,2.87-16.41,3.2-1.69,2.07-4.26.47-6.36,1.59s-4.57,1-6.9,1.4a59.16,59.16,0,0,0-6.57,1.05c-6.35,1.83-12.9,2.69-19.31,4.16-3.91.89-8,1.11-11.85,2.66-1.94.79-4.34.53-6.56,1-7.07,1.52-14.14,3.06-21.29,4.27-3,.52-6,1.71-9.05,2.22-2.3.39-4.52,1.21-6.82,1.6-3.09.53-6.13,1.28-9.19,1.9a63.46,63.46,0,0,0-8.7,2c-1.83.65-4,.6-6.05,1.08-4,.95-8.13,1.23-12.13,2.14s-8,1.21-11.82,2.82c-1.63.7-3.68.34-5.58,1-2.35.82-5.32.18-7.46,1.28-2.39,1.23-4.92.75-7.34,1.58a78.21,78.21,0,0,1-8.24,1.87c-2.77.61-5.65.77-8.42,1.43-3.53.83-7.2,1.23-10.62,2.17s-7.23.63-10.31,2.79c-4.2-.24-8.13,1.29-12.16,2.07-5.51,1.06-11.14,1.77-16.48,3.61-1.95.68-4.26-.42-5.95,1.32-6,.28-11.8,2.23-17.73,3.18-3,.48-6,1.62-9,2.21-2.29.44-4.54,1.15-6.83,1.58s-4.77.5-7.07,1.08a65.72,65.72,0,0,0-6.75,1.76,34,34,0,0,1-6,1.06c-3.43.55-6.74,1.72-10.16,2s-6.79,1.35-10.18,1.94c-2.8.49-5.53,1.15-8.29,1.78s-5.66.76-8.43,1.41c-3.54.83-7.2,1.24-10.62,2.17S298,460.85,295,463c-4.19-.2-8.13,1.29-12.15,2.08-5.52,1.07-11.11,1.83-16.5,3.56a46,46,0,0,1-6.94,1.34c-2.52.4-5.41,0-7.49,1.19-2.26,1.25-4.7.14-6.88,1.63-1.4.95-3.66,0-5.53,1.1-1.41.82-3.32.89-5,1.06a41.25,41.25,0,0,0-5.54,1.2c-5.61,1.35-11.48,1.45-16.93,3.73-1.63.68-3.7.62-5.56,1-3.57.63-7.08,1.67-10.66,2.06s-6.79,1.35-10.18,1.95c-2.8.5-5.52,1.17-8.28,1.81s-5.67.73-8.44,1.38c-3.53.83-7.2,1.23-10.62,2.17s-7.24.63-10.31,2.79c-4.2-.19-8.14,1.28-12.16,2.08-5.5,1.1-11.15,1.65-16.47,3.64-1.92.72-4.25-.42-6,1.28-6,.24-11.78,2.28-17.73,3.18-4.75.72-9.39,2.41-14.27,2.86a9.63,9.63,0,0,0-2.72,1.12L-80.27,348.32l58.4-12.11c-.21,2.75-.56,5.42-.59,8.09-.08,7.49.1,15-.08,22.49a15.56,15.56,0,0,0,4.19,10.76,28.49,28.49,0,0,0,7.09,5.64A51.91,51.91,0,0,0-.22,388,95.49,95.49,0,0,0,13.5,391.2c5.26.94,10.42.6,15.62.78a55,55,0,0,0,15.62-2.16c4.56-1.18,9.38-2,13.51-4.77,3.15-2.1,6.56-3.72,9.33-6.49a16,16,0,0,0,4.94-12c0-8.16-.14-16.33,0-24.49.1-4.09-1.6-7.37-3.92-10.36-2.94-3.8-8-6.83-13.35-8.73A18.69,18.69,0,0,1,52.5,321.42Zm152,83.84c0,4,.17,8,0,12-.26,4.82,1.72,8.63,4.82,12,4.6,5,10.67,7.57,16.93,9.75,1.47.51,3.08.78,4.51,1.2s3,.26,4.07.92a6.52,6.52,0,0,0,4.65.82c1.74-.22,3,1,4.58,1.05,3.33,0,6.67.13,10,0s6.54.86,9.58-1c4.08.47,7.8-1.11,11.66-2a42.09,42.09,0,0,0,20.89-11.1,14.09,14.09,0,0,0,4.33-10.19c.12-8.83.06-17.65,0-26.47a12.15,12.15,0,0,0-.7-3.69c-1.64-5-5-8.3-9.24-11.11-3.53-2.35-7.44-3.75-11.24-5.45-1-.44-2.06-.66-3.08-1-2.29-.82-4.77-.67-7-1.2-1.53-.36-3.06-.61-4.62-.82s-3.41-1-5.08-.91c-6.19.3-12.38-.7-18.6.78-3.48.83-7.1,1.31-10.63,2.12-8.11,1.86-15.41,5.15-21.39,11.12a14.47,14.47,0,0,0-4.37,10.68C204.5,396.94,204.51,401.1,204.51,405.26Zm388-59.77c0-4.49-.11-9,0-13.48a10.16,10.16,0,0,0-1.56-5.84,27.18,27.18,0,0,0-9.44-9.32c-3.54-2-7.36-3.22-10.88-5.14a10,10,0,0,0-2.21-.7,26.7,26.7,0,0,0-3.58-1c-1.3-.18-3,.43-3.87-.23-1.42-1.14-2.82-.55-4.2-.81-1.53-.3-3.08-1-4.58-.93-6,.37-12.12-1.14-18.08.89-1.61.56-3.37-.28-5.18.85-1.45.91-3.82-.27-5.46,1.2-4.42-.06-8,2.4-11.79,4.09a30.51,30.51,0,0,0-10.41,7.5,13.62,13.62,0,0,0-3.75,8.93c-.18,9.32,0,18.65-.1,28a11.43,11.43,0,0,0,1.53,5.37c3,5.74,8.5,8.84,13.86,12,2.36-.2,4.07,1.47,6.06,2.26s4.48.21,6.2,1.89c5.24.49,10.34,2,15.66,2,3.49,0,7,0,10.48,0a6.83,6.83,0,0,0,2.48-.05c4.26-1.76,8.9-1.56,13.31-2.77,5.85-1.61,16.3-6.28,20.61-10.7a16,16,0,0,0,4.86-12C592.46,353.48,592.51,349.49,592.51,345.49Zm-146,30.37c0-4.66,0-9.32,0-14,0-2.46-1-4.49-2.17-6.61-2.88-5.4-7.83-8.43-13-10.67-3.33-1.44-6.43-4.06-10.45-3.71-1.65-1.71-4.16,0-5.53-1-2.25-1.67-4.68-.45-7-1.3s-5.15-.49-7.76-.56-5.32,0-8,0c-.83,0-2-.35-2.43.06-1.28,1.2-2.74.76-4.14,1s-3,.8-4.59.94a38.23,38.23,0,0,0-7.25,1.79,49.92,49.92,0,0,0-13,6c-5.92,3.76-9.85,8.46-9.71,15.91.14,8,.15,16,0,24-.09,4.63,1.8,8.26,4.73,11.55a24.16,24.16,0,0,0,7.24,5.39,141.75,141.75,0,0,0,13.21,5.53c4.5,1.59,9.22,2,13.8,2.71a55.8,55.8,0,0,0,16.92,0,118.67,118.67,0,0,0,13.33-2.59c8-2.24,15.35-5.27,21.37-11.19a14.55,14.55,0,0,0,4.44-10.66C446.55,384.19,446.51,380,446.51,375.86Zm-293,59.89c0-4-.17-8,0-12,.27-5-1.84-8.94-5.16-12.36-4.23-4.37-13.29-8.85-19.62-10.53-2.24-.59-4.74-.13-6.52-1.05-2.16-1.12-4.51.07-6.08-1-2.12-1.4-4.16-.85-6.17-.79-5,.15-10-.49-15.11.76-3.47.85-7.09,1.33-10.62,2.13-8.11,1.86-15.41,5.14-21.39,11.12a14.44,14.44,0,0,0-4.37,10.69c0,8.15.16,16.31-.06,24.46-.13,4.82,1.73,8.63,4.83,12,4.6,5,10.67,7.57,16.93,9.75,1.48.51,3.08.78,4.51,1.2s3,.26,4.07.92a6.52,6.52,0,0,0,4.65.82c1.74-.22,3,1,4.58,1.05,3.17,0,6.33.13,9.49,0s6.21.82,9.08-1c4.08.47,7.8-1.11,11.66-2a42.36,42.36,0,0,0,20.54-10.75,15,15,0,0,0,4.72-11.54C153.49,443.74,153.51,439.75,153.51,435.75Z" transform="translate(86.49 -225.99)"/><path class="cls-1" d="M660.34,439.8a60.42,60.42,0,0,1-8.78,2.28c-3.7.57-7.3,1.72-11,2.4-2.14.38-4.23,1.07-6.37,1.51a34.17,34.17,0,0,1-6.08.95c-2.27.05-4.23,1.75-6.58,1.07-1.56,1.6-4.17.23-5.67,2-4.2-.18-8.14,1.28-12.15,2.09-5.51,1.11-11.16,1.6-16.47,3.65-1.91.73-4,.48-6,1a67.06,67.06,0,0,1-8.79,1.78,53.27,53.27,0,0,0-8.85,1.63c-5.24,1.65-10.66,2.38-16,3.58-4.1.94-8.39,1.66-12.59,2.41a64.1,64.1,0,0,0-10.87,2.6c-1.91.7-4,.24-6.06,1.06-2.44,1-5.38.61-8,1.21-3.37.77-6.81,1.27-10.1,2.19-1.22.34-2.43.54-3.66.78s-2.38.74-3.59,1c-2.35.41-5.09.07-7,1.19-2.23,1.3-5-.22-6.77,1.84-4.26-.6-8,1.71-12.15,2.17a40.12,40.12,0,0,0-8.68,1.84c-2.67.92-5.68.38-8.17,2-4.27-.59-8,1.81-12.16,2.19-1.79.16-4.21,0-5.48,1-2,1.44-4.23-.05-6,1.42-1.53,1.29-4-.64-5.4,1.42-4.26-.57-8,1.81-12.15,2.19-1.79.16-4.22,0-5.49,1-2,1.45-4.22-.06-6,1.42-1.52,1.3-4-.64-5.4,1.42-5.62-.11-10.67,2.63-16.23,3.2A99.94,99.94,0,0,0,365.53,501c-3.37.71-6.69,1.68-10.12,2.28a51.72,51.72,0,0,0-7.74,1.66c-2.52.85-5.5.36-8,1.2-5.2,1.74-10.87,1.49-15.87,3.92-4.36-.2-8.5,1.24-12.63,2.16-5.32,1.19-10.85,1.46-16,3.61-1.87.78-4,.5-6,1a75.48,75.48,0,0,1-8.78,1.81,62,62,0,0,0-8.87,1.6c-3.58,1-7.33,1.32-10.85,2.69-1.83.72-4.21-.42-6,1.11-4.35-.18-8.38,1.64-12.65,2.12-3,.34-5.91,1.88-9.1,2.14-2.29.18-4.52,1.67-6.75,1.6-2.68-.09-5,1-7.58,1.26-2.23.24-4.57,1.44-6.7,1.67-4.29.46-8.45,1.52-12.62,2.35-7.5,1.48-15.23,2-22.45,4.86-4.36-.19-8.5,1.25-12.63,2.17-5.32,1.17-10.84,1.51-16,3.61-1.86.77-4,.53-6,1a80.67,80.67,0,0,1-8.77,1.81,48,48,0,0,0-8.87,1.59c-5.23,1.74-10.67,2.36-16,3.57-4.1.94-8.41,1.62-12.58,2.42a60.52,60.52,0,0,0-10.86,2.64c-1.85.72-4,.64-6.06.92-.71-3.8-.94-35.83-.3-49.66,2.63-.69,5.31-1.46,8-2.07,2-.45,4-.7,6.08-1,2.19-.35,4.74-.09,6.48-1.16,1.9-1.17,4.33.1,5.77-1.84,4.2.18,8.13-1.29,12.16-2.08,5.51-1.09,11.14-1.72,16.47-3.63,1.95-.7,4.26.43,6-1.29,6-.33,11.89-2,17.71-3.23,5.29-1.16,10.73-1.88,15.92-3.68,2.51-.87,5.38-.64,8.05-1.12,3.69-.67,7.49-1.16,11-2.46,2.13-.8,4.65.51,6.37-1.51,6-.3,11.71-2.77,17.76-3,3.32-1.92,7.25-1.57,10.82-2.82,2.09-.73,4.68-.54,7-1.13s5.07-.1,7-1.22c2.22-1.3,5,.24,6.76-1.83,4.42.61,8.26-2.32,12.67-2.07a12.54,12.54,0,0,0,5.06-1c3-1.16,6.19-1.19,9.16-2.05,3.6-1,7.35-1.38,10.88-2.66,1.93-.7,4,0,6.06-1.11,1.7-.94,4-.8,6-1.12,2.19-.35,4.68-.14,6.5-1.15s4.28,0,5.75-1.85c4.37.26,8.47-1.34,12.64-2.16,5.81-1.13,11.88-1.26,17.37-3.84,4.2.17,8.13-1.29,12.15-2.09,5.51-1.11,11.13-1.72,16.48-3.6a32,32,0,0,1,6.47-1.28c1.72-.24,3.42.12,5.14-.94,1.24-.76,3,.28,4.63-.91,1.3-1,3.27-.24,5.08-.92a25.24,25.24,0,0,1,6.49-1.21c4-.33,7.56-2.38,11.6-2.21,1.7-1.89,4.24-.36,6.33-1.69,1.71-1.09,4.4-.5,6.46-1.23,3.56-1.24,7.34-1.42,10.87-2.7,1.91-.7,4,0,6.06-1.11,1.72-.91,4-1,6-1.06,2.27-.06,4.24-1.74,6.59-1.05,1.55-1.61,4.16-.25,5.67-2,4.36.24,8.43-1.45,12.64-2.16,3.63-.62,7.46-.86,10.91-2.53,1.86-.89,4.24.39,5.95-1.31,6-.3,11.71-2.78,17.76-3,3.33-1.92,7.25-1.57,10.82-2.82,2.09-.73,4.68-.54,7-1.13s5.07-.11,7-1.21c2.23-1.29,5,.22,6.76-1.84,4.27.59,8-1.72,12.15-2.18a41,41,0,0,0,8.69-1.84c2.66-.92,5.68-.38,8.17-2,4.26.58,8-1.86,12.16-2.13,2.89-.2,5.68-1.53,8.66-2,2.73-.43,5.7-.26,8.19-1.87,4.26.57,8-1.77,12.16-2.15a61.73,61.73,0,0,0,10.62-2.07c3.42-.94,7.23-.62,10.31-2.78,4.2.17,8.14-1.29,12.15-2.1,5.51-1.1,11.13-1.7,16.49-3.59a30.62,30.62,0,0,1,5.57-.87Z" transform="translate(86.49 -225.99)"/><path class="cls-1" d="M-83.33,397.93V351.39L75.35,510.08v46.53Z" transform="translate(86.49 -225.99)"/><path class="cls-1" d="M420.51,246.34c3.31-2.58,5.54-5.84,9-8,3.89-2.43,8.15-3.71,12.31-5.3,2.17-.83,4.6-.94,6.79-1.71s4.9.48,6.93-1.34h17c2,1.56,4.39.65,6.56,1.06a49.62,49.62,0,0,1,6.18,1.94c2.05.66,4.07,1.49,6.17,2,4.21,1,7.69,3.33,11.12,5.67a15,15,0,0,1,5.82,9c.85,3.62-.64,7.23-3.13,10.09-3.5,4-8.27,6.16-13,8.28-3.84,1.71-8,2.32-11.94,3.73a3.54,3.54,0,0,1-.9.25c-3.69.34-7.37.81-11.07,1s-7.74.55-11.46-.1c-4.48-.77-9.07-.87-13.45-2.42-4.21-1.49-8.62-2.52-12.53-4.7-3.55-2-7.13-4-9.16-8-1.62-3.18-3.33-6.11-1.21-9.69C420.7,247.72,420.51,247.11,420.51,246.34Z" transform="translate(86.49 -225.99)"/><path class="cls-1" d="M274.66,276.28c3.06-2.53,5.46-5.88,9-8.09,3.89-2.39,8.15-3.71,12.38-5.1,2.19-.72,4.53-1,6.72-1.87s4.31.1,6.58-1c1.88-.92,4.57-.18,6.9-.18,3,0,6-.33,9,.06,6.51.86,13,1.92,19.17,4.34a51.56,51.56,0,0,1,10.74,5.48,14.84,14.84,0,0,1,6.37,8.4c1.16,4,.41,8.47-2.11,11.3-3.57,4-8.26,6.27-13,8.38-2,.87-4.13,1.27-6.14,2.06s-4.36.54-6.21,1.89c-.22.17-.64.06-1,.09-3.69.33-7.38.79-11.08,1s-7.43.58-11-.1c-4.75-.92-9.63-.89-14.32-2.71-4.3-1.67-8.74-2.91-12.9-5.07-3.81-2-7.11-4.47-8.86-8.29-1.1-2.39-2.74-5.15-.75-8.09A6.37,6.37,0,0,0,274.66,276.28Z" transform="translate(86.49 -225.99)"/><path class="cls-1" d="M127.51,306.46c3-2.45,5.4-5.78,8.93-8.07,3.86-2.51,8.18-3.63,12.31-5.32,2.13-.88,4.63-.86,6.79-1.69s4.62-.35,7-1.15c2.84-1,6.27-.44,9.4-.16s6.26-1.25,9.1.91c.21.16.65,0,1,0,5.39-.53,10.19,1.85,15.15,3.27A42.22,42.22,0,0,1,208.76,300a16.23,16.23,0,0,1,6.58,9.59c.93,3.57-.64,7.17-3.05,10.1-3.32,4-8.19,5.78-12.53,8.31-2.55-.42-4.19,1.86-6.64,2.19-2,.27-4.45.18-6.2,1.79-.09.09-.33,0-.49,0-3.86.33-7.71.79-11.58,1s-7.75.58-11.45-.11c-4.32-.8-8.78-.79-13-2.39-4-1.53-8.36-2.3-12.11-4.51-3.48-2-7-3.88-9.31-7.72-2.13-3.55-3.28-6.71-1.52-10.58C127.62,307.39,127.51,307,127.51,306.46Z" transform="translate(86.49 -225.99)"/><path class="cls-1" d="M24.59,363.25c-5-.41-10.17-.23-15-1.38-7.95-1.89-15.86-4.28-22.69-9.06a16.73,16.73,0,0,1-6.24-9.35,8.61,8.61,0,0,1,2.35-8.4,47.32,47.32,0,0,1,7.64-6.81c4-2.58,8.47-3.69,12.82-5.25,4.14-1.49,8.58-1.59,12.78-2.9,1.82-.57,4-.09,6-.09,3.33,0,6.71-.35,10,.07a84.41,84.41,0,0,1,19.19,4.27A51.23,51.23,0,0,1,62.52,330c3,2.06,4.69,4.83,6.1,8.18,2,4.74,0,8.29-2.55,11.67-2.44,3.21-6,5.11-9.67,6.72a67.65,67.65,0,0,1-19.69,5.63C32.66,362.66,28.66,362.9,24.59,363.25Z" transform="translate(86.49 -225.99)"/><path class="cls-1" d="M419.51,261.29c3,3.6,7.08,5.64,10.84,7.54A65.35,65.35,0,0,0,442,273.19a123.37,123.37,0,0,0,13.81,2.62,56.54,56.54,0,0,0,15.43.08,88.75,88.75,0,0,0,20.14-4.29,39.79,39.79,0,0,0,16.9-10.92c.46,6.73.06,13.14.21,18.38a16.17,16.17,0,0,1-6.57,9.86c-2.43,1.82-5.44,2.87-8.16,4.32a45.26,45.26,0,0,1-14.52,4.58,106.54,106.54,0,0,1-16.53,1.34,110.2,110.2,0,0,1-14-1.36c-4-.53-8-2.34-11.91-3.6a38.92,38.92,0,0,1-10.72-5.38,14.81,14.81,0,0,1-6.59-12.64C419.59,271.22,419.51,266.25,419.51,261.29Z" transform="translate(86.49 -225.99)"/><path class="cls-1" d="M273.51,290c3.55,4.92,7.64,7.13,11.78,9.19a64.52,64.52,0,0,0,14,4.8,90.57,90.57,0,0,0,12.66,1.89,64.22,64.22,0,0,0,13.44-.06c3-.37,6-.55,8.95-1.21s5.63-1.65,8.47-2.41a32.92,32.92,0,0,0,8.2-3.12c4-2.3,8.05-4.45,11.52-8.85,0,7.05.41,13.35-.16,19.56-.34,3.66-3,6.78-6.13,8.83a67.15,67.15,0,0,1-10.66,5.52c-3.75,1.61-7.82,1.92-11.45,3.7a2.61,2.61,0,0,1-.94.12c-3.69.34-7.37.81-11.07,1a84.26,84.26,0,0,1-11.46-.06c-2.35-.21-4.71-.69-7.06-1a19.39,19.39,0,0,1-6.73-1.78c-2-1.08-4.44-1.29-6.59-2.12s-4.16-2-6.26-3c-4.81-2.19-8.43-5.43-9.76-10.76a10.57,10.57,0,0,1-.7-2.2C273.48,302.44,273.51,296.82,273.51,290Z" transform="translate(86.49 -225.99)"/><path class="cls-1" d="M215.51,319.89c0,7.47.44,13.78-.17,20-.35,3.63-3.15,6.59-6.11,8.88-4,3.08-14.28,7.18-19.52,8.3a105,105,0,0,1-12.66,1.87,79.6,79.6,0,0,1-13.46,0c-2.34-.2-4.69-.73-7.07-1a20.21,20.21,0,0,1-6.7-1.81c-2-1-4.46-1.28-6.61-2.11s-4.13-2.09-6.27-2.94a17.88,17.88,0,0,1-9-8.14,9.8,9.8,0,0,1-1.39-4.38c-.15-5.78-.06-11.56-.06-18.35,3,4.32,6.61,6.36,10.14,8.33a43,43,0,0,0,11.6,4.48c4,.89,7.88,2.61,12.14,2,6.08,2.18,12.37.46,18.55,1,2.39-1.31,5.12-.53,7.53-1.13s4.81-1.19,7.19-1.87,5-.94,7.11-2.09c4.12-2.22,8.52-4.07,11.85-7.54C213.4,322.56,214.06,321.65,215.51,319.89Z" transform="translate(86.49 -225.99)"/><path class="cls-1" d="M69.39,351.27v19.52a46.82,46.82,0,0,1-3.9,5.65c-3.32,3.69-7.87,5.56-12.3,7.58-3.83,1.74-8,2.32-11.93,3.73a4.08,4.08,0,0,1-.89.25c-3.68.34-7.37.81-11.06,1s-7.76.6-11.45-.11C13.27,388,8.55,388,4,386.22c-4.14-1.61-8.58-2.52-12.51-4.74-3.44-1.93-6.72-3.93-8.82-7.62a13.73,13.73,0,0,1-2.09-6.1c-.26-5.46-.09-10.94-.09-17.25l2.62,2.62c2.45,2.44,7.62,4.83,11.55,7,4.6,2.56,9.87,2.62,14.47,4.87,3.45-.66,6.66,1.05,10.06,1s7,.12,10.48,0a54.3,54.3,0,0,0,10.05-1c6.44-1.57,13.16-2.59,18.93-6C62.33,356.73,66.44,354.91,69.39,351.27Z" transform="translate(86.49 -225.99)"/><path d="M204.51,405.26c0-4.16,0-8.32,0-12.49a14.47,14.47,0,0,1,4.37-10.68c6-6,13.28-9.26,21.39-11.12,3.53-.81,7.15-1.29,10.63-2.12,6.22-1.48,12.41-.48,18.6-.78,1.67-.08,3.37.68,5.08.91s3.09.46,4.62.82c2.26.53,4.74.38,7,1.2,1,.36,2.1.58,3.08,1,3.8,1.7,7.71,3.1,11.24,5.45,4.23,2.81,7.6,6.07,9.24,11.11a12.15,12.15,0,0,1,.7,3.69c0,8.82.1,17.64,0,26.47a14.09,14.09,0,0,1-4.33,10.19A42.09,42.09,0,0,1,275.25,440c-3.86.87-7.58,2.45-11.66,2-3,1.82-6.38.81-9.58,1s-6.66.06-10,0c-1.58,0-2.84-1.27-4.58-1.05a6.52,6.52,0,0,1-4.65-.82c-1-.66-2.68-.5-4.07-.92s-3-.69-4.51-1.2c-6.26-2.18-12.33-4.73-16.93-9.75-3.1-3.38-5.08-7.19-4.82-12C204.68,413.26,204.51,409.26,204.51,405.26Zm4-17.87c0,.72.28,1.6,0,2-2.43,3-.59,5.94.57,8.47,1.76,3.82,5.12,6.18,8.89,8.23a66.29,66.29,0,0,0,29.2,7.81,93.57,93.57,0,0,0,17.59-.69,75.13,75.13,0,0,0,19.7-5.65c3.78-1.67,7.43-3.76,10-7.06,2.28-2.91,3.86-6.36,2.85-10.12a14.89,14.89,0,0,0-5.61-8.6c-3.43-2.35-6.9-4.67-11.06-5.84-3.89-1.1-7.5-3.18-11.71-3.05-1.47-1.71-3.6-.2-5.09-1-1.86-1-3.71-.89-5.62-.91-3.16,0-6.32,0-9.49,0-1.83,0-4.1-.68-5.39.15-2.21,1.41-4.47.3-6.58,1.08s-4.2,1.1-6.26,1.78c-4.38,1.46-8.81,2.69-12.84,5.22C214.07,381.48,211.69,384.84,208.51,387.39Zm-1,13.46c0,7.06-.09,12.83.06,18.6a10.08,10.08,0,0,0,1.35,4.4,21.25,21.25,0,0,0,8.94,8.23A67.1,67.1,0,0,0,247,439.91a88.4,88.4,0,0,0,18.07-.71,74.66,74.66,0,0,0,12-2.56,47.73,47.73,0,0,0,13.7-6.64c3.29-2.45,6.22-5.52,6.59-9.57.55-6.05.14-12.2.14-18.4-2.53,2-4.69,3.85-7,5.46a37.69,37.69,0,0,1-7.24,4.18,76,76,0,0,1-11.1,3.28,102,102,0,0,1-12.14,2,63.82,63.82,0,0,1-9.48,0c-3-.14-6.2.82-9.07-1-4.25.58-8.17-1-12.13-2.07s-7.88-2.08-11.23-4.1C214.48,407.66,210.45,405.79,207.51,400.85Z" transform="translate(86.49 -225.99)"/><path d="M592.51,345.49c0,4,0,8,0,12a16,16,0,0,1-4.86,12c-4.31,4.42-14.76,9.09-20.61,10.7-4.41,1.21-9,1-13.31,2.77a6.83,6.83,0,0,1-2.48.05c-3.49,0-7,0-10.48,0-5.32,0-10.42-1.51-15.66-2-1.72-1.68-4.16-1.09-6.2-1.89s-3.7-2.46-6.06-2.26c-5.36-3.15-10.84-6.25-13.86-12a11.43,11.43,0,0,1-1.53-5.37c.08-9.32-.08-18.65.1-28a13.62,13.62,0,0,1,3.75-8.93,30.51,30.51,0,0,1,10.41-7.5c3.78-1.69,7.37-4.15,11.79-4.09,1.64-1.47,4-.29,5.46-1.2,1.81-1.13,3.57-.29,5.18-.85,6-2,12.06-.52,18.08-.89,1.5-.09,3,.63,4.58.93,1.38.26,2.78-.33,4.2.81.82.66,2.57.05,3.87.23a26.7,26.7,0,0,1,3.58,1,10,10,0,0,1,2.21.7c3.52,1.92,7.34,3.14,10.88,5.14a27.18,27.18,0,0,1,9.44,9.32,10.16,10.16,0,0,1,1.56,5.84C592.4,336.5,592.51,341,592.51,345.49Zm-91-18.12c0,.83.27,1.72-.05,2.12-1.57,1.95-.86,3.69-.24,5.83,1.53,5.34,5.27,8.21,9.82,10.8,8.33,4.74,17.45,6.61,26.73,7.79a61.69,61.69,0,0,0,13,0,90.56,90.56,0,0,0,12.19-1.82,61.8,61.8,0,0,0,16.47-6.1c2.68-1.48,5.36-3.06,7.15-5.58,2.11-3,3.82-6.34,2.7-10.12a16.49,16.49,0,0,0-5.61-8.63c-5.76-4.4-12.56-6.64-19.4-8.6a67.82,67.82,0,0,0-10.66-1.89c-5.58-.66-11.3-.17-17-.17-2,1.8-4.67.55-6.94,1.31s-4.62.9-6.78,1.74c-4.15,1.61-8.46,2.78-12.33,5.25C507.15,321.49,504.83,324.67,501.49,327.37Zm-1,13.48c0,7-.09,12.83.06,18.6a10.08,10.08,0,0,0,1.35,4.4,21.25,21.25,0,0,0,8.94,8.23A67.67,67.67,0,0,0,540,379.92a84.35,84.35,0,0,0,17.07-.72,72.33,72.33,0,0,0,12-2.56,47.73,47.73,0,0,0,13.7-6.64c3.29-2.44,6.22-5.52,6.59-9.57.55-6.05.14-12.2.14-19.11-4.14,5.25-9.27,7.83-14.3,10.31-3.41,1.69-7.32,2.48-11.08,3.32-4,.9-8.09,1.95-12.14,1.92-5.84-.05-11.8,1.34-17.55-.86-4.25.58-8.17-1-12.12-2.07s-7.89-2.07-11.24-4.1C507.48,347.66,503.44,345.79,500.51,340.85Z" transform="translate(86.49 -225.99)"/><path d="M446.51,375.86c0,4.16,0,8.33,0,12.49A14.55,14.55,0,0,1,442.06,399c-6,5.92-13.33,8.95-21.37,11.19a118.67,118.67,0,0,1-13.33,2.59,55.8,55.8,0,0,1-16.92,0c-4.58-.69-9.3-1.12-13.8-2.71a141.75,141.75,0,0,1-13.21-5.53,24.16,24.16,0,0,1-7.24-5.39c-2.93-3.29-4.82-6.92-4.73-11.55.17-8,.16-16,0-24-.14-7.45,3.79-12.15,9.71-15.91a49.92,49.92,0,0,1,13-6,38.23,38.23,0,0,1,7.25-1.79c1.55-.14,3.05-.72,4.59-.94s2.86.24,4.14-1c.44-.41,1.6-.06,2.43-.06,2.67,0,5.33-.06,8,0s5.42-.29,7.76.56,4.74-.37,7,1.3c1.37,1,3.88-.7,5.53,1,4-.35,7.12,2.27,10.45,3.71,5.18,2.24,10.13,5.27,13,10.67,1.13,2.12,2.18,4.15,2.17,6.61C446.49,366.54,446.51,371.2,446.51,375.86Zm-91-18.51c0,.83.28,1.73-.05,2.12-1.62,1.94-.89,3.7-.28,5.83,1.54,5.32,5.26,8.21,9.82,10.81,8.33,4.73,17.42,6.89,26.72,7.74,7.18.66,13.4.69,25.14-1.78A59.57,59.57,0,0,0,433.34,376c2.69-1.46,5.35-3.06,7.16-5.56,2.16-3,3.82-6.35,2.74-10.12a16.33,16.33,0,0,0-5.61-8.63c-5.75-4.41-12.55-6.65-19.39-8.62a67.82,67.82,0,0,0-10.66-1.89c-5.58-.66-11.3-.17-17-.17-2.06,1.77-4.67.57-6.95,1.29s-5,1-7.22,1.88c-4.12,1.64-8.46,2.72-12.29,5.4C360.86,351.9,358.63,355.15,355.51,357.35Zm-1,14.76c0,5.11,0,10.21,0,15.32,0,5.42,2.68,9.48,6.76,12.5a33.71,33.71,0,0,0,11.17,5.51c1.79.48,3.58,1,5.34,1.58a49.78,49.78,0,0,0,5.67,1.92c1.9.38,4.11-.24,5.81.48,2.14.91,4.19.52,6.24.54a108.55,108.55,0,0,0,15.58-.76,68.2,68.2,0,0,0,12-2.55,48.37,48.37,0,0,0,13.7-6.64c3.32-2.43,6.22-5.54,6.6-9.55.57-6.06.15-12.2.15-19.14-4.14,5.24-9.26,7.81-14.28,10.3-3.41,1.68-7.32,2.49-11.08,3.33a103.42,103.42,0,0,1-12.14,2,62.44,62.44,0,0,1-9,0c-2.87-.11-5.88.73-8.57-1-4.26.58-8.17-1-12.13-2.07s-7.9-2-11.24-4.09C361.51,377.65,357.42,375.83,354.51,372.11Z" transform="translate(86.49 -225.99)"/><path d="M153.51,435.75c0,4,0,8,0,12a15,15,0,0,1-4.72,11.54A42.36,42.36,0,0,1,128.25,470c-3.86.87-7.58,2.45-11.66,2-2.87,1.78-6,.82-9.08,1s-6.32.06-9.49,0c-1.58,0-2.84-1.27-4.58-1.05a6.52,6.52,0,0,1-4.65-.82c-1-.66-2.68-.5-4.07-.92s-3-.69-4.51-1.2c-6.26-2.18-12.33-4.72-16.93-9.75-3.1-3.38-5-7.19-4.83-12,.22-8.15,0-16.31.06-24.46a14.44,14.44,0,0,1,4.37-10.69c6-6,13.28-9.26,21.39-11.12,3.53-.8,7.15-1.28,10.62-2.13,5.08-1.25,10.08-.61,15.11-.76,2-.06,4-.61,6.17.79,1.57,1,3.92-.16,6.08,1,1.78.92,4.28.46,6.52,1.05,6.33,1.68,15.39,6.16,19.62,10.53,3.32,3.42,5.43,7.34,5.16,12.36C153.34,427.75,153.51,431.75,153.51,435.75Zm-91-18.29a3.36,3.36,0,0,1,0,1.17c-1.76,3.86-.68,7.06,1.5,10.57,2,3.19,4.72,5,7.69,6.8,4,2.43,8.55,3.48,12.86,5.13,4.68,1.77,9.56,1.87,14.31,2.74,3.71.68,7.64.27,11.47.1s7.38-.63,11.07-1a3.64,3.64,0,0,0,.89-.27c3.93-1.39,8.09-2,11.94-3.71,4.78-2.1,9.43-4.36,13.06-8.27,2-2.18,2.61-5,3.17-7.67.44-2.15-.84-4.34-2.3-7-3.14-5.76-8.77-7.8-14.28-10a89.77,89.77,0,0,0-9.24-3,66.22,66.22,0,0,0-10.17-1.84c-5.58-.67-11.3-.18-17-.18-2,1.83-4.66.55-6.93,1.36s-4.63.85-6.79,1.69c-4.15,1.62-8.43,2.85-12.3,5.31C67.92,411.64,65.57,415,62.51,417.46Zm-1,13.69c0,6.79-.09,12.57.06,18.35A9.76,9.76,0,0,0,63,453.88a18,18,0,0,0,9,8.15c2.14.85,4.12,2.11,6.26,2.94s4.56,1.09,6.61,2.11a20.44,20.44,0,0,0,6.71,1.81c2.37.29,4.72.8,7.06,1a78.57,78.57,0,0,0,13.46,0,105,105,0,0,0,12.66-1.87c5.21-1.11,15.54-5.22,19.52-8.29,3-2.3,5.76-5.26,6.12-8.88.61-6.21.17-12.52.17-19.37-1.29,1.28-2.09,2.07-2.87,2.87-3.35,3.45-7.75,5.32-11.86,7.54-2.13,1.15-4.73,1.41-7.11,2.09s-4.8,1.27-7.19,1.87-5.14-.19-7.54,1.13c-6.17-.54-12.46,1.17-18.54-1-4.26.58-8.14-1.15-12.14-2a42.86,42.86,0,0,1-11.6-4.47C68.12,437.52,64.45,435.49,61.51,431.15Z" transform="translate(86.49 -225.99)"/><path class="cls-1" d="M208.51,387.39c3.18-2.55,5.56-5.91,9.12-8.15,4-2.53,8.46-3.76,12.84-5.22,2.06-.68,4.23-1,6.26-1.78s4.37.33,6.58-1.08c1.29-.83,3.56-.15,5.39-.15,3.17,0,6.33,0,9.49,0,1.91,0,3.76-.06,5.62.91,1.49.77,3.62-.74,5.09,1,4.21-.13,7.82,1.95,11.71,3.05,4.16,1.17,7.63,3.49,11.06,5.84a14.89,14.89,0,0,1,5.61,8.6c1,3.76-.57,7.21-2.85,10.12-2.59,3.3-6.24,5.39-10,7.06a75.13,75.13,0,0,1-19.7,5.65,93.57,93.57,0,0,1-17.59.69,66.29,66.29,0,0,1-29.2-7.81c-3.77-2-7.13-4.41-8.89-8.23-1.16-2.53-3-5.45-.57-8.47C208.79,389,208.51,388.11,208.51,387.39Z" transform="translate(86.49 -225.99)"/><path class="cls-1" d="M207.51,400.85c2.94,4.94,7,6.81,10.57,9,3.35,2,7.38,3.07,11.23,4.1s7.88,2.65,12.13,2.07c2.87,1.78,6,.82,9.07,1a63.82,63.82,0,0,0,9.48,0,102,102,0,0,0,12.14-2,76,76,0,0,0,11.1-3.28,37.69,37.69,0,0,0,7.24-4.18c2.35-1.61,4.51-3.48,7-5.46,0,6.2.41,12.35-.14,18.4-.37,4.05-3.3,7.12-6.59,9.57a47.73,47.73,0,0,1-13.7,6.64,74.66,74.66,0,0,1-12,2.56,88.4,88.4,0,0,1-18.07.71,67.1,67.1,0,0,1-29.17-7.83,21.25,21.25,0,0,1-8.94-8.23,10.08,10.08,0,0,1-1.35-4.4C207.42,413.68,207.51,407.91,207.51,400.85Z" transform="translate(86.49 -225.99)"/><path class="cls-1" d="M501.49,327.37c3.34-2.7,5.66-5.88,9.05-8.06,3.87-2.47,8.18-3.64,12.33-5.25,2.16-.84,4.57-1,6.78-1.74s4.9.49,6.94-1.31c5.66,0,11.38-.49,17,.17a67.82,67.82,0,0,1,10.66,1.89c6.84,2,13.64,4.2,19.4,8.6a16.49,16.49,0,0,1,5.61,8.63c1.12,3.78-.59,7.14-2.7,10.12-1.79,2.52-4.47,4.1-7.15,5.58a61.8,61.8,0,0,1-16.47,6.1,90.56,90.56,0,0,1-12.19,1.82,61.69,61.69,0,0,1-13,0c-9.28-1.18-18.4-3.05-26.73-7.79-4.55-2.59-8.29-5.46-9.82-10.8-.62-2.14-1.33-3.88.24-5.83C501.76,329.09,501.49,328.2,501.49,327.37Z" transform="translate(86.49 -225.99)"/><path class="cls-1" d="M500.51,340.85c2.93,4.94,7,6.81,10.57,9,3.35,2,7.38,3.07,11.24,4.1s7.87,2.65,12.12,2.07c5.75,2.2,11.71.81,17.55.86,4,0,8.14-1,12.14-1.92,3.76-.84,7.67-1.63,11.08-3.32,5-2.48,10.16-5.06,14.3-10.31,0,6.91.41,13.06-.14,19.11-.37,4.05-3.3,7.13-6.59,9.57a47.73,47.73,0,0,1-13.7,6.64,72.33,72.33,0,0,1-12,2.56,84.35,84.35,0,0,1-17.07.72,67.67,67.67,0,0,1-29.17-7.84,21.25,21.25,0,0,1-8.94-8.23,10.08,10.08,0,0,1-1.35-4.4C500.42,353.68,500.51,347.9,500.51,340.85Z" transform="translate(86.49 -225.99)"/><path class="cls-1" d="M355.51,357.35c3.12-2.2,5.35-5.45,8.65-7.77,3.83-2.68,8.17-3.76,12.29-5.4,2.19-.87,4.84-1.13,7.22-1.88s4.89.48,6.95-1.29c5.66,0,11.38-.49,17,.17a67.82,67.82,0,0,1,10.66,1.89c6.84,2,13.64,4.21,19.39,8.62a16.33,16.33,0,0,1,5.61,8.63c1.08,3.77-.58,7.15-2.74,10.12-1.81,2.5-4.47,4.1-7.16,5.56a59.57,59.57,0,0,1-16.48,6.07c-11.74,2.47-18,2.44-25.14,1.78-9.3-.85-18.39-3-26.72-7.74-4.56-2.6-8.28-5.49-9.82-10.81-.61-2.13-1.34-3.89.28-5.83C355.79,359.08,355.51,358.18,355.51,357.35Z" transform="translate(86.49 -225.99)"/><path class="cls-1" d="M354.51,372.11c2.91,3.72,7,5.54,10.59,7.74,3.34,2,7.39,3.06,11.24,4.09s7.87,2.65,12.13,2.07c2.69,1.7,5.7.86,8.57,1a62.44,62.44,0,0,0,9,0,103.42,103.42,0,0,0,12.14-2c3.76-.84,7.67-1.65,11.08-3.33,5-2.49,10.14-5.06,14.28-10.3,0,6.94.42,13.08-.15,19.14-.38,4-3.28,7.12-6.6,9.55a48.37,48.37,0,0,1-13.7,6.64,68.2,68.2,0,0,1-12,2.55,108.55,108.55,0,0,1-15.58.76c-2.05,0-4.1.37-6.24-.54-1.7-.72-3.91-.1-5.81-.48a49.78,49.78,0,0,1-5.67-1.92c-1.76-.58-3.55-1.1-5.34-1.58a33.71,33.71,0,0,1-11.17-5.51c-4.08-3-6.8-7.08-6.76-12.5C354.54,382.32,354.51,377.22,354.51,372.11Z" transform="translate(86.49 -225.99)"/><path class="cls-1" d="M62.51,417.46c3.06-2.48,5.41-5.82,9-8.09,3.87-2.46,8.15-3.69,12.3-5.31,2.16-.84,4.61-.91,6.79-1.69s4.91.47,6.93-1.36c5.66,0,11.38-.49,17,.18A66.22,66.22,0,0,1,124.63,403a89.77,89.77,0,0,1,9.24,3c5.51,2.23,11.14,4.27,14.28,10,1.46,2.67,2.74,4.86,2.3,7-.56,2.71-1.14,5.49-3.17,7.67-3.63,3.91-8.28,6.17-13.06,8.27-3.85,1.69-8,2.32-11.94,3.71a3.64,3.64,0,0,1-.89.27c-3.69.34-7.38.81-11.07,1s-7.76.58-11.47-.1c-4.75-.87-9.63-1-14.31-2.74-4.31-1.65-8.85-2.7-12.86-5.13-3-1.79-5.71-3.61-7.69-6.8-2.18-3.51-3.26-6.71-1.5-10.57A3.36,3.36,0,0,0,62.51,417.46Z" transform="translate(86.49 -225.99)"/><path class="cls-1" d="M61.51,431.15c2.94,4.34,6.61,6.37,10.15,8.35A42.86,42.86,0,0,0,83.26,444c4,.89,7.88,2.62,12.14,2,6.08,2.17,12.37.46,18.54,1,2.4-1.32,5.12-.52,7.54-1.13s4.81-1.2,7.19-1.87,5-.94,7.11-2.09c4.11-2.22,8.51-4.09,11.86-7.54.78-.8,1.58-1.59,2.87-2.87,0,6.85.44,13.16-.17,19.37-.36,3.62-3.15,6.58-6.12,8.88-4,3.07-14.31,7.18-19.52,8.29A105,105,0,0,1,112,469.92a78.57,78.57,0,0,1-13.46,0c-2.34-.2-4.69-.71-7.06-1a20.44,20.44,0,0,1-6.71-1.81c-2-1-4.45-1.28-6.61-2.11s-4.12-2.09-6.26-2.94a18,18,0,0,1-9-8.15,9.76,9.76,0,0,1-1.39-4.38C61.42,443.72,61.51,437.94,61.51,431.15Z" transform="translate(86.49 -225.99)"/></svg>