<svg id="Layer_1" data-name="Layer 1" xmlns="http://www.w3.org/2000/svg" viewBox="0 0 749.98 337.18"><defs><style>.cls-1{fill:#505050;}.cls-2{fill:#282828;}.cls-3{fill:#3c3c3c;}</style></defs><path d="M-69,347.91A53,53,0,0,1-63.54,346c2.78-.61,5.64-.86,8.42-1.45s5.55-1.15,8.3-1.75c4.74-1,9.55-1.81,14.27-2.91,5.3-1.24,10.62-2.61,15.94-3.62,4.65-.88,9.24-2.48,14.28-2.34a29.64,29.64,0,0,1,10.71-8.66,60.37,60.37,0,0,1,11.68-4.38c4.55-1.22,9.29-1.39,13.8-2.85,1.51-.49,3.31-.08,5-.08,3.5,0,7.06-.4,10.48.11a60.82,60.82,0,0,1,9.72,1.8c3.5,1.13,7-1.24,10.53-1,1.84-2,4.86.08,6.69-1.94,4.71.36,9.22-1.19,13.62-2.23,5.28-1.26,10.65-2.36,15.94-3.55,4.11-.92,8.41-1.59,12.59-2.39,3.62-.69,7.38-1.23,10.87-2.63,1.65-.66,3.34-.09,5.14-.85,2.7-1.15,5.92-1.07,9.39-1.58,2.53-3.49,6.42-6.17,10.49-8.4a43.5,43.5,0,0,1,11.2-4.25c4-.92,8.13-1.46,12.09-2.33,6.11-1.34,12.11-.36,18.14-.73,1.5-.09,3,.64,4.58.93a27,27,0,0,1,4.19.72,7.66,7.66,0,0,0,6.62-.35c1.69-1.07,3.61-.08,5.55-1.16,2.21-1.21,5.28-.83,8-1.21,2.35-.33,5-.19,6.93-1.3,2.1-1.21,4.34-.2,6.43-1.54,1.71-1.09,4.4-.5,6.46-1.22,4-1.4,8.41-1,12.28-2.93,5.94.11,11.35-2.84,17.25-3,2.38-2.05,5.51-.51,8.25-1.83,2.45-1.19,5.59-1,8.69-1.41,2.51-3.91,6.69-6.26,10.66-8.64a36.42,36.42,0,0,1,10.79-4c4-.88,8.11-1.5,12.1-2.31,5.92-1.2,11.77-.73,17.62-.66a31,31,0,0,1,9.27,1.61,8.64,8.64,0,0,0,5.36.14c3.83-1.51,8-1.17,11.85-2.76,1.93-.8,4.32-.38,6.57-1,3.16-.83,6.45-1.19,9.65-2.09a62.47,62.47,0,0,1,9.17-1.89c4.27-.52,8.42-1.61,12.61-2.36,3.61-.64,7.43-.92,10.85-2.68,1.52-.78,3.66.69,5-1.1,4.85.27,9.27-2.36,14.26-2,2.66-4,6.77-6.49,10.77-8.8,3.42-2,7.43-3,11.24-4.19,4.63-1.5,9.52-2.09,14.28-2.82,5.53-.85,11.3-.2,17-.2,2.39,2,5.49.68,8.25,1.82,3.29,1.36,7-.48,10.42-1.11s7-1.89,10.65-1.71L681,388.69v55.1c-5.72.44-11.11,2.92-17,3.21-1.68,2.08-4.25.47-6.35,1.61s-4.58,1-6.91,1.38-4.54.29-6.55,1.08c-5.14,2-10.63,2.71-15.92,3.68-5.57,1-11,2.58-16.68,3.41a31.3,31.3,0,0,0-6.85,1.46,35.15,35.15,0,0,1-6.93,1.37c-2.35.38-4.84.32-7.06,1.08-6,2-12.27,2.53-18.33,4-5.29,1.33-10.78,1.69-15.94,3.73-1.79.71-4,.59-6,1.06-4.72,1.09-9.55,1.69-14.26,3-2.24.62-4.71.12-7.09,1-2,.76-4.57.3-6.49,1.2-2.52,1.19-5.21,1-7.75,1.81-2.24.72-5.15.07-6.94,1.26-2.11,1.4-4.7-.35-6.33,1.72-4.23-.35-8.07,1.54-12.09,2.29s-8.43.9-12.29,2.81c-5.64-.2-10.8,2.24-16.21,3.25s-10.88,1.32-15.89,3.75c-4.35-.18-8.49,1.3-12.63,2.18-5.31,1.13-10.79,1.6-15.95,3.64-1.82.72-4,.58-6,1.06-4.72,1.11-9.54,1.71-14.25,3-2.24.61-4.72.2-7.08,1-2.06.72-4.62.25-6.48,1.23-1.63.85-3.23.37-4.63.94a41.26,41.26,0,0,1-4.1,1,106.57,106.57,0,0,1-12.37,2.57c-4,.71-8,1.73-12,2.52-6.13,1.2-12.36,1.94-18.42,3.66-2.65.75-5.51,1.17-8.28,1.78s-5.65.77-8.42,1.43c-3.53.84-7.2,1.24-10.61,2.18s-7.05,1-10.4,2.61c-1.65.78-4,.64-6,1a36.55,36.55,0,0,0-4.57,1.09c-3.13,1.06-6.5.83-9.69,1.94a69.77,69.77,0,0,1-9.17,2c-3.08.61-6.15,1.43-9.24,1.81s-6.39.94-9.43,1.58c-3.58.74-7.55.56-10.8,2.76-4.21-.23-8.13,1.3-12.16,2.08-5.52,1.06-11.1,1.9-16.5,3.54a50.67,50.67,0,0,1-6.94,1.36c-2.52.41-5.39.06-7.49,1.19-2.26,1.22-4.93-.18-6.8,1.73-4.23-.35-8.07,1.54-12.09,2.29s-8.43.9-12.29,2.81c-6-.17-11.38,2.57-17.24,3.16-3.37.33-6.74,1.4-10.16,2a77.52,77.52,0,0,0-9.65,2c-5.1,1.57-10.38,2.16-15.49,3.56-4.56,1.26-9.34,1.71-13.78,2.47L-69,401.27Zm139-25.5A17.84,17.84,0,0,0,72.78,324c5.37,1.9,10.41,4.94,13.35,8.74,2.32,3,4,6.27,3.92,10.35-.18,8.17-.09,16.33,0,24.5a15.91,15.91,0,0,1-4.94,12c-2.77,2.77-6.18,4.39-9.33,6.49-4.13,2.75-8.95,3.59-13.51,4.78A55,55,0,0,1,46.61,393c-5.2-.17-10.36.16-15.62-.77A96.85,96.85,0,0,1,17.27,389a52.13,52.13,0,0,1-11-4.83,28.72,28.72,0,0,1-7.09-5.64A15.58,15.58,0,0,1-5,367.79c.18-7.5,0-15,.08-22.5,0-2.67.38-5.33.59-8.09l-58.39,12.11L96.08,508.17a9.08,9.08,0,0,1,2.72-1.12c4.88-.45,9.52-2.14,14.28-2.87,5.94-.9,11.68-2.93,17.72-3.18,1.72-1.69,4-.55,6-1.27,5.32-2,11-2.55,16.47-3.64,4-.8,8-2.27,12.16-2.09,3.08-2.16,6.89-1.84,10.31-2.78s7.09-1.35,10.62-2.18c2.77-.64,5.67-.73,8.45-1.37s5.47-1.32,8.27-1.81c3.39-.6,6.7-1.57,10.19-1.95s7.08-1.44,10.65-2.07c1.86-.33,3.93-.27,5.56-.95,5.45-2.27,11.32-2.38,16.93-3.73a41.23,41.23,0,0,1,5.54-1.19c1.71-.18,3.62-.25,5-1.07,1.87-1.08,4.13-.14,5.53-1.1,2.18-1.49,4.62-.38,6.88-1.63,2.08-1.15,5-.79,7.49-1.18a47.27,47.27,0,0,0,6.94-1.34c5.39-1.73,11-2.49,16.5-3.57,4-.79,8-2.27,12.15-2.08,3.08-2.16,6.9-1.85,10.32-2.78s7.08-1.35,10.62-2.18c2.77-.65,5.66-.76,8.43-1.4s5.49-1.29,8.29-1.78c3.39-.6,6.69-1.61,10.18-1.94s6.73-1.5,10.16-2.05a32.28,32.28,0,0,0,6-1.06,63.19,63.19,0,0,1,6.75-1.75c2.3-.59,4.73-.64,7.07-1.08s4.54-1.15,6.83-1.59c3.06-.59,6.06-1.73,9-2.2,5.93-1,11.69-2.91,17.73-3.19,1.69-1.73,4-.64,6-1.31,5.35-1.84,11-2.55,16.49-3.61,4-.78,8-2.31,12.15-2.08,3.08-2.16,6.9-1.84,10.32-2.78s7.08-1.34,10.62-2.18c2.76-.65,5.64-.81,8.42-1.43a78.59,78.59,0,0,0,8.23-1.86c2.42-.83,4.95-.35,7.34-1.59,2.14-1.1,5.11-.45,7.46-1.28,1.9-.67,4-.31,5.58-1,3.82-1.62,7.88-1.93,11.82-2.83s8.15-1.18,12.13-2.13c2-.49,4.23-.44,6.05-1.08a62,62,0,0,1,8.7-2c3.06-.63,6.1-1.38,9.19-1.9,2.3-.39,4.52-1.22,6.82-1.6,3.09-.52,6.05-1.71,9.05-2.22,7.15-1.22,14.22-2.76,21.29-4.28,2.23-.48,4.62-.22,6.56-1,3.84-1.55,7.94-1.77,11.85-2.67,6.41-1.46,13-2.33,19.31-4.16A59.54,59.54,0,0,1,645.8,395c2.33-.39,4.91-.35,6.9-1.4s4.68.49,6.36-1.59c5.8-.33,11.17-2.74,16.41-3.2Q596.21,309.54,516.63,230l-3.22,1.22h-4.24c-.07.49-.12.8-.2,1.32a33.71,33.71,0,0,0,3.21,1.48,29.35,29.35,0,0,1,13.55,9.39,15.08,15.08,0,0,1,3.34,10.12c-.24,8-.11,16-.05,24a15.71,15.71,0,0,1-4.9,12A41.67,41.67,0,0,1,512.69,297c-7.57,3.67-15.83,4.77-24,5.93a63,63,0,0,1-11.49,0c-3.7-.16-7.39-.63-11.08-1-.17,0-.36.06-.5,0-4.62-2.22-9.79-2.59-14.51-4.81-5-2.34-9.73-4.74-13.25-8.94a15.24,15.24,0,0,1-3.9-10.38c.18-7.83,0-15.66.08-23.49,0-2.35.36-4.69.55-7L363,261.65v1.1a40.38,40.38,0,0,1,9.17,4.18,25.2,25.2,0,0,1,8.25,7.8c1.35,2.08,2.5,4.1,2.53,6.46.12,9.49.19,19,0,28.49a13,13,0,0,1-3.55,8.51A38.9,38.9,0,0,1,366.51,327a70.68,70.68,0,0,1-25,5.82,69.35,69.35,0,0,1-17.11-.64c-4.66-.84-9.2-1.91-13.78-3a40.78,40.78,0,0,1-13.84-6.35c-5.18-3.64-9.1-8.52-8.81-15.69.28-6.82,0-13.66.07-20.49,0-3.17-.48-6.38,1.14-9.46l-73.22,14.41c.11,2.15,2.15,1.88,3.18,2.27a30.93,30.93,0,0,1,13.56,9.41,15.17,15.17,0,0,1,3.4,10.09c-.22,8.32-.07,16.66-.07,25a14.91,14.91,0,0,1-4.46,10.68c-2.92,3.09-6.5,5-10.11,7s-7.56,3.7-11.88,3.9c-1.46,1.91-3.89.67-5.77,1.85-1.46.91-3.78.43-5.72.59-2.09.18-4.18.55-6.27.53-5-.06-10,0-15.11-.79a103,103,0,0,1-12.85-2.89A52.69,52.69,0,0,1,152,354.12a26,26,0,0,1-7.38-6.17,15.75,15.75,0,0,1-3.65-10.49c.21-9.32.07-18.65.07-27.59.5-1,.83-1.66,1.31-2.6L70.06,321.64ZM677.83,440.8V391.45a29.79,29.79,0,0,0-5.57.86c-5.35,1.9-11,2.5-16.49,3.6-4,.8-7.95,2.27-12.15,2.09-3.08,2.16-6.89,1.84-10.31,2.78a61.75,61.75,0,0,1-10.62,2.08c-4.15.37-7.9,2.71-12.16,2.14-2.49,1.61-5.46,1.45-8.19,1.88-3,.47-5.77,1.8-8.66,2-4.17.28-7.9,2.71-12.16,2.13-2.49,1.6-5.51,1.07-8.17,2a40.31,40.31,0,0,1-8.69,1.83c-4.13.46-7.88,2.77-12.15,2.18-1.8,2.06-4.53.55-6.76,1.84-1.91,1.11-4.68.64-7,1.21s-4.94.4-7,1.14c-3.57,1.24-7.49.89-10.82,2.81-6,.22-11.72,2.7-17.75,3-1.71,1.71-4.1.43-6,1.32-3.45,1.66-7.28,1.9-10.91,2.52-4.21.71-8.28,2.41-12.64,2.16-1.51,1.76-4.12.39-5.67,2-2.35-.68-4.32,1-6.59,1.06-2,.06-4.3.15-6,1.06-2,1.08-4.14.4-6.06,1.1-3.53,1.29-7.31,1.46-10.87,2.71-2.06.72-4.75.13-6.46,1.22-2.09,1.33-4.63-.19-6.33,1.69-4-.17-7.64,1.89-11.6,2.21a25.24,25.24,0,0,0-6.49,1.22c-1.81.67-3.78-.06-5.08.91-1.59,1.2-3.39.16-4.63.92-1.72,1.06-3.42.69-5.14.93a33.14,33.14,0,0,0-6.46,1.28c-5.36,1.89-11,2.5-16.49,3.6-4,.8-7.95,2.27-12.15,2.09-5.49,2.58-11.56,2.72-17.37,3.85-4.17.81-8.27,2.41-12.64,2.15-1.47,1.85-3.86.8-5.75,1.85s-4.31.81-6.5,1.15c-2,.32-4.32.19-6,1.12-2,1.13-4.13.42-6,1.12-3.54,1.27-7.29,1.6-10.89,2.65-3,.87-6.18.9-9.16,2.06a12.53,12.53,0,0,1-5.06,1c-4.41-.24-8.24,2.68-12.67,2.07-1.8,2.08-4.53.54-6.76,1.84-1.91,1.11-4.68.64-7,1.21s-4.94.41-7,1.14c-3.57,1.24-7.49.89-10.82,2.81-6,.23-11.72,2.7-17.76,3-1.72,2-4.24.72-6.36,1.51-3.49,1.3-7.29,1.79-11,2.46-2.67.48-5.54.25-8,1.12-5.19,1.8-10.63,2.53-15.92,3.68-5.82,1.27-11.67,2.91-17.7,3.23-1.71,1.72-4,.6-6,1.29-5.33,1.91-11,2.54-16.47,3.63-4,.8-8,2.27-12.16,2.08-1.44,1.94-3.87.68-5.76,1.84s-4.3.82-6.49,1.16c-2,.32-4.08.57-6.08,1-2.72.61-5.4,1.39-8,2.07-.64,13.83-.41,45.86.3,49.66,2.05-.28,4.21-.19,6.06-.91a61.42,61.42,0,0,1,10.86-2.65c4.18-.79,8.48-1.48,12.58-2.41,5.29-1.21,10.73-1.84,16-3.58a47.2,47.2,0,0,1,8.87-1.58,78.39,78.39,0,0,0,8.77-1.82c2-.49,4.18-.25,6-1,5.13-2.11,10.66-2.44,16-3.62,4.13-.91,8.27-2.36,12.63-2.17,7.22-2.81,15-3.38,22.45-4.86,4.17-.82,8.33-1.88,12.62-2.34,2.13-.23,4.47-1.44,6.71-1.68,2.54-.27,4.89-1.35,7.57-1.26,2.23.07,4.47-1.42,6.75-1.6,3.2-.25,6.06-1.79,9.1-2.13,4.28-.48,8.3-2.31,12.66-2.13,1.83-1.53,4.21-.39,6-1.1,3.52-1.38,7.27-1.69,10.85-2.69a61.9,61.9,0,0,1,8.88-1.61,71.39,71.39,0,0,0,8.77-1.81c2-.51,4.17-.24,6-1,5.12-2.15,10.66-2.42,16-3.6,4.13-.92,8.27-2.37,12.63-2.17,5-2.43,10.67-2.17,15.87-3.91,2.53-.85,5.5-.35,8-1.2a51.63,51.63,0,0,1,7.75-1.67c3.42-.59,6.74-1.56,10.11-2.28a99.88,99.88,0,0,1,10.21-1.73c5.56-.57,10.61-3.31,16.23-3.21,1.4-2.05,3.88-.12,5.4-1.41,1.75-1.48,4,0,6-1.42,1.26-.93,3.69-.81,5.48-1,4.14-.37,7.89-2.76,12.15-2.19,1.4-2.05,3.87-.13,5.4-1.41,1.75-1.48,4,0,6-1.43,1.27-.92,3.69-.8,5.49-1,4.14-.37,7.89-2.77,12.15-2.19,2.49-1.6,5.5-1.06,8.17-2a40.79,40.79,0,0,1,8.69-1.83c4.12-.46,7.88-2.77,12.15-2.18,1.8-2.06,4.53-.53,6.76-1.84,1.9-1.11,4.64-.77,7-1.18,1.21-.21,2.37-.72,3.59-1s2.44-.44,3.66-.78c3.29-.92,6.73-1.42,10.1-2.19,2.64-.6,5.58-.23,8-1.2,2.07-.83,4.15-.36,6.06-1.06a64,64,0,0,1,10.88-2.61c4.19-.75,8.48-1.47,12.58-2.4,5.29-1.2,10.71-1.94,16-3.59a53.46,53.46,0,0,1,8.85-1.62,66.75,66.75,0,0,0,8.79-1.79c2-.56,4.12-.3,6-1,5.31-2,11-2.54,16.47-3.65,4-.8,7.95-2.27,12.15-2.09,1.5-1.77,4.11-.39,5.67-2,2.35.69,4.31-1,6.58-1.06a33.3,33.3,0,0,0,6.08-1c2.14-.44,4.23-1.12,6.37-1.51,3.7-.67,7.29-1.83,11-2.4A60.36,60.36,0,0,0,677.83,440.8ZM-65.84,398.92,92.84,557.61V511.07L-65.84,352.39ZM438,247.34c0,.76.19,1.38,0,1.75-2.12,3.57-.41,6.51,1.21,9.69,2,4,5.61,6,9.16,8,3.91,2.18,8.32,3.21,12.53,4.71,4.38,1.55,9,1.64,13.45,2.42,3.72.64,7.64.26,11.46.09s7.39-.62,11.08-1a4,4,0,0,0,.89-.24c3.93-1.41,8.1-2,11.94-3.73,4.76-2.13,9.53-4.27,13-8.29,2.49-2.86,4-6.47,3.13-10.08a14.94,14.94,0,0,0-5.81-9c-3.44-2.34-6.92-4.72-11.13-5.67-2.1-.48-4.12-1.3-6.17-2a49.62,49.62,0,0,0-6.18-1.94c-2.17-.4-4.56.5-6.56-1.06H473c-2,1.82-4.65.56-6.93,1.35s-4.62.88-6.79,1.7c-4.16,1.59-8.42,2.88-12.31,5.3C443.54,241.5,441.32,244.76,438,247.34ZM292.15,277.27a6.42,6.42,0,0,1-.43,2.44c-2,2.93-.35,5.7.75,8.09,1.75,3.81,5,6.29,8.86,8.28,4.16,2.17,8.6,3.4,12.9,5.07,4.69,1.83,9.57,1.8,14.32,2.72,3.54.68,7.31.26,11,.09s7.39-.63,11.08-1c.32,0,.74.08,1-.08,1.85-1.36,4.19-1.09,6.21-1.89s4.18-1.19,6.14-2.06c4.76-2.12,9.45-4.38,13-8.38,2.52-2.83,3.27-7.33,2.11-11.31a14.87,14.87,0,0,0-6.36-8.4,52.62,52.62,0,0,0-10.75-5.48c-6.17-2.42-12.66-3.48-19.16-4.33-2.95-.39-6-.07-9-.07-2.33,0-5-.74-6.9.19-2.27,1.12-4.49.23-6.58,1s-4.53,1.15-6.72,1.87c-4.23,1.38-8.49,2.7-12.38,5.1C297.61,271.4,295.21,274.74,292.15,277.27ZM145,307.45a3.56,3.56,0,0,1,0,1.21c-1.76,3.87-.61,7,1.52,10.57,2.31,3.85,5.83,5.68,9.31,7.73,3.75,2.21,8.09,3,12.12,4.51,4.18,1.59,8.65,1.59,13,2.39,3.7.68,7.63.27,11.46.1s7.71-.63,11.57-1c.17,0,.4.07.49,0,1.76-1.61,4.19-1.53,6.2-1.8,2.45-.33,4.09-2.6,6.64-2.19,4.34-2.52,9.21-4.27,12.53-8.3,2.41-2.93,4-6.53,3.06-10.11a16.19,16.19,0,0,0-6.59-9.58,42.25,42.25,0,0,0-11.59-5.75c-5-1.41-9.76-3.79-15.15-3.26-.33,0-.77.14-1,0-2.84-2.16-6.07-.64-9.09-.92s-6.57-.79-9.41.17c-2.38.8-4.73.28-7,1.15s-4.66.81-6.79,1.68c-4.13,1.7-8.45,2.82-12.31,5.32C150.4,301.68,148.05,305,145,307.45ZM42.08,364.25c4.07-.36,8.07-.6,12.12-1.07a67.64,67.64,0,0,0,19.69-5.62c3.63-1.61,7.23-3.52,9.67-6.72,2.58-3.38,4.55-6.94,2.55-11.68C84.7,335.82,83,333,80,331a50.61,50.61,0,0,0-11.15-5.65,84.41,84.41,0,0,0-19.19-4.27c-3.27-.41-6.65-.07-10-.07-2,0-4.14-.47-6,.1-4.2,1.31-8.64,1.4-12.78,2.89-4.35,1.56-8.82,2.68-12.82,5.25-3,1.9-5.23,4.41-7.63,6.82a8.58,8.58,0,0,0-2.36,8.4,16.86,16.86,0,0,0,6.24,9.35c6.83,4.77,14.74,7.17,22.69,9.05C31.91,364,37.06,363.83,42.08,364.25ZM437,262.29c0,5,.08,9.92,0,14.88a14.82,14.82,0,0,0,6.59,12.65,38.62,38.62,0,0,0,10.72,5.37c3.95,1.26,7.9,3.07,11.91,3.6a110.18,110.18,0,0,0,14,1.36,106.52,106.52,0,0,0,16.52-1.34,45.41,45.41,0,0,0,14.52-4.57c2.72-1.45,5.73-2.5,8.17-4.32a16.15,16.15,0,0,0,6.56-9.87c-.15-5.23.25-11.64-.21-18.38A39.94,39.94,0,0,1,508.9,272.6a89.49,89.49,0,0,1-20.15,4.29,56.54,56.54,0,0,1-15.43-.08,128.54,128.54,0,0,1-13.81-2.62,66.92,66.92,0,0,1-11.67-4.36C444.08,267.92,440,265.89,437,262.29ZM291,291c0,6.78,0,12.39,0,18a10.49,10.49,0,0,0,.7,2.19c1.33,5.34,4.95,8.58,9.76,10.77,2.1.95,4.11,2.12,6.26,2.95s4.6,1.05,6.59,2.13a19.37,19.37,0,0,0,6.73,1.77c2.35.35,4.71.83,7.06,1.05a84.27,84.27,0,0,0,11.46,0c3.7-.16,7.38-.63,11.07-1a2.85,2.85,0,0,0,.94-.12c3.63-1.78,7.7-2.09,11.45-3.71a66.68,66.68,0,0,0,10.66-5.51c3.1-2.06,5.8-5.18,6.13-8.84.57-6.21.16-12.51.16-19.56-3.46,4.41-7.51,6.56-11.52,8.86a33.14,33.14,0,0,1-8.2,3.11c-2.83.77-5.61,1.77-8.47,2.41s-6,.85-8.95,1.22a63.55,63.55,0,0,1-13.44.05A87.71,87.71,0,0,1,316.76,305a64,64,0,0,1-14-4.8C298.64,298.16,294.55,296,291,291Zm-58,29.85c-1.44,1.75-2.11,2.67-2.89,3.48-3.32,3.47-7.73,5.33-11.85,7.55-2.12,1.14-4.73,1.4-7.11,2.08s-4.8,1.27-7.19,1.87-5.14-.18-7.53,1.13c-6.17-.54-12.47,1.18-18.55-1-4.25.58-8.14-1.15-12.14-2a43,43,0,0,1-11.6-4.47c-3.53-2-7.19-4-10.14-8.34,0,6.79-.09,12.58.06,18.35a9.76,9.76,0,0,0,1.39,4.38,17.9,17.9,0,0,0,9,8.15c2.15.85,4.13,2.1,6.27,2.93s4.56,1.1,6.61,2.12a20.42,20.42,0,0,0,6.71,1.8c2.37.28,4.72.81,7.06,1a78.57,78.57,0,0,0,13.46,0A103.07,103.07,0,0,0,207.2,358c5.24-1.11,15.54-5.22,19.52-8.3,3-2.29,5.76-5.24,6.11-8.87C233.44,334.66,233,328.35,233,320.89ZM86.88,352.26c-2.94,3.65-7.06,5.47-10.72,7.64-5.77,3.44-12.49,4.46-18.93,6a53.46,53.46,0,0,1-10,1c-3.49.17-7,0-10.48.05s-6.61-1.67-10.06-1c-4.6-2.24-9.87-2.31-14.47-4.87-3.93-2.18-9.1-4.57-11.55-7L-2,351.5c0,6.32-.17,11.79.09,17.25a13.9,13.9,0,0,0,2.09,6.11c2.1,3.68,5.38,5.68,8.82,7.62,3.93,2.22,8.37,3.12,12.51,4.74C26,389,30.76,389,35.35,389.86c3.69.71,7.63.27,11.45.1s7.38-.62,11.06-1a3.47,3.47,0,0,0,.89-.25c3.93-1.4,8.11-2,11.93-3.73,4.43-2,9-3.88,12.3-7.58a45,45,0,0,0,3.9-5.65Z" transform="translate(69 -226.99)"/><path class="cls-1" d="M70,322.41l.07-.77,72.25-14.37c-.48.94-.81,1.61-1.31,2.6,0,8.94.14,18.27-.07,27.59A15.75,15.75,0,0,0,144.58,348a26,26,0,0,0,7.38,6.17,52.69,52.69,0,0,0,11.87,5.17,103,103,0,0,0,12.85,2.89c5.07.83,10.07.73,15.11.79,2.09,0,4.18-.35,6.27-.53,1.94-.16,4.26.32,5.72-.59,1.88-1.18,4.31.06,5.77-1.85,4.32-.2,8.16-1.81,11.88-3.9s7.19-4,10.11-7A14.91,14.91,0,0,0,236,338.38c0-8.33-.15-16.67.07-25a15.17,15.17,0,0,0-3.4-10.09,30.93,30.93,0,0,0-13.56-9.41c-1-.39-3.07-.12-3.18-2.27l73.22-14.41c-1.62,3.08-1.13,6.29-1.14,9.46,0,6.83.21,13.67-.07,20.49-.29,7.17,3.63,12,8.81,15.69a40.78,40.78,0,0,0,13.84,6.35c4.58,1.1,9.12,2.17,13.78,3a69.35,69.35,0,0,0,17.11.64,70.68,70.68,0,0,0,25-5.82,38.9,38.9,0,0,0,12.86-8.84,13,13,0,0,0,3.55-8.51c.22-9.49.15-19,0-28.49,0-2.36-1.18-4.38-2.53-6.46a25.2,25.2,0,0,0-8.25-7.8,40.38,40.38,0,0,0-9.17-4.18v-1.1l71.58-14.24c-.19,2.27-.53,4.61-.55,7-.07,7.83.1,15.66-.08,23.49a15.24,15.24,0,0,0,3.9,10.38c3.52,4.2,8.27,6.6,13.25,8.94,4.72,2.22,9.89,2.59,14.51,4.81.14.07.33,0,.5,0,3.69.33,7.38.8,11.08,1a63,63,0,0,0,11.49,0c8.18-1.16,16.44-2.26,24-5.93a41.67,41.67,0,0,0,11.43-7.49,15.71,15.71,0,0,0,4.9-12c-.06-8-.19-16,.05-24a15.08,15.08,0,0,0-3.34-10.12A29.35,29.35,0,0,0,512.18,234,33.71,33.71,0,0,1,509,232.5c.08-.52.13-.83.2-1.32h4.24l3.22-1.22L675.47,388.8c-5.24.46-10.61,2.87-16.41,3.2-1.68,2.08-4.26.48-6.36,1.59s-4.57,1-6.9,1.4a59.54,59.54,0,0,0-6.57,1.05c-6.35,1.83-12.9,2.7-19.31,4.16-3.91.9-8,1.12-11.85,2.67-1.94.78-4.33.52-6.56,1-7.07,1.52-14.14,3.06-21.29,4.28-3,.51-6,1.7-9.05,2.22-2.3.38-4.52,1.21-6.82,1.6-3.09.52-6.13,1.27-9.19,1.9a62,62,0,0,0-8.7,2c-1.82.64-4,.59-6.05,1.08-4,.95-8.13,1.22-12.13,2.13s-8,1.21-11.82,2.83c-1.63.69-3.68.33-5.58,1-2.35.83-5.32.18-7.46,1.28-2.39,1.24-4.92.76-7.34,1.59a78.59,78.59,0,0,1-8.23,1.86c-2.78.62-5.66.78-8.42,1.43-3.54.84-7.2,1.24-10.62,2.18s-7.24.62-10.32,2.78c-4.2-.23-8.13,1.3-12.15,2.08-5.52,1.06-11.14,1.77-16.49,3.61-2,.67-4.26-.42-6,1.31-6,.28-11.8,2.23-17.73,3.19-3,.47-6,1.61-9,2.2-2.29.44-4.54,1.15-6.83,1.59s-4.77.49-7.07,1.08a63.19,63.19,0,0,0-6.75,1.75,32.28,32.28,0,0,1-6,1.06c-3.43.55-6.74,1.72-10.16,2.05s-6.79,1.34-10.18,1.94c-2.8.49-5.53,1.14-8.29,1.78s-5.66.75-8.43,1.4c-3.54.83-7.2,1.24-10.62,2.18s-7.24.62-10.32,2.78c-4.19-.19-8.13,1.29-12.15,2.08-5.51,1.08-11.11,1.84-16.5,3.57a47.27,47.27,0,0,1-6.94,1.34c-2.52.39-5.41,0-7.49,1.18-2.26,1.25-4.7.14-6.88,1.63-1.4,1-3.66,0-5.53,1.1-1.41.82-3.32.89-5,1.07a41.23,41.23,0,0,0-5.54,1.19c-5.61,1.35-11.48,1.46-16.93,3.73-1.63.68-3.7.62-5.56.95-3.57.63-7.08,1.67-10.65,2.07s-6.8,1.35-10.19,1.95c-2.8.49-5.52,1.17-8.27,1.81s-5.68.73-8.45,1.37c-3.53.83-7.2,1.24-10.62,2.18s-7.23.62-10.31,2.78c-4.2-.18-8.14,1.29-12.16,2.09-5.5,1.09-11.15,1.65-16.47,3.64-1.92.72-4.25-.42-6,1.27-6,.25-11.78,2.28-17.72,3.18-4.76.73-9.4,2.42-14.28,2.87a9.08,9.08,0,0,0-2.72,1.12L-62.77,349.31-4.38,337.2c-.21,2.76-.56,5.42-.59,8.09-.08,7.5.1,15-.08,22.5A15.58,15.58,0,0,0-.86,378.55a28.72,28.72,0,0,0,7.09,5.64,52.13,52.13,0,0,0,11,4.83A96.85,96.85,0,0,0,31,392.2c5.26.93,10.42.6,15.62.77a55,55,0,0,0,15.62-2.15c4.56-1.19,9.38-2,13.51-4.78,3.15-2.1,6.56-3.72,9.33-6.49a15.91,15.91,0,0,0,4.94-12c-.05-8.17-.14-16.33,0-24.5.1-4.08-1.6-7.36-3.92-10.35-2.94-3.8-8-6.84-13.35-8.74A17.84,17.84,0,0,1,70,322.41Zm152,83.84c0,4,.17,8,0,12-.27,4.82,1.71,8.63,4.81,12,4.6,5,10.67,7.57,16.93,9.75,1.48.51,3.08.78,4.51,1.21s3,.26,4.07.92a6.57,6.57,0,0,0,4.65.82c1.74-.22,3,1,4.58,1.05,3.33,0,6.67.13,10,0s6.54.86,9.58-1c4.08.48,7.8-1.1,11.66-2a42.09,42.09,0,0,0,20.89-11.1A14.08,14.08,0,0,0,318,419.73c.12-8.82.06-17.65,0-26.47a12.14,12.14,0,0,0-.7-3.68c-1.64-5-5-8.3-9.24-11.12-3.52-2.34-7.44-3.74-11.24-5.44-1-.44-2.06-.66-3.07-1-2.3-.82-4.78-.67-7-1.2a45.76,45.76,0,0,0-4.63-.81c-1.71-.23-3.41-1-5.08-.92-6.19.3-12.38-.7-18.6.78-3.48.83-7.1,1.32-10.63,2.13-8.11,1.86-15.4,5.14-21.39,11.11A14.48,14.48,0,0,0,222,393.77C222,397.93,222,402.09,222,406.25Zm388-59.76c0-4.5-.11-9,0-13.48a10.17,10.17,0,0,0-1.56-5.85,27.27,27.27,0,0,0-9.44-9.32c-3.54-2-7.36-3.22-10.88-5.14a11.3,11.3,0,0,0-2.2-.7,25.74,25.74,0,0,0-3.59-1c-1.3-.19-3,.42-3.87-.23-1.42-1.15-2.82-.55-4.2-.82s-3.08-1-4.58-.93c-6,.38-12.12-1.14-18.08.9-1.61.55-3.37-.29-5.17.84-1.46.91-3.83-.26-5.47,1.2-4.42-.06-8,2.4-11.79,4.09a30.64,30.64,0,0,0-10.41,7.5,13.62,13.62,0,0,0-3.75,8.94c-.18,9.32,0,18.64-.09,28a11.23,11.23,0,0,0,1.52,5.36c3,5.75,8.5,8.84,13.86,12,2.36-.2,4.07,1.48,6.06,2.26s4.48.22,6.2,1.89c5.24.49,10.35,2.05,15.66,2,3.49,0,7,0,10.48,0a7.07,7.07,0,0,0,2.48,0c4.26-1.77,8.9-1.56,13.31-2.77,5.85-1.61,16.3-6.28,20.61-10.7a16,16,0,0,0,4.86-12C610,354.48,610,350.48,610,346.49ZM464,376.86c0-4.67,0-9.33,0-14,0-2.46-1-4.48-2.17-6.6-2.87-5.4-7.82-8.44-13-10.68-3.32-1.44-6.43-4-10.45-3.71-1.65-1.71-4.16,0-5.53-1-2.25-1.68-4.68-.46-7-1.3s-5.15-.5-7.76-.56-5.32,0-8,0c-.83,0-2-.35-2.43.07-1.28,1.19-2.74.75-4.14,1s-3,.8-4.59.93a38.23,38.23,0,0,0-7.25,1.79,50.58,50.58,0,0,0-13,6c-5.92,3.76-9.85,8.47-9.71,15.92.14,8,.15,16,0,24-.09,4.63,1.8,8.25,4.73,11.55a24.05,24.05,0,0,0,7.25,5.38,140.66,140.66,0,0,0,13.2,5.54c4.5,1.58,9.22,2,13.8,2.7a56.13,56.13,0,0,0,16.92,0,121,121,0,0,0,13.33-2.59c8-2.24,15.36-5.27,21.37-11.2A14.52,14.52,0,0,0,464,389.34C464,385.18,464,381,464,376.86ZM171,436.74c0-4-.17-8,0-12,.27-5-1.84-8.93-5.16-12.36-4.22-4.37-13.29-8.85-19.62-10.52-2.24-.6-4.74-.13-6.52-1.06-2.16-1.11-4.51.07-6.08-1-2.12-1.39-4.16-.85-6.17-.79-5,.15-10-.49-15.11.76-3.47.85-7.09,1.33-10.62,2.14-8.11,1.86-15.41,5.14-21.39,11.11A14.44,14.44,0,0,0,76,423.77c0,8.16.16,16.32-.06,24.47a16.43,16.43,0,0,0,4.83,12c4.6,5,10.67,7.57,16.93,9.75,1.48.51,3.08.78,4.51,1.21s3,.26,4.07.92a6.58,6.58,0,0,0,4.65.82c1.74-.22,3,1,4.58,1.05,3.17,0,6.34.13,9.49,0s6.21.81,9.08-1c4.08.48,7.8-1.11,11.66-2a42.43,42.43,0,0,0,20.54-10.74A15.09,15.09,0,0,0,171,448.73C171,444.74,171,440.74,171,436.74Z" transform="translate(69 -226.99)"/><path class="cls-2" d="M677.83,440.8a60.36,60.36,0,0,1-8.78,2.27c-3.7.57-7.29,1.73-11,2.4-2.14.39-4.23,1.07-6.37,1.51a33.3,33.3,0,0,1-6.08,1c-2.27,0-4.23,1.75-6.58,1.06-1.56,1.61-4.17.23-5.67,2-4.2-.18-8.14,1.29-12.15,2.09-5.5,1.11-11.16,1.61-16.47,3.65-1.91.74-4,.48-6,1a66.75,66.75,0,0,1-8.79,1.79,53.46,53.46,0,0,0-8.85,1.62c-5.24,1.65-10.66,2.39-16,3.59-4.1.93-8.39,1.65-12.58,2.4a64,64,0,0,0-10.88,2.61c-1.91.7-4,.23-6.06,1.06-2.43,1-5.37.6-8,1.2-3.37.77-6.81,1.27-10.1,2.19-1.22.34-2.43.54-3.66.78s-2.38.75-3.59,1c-2.35.41-5.09.07-7,1.18-2.23,1.31-5-.22-6.76,1.84-4.27-.59-8,1.72-12.15,2.18a40.79,40.79,0,0,0-8.69,1.83c-2.67.93-5.68.39-8.17,2-4.26-.58-8,1.82-12.15,2.19-1.8.17-4.22.05-5.49,1-2,1.45-4.22-.05-6,1.43-1.53,1.28-4-.64-5.4,1.41-4.26-.57-8,1.82-12.15,2.19-1.79.17-4.22.05-5.48,1-2,1.44-4.23-.06-6,1.42-1.52,1.29-4-.64-5.4,1.41-5.62-.1-10.67,2.64-16.23,3.21A99.88,99.88,0,0,0,383,501.94c-3.37.72-6.69,1.69-10.11,2.28a51.63,51.63,0,0,0-7.75,1.67c-2.52.85-5.49.35-8,1.2-5.2,1.74-10.86,1.48-15.87,3.91-4.36-.2-8.5,1.25-12.63,2.17-5.31,1.18-10.85,1.45-16,3.6-1.87.78-4,.51-6,1a71.39,71.39,0,0,1-8.77,1.81,61.9,61.9,0,0,0-8.88,1.61c-3.58,1-7.33,1.31-10.85,2.69-1.83.71-4.21-.43-6,1.1-4.36-.18-8.38,1.65-12.66,2.13-3,.34-5.9,1.88-9.1,2.13-2.28.18-4.52,1.67-6.75,1.6-2.68-.09-5,1-7.57,1.26-2.24.24-4.58,1.45-6.71,1.68-4.29.46-8.45,1.52-12.62,2.34-7.5,1.48-15.23,2.05-22.45,4.86-4.36-.19-8.5,1.26-12.63,2.17-5.31,1.18-10.84,1.51-16,3.62-1.86.76-4,.52-6,1a78.39,78.39,0,0,1-8.77,1.82A47.2,47.2,0,0,0,142,551.2c-5.23,1.74-10.67,2.37-16,3.58-4.1.93-8.4,1.62-12.58,2.41a61.42,61.42,0,0,0-10.86,2.65c-1.85.72-4,.63-6.06.91-.71-3.8-.94-35.83-.3-49.66,2.63-.68,5.31-1.46,8-2.07,2-.45,4-.7,6.08-1,2.19-.34,4.74-.09,6.49-1.16s4.32.1,5.76-1.84c4.2.19,8.13-1.28,12.16-2.08,5.51-1.09,11.14-1.72,16.47-3.63,1.95-.69,4.26.43,6-1.29,6-.32,11.88-2,17.7-3.23,5.29-1.15,10.73-1.88,15.92-3.68,2.51-.87,5.38-.64,8-1.12,3.69-.67,7.49-1.16,11-2.46,2.12-.79,4.64.51,6.36-1.51,6-.3,11.71-2.77,17.76-3,3.33-1.92,7.25-1.57,10.82-2.81,2.09-.73,4.68-.55,7-1.14s5.07-.1,7-1.21c2.23-1.3,5,.24,6.76-1.84,4.43.61,8.26-2.31,12.67-2.07a12.53,12.53,0,0,0,5.06-1c3-1.16,6.19-1.19,9.16-2.06,3.6-1.05,7.35-1.38,10.89-2.65,1.92-.7,4,0,6-1.12,1.7-.93,4-.8,6-1.12,2.19-.34,4.68-.13,6.5-1.15s4.28,0,5.75-1.85c4.37.26,8.47-1.34,12.64-2.15,5.81-1.13,11.88-1.27,17.37-3.85,4.2.18,8.13-1.29,12.15-2.09,5.51-1.1,11.13-1.71,16.49-3.6a33.14,33.14,0,0,1,6.46-1.28c1.72-.24,3.42.13,5.14-.93,1.24-.76,3,.28,4.63-.92,1.3-1,3.27-.24,5.08-.91a25.24,25.24,0,0,1,6.49-1.22c4-.32,7.56-2.38,11.6-2.21,1.7-1.88,4.24-.36,6.33-1.69,1.71-1.09,4.4-.5,6.46-1.22,3.56-1.25,7.34-1.42,10.87-2.71,1.92-.7,4,0,6.06-1.1,1.72-.91,4-1,6-1.06,2.27-.07,4.24-1.74,6.59-1.06,1.55-1.61,4.16-.24,5.67-2,4.36.25,8.43-1.45,12.64-2.16,3.63-.62,7.46-.86,10.91-2.52,1.86-.89,4.25.39,6-1.32,6-.3,11.7-2.78,17.75-3,3.33-1.92,7.25-1.57,10.82-2.81,2.09-.74,4.68-.55,7-1.14s5.07-.1,7-1.21c2.23-1.29,5,.22,6.76-1.84,4.27.59,8-1.72,12.15-2.18a40.31,40.31,0,0,0,8.69-1.83c2.66-.92,5.68-.39,8.17-2,4.26.58,8-1.85,12.16-2.13,2.89-.19,5.69-1.52,8.66-2,2.73-.43,5.7-.27,8.19-1.88,4.26.57,8-1.77,12.16-2.14a61.75,61.75,0,0,0,10.62-2.08c3.42-.94,7.23-.62,10.31-2.78,4.2.18,8.14-1.29,12.15-2.09,5.51-1.1,11.14-1.7,16.49-3.6a29.79,29.79,0,0,1,5.57-.86Z" transform="translate(69 -226.99)"/><path class="cls-3" d="M-65.84,398.92V352.39L92.84,511.07v46.54Z" transform="translate(69 -226.99)"/><path class="cls-1" d="M438,247.34c3.32-2.58,5.54-5.84,9-8,3.89-2.42,8.15-3.71,12.31-5.3,2.17-.82,4.6-.94,6.79-1.7s4.91.47,6.93-1.35h17c2,1.56,4.39.66,6.56,1.06a49.62,49.62,0,0,1,6.18,1.94c2.05.67,4.07,1.49,6.17,2,4.21.95,7.69,3.33,11.13,5.67a14.94,14.94,0,0,1,5.81,9c.85,3.61-.64,7.22-3.13,10.08-3.5,4-8.27,6.16-13,8.29-3.84,1.71-8,2.32-11.94,3.73a4,4,0,0,1-.89.24c-3.69.35-7.38.81-11.08,1s-7.74.55-11.46-.09c-4.48-.78-9.07-.87-13.45-2.42-4.21-1.5-8.62-2.53-12.53-4.71-3.55-2-7.13-4-9.16-8-1.62-3.18-3.33-6.12-1.21-9.69C438.19,248.72,438,248.1,438,247.34Z" transform="translate(69 -226.99)"/><path class="cls-1" d="M292.15,277.27c3.06-2.53,5.46-5.87,9-8.08,3.89-2.4,8.15-3.72,12.38-5.1,2.19-.72,4.53-1,6.72-1.87s4.31.09,6.58-1c1.88-.93,4.57-.19,6.9-.19,3,0,6-.32,9,.07,6.5.85,13,1.91,19.16,4.33a52.62,52.62,0,0,1,10.75,5.48,14.87,14.87,0,0,1,6.36,8.4c1.16,4,.41,8.48-2.11,11.31-3.57,4-8.26,6.26-13,8.38-2,.87-4.13,1.26-6.14,2.06s-4.36.53-6.21,1.89c-.22.16-.64.05-1,.08-3.69.33-7.38.8-11.08,1s-7.42.59-11-.09c-4.75-.92-9.63-.89-14.32-2.72-4.3-1.67-8.74-2.9-12.9-5.07-3.81-2-7.11-4.47-8.86-8.28-1.1-2.39-2.74-5.16-.75-8.09A6.42,6.42,0,0,0,292.15,277.27Z" transform="translate(69 -226.99)"/><path class="cls-1" d="M145,307.45c3.05-2.45,5.4-5.77,8.93-8.07,3.86-2.5,8.18-3.62,12.31-5.32,2.13-.87,4.63-.86,6.79-1.68s4.62-.35,7-1.15c2.84-1,6.27-.45,9.41-.17s6.25-1.24,9.09.92c.21.16.65,0,1,0,5.39-.53,10.19,1.85,15.15,3.26A42.25,42.25,0,0,1,226.25,301a16.19,16.19,0,0,1,6.59,9.58c.92,3.58-.65,7.18-3.06,10.11-3.32,4-8.19,5.78-12.53,8.3-2.55-.41-4.19,1.86-6.64,2.19-2,.27-4.44.19-6.2,1.8-.09.08-.32,0-.49,0-3.86.33-7.71.8-11.57,1s-7.76.58-11.46-.1c-4.31-.8-8.78-.8-13-2.39-4-1.54-8.37-2.3-12.12-4.51-3.48-2-7-3.88-9.31-7.73-2.13-3.55-3.28-6.7-1.52-10.57A3.56,3.56,0,0,0,145,307.45Z" transform="translate(69 -226.99)"/><path class="cls-1" d="M42.08,364.25c-5-.42-10.17-.23-15-1.39-7.95-1.88-15.86-4.28-22.69-9.05a16.86,16.86,0,0,1-6.24-9.35,8.58,8.58,0,0,1,2.36-8.4c2.4-2.41,4.68-4.92,7.63-6.82,4-2.57,8.47-3.69,12.82-5.25,4.14-1.49,8.58-1.58,12.78-2.89,1.82-.57,4-.1,6-.1,3.33,0,6.71-.34,10,.07a84.41,84.41,0,0,1,19.19,4.27A50.61,50.61,0,0,1,80,331c3,2.05,4.69,4.83,6.1,8.17,2,4.74,0,8.3-2.55,11.68-2.44,3.2-6,5.11-9.67,6.72a67.64,67.64,0,0,1-19.69,5.62C50.15,363.65,46.15,363.89,42.08,364.25Z" transform="translate(69 -226.99)"/><path class="cls-2" d="M437,262.29c3,3.6,7.08,5.63,10.84,7.54a66.92,66.92,0,0,0,11.67,4.36,128.54,128.54,0,0,0,13.81,2.62,56.54,56.54,0,0,0,15.43.08,89.49,89.49,0,0,0,20.15-4.29,39.94,39.94,0,0,0,16.89-10.93c.46,6.74.06,13.15.21,18.38a16.15,16.15,0,0,1-6.56,9.87c-2.44,1.82-5.45,2.87-8.17,4.32a45.41,45.41,0,0,1-14.52,4.57,106.52,106.52,0,0,1-16.52,1.34,110.18,110.18,0,0,1-14-1.36c-4-.53-8-2.34-11.91-3.6a38.62,38.62,0,0,1-10.72-5.37A14.82,14.82,0,0,1,437,277.17C437.08,272.21,437,267.25,437,262.29Z" transform="translate(69 -226.99)"/><path class="cls-2" d="M291,291c3.55,4.91,7.64,7.12,11.78,9.18a64,64,0,0,0,14,4.8,87.71,87.71,0,0,0,12.66,1.89,63.55,63.55,0,0,0,13.44-.05c3-.37,6-.56,8.95-1.22s5.64-1.64,8.47-2.41a33.14,33.14,0,0,0,8.2-3.11c4-2.3,8.06-4.45,11.52-8.86,0,7.05.41,13.35-.16,19.56-.33,3.66-3,6.78-6.13,8.84a66.68,66.68,0,0,1-10.66,5.51c-3.75,1.62-7.82,1.93-11.45,3.71a2.85,2.85,0,0,1-.94.12c-3.69.33-7.37.8-11.07,1a84.27,84.27,0,0,1-11.46,0c-2.35-.22-4.71-.7-7.06-1.05a19.37,19.37,0,0,1-6.73-1.77c-2-1.08-4.44-1.29-6.59-2.13s-4.16-2-6.26-2.95c-4.81-2.19-8.43-5.43-9.76-10.77a10.49,10.49,0,0,1-.7-2.19C291,303.43,291,297.82,291,291Z" transform="translate(69 -226.99)"/><path class="cls-2" d="M233,320.89c0,7.46.44,13.77-.17,20-.35,3.63-3.15,6.58-6.11,8.87-4,3.08-14.28,7.19-19.52,8.3a103.07,103.07,0,0,1-12.66,1.87,78.57,78.57,0,0,1-13.46,0c-2.34-.2-4.69-.73-7.06-1a20.42,20.42,0,0,1-6.71-1.8c-2.05-1-4.45-1.28-6.61-2.12s-4.12-2.08-6.27-2.93a17.9,17.9,0,0,1-9-8.15,9.76,9.76,0,0,1-1.39-4.38c-.15-5.77-.06-11.56-.06-18.35,2.95,4.33,6.61,6.36,10.14,8.34a43,43,0,0,0,11.6,4.47c4,.89,7.89,2.62,12.14,2,6.08,2.18,12.38.46,18.55,1,2.39-1.31,5.12-.52,7.53-1.13s4.81-1.19,7.19-1.87,5-.94,7.11-2.08c4.12-2.22,8.53-4.08,11.85-7.55C230.89,323.56,231.56,322.64,233,320.89Z" transform="translate(69 -226.99)"/><path class="cls-2" d="M86.88,352.26v19.52a45,45,0,0,1-3.9,5.65c-3.32,3.7-7.87,5.57-12.3,7.58-3.82,1.74-8,2.33-11.93,3.73a3.47,3.47,0,0,1-.89.25c-3.68.35-7.37.81-11.06,1s-7.76.61-11.45-.1C30.76,389,26,389,21.51,387.22c-4.14-1.62-8.58-2.52-12.51-4.74-3.44-1.94-6.72-3.94-8.82-7.62a13.9,13.9,0,0,1-2.09-6.11C-2.17,363.29-2,357.82-2,351.5l2.62,2.62c2.45,2.44,7.62,4.83,11.55,7,4.6,2.56,9.87,2.63,14.47,4.87,3.45-.66,6.67,1.05,10.06,1s7,.12,10.48-.05a53.46,53.46,0,0,0,10-1c6.44-1.56,13.16-2.58,18.93-6C79.82,357.73,83.94,355.91,86.88,352.26Z" transform="translate(69 -226.99)"/><path d="M222,406.25c0-4.16,0-8.32,0-12.48a14.48,14.48,0,0,1,4.37-10.69c6-6,13.28-9.25,21.39-11.11,3.53-.81,7.15-1.3,10.63-2.13,6.22-1.48,12.41-.48,18.6-.78,1.67-.08,3.37.69,5.08.92a45.76,45.76,0,0,1,4.63.81c2.25.53,4.73.38,7,1.2,1,.37,2.09.59,3.07,1,3.8,1.7,7.72,3.1,11.24,5.44,4.23,2.82,7.6,6.08,9.24,11.12a12.14,12.14,0,0,1,.7,3.68c0,8.82.1,17.65,0,26.47a14.08,14.08,0,0,1-4.33,10.19A42.09,42.09,0,0,1,292.74,441c-3.86.88-7.58,2.46-11.66,2-3,1.83-6.38.82-9.58,1s-6.66.06-10,0c-1.58,0-2.84-1.27-4.58-1.05a6.57,6.57,0,0,1-4.65-.82c-1-.66-2.68-.51-4.07-.92s-3-.7-4.51-1.21c-6.26-2.18-12.33-4.72-16.93-9.75-3.1-3.37-5.08-7.18-4.81-12C222.17,414.25,222,410.25,222,406.25Zm4-17.86c0,.71.28,1.59,0,2-2.44,3-.6,5.95.57,8.48,1.75,3.81,5.11,6.18,8.88,8.22a66.3,66.3,0,0,0,29.2,7.82,92.88,92.88,0,0,0,17.6-.7,75.53,75.53,0,0,0,19.69-5.64c3.78-1.68,7.43-3.77,10-7.07,2.28-2.9,3.86-6.36,2.85-10.11a14.86,14.86,0,0,0-5.61-8.6c-3.43-2.35-6.9-4.68-11.06-5.85-3.88-1.09-7.5-3.17-11.71-3-1.46-1.72-3.6-.2-5.08-1-1.87-1-3.72-.9-5.63-.91-3.16,0-6.32,0-9.49,0-1.83,0-4.1-.68-5.39.15-2.21,1.42-4.47.31-6.58,1.08S250,374.33,248,375c-4.38,1.46-8.81,2.69-12.83,5.22C231.56,382.48,229.18,385.83,226,388.39Zm-1,13.45c0,7.06-.09,12.84.06,18.61a10,10,0,0,0,1.36,4.4,21.21,21.21,0,0,0,8.93,8.22,67.25,67.25,0,0,0,29.17,7.84,89.09,89.09,0,0,0,18.07-.71,76.12,76.12,0,0,0,12-2.56,48.24,48.24,0,0,0,13.7-6.64c3.28-2.45,6.21-5.53,6.58-9.57.55-6.06.14-12.2.14-18.4-2.52,2-4.69,3.85-7,5.45a37.74,37.74,0,0,1-7.24,4.19,78.61,78.61,0,0,1-11.1,3.28,104.1,104.1,0,0,1-12.14,2,65.2,65.2,0,0,1-9.48,0c-3-.15-6.2.81-9.07-1-4.25.58-8.17-1-12.12-2.07s-7.89-2.07-11.24-4.1C232,408.66,227.94,406.78,225,401.84Z" transform="translate(69 -226.99)"/><path d="M610,346.49c0,4,0,8,0,12a16,16,0,0,1-4.86,12c-4.31,4.42-14.76,9.09-20.61,10.7-4.41,1.21-9,1-13.31,2.77a7.07,7.07,0,0,1-2.48,0c-3.49,0-7,0-10.48,0-5.31,0-10.42-1.52-15.66-2-1.72-1.67-4.16-1.09-6.2-1.89s-3.7-2.46-6.06-2.26c-5.36-3.15-10.84-6.24-13.86-12A11.23,11.23,0,0,1,515,360.5c.07-9.33-.09-18.65.09-28a13.62,13.62,0,0,1,3.75-8.94,30.64,30.64,0,0,1,10.41-7.5c3.78-1.69,7.37-4.15,11.79-4.09,1.64-1.46,4-.29,5.47-1.2,1.8-1.13,3.56-.29,5.17-.84,6-2,12.06-.52,18.08-.9,1.5-.09,3,.64,4.58.93s2.78-.33,4.2.82c.82.65,2.57,0,3.87.23a25.74,25.74,0,0,1,3.59,1,11.3,11.3,0,0,1,2.2.7c3.52,1.92,7.34,3.15,10.88,5.14a27.27,27.27,0,0,1,9.44,9.32,10.17,10.17,0,0,1,1.56,5.85C609.89,337.49,610,342,610,346.49Zm-91-18.12c0,.83.27,1.71-.05,2.12-1.57,1.95-.85,3.69-.24,5.82,1.53,5.35,5.27,8.22,9.83,10.81,8.33,4.74,17.44,6.61,26.72,7.79a61.79,61.79,0,0,0,13,0,90.66,90.66,0,0,0,12.18-1.82A62.17,62.17,0,0,0,596.86,347c2.68-1.47,5.37-3.06,7.15-5.58,2.11-3,3.82-6.34,2.7-10.12a16.49,16.49,0,0,0-5.61-8.63c-5.76-4.39-12.56-6.63-19.39-8.6A67,67,0,0,0,571,312.18c-5.58-.66-11.3-.18-17-.18-2,1.8-4.67.56-6.94,1.31s-4.62.9-6.78,1.74c-4.15,1.61-8.46,2.78-12.32,5.26C524.64,322.49,522.32,325.66,519,328.37Zm-1,13.47c0,7.06-.09,12.84.06,18.61a10,10,0,0,0,1.35,4.39,21.25,21.25,0,0,0,8.94,8.23,67.67,67.67,0,0,0,29.17,7.84,84.34,84.34,0,0,0,17.07-.71,73.71,73.71,0,0,0,12-2.56,48.24,48.24,0,0,0,13.7-6.64c3.28-2.45,6.21-5.53,6.58-9.57.55-6.06.14-12.2.14-19.12-4.14,5.25-9.27,7.83-14.3,10.32-3.41,1.69-7.32,2.47-11.08,3.32-4,.9-8.09,1.95-12.13,1.92-5.85-.05-11.81,1.34-17.56-.87-4.25.58-8.17-1-12.12-2.07s-7.89-2.07-11.24-4.1C525,348.66,520.94,346.78,518,341.84Z" transform="translate(69 -226.99)"/><path d="M464,376.86c0,4.16,0,8.32,0,12.48A14.52,14.52,0,0,1,459.55,400c-6,5.93-13.33,9-21.37,11.2a121,121,0,0,1-13.33,2.59,56.13,56.13,0,0,1-16.92,0c-4.58-.68-9.3-1.12-13.8-2.7a140.66,140.66,0,0,1-13.2-5.54,24.05,24.05,0,0,1-7.25-5.38c-2.93-3.3-4.82-6.92-4.73-11.55.17-8,.16-16,0-24-.14-7.45,3.79-12.16,9.71-15.92a50.58,50.58,0,0,1,13-6A38.23,38.23,0,0,1,399,341c1.55-.13,3.05-.71,4.59-.93s2.86.23,4.14-1c.44-.42,1.6-.07,2.43-.07,2.67,0,5.33-.05,8,0s5.42-.3,7.76.56,4.74-.38,7,1.3c1.37,1,3.88-.71,5.53,1,4-.34,7.13,2.27,10.45,3.71,5.19,2.24,10.14,5.28,13,10.68,1.13,2.12,2.18,4.14,2.17,6.6C464,367.53,464,372.19,464,376.86Zm-91-18.51c0,.82.28,1.72-.05,2.11-1.62,2-.89,3.7-.28,5.83,1.54,5.32,5.26,8.22,9.82,10.81,8.34,4.74,17.42,6.89,26.72,7.75,7.18.66,13.4.68,25.14-1.79A59.55,59.55,0,0,0,450.83,377c2.69-1.47,5.35-3.07,7.16-5.56,2.16-3,3.82-6.35,2.74-10.13a16.41,16.41,0,0,0-5.61-8.63c-5.75-4.4-12.55-6.65-19.39-8.61a66.69,66.69,0,0,0-10.66-1.89c-5.58-.66-11.3-.18-17-.18-2.06,1.78-4.67.58-6.95,1.3s-5,1-7.22,1.88c-4.12,1.63-8.46,2.71-12.29,5.4C378.35,352.9,376.13,356.15,373,358.35Zm-1,14.76c0,5.1,0,10.21,0,15.32,0,5.42,2.68,9.48,6.77,12.5a33.5,33.5,0,0,0,11.17,5.5c1.78.49,3.57,1,5.33,1.58a51.89,51.89,0,0,0,5.67,1.93c1.9.38,4.12-.24,5.81.48,2.14.91,4.19.52,6.24.53a110,110,0,0,0,15.58-.75,69.42,69.42,0,0,0,12-2.55A48.48,48.48,0,0,0,454.25,401c3.32-2.43,6.22-5.53,6.6-9.55.58-6.05.15-12.2.15-19.13-4.14,5.23-9.26,7.81-14.28,10.29-3.41,1.69-7.32,2.49-11.08,3.34a105.55,105.55,0,0,1-12.14,2,62.44,62.44,0,0,1-9,0c-2.87-.11-5.87.74-8.57-1-4.26.59-8.17-1-12.13-2.07s-7.9-2-11.24-4.08C379,378.65,374.91,376.82,372,373.11Z" transform="translate(69 -226.99)"/><path d="M171,436.74c0,4,0,8,0,12a15.09,15.09,0,0,1-4.73,11.55A42.43,42.43,0,0,1,145.74,471c-3.86.87-7.58,2.46-11.66,2-2.87,1.78-6,.82-9.08,1s-6.32.06-9.49,0c-1.58,0-2.84-1.27-4.58-1.05a6.58,6.58,0,0,1-4.65-.82c-1-.66-2.68-.51-4.07-.92s-3-.7-4.51-1.21c-6.26-2.18-12.33-4.72-16.93-9.75a16.43,16.43,0,0,1-4.83-12c.22-8.15,0-16.31.06-24.47a14.44,14.44,0,0,1,4.37-10.69c6-6,13.28-9.25,21.39-11.11,3.53-.81,7.15-1.29,10.62-2.14,5.08-1.25,10.09-.61,15.11-.76,2-.06,4-.6,6.17.79,1.57,1,3.92-.15,6.08,1,1.78.93,4.28.46,6.52,1.06,6.33,1.67,15.4,6.15,19.62,10.52,3.32,3.43,5.43,7.34,5.16,12.36C170.83,428.75,171,432.75,171,436.74ZM80,418.46a3.31,3.31,0,0,1,0,1.16c-1.76,3.87-.68,7.07,1.5,10.58,2,3.18,4.72,5,7.69,6.8,4,2.43,8.55,3.48,12.86,5.12,4.68,1.78,9.56,1.88,14.32,2.74,3.7.68,7.63.27,11.46.1s7.38-.62,11.07-1a4.11,4.11,0,0,0,.89-.26c3.93-1.39,8.1-2,11.94-3.72,4.78-2.1,9.43-4.36,13.06-8.27,2-2.17,2.61-4.95,3.17-7.67.44-2.15-.84-4.33-2.3-7-3.14-5.76-8.77-7.8-14.28-10a92.32,92.32,0,0,0-9.24-3A67.45,67.45,0,0,0,132,402.18c-5.58-.67-11.3-.18-17-.18-2,1.84-4.66.55-6.92,1.36s-4.64.85-6.8,1.69c-4.15,1.62-8.43,2.85-12.3,5.32C85.42,412.63,83.07,416,80,418.46Zm-1,13.68c0,6.8-.09,12.58.06,18.35a9.84,9.84,0,0,0,1.39,4.39,18,18,0,0,0,9,8.15c2.14.85,4.12,2.1,6.26,2.93s4.56,1.1,6.61,2.12a20.42,20.42,0,0,0,6.71,1.8c2.37.29,4.72.8,7.06,1a77.57,77.57,0,0,0,13.46,0A101.19,101.19,0,0,0,142.19,469c5.21-1.11,15.55-5.22,19.52-8.29,3-2.29,5.77-5.25,6.12-8.87.61-6.21.17-12.52.17-19.38-1.29,1.29-2.09,2.07-2.87,2.87-3.35,3.45-7.75,5.33-11.86,7.55-2.13,1.14-4.73,1.41-7.11,2.08s-4.8,1.27-7.19,1.87-5.14-.18-7.54,1.13c-6.17-.54-12.46,1.18-18.54-1-4.26.58-8.14-1.14-12.14-2a43.21,43.21,0,0,1-11.6-4.48C85.61,438.51,82,436.48,79,432.14Z" transform="translate(69 -226.99)"/><path class="cls-1" d="M226,388.39c3.18-2.56,5.56-5.91,9.13-8.15,4-2.53,8.45-3.76,12.83-5.22,2.06-.69,4.23-1,6.26-1.79s4.37.34,6.58-1.08c1.29-.83,3.56-.15,5.39-.15,3.17,0,6.33,0,9.49,0,1.91,0,3.76-.06,5.63.91,1.48.77,3.62-.75,5.08,1,4.21-.13,7.83,1.95,11.71,3,4.16,1.17,7.63,3.5,11.06,5.85a14.86,14.86,0,0,1,5.61,8.6c1,3.75-.57,7.21-2.85,10.11-2.59,3.3-6.24,5.39-10,7.07a75.53,75.53,0,0,1-19.69,5.64,92.88,92.88,0,0,1-17.6.7,66.3,66.3,0,0,1-29.2-7.82c-3.77-2-7.13-4.41-8.88-8.22-1.17-2.53-3-5.45-.57-8.48C226.28,390,226,389.1,226,388.39Z" transform="translate(69 -226.99)"/><path class="cls-2" d="M225,401.84c2.94,4.94,7,6.82,10.57,9,3.35,2,7.38,3.07,11.24,4.1s7.87,2.65,12.12,2.07c2.87,1.78,6,.82,9.07,1a65.2,65.2,0,0,0,9.48,0,104.1,104.1,0,0,0,12.14-2,78.61,78.61,0,0,0,11.1-3.28,37.74,37.74,0,0,0,7.24-4.19c2.35-1.6,4.52-3.48,7-5.45,0,6.2.41,12.34-.14,18.4-.37,4-3.3,7.12-6.58,9.57a48.24,48.24,0,0,1-13.7,6.64,76.12,76.12,0,0,1-12,2.56,89.09,89.09,0,0,1-18.07.71,67.25,67.25,0,0,1-29.17-7.84,21.21,21.21,0,0,1-8.93-8.22,10,10,0,0,1-1.36-4.4C224.91,414.68,225,408.9,225,401.84Z" transform="translate(69 -226.99)"/><path class="cls-1" d="M519,328.37c3.34-2.71,5.66-5.88,9.06-8.06,3.86-2.48,8.17-3.65,12.32-5.26,2.16-.84,4.57-1,6.78-1.74s4.9.49,6.94-1.31c5.66,0,11.38-.48,17,.18a67,67,0,0,1,10.67,1.88c6.83,2,13.63,4.21,19.39,8.6a16.49,16.49,0,0,1,5.61,8.63c1.12,3.78-.59,7.14-2.7,10.12-1.78,2.52-4.47,4.11-7.15,5.58a62.17,62.17,0,0,1-16.47,6.11,90.66,90.66,0,0,1-12.18,1.82,61.79,61.79,0,0,1-13,0c-9.28-1.18-18.39-3.05-26.72-7.79-4.56-2.59-8.3-5.46-9.83-10.81-.61-2.13-1.33-3.87.24-5.82C519.25,330.08,519,329.2,519,328.37Z" transform="translate(69 -226.99)"/><path class="cls-2" d="M518,341.84c2.94,4.94,7,6.82,10.57,9,3.35,2,7.38,3.07,11.24,4.1s7.87,2.65,12.12,2.07c5.75,2.21,11.71.82,17.56.87,4,0,8.13-1,12.13-1.92,3.76-.85,7.67-1.63,11.08-3.32,5-2.49,10.16-5.07,14.3-10.32,0,6.92.41,13.06-.14,19.12-.37,4-3.3,7.12-6.58,9.57a48.24,48.24,0,0,1-13.7,6.64,73.71,73.71,0,0,1-12,2.56,84.34,84.34,0,0,1-17.07.71,67.67,67.67,0,0,1-29.17-7.84,21.25,21.25,0,0,1-8.94-8.23,10,10,0,0,1-1.35-4.39C517.91,354.68,518,348.9,518,341.84Z" transform="translate(69 -226.99)"/><path class="cls-1" d="M373,358.35c3.13-2.2,5.35-5.45,8.65-7.77,3.83-2.69,8.17-3.77,12.29-5.4,2.2-.88,4.85-1.13,7.22-1.88s4.89.48,6.95-1.3c5.66,0,11.38-.48,17,.18a66.69,66.69,0,0,1,10.66,1.89c6.84,2,13.64,4.21,19.39,8.61a16.41,16.41,0,0,1,5.61,8.63c1.08,3.78-.58,7.15-2.74,10.13-1.81,2.49-4.47,4.09-7.16,5.56a59.55,59.55,0,0,1-16.48,6.06c-11.74,2.47-18,2.45-25.14,1.79-9.3-.86-18.38-3-26.72-7.75-4.56-2.59-8.28-5.49-9.82-10.81-.61-2.13-1.34-3.88.28-5.83C373.28,360.07,373,359.17,373,358.35Z" transform="translate(69 -226.99)"/><path class="cls-2" d="M372,373.11c2.91,3.71,7,5.54,10.59,7.74,3.34,2,7.39,3.06,11.24,4.08S401.7,387.59,406,387c2.7,1.71,5.7.86,8.57,1a62.44,62.44,0,0,0,9,0,105.55,105.55,0,0,0,12.14-2c3.76-.85,7.67-1.65,11.08-3.34,5-2.48,10.14-5.06,14.28-10.29,0,6.93.43,13.08-.15,19.13-.38,4-3.28,7.12-6.6,9.55a48.48,48.48,0,0,1-13.69,6.65,69.42,69.42,0,0,1-12,2.55A110,110,0,0,1,413,411c-2.05,0-4.1.38-6.24-.53-1.69-.72-3.91-.1-5.81-.48a51.89,51.89,0,0,1-5.67-1.93c-1.76-.57-3.55-1.09-5.33-1.58a33.5,33.5,0,0,1-11.17-5.5c-4.09-3-6.8-7.08-6.77-12.5C372,383.32,372,378.21,372,373.11Z" transform="translate(69 -226.99)"/><path class="cls-1" d="M80,418.46c3.07-2.49,5.42-5.83,9-8.09,3.87-2.47,8.15-3.7,12.3-5.32,2.16-.84,4.61-.91,6.8-1.69s4.9.48,6.92-1.36c5.66,0,11.38-.49,17,.18A67.45,67.45,0,0,1,142.12,404a92.32,92.32,0,0,1,9.24,3c5.51,2.22,11.14,4.26,14.28,10,1.46,2.68,2.74,4.86,2.3,7-.56,2.72-1.14,5.5-3.17,7.67-3.63,3.91-8.28,6.17-13.06,8.27-3.84,1.7-8,2.33-11.94,3.72a4.11,4.11,0,0,1-.89.26c-3.69.35-7.38.81-11.07,1s-7.76.58-11.46-.1c-4.76-.86-9.64-1-14.32-2.74-4.31-1.64-8.85-2.69-12.86-5.12-3-1.8-5.71-3.62-7.69-6.8-2.18-3.51-3.26-6.71-1.5-10.58A3.31,3.31,0,0,0,80,418.46Z" transform="translate(69 -226.99)"/><path class="cls-2" d="M79,432.14c3,4.34,6.61,6.37,10.15,8.35a43.21,43.21,0,0,0,11.6,4.48c4,.89,7.88,2.61,12.14,2,6.08,2.18,12.37.46,18.54,1,2.4-1.31,5.12-.52,7.54-1.13s4.81-1.19,7.19-1.87,5-.94,7.11-2.08c4.11-2.22,8.51-4.1,11.86-7.55.78-.8,1.58-1.58,2.87-2.87,0,6.86.44,13.17-.17,19.38-.35,3.62-3.15,6.58-6.12,8.87-4,3.07-14.31,7.18-19.52,8.29a101.19,101.19,0,0,1-12.66,1.87,77.57,77.57,0,0,1-13.46,0c-2.34-.21-4.69-.72-7.06-1a20.42,20.42,0,0,1-6.71-1.8c-2-1-4.45-1.28-6.61-2.12s-4.12-2.08-6.26-2.93a18,18,0,0,1-9-8.15,9.84,9.84,0,0,1-1.39-4.39C78.91,444.72,79,438.94,79,432.14Z" transform="translate(69 -226.99)"/></svg>