<svg id="Layer_1" data-name="Layer 1" xmlns="http://www.w3.org/2000/svg" viewBox="0 0 683.82 387.31"><defs><style>.cls-1{fill:#fff;}</style></defs><path d="M630.41,442.28v55.44c-4.16.75-8.41.91-12.13,2.41-2.27.92-4.92-.16-6.76,1.79-3.07-.18-5.92,1-8.9,1.45s-5.81,1.43-8.85,1.63a13.7,13.7,0,0,0-5.3,1.6c-1.67.89-3.52-.47-5.14.94-1.46,1.28-4-.61-5.4,1.38-5.78-.08-11.13,2.19-16.74,3.1-7,1.15-13.92,2.59-20.82,4.08-6.28,1.35-12.63,2.45-18.84,4-5.28,1.31-10.88,1.4-15.88,3.83-4.36-.18-8.4,1.59-12.66,2.13-3.72.47-7.48,1.25-11.14,2.07s-7.4.91-10.87,2.67c-1.52.77-3.66.36-5.56,1-2.36.81-5.34.16-7.46,1.28-2.39,1.26-4.92.73-7.34,1.58a75.6,75.6,0,0,1-8.23,1.87c-2.78.62-5.69.69-8.42,1.43-6.49,1.74-13.2,2.47-19.6,4.58-2.07.69-4.3.75-6.45,1.27-3,.72-6.13,1.18-9.17,2-2.85.79-5.82,1-8.7,1.91-1.9.59-4,.62-6.06,1.07-5.95,1.32-12.05,1.92-17.88,3.93-1.88.64-4,.54-6.05,1-4.71,1.14-9.55,1.7-14.26,3-2.23.62-4.72.22-7.08,1-2.07.72-4.62.26-6.48,1.23-1.63.84-3.22.38-4.63.94a41.26,41.26,0,0,1-4.1,1,109.19,109.19,0,0,1-12.37,2.58c-4,.7-8,1.73-12,2.51-6.13,1.2-12.36,1.95-18.43,3.66-2.64.75-5.51,1.17-8.27,1.78s-5.66.78-8.42,1.43c-3.54.84-7.21,1.24-10.63,2.18s-7.07.93-10.38,2.64c-1.51.79-3.67.49-5.56,1a55.59,55.59,0,0,1-5.55,1.11c-7.16,1.11-14.23,2.76-21.29,4.25-5.62,1.19-11.46,1.65-16.91,3.75-1,.39-2.31,0-3.81,0-2.27-2.33-4.67-4.86-7.13-7.32-39.71-39.72-79.09-79.77-119.28-119C43.83,442.46,24.5,423,5,403.8S-33.93,365-53.41,345.46V292.07c1.46-.65,3.14-2,4.81-2,2.18,0,4-.88,6.08-1.16a91.82,91.82,0,0,0,12.35-2.78c2-.55,4,0,6.06-1.08,1.7-.94,4-.81,6-1.13,2.19-.34,4.68-.14,6.5-1.14s4.28,0,5.75-1.86c4.37.26,8.36-1.84,12.67-2.06,2-.1,4-.81,6.69-1.4,2.37-3.27,6.26-5.95,10.33-8.18A43.68,43.68,0,0,1,35.06,265c4-.91,8.14-1.45,12.1-2.33,6.1-1.34,12.1-.35,18.13-.72,1.5-.1,3,.63,4.58.92a29.24,29.24,0,0,1,4.19.73c1.94.66,4.51,1,6.62-.37,1.68-1.08,3.61-.07,5.56-1.14,2.21-1.22,5.27-1,8-1.18,2.23-.18,4.23-1.71,6.58-1,1.53-2.05,4-.44,5.9-1.48s4.21-1.09,6.36-1.51,4.09-.53,6.07-1c3.52-.9,7.2-1.25,10.62-2.19s7.24-.62,10.32-2.78c4.2.23,8.07-1.53,12.16-2,2.2-.26,4.36-.82,7.24-1.39,2.37-3.25,6.26-5.92,10.31-8.16A44.52,44.52,0,0,1,181,235c4-.92,8.13-1.47,12.1-2.33,5.94-1.28,11.78-.68,17.63-.64A29,29,0,0,1,220,233.7a8.38,8.38,0,0,0,5.37.11c3.83-1.5,8-1.28,11.86-2.72,2.08-.77,4.67-.6,7-1.08a113.35,113.35,0,0,0,12.8-2.93c1.88-.61,4-.3,6.06-1.08s4-.73,6.05-1.08q2.79-.48,5.58-1c2-.38,3.92-1.11,6.09-1.13,1.74,0,3.44-1.23,5.2-1.79s3.68.76,5.06-1.08c4.85.27,9.28-2.23,14.28-2.06,2.6-4,6.77-6.44,10.75-8.77A43.38,43.38,0,0,1,327.36,205c4-1,8.07-1.6,12.11-2.32a67.48,67.48,0,0,1,9.13-.72c3.16-.16,6.55-.74,9.43.16s5.84-.19,8.23,1.8c2.2-.44,4.46.7,6.71-.76,1.5-1,3.61-.37,5.53-1.06,2.94-1.07,6.31-1,9.37-1.36q64.59,64.59,128.86,128.82c18.94,18.87,38.18,37.43,57.16,56.24S611.62,423.49,630.41,442.28ZM192.2,532.07c3.12-.75,6-1.52,8.89-2.12,2.17-.46,4.78-.09,6.48-1.18,2.09-1.35,4.29-.61,6.41-1.5a31.36,31.36,0,0,1,10-2.19c6.08-.37,11.75-2.49,17.72-3.35,4.75-.68,9.52-1.83,14.26-2.91,2-.46,4.32-.29,6-1.09,3.35-1.56,7-1.69,10.4-2.59S279.5,513.75,283,513c2.77-.62,5.62-.88,8.4-1.45s5.67-1,8.29-1.76c6.06-1.8,12.39-1.92,18.42-3.72,3-.88,6.15-1,9.17-2,2.07-.69,4.43-.52,6.54-1.13,2.35-.68,5-.32,7-1.1,4.71-1.8,9.85-1.43,14.48-3.69,2.58-1.25,5.95-.83,8.9-1.43s5.82-1.3,8.75-1.87c2-.38,4.23-.31,6.05-1,5.15-2,10.64-2.52,15.94-3.65,4.15-.88,8.28-2.36,12.64-2.18,6.73-2.68,14-3.38,21-4.77,5.7-1.14,11.29-3.17,17.21-3.23,3.84-2,8.26-1.54,12.29-2.88,1.42-.47,3-.55,4.57-1s3-.17,4.63-.94c1.91-.92,4.38-.61,6.5-1.19,2.35-.64,5-.37,7-1.12,4-1.47,8.3-1.47,12.35-2.73,3.88-1.2,8.09-1.32,12-2.39s8.28-1.61,12.37-2.68c3.18-.83,6.46-1.28,9.66-2.06,1.52-.37,3-.84,4.57-1.08a111.1,111.1,0,0,0,11.14-2.1c3.58-.9,7.31-1.36,10.85-2.67,2.47-.93,5.47-.4,8-1.23a50.8,50.8,0,0,1,7.71-1.69c5.47-.85,10.81-2.21,16.22-3.22,3.72-.7,7.55-1.21,11.12-2.19,4.08-1.12,8.28-1.52,12.34-2.69,5.31-1.52,10.82-2.31,16.46-3.46-14.31-14.3-28.24-28.42-42.38-42.32s-27.59-28.71-42.68-41.74L389,206.84,386,203.92l-9.72,1.64a36.8,36.8,0,0,0,4.36,2.33,28.75,28.75,0,0,1,13.56,9.38,15.28,15.28,0,0,1,3.38,10.09c-.24,8.16-.11,16.33-.06,24.5a15.4,15.4,0,0,1-4.5,11.17c-2.81,3-6.28,4.86-9.69,6.88-5.71,3.4-12.2,4.63-18.53,5.85a91.09,91.09,0,0,1-16.56,1.31,70.07,70.07,0,0,1-13.53-1.41,56.09,56.09,0,0,1-14.61-4.44c-7.61-3.71-8.91-4-12.71-7.92a16,16,0,0,1-4.93-12c.19-7.83,0-15.67.08-23.5,0-2.18.37-4.36.57-6.5l-71.58,14.23v1.05a56.23,56.23,0,0,1,9.12,4.22,25.69,25.69,0,0,1,8.24,7.8c1.37,2.06,2.56,4.05,2.58,6.44.09,9.5.18,19-.06,28.49a12.84,12.84,0,0,1-2.23,7c-4,5.32-9.7,8.7-15.75,11.28-3.25,1.39-6.82,2-10.22,3.08-3.65,1.12-7.49.95-11.21,1.87s-19-.15-23.55-.88a1.48,1.48,0,0,1-.48-.05c-4.42-2.28-9.48-2.44-14-4.75-6.8-3.46-9.37-4.25-13-8.34a15.73,15.73,0,0,1-4.45-11.16c.18-7.33,0-14.67.06-22,0-2.84-.45-5.73,1.14-8.36-24.35,4.62-48.18,9.81-72.39,14.24.55,1.77,2.22,1.94,3.31,2.34a30.38,30.38,0,0,1,13.58,9.36,15.16,15.16,0,0,1,3.42,10.08c-.22,8.16-.1,16.33-.06,24.5a15.56,15.56,0,0,1-4.8,11.54c-2.87,2.9-6.34,4.68-9.75,6.7-3.83,2.26-8.17,2.85-12.22,4.32-4.4,1.6-9,1.57-13.45,2.44-3.7.71-7.65.27-11.47.1s-7.39-.62-11.09-1a4.18,4.18,0,0,1-.92-.19c-5-1.69-10.21-2.55-15-4.8-5-2.31-9.73-5-13.06-9.39a15.75,15.75,0,0,1-3.32-10.13c.24-9.33.08-18.66.08-27.21l1-3.18-59.15,12.3c19,19,37.61,37.82,56.48,56.42s36.72,38,56.47,55.53Zm.48,53A28.83,28.83,0,0,1,196.3,584c2.51-.42,5.17-.34,7.55-1.12a72,72,0,0,1,8.68-2.05c2.89-.56,5.75-1.4,8.66-2,2.22-.48,4.6-.2,6.57-1,3.53-1.35,7.28-1.63,10.86-2.67a60.41,60.41,0,0,1,8.85-1.64,68.39,68.39,0,0,0,8.79-1.78c2-.57,4.12-.31,6-1.05,5.3-2,11-2.54,16.46-3.65,4-.8,8-2.26,12.16-2.09,5-2.41,10.58-2.79,15.88-3.75,4.49-.82,9-2.34,13.63-2.25,1.7-2,4.23-.72,6.36-1.53,3.47-1.32,7.28-1.78,11-2.44,2.67-.48,5.67-.1,8-1.21,1.93-.93,3.84-.25,5.56-1.1,4.72-2.32,10-2.55,15-3.55,4.17-.84,8.27-2.43,12.64-2.17,1.46-1.89,3.87-.74,5.76-1.85s4.3-.81,6.49-1.15c2-.32,4.33-.18,6-1.12,2-1.13,4.13-.43,6.06-1.12a72.58,72.58,0,0,1,10.88-2.59c4.18-.79,8.48-1.47,12.59-2.39,5.29-1.19,10.65-2.4,15.94-3.55,5.83-1.26,11.67-2.91,17.71-3.23,1.71-2,4.24-.72,6.36-1.52,3.48-1.3,7.29-1.78,11-2.45,2.67-.48,5.67-.1,8-1.21,1.93-.93,3.78-.38,5.57-1a65.5,65.5,0,0,1,10.88-2.61c4.19-.78,8.49-1.45,12.59-2.38,5.29-1.21,10.68-2.09,15.94-3.63,5.72-1.67,11.79-2.15,17.71-3.15,1.7-1.73,4-.62,6-1.3,5.34-1.87,11-2.55,16.48-3.62,4-.79,8-2.31,12.16-2.08,1.5-1.75,3.85-.92,5.74-1.86s4.32-.8,6.51-1.14c2-.32,4.35-.17,6-1.13,2-1.16,4.09-.52,6.05-1.13,3.89-1.2,7.92-1.81,11.87-2.75,2.83-.67,5.64-1.45,8.12-2.09V444.73c-.59.55-1,1.18-1.27,1.14-4.43-.53-8.28,2.48-12.68,2.05-2,2-4.85.6-7.25,1.84-2.13,1.1-5.11.45-7.46,1.28-1.9.67-4.11.21-5.53,1-1.89,1.14-4,.62-5.85,1.7-1.66,1-4,.8-6,1.13a43.5,43.5,0,0,0-6.07,1.06c-2.13.68-4.4.62-6.46,1.3a88.43,88.43,0,0,1-16,3.43c-4.27.57-8.23,2.78-12.65,2.21-1.43,1.95-3.87.66-5.76,1.84s-4.3.82-6.49,1.16c-2,.32-4.34.18-6,1.13-2,1.15-4.1.5-6.06,1.12-3.87,1.24-7.9,1.86-11.86,2.73-2.32.51-4.81.44-7,1.25a49.42,49.42,0,0,1-11.87,2.55c-6,.65-11.75,2.55-17.7,3.42-4.76.69-9.54,1.81-14.27,2.9-2,.47-4.23.37-6,1.06-6.64,2.53-13.71,3.12-20.54,4.61-5.66,1.23-11.25,3.38-17.21,3.23-3.86,1.91-8.2,2-12.29,2.81s-8,1.79-12,2.56c-3.59.69-7.28,1.85-10.89,2.44-4,.67-7.87,2.68-12.11,2.26-1.6,2.14-4.22.33-6.32,1.75-1.77,1.2-4.66.64-7,1.24-2.63.69-5.34.75-8,1.29-3.66.75-7.22,2.15-10.91,2.55-4.27.46-8.29,2.36-12.65,2.1-1.46,2-3.95.13-5.41,1.37-1.63,1.39-3.47.08-5.14.94a19,19,0,0,1-5.3,1.65c-2.67.49-5.51.32-8,1.15s-5.2.84-7.75,1.76-5.82.37-8.48,1.29c-2.88,1-5.82,1.29-8.69,2-4.74,1.14-9.54,1.88-14.27,3-2,.46-4.24.36-6,1.06-6.31,2.44-13.26,2.19-19.48,4.84-4.6-.71-8.63,2.35-13.17,2-2,2-4.86.56-7.26,1.84-2.11,1.12-5.22.29-7.44,1.3-2.63,1.2-5.81.1-8,2.33ZM-50.24,343.67C-3.84,389.87,42.27,436.24,89,482c33,32.3,65.36,65.22,98,97.86a11,11,0,0,0,2.4,2.14V534.28l-44-44c-14.49-14.5-28.88-29.1-43.51-43.46s-28.48-29.72-44.1-43.16Q5.66,351.53-46.48,299.38c-1.16-1.16-2.21-2.41-3.76-4.12ZM306.55,221.32c0,.67.27,1.54,0,1.94-2.38,3-.65,6,.53,8.49a16.32,16.32,0,0,0,8.92,8.19c2.13.88,4.12,2.11,6.27,2.94s4.53,1.15,6.62,2.1c2.32,1.07,4.74,2,7.18,1.83s4.66,1.17,7.09,1.13c3.66-.07,7.33.11,11-.05s7.39-.63,11.08-1c.32,0,.72.05.95-.11,1.87-1.29,4.19-1.09,6.22-1.87s4.18-1.17,6.14-2.05c4.75-2.14,9.56-4.31,13-8.44a12.08,12.08,0,0,0,2.94-10.13c-.65-3.31-4.05-6.87-7.24-9.47s-7-4.07-10.72-5.54c-6.16-2.42-12.66-3.49-19.17-4.32-3.11-.4-6.31-.07-9.48-.07-2.16,0-4.72-.73-6.39.18-2.26,1.22-4.48.26-6.58,1.05s-4.53,1.18-6.73,1.87c-4.24,1.33-8.49,2.7-12.37,5.11C312.13,215.36,309.74,218.7,306.55,221.32Zm-146,30.05c0,.75.28,1.64,0,2-1.57,2-.86,3.69-.24,5.83,1.53,5.34,5.27,8.21,9.83,10.8,8.33,4.74,17.44,6.57,26.72,7.8a65.56,65.56,0,0,0,11.47,0c3.7-.16,7.39-.62,11.08-1a3.54,3.54,0,0,0,.91-.21c3.9-1.47,8.08-2,11.93-3.76,4.91-2.2,9.78-4.45,13.41-8.6a13.6,13.6,0,0,0,2.89-7.26c.36-2.57-.89-4.77-2.19-7.06-3.23-5.71-8.85-7.72-14.29-10.08a61.41,61.41,0,0,0-6.15-2,58.38,58.38,0,0,0-6.67-2c-2.17-.41-4.57.54-6.57-1.06h-17c-2,1.81-4.67.56-6.94,1.31s-4.62.91-6.78,1.74c-4.16,1.61-8.46,2.78-12.32,5.26C166.06,245.51,163.64,248.82,160.52,251.37Zm-146,29.9c0,.82.28,1.72-.05,2.11-1.62,1.95-.89,3.7-.28,5.83,1.53,5.33,5.23,8.27,9.83,10.8,9.13,5,19,7.16,29.19,7.89,6.55.47,13.06-.27,19.57-1a5.92,5.92,0,0,0,1.41-.19c3.9-1.5,8.08-2.05,11.93-3.77,4.93-2.19,9.87-4.37,13.38-8.61,2.26-2.73,3.73-6.24,2.88-9.68A16.9,16.9,0,0,0,96,274.94c-4.48-3.22-14.12-6.48-19.59-8.2-3.42-1.08-7.1.25-10.22-1.82H49.66c-2.06,1.78-4.67.58-6.95,1.3s-5,1-7.22,1.88c-4.12,1.63-8.46,2.71-12.29,5.4C19.9,275.82,17.67,279.07,14.55,281.27Zm291-45c0,5,.05,9.94,0,14.91a14.7,14.7,0,0,0,6.66,12.6,40.38,40.38,0,0,0,10.73,5.36c3.95,1.26,7.91,3,11.92,3.6a111.85,111.85,0,0,0,17,1.34,84.62,84.62,0,0,0,13.51-1.42,55.08,55.08,0,0,0,11.94-3.54c7.19-2.95,13.83-6,17.24-14.16,0-5.76,0-12.06,0-18.37a.72.72,0,0,0-.23-.4A1.28,1.28,0,0,0,394,236c-3.9,4.66-10.2,8.23-16.59,10.54a85.43,85.43,0,0,1-20.16,4.27,57.26,57.26,0,0,1-15.42-.09c-4.58-.78-9.26-1.28-13.81-2.64a67.3,67.3,0,0,1-11.68-4.35C312.56,241.81,308.49,239.79,305.55,236.27Zm-146,29.87c0,5.62,0,11.24,0,16.86a11.12,11.12,0,0,0,.72,2.18c1.29,5.38,5,8.53,9.75,10.78,1.68.79,3.15,2,4.86,2.74a52.6,52.6,0,0,0,5.38,1.48c1.77.52,3.47,1.45,5.27,1.66s3.48,1.42,5.57,1.19c1.8-.2,3.7.81,5.57.85,8.59.19,17.16.12,25.63-1.9,5.76-1.37,15-4.72,19.6-8.09,3.16-2.3,6.08-5.34,6.46-9.17.6-6.21.16-12.51.16-19.42A34.07,34.07,0,0,1,234.91,275c-3.16,1.27-6.21,3-9.78,2.88-4.6,2.5-9.82,2.47-14.74,2.84a80.16,80.16,0,0,1-28.23-2.7,67.85,67.85,0,0,1-11.69-4.29C166.68,271.88,162.72,269.79,159.55,266.14Zm-146,30.12c0,5.47,0,10.93,0,16.4a12.51,12.51,0,0,0,.82,2.64A14.23,14.23,0,0,0,21,324.06a68.68,68.68,0,0,0,10.33,5.25c6.13,2.63,12.63,3.49,19.06,4.5,3.74.59,7.64.24,11.46.08s7.71-.63,11.57-1a3.18,3.18,0,0,0,.89-.24c3.92-1.42,8.1-2,11.93-3.73,4.42-2,9-3.9,12.3-7.58a47.17,47.17,0,0,0,4-5.83c0-6.61,0-12.77,0-18.92a.7.7,0,0,0-.22-.4A1.13,1.13,0,0,0,102,296c-4.54,5.07-10.27,8.3-16.58,10.55a90,90,0,0,1-20.16,4.27,56.28,56.28,0,0,1-14.44-.05c-4.75-.73-9.56-1.4-14.31-2.6a68.09,68.09,0,0,1-12.15-4.45C20.54,301.94,16.53,299.77,13.55,296.26Z" transform="translate(53.41 -200.74)"/><path class="cls-1" d="M192.2,532.07,65.4,405.27c-19.75-17.57-37.67-37-56.47-55.53s-37.5-37.44-56.48-56.42L11.6,281l-1,3.18c0,8.55.16,17.88-.08,27.21a15.75,15.75,0,0,0,3.32,10.13c3.33,4.41,8.11,7.08,13.06,9.39,4.8,2.25,10,3.11,15,4.8a4.18,4.18,0,0,0,.92.19c3.7.34,7.39.8,11.09,1s7.77.61,11.47-.1c4.46-.87,9-.84,13.45-2.44,4-1.47,8.39-2.06,12.22-4.32,3.41-2,6.88-3.8,9.75-6.7a15.56,15.56,0,0,0,4.8-11.54c0-8.17-.16-16.34.06-24.5a15.16,15.16,0,0,0-3.42-10.08,30.38,30.38,0,0,0-13.58-9.36c-1.09-.4-2.76-.57-3.31-2.34,24.21-4.43,48-9.62,72.39-14.24-1.59,2.63-1.13,5.52-1.14,8.36,0,7.33.12,14.67-.06,22A15.73,15.73,0,0,0,161,292.78c3.65,4.09,6.22,4.88,13,8.34,4.56,2.31,9.62,2.47,14,4.75a1.48,1.48,0,0,0,.48.05c4.54.73,19.79,1.81,23.55.88s7.56-.75,11.21-1.87c3.4-1.05,7-1.69,10.22-3.08,6.05-2.58,11.73-6,15.75-11.28a12.84,12.84,0,0,0,2.23-7c.24-9.49.15-19,.06-28.49,0-2.39-1.21-4.38-2.58-6.44a25.69,25.69,0,0,0-8.24-7.8,56.23,56.23,0,0,0-9.12-4.22v-1.05l71.58-14.23c-.2,2.14-.55,4.32-.57,6.5-.07,7.83.11,15.67-.08,23.5a16,16,0,0,0,4.93,12c3.8,3.94,5.1,4.21,12.71,7.92a56.09,56.09,0,0,0,14.61,4.44,70.07,70.07,0,0,0,13.53,1.41,91.09,91.09,0,0,0,16.56-1.31c6.33-1.22,12.82-2.45,18.53-5.85,3.41-2,6.88-3.9,9.69-6.88a15.4,15.4,0,0,0,4.5-11.17c-.05-8.17-.18-16.34.06-24.5a15.28,15.28,0,0,0-3.38-10.09,28.75,28.75,0,0,0-13.56-9.38,36.8,36.8,0,0,1-4.36-2.33l9.72-1.64,2.93,2.92L540.63,358.5c15.09,13,28.49,27.78,42.68,41.74s28.07,28,42.38,42.32c-5.64,1.15-11.15,1.94-16.46,3.46-4.06,1.17-8.26,1.57-12.34,2.69-3.57,1-7.4,1.49-11.12,2.19-5.41,1-10.75,2.37-16.22,3.22a50.8,50.8,0,0,0-7.71,1.69c-2.53.83-5.53.3-8,1.23-3.54,1.31-7.27,1.77-10.85,2.67a111.1,111.1,0,0,1-11.14,2.1c-1.59.24-3.05.71-4.57,1.08-3.2.78-6.48,1.23-9.66,2.06-4.09,1.07-8.28,1.57-12.37,2.68s-8.15,1.19-12,2.39c-4.05,1.26-8.31,1.26-12.35,2.73-2.08.75-4.69.48-7,1.12-2.12.58-4.59.27-6.5,1.19-1.61.77-3.17.48-4.63.94s-3.15.57-4.57,1c-4,1.34-8.45.89-12.29,2.88-5.92.06-11.51,2.09-17.21,3.23-7,1.39-14.24,2.09-21,4.77-4.36-.18-8.49,1.3-12.64,2.18-5.3,1.13-10.79,1.61-15.94,3.65-1.82.71-4,.64-6.05,1-2.93.57-5.83,1.27-8.75,1.87s-6.32.18-8.9,1.43c-4.63,2.26-9.77,1.89-14.48,3.69-2.06.78-4.69.42-7,1.1-2.11.61-4.47.44-6.54,1.13-3,1-6.2,1.15-9.17,2-6,1.8-12.36,1.92-18.42,3.72-2.62.78-5.51,1.19-8.29,1.76s-5.63.83-8.4,1.45c-3.54.8-7.18,1.29-10.62,2.19s-7.05,1-10.4,2.59c-1.7.8-4,.63-6,1.09-4.74,1.08-9.51,2.23-14.26,2.91-6,.86-11.64,3-17.72,3.35a31.36,31.36,0,0,0-10,2.19c-2.12.89-4.32.15-6.41,1.5-1.7,1.09-4.31.72-6.48,1.18C198.18,530.55,195.32,531.32,192.2,532.07ZM478.55,321.61c0-4.5,0-9,0-13.49a9.29,9.29,0,0,0-.76-3.67,22.78,22.78,0,0,0-8.85-10.79,69.34,69.34,0,0,0-11.63-5.73c-1-.42-2.07-.62-3.07-1-2.29-.9-5-.35-7-1.21-2.19-1-4.52.14-6.08-.91-2.28-1.54-4.48-.64-6.67-.81-3-.23-6-.06-9-.06-1.16,0-2.78-.45-3.39.14-1.35,1.3-2.8.6-4.18.87-1.54.3-3.06.65-4.58,1-2.29.52-4.58,1-6.85,1.57a43.73,43.73,0,0,0-14.22,6.56c-5.21,3.68-9.13,8.46-8.8,15.7.35,7.81.24,15.65,0,23.47-.13,4.83,1.79,8.59,4.86,12,4.46,5,10.4,7.56,16.49,9.6,4.72,1.58,9.54,3.32,14.7,3.1.5,0,1.16-.21,1.48,0,2.86,2.14,6.07.63,9.1.91s6.47.65,9.45-.08c4.57-1.11,9.25-1.43,13.81-2.74,7.5-2.16,14.36-5.15,20.14-10.53a15.52,15.52,0,0,0,5.05-12.42C478.48,329.27,478.55,325.44,478.55,321.61ZM472.16,427c3.13,2,5.32,4.07,7.9,4.8,3.73,1.05,7.28,2.6,11.08,3.52a113.34,113.34,0,0,0,15.85,2.6,63.82,63.82,0,0,0,9.48,0c3-.16,6-.78,9.08-.91s5.76-1.44,8.66-2.06a41.27,41.27,0,0,0,20.92-11,14.48,14.48,0,0,0,4.4-10.68c.05-8.32,0-16.64,0-25,.07-7-3.85-11.59-9.16-15.31A55.54,55.54,0,0,0,538,366.82c-.58-.21-1.05-.73-1.63-.88-5.35-1.3-10.87-1.68-16.26-2.9-3-.68-6.3-.24-9.46-.08a55.5,55.5,0,0,0-9.12.73c-3.83.8-7.78,1.28-11.61,2.24-7.7,1.93-14.77,5-20.57,10.66a15.29,15.29,0,0,0-4.78,11.53q0,12.74,0,25.47c0,2.79,1.09,5.07,2.48,7.48C468.56,423.72,471,425.4,472.16,427Zm-58.61,3.75c0-4.5,0-9,0-13.49a12.18,12.18,0,0,0-.5-3.28c-1.6-5.31-5.21-9-9.79-11.85-3.42-2.16-7.21-3.51-10.86-5.14-1-.44-2.06-.66-3.07-1-2.3-.82-5-.39-7-1.23-2.28-1-4.61.07-6.54-1.09-2.2-1.33-4.51-.65-6.72-.61-4.69.09-9.36-.37-14.11.76-3.48.82-7.09,1.34-10.62,2.14-8.47,1.91-16,5.42-22.1,11.8a13.06,13.06,0,0,0-3.62,9c-.2,9.16,0,18.31-.1,27.47a12.75,12.75,0,0,0,1.66,5.81c2.93,5.86,8.42,9.19,14,11.78a35.53,35.53,0,0,0,11.07,3.52c2.38.26,4.74,1.41,7.24,1.69,2.7.3,5.38.86,8.08,1A91.62,91.62,0,0,0,388.28,465c7.88-2.14,15-5.3,20.88-11.14a14.62,14.62,0,0,0,4.38-10.68C413.59,439,413.55,434.86,413.55,430.7Zm-241,29.74c0,4.5.11,9-.05,13.48a11.62,11.62,0,0,0,1.54,5.87c3,5.74,8.28,9.36,14,11.79,3.45,1.49,7,3.11,11.06,3.6,2.83.35,5.66,1.62,8.69,1.79s5.95,1.23,9.09,1c5-.36,10-.05,15.09-.88,4.36-.72,8.56-1.9,12.84-2.83,5.13-1.1,9.59-3.62,13.81-6.43,5.4-3.59,9.23-8.31,9-15.45-.22-8-.17-16,0-24,.13-7.08-3.82-11.69-9-15.45-3.89-2.8-8.39-4.57-12.82-6.37a16.51,16.51,0,0,0-1.72-.67c-5.18-1.36-10.52-2-15.77-2.82a52.27,52.27,0,0,0-16.42,0c-4.58.74-9.24,1.51-13.8,2.67-4.88,1.23-16.84,6.67-20.3,10.26A16.88,16.88,0,0,0,172.53,449C172.64,452.78,172.55,456.61,172.55,460.44Zm160-111.65c0-4.5,0-9,0-13.49a11.5,11.5,0,0,0-.45-3.31c-1.33-4.28-4.26-7.49-8.52-10.1a97.22,97.22,0,0,0-12.88-6.32,18.45,18.45,0,0,0-2.23-.65,28.39,28.39,0,0,0-3.59-1c-1.29-.19-3,.39-3.85-.27-1.75-1.38-3.69-.06-5.18-.85a10.36,10.36,0,0,0-5.62-.9c-5.53.29-11-.32-16.62.79-4.15.83-8.37,1.68-12.58,2.37-4.72.78-15.66,7.08-19.59,10.51a13.09,13.09,0,0,0-1.87,2.7,12.42,12.42,0,0,0-2,7.17c.05,8.33.16,16.66,0,25-.11,4.65,1.77,8.29,4.69,11.57,4.55,5.11,10.66,7.65,16.9,9.84,2.78,1,5.95,1.24,8.56,2.28,3.1,1.25,6.53-.42,9.25,1.77,5.5,0,11.11.67,16.46-.21a134,134,0,0,0,13.34-2.59c8.26-2.21,15.66-5.45,21.74-11.54a13.85,13.85,0,0,0,4.09-9.8C332.64,357.45,332.55,353.12,332.55,348.79Zm-146,31c0-4.5,0-9,0-13.5a12,12,0,0,0-.44-3.31c-1.32-4.25-4.27-7.51-8.53-10.09a91.34,91.34,0,0,0-12.87-6.32,19,19,0,0,0-2.23-.66,28.39,28.39,0,0,0-3.59-1c-1.29-.19-3,.39-3.86-.26-1.74-1.38-3.69-.08-5.17-.86-1.87-1-3.71-.9-5.63-.91-3.83,0-7.66,0-11.49,0-.83,0-2-.35-2.44.07-1.44,1.27-3.07.75-4.64,1s-3.4.61-5.08,1c-2,.44-4,.82-5.91,1.42a61,61,0,0,0-19.22,10.26,10.59,10.59,0,0,0-1.88,2.69,12.59,12.59,0,0,0-2,7.17c0,8.33.16,16.66,0,25-.11,4.65,1.77,8.29,4.68,11.58,4.55,5.11,10.66,7.66,16.9,9.84,2.78,1,6,1.24,8.56,2.29,3.11,1.25,6.54-.44,9.26,1.76,5.49,0,11.1.68,16.45-.21,4.42-.73,8.92-1.41,13.34-2.59,8.26-2.2,15.66-5.45,21.74-11.54a13.72,13.72,0,0,0,4.1-9.79C186.63,388.46,186.55,384.13,186.55,379.8Z" transform="translate(53.41 -200.74)"/><path class="cls-1" d="M192.68,585.09v-49.7c2.21-2.23,5.39-1.13,8-2.33,2.22-1,5.33-.18,7.44-1.3,2.4-1.28,5.25.19,7.26-1.84,4.54.35,8.57-2.71,13.17-2,6.22-2.65,13.17-2.4,19.48-4.84,1.81-.7,4-.6,6-1.06,4.73-1.08,9.53-1.82,14.27-3,2.87-.69,5.81-1,8.69-2,2.66-.92,5.84-.34,8.48-1.29s5.21-.93,7.75-1.76,5.38-.66,8-1.15a19,19,0,0,0,5.3-1.65c1.67-.86,3.51.45,5.14-.94,1.46-1.24,4,.59,5.41-1.37,4.36.26,8.38-1.64,12.65-2.1,3.69-.4,7.25-1.8,10.91-2.55,2.62-.54,5.33-.6,8-1.29,2.29-.6,5.18,0,7-1.24,2.1-1.42,4.72.39,6.32-1.75,4.24.42,8.06-1.59,12.11-2.26,3.61-.59,7.3-1.75,10.89-2.44,4-.77,8-1.79,12-2.56s8.43-.9,12.29-2.81c6,.15,11.55-2,17.21-3.23,6.83-1.49,13.9-2.08,20.54-4.61,1.81-.69,4-.59,6-1.06,4.73-1.09,9.51-2.21,14.27-2.9,5.95-.87,11.67-2.77,17.7-3.42a49.42,49.42,0,0,0,11.87-2.55c2.18-.81,4.67-.74,7-1.25,4-.87,8-1.49,11.86-2.73,2-.62,4,0,6.06-1.12,1.67-.95,4-.81,6-1.13,2.19-.34,4.75-.08,6.49-1.16s4.33.11,5.76-1.84c4.42.57,8.38-1.64,12.65-2.21a88.43,88.43,0,0,0,16-3.43c2.06-.68,4.33-.62,6.46-1.3a43.5,43.5,0,0,1,6.07-1.06c2-.33,4.34-.17,6-1.13,1.88-1.08,4-.56,5.85-1.7,1.42-.84,3.63-.38,5.53-1,2.35-.83,5.33-.18,7.46-1.28,2.4-1.24,5.24.17,7.25-1.84,4.4.43,8.25-2.58,12.68-2.05.3,0,.68-.59,1.27-1.14v50.09c-2.48.64-5.29,1.42-8.12,2.09-4,.94-8,1.55-11.87,2.75-2,.61-4,0-6.05,1.13-1.66,1-4,.81-6,1.13-2.19.34-4.62.19-6.51,1.14s-4.24.11-5.74,1.86c-4.21-.23-8.13,1.29-12.16,2.08-5.51,1.07-11.14,1.75-16.48,3.62-1.95.68-4.26-.43-6,1.3-5.92,1-12,1.48-17.71,3.15-5.26,1.54-10.65,2.42-15.94,3.63-4.1.93-8.4,1.6-12.59,2.38a65.5,65.5,0,0,0-10.88,2.61c-1.79.67-3.64.12-5.57,1-2.33,1.11-5.33.73-8,1.21-3.69.67-7.5,1.15-11,2.45-2.12.8-4.65-.5-6.36,1.52-6,.32-11.88,2-17.71,3.23-5.29,1.15-10.65,2.36-15.94,3.55-4.11.92-8.41,1.6-12.59,2.39a72.58,72.58,0,0,0-10.88,2.59c-1.93.69-4,0-6.06,1.12-1.69.94-4,.8-6,1.12-2.19.34-4.71.11-6.49,1.15s-4.3,0-5.76,1.85c-4.37-.26-8.47,1.33-12.64,2.17-5,1-10.27,1.23-15,3.55-1.72.85-3.63.17-5.56,1.1-2.32,1.11-5.32.73-8,1.21-3.7.66-7.51,1.12-11,2.44-2.13.81-4.66-.51-6.36,1.53-4.67-.09-9.14,1.43-13.63,2.25-5.3,1-10.88,1.34-15.88,3.75-4.2-.17-8.14,1.29-12.16,2.09-5.5,1.11-11.16,1.61-16.46,3.65-1.92.74-4,.48-6,1.05a68.39,68.39,0,0,1-8.79,1.78,60.41,60.41,0,0,0-8.85,1.64c-3.58,1-7.33,1.32-10.86,2.67-2,.75-4.35.47-6.57,1-2.91.63-5.77,1.47-8.66,2a72,72,0,0,0-8.68,2.05c-2.38.78-5,.7-7.55,1.12A28.83,28.83,0,0,0,192.68,585.09Z" transform="translate(53.41 -200.74)"/><path class="cls-1" d="M-50.24,343.67V295.26c1.55,1.71,2.6,3,3.76,4.12Q5.65,351.54,57.81,403.68c15.62,13.44,29.41,28.76,44.1,43.16s29,29,43.51,43.46l44,44V582a11,11,0,0,1-2.4-2.14c-32.65-32.64-65-65.56-98-97.86C42.27,436.24-3.84,389.87-50.24,343.67Z" transform="translate(53.41 -200.74)"/><path class="cls-1" d="M306.55,221.32c3.19-2.62,5.58-6,9.16-8.19,3.88-2.41,8.13-3.78,12.37-5.11,2.2-.69,4.54-1.05,6.73-1.87s4.32.17,6.58-1.05c1.67-.91,4.23-.18,6.39-.18,3.17,0,6.37-.33,9.48.07,6.51.83,13,1.9,19.17,4.32,3.76,1.47,7.48,2.89,10.72,5.54s6.59,6.16,7.24,9.47a12.08,12.08,0,0,1-2.94,10.13c-3.4,4.13-8.21,6.3-13,8.44-2,.88-4.13,1.28-6.14,2.05s-4.35.58-6.22,1.87c-.23.16-.63.08-.95.11-3.69.34-7.38.8-11.08,1s-7.32,0-11,.05c-2.43,0-4.55-1.31-7.09-1.13s-4.86-.76-7.18-1.83c-2.09-.95-4.47-1.26-6.62-2.1s-4.14-2.06-6.27-2.94a16.32,16.32,0,0,1-8.92-8.19c-1.18-2.54-2.91-5.47-.53-8.49C306.82,222.86,306.55,222,306.55,221.32Z" transform="translate(53.41 -200.74)"/><path class="cls-1" d="M160.52,251.37c3.12-2.55,5.54-5.86,9.07-8.14,3.86-2.48,8.16-3.65,12.32-5.26,2.16-.83,4.57-1,6.78-1.74s4.89.5,6.94-1.31h17c2,1.6,4.4.65,6.57,1.06a58.38,58.38,0,0,1,6.67,2,61.41,61.41,0,0,1,6.15,2c5.44,2.36,11.06,4.37,14.29,10.08,1.3,2.29,2.55,4.49,2.19,7.06a13.6,13.6,0,0,1-2.89,7.26c-3.63,4.15-8.5,6.4-13.41,8.6-3.85,1.73-8,2.29-11.93,3.76a3.54,3.54,0,0,1-.91.21c-3.69.34-7.38.8-11.08,1a65.56,65.56,0,0,1-11.47,0c-9.28-1.23-18.39-3.06-26.72-7.8-4.56-2.59-8.3-5.46-9.83-10.8-.62-2.14-1.33-3.88.24-5.83C160.8,253,160.52,252.12,160.52,251.37Z" transform="translate(53.41 -200.74)"/><path class="cls-1" d="M14.55,281.27c3.12-2.2,5.35-5.45,8.65-7.77,3.83-2.69,8.17-3.77,12.29-5.4,2.2-.87,4.85-1.13,7.22-1.88s4.89.48,6.95-1.3H66.14c3.12,2.07,6.8.74,10.22,1.82,5.47,1.72,15.11,5,19.59,8.2a16.9,16.9,0,0,1,6.46,9.73c.85,3.44-.62,6.95-2.88,9.68-3.51,4.24-8.45,6.42-13.38,8.61-3.85,1.72-8,2.27-11.93,3.77a5.92,5.92,0,0,1-1.41.19c-6.51.71-13,1.45-19.57,1C43,307.17,33.18,305,24.05,300c-4.6-2.53-8.3-5.47-9.83-10.8-.61-2.13-1.34-3.88.28-5.83C14.83,283,14.55,282.09,14.55,281.27Z" transform="translate(53.41 -200.74)"/><path class="cls-1" d="M305.55,236.27c2.94,3.52,7,5.54,10.75,7.47A67.3,67.3,0,0,0,328,248.09c4.55,1.36,9.23,1.86,13.81,2.64a57.26,57.26,0,0,0,15.42.09,85.43,85.43,0,0,0,20.16-4.27c6.39-2.31,12.69-5.88,16.59-10.54a1.28,1.28,0,0,1,.35.18.72.72,0,0,1,.23.4c0,6.31,0,12.61,0,18.37-3.41,8.13-10.05,11.21-17.24,14.16a55.08,55.08,0,0,1-11.94,3.54,84.62,84.62,0,0,1-13.51,1.42,111.85,111.85,0,0,1-17-1.34c-4-.63-8-2.34-11.92-3.6a40.38,40.38,0,0,1-10.73-5.36,14.7,14.7,0,0,1-6.66-12.6C305.6,246.21,305.55,241.24,305.55,236.27Z" transform="translate(53.41 -200.74)"/><path class="cls-1" d="M159.55,266.14c3.17,3.65,7.13,5.74,10.92,7.63a67.85,67.85,0,0,0,11.69,4.29,80.16,80.16,0,0,0,28.23,2.7c4.92-.37,10.14-.34,14.74-2.84,3.57.1,6.62-1.61,9.78-2.88a34.07,34.07,0,0,0,13.64-9.74c0,6.91.44,13.21-.16,19.42-.38,3.83-3.3,6.87-6.46,9.17-4.62,3.37-13.84,6.72-19.6,8.09-8.47,2-17,2.09-25.63,1.9-1.87,0-3.77-1.05-5.57-.85-2.09.23-3.67-1-5.57-1.19s-3.5-1.14-5.27-1.66a52.6,52.6,0,0,1-5.38-1.48c-1.71-.7-3.18-1.95-4.86-2.74-4.76-2.25-8.46-5.4-9.75-10.78a11.12,11.12,0,0,1-.72-2.18C159.52,277.38,159.55,271.76,159.55,266.14Z" transform="translate(53.41 -200.74)"/><path class="cls-1" d="M13.55,296.26c3,3.51,7,5.68,10.78,7.46a68.09,68.09,0,0,0,12.15,4.45c4.75,1.2,9.56,1.87,14.31,2.6a56.28,56.28,0,0,0,14.44.05,90,90,0,0,0,20.16-4.27c6.31-2.25,12-5.48,16.58-10.55a1.13,1.13,0,0,1,.35.21.7.7,0,0,1,.22.4c0,6.15,0,12.31,0,18.92a47.17,47.17,0,0,1-4,5.83c-3.34,3.68-7.88,5.55-12.3,7.58-3.83,1.75-8,2.31-11.93,3.73a3.18,3.18,0,0,1-.89.24c-3.86.35-7.71.81-11.57,1s-7.72.51-11.46-.08c-6.43-1-12.93-1.87-19.06-4.5A68.68,68.68,0,0,1,21,324.06a14.23,14.23,0,0,1-6.57-8.76,12.51,12.51,0,0,1-.82-2.64C13.51,307.19,13.55,301.73,13.55,296.26Z" transform="translate(53.41 -200.74)"/><path d="M478.55,321.61c0,3.83-.07,7.66,0,11.48a15.52,15.52,0,0,1-5.05,12.42c-5.78,5.38-12.64,8.37-20.14,10.53-4.56,1.31-9.24,1.63-13.81,2.74-3,.73-6.31.36-9.45.08s-6.24,1.23-9.1-.91c-.32-.24-1-.05-1.48,0-5.16.22-10-1.52-14.7-3.1-6.09-2-12-4.64-16.49-9.6-3.07-3.41-5-7.17-4.86-12,.22-7.82.33-15.66,0-23.47-.33-7.24,3.59-12,8.8-15.7a43.73,43.73,0,0,1,14.22-6.56c2.27-.58,4.56-1.05,6.85-1.57,1.52-.34,3-.69,4.58-1,1.38-.27,2.83.43,4.18-.87.61-.59,2.23-.13,3.39-.14,3,0,6-.17,9,.06,2.19.17,4.39-.73,6.67.81,1.56,1,3.89-.05,6.08.91,2,.86,4.7.31,7,1.21,1,.4,2.08.6,3.07,1a69.34,69.34,0,0,1,11.63,5.73,22.78,22.78,0,0,1,8.85,10.79,9.29,9.29,0,0,1,.76,3.67C478.58,312.62,478.55,317.11,478.55,321.61ZM387.7,303.2c-.14.88,0,1.83-.42,2.42-2,2.93-.41,5.75.75,8.07a18.66,18.66,0,0,0,8.83,8.34c4.19,2.09,8.62,3.33,12.9,5,4.69,1.87,9.58,1.79,14.33,2.72,3.53.69,7.3.26,11,.1s7.38-.63,11.07-1a9.16,9.16,0,0,0,1.33-.39,78.93,78.93,0,0,0,12-3.63c4.78-2.06,9.51-4.32,13-8.39a11.57,11.57,0,0,0,3-9.66,15.73,15.73,0,0,0-6.36-9.78,52.2,52.2,0,0,0-8.56-4.62c-3.06-1.43-6.54-1.8-9.52-3.52-6,0-11.62-2.49-17.66-2.05-3.64.27-7.44-.52-10.95.2-4.43.9-9,1.37-13.26,2.89s-8.48,2.75-12.37,5.14C393.17,297.3,390.77,300.65,387.7,303.2Zm87.69,14.9c-3.37,4.37-8.18,6.26-12.41,8.64-3.28,1.85-7.3,2.46-11,3.49a77,77,0,0,1-15.84,2.62A84.66,84.66,0,0,1,408.89,330a57.28,57.28,0,0,1-11.68-4.32c-3.69-2-7.76-3.94-10.34-7.86-.32,6.06-.4,12-.26,17.93a7.79,7.79,0,0,0,1.3,3.91c2.3,3.44,4.93,6.42,8.89,8.34,4.21,2,8.62,3.33,12.9,5,4.52,1.78,9.24,1.76,13.82,2.71,3.67.76,7.62.28,11.44.12s7.71-.64,11.57-1c.16,0,.39.07.49,0,1.76-1.57,4.17-1.06,6.19-1.93s4.58-1.06,6.59-2.13c4.29-2.26,9-4,12.18-7.92a53.24,53.24,0,0,0,3.41-5.23Z" transform="translate(53.41 -200.74)"/><path d="M472.16,427c-1.21-1.55-3.6-3.23-5.14-5.88-1.39-2.41-2.48-4.69-2.48-7.48q0-12.73,0-25.47a15.29,15.29,0,0,1,4.78-11.53c5.8-5.67,12.87-8.73,20.57-10.66,3.83-1,7.78-1.44,11.61-2.24a55.5,55.5,0,0,1,9.12-.73c3.16-.16,6.45-.6,9.46.08,5.39,1.22,10.91,1.6,16.26,2.9.58.15,1,.67,1.63.88a55.54,55.54,0,0,1,12.44,6.12c5.31,3.72,9.23,8.29,9.16,15.31-.09,8.33,0,16.65,0,25a14.48,14.48,0,0,1-4.4,10.68,41.27,41.27,0,0,1-20.92,11c-2.9.62-5.61,1.92-8.66,2.06s-6,.75-9.08.91a63.82,63.82,0,0,1-9.48,0,113.34,113.34,0,0,1-15.85-2.6c-3.8-.92-7.35-2.47-11.08-3.52C477.48,431,475.29,428.92,472.16,427Zm-3.61-44.63c0,.62.26,1.44,0,1.89-2.27,3.43-.36,6.29,1.07,9.26,1.91,3.95,5.45,6.06,9.08,8,3.95,2.15,8.37,3.12,12.53,4.72,4.54,1.75,9.28,1.67,13.89,2.56,3.53.67,7.31.26,11,.1s7.39-.63,11.07-1a8.17,8.17,0,0,0,1.34-.39,80,80,0,0,0,12-3.63c4.78-2.06,9.51-4.32,13-8.38a11.59,11.59,0,0,0,3-9.67,15.67,15.67,0,0,0-6.36-9.77,51.74,51.74,0,0,0-8.55-4.63c-3.06-1.44-6.55-1.8-9.53-3.52-5.79,0-11.28-2.42-17.15-2-3.81.24-7.78-.55-11.45.2-4.43.9-9,1.33-13.27,2.87s-8.47,2.77-12.36,5.15C474.17,376.29,471.77,379.64,468.55,382.32Zm-1,13.74c0,6.8-.09,12.58.06,18.35A9.8,9.8,0,0,0,469,418.8a18,18,0,0,0,9,8.15c2.14.85,4.12,2.1,6.26,2.93s4.56,1.1,6.61,2.12a20.42,20.42,0,0,0,6.71,1.8c2.37.29,4.72.8,7.06,1a78.57,78.57,0,0,0,13.46,0A103.1,103.1,0,0,0,530.74,433c5.21-1.1,15.54-5.22,19.52-8.29,3-2.29,5.76-5.25,6.12-8.87.61-6.21.17-12.52.17-20-1.45,1.78-2.11,2.71-2.88,3.52-3.33,3.47-7.74,5.33-11.85,7.55-2.13,1.14-4.73,1.41-7.11,2.08s-4.8,1.28-7.19,1.87-5.14-.18-7.54,1.13c-6.17-.54-12.46,1.18-18.54-1-4.26.58-8.14-1.14-12.14-2a43.21,43.21,0,0,1-11.6-4.48C474.16,402.44,470.5,400.41,467.55,396.06Z" transform="translate(53.41 -200.74)"/><path d="M413.55,430.7c0,4.16,0,8.32,0,12.48a14.62,14.62,0,0,1-4.38,10.68c-5.87,5.84-13,9-20.88,11.14a91.62,91.62,0,0,1-27.75,2.89c-2.7-.1-5.38-.66-8.08-1-2.5-.28-4.86-1.43-7.24-1.69a35.53,35.53,0,0,1-11.07-3.52c-5.54-2.59-11-5.92-14-11.78a12.75,12.75,0,0,1-1.66-5.81c.07-9.16-.1-18.31.1-27.47a13.06,13.06,0,0,1,3.62-9c6.08-6.38,13.63-9.89,22.1-11.8,3.53-.8,7.14-1.32,10.62-2.14,4.75-1.13,9.42-.67,14.11-.76,2.21,0,4.52-.72,6.72.61,1.93,1.16,4.26.11,6.54,1.09,2,.84,4.68.41,7,1.23,1,.36,2.09.58,3.07,1,3.65,1.63,7.44,3,10.86,5.14,4.58,2.89,8.19,6.54,9.79,11.85a12.18,12.18,0,0,1,.5,3.28C413.58,421.71,413.55,426.2,413.55,430.7Zm-91-18.39c0,.72.28,1.6-.05,2-2.44,3-.58,5.94.58,8.47,1.75,3.82,5.11,6.18,8.88,8.22a66.86,66.86,0,0,0,29.2,7.83,88.16,88.16,0,0,0,16.6-.71,73.91,73.91,0,0,0,19.69-5.64c3.78-1.68,7.43-3.76,10-7.07,2.28-2.9,3.86-6.36,2.85-10.11a14.83,14.83,0,0,0-5.62-8.6c-3.42-2.35-6.89-4.68-11.05-5.85-3.89-1.09-7.5-3.17-11.71-3-1.47-1.72-3.6-.2-5.09-1-1.86-1-3.71-.89-5.62-.91-2.5,0-5,0-7.49,0-2.17,0-4.74-.74-6.39.18-2.26,1.25-4.47.28-6.58,1.06s-4.2,1.09-6.26,1.78c-4.38,1.46-8.81,2.69-12.84,5.22C328.11,406.4,325.73,409.76,322.55,412.31Zm88,14.64c-2.52,2-4.68,3.84-7,5.44a37.74,37.74,0,0,1-7.24,4.19,77.34,77.34,0,0,1-11.1,3.29,104.1,104.1,0,0,1-12.14,2,63.92,63.92,0,0,1-9,0c-2.88-.12-5.88.73-8.57-1-4.26.59-8.18-1-12.13-2.07s-7.9-2.05-11.24-4.09c-3.59-2.19-7.66-4-10.27-7.87-.31,5.25-.31,10.36-.31,15.47,0,5.39,2.64,9.48,6.76,12.5a34.48,34.48,0,0,0,11.17,5.5c1.79.5,3.58,1,5.34,1.57a51.34,51.34,0,0,0,5.68,1.93c1.89.38,4.1-.23,5.8.48,2.14.91,4.19.52,6.24.53a107.25,107.25,0,0,0,15.59-.75,68.29,68.29,0,0,0,12-2.56,48.24,48.24,0,0,0,13.7-6.64c3.3-2.44,6.22-5.53,6.59-9.56C411,439.31,410.55,433.16,410.55,427Z" transform="translate(53.41 -200.74)"/><path d="M172.55,460.44c0-3.83.09-7.66,0-11.49a16.88,16.88,0,0,1,5.19-12.89c3.46-3.59,15.42-9,20.3-10.26,4.56-1.16,9.22-1.93,13.8-2.67a52.27,52.27,0,0,1,16.42,0c5.25.83,10.59,1.46,15.77,2.82a16.51,16.51,0,0,1,1.72.67c4.43,1.8,8.93,3.57,12.82,6.37,5.22,3.76,9.17,8.37,9,15.45-.16,8-.21,16,0,24,.2,7.14-3.63,11.86-9,15.45-4.22,2.81-8.68,5.33-13.81,6.43-4.28.93-8.48,2.11-12.84,2.83-5.07.83-10.07.52-15.09.88-3.14.22-6.05-.85-9.09-1s-5.86-1.44-8.69-1.79c-4-.49-7.61-2.11-11.06-3.6-5.67-2.43-10.92-6.05-14-11.79a11.62,11.62,0,0,1-1.54-5.87C172.66,469.43,172.55,464.94,172.55,460.44Zm4-18.05c0,.74.27,1.62-.05,2-1.55,1.95-.84,3.69-.23,5.83,1.54,5.33,5.28,8.21,9.83,10.8,8.34,4.73,17.45,6.6,26.73,7.78a61.12,61.12,0,0,0,13,0A92.29,92.29,0,0,0,238,467a62.3,62.3,0,0,0,16.47-6.11c2.68-1.47,5.37-3.06,7.14-5.58,2.1-3,3.83-6.34,2.7-10.13a16.67,16.67,0,0,0-5.62-8.63c-5.75-4.4-12.56-6.62-19.4-8.58a66.69,66.69,0,0,0-10.66-1.89c-5.58-.66-11.3-.18-17-.18-2,1.82-4.67.56-6.94,1.32s-4.62.9-6.78,1.73c-4.16,1.61-8.46,2.78-12.32,5.27C182.05,436.52,179.63,439.82,176.52,442.39Zm88,13.85c-4.14,5.24-9.27,7.8-14.29,10.3-3.41,1.69-7.31,2.48-11.07,3.33a103.93,103.93,0,0,1-12.15,2,63.92,63.92,0,0,1-9,0c-2.87-.12-5.87.73-8.57-1-4.25.59-8.17-1-12.13-2.07s-7.9-2-11.24-4.09c-3.59-2.19-7.66-4-10.26-7.87-.32,5.25-.31,10.36-.32,15.46,0,5.4,2.65,9.49,6.76,12.5a34.1,34.1,0,0,0,11.17,5.51c1.79.49,3.57,1,5.34,1.57a51.89,51.89,0,0,0,5.67,1.93c1.9.38,4.11-.23,5.8.48,2.15.91,4.19.52,6.25.53a107.11,107.11,0,0,0,15.58-.75,67.5,67.5,0,0,0,12-2.56,48.21,48.21,0,0,0,13.7-6.63c3.31-2.44,6.21-5.54,6.59-9.56C265,469.31,264.55,463.17,264.55,456.24Z" transform="translate(53.41 -200.74)"/><path d="M332.55,348.79c0,4.33.09,8.66,0,13a13.85,13.85,0,0,1-4.09,9.8c-6.08,6.09-13.48,9.33-21.74,11.54a134,134,0,0,1-13.34,2.59c-5.35.88-11,.21-16.46.21-2.72-2.19-6.15-.52-9.25-1.77-2.61-1-5.78-1.3-8.56-2.28-6.24-2.19-12.35-4.73-16.9-9.84-2.92-3.28-4.8-6.92-4.69-11.57.2-8.32.09-16.65,0-25a12.42,12.42,0,0,1,2-7.17,13.09,13.09,0,0,1,1.87-2.7c3.93-3.43,14.87-9.73,19.59-10.51,4.21-.69,8.43-1.54,12.58-2.37,5.59-1.11,11.09-.5,16.62-.79a10.36,10.36,0,0,1,5.62.9c1.49.79,3.43-.53,5.18.85.82.66,2.56.08,3.85.27a28.39,28.39,0,0,1,3.59,1,18.45,18.45,0,0,1,2.23.65,97.22,97.22,0,0,1,12.88,6.32c4.26,2.61,7.19,5.82,8.52,10.1a11.5,11.5,0,0,1,.45,3.31C332.58,339.79,332.55,344.29,332.55,348.79Zm-91-17.94c0,.29.27,1.17,0,1.58-1.52,2-.78,3.69-.22,5.83,1.39,5.28,5.1,8.17,9.43,10.66,4.05,2.32,8.53,3.53,12.87,5.13,4.69,1.71,9.56,1.87,14.33,2.74,3.71.67,7.64.26,11.47.09s7.39-.62,11.08-1a3.59,3.59,0,0,0,.89-.25c3.93-1.4,8.1-2,11.95-3.72,4.79-2.11,9.54-4.29,13-8.32a11.66,11.66,0,0,0,3.13-9.61,15.75,15.75,0,0,0-5.14-8.84c-2.47.61-3.71-1.65-5.41-2.59-8.39-4.64-17.62-6.11-26.84-7.59a39.49,39.49,0,0,0-8.49,0c-2.73.17-5.44-.39-8.24.55-2.49.85-5.29.75-7.94,1.36a66.37,66.37,0,0,0-14,4.81C249.07,323.79,244.83,326.13,241.51,330.85Zm87.9,13.74c-2.94,2.75-4.9,5.68-8.49,6.46-4,3.6-9.14,4.34-14,6-4.37,1.52-8.91,1.91-13.31,2.63a55.35,55.35,0,0,1-16.9,0,94.88,94.88,0,0,1-13.79-2.7c-7.4-2.27-14.52-4.81-20.19-10.36-.57-.56-.93-1.64-2.2-1.53,0,5.48,0,10.79,0,16.1,0,2.47,1.12,4.43,2.25,6.56,2.17,4.08,5.93,6,9.61,8.1s8.09,2.94,12.11,4.5c4.17,1.62,8.64,1.58,12.95,2.38,3.7.68,7.63.27,11.45.11s7.71-.64,11.56-1c.17,0,.4.07.49,0,1.76-1.6,4.19-1.54,6.19-1.8,2.47-.31,4.09-2.6,6.64-2.19,4.19-2.44,8.94-4.08,12.15-7.95a51.14,51.14,0,0,0,3.47-5.31Z" transform="translate(53.41 -200.74)"/><path d="M186.55,379.8c0,4.33.08,8.66,0,13a13.72,13.72,0,0,1-4.1,9.79c-6.08,6.09-13.48,9.34-21.74,11.54-4.42,1.18-8.92,1.86-13.34,2.59-5.35.89-11,.21-16.45.21-2.72-2.2-6.15-.51-9.26-1.76-2.61-1.05-5.78-1.32-8.56-2.29-6.24-2.18-12.35-4.73-16.9-9.84-2.91-3.29-4.79-6.93-4.68-11.58.2-8.32.09-16.65,0-25a12.59,12.59,0,0,1,2-7.17,10.59,10.59,0,0,1,1.88-2.69,61,61,0,0,1,19.22-10.26c1.93-.6,3.93-1,5.91-1.42,1.68-.37,3.37-.76,5.08-1s3.2.31,4.64-1c.47-.42,1.61-.07,2.44-.07,3.83,0,7.66,0,11.49,0,1.92,0,3.76-.07,5.63.91,1.48.78,3.43-.52,5.17.86.83.65,2.57.07,3.86.26a28.39,28.39,0,0,1,3.59,1,19,19,0,0,1,2.23.66,91.34,91.34,0,0,1,12.87,6.32c4.26,2.58,7.21,5.84,8.53,10.09a12,12,0,0,1,.44,3.31C186.58,370.8,186.55,375.3,186.55,379.8Zm-47.9,8.37a87.62,87.62,0,0,0,18.7-2.22,56.55,56.55,0,0,0,16.44-6.13c4.27-2.39,8.13-5.46,9.32-10.87.83-3.74-1.73-11.18-5.05-13-2.24.9-3.2-1.29-4.63-2.09-8.65-4.81-18.12-6.88-27.73-7.74-5.77-.51-11.75-1.1-17.6.72-1.89.59-4,.21-6.08,1s-4.3.86-6.37,1.53c-1.89.61-3.59,1.85-5.5,2.38A28.39,28.39,0,0,0,97.05,360a8.75,8.75,0,0,0-2.36,8.41,16.69,16.69,0,0,0,6.25,9.35,43,43,0,0,0,8.94,4.92,78,78,0,0,0,13.74,4.18C128.54,387.73,133.63,387.75,138.65,388.17Zm44.73,7.53V376.09c-2.34,1.83-4.5,3.69-6.84,5.29a38.54,38.54,0,0,1-7.24,4.18,75.79,75.79,0,0,1-11.1,3.31,103.42,103.42,0,0,1-12.14,2,63.92,63.92,0,0,1-9,0c-2.87-.12-5.87.73-8.57-1-4.25.59-8.17-1-12.13-2.07s-7.91-2-11.24-4.08c-3.59-2.21-7.7-4-10.28-7.89a149.6,149.6,0,0,0-.18,17.44,12.48,12.48,0,0,0,1.81,5.21c2.38,4.07,6.08,6.29,10,8.39s8.09,2.95,12.09,4.55c4.17,1.67,8.67,1.45,13,2.3,3.68.73,7.63.28,11.44.12s7.71-.64,11.57-1c.16,0,.39.06.48,0,1.79-1.51,4.17-1.1,6.19-1.93s4.59-1.06,6.61-2.12c4.29-2.25,9-4,12.16-8A51.54,51.54,0,0,0,183.38,395.7Z" transform="translate(53.41 -200.74)"/><path class="cls-1" d="M387.7,303.2c3.07-2.55,5.47-5.9,9.05-8.1,3.89-2.39,8.17-3.64,12.37-5.14s8.83-2,13.26-2.89c3.51-.72,7.31.07,10.95-.2,6-.44,11.7,2,17.66,2.05,3,1.72,6.46,2.09,9.52,3.52a52.2,52.2,0,0,1,8.56,4.62,15.73,15.73,0,0,1,6.36,9.78,11.57,11.57,0,0,1-3,9.66c-3.48,4.07-8.21,6.33-13,8.39a78.93,78.93,0,0,1-12,3.63,9.16,9.16,0,0,1-1.33.39c-3.69.35-7.37.81-11.07,1s-7.43.59-11-.1c-4.75-.93-9.64-.85-14.33-2.72-4.28-1.71-8.71-2.95-12.9-5a18.66,18.66,0,0,1-8.83-8.34c-1.16-2.32-2.78-5.14-.75-8.07C387.69,305,387.56,304.08,387.7,303.2Z" transform="translate(53.41 -200.74)"/><path class="cls-1" d="M475.39,318.1v19.6a53.24,53.24,0,0,1-3.41,5.23c-3.2,3.9-7.89,5.66-12.18,7.92-2,1.07-4.48,1.21-6.59,2.13s-4.43.36-6.19,1.93c-.1.08-.33,0-.49,0-3.86.33-7.71.8-11.57,1s-7.77.64-11.44-.12c-4.58-.95-9.3-.93-13.82-2.71-4.28-1.69-8.69-3-12.9-5-4-1.92-6.59-4.9-8.89-8.34a7.79,7.79,0,0,1-1.3-3.91c-.14-5.93-.06-11.87.26-17.93,2.58,3.92,6.65,5.91,10.34,7.86A57.28,57.28,0,0,0,408.89,330a84.66,84.66,0,0,0,27.22,2.81A77,77,0,0,0,452,330.23c3.73-1,7.75-1.64,11-3.49C467.21,324.36,472,322.47,475.39,318.1Z" transform="translate(53.41 -200.74)"/><path class="cls-1" d="M468.55,382.32c3.22-2.68,5.62-6,9.21-8.22,3.89-2.38,8.17-3.63,12.36-5.15s8.84-2,13.27-2.87c3.67-.75,7.64,0,11.45-.2,5.87-.38,11.36,2.06,17.15,2,3,1.72,6.47,2.08,9.53,3.52a51.74,51.74,0,0,1,8.55,4.63,15.67,15.67,0,0,1,6.36,9.77,11.59,11.59,0,0,1-3,9.67c-3.49,4.06-8.22,6.32-13,8.38a80,80,0,0,1-12,3.63,8.17,8.17,0,0,1-1.34.39c-3.68.35-7.37.81-11.07,1s-7.43.57-11-.1c-4.61-.89-9.35-.81-13.89-2.56-4.16-1.6-8.58-2.57-12.53-4.72-3.63-2-7.17-4.09-9.08-8-1.43-3-3.34-5.83-1.07-9.26C468.81,383.76,468.55,382.94,468.55,382.32Z" transform="translate(53.41 -200.74)"/><path class="cls-1" d="M467.55,396.06c2.95,4.35,6.61,6.38,10.15,8.35a43.21,43.21,0,0,0,11.6,4.48c4,.89,7.88,2.61,12.14,2,6.08,2.18,12.37.46,18.54,1,2.4-1.31,5.12-.52,7.54-1.13s4.81-1.19,7.19-1.87,5-.94,7.11-2.08c4.11-2.22,8.52-4.08,11.85-7.55.77-.81,1.43-1.74,2.88-3.52,0,7.51.44,13.82-.17,20-.36,3.62-3.15,6.58-6.12,8.87-4,3.07-14.31,7.19-19.52,8.29a103.1,103.1,0,0,1-12.66,1.88,78.57,78.57,0,0,1-13.46,0c-2.34-.21-4.69-.72-7.06-1a20.42,20.42,0,0,1-6.71-1.8c-2.05-1-4.45-1.28-6.61-2.12S480.12,427.8,478,427a18,18,0,0,1-9-8.15,9.8,9.8,0,0,1-1.39-4.39C467.46,408.64,467.55,402.86,467.55,396.06Z" transform="translate(53.41 -200.74)"/><path class="cls-1" d="M322.55,412.31c3.18-2.55,5.56-5.91,9.12-8.15,4-2.53,8.46-3.76,12.84-5.22,2.06-.69,4.23-1,6.26-1.78s4.32.19,6.58-1.06c1.65-.92,4.22-.18,6.39-.18,2.5,0,5,0,7.49,0,1.91,0,3.76-.06,5.62.91,1.49.77,3.62-.75,5.09,1,4.21-.13,7.82,1.95,11.71,3,4.16,1.17,7.63,3.5,11.05,5.85a14.83,14.83,0,0,1,5.62,8.6c1,3.75-.57,7.21-2.85,10.11-2.59,3.31-6.24,5.39-10,7.07a73.91,73.91,0,0,1-19.69,5.64,88.16,88.16,0,0,1-16.6.71A66.86,66.86,0,0,1,332,431c-3.77-2-7.13-4.4-8.88-8.22-1.16-2.53-3-5.45-.58-8.47C322.83,413.91,322.55,413,322.55,412.31Z" transform="translate(53.41 -200.74)"/><path class="cls-1" d="M410.55,427c0,6.21.42,12.36-.15,18.41-.37,4-3.29,7.12-6.59,9.56a48.24,48.24,0,0,1-13.7,6.64,68.29,68.29,0,0,1-12,2.56,107.25,107.25,0,0,1-15.59.75c-2.05,0-4.1.38-6.24-.53-1.7-.71-3.91-.1-5.8-.48a51.34,51.34,0,0,1-5.68-1.93c-1.76-.57-3.55-1.07-5.34-1.57a34.48,34.48,0,0,1-11.17-5.5c-4.12-3-6.77-7.11-6.76-12.5,0-5.11,0-10.22.31-15.47,2.61,3.84,6.68,5.68,10.27,7.87,3.34,2,7.39,3.07,11.24,4.09s7.87,2.66,12.13,2.07c2.69,1.71,5.69.86,8.57,1a63.92,63.92,0,0,0,9,0,104.1,104.1,0,0,0,12.14-2,77.34,77.34,0,0,0,11.1-3.29,37.74,37.74,0,0,0,7.24-4.19C405.87,430.79,408,428.92,410.55,427Z" transform="translate(53.41 -200.74)"/><path class="cls-1" d="M176.52,442.39c3.11-2.57,5.53-5.87,9.06-8.15,3.86-2.49,8.16-3.66,12.32-5.27,2.16-.83,4.57-1,6.78-1.73s4.9.5,6.94-1.32c5.66,0,11.38-.48,17,.18A66.69,66.69,0,0,1,239.24,428c6.84,2,13.65,4.18,19.4,8.58a16.67,16.67,0,0,1,5.62,8.63c1.13,3.79-.6,7.14-2.7,10.13-1.77,2.52-4.46,4.11-7.14,5.58A62.3,62.3,0,0,1,238,467a92.29,92.29,0,0,1-12.18,1.82,61.12,61.12,0,0,1-13,0c-9.28-1.18-18.39-3.05-26.73-7.78-4.55-2.59-8.29-5.47-9.83-10.8-.61-2.14-1.32-3.88.23-5.83C176.79,444,176.52,443.13,176.52,442.39Z" transform="translate(53.41 -200.74)"/><path class="cls-1" d="M264.55,456.24c0,6.93.42,13.07-.15,19.13-.38,4-3.28,7.12-6.59,9.56a48.21,48.21,0,0,1-13.7,6.63,67.5,67.5,0,0,1-12,2.56,107.11,107.11,0,0,1-15.58.75c-2.06,0-4.1.38-6.25-.53-1.69-.71-3.9-.1-5.8-.48a51.89,51.89,0,0,1-5.67-1.93c-1.77-.57-3.55-1.08-5.34-1.57a34.1,34.1,0,0,1-11.17-5.51c-4.11-3-6.77-7.1-6.76-12.5,0-5.1,0-10.21.32-15.46,2.6,3.85,6.67,5.68,10.26,7.87,3.34,2.05,7.39,3.07,11.24,4.09s7.88,2.66,12.13,2.07c2.7,1.71,5.7.86,8.57,1a63.92,63.92,0,0,0,9,0,103.93,103.93,0,0,0,12.15-2c3.76-.85,7.66-1.64,11.07-3.33C255.28,464,260.41,461.48,264.55,456.24Z" transform="translate(53.41 -200.74)"/><path class="cls-1" d="M241.51,330.85c3.32-4.72,7.56-7.06,11.86-9.17a66.37,66.37,0,0,1,14-4.81c2.65-.61,5.45-.51,7.94-1.36,2.8-.94,5.51-.38,8.24-.55a39.49,39.49,0,0,1,8.49,0c9.22,1.48,18.45,2.95,26.84,7.59,1.7.94,2.94,3.2,5.41,2.59a15.75,15.75,0,0,1,5.14,8.84,11.66,11.66,0,0,1-3.13,9.61c-3.5,4-8.25,6.21-13,8.32-3.85,1.69-8,2.32-11.95,3.72a3.59,3.59,0,0,1-.89.25c-3.69.35-7.38.81-11.08,1s-7.76.58-11.47-.09c-4.77-.87-9.64-1-14.33-2.74-4.34-1.6-8.82-2.81-12.87-5.13-4.33-2.49-8-5.38-9.43-10.66-.56-2.14-1.3-3.87.22-5.83C241.78,332,241.51,331.14,241.51,330.85Z" transform="translate(53.41 -200.74)"/><path class="cls-1" d="M329.41,344.59v20.07a51.14,51.14,0,0,1-3.47,5.31c-3.21,3.87-8,5.51-12.15,7.95-2.55-.41-4.17,1.88-6.64,2.19-2,.26-4.43.2-6.19,1.8-.09.08-.32,0-.49,0-3.85.33-7.7.8-11.56,1s-7.75.57-11.45-.11c-4.31-.8-8.78-.76-12.95-2.38-4-1.56-8.33-2.35-12.11-4.5s-7.44-4-9.61-8.1c-1.13-2.13-2.26-4.09-2.25-6.56,0-5.31,0-10.62,0-16.1,1.27-.11,1.63,1,2.2,1.53,5.67,5.55,12.79,8.09,20.19,10.36a94.88,94.88,0,0,0,13.79,2.7,55.35,55.35,0,0,0,16.9,0c4.4-.72,8.94-1.11,13.31-2.63,4.84-1.68,10-2.42,14-6C324.51,350.27,326.47,347.34,329.41,344.59Z" transform="translate(53.41 -200.74)"/><path class="cls-1" d="M138.65,388.17c-5-.42-10.11-.44-15-1.36a78,78,0,0,1-13.74-4.18,43,43,0,0,1-8.94-4.92,16.69,16.69,0,0,1-6.25-9.35A8.75,8.75,0,0,1,97.05,360a28.39,28.39,0,0,1,13.1-8.19c1.91-.53,3.61-1.77,5.5-2.38,2.07-.67,4.37-.73,6.37-1.53s4.19-.44,6.08-1c5.85-1.82,11.83-1.23,17.6-.72,9.61.86,19.08,2.93,27.73,7.74,1.43.8,2.39,3,4.63,2.09,3.32,1.84,5.88,9.28,5.05,13-1.19,5.41-5.05,8.48-9.32,10.87A56.55,56.55,0,0,1,157.35,386,87.62,87.62,0,0,1,138.65,388.17Z" transform="translate(53.41 -200.74)"/><path class="cls-1" d="M183.38,395.7a51.54,51.54,0,0,1-3.37,5.2c-3.19,3.92-7.87,5.7-12.16,8-2,1.06-4.47,1.24-6.61,2.12s-4.4.42-6.19,1.93c-.09.08-.32,0-.48,0-3.86.33-7.7.8-11.57,1s-7.76.61-11.44-.12c-4.32-.85-8.82-.63-13-2.3-4-1.6-8.26-2.49-12.09-4.55s-7.6-4.32-10-8.39a12.48,12.48,0,0,1-1.81-5.21,149.6,149.6,0,0,1,.18-17.44c2.58,3.88,6.69,5.68,10.28,7.89,3.33,2.05,7.39,3.06,11.24,4.08s7.88,2.66,12.13,2.07c2.7,1.71,5.7.86,8.57,1a63.92,63.92,0,0,0,9,0,103.42,103.42,0,0,0,12.14-2,75.79,75.79,0,0,0,11.1-3.31,38.54,38.54,0,0,0,7.24-4.18c2.34-1.6,4.5-3.46,6.84-5.29Z" transform="translate(53.41 -200.74)"/></svg>