<svg id="Layer_1" data-name="Layer 1" xmlns="http://www.w3.org/2000/svg" viewBox="0 0 911.75 498.29"><defs><style>.cls-1{fill:#fff;}</style></defs><path d="M-100.7,252.42c2.6-4,6.77-6.43,10.75-8.76a43.4,43.4,0,0,1,11.27-4.1c4-1,8.07-1.59,12.1-2.32a67.75,67.75,0,0,1,9.14-.72c3.16-.15,6.55-.74,9.43.17s5.84-.2,8.24,1.79c2.19-.44,4.42.62,6.71-.74,1.65-1,4-.34,6-1.12,2.47-.92,5.39-.58,8-1.18,5.05-1.17,10.23-1.82,15.15-3.29,2.26-.68,4.64-.28,6.86-1.54,1.68-1,4-.78,6-1.13,1.86-.32,3.71-.72,5.58-1,2-.28,4.11-.76,6-1.21,3.19-.75,6.39-1.46,9.61-2.09s6.18-1.27,9.24-1.91a52.57,52.57,0,0,1,5.79-.86C47.9,218.51,52,216,56,213.71c3.43-2,7.43-3,11.24-4.2,4.63-1.51,9.55-1.71,14.28-2.89,3-.74,6.32-.35,9.46-.07s6.27-1.23,9.09.93c2.8-.46,5.4.94,8.09.92a38.47,38.47,0,0,0,9-1.14c3.07-.77,6.13-1.34,9.24-1.85,5.4-.89,10.73-2.21,16.08-3.39,2.13-.47,4.23-1.33,6.37-1.46,3-.2,5.86-1.3,8.82-1.67a62.92,62.92,0,0,0,8.87-1.61c3.59-1,7.37-1.21,10.85-2.74,1.7-.75,3.63.09,5.66-.8,2.67-1.18,5.95-1,9.27-1.43,2.62-3.63,6.52-6.34,10.61-8.56a48.66,48.66,0,0,1,11.24-4.18c4-1,8.15-1.4,12.1-2.29,6.27-1.42,12.44-.33,18.64-.73,1.33-.09,2.7.68,4.08.91s2.77.44,4.14.79c2,.52,4.47.92,6.66-.46,1.61-1,3.61-.2,5.54-1.12,2.33-1.11,5.33-.71,8-1.22,5.39-1,10.74-2.2,16.1-3.37,2.13-.46,4.21-1.37,6.34-1.52,3-.21,5.88-1.22,8.85-1.64a57,57,0,0,0,8.85-1.62c5.09-1.59,10.42-1.94,15.48-3.6,2.84-.93,6-.94,9.38-1.41a29.27,29.27,0,0,1,10.55-8.45,60.42,60.42,0,0,1,11.67-4.43c4.55-1.23,9.33-1.24,13.79-2.89a7.65,7.65,0,0,1,2.49,0c3.5,0,7,0,10.49,0,2.07,0,4.09-.24,6.14.89,1.59.87,3.62-.07,5.65.84a7.27,7.27,0,0,0,6.61-.41c1.65-1.07,4,.66,5.45-1.34l9.71-1.19,4.2,4.23L601.82,326.3c24.72,22.5,47.56,46.91,71.33,70.38s47.4,47.35,71.23,71.17v55.24c-4.39,1.49-9.17,1.5-13.58,3.29-1.65.68-3.7.56-5.58.93-2.92.58-5.84,1.36-8.8,1.75a53.39,53.39,0,0,0-8.86,1.62,124.46,124.46,0,0,1-15.95,3.55c-5.59,1-11,2.76-16.69,3.4a52.44,52.44,0,0,0-8.69,1.86c-2.7.79-5.65.5-8.18,2-4.26-.52-8,1.79-12.15,2.2a48.72,48.72,0,0,0-8.68,1.85c-2.7.78-5.66.46-8.18,2-4.26-.54-8,1.79-12.15,2.18a47.74,47.74,0,0,0-8.68,1.87c-2.7.78-5.52.86-8.23,1.82-2.16.77-4.7.12-7.07,1.06-2,.79-4.81.11-6.44,1.26-2.08,1.47-4.37.13-6.43,1.56-1.51,1-3.94.65-6,1.13-6.09,1.42-12.25,2.53-18.36,3.93-4.1.94-8.36,1.73-12.61,2.32a93.65,93.65,0,0,0-14.16,3.22c-2.25.69-4.65.17-6.86,1.54-1.61,1-4,.76-6,1.14s-4.54.47-6.37,1.48-4.38-.56-5.89,1.51c-4.36-.21-8.45,1.42-12.65,2.16-3.63.65-7.45.87-10.91,2.54-1.84.89-4,.19-6,1.15-2.21,1-5.32.19-7.42,1.32-2.4,1.3-5.25-.18-7.26,1.83-6.14-.26-11.76,2.43-17.74,3.17-1.82.23-4.22.07-5.48,1-2,1.45-4.23-.06-6,1.44-1.51,1.28-4-.66-5.4,1.39-4.26-.54-8,2.29-12.17,2-2.38,2.1-5.53.45-8.26,1.83-2.28,1.16-5.43.44-8,1.26-5.21,1.67-10.62,2.55-15.91,3.7-4.13.89-8.4,1.64-12.59,2.4-3.62.65-7.36,1.1-10.92,2.5a24.81,24.81,0,0,1-6.47,1.23c-2.55.24-4.87,1.16-7.3,1.74-.61.15-1.24.25-1.86.34-2.52.37-5.16.35-7.53,1.16-4.19,1.43-8.58,1.74-12.82,2.82-7.59,1.95-15.53,2.24-23,4.84-1.91.66-4,.08-6.06,1.07-1.77.87-4,.77-6,1.12s-3.72.73-5.59,1c-2,.27-4.11.75-6,1.2-4.91,1.14-9.87,1.93-14.76,3-7,1.55-14.25,2.09-21,4.81-4.36-.17-8.49,1.31-12.63,2.18-5.32,1.12-10.77,1.74-16,3.56-2,.69-4.32.8-6.49,1.25-7.51,1.58-15.15,2.47-22.49,4.85-1.91.62-4,.57-6.06,1-4.89,1.07-9.89,1.69-14.73,3.11a13.94,13.94,0,0,1-3.33,0c-1.22-1.22-2.6-2.63-4-4C112.21,598.68,71.8,557.54,30.51,517.28,8.38,495.7-13.37,473.75-35.36,452.05-57.54,430.16-79.47,408-101.51,386l-65.87-65.87V266.62c1.47-.69,3-2,4.54-2,5.77-.18,11.1-2.43,16.73-3.26a31.76,31.76,0,0,0,6.85-1.46,36.15,36.15,0,0,1,6.94-1.38c2.35-.38,4.82-.35,7.06-1.07,6.16-2,12.51-2.91,18.83-4.1A42.56,42.56,0,0,1-100.7,252.42ZM-162,268c1.28,1.08,2.33,1.86,3.24,2.77q31.49,31.44,63,62.92c21,21,41.83,42.07,63,62.9S8.31,439,30.33,458.81L156.9,585.37l2.37,2.36a30.83,30.83,0,0,1,3.85-1.22c2.51-.43,5.26-.19,7.54-1.13,5.14-2.1,10.64-2.38,15.92-3.74,6.2-1.6,12.61-2.33,18.85-4a68.87,68.87,0,0,1,8.9-1.55,81.67,81.67,0,0,0,8.77-1.81c2-.49,4.24-.18,6-1,3.47-1.66,7.28-1.92,10.89-2.58,4.19-.77,8.47-1.5,12.59-2.4,5.3-1.16,10.63-2.55,15.93-3.59,6-1.18,12.09-2.43,18.21-3.22,1.22-.16,2.38-.72,3.6-1s2.44-.45,3.65-.79c3.3-.91,6.74-1.42,10.11-2.18,2.64-.6,5.58-.22,8-1.21,2.07-.84,4.21-.27,6.05-1.08,5.26-2.31,11-2.52,16.44-3.78,1.05-.24,2-.81,3.1-1,1.31-.16,2.85.38,4-.11,3.46-1.56,7.26-1.7,10.85-2.72a61.63,61.63,0,0,1,8.86-1.62,69,69,0,0,0,8.78-1.8c2-.53,4.16-.25,6-1,5.13-2.11,10.66-2.46,16-3.6,4.14-.9,8.27-2.37,12.64-2.17,7.21-2.86,14.95-3.37,22.45-4.85,4.17-.83,8.28-2.41,12.65-2.15,1.93-1.64,4.47-1.45,6.69-1.85,2.49-.46,4.91-1.78,7.56-1.15,1.88-1.93,4.54-.94,6.8-1.64a48.94,48.94,0,0,1,8.57-2.17c4.27-.52,8.31-2.25,12.65-2.19,1.77-1.57,4.08-.52,6-1.21a65.11,65.11,0,0,1,10.87-2.61c4.2-.75,8.49-1.46,12.59-2.4,5.29-1.2,10.66-2.42,16-3.52,5.84-1.22,11.65-3,17.7-3.26,1.73-1.68,4.12-.41,6-1.3,3.46-1.67,7.28-1.89,10.91-2.54,4.2-.74,8.29-2.37,12.65-2.16,1.56-2.19,4.21-.33,6.3-1.8,1.74-1.22,4.78-.42,6.91-1.31,2.38-1,4.87-.28,7.06-1.07,4-1.47,8.24-1.9,12.36-2.67,3.86-.72,7.71-1.73,11.57-2.45,4.09-.76,8.28-1.47,12.36-2.57,1.48-.39,3-1.15,4.55-1.05,1.86.12,3.41-.63,5.09-1.07,2.72-.7,5.42-1.7,8.18-1.92,4.3-.34,8.29-2.34,12.66-2.09,3.74-2.43,8.21-1.92,12.3-2.82s8.47-1.48,12.58-2.4c5.29-1.19,10.71-1.94,15.94-3.63a70,70,0,0,1,9.65-2c3.42-.59,6.78-1.57,10.16-2,5.81-.74,11.24-2.95,17.32-3.34-23.29-23.29-46.16-46.38-69.28-69.22S625.08,352.37,601,330.44q-89.28-89.26-178.54-178.55c-1.16-1.17-2.21-2.46-3.31-3.69a39.39,39.39,0,0,1-4.37,1.25,48.5,48.5,0,0,1-4.95.26c.83.95,1.13,1.62,1.57,1.73a34,34,0,0,1,8.76,4.2,23,23,0,0,1,7.52,7.25c1.45,2.2,2.77,4.32,2.81,6.85.13,9.49.21,19,0,28.49a13.37,13.37,0,0,1-3.58,8.51c-3.9,4.41-9,6.94-14,9.66-2.12,1.16-4.74,1.41-7.13,2.09s-4.81,1.27-7.2,1.87-5,.54-7.58,1c-3.9.63-8,.29-12,.13s-7.73-.63-11.59-1a1.43,1.43,0,0,1-.45-.12c-4.49-2.12-9.47-2.55-14.07-4.69-7.92-3.7-10.61-5.07-15.14-11.5a11.1,11.1,0,0,1-2.14-6.11c-.11-3.67,0-7.33,0-11s0-7.33,0-11c0-3.49-.49-7,.94-10.18-24.14,4.51-47.86,9.8-71.82,14.07l-.16,1c1,.48,2.08,1.08,3.21,1.48a29.18,29.18,0,0,1,13.56,9.39A15.21,15.21,0,0,1,284.59,202c-.25,8-.12,16-.06,24a15.76,15.76,0,0,1-4.91,12,41.87,41.87,0,0,1-11.43,7.48c-7.58,3.66-15.84,4.77-24,5.92a63.76,63.76,0,0,1-11.48.06c-3.7-.17-7.39-.63-11.09-1a3.74,3.74,0,0,1-.88-.28,60.17,60.17,0,0,0-7.74-1.87,34.56,34.56,0,0,1-7.3-2.86c-5-2.27-9.77-5-13-9.48a16,16,0,0,1-3.23-10.17c.28-7.49,0-15,.11-22.5,0-2.5.38-5,.59-7.54L117.2,210.16c.43.49.72,1.17,1.16,1.28a33.53,33.53,0,0,1,8.76,4.2,23,23,0,0,1,7.53,7.24c1.44,2.2,2.78,4.31,2.81,6.85.13,9.5.21,19,0,28.5a13.28,13.28,0,0,1-3.57,8.5c-3.9,4.42-9.06,6.92-14,9.67-2.11,1.17-4.73,1.41-7.12,2.08s-4.81,1.28-7.21,1.88-5,.54-7.58,1c-3.89.64-8,.29-12,.13s-7.72-.63-11.58-1a1.11,1.11,0,0,1-.45-.12c-4.49-2.13-9.47-2.54-14.07-4.69-7.95-3.71-10.61-5.07-15.15-11.5a11.07,11.07,0,0,1-2.13-6.11c-.13-3.66,0-7.33,0-11s0-7.34,0-11c0-3.49-.5-7,1-10.22C19.34,230.42-4.4,235.66-28.36,240l-.16,1a31.46,31.46,0,0,0,3.21,1.49,29.15,29.15,0,0,1,13.55,9.39A15.08,15.08,0,0,1-8.42,262c-.24,8-.11,16-.05,24a15.71,15.71,0,0,1-4.91,12,41.52,41.52,0,0,1-11.43,7.49c-7.58,3.66-15.83,4.77-24,5.92a63.77,63.77,0,0,1-11.48.06c-3.71-.17-7.4-.63-11.09-1a3.6,3.6,0,0,1-.88-.28A59.92,59.92,0,0,0-80,308.32a35.21,35.21,0,0,1-7.29-2.85c-5-2.28-9.77-5-13-9.49a15.58,15.58,0,0,1-3.24-10.16c.31-5.65.08-11.33.08-17,0-2.83-.09-5.67,0-8.5a37.93,37.93,0,0,1,.75-4.67Zm321.7,323.29v49.58c1-.55,1.58-1.15,2.23-1.22a107.31,107.31,0,0,0,14.74-3c5.81-1.44,11.81-2.11,17.73-3.11,1.7-1.73,4-.62,6-1.3,5.34-1.87,11-2.54,16.48-3.62,4-.79,7.95-2.3,12.15-2.08,3.08-2.16,6.9-1.84,10.32-2.78s7.08-1.34,10.62-2.17c2.76-.66,5.65-.8,8.42-1.43s5.49-1.28,8.3-1.76c3.39-.59,6.68-1.63,10.18-1.93s6.72-1.54,10.16-2.07c2-.31,4.23-.32,6-1,7.12-2.71,14.73-2.93,22-4.67,3.79-.9,7.44-2.56,11.43-2.68a13.74,13.74,0,0,0,4.68-.74c2.53-1,5.2-1.14,7.79-1.7s5.66-.11,8-1.21c3.35-1.57,7-1.69,10.38-2.63s7.09-1.33,10.62-2.18c2.76-.65,5.64-.83,8.42-1.43s5.4-1.86,8.33-1.61c1.8-2.06,4.52-.54,6.77-1.82,2-1.17,5-.57,7.46-1.26,2-.57,4.3-.34,6-1.07,5-2.11,10.46-1.82,15.42-3.8,1.74-.69,3.76.55,5.67-.9,1.25-1,3.27.14,5.09-1,1.39-.84,3.67-.77,5.5-1a88.76,88.76,0,0,0,9.65-2.18c3.36-.81,6.84-.8,10.2-1.89,2.54-.82,5.45-.43,8-1.19s5.39-1.48,8.16-2.07c4.75-1,9.54-1.85,14.27-2.93,2-.47,4.32-.3,6-1.09,3.34-1.57,7-1.69,10.39-2.6s7.09-1.37,10.62-2.18c2.77-.64,5.63-.88,8.41-1.45s5.57-1.14,8.3-1.75c4.75-1.06,9.55-1.85,14.27-2.94,2-.47,4.25-.35,6-1.06,5.16-2,10.65-2.4,15.94-3.72,6.06-1.52,12.24-2.6,18.35-3.91s12.11-2.3,18.21-3.23a33.2,33.2,0,0,0,6.49-1.22c3.72-1.42,7.6-1.88,11.38-2.6s7.65-1.91,11.62-2.32a23.64,23.64,0,0,0,6-1c5.15-2,10.63-2.52,15.94-3.65,4.14-.88,8.28-2.36,12.63-2.18,6.74-2.68,14-3.38,21-4.77,5.7-1.13,11.42-2.46,17.17-3.46a110.27,110.27,0,0,0,12.33-2.65c3-.88,6.17-.9,9.16-2.06,1.73-.67,3.71-.67,5.56-1.07,2.88-.63,5.74-1.34,8.52-2,.63-13.87.41-45.91-.3-49.8a5.82,5.82,0,0,1-1.63.78c-1.14.15-2.45-.25-3.44.18-5.1,2.18-10.63,2.55-15.94,3.67-4.14.88-8.47,1.47-12.58,2.39-6.27,1.41-12.52,2.86-18.89,3.79-1.67,2.09-4.22.88-6.33,1.57a70.12,70.12,0,0,1-15.6,3.28c-4.32.38-8.24,2.68-12.64,2.2-3.12,2.05-6.91,1.84-10.33,2.73s-7.08,1.4-10.62,2.19c-2.77.62-5.62.89-8.41,1.46s-5.65,1-8.29,1.76c-5.58,1.59-11.31,2.42-16.93,3.6-4.91,1-9.85,1.89-14.75,3-1.94.45-4,.9-6,1.19s-3.73.66-5.59,1c-2,.35-4.24.28-6,1.11-2,.94-4.16.42-6.06,1.07-5.83,2-11.93,2.59-17.89,3.93-2,.46-4,.67-6.06,1-1.8.32-3.48,1.73-5.22,1.74-2.16,0-4.06.76-6.08,1.12-1.86.34-3.72.68-5.59,1-2,.35-4.26.24-6,1.11-2.22,1.09-4.59.86-6.85,1.54-5.09,1.51-10.4,2.27-15.62,3.36-2.18.45-4.52.58-6.53,1.18-4.39,1.32-8.92,1.8-13.26,3-2,.57-4.12.32-6,1.09-2.51,1-5.2,1.14-7.8,1.68s-5.49.36-8,1.21c-5.84,2-11.93,2.61-17.88,3.93-2,.45-4.23.39-6,1.07-3.54,1.32-7.26,1.78-10.86,2.69-5.95,1.52-12.18,1.91-18.18,3.28-2,.46-4.15.4-6.06,1-7.34,2.39-15,3.26-22.48,4.84a62.72,62.72,0,0,0-6.49,1.24c-5.39,1.81-11.06,2.11-16.44,3.75a23.82,23.82,0,0,1-3.59,1c-1.3.17-2.78-.29-3.95.15a53.75,53.75,0,0,1-13.3,2.88c-1.71,1.71-4.05.52-6,1.3-2.5,1-5.2,1.12-7.8,1.66s-5.54.31-8,1.28c-3.54,1.4-7.32,1.48-10.88,2.69-2.21.75-4.89.28-7,1.2-2.37,1-5.14.09-7.22,1.87-3.59-.31-6.82,1.19-10.17,2s-6.82,1-10.21,1.81c-3,.7-6.15,1.27-9.24,1.88s-6.42,1.35-9.61,2.09c-1.94.44-4,.94-6,1.21-1.88.25-3.73.66-5.59,1-2,.35-4.25.26-6,1.11-2,1-4.16.42-6.07,1.08-5.66,2-11.58,2.65-17.41,3.82-2.17.43-4.48.63-6.5,1.24a109.1,109.1,0,0,1-10.88,2.56c-4.17.8-8.27,2.37-12.63,2.19C165.33,590.61,161.92,588.23,159.69,591.25Zm-3.33-1.84C101.74,535.26,46.7,480.87-8.14,426.28Q-85,349.78-161.54,272.93a10.41,10.41,0,0,0-1.43-1.39c-.42-.27-.52-1.33-1.41-.72v47.27l48.53,48.53,48.77,48.77c16.14,16.14,32.16,32.39,48.45,48.38s31.74,33,49,48.1L152.68,634.15l3.68,3.68Zm183.31-423.7c-.14.94,0,1.89-.43,2.47-2,2.93-.39,5.74.75,8.08,1.81,3.74,5,6.36,8.84,8.32,4.18,2.12,8.62,3.34,12.9,5,4.69,1.87,9.57,1.79,14.33,2.72,3.52.69,7.3.26,11,.1s7.38-.63,11.07-1a3.83,3.83,0,0,0,1-.07c4-1.68,8.4-2.13,12.35-3.94,4.74-2.17,9.51-4.35,13-8.42a11.61,11.61,0,0,0,3-9.67,15.36,15.36,0,0,0-6.37-9.77c-6.82-4.75-14.7-7.38-22.71-8.94a55,55,0,0,0-16-1.24c-2.64.26-5.45-.46-8,.16-4.4,1.08-9,1.43-13.25,2.93s-8.48,2.74-12.37,5.13C345.27,159.78,343,163,339.67,165.71ZM193.51,195.88c0,.57.18,1.17,0,1.55-2,3.76-.41,6.79,1.46,10.09,3.24,5.71,8.83,7.71,14.33,9.94,2,.81,4.23,1.1,6.12,2.09,2.15,1.12,4.52,1.14,6.74,1.81,2.06.62,4.51-.27,6.54,1.12a174.24,174.24,0,0,0,24.06-1,1.69,1.69,0,0,0,.43-.15c3.86-1.62,8.06-2.08,11.92-3.79,4.94-2.19,9.75-4.48,13.42-8.57s3.57-9.61.82-14.34c-2.24-3.84-5.59-6.14-9.21-7.91a70.72,70.72,0,0,0-29-7.22c-3.49-.12-7,0-10.49,0-.83,0-2-.35-2.43.06-2,1.88-4.42.38-6.53,1.2s-4.21,1.08-6.27,1.76c-4.38,1.47-8.81,2.7-12.83,5.25C199.05,190,196.66,193.35,193.51,195.88Zm-147,30.06a3.68,3.68,0,0,1,0,1.17c-1.76,3.86-.69,7.06,1.5,10.57,2,3.19,4.72,5,7.68,6.8,4,2.43,8.55,3.48,12.87,5.12,4.67,1.78,9.55,1.88,14.31,2.75,3.7.67,7.64.26,11.46.1s7.38-.63,11.07-1a3.64,3.64,0,0,0,.89-.27c3.93-1.39,8.1-2,12-3.71,4.77-2.1,9.42-4.37,13.06-8.27,2-2.18,2.6-5,3.16-7.68.44-2.15-.84-4.33-2.3-7-3.14-5.77-8.79-7.76-14.27-10-2-.83-4.1-1.38-6.16-2a56.42,56.42,0,0,0-6.67-2c-2.18-.39-4.56.49-6.57-1.06h-17c-2,1.84-4.65.56-6.92,1.36s-4.64.86-6.8,1.7c-4.15,1.62-8.43,2.85-12.3,5.31C51.93,220.11,49.58,223.46,46.51,225.94Zm-102.6,56.81,15.32-1.27a3.18,3.18,0,0,0,.93-.16c3.86-1.61,8.06-2.07,11.92-3.78,4.94-2.19,9.75-4.48,13.42-8.57s3.57-9.61.82-14.34c-2.24-3.83-5.59-6.14-9.21-7.91a70.72,70.72,0,0,0-29-7.22c-3.49-.12-7,0-10.48,0-.84,0-2-.35-2.44.06-2,1.88-4.42.38-6.53,1.2s-4.21,1.08-6.27,1.76c-4.38,1.47-8.82,2.69-12.83,5.25-3,1.89-5.2,4.44-7.62,6.83a8.55,8.55,0,0,0-2.31,8.4c1,3.66,3,7.25,6.29,9.28a50.26,50.26,0,0,0,10.74,5.4,118.42,118.42,0,0,0,11.92,3.67C-66.5,282.38-61.38,282.31-56.09,282.75Zm248.6-73.42c0,7-.09,12.83.06,18.6a10,10,0,0,0,1.36,4.4,21.22,21.22,0,0,0,8.93,8.23A67.67,67.67,0,0,0,232,248.4a85.05,85.05,0,0,0,17.07-.72,72.67,72.67,0,0,0,12-2.56,48,48,0,0,0,13.7-6.64c3.28-2.45,6.21-5.53,6.58-9.57.55-6,.14-12.2.14-19.11-4.14,5.25-9.27,7.82-14.3,10.31-3.41,1.69-7.32,2.48-11.08,3.32-4,.9-8.09,1.95-12.13,1.92-5.84,0-11.81,1.34-17.55-.87-4.26.59-8.18-1-12.13-2.06s-7.89-2.08-11.24-4.1C199.48,216.14,195.45,214.27,192.51,209.33Zm-147,31.49c0,5.47,0,10.94,0,16.4a12,12,0,0,0,.83,2.64,14.18,14.18,0,0,0,6.56,8.76,67.31,67.31,0,0,0,10.33,5.25c6.13,2.63,12.63,3.49,19.07,4.51,3.73.59,7.64.23,11.46.07s7.71-.63,11.56-1a4,4,0,0,0,.89-.24c3.92-1.42,8.11-2,11.93-3.74,4.42-2,9-3.9,12.3-7.57a48.72,48.72,0,0,0,4-5.83c0-6.62,0-12.78,0-18.93a.7.7,0,0,0-.22-.4c-.08-.1-.23-.14-.34-.21-4.54,5.07-10.28,8.3-16.59,10.55a89.19,89.19,0,0,1-20.16,4.27,56.2,56.2,0,0,1-14.43,0c-4.76-.73-9.57-1.4-14.32-2.6a68.09,68.09,0,0,1-12.15-4.45C52.5,246.5,48.49,244.34,45.51,240.82Zm-57.11,29c-4,5.31-9,8-14,10.17a70,70,0,0,1-23.67,5.37c-5.79.32-11.79,1.26-17.54-.85-4.44.74-8.53-1.14-12.59-2.19a49.17,49.17,0,0,1-11.92-5,44,44,0,0,1-9.14-7.36c0,6.3-.16,11.78.08,17.23a14.52,14.52,0,0,0,2.09,6.11c2.12,3.92,5.68,5.92,9.2,7.93,3.88,2.22,8.32,3.18,12.52,4.68,4.37,1.56,9,1.67,13.44,2.42,3.71.64,7.63.26,11.45.1s7.38-.63,11.06-1a3.52,3.52,0,0,0,.9-.24c3.92-1.43,8.1-2,11.93-3.74,4.42-2,9-3.89,12.3-7.57a46.06,46.06,0,0,0,3.92-5.67Zm350.11-90.26c0,6.87-.09,12.65.06,18.42a9.94,9.94,0,0,0,1.37,4.39,20.78,20.78,0,0,0,8.94,8.23c4.16,2.16,8.6,3.37,12.87,5.08,4.54,1.82,9.25,1.8,13.83,2.66,4.34.81,9,.47,13.43.09a103.23,103.23,0,0,0,12.67-1.87c5.18-1.1,15.52-5.15,19.51-8.29,3.06-2.4,5.9-5.4,6.2-9.34.46-6.07.12-12.2.12-19.11-4.14,5.26-9.28,7.84-14.31,10.34-3.41,1.68-7.33,2.46-11.09,3.3-4,.9-8.09,1.94-12.13,1.92-5.84,0-11.81,1.25-17.55-.87-4.26.58-8.14-1.13-12.14-2a42.71,42.71,0,0,1-11.6-4.46C345.15,186,341.42,184,338.51,179.53Z" transform="translate(167.38 -145.29)"/><path class="cls-1" d="M-162,268l59.31-12.31a37.93,37.93,0,0,0-.75,4.67c-.13,2.83,0,5.67,0,8.5,0,5.67.23,11.35-.08,17A15.58,15.58,0,0,0-100.33,296c3.24,4.48,8,7.21,13,9.49A35.21,35.21,0,0,0-80,308.32a59.92,59.92,0,0,1,7.75,1.87,3.6,3.6,0,0,0,.88.28c3.69.35,7.38.81,11.09,1a63.77,63.77,0,0,0,11.48-.06c8.19-1.15,16.44-2.26,24-5.92A41.52,41.52,0,0,0-13.38,298a15.71,15.71,0,0,0,4.91-12c-.06-8-.19-16,.05-24a15.08,15.08,0,0,0-3.34-10.12,29.15,29.15,0,0,0-13.55-9.39A31.46,31.46,0,0,1-28.52,241l.16-1c24-4.3,47.7-9.54,71.84-14.11-1.46,3.2-.92,6.73-1,10.22,0,3.66,0,7.33,0,11s-.09,7.33,0,11a11.07,11.07,0,0,0,2.13,6.11c4.54,6.43,7.2,7.79,15.15,11.5,4.6,2.15,9.58,2.56,14.07,4.69a1.11,1.11,0,0,0,.45.12c3.86.34,7.71.8,11.58,1s8.08.51,12-.13c2.55-.42,5.16-.36,7.58-1s4.82-1.2,7.21-1.88,5-.91,7.12-2.08c5-2.75,10.14-5.25,14-9.67a13.28,13.28,0,0,0,3.57-8.5c.25-9.5.17-19,0-28.5,0-2.54-1.37-4.65-2.81-6.85a23,23,0,0,0-7.53-7.24,33.53,33.53,0,0,0-8.76-4.2c-.44-.11-.73-.79-1.16-1.28l72.93-14.39c-.21,2.53-.56,5-.59,7.54-.08,7.5.17,15-.11,22.5A16,16,0,0,0,192.66,236c3.24,4.48,8,7.21,13,9.48a34.56,34.56,0,0,0,7.3,2.86,60.17,60.17,0,0,1,7.74,1.87,3.74,3.74,0,0,0,.88.28c3.7.35,7.39.81,11.09,1a63.76,63.76,0,0,0,11.48-.06c8.19-1.15,16.45-2.26,24-5.92A41.87,41.87,0,0,0,279.62,238a15.76,15.76,0,0,0,4.91-12c-.06-8-.19-16,.06-24a15.21,15.21,0,0,0-3.34-10.12,29.18,29.18,0,0,0-13.56-9.39c-1.13-.4-2.18-1-3.21-1.48l.16-1c24-4.27,47.68-9.56,71.82-14.07-1.43,3.17-.9,6.69-.94,10.18,0,3.67,0,7.33,0,11s-.08,7.33,0,11a11.1,11.1,0,0,0,2.14,6.11c4.53,6.43,7.22,7.8,15.14,11.5,4.6,2.14,9.58,2.57,14.07,4.69a1.43,1.43,0,0,0,.45.12c3.86.34,7.72.8,11.59,1s8.07.5,12-.13c2.54-.42,5.15-.36,7.58-1s4.81-1.2,7.2-1.87,5-.93,7.13-2.09c5-2.72,10.13-5.25,14-9.66a13.37,13.37,0,0,0,3.58-8.51c.25-9.49.17-19,0-28.49,0-2.53-1.36-4.65-2.81-6.85a23,23,0,0,0-7.52-7.25,34,34,0,0,0-8.76-4.2c-.44-.11-.74-.78-1.57-1.73a48.5,48.5,0,0,0,4.95-.26,39.39,39.39,0,0,0,4.37-1.25c1.1,1.23,2.15,2.52,3.31,3.69Q511.7,241.17,601,330.44c24.11,21.93,46.39,45.73,69.56,68.62s46,45.93,69.28,69.22c-6.08.39-11.51,2.6-17.32,3.34-3.38.44-6.74,1.42-10.16,2a70,70,0,0,0-9.65,2c-5.23,1.69-10.65,2.44-15.94,3.63-4.11.92-8.44,1.5-12.58,2.4s-8.56.39-12.3,2.82c-4.37-.25-8.36,1.75-12.66,2.09-2.76.22-5.46,1.22-8.18,1.92-1.68.44-3.23,1.19-5.09,1.07-1.52-.1-3.07.66-4.55,1.05-4.08,1.1-8.27,1.81-12.36,2.57-3.86.72-7.71,1.73-11.57,2.45-4.12.77-8.34,1.2-12.36,2.67-2.19.79-4.68.08-7.06,1.07-2.13.89-5.17.09-6.91,1.31-2.09,1.47-4.74-.39-6.3,1.8-4.36-.21-8.45,1.42-12.65,2.16-3.63.65-7.45.87-10.91,2.54-1.84.89-4.23-.38-6,1.3-6,.23-11.86,2-17.7,3.26-5.29,1.1-10.66,2.32-16,3.52-4.1.94-8.39,1.65-12.59,2.4a65.11,65.11,0,0,0-10.87,2.61c-1.92.69-4.23-.36-6,1.21-4.34-.06-8.38,1.67-12.65,2.19a48.94,48.94,0,0,0-8.57,2.17c-2.26.7-4.92-.29-6.8,1.64-2.65-.63-5.07.69-7.56,1.15-2.22.4-4.76.21-6.69,1.85-4.37-.26-8.48,1.32-12.65,2.15-7.5,1.48-15.24,2-22.45,4.85-4.37-.2-8.5,1.27-12.64,2.17-5.32,1.14-10.85,1.49-16,3.6-1.88.77-4,.49-6,1a69,69,0,0,1-8.78,1.8,61.63,61.63,0,0,0-8.86,1.62c-3.59,1-7.39,1.16-10.85,2.72-1.11.49-2.65,0-4,.11-1.06.14-2,.71-3.1,1-5.47,1.26-11.18,1.47-16.44,3.78-1.84.81-4,.24-6.05,1.08-2.43,1-5.37.61-8,1.21-3.37.76-6.81,1.27-10.11,2.18-1.21.34-2.42.55-3.65.79s-2.38.79-3.6,1c-6.12.79-12.18,2-18.21,3.22-5.3,1-10.63,2.43-15.93,3.59-4.12.9-8.4,1.63-12.59,2.4-3.61.66-7.42.92-10.89,2.58-1.79.86-4,.55-6,1a81.67,81.67,0,0,1-8.77,1.81,68.87,68.87,0,0,0-8.9,1.55c-6.24,1.66-12.65,2.39-18.85,4-5.28,1.36-10.78,1.64-15.92,3.74-2.28.94-5,.7-7.54,1.13a30.83,30.83,0,0,0-3.85,1.22l-2.37-2.36L30.33,458.81C8.31,439-11.8,417.3-32.86,396.55s-42-41.92-63-62.9-42-42-63-62.92C-159.68,269.82-160.73,269-162,268ZM204.51,405c0,4.49,0,9,0,13.48a9.41,9.41,0,0,0,.58,3.24c1.84,5.08,5.86,9.75,10.44,11.77,5.37,2.38,10.45,5.5,16.49,6,4.25,2.56,9.22,2.37,13.77,2.73,5.94.47,12,.88,18.09-.56,3.48-.82,7.09-1.33,10.64-2.08a42.19,42.19,0,0,0,22.14-11.75,12.7,12.7,0,0,0,3.77-8.91c.18-9.32,0-18.64.1-28a10,10,0,0,0-1.56-5.34,27,27,0,0,0-9.44-9.32c-3.53-2-7.36-3.21-10.88-5.14a10,10,0,0,0-2.21-.69,25.29,25.29,0,0,0-3.58-1c-1.3-.18-3,.42-3.87-.23-1.89-1.45-4.09,0-5.64-.91-1.9-1.13-3.75-.83-5.64-.88-3.16-.07-6.33-.15-9.49,0a86.43,86.43,0,0,0-9.07,1c-2.3.37-4.52,1.2-6.82,1.59a46.8,46.8,0,0,0-10.11,3.33c-4.81,2-9.53,3.95-13.23,7.93a15.4,15.4,0,0,0-4.51,11.15C204.56,396.68,204.51,400.85,204.51,405Zm243-29.92c0-4.67.12-9.33-.06-14a10.85,10.85,0,0,0-1.35-5.38,28.29,28.29,0,0,0-9.44-9.37c-3.52-2-7.32-3.27-10.89-5.09a19.4,19.4,0,0,0-2.18-.78c-2.45-.89-5.35-.33-7.47-1.24s-4.49.15-6.08-.93c-2.11-1.43-4.15-.67-6.18-.78a55.46,55.46,0,0,0-10.47.06,102.7,102.7,0,0,0-10.21,1.74c-2.73.67-5.45,1.23-8.17,2a57.07,57.07,0,0,0-14.4,6.23c-5.53,3.43-9.29,8.22-9.14,15.33.17,8.32,0,16.64,0,25a10.48,10.48,0,0,0,.3,3.37c1.84,5.09,4.87,9.37,9.81,11.79,5.54,2.7,10.94,5.9,17.3,6.45,1.19,2,3.54.57,5.3,1.82,1.45,1,4.24,0,6.14.71s3.88.37,5.79.44a88.36,88.36,0,0,0,25.76-2.85c7.92-2.09,15-5.23,21-11a14.73,14.73,0,0,0,4.63-11.08C447.52,383.41,447.51,379.25,447.51,375.09Zm50-30.35c0,4,.17,8,0,12-.36,7.13,3.62,12,8.85,15.61,4.12,2.82,9,4.6,13.89,6.14,1.5.47,3.09.78,4.52,1.2s3,.26,4.07.92a6.5,6.5,0,0,0,4.64.82c1.74-.22,3,1,4.59,1.05,3.16,0,6.33.13,9.49,0s6.21.82,9.07-1c4.09.48,7.81-1.1,11.67-2a42.5,42.5,0,0,0,20.53-10.75,15.09,15.09,0,0,0,4.73-11.55c0-8.16,0-16.32,0-24.47.05-7-3.87-11.53-9.21-15.26-3.84-2.68-8.16-4.35-12.44-6.14a11.14,11.14,0,0,0-1.65-.84c-5.36-1.25-10.84-1.85-16.25-2.88-3.7-.71-7.64-.27-11.46-.1s-7.55.09-11,1.17c-2,.62-4,.53-6,1.18-3.37,1.12-6.72,2.2-10,3.51-5,2-9.81,4.13-13.63,8.17a15,15,0,0,0-4.35,10.71C497.5,336.42,497.51,340.58,497.51,344.74Zm-278-19.53c0-4.5,0-9,0-13.49a13,13,0,0,0-.71-3.67c-1.58-5.1-5.05-8.29-9.25-11.11a56.9,56.9,0,0,0-10-4.9,47.17,47.17,0,0,0-4.79-1.74c-2.25-.67-4.76-.06-6.54-1-2.16-1.14-4.47.05-6.09-.95-2.27-1.41-4.46-.7-6.66-.83-3.32-.19-6.66,0-10,0-1.16,0-2.78-.47-3.39.11-1.36,1.28-2.8.66-4.18.91-1.54.27-3.06.65-4.58,1-2.29.51-4.6.93-6.85,1.55a46,46,0,0,0-14.23,6.56c-5.25,3.69-9.1,8.49-8.82,15.68.31,7.82.23,15.65,0,23.47-.13,4.83,1.73,8.63,4.84,12,4.62,5,10.78,7.32,16.87,9.9,1.93.82,4,.37,5.86,1.62,1.56,1,3.92,1.06,5.95,1.17s4.11.77,6.09.91c5.63.4,11.39.73,16.94,0a106.15,106.15,0,0,0,14.3-2.7c7.7-2.15,14.68-5.26,20.5-10.85a15,15,0,0,0,4.72-11.56C219.49,333.2,219.51,329.2,219.51,325.21Zm66,160.67c0,4.66-.12,9.33.06,14a12.67,12.67,0,0,0,1.33,5.41c3.18,5.85,8.54,9.53,14.37,12a77.76,77.76,0,0,0,11,3.69,107.67,107.67,0,0,0,14.43,2.37,56.68,56.68,0,0,0,14.95,0,132.17,132.17,0,0,0,14.3-2.69c8.45-2.19,15.93-5.68,22-12a12.63,12.63,0,0,0,3.48-8.52c.25-9.49.15-19,0-28.47a9.26,9.26,0,0,0-1.34-4.89c-2.52-3.69-5.35-7-9.45-9.36-3.52-2-7.32-3.27-10.89-5.09a19.4,19.4,0,0,0-2.18-.78c-2.45-.89-5.23-.44-7.51-1.18a37.9,37.9,0,0,0-9.23-1.67,90.9,90.9,0,0,0-29.75,2.73,71.31,71.31,0,0,0-10.85,4,31.41,31.41,0,0,0-10.15,6.93,15.57,15.57,0,0,0-4.59,11.12C285.5,477.56,285.51,481.72,285.51,485.88Zm131-221c0,4.66-.12,9.33.06,14a12.75,12.75,0,0,0,1.33,5.42c3.1,5.68,8.28,9.35,14,11.79,3.46,1.49,6.92,3.82,11.07,3.41,1.19,2,3.55.57,5.3,1.82,1.46,1,4.24,0,6.14.71s3.88.37,5.8.44a89,89,0,0,0,25.75-2.85c8.45-2.2,15.93-5.67,22-12a12.17,12.17,0,0,0,3.45-8c.3-9.64.17-19.3.05-29a9.26,9.26,0,0,0-1.34-4.89c-2.52-3.69-5.35-7-9.45-9.36-3.53-2-7.33-3.27-10.89-5.09a20.14,20.14,0,0,0-2.18-.78,17.92,17.92,0,0,0-7.58-1c-1.21-1.75-3-.71-4.58-1a35.77,35.77,0,0,0-5.08-1,94.53,94.53,0,0,0-28.25,2.84,68.88,68.88,0,0,0-10.85,4,31.41,31.41,0,0,0-10.15,6.93,15.57,15.57,0,0,0-4.59,11.12C416.5,256.56,416.51,260.72,416.51,264.88Zm-344,90.28c0-4.49,0-9,0-13.48a9.25,9.25,0,0,0-.76-3.67,22.78,22.78,0,0,0-8.85-10.79,68.54,68.54,0,0,0-11.63-5.72c-1-.42-2.07-.63-3.07-1-2.29-.91-5-.34-7-1.21-2.19-1-4.53.15-6.09-.91-2.27-1.54-4.47-.64-6.67-.81-3-.23-6-.06-9-.05-1.16,0-2.77-.45-3.39.13-1.36,1.29-2.8.61-4.19.87s-3,.65-4.58,1c-2.28.51-4.57,1-6.84,1.57a43.12,43.12,0,0,0-14.22,6.55c-5.2,3.68-9.13,8.46-8.8,15.71.36,7.81.24,15.65,0,23.47-.13,4.82,1.79,8.59,4.86,12,4.47,5,10.41,7.57,16.49,9.6,4.73,1.59,9.55,3.32,14.71,3.11.5,0,1.15-.21,1.47,0,2.86,2.14,6.08.63,9.11.9s6.46.66,9.45-.07c4.56-1.12,9.25-1.44,13.8-2.75,7.67-2.2,14.68-5.27,20.5-10.88a14.69,14.69,0,0,0,4.67-11.07C72.52,363.49,72.51,359.33,72.51,355.16Zm601,71.07c0-4-.17-8,0-12,.27-5-1.83-8.93-5.15-12.36-4.23-4.37-13.3-8.86-19.63-10.53-2.24-.59-4.73-.13-6.52-1.05-2.16-1.11-4.51.07-6.08-1-2.12-1.4-4.16-.85-6.16-.79-5,.14-10-.49-15.11.75-3.47.85-7.09,1.33-10.63,2.14-8.11,1.86-15.4,5.14-21.39,11.11a14.49,14.49,0,0,0-4.36,10.69c0,8.16.15,16.32-.07,24.47-.13,4.82,1.73,8.63,4.83,12,4.6,5,10.67,7.57,16.93,9.74,1.48.52,3.08.79,4.51,1.21s3,.26,4.07.92a6.57,6.57,0,0,0,4.65.82c1.73-.22,3,1,4.58,1.05,3.17,0,6.34.13,9.49,0s6.21.82,9.08-1c4.08.48,7.8-1.1,11.66-2a42.26,42.26,0,0,0,20.54-10.74,15,15,0,0,0,4.73-11.54C673.49,434.22,673.51,430.23,673.51,426.23Zm-520,9.19c0-4.16-.09-8.32,0-12.48.19-7.06-3.81-11.66-9.05-15.42-3.9-2.8-8.4-4.56-12.83-6.38a21,21,0,0,0-2.22-.66,28.39,28.39,0,0,0-3.59-1c-1.29-.19-3,.4-3.86-.25-1.74-1.37-3.68-.1-5.16-.87-1.87-1-3.71-.9-5.63-.91-3.82,0-7.65,0-11.48,0-.83,0-2-.34-2.44.07-1.44,1.27-3.07.75-4.64,1a48.8,48.8,0,0,0-5.07,1c-2.11.51-4.19,1.14-6.28,1.72a47.42,47.42,0,0,0-13,5.95c-5.89,3.76-9.89,8.43-9.77,15.89.14,8,.17,16,0,24-.12,4.64,1.76,8.28,4.68,11.56,4.55,5.11,10.65,7.66,16.89,9.84,2.78,1,6,1.24,8.55,2.29,3.11,1.25,6.54-.44,9.25,1.76,5.5,0,11.1.68,16.45-.21,4.41-.73,9.16-.45,13.27-2.79a39.48,39.48,0,0,0,22.15-11.66,13.42,13.42,0,0,0,3.78-9.41C153.6,444.08,153.51,439.75,153.51,435.42Zm374,21c0-4.17-.09-8.33,0-12.49.2-7.06-3.81-11.66-9-15.42-3.9-2.8-8.39-4.57-12.82-6.38-.72-.29-1.48-.44-2.23-.66a28.7,28.7,0,0,0-3.58-1c-1.3-.19-3,.4-3.86-.25-1.74-1.37-3.69-.1-5.17-.87-1.86-1-3.71-.9-5.62-.91-3.83,0-7.66,0-11.49,0-.83,0-2-.34-2.44.07-1.44,1.27-3.07.75-4.63,1a46,46,0,0,0-5.08,1c-2.11.51-4.19,1.14-6.28,1.71a47.82,47.82,0,0,0-13,6c-5.9,3.76-9.9,8.43-9.78,15.89.14,8,.18,16,0,24-.12,4.64,1.76,8.28,4.68,11.56,4.54,5.11,10.65,7.66,16.89,9.84,2.78,1,5.94,1.24,8.54,2.29,3.11,1.25,6.54-.44,9.26,1.76,5.49,0,11.1.68,16.44-.21,4.42-.73,9.17-.45,13.28-2.79a39.58,39.58,0,0,0,21.8-11.3,13.93,13.93,0,0,0,4.16-10.27C527.53,464.75,527.51,460.59,527.51,456.43ZM234.51,516c0-4.5-.11-9,.05-13.48a10.28,10.28,0,0,0-1.57-5.85,27,27,0,0,0-9.44-9.31c-3.53-2-7.36-3.21-10.88-5.14a10,10,0,0,0-2.21-.69,25.66,25.66,0,0,0-3.58-1c-1.3-.18-3,.42-3.87-.24-1.42-1.13-2.82-.54-4.2-.8-1.53-.3-3.08-1-4.58-.93-6,.37-12.12-1.14-18.08.89-1.61.55-3.37-.27-5.17.85-1.45.9-3.83-.24-5.47,1.19-4.41,0-8,2.39-11.79,4.1a30.63,30.63,0,0,0-10.41,7.51,13.66,13.66,0,0,0-3.74,8.94c-.17,9.32,0,18.64-.09,28a11.44,11.44,0,0,0,1.53,5.36c3,5.76,8.5,8.84,13.86,12,2.37-.23,4.07,1.48,6.06,2.26s4.49.19,6.21,1.88c5.24.52,10.34,2,15.65,2,3.5,0,7,0,10.49,0a6.84,6.84,0,0,0,2.48,0c4.26-1.75,8.9-1.58,13.31-2.77,5.86-1.59,16.14-6.33,20.25-10.35a16.38,16.38,0,0,0,5.21-12.88C234.43,523.62,234.51,519.79,234.51,516Zm131-221c0-4.66.13-9.33-.06-14a10.8,10.8,0,0,0-1.4-5.37,28.9,28.9,0,0,0-9.45-9.34c-3.25-1.87-6.86-2.85-10-4.81a20.36,20.36,0,0,0-3.51-1.17c-2.38-.95-5.08-.06-7-1.08s-4.05,0-5.64-.87c-2.05-1.13-4.08-.95-6.13-.87-5.19.21-10.37-.44-15.6.81-3.33.79-6.76,1.35-10.14,2.07-8.16,1.74-17.7,6.55-22.19,11.65a13.85,13.85,0,0,0-3.77,8.93c-.2,9.31-.06,18.64-.07,28,0,2.29,1,4.2,2.08,6.14,2.82,5.15,7.56,7.92,12.53,10.55a58.8,58.8,0,0,0,17.59,5.64c4.54.79,9.25,1.75,14,1.27,3.14-.31,6.47.54,9.45-.2,4.57-1.13,9.25-1.48,13.82-2.68,6.08-1.59,16.51-6.44,20.62-10.67a16,16,0,0,0,4.89-12C365.47,303,365.51,299,365.51,295Z" transform="translate(167.38 -145.29)"/><path class="cls-1" d="M159.69,591.25c2.23-3,5.64-.64,7.78-2.77,4.36.18,8.46-1.39,12.63-2.19A109.1,109.1,0,0,0,191,583.73c2-.61,4.33-.81,6.5-1.24,5.83-1.17,11.75-1.86,17.41-3.82,1.91-.66,4-.1,6.07-1.08,1.78-.85,4-.76,6-1.11,1.86-.32,3.71-.73,5.59-1,2-.27,4.09-.77,6-1.21,3.19-.74,6.39-1.45,9.61-2.09s6.2-1.18,9.24-1.88c3.39-.76,6.85-1,10.21-1.81s6.58-2.34,10.17-2c2.08-1.78,4.85-.85,7.22-1.87,2.11-.92,4.79-.45,7-1.2,3.56-1.21,7.34-1.29,10.88-2.69,2.44-1,5.34-.73,8-1.28s5.3-.65,7.8-1.66c1.91-.78,4.25.41,6-1.3A53.75,53.75,0,0,0,338,553.6c1.17-.44,2.65,0,3.95-.15a23.82,23.82,0,0,0,3.59-1c5.38-1.64,11.05-1.94,16.44-3.75a62.72,62.72,0,0,1,6.49-1.24c7.5-1.58,15.14-2.45,22.48-4.84,1.91-.63,4-.57,6.06-1,6-1.37,12.23-1.76,18.18-3.28,3.6-.91,7.32-1.37,10.86-2.69,1.81-.68,4-.62,6-1.07,5.95-1.32,12-2,17.88-3.93,2.52-.85,5.37-.66,8-1.21s5.29-.66,7.8-1.68c1.9-.77,4-.52,6-1.09,4.34-1.2,8.87-1.68,13.26-3,2-.6,4.35-.73,6.53-1.18,5.22-1.09,10.53-1.85,15.62-3.36,2.26-.68,4.63-.45,6.85-1.54,1.77-.87,4-.76,6-1.11,1.87-.32,3.73-.66,5.59-1,2-.36,3.92-1.12,6.08-1.12,1.74,0,3.42-1.42,5.22-1.74,2-.36,4-.57,6.06-1,6-1.34,12.06-1.94,17.89-3.93,1.9-.65,4-.13,6.06-1.07,1.8-.83,4-.76,6-1.11,1.86-.32,3.71-.72,5.59-1s4.1-.74,6-1.19c4.9-1.15,9.84-2,14.75-3,5.62-1.18,11.35-2,16.93-3.6,2.64-.76,5.52-1.2,8.29-1.76s5.64-.84,8.41-1.46c3.54-.79,7.18-1.29,10.62-2.19s7.21-.68,10.33-2.73c4.4.48,8.32-1.82,12.64-2.2a70.12,70.12,0,0,0,15.6-3.28c2.11-.69,4.66.52,6.33-1.57,6.37-.93,12.62-2.38,18.89-3.79,4.11-.92,8.44-1.51,12.58-2.39,5.31-1.12,10.84-1.49,15.94-3.67,1-.43,2.3,0,3.44-.18a5.82,5.82,0,0,0,1.63-.78c.71,3.89.93,35.93.3,49.8-2.78.66-5.64,1.37-8.52,2-1.85.4-3.83.4-5.56,1.07-3,1.16-6.19,1.18-9.16,2.06a110.27,110.27,0,0,1-12.33,2.65c-5.75,1-11.47,2.33-17.17,3.46-7,1.39-14.23,2.09-21,4.77-4.35-.18-8.49,1.3-12.63,2.18-5.31,1.13-10.79,1.62-15.94,3.65a23.64,23.64,0,0,1-6,1c-4,.41-7.76,1.58-11.62,2.32s-7.66,1.18-11.38,2.6a33.2,33.2,0,0,1-6.49,1.22c-6.1.93-12.22,1.94-18.21,3.23S573,555.08,567,556.6c-5.29,1.32-10.78,1.68-15.94,3.72-1.79.71-4,.59-6,1.06-4.72,1.09-9.52,1.88-14.27,2.94-2.73.61-5.53,1.18-8.3,1.75s-5.64.81-8.41,1.45c-3.53.81-7.18,1.28-10.62,2.18s-7.05,1-10.39,2.6c-1.7.79-4,.62-6,1.09-4.73,1.08-9.52,1.92-14.27,2.93-2.77.59-5.45,1.28-8.16,2.07s-5.49.37-8,1.19c-3.36,1.09-6.84,1.08-10.2,1.89a88.76,88.76,0,0,1-9.65,2.18c-1.83.24-4.11.17-5.5,1-1.82,1.11-3.84,0-5.09,1-1.91,1.45-3.93.21-5.67.9-5,2-10.44,1.69-15.42,3.8-1.74.73-4,.5-6,1.07-2.43.69-5.41.09-7.46,1.26-2.25,1.28-5-.24-6.77,1.82-2.93-.25-5.57,1-8.33,1.61s-5.66.78-8.42,1.43c-3.53.85-7.2,1.24-10.62,2.18s-7,1.06-10.38,2.63c-2.34,1.1-5.36.63-8,1.21s-5.26.68-7.79,1.7a13.74,13.74,0,0,1-4.68.74c-4,.12-7.64,1.78-11.43,2.68-7.3,1.74-14.91,2-22,4.67-1.81.69-4,.7-6,1-3.44.53-6.73,1.77-10.16,2.07s-6.79,1.34-10.18,1.93c-2.81.48-5.54,1.14-8.3,1.76s-5.66.77-8.42,1.43c-3.54.83-7.2,1.23-10.62,2.17s-7.24.62-10.32,2.78c-4.2-.22-8.13,1.29-12.15,2.08-5.52,1.08-11.14,1.75-16.48,3.62-1.95.68-4.26-.43-6,1.3-5.92,1-11.92,1.67-17.73,3.11a107.31,107.31,0,0,1-14.74,3c-.65.07-1.25.67-2.23,1.22Z" transform="translate(167.38 -145.29)"/><path class="cls-1" d="M156.36,589.41v48.42l-3.68-3.68L30.4,511.87c-17.29-15.07-32.7-32.05-49-48.1s-32.31-32.24-48.45-48.38l-48.77-48.77-48.53-48.53V270.82c.89-.61,1,.45,1.41.72a10.41,10.41,0,0,1,1.43,1.39q76.68,76.69,153.4,153.35C46.7,480.87,101.74,535.26,156.36,589.41Z" transform="translate(167.38 -145.29)"/><path class="cls-1" d="M339.67,165.71c3.28-2.75,5.6-5.93,9-8.05,3.89-2.39,8.16-3.66,12.37-5.13s8.85-1.85,13.25-2.93c2.51-.62,5.32.1,8-.16a55,55,0,0,1,16,1.24c8,1.56,15.89,4.19,22.71,8.94a15.36,15.36,0,0,1,6.37,9.77,11.61,11.61,0,0,1-3,9.67c-3.48,4.07-8.25,6.25-13,8.42-4,1.81-8.35,2.26-12.35,3.94a3.83,3.83,0,0,1-1,.07c-3.69.33-7.38.79-11.07,1s-7.44.59-11-.1c-4.76-.93-9.64-.85-14.33-2.72-4.28-1.71-8.72-2.93-12.9-5-3.88-2-7-4.58-8.84-8.32-1.14-2.34-2.77-5.15-.75-8.08C339.65,167.6,339.53,166.65,339.67,165.71Z" transform="translate(167.38 -145.29)"/><path class="cls-1" d="M193.51,195.88c3.15-2.53,5.54-5.88,9.09-8.13,4-2.55,8.45-3.78,12.83-5.25,2.06-.68,4.25-1,6.27-1.76s4.56.68,6.53-1.2c.43-.41,1.6-.06,2.43-.06,3.5,0,7-.1,10.49,0a70.72,70.72,0,0,1,29,7.22c3.62,1.77,7,4.07,9.21,7.91,2.75,4.73,2.83,10.29-.82,14.34s-8.48,6.38-13.42,8.57c-3.86,1.71-8.06,2.17-11.92,3.79a1.69,1.69,0,0,1-.43.15,174.24,174.24,0,0,1-24.06,1c-2-1.39-4.48-.5-6.54-1.12-2.22-.67-4.59-.69-6.74-1.81-1.89-1-4.12-1.28-6.12-2.09-5.5-2.23-11.09-4.23-14.33-9.94-1.87-3.3-3.5-6.33-1.46-10.09C193.69,197.05,193.51,196.45,193.51,195.88Z" transform="translate(167.38 -145.29)"/><path class="cls-1" d="M46.51,225.94c3.07-2.48,5.42-5.83,9-8.09,3.87-2.46,8.15-3.69,12.3-5.31,2.16-.84,4.61-.91,6.8-1.7s4.9.48,6.92-1.36h17c2,1.55,4.39.67,6.57,1.06a56.42,56.42,0,0,1,6.67,2c2.06.64,4.17,1.19,6.16,2,5.48,2.28,11.13,4.27,14.27,10,1.46,2.67,2.74,4.85,2.3,7-.56,2.72-1.14,5.5-3.16,7.68-3.64,3.9-8.29,6.17-13.06,8.27-3.85,1.69-8,2.32-12,3.71a3.64,3.64,0,0,1-.89.27c-3.69.34-7.37.8-11.07,1s-7.76.57-11.46-.1c-4.76-.87-9.64-1-14.31-2.75-4.32-1.64-8.86-2.69-12.87-5.12-3-1.8-5.71-3.61-7.68-6.8-2.19-3.51-3.26-6.71-1.5-10.57A3.68,3.68,0,0,0,46.51,225.94Z" transform="translate(167.38 -145.29)"/><path class="cls-1" d="M-56.09,282.75c-5.29-.44-10.41-.37-15.29-1.42a118.42,118.42,0,0,1-11.92-3.67A50.26,50.26,0,0,1-94,272.26c-3.3-2-5.29-5.62-6.29-9.28a8.55,8.55,0,0,1,2.31-8.4c2.42-2.39,4.65-4.94,7.62-6.83,4-2.56,8.45-3.78,12.83-5.25,2.06-.68,4.25-1,6.27-1.76s4.56.68,6.53-1.2c.43-.41,1.6-.06,2.44-.06,3.49,0,7-.1,10.48,0a70.72,70.72,0,0,1,29,7.22c3.62,1.77,7,4.08,9.21,7.91,2.75,4.73,2.83,10.29-.82,14.34s-8.48,6.38-13.42,8.57c-3.86,1.71-8.06,2.17-11.92,3.78a3.18,3.18,0,0,1-.93.16Z" transform="translate(167.38 -145.29)"/><path class="cls-1" d="M192.51,209.33c2.94,4.94,7,6.81,10.57,9,3.35,2,7.39,3.07,11.24,4.1s7.87,2.65,12.13,2.06c5.74,2.21,11.71.82,17.55.87,4,0,8.13-1,12.13-1.92,3.76-.84,7.67-1.63,11.08-3.32,5-2.49,10.16-5.06,14.3-10.31,0,6.91.41,13.06-.14,19.11-.37,4-3.3,7.12-6.58,9.57a48,48,0,0,1-13.7,6.64,72.67,72.67,0,0,1-12,2.56,85.05,85.05,0,0,1-17.07.72,67.67,67.67,0,0,1-29.17-7.84,21.22,21.22,0,0,1-8.93-8.23,10,10,0,0,1-1.36-4.4C192.42,222.16,192.51,216.38,192.51,209.33Z" transform="translate(167.38 -145.29)"/><path class="cls-1" d="M45.51,240.82c3,3.52,7,5.68,10.78,7.46a68.09,68.09,0,0,0,12.15,4.45c4.75,1.2,9.56,1.87,14.32,2.6a56.2,56.2,0,0,0,14.43,0,89.19,89.19,0,0,0,20.16-4.27c6.31-2.25,12.05-5.48,16.59-10.55.11.07.26.11.34.21a.7.7,0,0,1,.22.4c0,6.15,0,12.31,0,18.93a48.72,48.72,0,0,1-4,5.83c-3.33,3.67-7.88,5.54-12.3,7.57-3.82,1.76-8,2.32-11.93,3.74a4,4,0,0,1-.89.24c-3.85.34-7.7.8-11.56,1s-7.73.52-11.46-.07c-6.44-1-12.94-1.88-19.07-4.51a67.31,67.31,0,0,1-10.33-5.25,14.18,14.18,0,0,1-6.56-8.76,12,12,0,0,1-.83-2.64C45.47,251.76,45.51,246.29,45.51,240.82Z" transform="translate(167.38 -145.29)"/><path class="cls-1" d="M-11.6,269.79v20.47a46.06,46.06,0,0,1-3.92,5.67c-3.34,3.68-7.88,5.55-12.3,7.57-3.83,1.75-8,2.31-11.93,3.74a3.52,3.52,0,0,1-.9.24c-3.68.34-7.37.8-11.06,1s-7.74.54-11.45-.1c-4.48-.75-9.07-.86-13.44-2.42-4.2-1.5-8.64-2.46-12.52-4.68-3.52-2-7.08-4-9.2-7.93a14.52,14.52,0,0,1-2.09-6.11c-.24-5.45-.08-10.93-.08-17.23a44,44,0,0,0,9.14,7.36,49.17,49.17,0,0,0,11.92,5c4.06,1,8.15,2.93,12.59,2.19,5.75,2.11,11.75,1.17,17.54.85A70,70,0,0,0-25.63,280C-20.57,277.8-15.6,275.1-11.6,269.79Z" transform="translate(167.38 -145.29)"/><path class="cls-1" d="M338.51,179.53c2.91,4.5,6.64,6.46,10.18,8.46a42.71,42.71,0,0,0,11.6,4.46c4,.9,7.88,2.61,12.14,2,5.74,2.12,11.71.85,17.55.87,4,0,8.13-1,12.13-1.92,3.76-.84,7.68-1.62,11.09-3.3,5-2.5,10.17-5.08,14.31-10.34,0,6.91.34,13-.12,19.11-.3,3.94-3.14,6.94-6.2,9.34-4,3.14-14.33,7.19-19.51,8.29A103.23,103.23,0,0,1,389,218.4c-4.45.38-9.09.72-13.43-.09-4.58-.86-9.29-.84-13.83-2.66-4.27-1.71-8.71-2.92-12.87-5.08a20.78,20.78,0,0,1-8.94-8.23,9.94,9.94,0,0,1-1.37-4.39C338.42,192.18,338.51,186.4,338.51,179.53Z" transform="translate(167.38 -145.29)"/><path d="M204.51,405c0-4.16.05-8.33,0-12.49A15.4,15.4,0,0,1,209,381.37c3.7-4,8.42-5.92,13.23-7.93a46.8,46.8,0,0,1,10.11-3.33c2.3-.39,4.52-1.22,6.82-1.59a86.43,86.43,0,0,1,9.07-1c3.16-.17,6.33-.09,9.49,0,1.89.05,3.74-.25,5.64.88,1.55.91,3.75-.54,5.64.91.84.65,2.57,0,3.87.23a25.29,25.29,0,0,1,3.58,1,10,10,0,0,1,2.21.69c3.52,1.93,7.35,3.14,10.88,5.14a27,27,0,0,1,9.44,9.32,10,10,0,0,1,1.56,5.34c-.08,9.32.08,18.64-.1,28a12.7,12.7,0,0,1-3.77,8.91,42.19,42.19,0,0,1-22.14,11.75c-3.55.75-7.16,1.26-10.64,2.08-6.08,1.44-12.15,1-18.09.56-4.55-.36-9.52-.17-13.77-2.73-6-.51-11.12-3.63-16.49-6-4.58-2-8.6-6.69-10.44-11.77a9.41,9.41,0,0,1-.58-3.24C204.48,414,204.51,409.5,204.51,405Zm4-18c0,.66.28,1.67,0,1.94-1.65,1.34-1.23,3.26-.84,4.61a17.69,17.69,0,0,0,6.74,10,36.63,36.63,0,0,0,5.8,2.92,73.34,73.34,0,0,0,14.4,5,82,82,0,0,0,15.64,2.08c5.91.22,11.72-.56,17.57-1.06a5.12,5.12,0,0,0,1.42-.19c3.89-1.5,8.07-2.05,11.92-3.77,4.93-2.19,9.74-4.48,13.43-8.57a19.93,19.93,0,0,0,3-7.76c.07-2.47-1.12-4.44-2.23-6.58-2.06-4-5.58-6.14-9.2-7.9-5.29-2.57-10.73-5-16.81-5.23-1.88-1.92-4.56-.15-6.45-1.29-2.39-1.44-4.83-.63-7.21-.63-4.69,0-9.36-.17-14.1.74a109,109,0,0,0-12.29,3c-4,1.26-8.1,2.24-11.38,5.14-.45.4-1.51.12-1.9.14Zm-1,13.82c0,6.05-.08,11.18,0,16.3.11,5.3,2.61,9.35,6.89,12.38,1.91,1.35,4.22,1.92,6.2,3.06,3.81,2.18,8.09,3,12.09,4.57s8.68,1.55,13,2.22a58.9,58.9,0,0,0,12.94.08,88.23,88.23,0,0,0,12.67-1.88c5.57-1.23,15.26-4.83,19.59-8.1,3.1-2.33,6.07-5.34,6.43-9.21.57-6.2.15-12.5.15-18.75-3.38,4.35-8.08,6.41-12.39,8.67-3.34,1.76-7,3.45-11.08,3.33-1.48,1.8-3.86.84-5.73,1.86-1.56.85-3.8.42-5.73.58-2.09.17-4.17.41-6.26.56a66.14,66.14,0,0,1-18.5-1.18,74.74,74.74,0,0,1-15-4.61C217.39,408.28,212,406.2,207.51,400.81Z" transform="translate(167.38 -145.29)"/><path d="M447.51,375.09c0,4.16,0,8.32,0,12.48a14.73,14.73,0,0,1-4.63,11.08c-5.93,5.72-13,8.86-21,11a88.36,88.36,0,0,1-25.76,2.85c-1.91-.07-3.79.29-5.79-.44s-4.69.33-6.14-.71c-1.76-1.25-4.11.22-5.3-1.82-6.36-.55-11.76-3.75-17.3-6.45-4.94-2.42-8-6.7-9.81-11.79a10.48,10.48,0,0,1-.3-3.37c0-8.33.12-16.65,0-25-.15-7.11,3.61-11.9,9.14-15.33a57.07,57.07,0,0,1,14.4-6.23c2.72-.78,5.44-1.34,8.17-2a102.7,102.7,0,0,1,10.21-1.74,55.46,55.46,0,0,1,10.47-.06c2,.11,4.07-.65,6.18.78,1.59,1.08,3.89,0,6.08.93s5,.35,7.47,1.24a19.4,19.4,0,0,1,2.18.78c3.57,1.82,7.37,3.07,10.89,5.09a28.29,28.29,0,0,1,9.44,9.37,10.85,10.85,0,0,1,1.35,5.38C447.63,365.76,447.51,370.42,447.51,375.09Zm-91.85-18.25c-.21,2.37-2.06,4.65-1.08,7,1.58,3.72,3.2,7.43,7,9.77,1.74,1.07,3.61,1.85,5.39,2.74,3.85,1.93,8.14,2.89,12.13,4.46,4.22,1.67,8.64,1.55,12.91,2.5,3.8.86,7.95.31,11.94.15s7.72-.63,11.58-1c.16,0,.37,0,.48,0,1.81-1.46,4.17-1.11,6.2-1.92s4.59-1,6.61-2.1c4.46-2.32,9.14-4.35,12.56-8.31,2.52-2.93,3.13-7.26,2.17-11.31-1.23-5.18-4.93-8-9.14-10.25a63.37,63.37,0,0,0-11.44-4.9,55.64,55.64,0,0,0-6.49-1.36c-4.38-.77-8.7-2-13.19-1.78-4.86.19-9.68-.17-14.61.76A120.19,120.19,0,0,0,376.77,344c-4.06,1.23-8.48,2.17-11.75,5.42-.42.43-1.53.17-2.11.22Zm88.68,34.42V371c-4,5-9.11,7.49-14.09,10.09-2.41,1.27-5.3,1.63-8,2.37-2.54.69-5.12,1.93-7.65,1.85-3-.1-5.64,1.42-8.57,1.16-5.68-.49-11.35.52-17.1-.81-3.48-.8-7.08-1.47-10.63-2.05-4.4-.72-8.25-2.72-12.23-4.29-4.2-1.66-8.31-3.93-11.57-8.87,0,6.21,0,11.32,0,16.42,0,5.39,2.73,9.38,6.73,12.54a25.74,25.74,0,0,0,5.73,3c4,1.73,8.18,2.8,12.16,4.39,4.22,1.68,8.63,1.55,12.9,2.5,3.8.86,8,.31,11.93.15s7.71-.63,11.57-1c.16,0,.38.06.48,0,1.79-1.52,4.17-1.1,6.19-1.93s4.59-1,6.6-2.11c4.29-2.26,9-4,12.17-7.95A51.62,51.62,0,0,0,444.34,391.26Z" transform="translate(167.38 -145.29)"/><path d="M497.51,344.74c0-4.16,0-8.32,0-12.48a15,15,0,0,1,4.35-10.71c3.82-4,8.59-6.17,13.63-8.17,3.31-1.31,6.66-2.39,10-3.51,2-.65,4-.56,6-1.18,3.46-1.08,7.31-1,11-1.17s7.76-.61,11.46.1c5.41,1,10.89,1.63,16.25,2.88a11.14,11.14,0,0,1,1.65.84c4.28,1.79,8.6,3.46,12.44,6.14,5.34,3.73,9.26,8.26,9.21,15.26,0,8.15,0,16.31,0,24.47a15.09,15.09,0,0,1-4.73,11.55,42.5,42.5,0,0,1-20.53,10.75c-3.86.87-7.58,2.45-11.67,2-2.86,1.79-6,.82-9.07,1s-6.33.06-9.49,0c-1.58,0-2.85-1.27-4.59-1.05a6.5,6.5,0,0,1-4.64-.82c-1-.66-2.68-.5-4.07-.92s-3-.73-4.52-1.2c-4.86-1.54-9.77-3.32-13.89-6.14-5.23-3.59-9.21-8.48-8.85-15.61C497.68,352.74,497.51,348.74,497.51,344.74Zm4-17.75c0,.67.28,1.67-.05,1.94-1.65,1.34-1.23,3.26-.84,4.61a17.69,17.69,0,0,0,6.74,10,36.63,36.63,0,0,0,5.8,2.92,72.69,72.69,0,0,0,14.4,5,83,83,0,0,0,15.64,2.08c5.91.22,11.72-.56,17.57-1.06a5.53,5.53,0,0,0,1.42-.19c3.9-1.5,8.07-2.05,11.92-3.77,4.93-2.19,9.74-4.48,13.43-8.57a20,20,0,0,0,3-7.76c.07-2.48-1.12-4.44-2.23-6.58-2.06-4-5.58-6.15-9.2-7.91-5.29-2.56-10.73-5-16.81-5.22-1.88-1.93-4.56-.15-6.45-1.29-2.39-1.44-4.83-.63-7.21-.63-4.7,0-9.36-.17-14.1.74a109,109,0,0,0-12.29,3c-4,1.26-8.11,2.23-11.37,5.15-.37.32-1.27,0-1.82,0Zm89,34q0-9.53,0-19c0-.12-.21-.24-.5-.55-3,3.79-7.17,6-11.29,8.33-3.7,2.07-7.73,3-11.85,4-2.41.53-4.75,1.46-7.24,1.74-2.7.3-5.4,1-8.07.92-5.52-.19-11,.56-16.6-.73-3.48-.8-7.08-1.45-10.63-2.05-4.39-.74-8.26-2.7-12.23-4.29-4.2-1.66-8.32-3.93-11.58-8.87,0,6.21-.14,11.32,0,16.41a15,15,0,0,0,7.09,12.68c2,1.32,4.32,1.82,6.24,3,3.64,2.26,7.83,2.81,11.65,4.43,4.14,1.75,8.66,1.5,13,2.34,3.68.71,7.63.27,11.44.11s7.71-.63,11.57-1c.16,0,.39.06.49,0,1.77-1.54,4.17-1.1,6.19-1.94s4.58-1,6.6-2.11c4.28-2.27,9-4,12.16-7.95A56.21,56.21,0,0,0,590.51,361Z" transform="translate(167.38 -145.29)"/><path d="M219.51,325.21c0,4,0,8,0,12a15,15,0,0,1-4.72,11.56c-5.82,5.59-12.8,8.7-20.5,10.85a106.15,106.15,0,0,1-14.3,2.7c-5.55.77-11.31.44-16.94,0-2-.14-4-.8-6.09-.91s-4.39-.13-5.95-1.17c-1.89-1.25-3.93-.8-5.86-1.62-6.09-2.58-12.25-4.89-16.87-9.9-3.11-3.37-5-7.17-4.84-12,.22-7.82.3-15.65,0-23.47-.28-7.19,3.57-12,8.82-15.68A46,46,0,0,1,146.49,291c2.25-.62,4.56-1,6.85-1.55,1.52-.33,3-.71,4.58-1,1.38-.25,2.82.37,4.18-.91.61-.58,2.23-.11,3.39-.11,3.33,0,6.67-.14,10,0,2.2.13,4.39-.58,6.66.83,1.62,1,3.93-.19,6.09.95,1.78.93,4.29.32,6.54,1a47.17,47.17,0,0,1,4.79,1.74,56.9,56.9,0,0,1,10,4.9c4.2,2.82,7.67,6,9.25,11.11a13,13,0,0,1,.71,3.67C219.54,316.22,219.51,320.71,219.51,325.21Zm-91.89-18.47a4.63,4.63,0,0,1-.13,1.49c-1.89,3.91-.39,7,1.58,10.54,2.13,3.83,5.6,5.61,8.92,7.52,3.72,2.13,8.09,3,12.11,4.48,4.39,1.66,9,1.67,13.39,2.55,3.84.77,8,.29,12,.13s8-.63,12.07-1c.16,0,.39.06.49,0,1.78-1.53,4.17-1.1,6.19-1.94s4.59-1.06,6.61-2.11c4.45-2.33,9.16-4.32,12.57-8.28,2.61-3,3.26-7.17,2.19-11.3-1.37-5.25-5-8.07-9.54-10.39-6.7-3.43-10.58-4.44-17.48-6.09a71.13,71.13,0,0,0-18.18-1.88c-2,0-4,0-6,0-.66,0-1.6-.28-2,0-2,1.92-4.68.39-6.95,1.37-2.11.91-4.68.76-6.81,1.65-4.1,1.73-8.44,2.81-12.29,5.37C133,301.16,130.73,304.36,127.62,306.74Zm88.76,14.05c-4,5.37-9.07,7.86-14.06,10.23a53.34,53.34,0,0,1-11,3.41,88,88,0,0,1-12.14,2,97.56,97.56,0,0,1-12,0c-3.86-.17-7.71-.63-11.57-1-.16,0-.36.05-.49,0-4.61-2.23-9.87-2.32-14.47-4.87-3.77-2.09-9.08-4.59-11.54-7a5.47,5.47,0,0,0-1.07-1c-.45-.25-.53-1.34-1.52-.64,0,5.27,0,10.58,0,15.88,0,2.48,1.12,4.44,2.25,6.57,2.16,4.09,5.92,6,9.6,8.11s8.09,2.94,12.11,4.5,8.64,1.61,12.95,2.38c3.87.69,8,.27,12,.11s8-.63,12.06-1a3.57,3.57,0,0,0,.88-.27c3.94-1.37,8.1-2,11.94-3.71,4.6-2,9.25-4.07,12.64-7.95a42.78,42.78,0,0,0,3.5-5.33Z" transform="translate(167.38 -145.29)"/><path d="M285.51,485.88c0-4.16,0-8.32,0-12.48a15.57,15.57,0,0,1,4.59-11.12,31.41,31.41,0,0,1,10.15-6.93,71.31,71.31,0,0,1,10.85-4,90.9,90.9,0,0,1,29.75-2.73,37.9,37.9,0,0,1,9.23,1.67c2.28.74,5.06.29,7.51,1.18a19.4,19.4,0,0,1,2.18.78c3.57,1.82,7.37,3.07,10.89,5.09,4.1,2.35,6.93,5.67,9.45,9.36a9.26,9.26,0,0,1,1.34,4.89c.12,9.49.22,19,0,28.47a12.63,12.63,0,0,1-3.48,8.52c-6.08,6.36-13.56,9.85-22,12a132.17,132.17,0,0,1-14.3,2.69,56.68,56.68,0,0,1-14.95,0A107.67,107.67,0,0,1,312.25,521a77.76,77.76,0,0,1-11-3.69c-5.83-2.49-11.19-6.17-14.37-12a12.67,12.67,0,0,1-1.33-5.41C285.39,495.21,285.51,490.54,285.51,485.88Zm4-18.07c0,.72.11,1.11,0,1.38-1.85,3.89-.47,7,1.55,10.56,2.15,3.78,5.56,5.64,8.92,7.51,3.74,2.09,8.08,3,12.11,4.51,4.39,1.63,8.95,1.65,13.38,2.55,3.84.78,8,.29,11.95.13s8.05-.63,12.08-1c.16,0,.39.07.49,0,1.77-1.57,4.18-1.05,6.19-1.93s4.59-1.06,6.61-2.12c4.44-2.34,9.22-4.24,12.56-8.27,2.45-2.94,3.88-6.53,3-10.13a16.08,16.08,0,0,0-5.86-9c-5.63-4.3-12.28-6.79-19-8.33s-13.57-2.86-20.6-2.24c-2.81.25-6-.74-8.4.26s-4.74.22-7,1.18-4.66.79-6.8,1.67c-4.11,1.71-8.44,2.81-12.29,5.35C295,462.12,292.77,465.34,289.51,467.81Zm-1,15v13.39c0,7.23,1.78,10.33,7.79,14.68a31.51,31.51,0,0,0,9.95,4.93c3.85,1.09,7.55,2.84,11.45,3.61,4.1.8,8.35.81,12.54,1.09,1.66.11,3.35-.17,5,0,4.77.62,9.44-.56,14-1.24a44.78,44.78,0,0,0,14.53-4.56c2.72-1.45,5.72-2.5,8.16-4.32a16.12,16.12,0,0,0,6.56-9.86c-.15-5.24.25-11.65-.21-18.38a39.76,39.76,0,0,1-16.89,10.92,88.29,88.29,0,0,1-20.15,4.29,64.32,64.32,0,0,1-15.93-.06,111.19,111.19,0,0,1-14.3-2.65,62.67,62.67,0,0,1-11.68-4.35C295.59,488.41,291.55,486.37,288.51,482.77Z" transform="translate(167.38 -145.29)"/><path d="M416.51,264.88c0-4.16,0-8.32,0-12.48a15.57,15.57,0,0,1,4.59-11.12,31.41,31.41,0,0,1,10.15-6.93,68.88,68.88,0,0,1,10.85-4,94.53,94.53,0,0,1,28.25-2.84,35.77,35.77,0,0,1,5.08,1c1.54.29,3.37-.75,4.58,1a17.92,17.92,0,0,1,7.58,1,20.14,20.14,0,0,1,2.18.78c3.56,1.82,7.36,3.07,10.89,5.09,4.1,2.35,6.93,5.67,9.45,9.36a9.26,9.26,0,0,1,1.34,4.89c.12,9.66.25,19.32-.05,29a12.17,12.17,0,0,1-3.45,8c-6.1,6.34-13.58,9.81-22,12a89,89,0,0,1-25.75,2.85c-1.92-.07-3.79.29-5.8-.44s-4.68.33-6.14-.71c-1.75-1.25-4.11.22-5.3-1.82-4.15.41-7.61-1.92-11.07-3.41-5.68-2.44-10.86-6.11-14-11.79a12.75,12.75,0,0,1-1.33-5.42C416.39,274.21,416.51,269.54,416.51,264.88Zm4-18.15c0,.92.28,1.82-.05,2.22-1.62,1.94-.89,3.69-.27,5.82,1.53,5.33,5.25,8.22,9.81,10.81,8.34,4.74,17.44,6.63,26.72,7.81a65.36,65.36,0,0,0,13,0,82.78,82.78,0,0,0,12.67-1.88,66.58,66.58,0,0,0,13.5-4.81c3.66-1.72,7.14-3.67,9.62-6.82,2.27-2.87,3.84-6.33,2.76-10.1a16.34,16.34,0,0,0-5.61-8.64c-5.75-4.4-12.55-6.65-19.38-8.61a68.24,68.24,0,0,0-10.66-1.89c-5.59-.66-11.3-.18-17-.18-2.06,1.78-4.68.58-7,1.3s-5,1-7.22,1.88c-4.11,1.64-8.46,2.7-12.29,5.4C426,241.29,423.87,244.39,420.51,246.73Zm87.84,34.52v-19.6l-.81-.64a6.79,6.79,0,0,1-.79,1.7c-3.33,4-8,6.18-12.5,8.36a50.75,50.75,0,0,1-11.06,3.36,104.1,104.1,0,0,1-12.14,2,62.57,62.57,0,0,1-9,0c-2.87-.12-5.87.73-8.57-1-4.25.59-8.17-1-12.12-2.06s-7.92-2-11.24-4.09c-3.59-2.23-7.74-4-10.31-7.9-.32,6.07-.4,12-.26,17.94a7.84,7.84,0,0,0,1.32,3.91,22,22,0,0,0,8.9,8.31c4.2,2,8.61,3.36,12.89,5,4.53,1.78,9.25,1.74,13.82,2.7,3.67.77,7.63.28,11.45.12s7.71-.63,11.56-1c.17,0,.4.07.49,0,1.77-1.55,4.17-1.09,6.19-1.94s4.59-1,6.6-2.11c4.28-2.27,9-4,12.17-7.94A52.26,52.26,0,0,0,508.35,281.25Z" transform="translate(167.38 -145.29)"/><path d="M72.51,355.16c0,4.17,0,8.33,0,12.49a14.69,14.69,0,0,1-4.67,11.07C62,384.33,55,387.4,47.34,389.6c-4.55,1.31-9.24,1.63-13.8,2.75-3,.73-6.32.35-9.45.07s-6.25,1.24-9.11-.9c-.32-.24-1,0-1.47,0-5.16.21-10-1.52-14.71-3.11-6.08-2-12-4.64-16.49-9.6-3.07-3.4-5-7.17-4.86-12,.22-7.82.34-15.66,0-23.47-.33-7.25,3.6-12,8.8-15.71A43.12,43.12,0,0,1,.45,321.06c2.27-.58,4.56-1.06,6.84-1.57,1.53-.35,3.05-.71,4.58-1s2.83.42,4.19-.87c.62-.58,2.23-.13,3.39-.13,3,0,6-.18,9,.05,2.2.17,4.4-.73,6.67.81,1.56,1.06,3.9-.06,6.09.91,2,.87,4.7.3,7,1.21,1,.4,2.08.61,3.07,1a68.54,68.54,0,0,1,11.63,5.72A22.78,22.78,0,0,1,71.73,338a9.25,9.25,0,0,1,.76,3.67C72.54,346.17,72.51,350.67,72.51,355.16Zm-91-18.22a3.84,3.84,0,0,1,0,1.2c-1.77,3.87-.62,7,1.51,10.58,2.31,3.84,5.83,5.67,9.32,7.72,3.74,2.21,8.08,3,12.11,4.51s8.65,1.59,13,2.39c3.7.69,7.64.27,11.46.11s7.71-.63,11.57-1c.17,0,.4.07.49,0,1.76-1.61,4.2-1.53,6.2-1.79,2.46-.33,4.09-2.61,6.64-2.2,4.34-2.52,9.21-4.27,12.53-8.3,2.41-2.93,3.93-6.51,3.06-10.11A16.86,16.86,0,0,0,63.54,331c-4.29-3.46-15.49-7.61-21.41-8.66-2.38-.42-5.08-.12-7-1.06-3.15-1.52-6.15-.48-9.17-.75s-6.57-.8-9.41.16c-2.37.8-4.73.29-7,1.15s-4.66.81-6.79,1.69c-4.12,1.69-8.45,2.81-12.31,5.32C-13.09,331.16-15.43,334.49-18.49,336.94Zm87.83,34.32V351.65c-2.34,1.83-4.5,3.69-6.84,5.29a37.69,37.69,0,0,1-7.24,4.18,76,76,0,0,1-11.09,3.31,104.1,104.1,0,0,1-12.14,2,64.06,64.06,0,0,1-9,0c-2.87-.11-5.87.73-8.57-1-4.25.59-8.17-1-12.12-2.06s-7.91-2-11.25-4.09c-3.59-2.21-7.69-4-10.28-7.89a149.62,149.62,0,0,0-.18,17.44,12.62,12.62,0,0,0,1.81,5.21c2.38,4.07,6.08,6.29,10,8.4S.54,385.44,4.53,387c4.18,1.67,8.68,1.45,13,2.3,3.68.73,7.63.28,11.45.12s7.71-.63,11.56-1c.16,0,.39.06.49,0,1.78-1.51,4.17-1.1,6.19-1.93s4.59-1,6.6-2.11c4.29-2.26,9-4,12.16-7.95A52.77,52.77,0,0,0,69.34,371.26Z" transform="translate(167.38 -145.29)"/><path d="M673.51,426.23c0,4,0,8,0,12a15,15,0,0,1-4.73,11.54,42.26,42.26,0,0,1-20.54,10.74c-3.86.88-7.58,2.46-11.66,2-2.87,1.79-6,.82-9.08,1s-6.32.06-9.49,0c-1.58,0-2.85-1.27-4.58-1.05a6.57,6.57,0,0,1-4.65-.82c-1-.66-2.68-.51-4.07-.92s-3-.69-4.51-1.21c-6.26-2.17-12.33-4.72-16.93-9.74-3.1-3.38-5-7.19-4.83-12,.22-8.15,0-16.31.07-24.47a14.49,14.49,0,0,1,4.36-10.69c6-6,13.28-9.25,21.39-11.11,3.54-.81,7.16-1.29,10.63-2.14,5.08-1.24,10.08-.61,15.11-.75,2-.06,4-.61,6.16.79,1.57,1,3.92-.15,6.08,1,1.79.92,4.28.46,6.52,1.05,6.33,1.67,15.4,6.16,19.63,10.53,3.32,3.43,5.42,7.34,5.15,12.36C673.34,418.23,673.51,422.24,673.51,426.23Zm-91-18.38c0,.7.28,1.57,0,2-2.37,3-.65,5.95.54,8.48a16.35,16.35,0,0,0,8.91,8.2c2.14.87,4.13,2.11,6.27,2.94s4.54,1.13,6.62,2.1a15.14,15.14,0,0,0,7.19,1.82c2.54-.18,4.66,1.17,7.08,1.13,3.67-.06,7.33.11,11-.05s7.38-.63,11.07-1c.32,0,.72,0,1-.11,1.88-1.29,4.19-1.09,6.23-1.86s4.18-1.18,6.14-2.06c4.74-2.14,9.56-4.31,12.95-8.44,2.36-2.88,3.84-6.39,2.9-10.12a14.94,14.94,0,0,0-5.61-8.61,37.66,37.66,0,0,0-11.05-5.85c-3.87-1.16-7.51-3.16-11.72-3-1.63-1.8-4-.11-5.55-1-1.9-1.12-3.75-.81-5.64-.88-2.33-.08-4.67,0-7,0-2.16,0-4.72-.73-6.39.18-2.26,1.23-4.48.26-6.58,1s-4.53,1.19-6.73,1.87c-4.24,1.33-8.49,2.69-12.37,5.12C588.25,401.84,585.91,405,582.51,407.85Zm87.84,14c-2.79,4.07-6.47,6.05-10,8.11a41,41,0,0,1-13.06,4.64c-3.22.62-6.37,1.5-9.66,2a62.19,62.19,0,0,1-10.09.86c-2.66,0-5.32-.06-8,0s-5.23-1.25-8.08-1.17c-2.36.07-4.73-1.54-7.15-1.77-4.47-.43-8.48-2.36-12.2-4.3s-7.77-3.89-10.33-7.83c-.32,6.07-.4,12-.26,17.93a7.83,7.83,0,0,0,1.31,3.92,22.3,22.3,0,0,0,8.9,8.31c4.21,2,8.61,3.35,12.9,5,4.52,1.78,9.24,1.75,13.82,2.7,3.66.76,7.62.28,11.44.12s7.71-.63,11.56-1c.17,0,.4.07.49,0,1.77-1.55,4.18-1.08,6.19-1.93s4.59-1.06,6.6-2.12c4.29-2.27,9-4,12.17-7.93a54.84,54.84,0,0,0,3.4-5.23Z" transform="translate(167.38 -145.29)"/><path d="M153.51,435.42c0,4.33.09,8.66,0,13a13.42,13.42,0,0,1-3.78,9.41,39.48,39.48,0,0,1-22.15,11.66c-4.11,2.34-8.86,2.06-13.27,2.79-5.35.89-11,.21-16.45.21-2.71-2.2-6.14-.51-9.25-1.76-2.6-1.05-5.77-1.32-8.55-2.29-6.24-2.18-12.34-4.73-16.89-9.84-2.92-3.28-4.8-6.92-4.68-11.56.19-8,.16-16,0-24-.12-7.46,3.88-12.13,9.77-15.89a47.42,47.42,0,0,1,13-5.95c2.09-.58,4.17-1.21,6.28-1.72a48.8,48.8,0,0,1,5.07-1c1.57-.21,3.2.31,4.64-1,.47-.41,1.61-.07,2.44-.07,3.83,0,7.66,0,11.48,0,1.92,0,3.76-.06,5.63.91,1.48.77,3.42-.5,5.16.87.83.65,2.57.06,3.86.25a28.39,28.39,0,0,1,3.59,1,21,21,0,0,1,2.22.66c4.43,1.82,8.93,3.58,12.83,6.38,5.24,3.76,9.24,8.36,9.05,15.42C153.42,427.1,153.51,431.26,153.51,435.42Zm-91-18.59c0,.82.28,1.72,0,2.12-1.62,1.94-.89,3.69-.27,5.82,1.52,5.33,5.25,8.22,9.81,10.81,8.33,4.74,17.44,6.63,26.72,7.81a65.36,65.36,0,0,0,13,0,82.78,82.78,0,0,0,12.67-1.88,66.58,66.58,0,0,0,13.5-4.81c3.66-1.72,7.14-3.67,9.62-6.81,2.27-2.88,3.84-6.34,2.76-10.11a16.27,16.27,0,0,0-5.61-8.63c-5.75-4.41-12.55-6.65-19.38-8.62a68.24,68.24,0,0,0-10.66-1.89c-5.59-.66-11.3-.18-17-.18-2.06,1.78-4.68.58-7,1.3s-5,1-7.21,1.88c-4.12,1.64-8.47,2.71-12.29,5.4C67.86,411.38,65.64,414.63,62.51,416.83Zm88,14c-4.14,5.26-9.27,7.84-14.31,10.33-3.41,1.69-7.32,2.47-11.08,3.31-4,.9-8.09,1.94-12.13,1.92-5.84,0-11.81,1.28-17.55-.87-4.26.58-8.18-1-12.13-2.06s-7.88-2.09-11.24-4.11c-3.6-2.16-7.61-4.06-10.56-8.95,0,7-.09,12.81.06,18.58a9.93,9.93,0,0,0,1.36,4.39,21.25,21.25,0,0,0,8.94,8.23A67.81,67.81,0,0,0,101,469.4a85.05,85.05,0,0,0,17.07-.72,75,75,0,0,0,12-2.57,46.87,46.87,0,0,0,13.69-6.63c3.28-2.45,6.22-5.52,6.58-9.58C150.91,443.84,150.51,437.7,150.51,430.79Z" transform="translate(167.38 -145.29)"/><path d="M527.51,456.43c0,4.16,0,8.32,0,12.48a13.93,13.93,0,0,1-4.16,10.27,39.58,39.58,0,0,1-21.8,11.3c-4.11,2.34-8.86,2.06-13.28,2.79-5.34.89-10.95.21-16.44.21-2.72-2.2-6.15-.51-9.26-1.76-2.6-1.05-5.76-1.33-8.54-2.29-6.24-2.18-12.35-4.73-16.89-9.84-2.92-3.28-4.8-6.92-4.68-11.56.2-8,.16-16,0-24-.12-7.46,3.88-12.13,9.78-15.89a47.82,47.82,0,0,1,13-6c2.09-.57,4.17-1.2,6.28-1.71a46,46,0,0,1,5.08-1c1.56-.21,3.19.31,4.63-1,.47-.41,1.61-.07,2.44-.07,3.83,0,7.66,0,11.49,0,1.91,0,3.76-.06,5.62.91,1.48.77,3.43-.5,5.17.87.83.65,2.56.06,3.86.25a28.7,28.7,0,0,1,3.58,1c.75.22,1.51.37,2.23.66,4.43,1.81,8.92,3.58,12.82,6.38,5.24,3.76,9.25,8.36,9,15.42C527.42,448.1,527.51,452.26,527.51,456.43Zm-91-18.61c0,.77.19,1.38,0,1.75-2.12,3.57-.41,6.51,1.21,9.69,2,4,5.62,6,9.16,8,3.9,2.18,8.32,3.21,12.53,4.7,4.38,1.55,9,1.66,13.45,2.42,3.72.64,7.64.26,11.46.1s7.38-.63,11.07-1a3.54,3.54,0,0,0,.9-.25c3.93-1.41,8.1-2,11.94-3.73,4.76-2.13,9.44-4.34,13.06-8.26,2-2.17,2.66-4.93,3.2-7.66.41-2.1-.88-4.43-2.29-7-3.13-5.76-8.77-7.82-14.27-10.05-3-1.21-6.14-2.08-9.23-3a61.9,61.9,0,0,0-10.19-1.82c-5.56-.72-11.29-.2-17-.2-2,1.83-4.66.56-6.93,1.35s-4.63.88-6.79,1.7c-4.17,1.59-8.43,2.88-12.31,5.3C442.06,432,439.83,435.24,436.51,437.82Zm88,14.7c-2.52,2-4.68,3.83-7,5.43a37.18,37.18,0,0,1-7.24,4.18,76.12,76.12,0,0,1-11.1,3.3,104.1,104.1,0,0,1-12.14,2,64.06,64.06,0,0,1-9,0c-2.87-.11-5.87.73-8.56-1-4.26.59-8.18-1-12.13-2.06s-7.9-2.05-11.24-4.09c-3.59-2.2-7.67-4-10.27-7.88-.32,5.25-.31,10.36-.32,15.46,0,5.4,2.65,9.49,6.76,12.51a34.28,34.28,0,0,0,11.17,5.5c1.79.49,3.58,1,5.34,1.57a51.89,51.89,0,0,0,5.67,1.93c1.9.38,4.11-.23,5.8.48,2.15.91,4.19.52,6.25.53a107.11,107.11,0,0,0,15.58-.75,68.2,68.2,0,0,0,12-2.55,48.51,48.51,0,0,0,13.7-6.64c3.31-2.44,6.21-5.54,6.59-9.56C524.93,464.88,524.51,458.73,524.51,452.52Z" transform="translate(167.38 -145.29)"/><path d="M234.51,516c0,3.83-.08,7.66,0,11.48a16.38,16.38,0,0,1-5.21,12.88c-4.11,4-14.39,8.76-20.25,10.35-4.41,1.19-9,1-13.31,2.77a6.84,6.84,0,0,1-2.48,0c-3.5,0-7,0-10.49,0-5.31,0-10.41-1.49-15.65-2-1.72-1.69-4.16-1.08-6.21-1.88s-3.69-2.49-6.06-2.26c-5.36-3.15-10.85-6.23-13.86-12a11.44,11.44,0,0,1-1.53-5.36c.08-9.32-.08-18.64.09-28a13.66,13.66,0,0,1,3.74-8.94,30.63,30.63,0,0,1,10.41-7.51c3.77-1.71,7.38-4.13,11.79-4.1,1.64-1.43,4-.29,5.47-1.19,1.8-1.12,3.56-.3,5.17-.85,6-2,12.06-.52,18.08-.89,1.5-.1,3.05.63,4.58.93,1.38.26,2.78-.33,4.2.8.83.66,2.57.06,3.87.24a25.66,25.66,0,0,1,3.58,1,10,10,0,0,1,2.21.69c3.52,1.93,7.35,3.14,10.88,5.14a27,27,0,0,1,9.44,9.31,10.28,10.28,0,0,1,1.57,5.85C234.4,507,234.51,511.46,234.51,516Zm-91.06-18c0,.74.27,1.6,0,2-1.49,2-.76,3.69-.2,5.83,1.4,5.27,5.1,8.16,9.43,10.64,4.05,2.33,8.52,3.53,12.86,5.13,4.69,1.72,9.56,1.87,14.31,2.74,3.71.67,7.64.26,11.47.1s7.38-.63,11.07-1a3.64,3.64,0,0,0,.9-.24c3.92-1.43,8.1-2,11.94-3.74,4.75-2.14,9.43-4.33,13.07-8.25,2-2.17,2.65-4.93,3.2-7.65.41-2.07-.9-4.49-2.28-7-3.13-5.77-8.77-7.81-14.27-10.06-3-1.22-6.13-2.09-9.23-3a63.76,63.76,0,0,0-10.18-1.82c-5.57-.73-11.3-.2-17-.2-2,1.84-4.66.55-6.93,1.34s-4.63.88-6.79,1.72c-4.16,1.59-8.44,2.82-12.31,5.29C149,492.1,146.58,495.4,143.45,498Zm-.94,14.89c0,5.3,0,10.61,0,15.92,0,2.47,1.12,4.43,2.26,6.57,2.17,4.07,5.92,6,9.6,8.09s8.1,2.94,12.11,4.5c4.17,1.62,8.64,1.59,12.95,2.38,3.7.69,7.63.27,11.45.11s7.71-.63,11.57-1c.16,0,.39.07.49,0,1.75-1.6,4.19-1.54,6.19-1.8,2.46-.31,4.09-2.6,6.63-2.19,4.19-2.44,8.94-4.08,12.15-8a50.1,50.1,0,0,0,3.47-5.31V511.78c-2.75,3.68-6,5.55-9.13,7.62-3.86,2.54-8.16,3.67-12.4,5.05-2.2.71-4.51,1-6.73,1.83s-5.2-.61-7.49,1.2c-5.65,0-11.4.64-16.93-.19a116.86,116.86,0,0,1-13.8-2.64,59.63,59.63,0,0,1-11.67-4.38C149.53,518.34,145.39,516.4,142.51,512.88Z" transform="translate(167.38 -145.29)"/><path d="M365.51,295c0,4,0,8,0,12a16,16,0,0,1-4.89,12c-4.11,4.23-14.54,9.08-20.62,10.67-4.57,1.2-9.25,1.55-13.82,2.68-3,.74-6.31-.11-9.45.2-4.78.48-9.49-.48-14-1.27a58.8,58.8,0,0,1-17.59-5.64c-5-2.63-9.71-5.4-12.53-10.55-1.06-1.94-2.09-3.85-2.08-6.14,0-9.32-.13-18.65.07-28a13.85,13.85,0,0,1,3.77-8.93c4.49-5.1,14-9.91,22.19-11.65,3.38-.72,6.81-1.28,10.14-2.07,5.23-1.25,10.41-.6,15.6-.81,2.05-.08,4.08-.26,6.13.87,1.59.87,3.62-.2,5.64.87s4.64.13,7,1.08a20.36,20.36,0,0,1,3.51,1.17c3.16,2,6.77,2.94,10,4.81a28.9,28.9,0,0,1,9.45,9.34,10.8,10.8,0,0,1,1.4,5.37C365.64,285.68,365.51,290.35,365.51,295Zm-91-18.18c0,.82.28,1.72-.05,2.11-1.62,1.95-.89,3.7-.28,5.83,1.53,5.33,5.26,8.22,9.82,10.81,8.33,4.74,17.44,6.63,26.72,7.81a65.36,65.36,0,0,0,13,0,82.78,82.78,0,0,0,12.67-1.88,67.41,67.41,0,0,0,13.5-4.81c3.67-1.7,7.13-3.67,9.62-6.81,2.28-2.88,3.84-6.34,2.76-10.11a16.27,16.27,0,0,0-5.61-8.63c-5.74-4.41-12.55-6.65-19.38-8.62a68,68,0,0,0-10.66-1.89c-5.58-.66-11.3-.18-17-.18-2.06,1.78-4.68.58-6.95,1.3s-5,1-7.22,1.88c-4.12,1.64-8.47,2.71-12.29,5.4C279.86,271.38,277.64,274.63,274.51,276.83Zm-1,13.78c0,6.8-.09,12.58.07,18.35a9.78,9.78,0,0,0,1.37,4.39,20.84,20.84,0,0,0,8.94,8.23c4.16,2.15,8.61,3.36,12.88,5.07,4.53,1.82,9.24,1.81,13.83,2.66,4.34.8,9,.47,13.43.09a105,105,0,0,0,12.66-1.87c5.2-1.11,15.55-5.17,19.52-8.3,3.05-2.4,5.88-5.41,6.18-9.35.47-6.07.12-12.2.12-18.38-2.54,2-4.7,3.88-7.06,5.49a45.91,45.91,0,0,1-7.24,4.2,54.59,54.59,0,0,1-7.53,2.28c-2.54.71-5.08,1.79-7.66,1.89-2.76.11-5.4,1.14-8.06,1-5.85-.23-11.8,1.21-17.55-.91-4.26.59-8.14-1.13-12.14-2a43.65,43.65,0,0,1-11.6-4.47C280.13,297,276.45,295,273.51,290.61Z" transform="translate(167.38 -145.29)"/><path class="cls-1" d="M208.51,387l7.43-7.42c.39,0,1.45.26,1.9-.14,3.28-2.9,7.39-3.88,11.38-5.14a109,109,0,0,1,12.29-3c4.74-.91,9.41-.76,14.1-.74,2.38,0,4.82-.81,7.21.63,1.89,1.14,4.57-.63,6.45,1.29,6.08.19,11.52,2.66,16.81,5.23,3.62,1.76,7.14,3.94,9.2,7.9,1.11,2.14,2.3,4.11,2.23,6.58a19.93,19.93,0,0,1-3,7.76c-3.69,4.09-8.5,6.38-13.43,8.57-3.85,1.72-8,2.27-11.92,3.77a5.12,5.12,0,0,1-1.42.19c-5.85.5-11.66,1.28-17.57,1.06a82,82,0,0,1-15.64-2.08,73.34,73.34,0,0,1-14.4-5,36.63,36.63,0,0,1-5.8-2.92,17.69,17.69,0,0,1-6.74-10c-.39-1.35-.81-3.27.84-4.61C208.79,388.66,208.51,387.65,208.51,387Z" transform="translate(167.38 -145.29)"/><path class="cls-1" d="M207.51,400.81c4.52,5.39,9.88,7.47,15.28,9.88a74.74,74.74,0,0,0,15,4.61,66.14,66.14,0,0,0,18.5,1.18c2.09-.15,4.17-.39,6.26-.56,1.93-.16,4.17.27,5.73-.58,1.87-1,4.25-.06,5.73-1.86,4.06.12,7.74-1.57,11.08-3.33,4.31-2.26,9-4.32,12.39-8.67,0,6.25.42,12.55-.15,18.75-.36,3.87-3.33,6.88-6.43,9.21-4.33,3.27-14,6.87-19.59,8.1a88.23,88.23,0,0,1-12.67,1.88,58.9,58.9,0,0,1-12.94-.08c-4.34-.67-8.88-.58-13-2.22s-8.28-2.39-12.09-4.57c-2-1.14-4.29-1.71-6.2-3.06-4.28-3-6.78-7.08-6.89-12.38C207.43,412,207.51,406.86,207.51,400.81Z" transform="translate(167.38 -145.29)"/><path class="cls-1" d="M355.66,356.84l7.25-7.25c.58,0,1.69.21,2.11-.22,3.27-3.25,7.69-4.19,11.75-5.42a120.19,120.19,0,0,1,11.94-2.68c4.93-.93,9.75-.57,14.61-.76,4.49-.17,8.81,1,13.19,1.78a55.64,55.64,0,0,1,6.49,1.36,63.37,63.37,0,0,1,11.44,4.9c4.21,2.25,7.91,5.07,9.14,10.25,1,4.05.35,8.38-2.17,11.31-3.42,4-8.1,6-12.56,8.31-2,1.05-4.46,1.25-6.61,2.1s-4.39.46-6.2,1.92c-.11.09-.32,0-.48,0-3.86.34-7.71.8-11.58,1s-8.14.71-11.94-.15c-4.27-.95-8.69-.83-12.91-2.5-4-1.57-8.28-2.53-12.13-4.46-1.78-.89-3.65-1.67-5.39-2.74-3.83-2.34-5.45-6.05-7-9.77C353.6,361.49,355.45,359.21,355.66,356.84Z" transform="translate(167.38 -145.29)"/><path class="cls-1" d="M444.34,391.26a51.62,51.62,0,0,1-3.37,5.21c-3.19,3.91-7.88,5.69-12.17,7.95-2,1.06-4.47,1.23-6.6,2.11s-4.4.41-6.19,1.93c-.1.09-.32,0-.48,0-3.86.33-7.71.79-11.57,1s-8.13.71-11.93-.15c-4.27-.95-8.68-.82-12.9-2.5-4-1.59-8.2-2.66-12.16-4.39a25.74,25.74,0,0,1-5.73-3c-4-3.16-6.74-7.15-6.73-12.54,0-5.1,0-10.21,0-16.42,3.26,4.94,7.37,7.21,11.57,8.87,4,1.57,7.83,3.57,12.23,4.29,3.55.58,7.15,1.25,10.63,2.05,5.75,1.33,11.42.32,17.1.81,2.93.26,5.57-1.26,8.57-1.16,2.53.08,5.11-1.16,7.65-1.85,2.69-.74,5.58-1.1,8-2.37,5-2.6,10.12-5.08,14.09-10.09Z" transform="translate(167.38 -145.29)"/><path class="cls-1" d="M501.51,327l7.52-7.51c.55,0,1.45.28,1.82,0,3.26-2.92,7.38-3.89,11.37-5.15a109,109,0,0,1,12.29-3c4.74-.91,9.4-.76,14.1-.74,2.38,0,4.82-.81,7.21.63,1.89,1.14,4.57-.64,6.45,1.29,6.08.2,11.52,2.66,16.81,5.22,3.62,1.76,7.14,3.95,9.2,7.91,1.11,2.14,2.3,4.1,2.23,6.58a20,20,0,0,1-3,7.76c-3.69,4.09-8.5,6.38-13.43,8.57-3.85,1.72-8,2.27-11.92,3.77a5.53,5.53,0,0,1-1.42.19c-5.85.5-11.66,1.28-17.57,1.06a83,83,0,0,1-15.64-2.08,72.69,72.69,0,0,1-14.4-5,36.63,36.63,0,0,1-5.8-2.92,17.69,17.69,0,0,1-6.74-10c-.39-1.35-.81-3.27.84-4.61C501.79,328.66,501.51,327.66,501.51,327Z" transform="translate(167.38 -145.29)"/><path class="cls-1" d="M590.51,361a56.21,56.21,0,0,1-3.55,5.47c-3.18,3.92-7.88,5.68-12.16,7.95-2,1.06-4.48,1.23-6.6,2.11s-4.42.4-6.19,1.94c-.1.08-.33,0-.49,0-3.86.33-7.7.79-11.57,1s-7.76.6-11.44-.11c-4.32-.84-8.84-.59-13-2.34-3.82-1.62-8-2.17-11.65-4.43-1.92-1.19-4.23-1.69-6.24-3a15,15,0,0,1-7.09-12.68c-.18-5.09,0-10.2,0-16.41,3.26,4.94,7.38,7.21,11.58,8.87,4,1.59,7.84,3.55,12.23,4.29,3.55.6,7.15,1.25,10.63,2.05,5.59,1.29,11.08.54,16.6.73,2.67.09,5.37-.62,8.07-.92,2.49-.28,4.83-1.21,7.24-1.74,4.12-.91,8.15-1.89,11.85-4,4.12-2.3,8.28-4.54,11.29-8.33.29.31.5.43.5.55Q590.52,351.49,590.51,361Z" transform="translate(167.38 -145.29)"/><path class="cls-1" d="M127.62,306.74c3.11-2.38,5.4-5.58,8.75-7.82,3.85-2.56,8.19-3.64,12.29-5.37,2.13-.89,4.7-.74,6.81-1.65,2.27-1,4.9.55,6.95-1.37.35-.33,1.29,0,2,0,2,0,4,0,6,0a71.13,71.13,0,0,1,18.18,1.88c6.9,1.65,10.78,2.66,17.48,6.09,4.51,2.32,8.17,5.14,9.54,10.39,1.07,4.13.42,8.27-2.19,11.3-3.41,4-8.12,5.95-12.57,8.28-2,1.05-4.48,1.23-6.61,2.11s-4.41.41-6.19,1.94c-.1.08-.33,0-.49,0-4,.33-8,.79-12.07,1s-8.12.64-12-.13c-4.44-.88-9-.89-13.39-2.55-4-1.51-8.39-2.35-12.11-4.48-3.32-1.91-6.79-3.69-8.92-7.52-2-3.53-3.47-6.63-1.58-10.54A4.63,4.63,0,0,0,127.62,306.74Z" transform="translate(167.38 -145.29)"/><path class="cls-1" d="M216.38,320.79v20.42a42.78,42.78,0,0,1-3.5,5.33c-3.39,3.88-8,5.91-12.64,7.95-3.84,1.7-8,2.34-11.94,3.71a3.57,3.57,0,0,1-.88.27c-4,.35-8,.81-12.06,1s-8.08.58-12-.11c-4.31-.77-8.78-.77-12.95-2.38s-8.34-2.34-12.11-4.5-7.44-4-9.6-8.11c-1.13-2.13-2.26-4.09-2.25-6.57,0-5.3,0-10.61,0-15.88,1-.7,1.07.39,1.52.64a5.47,5.47,0,0,1,1.07,1c2.46,2.45,7.77,4.95,11.54,7,4.6,2.55,9.86,2.64,14.47,4.87.13.06.33,0,.49,0,3.86.33,7.71.79,11.57,1a97.56,97.56,0,0,0,12,0,88,88,0,0,0,12.14-2,53.34,53.34,0,0,0,11-3.41C207.31,328.65,212.36,326.16,216.38,320.79Z" transform="translate(167.38 -145.29)"/><path class="cls-1" d="M289.51,467.81c3.26-2.47,5.52-5.69,8.9-7.91,3.85-2.54,8.18-3.64,12.29-5.35,2.14-.88,4.68-.78,6.8-1.67s4.62-.19,7-1.18,5.59,0,8.4-.26c7-.62,13.92.71,20.6,2.24s13.35,4,19,8.33a16.08,16.08,0,0,1,5.86,9c.86,3.6-.57,7.19-3,10.13-3.34,4-8.12,5.93-12.56,8.27-2,1.06-4.49,1.2-6.61,2.12s-4.42.36-6.19,1.93c-.1.09-.33,0-.49,0-4,.33-8.05.79-12.08,1s-8.11.65-11.95-.13c-4.43-.9-9-.92-13.38-2.55-4-1.5-8.37-2.42-12.11-4.51-3.36-1.87-6.77-3.73-8.92-7.51-2-3.55-3.4-6.67-1.55-10.56C289.62,468.92,289.51,468.53,289.51,467.81Z" transform="translate(167.38 -145.29)"/><path class="cls-1" d="M288.51,482.77c3,3.6,7.08,5.64,10.84,7.54A62.67,62.67,0,0,0,311,494.66a111.19,111.19,0,0,0,14.3,2.65,64.32,64.32,0,0,0,15.93.06,88.29,88.29,0,0,0,20.15-4.29,39.76,39.76,0,0,0,16.89-10.92c.46,6.73.06,13.14.21,18.38A16.12,16.12,0,0,1,372,510.4c-2.44,1.82-5.44,2.87-8.16,4.32a44.78,44.78,0,0,1-14.53,4.56c-4.59.68-9.26,1.86-14,1.24-1.64-.22-3.33.06-5,0-4.19-.28-8.44-.29-12.54-1.09-3.9-.77-7.6-2.52-11.45-3.61a31.51,31.51,0,0,1-9.95-4.93c-6-4.35-7.79-7.45-7.79-14.68Z" transform="translate(167.38 -145.29)"/><path class="cls-1" d="M420.51,246.73c3.36-2.34,5.49-5.44,8.65-7.67,3.83-2.7,8.18-3.76,12.29-5.4,2.2-.87,4.85-1.13,7.22-1.88s4.9.48,7-1.3c5.66,0,11.37-.48,17,.18a68.24,68.24,0,0,1,10.66,1.89c6.83,2,13.63,4.21,19.38,8.61a16.34,16.34,0,0,1,5.61,8.64c1.08,3.77-.49,7.23-2.76,10.1-2.48,3.15-6,5.1-9.62,6.82a66.58,66.58,0,0,1-13.5,4.81,82.78,82.78,0,0,1-12.67,1.88,65.36,65.36,0,0,1-13,0c-9.28-1.18-18.38-3.07-26.72-7.81-4.56-2.59-8.28-5.48-9.81-10.81-.62-2.13-1.35-3.88.27-5.82C420.79,248.55,420.51,247.65,420.51,246.73Z" transform="translate(167.38 -145.29)"/><path class="cls-1" d="M508.35,281.25a52.26,52.26,0,0,1-3.39,5.23c-3.19,3.91-7.89,5.67-12.17,7.94-2,1.06-4.48,1.22-6.6,2.11s-4.42.39-6.19,1.94c-.09.09-.32,0-.49,0-3.85.33-7.7.79-11.56,1s-7.78.65-11.45-.12c-4.57-1-9.29-.92-13.82-2.7-4.28-1.68-8.69-3-12.89-5a22,22,0,0,1-8.9-8.31,7.84,7.84,0,0,1-1.32-3.91c-.14-5.93-.06-11.87.26-17.94,2.57,3.93,6.72,5.67,10.31,7.9,3.32,2.06,7.38,3.06,11.24,4.09s7.87,2.65,12.12,2.06c2.7,1.71,5.7.86,8.57,1a62.57,62.57,0,0,0,9,0,104.1,104.1,0,0,0,12.14-2,50.75,50.75,0,0,0,11.06-3.36c4.5-2.18,9.17-4.35,12.5-8.36a6.79,6.79,0,0,0,.79-1.7l.81.64Z" transform="translate(167.38 -145.29)"/><path class="cls-1" d="M-18.49,336.94c3.06-2.45,5.4-5.78,8.93-8.07,3.86-2.51,8.19-3.63,12.31-5.32,2.13-.88,4.63-.86,6.79-1.69s4.63-.35,7-1.15c2.84-1,6.27-.45,9.41-.16s6-.77,9.17.75c1.93.94,4.63.64,7,1.06,5.92,1.05,17.12,5.2,21.41,8.66a16.86,16.86,0,0,1,5.81,9.05c.87,3.6-.65,7.18-3.06,10.11-3.32,4-8.19,5.78-12.53,8.3-2.55-.41-4.18,1.87-6.64,2.2-2,.26-4.44.18-6.2,1.79-.09.09-.32,0-.49,0-3.86.33-7.71.79-11.57,1s-7.76.58-11.46-.11c-4.31-.8-8.78-.79-13-2.39s-8.37-2.3-12.11-4.51c-3.49-2.05-7-3.88-9.32-7.72-2.13-3.55-3.28-6.71-1.51-10.58A3.84,3.84,0,0,0-18.49,336.94Z" transform="translate(167.38 -145.29)"/><path class="cls-1" d="M69.34,371.26A52.77,52.77,0,0,1,66,376.47c-3.19,3.91-7.87,5.69-12.16,7.95-2,1.06-4.47,1.23-6.6,2.11S42.8,387,41,388.46c-.1.08-.33,0-.49,0-3.85.34-7.7.8-11.56,1s-7.77.61-11.45-.12c-4.31-.85-8.81-.63-13-2.3-4-1.59-8.26-2.48-12.08-4.54s-7.61-4.33-10-8.4a12.62,12.62,0,0,1-1.81-5.21,149.62,149.62,0,0,1,.18-17.44c2.59,3.88,6.69,5.68,10.28,7.89,3.34,2.05,7.39,3.06,11.25,4.09s7.87,2.65,12.12,2.06c2.7,1.71,5.7.87,8.57,1a64.06,64.06,0,0,0,9,0,104.1,104.1,0,0,0,12.14-2,76,76,0,0,0,11.09-3.31,37.69,37.69,0,0,0,7.24-4.18c2.34-1.6,4.5-3.46,6.84-5.29Z" transform="translate(167.38 -145.29)"/><path class="cls-1" d="M582.51,407.85c3.4-2.85,5.74-6,9.16-8.15,3.88-2.43,8.13-3.79,12.37-5.12,2.2-.68,4.54-1.05,6.73-1.87s4.32.18,6.58-1c1.67-.91,4.23-.18,6.39-.18,2.33,0,4.67-.06,7,0,1.89.07,3.74-.24,5.64.88,1.55.91,3.92-.78,5.55,1,4.21-.13,7.85,1.87,11.72,3a37.66,37.66,0,0,1,11.05,5.85,14.94,14.94,0,0,1,5.61,8.61c.94,3.73-.54,7.24-2.9,10.12-3.39,4.13-8.21,6.3-12.95,8.44-2,.88-4.13,1.29-6.14,2.06s-4.35.57-6.23,1.86c-.23.16-.63.08-1,.11-3.69.34-7.37.8-11.07,1s-7.32,0-11,.05c-2.42,0-4.54-1.31-7.08-1.13a15.14,15.14,0,0,1-7.19-1.82c-2.08-1-4.46-1.27-6.62-2.1s-4.13-2.07-6.27-2.94a16.35,16.35,0,0,1-8.91-8.2c-1.19-2.53-2.91-5.47-.54-8.48C582.79,409.42,582.51,408.55,582.51,407.85Z" transform="translate(167.38 -145.29)"/><path class="cls-1" d="M670.35,421.88v20.38a54.84,54.84,0,0,1-3.4,5.23c-3.19,3.9-7.88,5.66-12.17,7.93-2,1.06-4.48,1.22-6.6,2.12s-4.42.38-6.19,1.93c-.09.09-.32,0-.49,0-3.85.33-7.7.79-11.56,1s-7.78.64-11.44-.12c-4.58-.95-9.3-.92-13.82-2.7-4.29-1.69-8.69-3-12.9-5a22.3,22.3,0,0,1-8.9-8.31,7.83,7.83,0,0,1-1.31-3.92c-.14-5.93-.06-11.86.26-17.93,2.56,3.94,6.65,5.92,10.33,7.83s7.73,3.87,12.2,4.3c2.42.23,4.79,1.84,7.15,1.77,2.85-.08,5.33,1.24,8.08,1.17s5.32,0,8,0a62.19,62.19,0,0,0,10.09-.86c3.29-.5,6.44-1.38,9.66-2A41,41,0,0,0,660.38,430C663.88,427.93,667.56,426,670.35,421.88Z" transform="translate(167.38 -145.29)"/><path class="cls-1" d="M62.51,416.83c3.13-2.2,5.35-5.45,8.66-7.77,3.82-2.69,8.17-3.76,12.29-5.4,2.19-.87,4.84-1.13,7.21-1.88s4.9.48,7-1.3c5.66,0,11.37-.48,17,.18a68.24,68.24,0,0,1,10.66,1.89c6.83,2,13.63,4.21,19.38,8.62a16.27,16.27,0,0,1,5.61,8.63c1.08,3.77-.49,7.23-2.76,10.11-2.48,3.14-6,5.09-9.62,6.81a66.58,66.58,0,0,1-13.5,4.81,82.78,82.78,0,0,1-12.67,1.88,65.36,65.36,0,0,1-13,0c-9.28-1.18-18.39-3.07-26.72-7.81-4.56-2.59-8.29-5.48-9.81-10.81-.62-2.13-1.35-3.88.27-5.82C62.79,418.55,62.51,417.65,62.51,416.83Z" transform="translate(167.38 -145.29)"/><path class="cls-1" d="M150.51,430.79c0,6.91.4,13-.14,19.11-.36,4.06-3.3,7.13-6.58,9.58a46.87,46.87,0,0,1-13.69,6.63,75,75,0,0,1-12,2.57,85.05,85.05,0,0,1-17.07.72,67.81,67.81,0,0,1-29.17-7.84,21.25,21.25,0,0,1-8.94-8.23,9.93,9.93,0,0,1-1.36-4.39c-.15-5.77-.06-11.55-.06-18.58,2.95,4.89,7,6.79,10.56,8.95,3.36,2,7.39,3.07,11.24,4.11s7.87,2.64,12.13,2.06c5.74,2.15,11.71.84,17.55.87,4,0,8.13-1,12.13-1.92,3.76-.84,7.67-1.62,11.08-3.31C141.24,438.63,146.37,436.05,150.51,430.79Z" transform="translate(167.38 -145.29)"/><path class="cls-1" d="M436.51,437.82c3.32-2.58,5.55-5.84,9-8,3.88-2.42,8.14-3.71,12.31-5.3,2.16-.82,4.59-.94,6.79-1.7s4.9.48,6.93-1.35c5.66,0,11.39-.52,17,.2a61.9,61.9,0,0,1,10.19,1.82c3.09.94,6.23,1.81,9.23,3,5.5,2.23,11.14,4.29,14.27,10.05,1.41,2.58,2.7,4.91,2.29,7-.54,2.73-1.19,5.49-3.2,7.66-3.62,3.92-8.3,6.13-13.06,8.26-3.84,1.71-8,2.32-11.94,3.73a3.54,3.54,0,0,1-.9.25c-3.69.34-7.37.8-11.07,1s-7.74.54-11.46-.1c-4.48-.76-9.07-.87-13.45-2.42-4.21-1.49-8.63-2.52-12.53-4.7-3.54-2-7.13-4-9.16-8-1.62-3.18-3.33-6.12-1.21-9.69C436.7,439.2,436.51,438.59,436.51,437.82Z" transform="translate(167.38 -145.29)"/><path class="cls-1" d="M524.51,452.52c0,6.21.42,12.36-.15,18.41-.38,4-3.28,7.12-6.59,9.56a48.51,48.51,0,0,1-13.7,6.64,68.2,68.2,0,0,1-12,2.55,107.11,107.11,0,0,1-15.58.75c-2.06,0-4.1.38-6.25-.53-1.69-.71-3.9-.1-5.8-.48a51.89,51.89,0,0,1-5.67-1.93c-1.76-.57-3.55-1.08-5.34-1.57a34.28,34.28,0,0,1-11.17-5.5c-4.11-3-6.77-7.11-6.76-12.51,0-5.1,0-10.21.32-15.46,2.6,3.85,6.68,5.68,10.27,7.88,3.34,2,7.38,3.06,11.24,4.09s7.87,2.65,12.13,2.06c2.69,1.71,5.69.87,8.56,1a64.06,64.06,0,0,0,9,0,104.1,104.1,0,0,0,12.14-2,76.12,76.12,0,0,0,11.1-3.3,37.18,37.18,0,0,0,7.24-4.18C519.83,456.35,522,454.48,524.51,452.52Z" transform="translate(167.38 -145.29)"/><path class="cls-1" d="M143.45,498c3.13-2.59,5.53-5.89,9.06-8.16,3.87-2.47,8.15-3.7,12.31-5.29,2.16-.84,4.59-1,6.79-1.72s4.9.5,6.93-1.34c5.66,0,11.39-.53,17,.2a63.76,63.76,0,0,1,10.18,1.82c3.1.93,6.24,1.8,9.23,3,5.5,2.25,11.14,4.29,14.27,10.06,1.38,2.53,2.69,4.95,2.28,7-.55,2.72-1.19,5.48-3.2,7.65-3.64,3.92-8.32,6.11-13.07,8.25-3.84,1.74-8,2.31-11.94,3.74a3.64,3.64,0,0,1-.9.24c-3.69.34-7.38.8-11.07,1s-7.76.57-11.47-.1c-4.75-.87-9.62-1-14.31-2.74-4.34-1.6-8.81-2.8-12.86-5.13-4.33-2.48-8-5.37-9.43-10.64-.56-2.14-1.29-3.86.2-5.83C143.72,499.59,143.45,498.73,143.45,498Z" transform="translate(167.38 -145.29)"/><path class="cls-1" d="M142.51,512.88c2.88,3.52,7,5.46,10.71,7.39a59.63,59.63,0,0,0,11.67,4.38,116.86,116.86,0,0,0,13.8,2.64c5.53.83,11.28.19,16.93.19,2.29-1.81,5.13-.33,7.49-1.2s4.53-1.12,6.73-1.83c4.24-1.38,8.54-2.51,12.4-5.05,3.14-2.07,6.38-3.94,9.13-7.62v20.44a50.1,50.1,0,0,1-3.47,5.31c-3.21,3.87-8,5.51-12.15,8-2.54-.41-4.17,1.88-6.63,2.19-2,.26-4.44.2-6.19,1.8-.1.09-.33,0-.49,0-3.86.33-7.71.79-11.57,1s-7.75.58-11.45-.11c-4.31-.79-8.78-.76-12.95-2.38-4-1.56-8.33-2.35-12.11-4.5s-7.43-4-9.6-8.09c-1.14-2.14-2.27-4.1-2.26-6.57C142.53,523.49,142.51,518.18,142.51,512.88Z" transform="translate(167.38 -145.29)"/><path class="cls-1" d="M274.51,276.83c3.13-2.2,5.35-5.45,8.66-7.77,3.82-2.69,8.17-3.76,12.29-5.4,2.19-.87,4.84-1.13,7.22-1.88s4.89.48,6.95-1.3c5.66,0,11.38-.48,17,.18a68,68,0,0,1,10.66,1.89c6.83,2,13.64,4.21,19.38,8.62a16.27,16.27,0,0,1,5.61,8.63c1.08,3.77-.48,7.23-2.76,10.11-2.49,3.14-6,5.11-9.62,6.81a67.41,67.41,0,0,1-13.5,4.81,82.78,82.78,0,0,1-12.67,1.88,65.36,65.36,0,0,1-13,0c-9.28-1.18-18.39-3.07-26.72-7.81-4.56-2.59-8.29-5.48-9.82-10.81-.61-2.13-1.34-3.88.28-5.83C274.79,278.55,274.51,277.65,274.51,276.83Z" transform="translate(167.38 -145.29)"/><path class="cls-1" d="M273.51,290.61c2.94,4.37,6.62,6.39,10.16,8.37a43.65,43.65,0,0,0,11.6,4.47c4,.9,7.88,2.62,12.14,2,5.75,2.12,11.7.68,17.55.91,2.66.11,5.3-.92,8.06-1,2.58-.1,5.12-1.18,7.66-1.89a54.59,54.59,0,0,0,7.53-2.28,45.91,45.91,0,0,0,7.24-4.2c2.36-1.61,4.52-3.5,7.06-5.49,0,6.18.35,12.31-.12,18.38-.3,3.94-3.13,6.95-6.18,9.35-4,3.13-14.32,7.19-19.52,8.3A105,105,0,0,1,324,329.4c-4.46.38-9.09.71-13.43-.09-4.59-.85-9.3-.84-13.83-2.66-4.27-1.71-8.72-2.92-12.88-5.07a20.84,20.84,0,0,1-8.94-8.23,9.78,9.78,0,0,1-1.37-4.39C273.42,303.19,273.51,297.41,273.51,290.61Z" transform="translate(167.38 -145.29)"/></svg>