<svg width="370" height="104" viewBox="0 0 370 104" fill="none" xmlns="http://www.w3.org/2000/svg">
<g id="sports_mob">
<g id="mar-mob">
<path d="M7.65593 2.46667H362.6V56.9989H7.67512L7.65593 2.46667ZM57.9902 48.7295C59.1995 48.7295 60.4087 48.7679 61.6116 48.6975C61.9315 48.6975 62.5009 48.2622 62.4817 48.0894C62.4592 47.8666 62.3907 47.6509 62.2806 47.4559C62.1704 47.2609 62.0211 47.0908 61.8419 46.9565C61.3396 46.7332 60.7909 46.6344 60.2424 46.6685C53.7376 46.6685 47.2285 46.6685 40.7152 46.6685H19.9276C19.0318 46.6685 18.1681 46.9437 18.1745 47.891C18.1809 48.8383 19.1214 48.7423 19.8572 48.7423L57.9902 48.7295ZM308.017 52.3457H316.162C320.295 52.3457 324.435 52.3457 328.575 52.3457C328.797 52.3258 329.012 52.2541 329.202 52.1363C329.392 52.0185 329.552 51.8579 329.669 51.6673C329.886 51.1041 329.669 50.5792 328.869 50.5344C328.37 50.5344 327.877 50.3168 327.385 50.3168C314.447 50.3168 301.515 50.3168 288.586 50.3168C288.324 50.3168 288.01 50.2208 287.818 50.3168C287.287 50.6432 286.436 51.0209 286.385 51.4561C286.283 52.2882 287.089 52.3778 287.838 52.3778C294.568 52.333 301.293 52.3457 308.017 52.3457ZM191.872 50.016H206.875C208.251 50.016 209.633 50.0608 211.008 50.016C211.322 50.016 211.891 49.5679 211.866 49.3759C211.841 49.1565 211.771 48.9444 211.661 48.7529C211.551 48.5614 211.403 48.3944 211.226 48.2622C210.726 48.0394 210.179 47.9407 209.633 47.9742C204.284 47.9742 198.942 47.9742 193.593 47.9742C187.003 47.9742 180.408 47.9742 173.81 47.9742C172.869 47.9742 171.756 48.0126 171.705 49.1071C171.647 50.3872 172.85 50.0416 173.624 50.0416C179.711 50.033 185.793 50.0245 191.872 50.016ZM211.066 35.026H217.918C221.93 35.026 225.935 35.026 229.947 35.026C230.176 35.0095 230.398 34.9374 230.593 34.8158C230.788 34.6942 230.951 34.5269 231.067 34.3283C231.291 33.7523 231.028 33.2467 230.254 33.2083C229.755 33.2083 229.262 32.9971 228.763 32.9971C216.952 32.9971 205.141 32.9971 193.33 32.9971C193.074 32.9971 192.755 32.901 192.569 32.9971C192.038 33.3363 191.187 33.7203 191.142 34.1491C191.059 34.9812 191.872 35.0644 192.62 35.058C198.75 35.0196 204.917 35.026 211.079 35.026H211.066ZM164.136 16.407H173.573C176.42 16.407 179.267 16.407 182.108 16.407C182.473 16.407 182.825 15.9333 183.183 15.6837C182.927 15.3253 182.741 14.826 182.39 14.6532C181.883 14.4463 181.337 14.3545 180.79 14.3844C171.18 14.3844 161.57 14.3844 151.96 14.3844C150.232 14.3844 148.511 14.3844 146.784 14.3844C145.888 14.3844 145.012 14.6596 145.005 15.5941C144.999 16.5286 145.971 16.407 146.681 16.407H164.136ZM331.978 31.1281H342.318C343.956 31.1281 345.594 31.1281 347.232 31.0961C347.526 31.0961 348.038 30.6609 348.044 30.424C348.042 30.2165 347.99 30.0126 347.893 29.829C347.796 29.6454 347.657 29.4874 347.488 29.368C346.939 29.1479 346.351 29.0454 345.76 29.0671C336.884 29.0671 328.007 29.0671 319.131 29.0671C318.533 28.9832 317.926 28.9961 317.333 29.1055C316.77 29.3104 315.945 29.7968 315.9 30.232C315.81 31.0641 316.616 31.1473 317.365 31.1473C322.234 31.1281 327.103 31.1281 331.978 31.1281ZM146.47 40.4536H154.615C156.637 40.4536 158.665 40.4856 160.687 40.4216C161.032 40.4216 161.64 39.98 161.634 39.7816C161.61 39.5625 161.537 39.3515 161.421 39.1643C161.305 38.9771 161.148 38.8184 160.962 38.6999C160.458 38.4823 159.91 38.3859 159.363 38.4183C151.826 38.4183 144.284 38.4183 136.739 38.4183C135.406 38.3542 134.07 38.3734 132.74 38.4759C132.202 38.5399 131.364 39.1479 131.313 39.5832C131.217 40.4152 132.017 40.5048 132.765 40.4984C137.334 40.4408 141.902 40.4536 146.47 40.4536ZM90.2625 43.8139C94.658 43.8139 99.0536 43.8139 103.449 43.8139C103.691 43.808 103.928 43.7474 104.143 43.6365C104.358 43.5257 104.545 43.3675 104.69 43.1738C104.965 42.5338 104.582 42.0474 103.801 41.9962C103.34 41.9962 102.886 41.8105 102.432 41.8105C96.7886 41.8105 91.1433 41.8105 85.4959 41.8105H77.2231C76.3849 41.8105 75.6107 42.1497 75.6363 43.0394C75.6619 43.9291 76.5001 43.8843 77.2103 43.8779C81.561 43.8075 85.9117 43.8139 90.2625 43.8139ZM247.184 56.2244H253.262C255.546 56.2244 257.83 56.2244 260.108 56.2244C260.447 56.2244 261.061 55.7764 261.048 55.5524C261.022 55.3341 260.947 55.1244 260.83 54.9385C260.713 54.7525 260.556 54.5949 260.37 54.4771C259.868 54.2625 259.323 54.1662 258.777 54.1955C252.744 54.1955 246.71 54.1955 240.677 54.1955C238.757 54.1955 236.889 54.1955 234.989 54.1955C234.138 54.1955 233.319 54.4963 233.287 55.354C233.248 56.3205 234.151 56.2757 234.906 56.2757C239 56.2117 243.095 56.2244 247.184 56.2244ZM300.02 20.2984C303.769 20.2984 307.518 20.2985 311.268 20.2665C311.488 20.2397 311.699 20.1615 311.883 20.0381C312.068 19.9147 312.221 19.7495 312.33 19.556C312.554 18.9672 312.266 18.4871 311.504 18.4487C311.05 18.4487 310.596 18.2375 310.148 18.2375C303.323 18.2375 296.516 18.2375 289.725 18.2375C289.469 18.2375 289.143 18.1415 288.964 18.2375C288.471 18.5703 287.684 18.9672 287.684 19.3896C287.62 20.0808 288.324 20.3048 289.047 20.2984C292.7 20.2472 296.36 20.2984 300.02 20.2984ZM101.37 49.5039C104.985 49.5039 108.606 49.5039 112.247 49.5039C112.456 49.4887 112.658 49.4224 112.835 49.3108C113.012 49.1992 113.16 49.0457 113.264 48.8639C113.456 48.3262 113.334 47.7438 112.522 47.6862C112.023 47.6862 111.53 47.4686 111.031 47.4622C105.861 47.4622 100.694 47.4622 95.5282 47.4622C94.0225 47.4012 92.5147 47.4205 91.0111 47.5198C90.7066 47.585 90.4232 47.7251 90.1863 47.9273C89.9495 48.1296 89.7668 48.3877 89.6547 48.6783C89.5779 49.4079 90.3329 49.5487 91.0559 49.5423C94.4725 49.4847 97.9211 49.5039 101.37 49.5039ZM77.6965 54.1507C81.2731 54.1507 84.8433 54.1507 88.4198 54.1507C88.6267 54.1308 88.826 54.0626 89.0017 53.9514C89.1773 53.8402 89.3243 53.6892 89.4308 53.5106C89.6227 52.973 89.5011 52.397 88.6886 52.3394C88.1895 52.3074 87.6968 52.1153 87.1978 52.1153C82.1177 52.1153 77.0311 52.1153 71.951 52.1153H67.6834C66.8261 52.1153 66.0519 52.4674 66.0583 53.3314C66.0647 54.1955 66.8836 54.2019 67.613 54.1955C70.9657 54.1699 74.3119 54.1699 77.6837 54.1699L77.6965 54.1507ZM24.0224 55.1876C27.5542 55.1876 31.0604 55.1876 34.6178 55.1876C34.9505 55.1876 35.5647 54.7331 35.5519 54.5155C35.5218 54.2976 35.445 54.0887 35.3269 53.9031C35.2087 53.7176 35.052 53.5597 34.8673 53.4402C34.4096 53.2274 33.9058 53.1328 33.4021 53.165C27.1127 53.165 20.8233 53.165 14.5339 53.165C14.2332 53.165 13.8429 53.0562 13.651 53.2034C13.1967 53.5426 12.5505 53.9843 12.5057 54.4387C12.4417 55.1428 13.1455 55.2516 13.7854 55.2452C17.2148 55.1748 20.6186 55.1876 24.0224 55.1876ZM333.911 45.8812C337.11 45.8812 340.309 45.8812 343.508 45.8812C343.841 45.8812 344.455 45.4332 344.448 45.2412C344.42 45.0219 344.344 44.8113 344.227 44.6237C344.11 44.436 343.954 44.2755 343.77 44.1531C343.313 43.9395 342.809 43.8449 342.305 43.8779C336.707 43.8779 331.108 43.8779 325.51 43.8779C325.209 43.8779 324.819 43.7691 324.621 43.9163C324.166 44.2555 323.514 44.6972 323.469 45.1452C323.398 45.8492 324.109 45.9645 324.748 45.9581C327.794 45.8493 330.878 45.8812 333.911 45.8812ZM204.93 54.6691C208.027 54.6691 211.13 54.6691 214.233 54.6691C214.44 54.6493 214.639 54.581 214.815 54.4698C214.991 54.3586 215.138 54.2076 215.244 54.0291C215.436 53.4914 215.314 52.9154 214.495 52.8578C213.996 52.8194 213.504 52.6338 213.011 52.6338C207.624 52.6338 202.243 52.6338 196.862 52.6338C196.517 52.6338 196.088 52.525 195.845 52.6914C195.414 53.0361 195.019 53.4243 194.668 53.8499C195.115 54.1379 195.557 54.6499 196.018 54.6627C198.986 54.7075 201.955 54.6691 204.93 54.6691ZM118.811 33.4771H127.34C127.89 33.4771 128.485 33.5923 128.568 32.741C128.651 31.8898 128.261 31.6529 127.564 31.5697C127.194 31.4966 126.82 31.4453 126.444 31.4161H110.941C110.641 31.4161 110.244 31.3329 110.058 31.4865C109.68 31.8631 109.335 32.2722 109.028 32.709C109.451 32.965 109.86 33.4387 110.308 33.4515C113.13 33.5091 115.97 33.4771 118.811 33.4771ZM160.047 30.3792C162.85 30.3792 165.646 30.3792 168.442 30.3472C168.646 30.3264 168.844 30.2577 169.017 30.1465C169.19 30.0353 169.335 29.8848 169.44 29.7072C169.508 29.5816 169.54 29.4399 169.534 29.2972C169.527 29.1546 169.482 29.0163 169.404 28.8973C169.325 28.7783 169.215 28.6829 169.086 28.6215C168.957 28.5601 168.814 28.535 168.672 28.5487C168.173 28.5487 167.68 28.3247 167.188 28.3247C162.319 28.3247 157.456 28.3247 152.587 28.3247C152.248 28.3247 151.813 28.2159 151.576 28.3823C151.151 28.7304 150.765 29.1231 150.424 29.5536C150.879 29.8288 151.32 30.3408 151.781 30.3536C154.519 30.4176 157.27 30.3792 160.047 30.3792ZM89.2196 17.9687C91.9772 17.9687 94.7348 17.9687 97.486 17.9687C97.6939 17.9525 97.8947 17.8857 98.0708 17.7741C98.247 17.6626 98.3933 17.5096 98.4969 17.3286C98.6889 16.791 98.5737 16.2085 97.7547 16.1509C97.2557 16.1125 96.763 15.9269 96.2704 15.9269C91.5741 15.9269 86.8843 15.9269 82.1944 15.9269C81.8553 15.9269 81.4267 15.8181 81.1835 15.9781C80.7504 16.3227 80.3538 16.711 79.9999 17.1366C80.4477 17.4246 80.8892 17.9367 81.3499 17.9495C83.9475 18.0135 86.5772 17.9687 89.2004 17.9687H89.2196ZM263.057 44.0763C265.463 44.0763 267.875 44.0763 270.287 44.0763C270.876 44.0763 271.618 44.3387 271.727 43.2955C271.836 42.2522 271.004 42.2842 270.447 42.0665C270.123 41.9896 269.787 41.9701 269.456 42.0089H256.384C256.039 42.0089 255.604 41.9001 255.367 42.0665C254.948 42.4189 254.566 42.8135 254.228 43.2442C254.676 43.5195 255.124 44.0251 255.584 44.0379C258.08 44.1147 260.575 44.0763 263.057 44.0763ZM8.75641 19.268V21.3289C13.6766 21.3289 18.5328 21.3289 23.389 21.2969C23.5699 21.2555 23.7371 21.1685 23.8749 21.0441C24.0126 20.9198 24.1163 20.7622 24.176 20.5865C24.17 20.3927 24.125 20.2021 24.0437 20.0261C23.9623 19.8501 23.8463 19.6924 23.7025 19.5624C23.4292 19.3612 23.0943 19.2616 22.7556 19.2808C18.1105 19.2616 13.4719 19.268 8.75641 19.268ZM130.558 47.9486C132.478 47.9486 134.435 47.9934 136.368 47.9486C137.007 47.9486 138.082 48.4671 138.127 47.1358C138.172 45.8044 137.065 46.0989 136.316 45.9068C136.187 45.8907 136.056 45.8907 135.926 45.9068H125.049C124.672 45.8493 124.286 45.8912 123.93 46.0285C123.556 46.3633 123.229 46.7464 122.957 47.1677C123.373 47.4366 123.776 47.9166 124.198 47.9358C126.335 47.9934 128.447 47.9486 130.558 47.9486ZM147.193 53.8947C149.26 53.8947 151.326 53.9331 153.387 53.8947C153.634 53.8899 153.877 53.83 154.099 53.7193C154.32 53.6086 154.514 53.4498 154.666 53.2546C154.999 52.4866 154.43 52.1089 153.7 51.9745C153.327 51.9014 152.948 51.8565 152.568 51.8401C148.914 51.8401 145.255 51.8401 141.595 51.8401C141.294 51.8401 140.91 51.7441 140.712 51.8913C140.287 52.2451 139.893 52.6348 139.535 53.0562C139.983 53.3442 140.424 53.8499 140.885 53.8691C142.977 53.9459 145.088 53.8947 147.2 53.8947H147.193ZM43.0185 30.8913C45.0851 30.8913 47.1517 30.9361 49.2183 30.8913C49.4773 30.8894 49.7328 30.8312 49.967 30.7207C50.2012 30.6101 50.4086 30.45 50.5748 30.2512C50.965 29.3424 50.1269 29.1375 49.4743 28.9711C49.1402 28.8994 48.7977 28.8756 48.457 28.9007C44.7972 28.9007 41.1375 28.9007 37.4777 28.9007C37.1029 28.859 36.7238 28.9233 36.3836 29.0863C36.049 29.4284 35.7647 29.8163 35.5391 30.2384C35.923 30.4816 36.3005 30.9169 36.6908 30.9297C38.8021 30.9297 40.9071 30.8913 43.0185 30.8913ZM19.2366 39.4487C21.0857 39.4487 22.9347 39.4936 24.7838 39.4487C25.4236 39.4487 26.4985 39.9672 26.5433 38.6359C26.5881 37.3046 25.4812 37.6054 24.7326 37.4134C24.603 37.3973 24.4719 37.3973 24.3423 37.4134H14.0157C13.6377 37.3575 13.2517 37.4017 12.896 37.5414C12.5211 37.8747 12.1939 38.2581 11.9235 38.6807C12.3394 38.9431 12.7425 39.4231 13.1647 39.4423C15.1866 39.4487 17.2084 39.4487 19.2366 39.4487ZM275.975 32.2098H281.913C282.469 32.2098 283.071 32.3122 283.122 31.4609C283.167 30.7889 282.962 30.392 282.22 30.36C281.894 30.36 281.58 30.1552 281.254 30.1552C277.677 30.1552 274.107 30.1552 270.537 30.1552C270.281 30.1552 269.929 30.0848 269.782 30.2192C269.415 30.6035 269.079 31.0166 268.777 31.4545C269.193 31.7042 269.609 32.165 270.057 32.1842C272.015 32.229 273.992 32.1842 275.975 32.1842V32.2098ZM337.321 55.7316H343.258C343.809 55.7316 344.404 55.8404 344.487 54.9892C344.57 54.1379 344.173 53.9075 343.482 53.8179C343.112 53.7469 342.738 53.6977 342.363 53.6707C338.92 53.6707 335.478 53.6707 332.03 53.6707C331.735 53.6707 331.332 53.5874 331.153 53.7411C330.773 54.1144 330.43 54.5238 330.129 54.9636C330.545 55.2196 330.955 55.6868 331.409 55.6996C333.36 55.7508 335.357 55.706 337.321 55.706V55.7316ZM254.51 25.2076C256.359 25.2076 258.208 25.2076 260.057 25.2076C260.633 25.2076 261.298 25.3868 261.388 24.4396C261.464 23.6203 260.991 23.3963 260.351 23.2875C259.98 23.2108 259.603 23.1659 259.225 23.1531C256.083 23.1531 252.942 23.1531 249.8 23.1531C249.5 23.1531 249.116 23.0571 248.918 23.2043C248.492 23.558 248.099 23.9478 247.74 24.3692C248.188 24.6508 248.623 25.1564 249.09 25.182C250.901 25.2652 252.699 25.2076 254.51 25.2076ZM234.611 42.0089C236.588 42.0089 238.565 42.041 240.549 42.0089C240.849 42.0089 241.368 41.5929 241.381 41.3689C241.372 41.16 241.32 40.9552 241.227 40.7677C241.135 40.5802 241.004 40.4143 240.843 40.2808C240.479 40.0686 240.061 39.9685 239.64 39.9928C236.243 39.9928 232.845 39.9928 229.442 39.9928C229.192 39.9678 228.942 40.0287 228.731 40.1656C228.429 40.5338 228.153 40.9231 227.906 41.3305C228.29 41.5737 228.667 42.0025 229.058 42.0217C230.907 42.0473 232.756 42.0089 234.611 42.0089ZM208.827 21.5977C210.637 21.5977 212.442 21.5978 214.246 21.5658C214.451 21.5445 214.648 21.4755 214.821 21.3643C214.994 21.2532 215.139 21.103 215.244 20.9257C215.436 20.3753 215.282 19.812 214.483 19.7672C214.112 19.7672 213.747 19.5496 213.382 19.5432C210.241 19.5432 207.099 19.5432 203.958 19.5432C203.668 19.5069 203.374 19.5653 203.12 19.7096C202.799 20.0725 202.516 20.4671 202.275 20.8873C202.659 21.1305 203.03 21.5722 203.42 21.585C205.212 21.6298 207.022 21.5914 208.827 21.5914V21.5977ZM361.256 18.7559C357.622 18.7559 354.135 18.7559 350.648 18.7559C350.476 18.7559 350.245 18.7047 350.143 18.7943C349.727 19.1592 349.356 19.5688 348.966 19.9656C349.413 20.2537 349.855 20.7593 350.316 20.7785C352.235 20.8745 354.193 20.8233 356.131 20.8233H361.25L361.256 18.7559ZM301.306 41.7529C302.982 41.7529 304.658 41.7849 306.335 41.7529C306.629 41.7529 307.134 41.3177 307.141 41.0745C307.125 40.8676 307.066 40.6663 306.968 40.4834C306.87 40.3005 306.735 40.14 306.571 40.012C306.206 39.8048 305.788 39.7071 305.368 39.7304C302.617 39.7304 299.866 39.7304 297.115 39.7304C296.865 39.7304 296.533 39.7304 296.379 39.8456C296.032 40.2053 295.709 40.5881 295.413 40.9913C295.829 41.2601 296.232 41.7273 296.661 41.7593C298.203 41.8041 299.757 41.7465 301.306 41.7465V41.7529ZM229.857 50.7904C231.489 50.7904 233.127 50.8352 234.758 50.7584C235.091 50.7584 235.693 50.2976 235.68 50.08C235.592 49.6478 235.345 49.2643 234.989 49.0047C234.663 48.8101 234.287 48.7166 233.907 48.7359C231.156 48.7359 228.405 48.7359 225.654 48.7359C225.404 48.7359 225.072 48.7359 224.918 48.8575C224.573 49.2158 224.254 49.5987 223.965 50.0032C224.381 50.272 224.784 50.7392 225.244 50.7648C226.754 50.848 228.309 50.7968 229.857 50.7904ZM257.005 50.5344C258.598 50.5344 260.204 50.5664 261.778 50.5024C262.085 50.5024 262.603 50.0864 262.61 49.8624C262.604 49.6538 262.553 49.449 262.46 49.2621C262.367 49.0753 262.235 48.911 262.072 48.7807C261.663 48.5662 261.203 48.4667 260.741 48.4927C258.182 48.4927 255.661 48.4927 253.128 48.4927C252.836 48.467 252.543 48.5318 252.289 48.6783C251.955 49.0004 251.653 49.3541 251.387 49.7344C251.797 50.0096 252.193 50.4896 252.622 50.5152C254.1 50.5984 255.546 50.5344 257.005 50.5344ZM354.967 52.3457C356.426 52.3457 357.891 52.3842 359.35 52.3457C359.663 52.3457 360.233 51.9105 360.213 51.7057C360.144 51.263 359.917 50.8605 359.574 50.5728C359.212 50.3612 358.795 50.2652 358.377 50.2976C356.01 50.2976 353.643 50.2976 351.282 50.2976C350.949 50.2741 350.616 50.3522 350.328 50.5216C350.032 50.8551 349.777 51.2225 349.567 51.6161C349.951 51.8593 350.316 52.3009 350.712 52.3201C352.126 52.3969 353.547 52.3457 354.967 52.3457ZM52.7629 53.1202C54.2665 53.1202 55.7765 53.1586 57.2736 53.0882C57.5743 53.0882 58.0798 52.653 58.0862 52.4098C58.0704 52.2028 58.0116 52.0013 57.9136 51.8184C57.8155 51.6354 57.6804 51.475 57.5168 51.3473C57.1523 51.137 56.7338 51.039 56.3139 51.0656C53.9082 51.0656 51.5025 51.0656 49.0904 51.0656C48.7579 51.0448 48.4271 51.1275 48.1435 51.3025C47.8299 51.5649 47.3629 52.0961 47.4525 52.2946C47.5587 52.4962 47.7086 52.6715 47.8913 52.8077C48.0739 52.9439 48.2847 53.0375 48.5081 53.0818C49.9221 53.1778 51.3425 53.1202 52.7629 53.1202ZM278.925 53.3762C279.737 53.4169 280.552 53.4062 281.363 53.3442C281.714 53.2994 282.297 52.877 282.278 52.6594C282.278 52.2818 281.874 51.6353 281.599 51.6097C279.827 51.4433 278.042 51.4113 276.263 51.3665C276.156 51.3694 276.051 51.3962 275.956 51.4449C275.861 51.4936 275.778 51.5631 275.713 51.6481C275.521 51.9681 275.259 52.397 275.342 52.685C275.429 52.8523 275.553 52.9972 275.705 53.1083C275.857 53.2194 276.033 53.2936 276.218 53.325C277.133 53.4338 278.023 53.3762 278.925 53.3762Z" fill="#00A1E7"/>
<path d="M7.4 93.437C7.62394 94.8771 8.67963 94.7171 9.74173 94.7171H362.6C362.562 94.8067 362.523 94.9603 362.472 94.9667C362.127 94.9667 361.781 94.9667 361.436 94.9667H7.4V93.437Z" fill="#FEFEFE"/>
<path d="M7.67512 56.9733C7.67512 67.1629 7.66446 77.3546 7.64313 87.5485C7.60299 88.138 7.52175 88.724 7.4 89.3022C7.4 60.7432 7.4 32.1842 7.4 3.62516C7.44314 3.23144 7.52676 2.84322 7.64953 2.46667L7.67512 56.9733Z" fill="#FEFEFE"/>
<path d="M19.838 48.7295C19.1022 48.7295 18.1617 48.8319 18.1553 47.8782C18.1489 46.9245 19.0127 46.6557 19.9084 46.6557H40.728C47.2413 46.6557 53.7504 46.6557 60.2552 46.6557C60.8037 46.6216 61.3524 46.7204 61.8547 46.9437C62.0339 47.078 62.1832 47.2481 62.2934 47.4431C62.4035 47.6381 62.472 47.8538 62.4945 48.0766C62.4945 48.2494 61.9443 48.6655 61.6244 48.6847C60.4215 48.7551 59.2123 48.6847 58.003 48.7167L19.838 48.7295Z" fill="#FEFEFE"/>
<path d="M308.017 52.3457C301.293 52.3457 294.581 52.3458 287.844 52.3458C287.095 52.3458 286.289 52.2562 286.392 51.4241C286.443 50.9889 287.294 50.6112 287.825 50.2848C288.017 50.1696 288.33 50.2848 288.593 50.2848C301.525 50.2848 314.458 50.2848 327.391 50.2848C327.884 50.2848 328.376 50.4768 328.875 50.5024C329.662 50.5472 329.893 51.0721 329.675 51.6353C329.558 51.8259 329.398 51.9865 329.208 52.1043C329.018 52.2221 328.804 52.2939 328.581 52.3138C324.441 52.365 320.302 52.3138 316.169 52.3138L308.017 52.3457Z" fill="#FEFEFE"/>
<path d="M191.872 50.016C185.793 50.016 179.715 50.016 173.637 50.016C172.844 50.016 171.641 50.3424 171.717 49.0815C171.769 47.987 172.882 47.9486 173.822 47.9486C180.421 47.9486 187.015 47.9486 193.606 47.9486C198.954 47.9486 204.297 47.9486 209.646 47.9486C210.192 47.915 210.739 48.0138 211.239 48.2366C211.416 48.3688 211.564 48.5358 211.674 48.7273C211.784 48.9188 211.854 49.1308 211.879 49.3503C211.879 49.5295 211.335 49.9584 211.021 49.9904C209.646 50.0608 208.264 49.9904 206.888 49.9904L191.872 50.016Z" fill="#FEFEFE"/>
<path d="M211.079 35.026C204.917 35.026 198.75 35.026 192.588 35.026C191.84 35.026 191.027 34.9492 191.11 34.1172C191.155 33.6883 192.006 33.3043 192.537 32.965C192.723 32.8498 193.042 32.965 193.298 32.965C205.109 32.965 216.92 32.965 228.731 32.965C229.23 32.965 229.723 33.1507 230.222 33.1763C230.996 33.2147 231.259 33.7203 231.035 34.2964C230.923 34.4891 230.768 34.6527 230.581 34.774C230.394 34.8952 230.181 34.9706 229.96 34.994C225.948 35.0388 221.943 34.994 217.931 34.994L211.079 35.026Z" fill="#FEFEFE"/>
<path d="M164.136 16.407H146.681C145.946 16.407 144.992 16.5094 145.005 15.5365C145.018 14.5636 145.888 14.3204 146.784 14.3268C148.511 14.3268 150.232 14.3268 151.96 14.3268C161.57 14.3268 171.18 14.3268 180.79 14.3268C181.337 14.2969 181.883 14.3887 182.39 14.5956C182.741 14.7684 182.927 15.2357 183.183 15.6261C182.825 15.8757 182.473 16.3429 182.108 16.3493C179.267 16.4069 176.42 16.3493 173.573 16.3493L164.136 16.407Z" fill="#FEFEFE"/>
<path d="M331.978 31.1281C327.103 31.1281 322.234 31.1281 317.365 31.1281C316.616 31.1281 315.81 31.0449 315.9 30.2128C315.945 29.7776 316.77 29.2912 317.333 29.0863C317.926 28.9769 318.533 28.964 319.131 29.0479C328.003 29.0479 336.879 29.0479 345.76 29.0479C346.351 29.0262 346.939 29.1287 347.488 29.3488C347.657 29.4682 347.796 29.6262 347.893 29.8098C347.99 29.9934 348.042 30.1973 348.044 30.4048C348.044 30.6417 347.526 31.0449 347.232 31.0769C345.594 31.1409 343.956 31.1089 342.318 31.1089L331.978 31.1281Z" fill="#FEFEFE"/>
<path d="M146.47 40.4536C141.902 40.4536 137.334 40.4536 132.765 40.4536C132.017 40.4536 131.217 40.3704 131.313 39.5384C131.364 39.1031 132.202 38.4951 132.74 38.4311C134.07 38.3286 135.406 38.3094 136.739 38.3735C144.284 38.3735 151.826 38.3735 159.363 38.3735C159.91 38.3411 160.458 38.4375 160.962 38.6551C161.148 38.7736 161.305 38.9323 161.421 39.1195C161.537 39.3067 161.61 39.5177 161.634 39.7368C161.634 39.9544 161.032 40.3768 160.687 40.3768C158.665 40.4408 156.637 40.4088 154.615 40.4088L146.47 40.4536Z" fill="#FEFEFE"/>
<path d="M90.2625 43.8139C85.9117 43.8139 81.561 43.8139 77.2103 43.8139C76.5001 43.8139 75.6555 43.8843 75.6363 42.9754C75.6171 42.0666 76.3849 41.7465 77.2231 41.7465H85.4959C91.1476 41.7465 96.7929 41.7465 102.432 41.7465C102.886 41.7465 103.34 41.9001 103.801 41.9321C104.582 41.9833 104.965 42.4634 104.69 43.1098C104.545 43.3035 104.358 43.4617 104.143 43.5725C103.928 43.6834 103.691 43.744 103.449 43.7499C99.0536 43.8331 94.658 43.8139 90.2625 43.8139Z" fill="#FEFEFE"/>
<path d="M247.184 56.2244C243.095 56.2244 239 56.2245 234.906 56.2245C234.151 56.2245 233.248 56.2693 233.287 55.3028C233.287 54.4451 234.138 54.1379 234.989 54.1443C236.908 54.1443 238.783 54.1443 240.677 54.1443C246.71 54.1443 252.744 54.1443 258.777 54.1443C259.323 54.115 259.868 54.2113 260.37 54.4259C260.556 54.5437 260.713 54.7013 260.83 54.8873C260.947 55.0732 261.022 55.2829 261.048 55.5012C261.048 55.7252 260.447 56.1413 260.108 56.1733C257.83 56.2309 255.546 56.1733 253.262 56.1733L247.184 56.2244Z" fill="#FEFEFE"/>
<path d="M300.02 20.2984C296.36 20.2984 292.7 20.2984 289.034 20.2984C288.285 20.2984 287.607 20.0808 287.671 19.3896C287.71 18.9672 288.471 18.5703 288.951 18.2375C289.13 18.1159 289.456 18.2375 289.712 18.2375C296.537 18.2375 303.345 18.2375 310.135 18.2375C310.583 18.2375 311.037 18.4295 311.492 18.4487C312.253 18.4871 312.541 18.9672 312.317 19.556C312.208 19.7495 312.055 19.9147 311.871 20.0381C311.686 20.1615 311.475 20.2397 311.255 20.2665C307.518 20.3177 303.769 20.2984 300.02 20.2984Z" fill="#FEFEFE"/>
<path d="M101.37 49.5039C97.9211 49.5039 94.4725 49.5039 91.0303 49.5039C90.3073 49.5039 89.5523 49.3695 89.6291 48.6399C89.7412 48.3493 89.9239 48.0912 90.1608 47.8889C90.3976 47.6867 90.681 47.5466 90.9855 47.4814C92.4891 47.3821 93.9969 47.3628 95.5026 47.4238C100.672 47.4238 105.84 47.4238 111.005 47.4238C111.504 47.4238 111.997 47.6158 112.496 47.6478C113.309 47.7054 113.43 48.2878 113.238 48.8255C113.134 49.0073 112.987 49.1608 112.809 49.2724C112.632 49.384 112.43 49.4503 112.221 49.4655C108.606 49.5167 104.985 49.5039 101.37 49.5039Z" fill="#FEFEFE"/>
<path d="M77.6837 54.1699C74.3247 54.1699 70.9657 54.1699 67.6002 54.1699C66.8709 54.1699 66.0519 54.1699 66.0455 53.3058C66.0391 52.4418 66.8133 52.0897 67.6706 52.0897H71.9382C77.0183 52.0897 82.1049 52.0897 87.185 52.0897C87.684 52.0897 88.1767 52.2818 88.6758 52.3138C89.4883 52.3714 89.6099 52.9538 89.418 53.485C89.3115 53.6636 89.1645 53.8146 88.9889 53.9258C88.8132 54.0369 88.6139 54.1052 88.407 54.1251C84.8305 54.1699 81.2603 54.1699 77.6837 54.1699Z" fill="#FEFEFE"/>
<path d="M24.0224 55.1876C20.6186 55.1876 17.2148 55.1876 13.7854 55.1876C13.1455 55.1876 12.4162 55.0852 12.5057 54.3811C12.5505 53.9267 13.1967 53.485 13.651 53.1458C13.8429 52.9986 14.2332 53.1074 14.5339 53.1074C20.8233 53.1074 27.1127 53.1074 33.4021 53.1074C33.9058 53.0752 34.4096 53.1698 34.8673 53.3826C35.052 53.5021 35.2087 53.66 35.3269 53.8455C35.445 54.0311 35.5218 54.24 35.5519 54.4579C35.5519 54.6755 34.9505 55.098 34.6178 55.13C31.086 55.2068 27.5542 55.1876 24.0224 55.1876Z" fill="#FEFEFE"/>
<path d="M333.911 45.8812C330.852 45.8812 327.794 45.8812 324.742 45.8812C324.064 45.8812 323.366 45.7724 323.462 45.0684C323.507 44.6204 324.16 44.1787 324.614 43.8395C324.812 43.6923 325.203 43.8011 325.503 43.8011C331.102 43.8011 336.7 43.8011 342.299 43.8011C342.802 43.7681 343.306 43.8627 343.764 44.0763C343.948 44.1987 344.104 44.3592 344.221 44.5468C344.338 44.7345 344.413 44.9451 344.442 45.1644C344.442 45.382 343.834 45.8044 343.501 45.8044C340.29 45.9068 337.097 45.8812 333.911 45.8812Z" fill="#FEFEFE"/>
<path d="M204.93 54.6691C201.955 54.6691 198.986 54.7075 196.018 54.6307C195.557 54.6307 195.115 54.1059 194.668 53.8179C195.019 53.3923 195.414 53.0041 195.845 52.6594C196.088 52.493 196.517 52.6018 196.862 52.6018C202.243 52.6018 207.624 52.6018 213.011 52.6018C213.504 52.6018 213.996 52.7874 214.495 52.8258C215.314 52.8834 215.436 53.4659 215.244 53.9971C215.138 54.1756 214.991 54.3266 214.815 54.4378C214.639 54.549 214.44 54.6173 214.233 54.6371C211.13 54.6883 208.033 54.6691 204.93 54.6691Z" fill="#FEFEFE"/>
<path d="M118.811 33.4771C115.97 33.4771 113.13 33.5091 110.289 33.4451C109.86 33.4451 109.451 32.9586 109.009 32.7026C109.316 32.2658 109.661 31.8567 110.039 31.4801C110.225 31.3265 110.621 31.4097 110.922 31.4097H126.425C126.801 31.4389 127.175 31.4902 127.545 31.5633C128.242 31.6465 128.626 31.9474 128.549 32.7346C128.472 33.5219 127.871 33.4707 127.321 33.4707L118.811 33.4771Z" fill="#FEFEFE"/>
<path d="M160.047 30.3792C157.29 30.3792 154.538 30.4176 151.781 30.3408C151.32 30.3408 150.879 29.816 150.424 29.5408C150.765 29.1103 151.151 28.7176 151.576 28.3695C151.813 28.2031 152.248 28.3119 152.587 28.3119C157.456 28.3119 162.319 28.3119 167.188 28.3119C167.68 28.3119 168.173 28.5039 168.672 28.5359C168.814 28.5222 168.957 28.5473 169.086 28.6087C169.215 28.6701 169.325 28.7655 169.404 28.8845C169.482 29.0035 169.527 29.1418 169.534 29.2844C169.54 29.4271 169.508 29.5688 169.44 29.6944C169.335 29.872 169.19 30.0225 169.017 30.1337C168.844 30.2449 168.646 30.3136 168.442 30.3344C165.626 30.3984 162.83 30.3792 160.047 30.3792Z" fill="#FEFEFE"/>
<path d="M89.2004 17.9687C86.5772 17.9687 83.9475 18.0135 81.3243 17.9303C80.8636 17.9303 80.4222 17.4054 79.9743 17.1174C80.3282 16.6917 80.7248 16.3035 81.1579 15.9589C81.4011 15.7989 81.8297 15.9077 82.1688 15.9077C86.8651 15.9077 91.5549 15.9077 96.2448 15.9077C96.7374 15.9077 97.2301 16.0933 97.7292 16.1317C98.5481 16.1893 98.6633 16.7718 98.4713 17.3094C98.3677 17.4904 98.2214 17.6434 98.0453 17.7549C97.8691 17.8665 97.6683 17.9333 97.4604 17.9495C94.7156 17.9943 91.958 17.9687 89.2004 17.9687Z" fill="#FEFEFE"/>
<path d="M263.057 44.0763C260.556 44.0763 258.061 44.1147 255.565 44.0379C255.105 44.0379 254.657 43.5195 254.209 43.2442C254.547 42.8135 254.929 42.4189 255.348 42.0665C255.584 41.9001 255.988 42.0089 256.365 42.0089L269.456 42.0089C269.797 41.9621 270.144 41.9773 270.479 42.0538C271.055 42.2714 271.887 42.2394 271.759 43.2826C271.631 44.3259 270.908 44.0635 270.319 44.0635C267.894 44.0827 265.482 44.0763 263.057 44.0763Z" fill="#FEFEFE"/>
<path d="M8.75641 19.268C13.4719 19.268 18.1105 19.268 22.7556 19.268C23.0943 19.2488 23.4292 19.3484 23.7025 19.5496C23.8463 19.6796 23.9623 19.8374 24.0437 20.0133C24.125 20.1893 24.17 20.3799 24.176 20.5737C24.1163 20.7494 24.0126 20.9069 23.8749 21.0313C23.7371 21.1557 23.5699 21.2427 23.389 21.2841C18.5328 21.3289 13.6766 21.3161 8.75641 21.3161V19.268Z" fill="#FEFEFE"/>
<path d="M130.558 47.9486C128.447 47.9486 126.335 47.9934 124.23 47.9486C123.808 47.9486 123.405 47.4494 122.989 47.1805C123.261 46.7592 123.588 46.3761 123.962 46.0413C124.318 45.904 124.704 45.8621 125.081 45.9196H135.958C136.088 45.9035 136.219 45.9035 136.348 45.9196C137.097 46.1117 138.21 45.8428 138.159 47.1485C138.108 48.4542 137.046 47.9358 136.4 47.9614C134.455 47.9934 132.497 47.9486 130.558 47.9486Z" fill="#FEFEFE"/>
<path d="M147.2 53.8947C145.088 53.8947 142.977 53.9459 140.872 53.8563C140.411 53.8563 139.97 53.3314 139.522 53.0434C139.88 52.622 140.274 52.2323 140.699 51.8785C140.898 51.7313 141.281 51.8273 141.582 51.8273C145.242 51.8273 148.902 51.8273 152.555 51.8273C152.935 51.8437 153.314 51.8886 153.687 51.9617C154.417 52.0769 154.967 52.4546 154.654 53.2418C154.501 53.437 154.307 53.5958 154.086 53.7065C153.865 53.8172 153.621 53.8771 153.374 53.8819C151.333 53.9331 149.266 53.8947 147.2 53.8947Z" fill="#FEFEFE"/>
<path d="M43.0185 30.8913C40.9071 30.8913 38.8021 30.9297 36.6908 30.8593C36.3005 30.8593 35.923 30.4112 35.5391 30.168C35.7647 29.7459 36.049 29.3581 36.3836 29.0159C36.7238 28.8529 37.1029 28.7886 37.4777 28.8303C41.1375 28.8303 44.7972 28.8303 48.457 28.8303C48.7977 28.8052 49.1402 28.8289 49.4743 28.9007C50.1141 29.0863 50.965 29.2912 50.5748 30.1808C50.4086 30.3796 50.2012 30.5398 49.967 30.6503C49.7328 30.7608 49.4773 30.819 49.2183 30.8209C47.1517 30.9361 45.0851 30.8913 43.0185 30.8913Z" fill="#FEFEFE"/>
<path d="M19.2366 39.4487C17.2084 39.4487 15.1866 39.4936 13.1647 39.4103C12.7425 39.4103 12.3394 38.9111 11.9235 38.6487C12.19 38.2174 12.5151 37.8254 12.8896 37.4838C13.2453 37.3441 13.6313 37.2999 14.0093 37.3558H24.3423C24.4719 37.3397 24.603 37.3397 24.7326 37.3558C25.4812 37.5478 26.5881 37.279 26.5433 38.5783C26.4985 39.8776 25.43 39.3719 24.7838 39.3911C22.9347 39.4488 21.0857 39.4487 19.2366 39.4487Z" fill="#FEFEFE"/>
<path d="M275.975 32.1842C273.992 32.1842 272.015 32.229 270.038 32.1842C269.609 32.1842 269.193 31.7042 268.758 31.4545C269.06 31.0166 269.395 30.6035 269.763 30.2192C269.91 30.0848 270.262 30.1552 270.518 30.1552C274.088 30.1552 277.658 30.1552 281.235 30.1552C281.555 30.1552 281.874 30.3472 282.201 30.36C282.943 30.392 283.148 30.7889 283.103 31.4609C283.052 32.3122 282.463 32.2098 281.894 32.2098L275.975 32.1842Z" fill="#FEFEFE"/>
<path d="M337.321 55.706C335.344 55.706 333.36 55.7508 331.383 55.6676C330.955 55.6676 330.545 55.1876 330.104 54.9316C330.405 54.4918 330.747 54.0824 331.127 53.7091C331.307 53.5554 331.71 53.6387 332.004 53.6387C335.453 53.6387 338.895 53.6387 342.337 53.6387C342.713 53.6657 343.087 53.7148 343.457 53.7859C344.148 53.8755 344.538 54.1699 344.461 54.9572C344.384 55.7444 343.783 55.6932 343.233 55.6996L337.321 55.706Z" fill="#FEFEFE"/>
<path d="M254.51 25.2076C252.699 25.2076 250.888 25.2653 249.09 25.1692C248.623 25.1692 248.188 24.638 247.74 24.3564C248.099 23.935 248.492 23.5453 248.918 23.1915C249.116 23.0443 249.5 23.1403 249.8 23.1403C252.942 23.1403 256.083 23.1403 259.225 23.1403C259.603 23.1531 259.98 23.198 260.351 23.2747C260.991 23.3835 261.464 23.6075 261.388 24.4268C261.298 25.3741 260.633 25.1949 260.057 25.1949C258.208 25.2141 256.359 25.2076 254.51 25.2076Z" fill="#FEFEFE"/>
<path d="M234.611 42.0089C232.756 42.0089 230.907 42.0474 229.058 41.977C228.667 41.977 228.29 41.5289 227.906 41.2857C228.153 40.8783 228.429 40.489 228.731 40.1208C228.942 39.9839 229.192 39.923 229.442 39.948C232.845 39.948 236.243 39.948 239.64 39.948C240.061 39.9237 240.479 40.0239 240.843 40.236C241.004 40.3696 241.135 40.5354 241.227 40.7229C241.32 40.9103 241.372 41.1152 241.381 41.3241C241.381 41.5609 240.849 41.9641 240.549 41.9641C238.565 42.0089 236.588 42.0089 234.611 42.0089Z" fill="#FEFEFE"/>
<path d="M208.827 21.5914C207.022 21.5914 205.212 21.6298 203.407 21.553C203.017 21.553 202.646 21.0985 202.262 20.8553C202.508 20.4412 202.795 20.0531 203.12 19.6968C203.374 19.5525 203.668 19.4941 203.958 19.5304C207.099 19.5304 210.241 19.5304 213.382 19.5304C213.747 19.5304 214.112 19.7288 214.483 19.7544C215.282 19.7992 215.436 20.3625 215.244 20.9129C215.139 21.0902 214.994 21.2404 214.821 21.3515C214.648 21.4627 214.451 21.5317 214.246 21.553C212.442 21.6234 210.637 21.5914 208.827 21.5914Z" fill="#FEFEFE"/>
<path d="M361.256 18.7495V20.8169H356.138C354.218 20.8169 352.254 20.8681 350.322 20.7721C349.861 20.7721 349.42 20.2472 348.972 19.9592C349.362 19.5624 349.733 19.1528 350.149 18.7879C350.252 18.6983 350.482 18.7495 350.655 18.7495C354.135 18.7431 357.622 18.7495 361.256 18.7495Z" fill="#FEFEFE"/>
<path d="M301.306 41.7465C299.757 41.7465 298.203 41.8041 296.661 41.7465C296.232 41.7145 295.829 41.2473 295.413 40.9785C295.709 40.5753 296.032 40.1925 296.379 39.8328C296.533 39.692 296.865 39.7176 297.115 39.7176C299.866 39.7176 302.617 39.7176 305.368 39.7176C305.788 39.6943 306.206 39.792 306.571 39.9992C306.735 40.1271 306.87 40.2877 306.968 40.4706C307.066 40.6535 307.125 40.8548 307.141 41.0617C307.141 41.3049 306.629 41.7017 306.335 41.7401C304.645 41.7785 302.982 41.7465 301.306 41.7465Z" fill="#FEFEFE"/>
<path d="M229.857 50.7904C228.309 50.7904 226.754 50.848 225.212 50.7584C224.784 50.7584 224.381 50.2656 223.933 49.9968C224.222 49.5923 224.541 49.2094 224.886 48.8511C225.04 48.7103 225.372 48.7295 225.622 48.7295C228.373 48.7295 231.124 48.7295 233.875 48.7295C234.255 48.7102 234.631 48.8037 234.957 48.9983C235.313 49.2579 235.56 49.6414 235.648 50.0736C235.648 50.2912 235.059 50.7136 234.726 50.752C233.127 50.8352 231.489 50.7904 229.857 50.7904Z" fill="#FEFEFE"/>
<path d="M257.005 50.5344C255.546 50.5344 254.081 50.5984 252.622 50.496C252.193 50.496 251.797 49.9904 251.387 49.7152C251.653 49.3349 251.955 48.9812 252.289 48.6591C252.543 48.5126 252.836 48.4478 253.128 48.4735C255.687 48.4735 258.201 48.4735 260.741 48.4735C261.203 48.4475 261.663 48.547 262.072 48.7615C262.235 48.8918 262.367 49.0561 262.46 49.2429C262.553 49.4298 262.604 49.6346 262.61 49.8432C262.61 50.08 262.085 50.4832 261.778 50.4832C260.191 50.5664 258.579 50.5344 257.005 50.5344Z" fill="#FEFEFE"/>
<path d="M354.967 52.3457C353.547 52.3457 352.126 52.3969 350.712 52.3073C350.315 52.3073 349.951 51.8465 349.567 51.6033C349.777 51.2096 350.032 50.8423 350.328 50.5088C350.616 50.3394 350.949 50.2613 351.282 50.2848C353.643 50.2848 356.01 50.2848 358.377 50.2848C358.795 50.2523 359.212 50.3484 359.574 50.56C359.917 50.8477 360.144 51.2502 360.213 51.6929C360.213 51.8721 359.663 52.2945 359.35 52.333C357.891 52.3842 356.426 52.3457 354.967 52.3457Z" fill="#FEFEFE"/>
<path d="M52.7629 53.1202C51.3425 53.1202 49.9221 53.1778 48.5081 53.0818C48.2824 53.0393 48.0691 52.9465 47.8841 52.8102C47.6991 52.6739 47.5472 52.4977 47.4397 52.2946C47.3501 52.0961 47.8171 51.5649 48.1307 51.3025C48.4143 51.1276 48.7451 51.0448 49.0776 51.0657C51.4897 51.0657 53.8954 51.0657 56.3011 51.0657C56.721 51.039 57.1395 51.137 57.504 51.3473C57.6676 51.475 57.8027 51.6354 57.9008 51.8184C57.9988 52.0013 58.0576 52.2028 58.0734 52.4098C58.0734 52.653 57.5615 53.0498 57.2608 53.0882C55.7573 53.1586 54.2665 53.1202 52.7629 53.1202Z" fill="#FEFEFE"/>
<path d="M278.925 53.3762C278.023 53.3762 277.114 53.4338 276.219 53.3442C276.033 53.3128 275.857 53.2386 275.705 53.1275C275.553 53.0164 275.429 52.8715 275.342 52.7042C275.259 52.4162 275.521 51.9873 275.713 51.6673C275.778 51.5823 275.861 51.5128 275.956 51.4641C276.051 51.4154 276.156 51.3886 276.263 51.3857C278.042 51.4305 279.827 51.4625 281.599 51.6289C281.874 51.6289 282.239 52.301 282.278 52.6786C282.278 52.8962 281.715 53.3186 281.363 53.3634C280.551 53.419 279.737 53.4233 278.925 53.3762Z" fill="#FEFEFE"/>
</g>
<path id="areia-mob" d="M7.67512 56.7333H9.4858H362.6V93.7296H9.74173C8.69243 93.7296 7.62394 93.8676 7.4 92.4744V88.4202C7.52175 87.8532 7.60299 87.2786 7.64313 86.7006C7.66872 76.7178 7.67939 66.7287 7.67512 56.7333Z" fill="#F8F3DE"/>
<g id="mascara-mob">
<path d="M0 0H370V103.6H0C0.0446983 103.11 0.127709 102.62 0.127709 102.13C0.127709 68.5746 0.127709 35.0211 0.127709 1.46959C0.127709 0.979729 0.0446983 0.489865 0 0ZM19.1245 68.3813C19.4885 68.3813 19.795 68.4264 20.1079 68.4264H59.2572C59.5701 68.4264 59.8958 68.4264 60.2023 68.3942C64.4997 68.059 69.5442 65.1005 69.1419 58.6936C69.0589 57.2884 69.1419 55.8768 69.0845 54.4717C69.028 52.6838 68.3263 50.9784 67.1114 49.6762C66.193 48.6089 65.055 47.7566 63.7768 47.1789C62.4986 46.6011 61.111 46.3117 59.7106 46.3309C50.5794 46.3309 41.446 46.3309 32.3105 46.3309C31.5672 46.3487 30.8281 46.212 30.1394 45.9293C29.4506 45.6465 28.8268 45.2238 28.3068 44.6873C28.103 44.5218 27.9385 44.3122 27.8255 44.0741C27.7125 43.8359 27.6538 43.5752 27.6538 43.3112C27.6538 43.0471 27.7125 42.7864 27.8255 42.5482C27.9385 42.3101 28.103 42.1005 28.3068 41.935C28.7886 41.4292 29.3668 41.0268 30.0065 40.7521C30.6462 40.4774 31.3343 40.336 32.0295 40.3365C43.915 40.3623 55.7963 40.3623 67.6733 40.3365H69.0462V32.9047C68.6503 32.9047 68.2927 32.8467 67.9415 32.8467H28.7027C28.1625 32.8511 27.6231 32.8877 27.0872 32.9563C22.2023 33.5558 19.0734 37.1008 19.0734 42.0382C19.0734 43.1275 19.0734 44.2168 19.0734 45.3061C19.0442 46.4461 19.2776 47.5774 19.7552 48.6108C20.2327 49.6443 20.9415 50.5518 21.8256 51.2618C23.6649 52.8966 26.0415 53.7813 28.492 53.7434C37.4891 53.7434 46.4927 53.7111 55.4898 53.782C56.6929 53.8207 57.8743 54.115 58.9571 54.6457C60.9047 55.5739 61.1665 57.7009 59.634 59.2672C59.1002 59.8197 58.4583 60.2539 57.7493 60.5424C57.0402 60.831 56.2794 60.9674 55.5153 60.9431C43.9065 60.9087 32.2956 60.9087 20.6826 60.9431H19.1245V68.3813ZM299.045 68.4393H338.769C342.76 68.4393 346.106 67.1502 348.213 63.5084C349.605 61.1107 349.375 53.0085 347.945 50.8106L347.874 50.6946C346.98 49.3221 345.753 48.2024 344.311 47.4412C342.869 46.6799 341.258 46.3023 339.631 46.3438C330.499 46.3438 321.362 46.3438 312.224 46.3438C311.483 46.3607 310.747 46.2182 310.064 45.926C309.382 45.6337 308.768 45.1983 308.265 44.6486C308.06 44.4813 307.896 44.2682 307.786 44.0261C307.676 43.7839 307.624 43.5194 307.632 43.2532C307.641 42.9871 307.711 42.7266 307.836 42.4923C307.961 42.2579 308.139 42.0561 308.355 41.9028C308.847 41.4089 309.431 41.018 310.073 40.7525C310.715 40.487 311.403 40.3522 312.097 40.3558C323.888 40.3816 335.68 40.3816 347.472 40.3558H348.966V32.8403H329.491C322.518 32.8403 315.545 32.8403 308.565 32.8403C302.697 32.8403 298.987 36.6625 298.987 42.5473C298.987 43.5013 298.987 44.481 298.987 45.4092C299.004 46.6188 299.301 47.8075 299.856 48.8799C300.41 49.9523 301.206 50.8785 302.18 51.5841C304.001 53.0185 306.255 53.7784 308.565 53.7369C317.562 53.7369 326.566 53.6918 335.563 53.7691C336.766 53.8112 337.944 54.1239 339.011 54.6844C340.838 55.6126 341.093 57.6107 339.707 59.1383C339.18 59.7274 338.531 60.1929 337.806 60.5024C337.081 60.8119 336.298 60.9579 335.512 60.9302C323.852 60.8958 312.197 60.8958 300.545 60.9302H299.045V68.4393ZM237.489 68.4393L224.686 56.9017C225.963 56.9017 226.844 56.9017 227.738 56.9017C232.029 56.8372 237.54 53.8465 237.157 47.2333C237.054 45.4672 237.272 43.6818 237.105 41.9221C237.041 40.4404 236.701 38.9842 236.103 37.6294C234.436 34.4066 231.486 32.8919 228.006 32.8661C215.497 32.7694 202.982 32.8145 190.472 32.8661C189.764 32.8122 189.06 33.0266 188.5 33.4675C187.939 33.9084 187.561 34.5441 187.439 35.2509C187.193 36.3069 187.072 37.3889 187.082 38.4737C187.056 48.1035 187.056 57.7353 187.082 67.3693C187.082 67.7109 187.139 68.0526 187.165 68.3426H195.581V64.7009C195.581 57.0693 195.581 49.4377 195.581 41.8061C195.581 40.7361 195.817 40.2269 197.005 40.3301C198.192 40.4332 199.431 40.3301 200.644 40.3301H224.143C225.88 40.3301 228.102 41.8512 228.485 43.2628C229.168 45.7895 228.453 47.6909 226.237 48.7867C225.438 49.1642 224.566 49.3622 223.683 49.3668C215.631 49.4055 207.573 49.3668 199.514 49.3668H198.109V56.9017C202.982 56.9017 207.751 56.9017 212.515 56.9017C213.215 56.9317 213.887 57.1894 214.431 57.6365C218.307 61.0204 222.132 64.4688 225.982 67.8785C226.26 68.1519 226.619 68.3261 227.004 68.3748C230.337 68.4393 233.747 68.4393 237.489 68.4393ZM156.01 32.8403C153.718 32.8403 151.419 32.8403 149.126 32.8403C145.748 32.8403 142.364 32.7629 139.005 32.9885C135.327 33.227 130.704 36.5465 130.941 42.0575C131.183 47.9101 130.992 53.782 131.004 59.6411C130.988 60.3201 131.046 60.9988 131.177 61.665C132.007 65.4743 135.845 68.3748 140.417 68.4006C150.863 68.4737 161.308 68.4737 171.75 68.4006C176.405 68.362 181.213 65.0296 181.143 59.7055C181.06 53.666 181.105 47.62 181.143 41.5741C181.185 40.1825 180.861 38.8045 180.204 37.5805C179.546 36.3566 178.579 35.3303 177.401 34.6064C175.63 33.4205 173.544 32.8047 171.418 32.8403H156.01ZM83.6178 40.575C83.8349 40.4654 83.8732 40.4268 83.9115 40.4268C93.4514 40.4268 102.991 40.3752 112.531 40.4268C114.185 40.4268 116.235 42.2251 116.465 43.6496C117.027 47.1882 115.117 49.4506 111.561 49.4506H86.0251V56.9017H86.785C96.3717 56.9017 105.95 56.9017 115.52 56.9017C116.284 56.8974 117.045 56.8154 117.793 56.6568C121.477 55.8511 125.455 52.7894 125.085 47.5878C124.938 45.4221 125.162 43.2241 125.021 41.052C124.963 39.8844 124.656 38.7433 124.121 37.7067C122.205 34.2261 119.051 32.8596 115.245 32.8532C103.54 32.8532 91.8423 32.9434 80.125 32.8016C75.5657 32.75 75.0996 34.7353 75.0166 37.9581V68.362H83.5859L83.6178 40.575ZM293.061 32.9499H243.108V40.401H263.88V68.3297H272.36V40.3301H293.023L293.061 32.9499Z" fill="#000028"/>
<path d="M156.112 40.3494H168.123C168.717 40.3219 169.311 40.4197 169.865 40.6368C170.42 40.8538 170.924 41.1851 171.344 41.6097C171.765 42.0343 172.093 42.5428 172.308 43.1027C172.523 43.6625 172.62 44.2615 172.593 44.8613V56.4634C172.614 57.0409 172.521 57.6169 172.317 58.1571C172.114 58.6973 171.805 59.1907 171.409 59.608C171.012 60.0252 170.537 60.3579 170.011 60.5861C169.485 60.8144 168.919 60.9336 168.347 60.9366C160.161 61.0011 151.974 61.0011 143.788 60.9366C143.215 60.938 142.648 60.8223 142.12 60.5964C141.593 60.3706 141.116 60.0394 140.719 59.6226C140.321 59.2059 140.012 58.7123 139.808 58.1716C139.605 57.6309 139.512 57.0542 139.535 56.4763C139.535 52.5745 139.535 48.6707 139.535 44.7646C139.525 44.1895 139.629 43.6182 139.842 43.0845C140.055 42.5509 140.372 42.0658 140.774 41.6582C141.176 41.2505 141.655 40.9286 142.183 40.7115C142.71 40.4945 143.276 40.3866 143.846 40.3945C147.926 40.3365 152.019 40.3494 156.112 40.3494Z" fill="#000028"/>
</g>
</g>
</svg>
