<svg id="Layer_1" data-name="Layer 1" xmlns="http://www.w3.org/2000/svg" viewBox="0 0 229.78 166.5"><defs><style>.cls-1{fill:#009500;}.cls-2{fill:#005000;}.cls-3{fill:#006e00;}</style></defs><path d="M273.86,478.36l-81.73-81.73V343.05c1.58-.69,3.13-1.93,4.69-1.95,5.79-.08,11.06-2.58,16.74-3.25a54.48,54.48,0,0,0,8.69-1.84,44.41,44.41,0,0,1,8.21-1.74c4.17-.36,8-1.77,12.1-2.46s8.35-1.16,12.31-2.75c1-.4,2.31-.06,3.76-.06,2.7-3.72,6.59-6.4,10.65-8.63a44.15,44.15,0,0,1,11.2-4.25c4-.92,8.14-1.46,12.1-2.33,6.1-1.34,12.11-.36,18.14-.73,1.5-.09,3,.64,4.58.93a27,27,0,0,1,4.19.72,7.66,7.66,0,0,0,6.62-.35c1.69-1.07,4,.69,5.44-1.36l9.81-1.14L421.9,392.4v55.31C372.38,458,323,468.33,273.86,478.36ZM276,421.92l141.17-29.25-77.8-77.8-8.25,1.46-.13,1.06a17,17,0,0,0,2.73,1.58c5.63,2,10.35,4.84,13.38,8.7,2.35,3,4,6.26,3.95,10.37-.18,8.16-.09,16.33,0,24.49a16,16,0,0,1-4.93,12c-2.77,2.76-6.17,4.41-9.34,6.49-4.12,2.72-8.93,3.63-13.49,4.79A55.9,55.9,0,0,1,307.63,388c-5.2-.17-10.36.18-15.62-.77A97.3,97.3,0,0,1,278.28,384a52.86,52.86,0,0,1-11-4.83,28.33,28.33,0,0,1-7.1-5.63A15.57,15.57,0,0,1,256,362.8c.18-7.5,0-15,.08-22.5,0-2.67.38-5.34.59-8.09l-58.26,12.07Zm.08,53.06c2-.39,3.51-.64,5-1,2.15-.51,4.51-.57,6.47-1.26,5.21-1.84,10.67-2.42,16-3.55,4.13-.88,8.27-2.36,12.62-2.18,5-2.43,10.63-2.31,15.88-3.83,2.94-.86,6.14-1.27,9.22-1.88s6.41-1.35,9.6-2.09c1.94-.46,4-.93,6-1.22,1.87-.26,3.72-.66,5.58-1,2-.34,4.23-.28,6-1.1,2-.92,4.18-.4,6.06-1.08,6.81-2.46,14.06-2.9,21-4.74,3-.8,6.18-.89,9.17-2,1.74-.66,3.71-.67,5.55-1.07,2.88-.63,5.74-1.35,8.52-2,.62-14.93.39-45.82-.28-49.55L276.08,425Zm-3.29-50.39L195.21,347v47.4L272.79,472Zm-12.64-92.32a6.62,6.62,0,0,1-.43,2.44c-2,2.93-.34,5.69.75,8.09,1.75,3.82,5.06,6.29,8.87,8.28,4.15,2.17,8.58,3.42,12.89,5.07,4.7,1.8,9.57,1.82,14.33,2.72,3.53.67,7.3.26,11,.09s7.38-.63,11.07-1c.33,0,.74.08,1-.08,1.86-1.36,4.19-1.09,6.22-1.89s4.17-1.19,6.13-2.07c4.75-2.12,9.46-4.37,13-8.37,2.52-2.83,3.27-7.34,2.11-11.31a14.88,14.88,0,0,0-6.37-8.4,51.87,51.87,0,0,0-10.75-5.48c-6.17-2.42-12.65-3.48-19.16-4.33-2.94-.39-6-.07-9-.07-2.33,0-5-.74-6.9.19-2.27,1.12-4.49.23-6.58,1s-4.54,1.15-6.72,1.87c-4.24,1.37-8.49,2.7-12.38,5.1C265.61,326.4,263.21,329.74,260.15,332.27ZM259,347.32c0,5.47-.16,10.94.08,16.4a14.5,14.5,0,0,0,2.08,6.11c2.12,3.91,5.66,5.93,9.19,7.93,3.9,2.19,8.32,3.19,12.53,4.69,4.36,1.55,9,1.65,13.43,2.42,3.72.64,7.63.26,11.45.09s7.38-.62,11.07-1a3.59,3.59,0,0,0,.9-.22c3.91-1.44,8.09-2,11.92-3.75,4.28-1.95,8.66-3.77,12-7.22a49.19,49.19,0,0,0,4.4-6.07c0-6.72,0-12.87,0-19a.76.76,0,0,0-.2-.4,1.55,1.55,0,0,0-.39-.26c-3.52,4.28-8.29,6.76-13.12,9.22a47.94,47.94,0,0,1-11,3.57,66.46,66.46,0,0,1-15.6,2.17c-3.33,0-6.66,0-10,0a7.08,7.08,0,0,1-2.48,0c-4.27-1.7-9.15-.59-13.25-3-4.57.12-8.39-2.41-12.22-4.19S262,350.84,259,347.32Z" transform="translate(-192.13 -311.86)"/><path class="cls-1" d="M276,421.92l-77.64-77.64,58.26-12.07c-.21,2.75-.56,5.42-.59,8.09-.08,7.5.1,15-.08,22.5a15.57,15.57,0,0,0,4.2,10.76,28.33,28.33,0,0,0,7.1,5.63,52.86,52.86,0,0,0,11,4.83A97.3,97.3,0,0,0,292,387.2c5.26.95,10.42.6,15.62.77a55.9,55.9,0,0,0,15.63-2.15c4.56-1.16,9.37-2.07,13.49-4.79,3.17-2.08,6.57-3.73,9.34-6.49a16,16,0,0,0,4.93-12c-.06-8.16-.15-16.33,0-24.49.1-4.11-1.6-7.38-3.95-10.37-3-3.86-7.75-6.69-13.38-8.7a17,17,0,0,1-2.73-1.58l.13-1.06,8.25-1.46,77.8,77.8Z" transform="translate(-192.13 -311.86)"/><path class="cls-2" d="M276.08,475V425l142.47-29.54c.67,3.73.9,34.62.28,49.55-2.78.66-5.64,1.38-8.52,2-1.84.4-3.81.41-5.55,1.07-3,1.13-6.16,1.22-9.17,2-6.94,1.84-14.19,2.28-21,4.74-1.88.68-4,.16-6.06,1.08-1.8.82-4,.76-6,1.1-1.86.32-3.71.72-5.58,1-2,.29-4.1.76-6,1.22-3.19.74-6.38,1.45-9.6,2.09s-6.28,1-9.22,1.88c-5.25,1.52-10.88,1.4-15.88,3.83-4.35-.18-8.49,1.3-12.62,2.18-5.31,1.13-10.77,1.71-16,3.55-2,.69-4.32.75-6.47,1.26C279.59,474.34,278.05,474.59,276.08,475Z" transform="translate(-192.13 -311.86)"/><path class="cls-3" d="M272.79,424.59V472l-77.58-77.58V347Z" transform="translate(-192.13 -311.86)"/><path class="cls-1" d="M260.15,332.27c3.06-2.53,5.46-5.87,9-8.08,3.89-2.4,8.14-3.73,12.38-5.1,2.18-.72,4.53-1,6.72-1.87s4.31.09,6.58-1c1.87-.93,4.57-.19,6.9-.19,3,0,6-.32,9,.07,6.51.85,13,1.91,19.16,4.33a51.87,51.87,0,0,1,10.75,5.48,14.88,14.88,0,0,1,6.37,8.4c1.16,4,.41,8.48-2.11,11.31-3.56,4-8.27,6.25-13,8.37-2,.88-4.13,1.28-6.13,2.07s-4.36.53-6.22,1.89c-.22.16-.63.05-1,.08-3.69.33-7.37.8-11.07,1s-7.43.58-11-.09c-4.76-.9-9.63-.92-14.33-2.72-4.31-1.65-8.74-2.9-12.89-5.07-3.81-2-7.12-4.46-8.87-8.28-1.09-2.4-2.74-5.16-.75-8.09A6.62,6.62,0,0,0,260.15,332.27Z" transform="translate(-192.13 -311.86)"/><path class="cls-2" d="M259,347.32c3,3.52,7,5.72,10.79,7.49s7.65,4.31,12.22,4.19c4.1,2.37,9,1.26,13.25,3a7.08,7.08,0,0,0,2.48,0c3.32,0,6.65,0,10,0a66.46,66.46,0,0,0,15.6-2.17,47.94,47.94,0,0,0,11-3.57c4.83-2.46,9.6-4.94,13.12-9.22a1.55,1.55,0,0,1,.39.26.76.76,0,0,1,.2.4c0,6.16,0,12.31,0,19a49.19,49.19,0,0,1-4.4,6.07c-3.29,3.45-7.67,5.27-12,7.22-3.83,1.75-8,2.31-11.92,3.75a3.59,3.59,0,0,1-.9.22c-3.69.35-7.37.81-11.07,1s-7.73.55-11.45-.09c-4.47-.77-9.07-.87-13.43-2.42-4.21-1.5-8.63-2.5-12.53-4.69-3.53-2-7.07-4-9.19-7.93a14.5,14.5,0,0,1-2.08-6.11C258.84,358.26,259,352.79,259,347.32Z" transform="translate(-192.13 -311.86)"/></svg>