<svg id="Layer_1" data-name="Layer 1" xmlns="http://www.w3.org/2000/svg" viewBox="0 0 521.91 226.06"><defs><style>.cls-1{fill:#fff;}</style></defs><path d="M567,438.2c-4.39.78-8.5,1.22-12.41,2.37a26.63,26.63,0,0,1-3.63.87c-1.22.19-2.38.74-3.59.95-2.35.41-5.09.07-7,1.18-2.25,1.32-4.94-.2-6.8,1.77-4.23-.39-8,1.79-12.13,2.21a65.81,65.81,0,0,0-10.62,2.08c-3.42.94-7.08.93-10.39,2.64-1.51.79-3.65.36-5.55,1-2.36.83-5.34.18-7.47,1.28-2.39,1.25-4.92.75-7.34,1.59A78.59,78.59,0,0,1,471.8,458c-2.78.61-5.66.77-8.43,1.42-3.53.84-7.2,1.24-10.62,2.18s-7,1.59-10.39,2.52c-3.71,1-7.71,1.58-11.59,2.28a60.75,60.75,0,0,0-8.25,1.8c-2.22.73-4.68.08-7.06,1.07-2.13.88-5.16.1-6.9,1.32-2.1,1.46-4.74-.4-6.31,1.79-4.36-.2-8.45,1.4-12.64,2.16-3.63.66-7.45.88-10.91,2.55-1.84.89-4,0-6,1.17-1.68.95-4,.8-6,1.12-2.19.35-4.76.08-6.49,1.16-1.89,1.2-4.33-.12-5.77,1.84-4.19-.19-8.13,1.29-12.15,2.08-5.52,1.09-11.15,1.71-16.48,3.63-1.94.7-4.26-.42-6,1.29-6,.3-11.87,2-17.7,3.24-5.29,1.13-10.65,2.35-15.95,3.54-4.11.92-8.4,1.6-12.58,2.39-3.63.69-7.31,1.51-10.91,2.52-2.09.59-4.32.76-6.48,1.25-1.68.37-3.42,0-5.13,1-1.28.72-3-.24-4.63.94-1.27.95-3.6-.68-5,1.15-4.26-.57-8,1.77-12.15,2.14a62.64,62.64,0,0,0-10.63,2.08c-3.42.94-7.24.62-10.32,2.78-4.19-.18-8.13,1.29-12.15,2.09-5.5,1.11-11.16,1.61-16.47,3.65-1.91.74-4,.48-6,1.05a67.9,67.9,0,0,1-8.78,1.78A54.52,54.52,0,0,0,156,522.6c-5.1,1.58-10.35,2.38-15.5,3.49-4.6,1-9.24,2.47-14,2.36L45.05,447V393.54c1.52-.7,3.05-2,4.61-2,5.77-.17,11.13-2.28,16.73-3.21,7-1.16,13.9-2.68,20.83-4.06,4.59-.91,9.18-2,13.76-3,3.39-.74,6.78-1.33,11-2.35,2.3-3.14,6.15-5.87,10.23-8.05a53.84,53.84,0,0,1,11.66-4.37c4-1,7.94-2.36,12.15-2.09,2.87-1.78,6.05-.82,9.09-1s6.56-.76,9.43.17,5.84-.23,8.23,1.79c2.19-.45,4.4.58,6.71-.76,1.63-.93,4-.42,6-1.11,2.52-.86,5.41-.55,8-1.18,4.89-1.18,9.86-1.94,14.73-3.12,1.54-.37,3.14-.44,4.6-.91s3.16-.57,4.57-1c4-1.33,8.45-.89,12.3-2.88,5.91-.06,11.38-2.51,17.23-3.17,3.53-.4,7-1.73,10.86-1.94,2.58-3.95,6.72-6.37,10.71-8.7,3.4-2,7.4-3.09,11.25-4.14a94.71,94.71,0,0,1,28.75-3.11,20.64,20.64,0,0,1,5.09,1c1.51.43,3.06-.32,4.75.65a7.14,7.14,0,0,0,5.29.27c3.87-1.34,8-1.21,11.85-2.75,2-.8,4.33-.38,6.58-1,3.15-.81,6.44-1.25,9.64-2.11a65.82,65.82,0,0,1,9.17-1.9c4.28-.52,8.43-1.6,12.62-2.36,3.61-.66,7.46-.83,10.87-2.64,1.53-.82,3.66.7,5-1.09,4.83.11,9.28-2.31,14.28-2.11,2.72-3.86,6.68-6.5,10.74-8.74,3.47-1.91,7.43-3,11.24-4.21,4.63-1.52,9.55-1.72,14.28-2.89,3-.74,6.32-.36,9.46-.07s6.27-1.26,9.09.93c2.79-.44,5.4.91,8.09.91a34.6,34.6,0,0,0,9-1.12c3.55-.95,7-2,10.61-1.77q40.38,40.36,80.78,80.78ZM329.4,337c.7.65,1,1.19,1.5,1.35a62.73,62.73,0,0,1,8.36,4,22.39,22.39,0,0,1,7,6c2,2.56,3.74,5.4,3.73,8.93q-.06,13.75,0,27.5a12.48,12.48,0,0,1-2.47,7.46c-3.9,5.23-9.61,8.28-15.31,11.16a30.21,30.21,0,0,1-6.16,2c-2.28.58-4.76.6-6.89,1.48-2.29.94-4.81-.32-6.68.74-2.44,1.38-4.8.56-7.18.78-5.9.55-11.73-.44-17.58-1a5.53,5.53,0,0,1-1.42-.19c-4.78-1.78-9.83-2.59-14.55-4.7-5.2-2.32-10-5-13.52-9.49a15.25,15.25,0,0,1-3.33-10.12c.25-8,0-16,.1-24,0-2,.42-4.05.64-6.08-23.71,4.46-47.53,9.75-71.58,14.06l-.1.9a17.66,17.66,0,0,0,2.75,1.59c5.55,2,10.38,4.86,13.37,8.7,2.33,3,4,6.27,3.95,10.37-.19,8.16-.1,16.33,0,24.5A15.94,15.94,0,0,1,199,425c-2.77,2.77-6.17,4.39-9.33,6.49-4.12,2.74-8.94,3.6-13.5,4.78a55.43,55.43,0,0,1-15.62,2.16c-5.2-.18-10.37.17-15.62-.78a97.3,97.3,0,0,1-13.73-3.18,52.64,52.64,0,0,1-11-4.83A28.68,28.68,0,0,1,113.1,424a15.59,15.59,0,0,1-4.2-10.77c.18-7.49,0-15,.08-22.49,0-2.67.38-5.34.59-8.09L51.31,394.7,129,472.34c1.81-.29,4-.28,5.84-1s4.15-.23,5.51-1.09c1.9-1.19,4-.55,5.87-1.66s4.3-.81,6.49-1.16c2-.32,4.34-.17,6-1.12,2-1.16,4.1-.47,6-1.14a72.67,72.67,0,0,1,10.89-2.58c4.2-.74,8.49-1.46,12.59-2.39,5.29-1.2,10.78-1.67,15.92-3.69,2-.8,4.37-.72,6.56-1.08s4.95-.28,6.91-1.37,4.68.45,6.34-1.63c5.91-.1,11.46-2.27,17.22-3.25,5.29-.91,10.64-2.37,15.93-3.51,5.83-1.27,11.67-2.93,17.71-3.24,1.7-1.71,4.09-.43,5.95-1.32,3.45-1.66,7.28-1.91,10.91-2.52,4.21-.71,8.28-2.41,12.65-2.16,1.48-2.14,3.94-.38,5.88-1.53s4.22-1.05,6.37-1.46,4.31-.21,6-1.13c2-1.09,4.12-.48,6.07-1.09a29.93,29.93,0,0,1,8.75-1.76c2.43,0,4.77-.8,7-1.28,2.89-.62,5.77-1.3,8.7-1.88s6.09-1.4,9.19-1.9c2.3-.38,4.52-1.29,6.82-1.6,3.75-.51,7.33-1.76,11-2.31,4.07-.6,8-2.24,12.16-2.06,1.44-2,3.94-.09,5.4-1.38s3.47,0,5.15-.94a17,17,0,0,1,5.3-1.64,141.69,141.69,0,0,0,15.77-3c2.74-.75,5.83-.34,8.5-1.23,2.89-1,5.82-1.29,8.7-2,4.74-1.12,9.54-1.88,14.26-3,2-.47,4.24-.34,6.05-1.06,5.15-2,10.64-2.52,15.94-3.65,4.14-.88,8.28-2.36,12.64-2.18,5-2.43,10.6-2.52,15.88-3.83,6.21-1.53,12.66-2.11,18.82-4.11,2.23-.72,4.71-.69,7.06-1.07,2.19-.35,4.27-1.46,6.59-1,1.77-2.16,4.89.14,6.67-2,5.76-.4,11.12-2.67,16.08-3.2L483.5,305.56l-7.5,1.25-.06,1.23c3,1.43,6.21,2.44,9.14,4.27a23.27,23.27,0,0,1,8.18,7.84c2.08,3.49,2.69,4.66,2.69,7.89,0,8.66-.06,17.33,0,26a13.27,13.27,0,0,1-2.35,8c-4,5.34-9.68,8.74-15.74,11.3-3.26,1.38-6.82,2-10.23,3.08-3.64,1.12-7.48,1.1-11.2,1.83s-8,.29-12,.13-7.72-.63-11.58-1c-.17,0-.36,0-.49,0-4.42-2.31-9.88-1.68-13.95-4.94-2.87.37-4.44-2.16-6.75-3-2.7-1-4.54-3.1-6.35-5.14-2.79-3.15-4.58-6.7-4.47-11.15.17-7.5,0-15,.07-22.5,0-2.66.38-5.32.57-7.77C377.87,327.33,354.14,332.55,329.4,337ZM129.14,525.28a35.36,35.36,0,0,0,5.19-.92c2-.67,4.37-.35,6-1.12,3.36-1.58,7-1.67,10.4-2.61s7.09-1.34,10.62-2.18c2.77-.65,5.65-.8,8.42-1.42a75.78,75.78,0,0,0,8.24-1.87c2.42-.84,4.94-.33,7.34-1.59,2.13-1.1,5.1-.45,7.46-1.27,1.9-.67,4-.24,5.56-1,3.3-1.72,7-1.71,10.38-2.65s7.09-1.34,10.62-2.18c2.77-.65,5.64-.83,8.42-1.44s5.64-1,8.28-1.77c5.57-1.63,11.46-1.7,16.89-3.83,4.6.7,8.72-1.62,13.14-2.2,4.77-.61,9.51-1.91,14.26-2.9,2-.42,4.35-.29,6-1.08,3.35-1.57,7-1.68,10.4-2.6s7.08-1.36,10.62-2.18c2.76-.65,5.62-.88,8.41-1.45s5.56-1.14,8.3-1.75c4.75-1.07,9.54-1.84,14.27-2.94,2-.47,4.25-.35,6-1.06,5.16-2,10.64-2.53,15.95-3.66,4.14-.88,8.27-2.36,12.63-2.18,5-2.43,10.6-2.52,15.88-3.82,6.22-1.53,12.56-2.68,18.84-4,6-1.25,12.11-2.29,18.21-3.22a66.52,66.52,0,0,1,6.56-1.15c1.76-.1,3.47-1.69,5.2-1.7,2.17,0,4.06-.76,6.09-1.13,1.86-.33,3.72-.68,5.58-1,2-.35,4.18-.35,6.05-1.09s4.06-.69,6.08-1.06c1.79-.33,3.48-1.73,5.21-1.73,2.17,0,4.06-.77,6.09-1.13,1.86-.33,3.72-.68,5.58-1,2-.35,4.19-.34,6.05-1.1,2-.82,4.07-.66,6.08-1.05,1.79-.35,3.48-1.73,5.21-1.73,2.18,0,4.06-.78,6.09-1.13,1.86-.32,3.72-.68,5.58-1,2-.35,4.21-.33,6.05-1.1,2-.85,4.19-.4,6.06-1.08,6.81-2.48,14.08-2.84,21-4.75,3-.82,6.19-.85,9.17-2,1.73-.67,3.72-.67,5.56-1.07,2.88-.63,5.74-1.35,8.52-2,.65-15.64.41-45.92-.34-49.77a6,6,0,0,1-1.64.76c-1.14.15-2.39-.17-3.44.18-7.32,2.45-15,3.29-22.48,4.86-2.17.46-4.53.57-6.48,1.27a65,65,0,0,1-10.89,2.54c-4.2.75-8.28,2.36-12.64,2.18-5,2.44-10.6,2.53-15.89,3.83-6.21,1.53-12.55,2.66-18.83,4-6.91,1.46-13.85,2.95-20.82,4.07-5.61.9-11,3.18-16.74,3.1-2.08,1.79-4.84.95-7.22,1.88s-5,.68-7.53,1.15a44.78,44.78,0,0,0-6.48,1.25c-5.21,1.86-10.68,2.39-16,3.55-4.13.9-8.47,1.46-12.59,2.38-6.27,1.39-12.49,3-18.88,3.79-1.61,1.57-3.76.54-5.53,1.14-7.32,2.46-15,3.29-22.48,4.87-2.17.45-4.47.62-6.51,1.23-7.39,2.2-15,3.2-22.5,4.77-2.17.46-4.56.53-6.48,1.26-5,1.9-10.36,2.45-15.5,3.48-4.3.86-8.68,1.88-13.11,2.32a25.17,25.17,0,0,0-6.46,1.26c-3.56,1.39-7.31,1.83-10.92,2.49-4.19.76-8.47,1.5-12.6,2.4-5.29,1.14-10.63,2.37-15.91,3.65-6.23,1.5-12.72,1.93-18.81,4.13-2.19-.63-4,.76-6.09,1-1.87.24-3.72.66-5.58,1-2,.35-4.27.25-6,1.11-2,1-4.16.42-6.07,1.08-5.66,2-11.59,2.65-17.41,3.82-2.17.44-4.47.64-6.5,1.24-3.59,1.06-7.28,1.88-10.88,2.56-4.18.79-8.28,2.37-12.64,2.19-2.33,1.83-5.76.21-7.75,2.45Zm-3.36-49.94L48.13,397.69v46.8l77.65,77.65ZM405.06,322.66a4.56,4.56,0,0,1-.13,1.48c-1.86,3.91-.43,7,1.57,10.55,2.14,3.81,5.59,5.62,8.92,7.52,3.73,2.11,8.1,3,12.11,4.49,4.39,1.66,9,1.63,13.39,2.56,3.67.76,7.63.28,11.45.12s7.72-.63,11.58-1c.16,0,.39.07.49,0,1.77-1.55,4.17-1.09,6.19-1.94s4.59-1.06,6.61-2.11c4.45-2.33,9.15-4.32,12.57-8.27,3.21-3.69,4-9.74,1.72-13.6a22.32,22.32,0,0,0-9-8.14c-9.14-5-19-7.22-29.2-7.88-4.47-.29-9,0-13.48,0-2,2-4.64.45-6.91,1.41s-4.68.77-6.8,1.66c-4.11,1.72-8.45,2.81-12.29,5.36C410.47,317.08,408.18,320.28,405.06,322.66Zm-102.31,13.5,0,.25c-3,0-6.27-.74-8.91.23-2.28.83-4.49.19-6.57,1s-4.54,1.15-6.73,1.87c-4.23,1.38-8.51,2.66-12.38,5.1-2.82,1.79-4.85,4.32-7.33,6.4-1.87,1.57-2.18,3.79-2.81,5.85-.7,2.28.48,4.48,1.4,6.36,1.87,3.78,5.08,6.3,8.89,8.28,4.16,2.17,8.59,3.41,12.89,5.08,4.7,1.82,9.57,1.79,14.33,2.71,3.53.68,7.3.26,11,.1s7.38-.64,11.07-1c.33,0,.74.08,1-.08,1.86-1.36,4.19-1.09,6.22-1.89s4.17-1.19,6.14-2.06c4.75-2.12,9.51-4.32,13-8.4a11.66,11.66,0,0,0,3-9.67,15.39,15.39,0,0,0-6.37-9.77c-6.83-4.74-14.73-7.18-22.71-9C312.91,336.43,307.76,336.58,302.75,336.16ZM112.89,382.92c0,.74.27,1.6,0,2-1.49,2-.76,3.68-.2,5.83,1.4,5.27,5.11,8.15,9.43,10.64,4,2.32,8.52,3.53,12.87,5.13,4.68,1.72,9.55,1.87,14.31,2.74,3.7.67,7.64.26,11.46.1s7.38-.63,11.07-1a3.52,3.52,0,0,0,.9-.24c3.92-1.43,8.1-2,11.94-3.74,4.75-2.14,9.53-4.25,13-8.28,2.49-2.85,4-6.45,3.14-10.07a15,15,0,0,0-5.8-9c-3.41-2.38-6.93-4.69-11.12-5.68-2.09-.49-4.12-1.3-6.17-2a50.8,50.8,0,0,0-6.18-1.94c-2.17-.4-4.56.52-6.56-1.06H148c-2,1.83-4.67.55-6.94,1.34s-4.62.88-6.78,1.71c-4.17,1.6-8.45,2.82-12.31,5.3C118.42,377,116,380.33,112.89,382.92ZM404,337.51c0,5.77-.09,11.55.07,17.31a9.34,9.34,0,0,0,1.33,4.41,21.5,21.5,0,0,0,8.91,8.29c4.18,2.11,8.63,3.31,12.89,5,4.52,1.84,9.24,1.71,13.82,2.69,3.66.79,7.62.29,11.44.13s7.71-.63,11.57-1c.16,0,.38.06.48,0,1.79-1.51,4.17-1.11,6.19-1.93s4.59-1,6.6-2.12c4.29-2.26,9-4,12.17-7.95a51.36,51.36,0,0,0,3.36-5.2V337.58c-2.34,1.83-4.5,3.7-6.84,5.29a37.69,37.69,0,0,1-7.24,4.18,75.79,75.79,0,0,1-11.1,3.31,103.42,103.42,0,0,1-12.14,2,63.92,63.92,0,0,1-9,0c-2.87-.12-5.87.73-8.57-1-4.25.59-8.17-1-12.13-2.07s-7.9-2-11.24-4.08C411,343.06,406.86,341.24,404,337.51Zm-57,28.77c-1.45,1.77-2.1,2.69-2.88,3.5-3.33,3.47-7.73,5.33-11.85,7.55-2.12,1.14-4.73,1.41-7.11,2.08s-4.8,1.28-7.19,1.87-5.14-.17-7.53,1.13c-6.18-.54-12.47,1.18-18.55-1-4.26.58-8.14-1.14-12.14-2a43.34,43.34,0,0,1-11.6-4.48c-3.54-2-7.2-4-10.15-8.34,0,6.79-.09,12.57.07,18.35a9.79,9.79,0,0,0,1.38,4.38,18,18,0,0,0,9,8.15c2.14.85,4.12,2.1,6.27,2.94s4.56,1.09,6.61,2.11a20.43,20.43,0,0,0,6.7,1.8c2.38.29,4.73.81,7.07,1a78.57,78.57,0,0,0,13.46,0,105,105,0,0,0,12.66-1.87c5.22-1.12,15.54-5.23,19.52-8.3,3-2.29,5.76-5.25,6.12-8.87C347.39,380.08,347,373.77,347,366.28Zm-235,30.3c0,6.78-.09,12.57.07,18.34a9.93,9.93,0,0,0,1.39,4.38,17.9,17.9,0,0,0,9,8.14c2.13.86,4.12,2.1,6.26,2.94s4.57,1.09,6.61,2.11a19.94,19.94,0,0,0,6.71,1.8c2.38.28,4.72.82,7.06,1a81.75,81.75,0,0,0,13.46,0,103.1,103.1,0,0,0,12.66-1.88c5.22-1.11,15.57-5.24,19.52-8.3,3-2.3,5.76-5.24,6.11-8.88.6-6.21.16-12.51.16-19.93-1.43,1.72-2.11,2.64-2.89,3.45-3.33,3.47-7.73,5.33-11.85,7.54-2.13,1.14-4.73,1.4-7.11,2.09s-4.8,1.27-7.19,1.86-5.14-.17-7.54,1.13c-6.17-.54-12.46,1.18-18.55-1-4.25.58-8.13-1.16-12.13-2a42.9,42.9,0,0,1-11.6-4.49C118.55,402.92,114.9,400.88,112,396.58Z" transform="translate(-45.05 -302.4)"/><path class="cls-1" d="M329.4,337c24.74-4.48,48.47-9.7,72.15-14.17-.19,2.45-.54,5.11-.57,7.77-.08,7.5.1,15-.07,22.5-.11,4.45,1.68,8,4.47,11.15,1.81,2,3.65,4.14,6.35,5.14,2.31.86,3.88,3.39,6.75,3,4.07,3.26,9.53,2.63,13.95,4.94.13.07.32,0,.49,0,3.86.34,7.71.8,11.58,1s8.11.62,12-.13,7.56-.71,11.2-1.83c3.41-1,7-1.7,10.23-3.08,6.06-2.56,11.74-6,15.74-11.3a13.27,13.27,0,0,0,2.35-8c-.1-8.66,0-17.33,0-26,0-3.23-.61-4.4-2.69-7.89a23.27,23.27,0,0,0-8.18-7.84c-2.93-1.83-6.16-2.84-9.14-4.27l.06-1.23,7.5-1.25,77.65,77.65c-5,.53-10.32,2.8-16.08,3.2-1.78,2.14-4.9-.16-6.67,2-2.32-.47-4.4.64-6.59,1-2.35.38-4.83.35-7.06,1.07-6.16,2-12.61,2.58-18.82,4.11-5.28,1.31-10.88,1.4-15.88,3.83-4.36-.18-8.5,1.3-12.64,2.18-5.3,1.13-10.79,1.62-15.94,3.65-1.81.72-4,.59-6.05,1.06-4.72,1.09-9.52,1.85-14.26,3-2.88.69-5.81,1-8.7,2-2.67.89-5.76.48-8.5,1.23a141.69,141.69,0,0,1-15.77,3,17,17,0,0,0-5.3,1.64c-1.68.89-3.54-.48-5.15.94s-4-.61-5.4,1.38c-4.19-.18-8.09,1.46-12.16,2.06-3.71.55-7.29,1.8-11,2.31-2.3.31-4.52,1.22-6.82,1.6-3.1.5-6.13,1.29-9.19,1.9s-5.81,1.26-8.7,1.88c-2.26.48-4.6,1.27-7,1.28a29.93,29.93,0,0,0-8.75,1.76c-1.95.61-4,0-6.07,1.09-1.71.92-4,.75-6,1.13s-4.58.4-6.37,1.46-4.4-.61-5.88,1.53c-4.37-.25-8.44,1.45-12.65,2.16-3.63.61-7.46.86-10.91,2.52-1.86.89-4.25-.39-5.95,1.32-6,.31-11.88,2-17.71,3.24-5.29,1.14-10.64,2.6-15.93,3.51-5.76,1-11.31,3.15-17.22,3.25-1.66,2.08-4.24.47-6.34,1.63s-4.58,1-6.91,1.37-4.54.28-6.56,1.08c-5.14,2-10.63,2.49-15.92,3.69-4.1.93-8.39,1.65-12.59,2.39a72.67,72.67,0,0,0-10.89,2.58c-1.95.67-4,0-6,1.14-1.68.95-4,.8-6,1.12-2.19.35-4.72.11-6.49,1.16s-4,.47-5.87,1.66c-1.36.86-3.63.35-5.51,1.09s-4,.73-5.84,1L51.31,394.7l58.26-12.08c-.21,2.75-.56,5.42-.59,8.09-.08,7.5.1,15-.08,22.49A15.59,15.59,0,0,0,113.1,424a28.68,28.68,0,0,0,7.09,5.63,52.64,52.64,0,0,0,11,4.83A97.3,97.3,0,0,0,145,437.61c5.25.95,10.42.6,15.62.78a55.43,55.43,0,0,0,15.62-2.16c4.56-1.18,9.38-2,13.5-4.78,3.16-2.1,6.56-3.72,9.33-6.49A15.94,15.94,0,0,0,204,413c-.06-8.17-.15-16.34,0-24.5.09-4.1-1.62-7.38-3.95-10.37-3-3.84-7.82-6.73-13.37-8.7a17.66,17.66,0,0,1-2.75-1.59l.1-.9c24.05-4.31,47.87-9.6,71.58-14.06-.22,2-.62,4.06-.64,6.08-.07,8,.15,16-.1,24A15.25,15.25,0,0,0,258.21,393c3.5,4.45,8.32,7.17,13.52,9.49,4.72,2.11,9.77,2.92,14.55,4.7a5.53,5.53,0,0,0,1.42.19c5.85.53,11.68,1.52,17.58,1,2.38-.22,4.74.6,7.18-.78,1.87-1.06,4.39.2,6.68-.74,2.13-.88,4.61-.9,6.89-1.48a30.21,30.21,0,0,0,6.16-2c5.7-2.88,11.41-5.93,15.31-11.16a12.48,12.48,0,0,0,2.47-7.46q-.06-13.74,0-27.5c0-3.53-1.72-6.37-3.73-8.93a22.39,22.39,0,0,0-7-6,62.73,62.73,0,0,0-8.36-4C330.44,338.22,330.1,337.68,329.4,337Z" transform="translate(-45.05 -302.4)"/><path class="cls-1" d="M129.14,525.28V475.86c2-2.24,5.42-.62,7.75-2.45,4.36.18,8.46-1.4,12.64-2.19,3.6-.68,7.29-1.5,10.88-2.56,2-.6,4.33-.8,6.5-1.24,5.82-1.17,11.75-1.85,17.41-3.82,1.91-.66,4-.08,6.07-1.08,1.76-.86,4-.76,6-1.11,1.86-.32,3.71-.74,5.58-1,2.05-.26,3.9-1.65,6.09-1,6.09-2.2,12.58-2.63,18.81-4.13,5.28-1.28,10.62-2.51,15.91-3.65,4.13-.9,8.41-1.64,12.6-2.4,3.61-.66,7.36-1.1,10.92-2.49a25.17,25.17,0,0,1,6.46-1.26c4.43-.44,8.81-1.46,13.11-2.32,5.14-1,10.46-1.58,15.5-3.48,1.92-.73,4.31-.8,6.48-1.26,7.5-1.57,15.11-2.57,22.5-4.77,2-.61,4.34-.78,6.51-1.23,7.5-1.58,15.16-2.41,22.48-4.87,1.77-.6,3.92.43,5.53-1.14,6.39-.82,12.61-2.4,18.88-3.79,4.12-.92,8.46-1.48,12.59-2.38,5.31-1.16,10.78-1.69,16-3.55a44.78,44.78,0,0,1,6.48-1.25c2.5-.47,5.23-.25,7.53-1.15s5.14-.09,7.22-1.88c5.78.08,11.13-2.2,16.74-3.1,7-1.12,13.91-2.61,20.82-4.07,6.28-1.34,12.62-2.47,18.83-4,5.29-1.3,10.89-1.39,15.89-3.83,4.36.18,8.44-1.43,12.64-2.18a65,65,0,0,0,10.89-2.54c2-.7,4.31-.81,6.48-1.27,7.5-1.57,15.16-2.41,22.48-4.86,1-.35,2.3,0,3.44-.18a6,6,0,0,0,1.64-.76c.75,3.85,1,34.13.34,49.77-2.78.66-5.64,1.38-8.52,2-1.84.4-3.83.4-5.56,1.07-3,1.17-6.17,1.2-9.17,2-6.93,1.91-14.2,2.27-21,4.75-1.87.68-4,.23-6.06,1.08-1.84.77-4,.75-6.05,1.1-1.86.31-3.72.67-5.58,1-2,.35-3.91,1.13-6.09,1.13-1.73,0-3.42,1.38-5.21,1.73-2,.39-4.06.23-6.08,1.05-1.86.76-4,.75-6.05,1.1-1.86.31-3.72.66-5.58,1-2,.36-3.92,1.13-6.09,1.13-1.73,0-3.42,1.4-5.21,1.73-2,.37-4.06.25-6.08,1.06s-4,.74-6.05,1.09c-1.86.31-3.72.66-5.58,1-2,.37-3.92,1.12-6.09,1.13-1.73,0-3.44,1.6-5.2,1.7a66.52,66.52,0,0,0-6.56,1.15c-6.1.93-12.2,2-18.21,3.22-6.28,1.3-12.62,2.45-18.84,4-5.28,1.3-10.88,1.39-15.88,3.82-4.36-.18-8.49,1.3-12.63,2.18-5.31,1.13-10.79,1.62-15.95,3.66-1.79.71-4,.59-6,1.06-4.73,1.1-9.52,1.87-14.27,2.94-2.74.61-5.53,1.17-8.3,1.75s-5.65.8-8.41,1.45c-3.54.82-7.19,1.26-10.62,2.18s-7.05,1-10.4,2.6c-1.68.79-4,.66-6,1.08-4.75,1-9.49,2.29-14.26,2.9-4.42.58-8.54,2.9-13.14,2.2-5.43,2.13-11.32,2.2-16.89,3.83-2.64.76-5.51,1.17-8.28,1.77s-5.65.79-8.42,1.44c-3.53.84-7.2,1.24-10.62,2.18s-7.08.93-10.38,2.65c-1.52.78-3.66.35-5.56,1-2.36.82-5.33.17-7.46,1.27-2.4,1.26-4.92.75-7.34,1.59a75.78,75.78,0,0,1-8.24,1.87c-2.77.62-5.65.77-8.42,1.42-3.53.84-7.2,1.24-10.62,2.18s-7,1-10.4,2.61c-1.65.77-4,.45-6,1.12A35.36,35.36,0,0,1,129.14,525.28Z" transform="translate(-45.05 -302.4)"/><path class="cls-1" d="M125.78,475.34v46.8L48.13,444.49v-46.8Z" transform="translate(-45.05 -302.4)"/><path class="cls-1" d="M405.06,322.66c3.12-2.38,5.41-5.58,8.77-7.82,3.84-2.55,8.18-3.64,12.29-5.36,2.12-.89,4.68-.76,6.8-1.66s4.95.59,6.91-1.41c4.5,0,9-.24,13.48,0,10.24.66,20.06,2.86,29.2,7.88a22.32,22.32,0,0,1,9,8.14c2.3,3.86,1.49,9.91-1.72,13.6-3.42,3.95-8.12,5.94-12.57,8.27-2,1-4.48,1.22-6.61,2.11s-4.42.39-6.19,1.94c-.1.08-.33,0-.49,0-3.86.34-7.71.8-11.58,1s-7.78.64-11.45-.12c-4.43-.93-9-.9-13.39-2.56-4-1.52-8.38-2.38-12.11-4.49-3.33-1.9-6.78-3.71-8.92-7.52-2-3.53-3.43-6.64-1.57-10.55A4.56,4.56,0,0,0,405.06,322.66Z" transform="translate(-45.05 -302.4)"/><path class="cls-1" d="M302.75,336.16c5,.42,10.16.27,15,1.38,8,1.82,15.88,4.26,22.71,9a15.39,15.39,0,0,1,6.37,9.77,11.66,11.66,0,0,1-3,9.67c-3.48,4.08-8.24,6.28-13,8.4-2,.87-4.14,1.27-6.14,2.06s-4.36.53-6.22,1.89c-.22.16-.63.05-1,.08-3.69.33-7.37.8-11.07,1s-7.43.58-11-.1c-4.76-.92-9.63-.89-14.33-2.71-4.3-1.67-8.73-2.91-12.89-5.08-3.81-2-7-4.5-8.89-8.28-.92-1.88-2.1-4.08-1.4-6.36.63-2.06.94-4.28,2.81-5.85,2.48-2.08,4.51-4.61,7.33-6.4,3.87-2.44,8.15-3.72,12.38-5.1,2.19-.72,4.54-1,6.73-1.87s4.29-.16,6.57-1c2.64-1,5.91-.23,8.91-.23Z" transform="translate(-45.05 -302.4)"/><path class="cls-1" d="M112.89,382.92c3.13-2.59,5.53-5.89,9.07-8.16,3.86-2.48,8.14-3.7,12.31-5.3,2.16-.83,4.59-.95,6.78-1.71s4.9.49,6.94-1.34h17c2,1.58,4.39.66,6.56,1.06a50.8,50.8,0,0,1,6.18,1.94c2,.67,4.08,1.48,6.17,2,4.19,1,7.71,3.3,11.12,5.68a15,15,0,0,1,5.8,9c.84,3.62-.65,7.22-3.14,10.07-3.5,4-8.28,6.14-13,8.28-3.84,1.74-8,2.31-11.94,3.74a3.52,3.52,0,0,1-.9.24c-3.69.34-7.37.8-11.07,1s-7.76.57-11.46-.1c-4.76-.87-9.63-1-14.31-2.74-4.35-1.6-8.82-2.81-12.87-5.13-4.32-2.49-8-5.37-9.43-10.64-.56-2.15-1.29-3.87.2-5.83C113.16,384.52,112.89,383.66,112.89,382.92Z" transform="translate(-45.05 -302.4)"/><path class="cls-1" d="M404,337.51c2.91,3.73,7,5.55,10.6,7.75,3.34,2.05,7.39,3.06,11.24,4.08s7.88,2.66,12.13,2.07c2.7,1.71,5.7.86,8.57,1a63.92,63.92,0,0,0,9,0,103.42,103.42,0,0,0,12.14-2,75.79,75.79,0,0,0,11.1-3.31,37.69,37.69,0,0,0,7.24-4.18c2.34-1.59,4.5-3.46,6.84-5.29v19.61a51.36,51.36,0,0,1-3.36,5.2c-3.18,3.92-7.88,5.69-12.17,7.95-2,1.07-4.46,1.25-6.6,2.12s-4.4.42-6.19,1.93c-.1.08-.32,0-.48,0-3.86.34-7.71.8-11.57,1s-7.78.66-11.44-.13c-4.58-1-9.3-.85-13.82-2.69-4.26-1.73-8.71-2.93-12.89-5a21.5,21.5,0,0,1-8.91-8.29,9.34,9.34,0,0,1-1.33-4.41C403.86,349.06,404,343.28,404,337.51Z" transform="translate(-45.05 -302.4)"/><path class="cls-1" d="M347,366.28c0,7.49.44,13.8-.16,20-.36,3.62-3.16,6.58-6.12,8.87-4,3.07-14.3,7.18-19.52,8.3a105,105,0,0,1-12.66,1.87,78.57,78.57,0,0,1-13.46,0c-2.34-.2-4.69-.72-7.07-1a20.43,20.43,0,0,1-6.7-1.8c-2.05-1-4.46-1.28-6.61-2.11s-4.13-2.09-6.27-2.94a18,18,0,0,1-9-8.15,9.79,9.79,0,0,1-1.38-4.38c-.16-5.78-.07-11.56-.07-18.35,2.95,4.33,6.61,6.36,10.15,8.34a43.34,43.34,0,0,0,11.6,4.48c4,.89,7.88,2.61,12.14,2,6.08,2.18,12.37.46,18.55,1,2.39-1.3,5.11-.52,7.53-1.13s4.81-1.19,7.19-1.87,5-.94,7.11-2.08c4.12-2.22,8.52-4.08,11.85-7.55C344.85,369,345.5,368.05,347,366.28Z" transform="translate(-45.05 -302.4)"/><path class="cls-1" d="M112,396.58c3,4.3,6.6,6.34,10.14,8.31a42.9,42.9,0,0,0,11.6,4.49c4,.87,7.88,2.61,12.13,2,6.09,2.18,12.38.46,18.55,1,2.4-1.3,5.12-.52,7.54-1.13s4.81-1.18,7.19-1.86,5-.95,7.11-2.09c4.12-2.21,8.52-4.07,11.85-7.54.78-.81,1.46-1.73,2.89-3.45,0,7.42.44,13.72-.16,19.93-.35,3.64-3.15,6.58-6.11,8.88-4,3.06-14.3,7.19-19.52,8.3a103.1,103.1,0,0,1-12.66,1.88,81.75,81.75,0,0,1-13.46,0c-2.34-.2-4.68-.74-7.06-1a19.94,19.94,0,0,1-6.71-1.8c-2-1-4.45-1.28-6.61-2.11s-4.13-2.08-6.26-2.94a17.9,17.9,0,0,1-9-8.14,9.93,9.93,0,0,1-1.39-4.38C111.86,409.15,112,403.36,112,396.58Z" transform="translate(-45.05 -302.4)"/></svg>