<svg id="Layer_1" data-name="Layer 1" xmlns="http://www.w3.org/2000/svg" viewBox="0 0 521.91 226.06"><defs><style>.cls-1{fill:#fec80e;}.cls-2{fill:#fe7f27;}.cls-3{fill:#fd9d10;}</style></defs><path d="M557.06,392.73c-4.39.78-8.5,1.22-12.41,2.37A26.63,26.63,0,0,1,541,396c-1.22.19-2.38.74-3.59.95-2.35.41-5.09.07-7,1.18-2.25,1.32-4.94-.2-6.8,1.76-4.23-.39-8,1.79-12.12,2.21a66.84,66.84,0,0,0-10.63,2.09c-3.42.94-7.08.93-10.39,2.64-1.51.79-3.65.36-5.55,1-2.36.83-5.33.18-7.46,1.28-2.4,1.24-4.93.75-7.35,1.59a76.14,76.14,0,0,1-8.23,1.86c-2.78.62-5.66.78-8.43,1.43-3.53.84-7.2,1.24-10.62,2.18s-7,1.59-10.39,2.52c-3.71,1-7.71,1.58-11.59,2.28a59.28,59.28,0,0,0-8.25,1.8c-2.21.73-4.68.08-7.06,1.07-2.13.88-5.16.09-6.9,1.31-2.1,1.47-4.74-.4-6.31,1.8-4.36-.2-8.45,1.39-12.64,2.16-3.63.66-7.45.87-10.91,2.55-1.84.89-4,0-6,1.16-1.68.95-4,.81-6,1.13-2.19.34-4.76.07-6.48,1.16-1.9,1.2-4.34-.12-5.78,1.84-4.19-.19-8.13,1.29-12.15,2.08-5.51,1.08-11.15,1.71-16.48,3.63-1.94.7-4.26-.42-6,1.29-6,.3-11.87,2-17.7,3.23-5.29,1.14-10.65,2.36-15.94,3.55-4.11.92-8.41,1.59-12.59,2.39-3.63.69-7.31,1.51-10.91,2.52-2.09.59-4.32.76-6.48,1.24-1.68.38-3.42,0-5.13,1-1.28.72-3-.24-4.63.94-1.27.94-3.6-.68-5,1.15-4.26-.57-8,1.77-12.15,2.14a61.67,61.67,0,0,0-10.63,2.08c-3.42.94-7.24.62-10.32,2.78-4.19-.18-8.13,1.29-12.15,2.09-5.5,1.11-11.16,1.61-16.47,3.65-1.91.73-4,.48-6,1a66.75,66.75,0,0,1-8.79,1.79,54.52,54.52,0,0,0-8.85,1.62c-5.1,1.58-10.35,2.38-15.5,3.49-4.6,1-9.24,2.47-14,2.36L35.16,401.53V348.07c1.52-.7,3.05-2,4.61-2,5.77-.17,11.13-2.29,16.73-3.21,7-1.16,13.9-2.69,20.83-4.07,4.59-.91,9.18-1.95,13.76-3,3.39-.74,6.78-1.34,11-2.36,2.3-3.13,6.15-5.86,10.23-8A53.32,53.32,0,0,1,123.93,321c4-1,7.94-2.36,12.15-2.09,2.87-1.78,6-.82,9.09-1s6.56-.76,9.43.18,5.84-.23,8.24,1.79c2.18-.45,4.39.58,6.7-.76,1.63-.93,4-.42,6-1.12,2.52-.85,5.41-.54,8-1.17,4.89-1.18,9.86-1.95,14.73-3.12,1.54-.37,3.14-.45,4.6-.91s3.16-.57,4.57-1c4-1.33,8.45-.9,12.3-2.88,5.91-.06,11.39-2.51,17.23-3.17,3.53-.4,7-1.73,10.86-1.94,2.58-3.95,6.72-6.37,10.71-8.7,3.4-2,7.4-3.09,11.25-4.14a94.71,94.71,0,0,1,28.75-3.11,21.1,21.1,0,0,1,5.09,1c1.51.44,3.06-.31,4.75.66a7.14,7.14,0,0,0,5.29.27c3.87-1.35,8-1.22,11.85-2.76,2-.79,4.33-.37,6.58-.95,3.16-.81,6.44-1.25,9.64-2.12a65.78,65.78,0,0,1,9.17-1.89c4.28-.52,8.43-1.6,12.62-2.36,3.61-.66,7.46-.83,10.87-2.65,1.53-.81,3.66.71,5-1.09,4.83.12,9.28-2.3,14.28-2.1,2.72-3.86,6.68-6.5,10.74-8.74,3.47-1.92,7.44-3,11.24-4.21,4.63-1.52,9.55-1.72,14.28-2.89,3-.74,6.32-.36,9.46-.08s6.27-1.25,9.09.94c2.8-.44,5.41.91,8.09.91a34.6,34.6,0,0,0,9-1.12c3.55-1,7-2,10.61-1.77l80.78,80.78ZM319.51,291.56c.71.65,1,1.18,1.5,1.35a62.73,62.73,0,0,1,8.36,4,22.39,22.39,0,0,1,7,6c2,2.56,3.75,5.4,3.73,8.93q-.06,13.75,0,27.5a12.49,12.49,0,0,1-2.46,7.45C333.71,352,328,355,322.3,357.89a29.63,29.63,0,0,1-6.16,2c-2.28.58-4.76.59-6.89,1.48-2.29.94-4.81-.32-6.68.73-2.44,1.39-4.8.57-7.18.79-5.9.55-11.73-.44-17.58-1a5.53,5.53,0,0,1-1.42-.19c-4.78-1.78-9.83-2.6-14.55-4.7-5.2-2.32-10-5.05-13.52-9.49A15.25,15.25,0,0,1,245,337.44c.25-8,0-16,.11-24a57.26,57.26,0,0,1,.64-6.08c-23.72,4.46-47.54,9.75-71.59,14.06l-.1.9a17.59,17.59,0,0,0,2.75,1.58c5.55,2,10.38,4.87,13.37,8.71,2.33,3,4,6.27,4,10.37-.19,8.16-.1,16.33,0,24.5a15.91,15.91,0,0,1-4.94,12c-2.77,2.77-6.17,4.4-9.33,6.5-4.12,2.74-8.94,3.6-13.5,4.78a55.06,55.06,0,0,1-15.62,2.15c-5.2-.17-10.37.17-15.62-.77A97.3,97.3,0,0,1,121.34,389a52.64,52.64,0,0,1-11-4.83,28.49,28.49,0,0,1-7.09-5.64A15.57,15.57,0,0,1,99,367.73c.18-7.49,0-15,.08-22.49,0-2.67.38-5.34.59-8.09L41.42,349.22l77.64,77.64c1.81-.28,4-.27,5.84-1s4.15-.23,5.51-1.09c1.9-1.2,4-.55,5.87-1.67s4.3-.81,6.5-1.15c2-.32,4.33-.17,6-1.13,2-1.15,4.1-.46,6.05-1.13a71.46,71.46,0,0,1,10.89-2.58c4.2-.74,8.49-1.46,12.59-2.39,5.29-1.2,10.79-1.67,15.92-3.69,2-.8,4.37-.73,6.56-1.09s4.95-.27,6.91-1.36,4.68.44,6.34-1.63c5.91-.1,11.46-2.27,17.22-3.26,5.29-.9,10.64-2.36,15.93-3.51,5.83-1.26,11.67-2.92,17.71-3.23,1.7-1.71,4.09-.43,5.95-1.32,3.45-1.66,7.28-1.91,10.91-2.52,4.21-.71,8.28-2.41,12.65-2.16,1.48-2.14,3.94-.38,5.89-1.53,1.78-1.06,4.21-1.06,6.37-1.46s4.3-.21,6-1.13c2-1.09,4.12-.48,6.07-1.09a29.93,29.93,0,0,1,8.75-1.76c2.43,0,4.77-.8,7-1.28,2.89-.62,5.77-1.3,8.7-1.88s6.09-1.4,9.19-1.91c2.3-.37,4.52-1.28,6.82-1.59,3.75-.52,7.33-1.76,11-2.31,4.07-.6,8-2.24,12.16-2.06,1.44-2,3.94-.1,5.41-1.38s3.46-.05,5.14-.94a17,17,0,0,1,5.3-1.64,144,144,0,0,0,15.77-3c2.74-.76,5.83-.34,8.5-1.24,2.89-1,5.82-1.28,8.7-2,4.74-1.13,9.54-1.88,14.26-3,2-.47,4.24-.34,6.05-1.06,5.15-2,10.64-2.52,15.94-3.65,4.14-.88,8.28-2.36,12.64-2.18,5-2.43,10.6-2.52,15.88-3.83,6.21-1.53,12.66-2.11,18.82-4.11,2.23-.72,4.71-.69,7.06-1.07,2.19-.35,4.27-1.46,6.59-1,1.77-2.16,4.89.14,6.67-2,5.76-.4,11.12-2.67,16.08-3.2l-77.65-77.65-7.49,1.24-.07,1.24c3,1.43,6.22,2.44,9.14,4.27a23.33,23.33,0,0,1,8.18,7.83c2.08,3.5,2.69,4.66,2.69,7.9,0,8.66-.06,17.33,0,26a13.27,13.27,0,0,1-2.35,8c-4,5.34-9.68,8.74-15.74,11.3-3.26,1.38-6.82,2-10.23,3.08-3.64,1.12-7.48,1.1-11.2,1.82s-8,.3-12,.13-7.72-.63-11.58-1c-.17,0-.36,0-.49,0-4.42-2.31-9.87-1.68-14-4.94-2.87.37-4.44-2.16-6.75-3-2.7-1-4.54-3.1-6.35-5.14-2.78-3.15-4.58-6.7-4.47-11.15.17-7.5,0-15,.07-22.5,0-2.66.38-5.32.57-7.77C368,281.86,344.26,287.08,319.51,291.56ZM119.25,479.81a35.13,35.13,0,0,0,5.19-.92c2-.67,4.38-.35,6-1.12,3.36-1.58,7-1.67,10.4-2.61s7.09-1.34,10.62-2.18c2.77-.65,5.65-.81,8.42-1.42a78.21,78.21,0,0,0,8.24-1.87c2.42-.85,4.94-.34,7.34-1.59,2.13-1.11,5.1-.46,7.46-1.28,1.9-.66,4.05-.23,5.56-1,3.3-1.71,7-1.7,10.38-2.64S206,461.82,209.5,461c2.77-.66,5.64-.83,8.42-1.44s5.64-1,8.28-1.77c5.57-1.63,11.46-1.71,16.89-3.83,4.6.7,8.72-1.63,13.15-2.2,4.76-.61,9.5-1.91,14.26-2.9,2-.42,4.34-.29,6-1.08,3.35-1.57,7-1.69,10.4-2.6S294,443.8,297.54,443c2.77-.65,5.63-.88,8.41-1.45s5.57-1.14,8.3-1.75c4.75-1.07,9.54-1.84,14.27-2.94,2-.47,4.25-.35,6-1.06,5.16-2,10.64-2.53,15.95-3.66,4.14-.88,8.27-2.36,12.63-2.18,5-2.44,10.6-2.53,15.88-3.82,6.22-1.53,12.56-2.68,18.84-4,6-1.24,12.11-2.28,18.21-3.21,2.19-.33,4.29-1,6.56-1.16,1.76-.09,3.47-1.68,5.2-1.69,2.17,0,4.06-.76,6.09-1.13,1.86-.34,3.72-.68,5.58-1,2-.34,4.19-.35,6.05-1.09,2-.8,4.07-.68,6.08-1.05,1.79-.33,3.48-1.73,5.21-1.73,2.17,0,4.06-.77,6.09-1.13,1.86-.33,3.72-.68,5.58-1,2-.34,4.2-.33,6.05-1.09,2-.82,4.07-.66,6.08-1.05,1.79-.35,3.48-1.73,5.21-1.73,2.18,0,4.06-.78,6.09-1.13,1.86-.32,3.72-.68,5.58-1,2-.34,4.21-.32,6.05-1.09,2-.85,4.19-.4,6.06-1.08,6.81-2.48,14.08-2.84,21-4.75,3-.82,6.19-.85,9.18-2,1.72-.67,3.71-.67,5.55-1.07,2.88-.63,5.74-1.35,8.52-2,.65-15.64.41-45.92-.34-49.77a6,6,0,0,1-1.64.76c-1.13.15-2.39-.17-3.44.18-7.32,2.45-15,3.29-22.48,4.86-2.16.45-4.53.56-6.48,1.27a66,66,0,0,1-10.89,2.54c-4.2.75-8.28,2.36-12.64,2.18-5,2.44-10.6,2.52-15.88,3.83-6.22,1.53-12.56,2.66-18.84,4-6.9,1.47-13.85,2.95-20.82,4.07-5.61.91-11,3.19-16.74,3.11-2.07,1.79-4.84.94-7.22,1.88s-5,.68-7.53,1.15a45,45,0,0,0-6.48,1.25c-5.21,1.86-10.67,2.39-16,3.55-4.13.9-8.47,1.46-12.58,2.38-6.28,1.39-12.5,3-18.89,3.79-1.61,1.56-3.76.54-5.53,1.13-7.32,2.47-15,3.3-22.48,4.88-2.17.45-4.47.62-6.5,1.23-7.4,2.2-15,3.2-22.51,4.77-2.17.45-4.56.53-6.48,1.26-5,1.9-10.36,2.45-15.5,3.48-4.3.86-8.68,1.87-13.11,2.32a25.69,25.69,0,0,0-6.46,1.25c-3.56,1.39-7.31,1.84-10.92,2.5-4.19.76-8.47,1.5-12.59,2.39-5.3,1.15-10.64,2.38-15.92,3.66-6.23,1.5-12.72,1.93-18.81,4.13-2.19-.63-4,.76-6.09,1-1.87.24-3.72.66-5.58,1-2,.34-4.27.24-6,1.11-2,1-4.16.42-6.07,1.08-5.66,2-11.59,2.64-17.41,3.82-2.17.44-4.47.64-6.5,1.24-3.59,1.06-7.28,1.88-10.88,2.56-4.18.79-8.28,2.37-12.64,2.19-2.33,1.83-5.76.2-7.75,2.45Zm-3.36-49.94Q77,390.95,38.24,352.22V399l77.65,77.65ZM395.17,277.19a4.3,4.3,0,0,1-.13,1.48c-1.86,3.9-.43,7,1.57,10.55,2.15,3.81,5.59,5.62,8.92,7.52,3.73,2.11,8.1,3,12.11,4.49,4.39,1.66,9,1.63,13.39,2.55,3.67.77,7.63.29,11.45.12s7.72-.63,11.58-1c.16,0,.39.07.49,0,1.77-1.55,4.17-1.09,6.19-1.94s4.59-1.06,6.61-2.12c4.45-2.32,9.15-4.32,12.58-8.26,3.2-3.69,4-9.74,1.71-13.6a22.41,22.41,0,0,0-9-8.15c-9.14-5-19-7.21-29.2-7.87-4.47-.29-9-.05-13.48-.05-2,2-4.64.44-6.91,1.41-2.12.9-4.67.77-6.8,1.66-4.11,1.72-8.45,2.81-12.29,5.36C400.58,271.61,398.29,274.81,395.17,277.19Zm-102.31,13.5,0,.25c-3,0-6.27-.74-8.91.23-2.28.83-4.49.19-6.57,1s-4.54,1.15-6.73,1.87c-4.23,1.38-8.51,2.66-12.37,5.1-2.83,1.79-4.86,4.32-7.34,6.4-1.87,1.57-2.18,3.79-2.81,5.84-.7,2.29.48,4.49,1.41,6.37,1.86,3.78,5.07,6.29,8.88,8.28,4.16,2.17,8.59,3.4,12.89,5.07,4.7,1.83,9.58,1.8,14.33,2.72,3.53.68,7.3.26,11,.09s7.38-.63,11.07-1c.33,0,.74.08,1-.08,1.86-1.36,4.19-1.09,6.22-1.89s4.17-1.19,6.14-2.06c4.75-2.12,9.52-4.32,13-8.4a11.66,11.66,0,0,0,3-9.67,15.44,15.44,0,0,0-6.37-9.78c-6.83-4.73-14.73-7.17-22.7-9C303,291,297.87,291.11,292.86,290.69ZM103,337.45c0,.73.28,1.6,0,2-1.49,2-.76,3.68-.19,5.82,1.39,5.28,5.1,8.16,9.42,10.65,4,2.32,8.52,3.53,12.87,5.13,4.68,1.71,9.55,1.87,14.31,2.74,3.7.67,7.64.26,11.46.09s7.38-.62,11.07-1a3.5,3.5,0,0,0,.9-.23c3.92-1.43,8.1-2,11.94-3.74,4.75-2.15,9.53-4.25,13-8.28,2.48-2.86,4-6.45,3.13-10.08a15,15,0,0,0-5.8-9c-3.41-2.39-6.93-4.69-11.12-5.68-2.09-.49-4.11-1.3-6.17-2a49.48,49.48,0,0,0-6.17-1.94c-2.18-.41-4.57.52-6.57-1.06h-17c-2,1.83-4.66.55-6.94,1.34s-4.62.88-6.78,1.71c-4.17,1.6-8.45,2.82-12.31,5.3C108.53,331.55,106.13,334.86,103,337.45ZM394.06,292c0,5.77-.09,11.55.07,17.31a9.38,9.38,0,0,0,1.33,4.4,21.5,21.5,0,0,0,8.91,8.29c4.18,2.11,8.63,3.32,12.89,5,4.52,1.84,9.25,1.71,13.82,2.69,3.66.79,7.63.29,11.44.12s7.71-.63,11.57-1c.16,0,.38.06.48,0,1.79-1.5,4.17-1.1,6.19-1.92s4.6-1.06,6.61-2.12c4.28-2.26,9-4,12.16-7.95a52.5,52.5,0,0,0,3.36-5.2V292.11c-2.34,1.83-4.5,3.69-6.84,5.29a37.69,37.69,0,0,1-7.24,4.18,76,76,0,0,1-11.09,3.31,106.26,106.26,0,0,1-12.14,2,62.58,62.58,0,0,1-9,0c-2.87-.11-5.87.74-8.57-1-4.25.59-8.17-1-12.13-2.07s-7.9-2-11.24-4.08C401.07,297.58,397,295.77,394.06,292Zm-57,28.76c-1.44,1.77-2.1,2.7-2.88,3.51-3.33,3.47-7.73,5.33-11.85,7.55-2.12,1.14-4.72,1.41-7.11,2.08s-4.8,1.28-7.19,1.87-5.14-.17-7.53,1.13c-6.17-.54-12.47,1.18-18.55-1-4.26.58-8.14-1.14-12.14-2a43.34,43.34,0,0,1-11.6-4.48c-3.53-2-7.2-4-10.15-8.35,0,6.8-.09,12.58.07,18.36a9.79,9.79,0,0,0,1.38,4.38,18,18,0,0,0,9,8.15c2.14.85,4.13,2.1,6.27,2.93s4.56,1.1,6.61,2.12a20.43,20.43,0,0,0,6.7,1.8c2.38.29,4.73.8,7.07,1a77.57,77.57,0,0,0,13.46,0A101.19,101.19,0,0,0,311.26,358c5.22-1.11,15.54-5.22,19.52-8.29,3-2.29,5.76-5.25,6.12-8.88C337.51,334.61,337.06,328.29,337.06,320.8Zm-235,30.3c0,6.79-.09,12.57.07,18.35a9.93,9.93,0,0,0,1.39,4.38,17.9,17.9,0,0,0,9,8.14c2.13.86,4.12,2.1,6.26,2.93s4.57,1.1,6.61,2.12a19.94,19.94,0,0,0,6.71,1.8c2.38.28,4.72.82,7.06,1a79.6,79.6,0,0,0,13.46,0A103.07,103.07,0,0,0,165.27,388c5.23-1.11,15.57-5.24,19.52-8.3,3-2.3,5.76-5.24,6.11-8.88.6-6.21.16-12.52.16-19.93-1.43,1.72-2.11,2.63-2.89,3.45-3.33,3.47-7.73,5.32-11.85,7.54-2.13,1.14-4.73,1.4-7.11,2.08s-4.8,1.27-7.19,1.87-5.14-.17-7.54,1.13c-6.17-.54-12.46,1.18-18.54-1-4.26.58-8.14-1.16-12.14-2a42.56,42.56,0,0,1-11.6-4.48C108.66,357.45,105,355.41,102.06,351.1Z" transform="translate(-35.16 -256.93)"/><path class="cls-1" d="M319.51,291.56c24.75-4.48,48.47-9.7,72.15-14.17-.19,2.45-.54,5.11-.57,7.77-.08,7.5.1,15-.07,22.5-.11,4.45,1.69,8,4.47,11.15,1.81,2,3.65,4.14,6.35,5.14,2.31.86,3.88,3.39,6.75,3,4.08,3.26,9.53,2.63,14,4.94.13.07.32,0,.49,0,3.86.33,7.72.8,11.58,1s8.11.62,12-.13,7.56-.7,11.2-1.82c3.41-1,7-1.7,10.23-3.08,6.06-2.56,11.74-6,15.74-11.3a13.27,13.27,0,0,0,2.35-8c-.1-8.66,0-17.33,0-26,0-3.24-.61-4.4-2.69-7.9a23.33,23.33,0,0,0-8.18-7.83c-2.92-1.83-6.16-2.84-9.14-4.27l.07-1.24,7.49-1.24,77.65,77.65c-5,.53-10.32,2.8-16.08,3.2-1.78,2.14-4.9-.16-6.67,2-2.32-.47-4.4.64-6.59,1-2.35.38-4.83.35-7.06,1.07-6.16,2-12.61,2.58-18.82,4.11-5.28,1.31-10.88,1.4-15.88,3.83-4.36-.18-8.5,1.3-12.64,2.18-5.3,1.13-10.79,1.62-15.94,3.65-1.81.72-4,.59-6.05,1.06-4.72,1.09-9.52,1.84-14.26,3-2.88.69-5.81,1-8.7,2-2.67.9-5.76.48-8.5,1.24a144,144,0,0,1-15.77,3,17,17,0,0,0-5.3,1.64c-1.68.89-3.54-.48-5.14.94s-4-.61-5.41,1.38c-4.19-.18-8.09,1.46-12.16,2.06-3.71.55-7.29,1.79-11,2.31-2.3.31-4.52,1.22-6.82,1.59-3.1.51-6.13,1.3-9.19,1.91s-5.81,1.26-8.7,1.88c-2.26.48-4.6,1.27-7,1.28a29.93,29.93,0,0,0-8.75,1.76c-1.95.61-4,0-6.07,1.09-1.71.92-4,.75-6,1.13s-4.59.4-6.37,1.46c-1.95,1.15-4.41-.61-5.89,1.53-4.37-.25-8.44,1.45-12.65,2.16-3.63.61-7.46.86-10.91,2.52-1.86.89-4.25-.39-5.95,1.32-6,.31-11.88,2-17.71,3.23-5.29,1.15-10.64,2.61-15.93,3.51-5.76,1-11.31,3.16-17.22,3.26-1.66,2.07-4.24.47-6.34,1.63s-4.58,1-6.91,1.36-4.54.29-6.56,1.09c-5.13,2-10.63,2.49-15.92,3.69-4.1.93-8.39,1.65-12.59,2.39a71.46,71.46,0,0,0-10.89,2.58c-2,.67-4,0-6.05,1.13-1.68,1-4,.81-6,1.13-2.2.34-4.73.11-6.5,1.15s-4,.47-5.87,1.67c-1.36.86-3.63.35-5.51,1.09s-4,.73-5.84,1L41.42,349.22l58.26-12.07c-.21,2.75-.56,5.42-.59,8.09-.08,7.49.1,15-.08,22.49a15.57,15.57,0,0,0,4.2,10.76,28.49,28.49,0,0,0,7.09,5.64,52.64,52.64,0,0,0,11,4.83,97.3,97.3,0,0,0,13.73,3.18c5.25.94,10.42.6,15.62.77a55.06,55.06,0,0,0,15.62-2.15c4.56-1.18,9.38-2,13.5-4.78,3.16-2.1,6.56-3.73,9.33-6.5a15.91,15.91,0,0,0,4.94-12c-.06-8.17-.15-16.34,0-24.5.09-4.1-1.62-7.38-4-10.37-3-3.84-7.82-6.73-13.37-8.71a17.59,17.59,0,0,1-2.75-1.58l.1-.9c24-4.31,47.87-9.6,71.59-14.06a57.26,57.26,0,0,0-.64,6.08c-.08,8,.14,16-.11,24a15.25,15.25,0,0,0,3.33,10.12c3.5,4.44,8.32,7.17,13.52,9.49,4.72,2.1,9.77,2.92,14.55,4.7a5.53,5.53,0,0,0,1.42.19c5.85.53,11.68,1.52,17.58,1,2.38-.22,4.74.6,7.18-.79,1.87-1.05,4.39.21,6.68-.73,2.13-.89,4.61-.9,6.89-1.48a29.63,29.63,0,0,0,6.16-2c5.7-2.87,11.41-5.92,15.32-11.16a12.49,12.49,0,0,0,2.46-7.45q-.06-13.75,0-27.5c0-3.53-1.72-6.37-3.73-8.93a22.39,22.39,0,0,0-7-6,62.73,62.73,0,0,0-8.36-4C320.55,292.74,320.22,292.21,319.51,291.56Z" transform="translate(-35.16 -256.93)"/><path class="cls-2" d="M119.25,479.81V430.39c2-2.25,5.42-.62,7.75-2.45,4.36.18,8.46-1.4,12.64-2.19,3.6-.68,7.29-1.5,10.88-2.56,2-.6,4.33-.8,6.5-1.24,5.82-1.18,11.75-1.85,17.41-3.82,1.91-.66,4-.08,6.07-1.08,1.76-.87,4-.77,6-1.11,1.86-.32,3.71-.74,5.58-1,2-.26,3.9-1.65,6.09-1,6.09-2.2,12.58-2.63,18.81-4.13,5.28-1.28,10.62-2.51,15.92-3.66,4.12-.89,8.4-1.63,12.59-2.39,3.61-.66,7.36-1.11,10.92-2.5A25.69,25.69,0,0,1,262.9,400c4.43-.45,8.81-1.46,13.11-2.32,5.14-1,10.46-1.58,15.5-3.48,1.92-.73,4.31-.81,6.48-1.26,7.5-1.57,15.11-2.57,22.51-4.77,2-.61,4.33-.78,6.5-1.23,7.5-1.58,15.16-2.41,22.48-4.88,1.77-.59,3.92.43,5.53-1.13,6.39-.82,12.61-2.4,18.89-3.79,4.11-.92,8.45-1.48,12.58-2.38,5.32-1.16,10.78-1.69,16-3.55A45,45,0,0,1,409,370c2.5-.47,5.23-.25,7.53-1.15s5.15-.09,7.22-1.88c5.78.08,11.13-2.2,16.74-3.11,7-1.12,13.92-2.6,20.82-4.07,6.28-1.33,12.62-2.46,18.84-4,5.28-1.31,10.88-1.39,15.88-3.83,4.36.18,8.44-1.43,12.64-2.18a66,66,0,0,0,10.89-2.54c2-.71,4.32-.82,6.48-1.27,7.51-1.57,15.16-2.41,22.48-4.86,1-.35,2.31,0,3.44-.18a6,6,0,0,0,1.64-.76c.75,3.85,1,34.13.34,49.77-2.78.66-5.64,1.38-8.52,2-1.84.4-3.83.4-5.55,1.07-3,1.17-6.18,1.2-9.18,2-6.93,1.91-14.2,2.27-21,4.75-1.87.68-4,.23-6.06,1.08-1.84.77-4,.75-6.05,1.09-1.86.32-3.72.68-5.58,1-2,.35-3.91,1.13-6.09,1.13-1.73,0-3.42,1.38-5.21,1.73-2,.39-4.05.23-6.08,1.05-1.85.76-4,.75-6.05,1.09-1.86.32-3.72.67-5.58,1-2,.36-3.92,1.13-6.09,1.13-1.73,0-3.42,1.4-5.21,1.73-2,.37-4.05.25-6.08,1.05-1.86.74-4,.75-6.05,1.09-1.86.32-3.72.66-5.58,1-2,.37-3.92,1.12-6.09,1.13-1.73,0-3.44,1.6-5.2,1.69-2.27.13-4.37.83-6.56,1.16-6.1.93-12.2,2-18.21,3.21-6.28,1.31-12.62,2.46-18.84,4-5.28,1.29-10.88,1.38-15.88,3.82-4.36-.18-8.49,1.3-12.63,2.18-5.31,1.13-10.79,1.62-15.95,3.66-1.79.71-4,.59-6,1.06-4.73,1.1-9.52,1.87-14.27,2.94-2.73.61-5.53,1.17-8.3,1.75s-5.64.8-8.41,1.45c-3.53.82-7.19,1.26-10.62,2.18s-7.05,1-10.4,2.6c-1.68.79-4,.66-6,1.08-4.76,1-9.5,2.29-14.26,2.9-4.43.57-8.55,2.9-13.15,2.2-5.43,2.12-11.32,2.2-16.89,3.83-2.64.76-5.51,1.17-8.28,1.77s-5.65.78-8.42,1.44c-3.53.84-7.2,1.24-10.62,2.18s-7.08.93-10.38,2.64c-1.51.79-3.66.36-5.56,1-2.36.82-5.33.17-7.46,1.28-2.4,1.25-4.92.74-7.34,1.59a78.21,78.21,0,0,1-8.24,1.87c-2.77.61-5.65.77-8.42,1.42-3.53.84-7.2,1.24-10.62,2.18s-7,1-10.4,2.61c-1.64.77-4,.45-6,1.12A35.13,35.13,0,0,1,119.25,479.81Z" transform="translate(-35.16 -256.93)"/><path class="cls-3" d="M115.89,429.87v46.8L38.24,399v-46.8Q77,391,115.89,429.87Z" transform="translate(-35.16 -256.93)"/><path class="cls-1" d="M395.17,277.19c3.12-2.38,5.41-5.58,8.77-7.82,3.84-2.55,8.18-3.64,12.29-5.36,2.13-.89,4.68-.76,6.8-1.66,2.27-1,5,.59,6.91-1.41,4.5,0,9-.24,13.48.05,10.24.66,20.06,2.86,29.2,7.87a22.41,22.41,0,0,1,9,8.15c2.3,3.86,1.49,9.91-1.71,13.6-3.43,3.94-8.13,5.94-12.58,8.26-2,1.06-4.48,1.23-6.61,2.12s-4.42.39-6.19,1.94c-.1.08-.33,0-.49,0-3.86.33-7.71.8-11.58,1s-7.78.65-11.45-.12c-4.43-.92-9-.89-13.39-2.55-4-1.52-8.38-2.38-12.11-4.49-3.33-1.9-6.77-3.71-8.92-7.52-2-3.54-3.43-6.65-1.57-10.55A4.3,4.3,0,0,0,395.17,277.19Z" transform="translate(-35.16 -256.93)"/><path class="cls-1" d="M292.86,290.69c5,.42,10.16.27,15,1.38,8,1.82,15.87,4.26,22.7,9a15.44,15.44,0,0,1,6.37,9.78,11.66,11.66,0,0,1-3,9.67c-3.47,4.08-8.24,6.28-13,8.4-2,.87-4.14,1.26-6.14,2.06s-4.36.53-6.22,1.89c-.22.16-.63.05-1,.08-3.69.33-7.37.8-11.07,1s-7.43.59-11-.09c-4.75-.92-9.63-.89-14.33-2.72-4.3-1.67-8.73-2.9-12.89-5.07-3.81-2-7-4.5-8.88-8.28-.93-1.88-2.11-4.08-1.41-6.37.63-2.05.94-4.27,2.81-5.84,2.48-2.08,4.51-4.61,7.34-6.4,3.86-2.44,8.14-3.72,12.37-5.1,2.19-.72,4.54-1,6.73-1.87s4.29-.16,6.57-1c2.64-1,5.91-.23,8.91-.23Z" transform="translate(-35.16 -256.93)"/><path class="cls-1" d="M103,337.45c3.13-2.59,5.53-5.9,9.07-8.16,3.86-2.48,8.14-3.7,12.31-5.3,2.16-.83,4.59-.95,6.78-1.71s4.91.49,6.94-1.34h17c2,1.58,4.39.65,6.57,1.06a49.48,49.48,0,0,1,6.17,1.94c2.06.67,4.08,1.48,6.17,2,4.19,1,7.71,3.29,11.12,5.68a15,15,0,0,1,5.8,9c.84,3.63-.65,7.22-3.13,10.08-3.51,4-8.29,6.13-13,8.28-3.84,1.73-8,2.31-11.94,3.74a3.5,3.5,0,0,1-.9.23c-3.69.35-7.37.81-11.07,1s-7.76.58-11.46-.09c-4.76-.87-9.63-1-14.31-2.74-4.35-1.6-8.82-2.81-12.87-5.13-4.32-2.49-8-5.37-9.42-10.65-.57-2.14-1.3-3.86.19-5.82C103.28,339.05,103,338.18,103,337.45Z" transform="translate(-35.16 -256.93)"/><path class="cls-2" d="M394.06,292c2.91,3.73,7,5.54,10.6,7.75,3.34,2,7.39,3.06,11.24,4.08s7.88,2.66,12.13,2.07c2.7,1.71,5.7.86,8.57,1a62.58,62.58,0,0,0,9,0,106.26,106.26,0,0,0,12.14-2,76,76,0,0,0,11.09-3.31,37.69,37.69,0,0,0,7.24-4.18c2.34-1.6,4.5-3.46,6.84-5.29v19.61a52.5,52.5,0,0,1-3.36,5.2c-3.18,3.92-7.88,5.69-12.16,7.95-2,1.06-4.47,1.24-6.61,2.12s-4.4.42-6.19,1.92c-.1.09-.32,0-.48,0-3.86.33-7.7.8-11.57,1s-7.78.67-11.44-.12c-4.57-1-9.3-.85-13.82-2.69-4.26-1.73-8.71-2.94-12.89-5a21.5,21.5,0,0,1-8.91-8.29,9.38,9.38,0,0,1-1.33-4.4C394,303.59,394.06,297.81,394.06,292Z" transform="translate(-35.16 -256.93)"/><path class="cls-2" d="M337.06,320.8c0,7.49.45,13.81-.16,20-.36,3.63-3.16,6.59-6.12,8.88-4,3.07-14.3,7.18-19.52,8.29a101.19,101.19,0,0,1-12.66,1.87,77.57,77.57,0,0,1-13.46,0c-2.34-.21-4.69-.72-7.07-1a20.43,20.43,0,0,1-6.7-1.8c-2.05-1-4.45-1.28-6.61-2.12s-4.13-2.08-6.27-2.93a18,18,0,0,1-9-8.15,9.79,9.79,0,0,1-1.38-4.38c-.16-5.78-.07-11.56-.07-18.36,2.95,4.34,6.62,6.37,10.15,8.35a43.34,43.34,0,0,0,11.6,4.48c4,.89,7.88,2.61,12.14,2,6.08,2.18,12.38.46,18.55,1,2.39-1.3,5.12-.52,7.53-1.13s4.81-1.19,7.19-1.87,5-.94,7.11-2.08c4.12-2.22,8.52-4.08,11.85-7.55C335,323.5,335.62,322.57,337.06,320.8Z" transform="translate(-35.16 -256.93)"/><path class="cls-2" d="M102.06,351.1c3,4.31,6.6,6.35,10.14,8.32a42.56,42.56,0,0,0,11.6,4.48c4,.88,7.88,2.62,12.14,2,6.08,2.18,12.37.46,18.54,1,2.4-1.3,5.12-.52,7.54-1.13s4.81-1.18,7.19-1.87,5-.94,7.11-2.08c4.12-2.22,8.52-4.07,11.85-7.54.78-.82,1.46-1.73,2.89-3.45,0,7.41.44,13.72-.16,19.93-.35,3.64-3.15,6.58-6.11,8.88-3.95,3.06-14.29,7.19-19.52,8.3a103.07,103.07,0,0,1-12.66,1.87,79.6,79.6,0,0,1-13.46,0c-2.34-.19-4.68-.73-7.06-1a19.94,19.94,0,0,1-6.71-1.8c-2-1-4.45-1.28-6.61-2.12s-4.13-2.07-6.26-2.93a17.9,17.9,0,0,1-9-8.14,9.93,9.93,0,0,1-1.39-4.38C102,363.67,102.06,357.89,102.06,351.1Z" transform="translate(-35.16 -256.93)"/></svg>