<svg id="Layer_1" data-name="Layer 1" xmlns="http://www.w3.org/2000/svg" viewBox="0 0 521.91 226.06"><defs><style>.cls-1{fill:#fef3e8;}.cls-2{fill:#d2c7bd;}.cls-3{fill:#e8ddd2;}</style></defs><path d="M568,418.79c-4.39.78-8.51,1.22-12.42,2.37A26.14,26.14,0,0,1,552,422c-1.22.19-2.38.74-3.6,1-2.35.41-5.08.07-7,1.18-2.24,1.32-4.94-.2-6.79,1.76-4.24-.39-8,1.79-12.13,2.21a66.71,66.71,0,0,0-10.62,2.09c-3.42.93-7.08.93-10.39,2.64-1.52.79-3.66.36-5.56,1-2.35.83-5.33.18-7.46,1.28-2.4,1.24-4.92.75-7.34,1.59a76.33,76.33,0,0,1-8.24,1.86c-2.77.62-5.66.78-8.42,1.43-3.53.84-7.2,1.24-10.62,2.18s-7,1.59-10.39,2.52c-3.71,1-7.71,1.58-11.6,2.28a59.14,59.14,0,0,0-8.24,1.8c-2.22.73-4.68.08-7.06,1.07-2.14.88-5.16.09-6.91,1.31-2.09,1.47-4.74-.4-6.3,1.8-4.36-.2-8.45,1.39-12.65,2.16-3.63.66-7.45.87-10.91,2.55-1.84.88-4,0-6,1.16-1.68.95-4,.81-6,1.13-2.2.34-4.77.07-6.49,1.16-1.9,1.2-4.34-.12-5.77,1.84-4.2-.19-8.13,1.29-12.16,2.08-5.51,1.08-11.15,1.71-16.47,3.63-1.94.7-4.26-.42-6,1.29-6,.3-11.88,2-17.71,3.23-5.29,1.14-10.65,2.36-15.94,3.55-4.11.92-8.41,1.59-12.59,2.39-3.62.69-7.3,1.51-10.9,2.52-2.09.59-4.33.76-6.49,1.24-1.68.38-3.41,0-5.12,1-1.28.72-3-.24-4.63.94-1.28.94-3.6-.68-5,1.15-4.26-.57-8,1.77-12.16,2.14a61.75,61.75,0,0,0-10.62,2.08c-3.42.94-7.24.62-10.32,2.78-4.2-.18-8.14,1.29-12.15,2.09-5.51,1.11-11.16,1.61-16.47,3.65-1.92.73-4,.48-6,1a65.15,65.15,0,0,1-8.79,1.78,55.83,55.83,0,0,0-8.85,1.63c-5.09,1.58-10.35,2.38-15.49,3.48-4.61,1-9.24,2.48-14,2.37q-40.71-40.73-81.45-81.45V374.13c1.53-.7,3-2,4.61-2,5.78-.17,11.13-2.29,16.74-3.22,7-1.15,13.89-2.68,20.83-4.06,4.58-.91,9.17-1.95,13.76-3,3.39-.74,6.78-1.34,10.94-2.36,2.3-3.13,6.15-5.86,10.23-8a53.4,53.4,0,0,1,11.67-4.37c3.95-1,7.93-2.37,12.14-2.09,2.87-1.78,6.05-.82,9.09-1s6.57-.76,9.43.18,5.85-.23,8.24,1.79c2.19-.45,4.4.58,6.71-.76,1.62-.94,4-.42,6-1.12,2.52-.85,5.41-.54,8-1.17,4.89-1.18,9.86-1.95,14.72-3.12,1.55-.37,3.14-.45,4.6-.91s3.16-.57,4.58-1c4-1.33,8.45-.9,12.29-2.88,5.92-.06,11.39-2.51,17.24-3.17,3.52-.4,7-1.73,10.86-1.94,2.57-4,6.71-6.37,10.7-8.7,3.41-2,7.4-3.09,11.26-4.14a94.64,94.64,0,0,1,28.74-3.11,21.08,21.08,0,0,1,5.1,1c1.51.44,3.06-.31,4.75.66a7.19,7.19,0,0,0,5.29.27c3.86-1.35,8-1.22,11.85-2.76,2-.79,4.33-.37,6.57-.95,3.16-.81,6.44-1.25,9.65-2.12a65.48,65.48,0,0,1,9.17-1.89c4.27-.52,8.43-1.6,12.62-2.36,3.61-.66,7.46-.83,10.86-2.65,1.53-.81,3.66.71,5.05-1.09,4.83.12,9.28-2.3,14.28-2.1,2.72-3.86,6.67-6.51,10.74-8.75,3.47-1.91,7.43-3,11.24-4.2,4.63-1.52,9.54-1.72,14.28-2.89,3-.74,6.32-.36,9.46-.08s6.27-1.26,9.09.94c2.79-.44,5.4.91,8.09.91a34.66,34.66,0,0,0,9-1.12c3.55-1,7-2,10.61-1.78L568,363.79ZM330.45,317.62c.7.65,1,1.18,1.5,1.35a63.93,63.93,0,0,1,8.36,4,22.39,22.39,0,0,1,7,6c2,2.56,3.74,5.4,3.72,8.93q-.06,13.76,0,27.5a12.49,12.49,0,0,1-2.46,7.45c-3.9,5.24-9.61,8.29-15.32,11.16a29.54,29.54,0,0,1-6.15,2c-2.28.58-4.76.59-6.9,1.48s-4.81-.32-6.67.73c-2.45,1.39-4.81.57-7.18.79-5.9.55-11.73-.44-17.58-1a5.94,5.94,0,0,1-1.42-.19c-4.78-1.78-9.83-2.6-14.56-4.7-5.19-2.32-10-5.05-13.51-9.49a15.21,15.21,0,0,1-3.34-10.12c.26-8,0-16,.11-24,0-2,.42-4.05.64-6.08-23.71,4.46-47.53,9.75-71.58,14.06l-.1.9a17.59,17.59,0,0,0,2.75,1.58c5.54,2,10.37,4.87,13.36,8.71,2.34,3,4.05,6.27,4,10.37-.18,8.16-.09,16.33,0,24.5a15.94,15.94,0,0,1-4.94,12c-2.77,2.77-6.18,4.4-9.34,6.5-4.12,2.74-8.93,3.6-13.49,4.78A55.08,55.08,0,0,1,161.62,419c-5.2-.17-10.36.17-15.62-.77A97.17,97.17,0,0,1,132.28,415a52.19,52.19,0,0,1-11-4.83,28.72,28.72,0,0,1-7.1-5.64A15.6,15.6,0,0,1,110,393.79c.18-7.49,0-15,.08-22.49,0-2.67.38-5.34.59-8.1L52.35,375.28,130,452.92c1.82-.28,4-.27,5.84-1s4.16-.23,5.51-1.09c1.9-1.2,4-.55,5.88-1.67s4.3-.81,6.49-1.15c2-.32,4.34-.17,6-1.13,2-1.15,4.11-.46,6.05-1.13a70.15,70.15,0,0,1,10.9-2.58c4.19-.74,8.48-1.46,12.59-2.39,5.29-1.2,10.78-1.67,15.92-3.69,2-.8,4.36-.73,6.55-1.09,2.34-.38,5-.28,6.92-1.36s4.67.44,6.34-1.63c5.91-.1,11.45-2.27,17.21-3.26,5.29-.9,10.65-2.36,15.94-3.51,5.82-1.26,11.67-2.92,17.7-3.23,1.71-1.71,4.1-.43,6-1.32,3.46-1.66,7.28-1.91,10.92-2.52,4.21-.71,8.27-2.41,12.64-2.16,1.49-2.14,3.95-.38,5.89-1.53,1.79-1.06,4.21-1.06,6.37-1.46s4.3-.21,6-1.13c2-1.09,4.11-.48,6.06-1.09a30.06,30.06,0,0,1,8.76-1.76c2.43,0,4.77-.8,7-1.28,2.89-.62,5.77-1.3,8.7-1.88s6.09-1.41,9.19-1.91c2.3-.37,4.51-1.28,6.82-1.59,3.74-.52,7.33-1.76,11-2.31,4.07-.61,8-2.24,12.16-2.06,1.43-2,3.94-.1,5.4-1.38s3.47-.05,5.14-.94a17.11,17.11,0,0,1,5.3-1.64,143.58,143.58,0,0,0,15.77-3c2.75-.76,5.84-.34,8.51-1.24,2.88-1,5.82-1.28,8.7-2,4.74-1.13,9.53-1.88,14.26-3,2-.47,4.24-.35,6-1.06,5.16-2,10.64-2.52,15.95-3.65,4.14-.88,8.27-2.36,12.63-2.18,5-2.43,10.6-2.52,15.89-3.83,6.21-1.53,12.65-2.11,18.81-4.11,2.24-.72,4.71-.69,7.07-1.07,2.19-.36,4.27-1.46,6.58-1,1.78-2.16,4.89.14,6.67-2,5.77-.4,11.13-2.67,16.09-3.2l-77.65-77.65-7.5,1.24-.06,1.24c3,1.43,6.21,2.44,9.14,4.27a23.31,23.31,0,0,1,8.17,7.83c2.09,3.5,2.69,4.66,2.7,7.9,0,8.66-.06,17.33,0,26a13.13,13.13,0,0,1-2.35,8c-4,5.34-9.68,8.74-15.74,11.3-3.25,1.38-6.82,2-10.22,3.08-3.65,1.12-7.48,1.1-11.21,1.82s-8,.3-12,.13-7.73-.63-11.59-1c-.16,0-.35,0-.48,0-4.42-2.31-9.88-1.68-14-4.94-2.87.37-4.44-2.16-6.75-3-2.7-1-4.55-3.1-6.35-5.14-2.79-3.15-4.58-6.7-4.48-11.15.18-7.5,0-15,.08-22.5,0-2.66.38-5.32.56-7.77C378.91,307.92,355.19,313.14,330.45,317.62ZM130.18,505.87a35.27,35.27,0,0,0,5.2-.92c2-.67,4.37-.35,6-1.12,3.35-1.58,7-1.67,10.4-2.61s7.08-1.34,10.62-2.18c2.76-.65,5.64-.81,8.42-1.43a75.6,75.6,0,0,0,8.23-1.86c2.43-.85,5-.34,7.35-1.59,2.12-1.11,5.1-.46,7.46-1.28,1.9-.66,4-.23,5.55-1,3.31-1.72,7-1.7,10.39-2.64s7.09-1.34,10.62-2.18c2.76-.66,5.64-.83,8.42-1.44s5.64-1,8.27-1.78c5.58-1.62,11.47-1.7,16.9-3.82,4.59.7,8.72-1.63,13.14-2.2,4.76-.61,9.5-1.91,14.26-2.9,2-.42,4.34-.29,6-1.08,3.35-1.57,7-1.69,10.4-2.6s7.09-1.36,10.63-2.18c2.76-.65,5.62-.88,8.4-1.45s5.57-1.14,8.31-1.75c4.74-1.07,9.54-1.84,14.26-2.94,2-.47,4.25-.35,6.05-1.06,5.15-2,10.64-2.53,15.94-3.66,4.14-.88,8.28-2.36,12.63-2.18,5-2.44,10.6-2.53,15.89-3.82,6.21-1.53,12.55-2.68,18.84-4,6-1.24,12.11-2.28,18.21-3.21,2.19-.33,4.28-1,6.55-1.16,1.77-.1,3.47-1.68,5.21-1.69,2.16,0,4.06-.76,6.08-1.13,1.86-.34,3.72-.68,5.59-1s4.18-.35,6.05-1.09,4.06-.68,6.07-1.05c1.8-.33,3.48-1.73,5.22-1.73,2.17,0,4.06-.77,6.08-1.13,1.87-.33,3.72-.68,5.59-1,2-.34,4.19-.33,6.05-1.09,2-.82,4.06-.66,6.07-1.05,1.79-.35,3.48-1.73,5.22-1.73,2.17,0,4.06-.78,6.08-1.13s3.73-.68,5.59-1c2-.34,4.2-.32,6.05-1.09,2-.85,4.19-.4,6-1.08,6.82-2.48,14.08-2.84,21-4.75,3-.82,6.18-.85,9.17-2,1.73-.67,3.71-.67,5.56-1.07,2.88-.63,5.74-1.35,8.52-2,.64-15.64.41-45.92-.34-49.77a6.1,6.1,0,0,1-1.64.76c-1.14.15-2.39-.17-3.44.18-7.32,2.45-15,3.29-22.48,4.86-2.17.45-4.54.56-6.48,1.27a66.14,66.14,0,0,1-10.9,2.54c-4.19.75-8.28,2.36-12.63,2.18-5,2.44-10.61,2.52-15.89,3.83-6.21,1.53-12.55,2.66-18.83,4-6.91,1.47-13.85,2.95-20.82,4.07-5.62.91-11,3.19-16.74,3.11-2.08,1.79-4.84.94-7.22,1.88s-5,.68-7.53,1.15a45.19,45.19,0,0,0-6.49,1.25c-5.2,1.86-10.67,2.38-16,3.55-4.14.9-8.47,1.46-12.59,2.38-6.27,1.39-12.5,3-18.89,3.79-1.61,1.56-3.76.54-5.53,1.13-7.32,2.47-15,3.3-22.48,4.88-2.16.45-4.47.62-6.5,1.22-7.39,2.21-15,3.21-22.51,4.78-2.16.45-4.55.53-6.48,1.26-5,1.9-10.35,2.44-15.5,3.48-4.29.86-8.67,1.87-13.11,2.32a25.77,25.77,0,0,0-6.46,1.25c-3.56,1.39-7.3,1.84-10.92,2.5-4.19.76-8.46,1.5-12.59,2.39-5.3,1.15-10.63,2.38-15.92,3.66-6.23,1.5-12.71,1.93-18.81,4.13-2.18-.63-4,.76-6.08,1-1.87.24-3.72.66-5.59,1-2,.34-4.26.24-6,1.11-2,1-4.15.42-6.06,1.08-5.67,2-11.59,2.64-17.42,3.82-2.17.43-4.47.64-6.5,1.24a111.27,111.27,0,0,1-10.88,2.56c-4.17.79-8.27,2.37-12.63,2.19-2.33,1.83-5.76.2-7.76,2.45Zm-3.36-49.95L49.17,378.27v46.81l77.65,77.65ZM406.11,303.25a4.56,4.56,0,0,1-.13,1.48c-1.87,3.9-.43,7,1.56,10.55,2.15,3.81,5.59,5.62,8.93,7.51,3.72,2.12,8.09,3,12.11,4.5,4.39,1.66,8.95,1.63,13.39,2.55,3.67.77,7.63.29,11.45.12s7.72-.63,11.57-1c.17,0,.4.07.49,0,1.78-1.55,4.18-1.09,6.2-1.94s4.59-1.06,6.61-2.12c4.44-2.32,9.14-4.32,12.57-8.26,3.21-3.69,4-9.74,1.72-13.6a22.44,22.44,0,0,0-9-8.15c-9.13-5-19-7.21-29.19-7.87-4.48-.29-9-.05-13.48-.05-2,2-4.64.44-6.91,1.41s-4.68.77-6.8,1.66c-4.12,1.72-8.45,2.81-12.3,5.36C411.51,297.67,409.23,300.87,406.11,303.25ZM303.8,316.75l0,.25c-3,0-6.26-.74-8.91.23-2.27.83-4.48.19-6.57,1s-4.53,1.15-6.72,1.87c-4.23,1.38-8.51,2.66-12.38,5.1-2.83,1.79-4.85,4.32-7.33,6.4-1.87,1.57-2.18,3.79-2.81,5.84-.7,2.29.47,4.49,1.4,6.37,1.86,3.78,5.07,6.29,8.88,8.28,4.16,2.17,8.6,3.4,12.9,5.07,4.69,1.83,9.57,1.8,14.32,2.72,3.54.68,7.31.26,11,.09s7.38-.63,11.07-1c.32,0,.74.08,1-.08,1.85-1.36,4.19-1.09,6.21-1.89s4.18-1.19,6.14-2.06c4.76-2.12,9.52-4.32,13-8.4a11.62,11.62,0,0,0,3-9.67,15.4,15.4,0,0,0-6.37-9.78c-6.82-4.73-14.73-7.17-22.7-9C314,317,308.81,317.17,303.8,316.75ZM113.94,363.51c0,.73.27,1.6,0,2-1.48,2-.76,3.69-.19,5.83,1.39,5.28,5.1,8.16,9.43,10.65,4,2.32,8.52,3.53,12.86,5.12,4.68,1.72,9.55,1.88,14.31,2.74,3.71.68,7.64.27,11.46.1s7.39-.62,11.08-1a4.1,4.1,0,0,0,.9-.23c3.92-1.43,8.1-2,11.93-3.74,4.75-2.15,9.54-4.25,13-8.28,2.49-2.86,4-6.45,3.14-10.08a15,15,0,0,0-5.8-9c-3.41-2.39-6.93-4.69-11.12-5.68-2.1-.49-4.12-1.3-6.17-2a49.62,49.62,0,0,0-6.18-1.94c-2.17-.41-4.56.52-6.57-1.06H149c-2,1.83-4.66.55-6.93,1.34s-4.63.88-6.79,1.71c-4.16,1.6-8.45,2.82-12.31,5.3C119.47,357.61,117.07,360.92,113.94,363.51ZM405,318.1c0,5.77-.09,11.55.06,17.31a9.28,9.28,0,0,0,1.34,4.4,21.42,21.42,0,0,0,8.9,8.29c4.19,2.11,8.63,3.32,12.89,5,4.52,1.84,9.25,1.71,13.83,2.69,3.65.79,7.62.29,11.44.12s7.71-.63,11.56-1c.17,0,.39.06.49,0,1.79-1.5,4.17-1.1,6.19-1.92s4.59-1.06,6.6-2.12c4.29-2.26,9-4,12.16-7.95a53.89,53.89,0,0,0,3.37-5.2V318.17c-2.34,1.82-4.5,3.69-6.84,5.29a38,38,0,0,1-7.24,4.18,76.16,76.16,0,0,1-11.1,3.31,105.9,105.9,0,0,1-12.14,2,62.44,62.44,0,0,1-9,0c-2.88-.11-5.88.74-8.57-1-4.26.59-8.18-1-12.13-2.07s-7.91-2-11.24-4.08C412,323.64,407.91,321.83,405,318.1Zm-57,28.76c-1.45,1.77-2.11,2.7-2.88,3.51-3.33,3.47-7.74,5.33-11.85,7.55-2.13,1.14-4.73,1.41-7.11,2.08s-4.8,1.28-7.19,1.87-5.14-.17-7.54,1.13c-6.17-.54-12.46,1.18-18.55-1-4.25.58-8.13-1.14-12.13-2a43.08,43.08,0,0,1-11.6-4.48c-3.54-2-7.2-4-10.15-8.35,0,6.8-.09,12.58.06,18.35a9.8,9.8,0,0,0,1.39,4.39,18,18,0,0,0,9,8.15c2.14.85,4.12,2.1,6.27,2.93s4.56,1.1,6.6,2.12a20.42,20.42,0,0,0,6.71,1.8c2.37.29,4.73.8,7.07,1a77.45,77.45,0,0,0,13.45,0A102.79,102.79,0,0,0,322.19,384c5.22-1.11,15.55-5.22,19.52-8.29,3-2.29,5.77-5.25,6.12-8.88C348.44,360.67,348,354.35,348,346.86Zm-235,30.3c0,6.79-.09,12.57.06,18.35a9.94,9.94,0,0,0,1.4,4.38,17.86,17.86,0,0,0,9,8.13c2.14.87,4.12,2.11,6.27,2.94s4.56,1.09,6.6,2.12a20.07,20.07,0,0,0,6.71,1.8c2.38.28,4.73.82,7.07,1a79.6,79.6,0,0,0,13.46,0A103.07,103.07,0,0,0,176.21,414c5.22-1.11,15.57-5.24,19.51-8.3,3-2.3,5.76-5.25,6.11-8.88.6-6.21.17-12.52.17-19.93-1.44,1.72-2.11,2.63-2.89,3.45-3.33,3.47-7.74,5.32-11.86,7.54-2.12,1.14-4.72,1.4-7.1,2.08s-4.81,1.27-7.19,1.87-5.15-.17-7.54,1.13c-6.17-.54-12.47,1.18-18.55-1-4.25.58-8.13-1.16-12.14-2a42.62,42.62,0,0,1-11.59-4.48C119.6,383.51,116,381.47,113,377.16Z" transform="translate(-46.09 -282.99)"/><path class="cls-1" d="M330.45,317.62c24.74-4.48,48.46-9.7,72.14-14.17-.18,2.45-.53,5.11-.56,7.77-.08,7.5.1,15-.08,22.5-.1,4.45,1.69,8,4.48,11.15,1.8,2,3.65,4.14,6.35,5.14,2.31.86,3.88,3.39,6.75,3,4.07,3.26,9.53,2.63,14,4.94.13.07.32,0,.48,0,3.86.33,7.72.8,11.59,1s8.11.62,12-.13,7.56-.7,11.21-1.82c3.4-1,7-1.7,10.22-3.08,6.06-2.56,11.75-6,15.74-11.3a13.13,13.13,0,0,0,2.35-8c-.09-8.66,0-17.33,0-26,0-3.24-.61-4.4-2.7-7.9a23.31,23.31,0,0,0-8.17-7.83c-2.93-1.83-6.16-2.84-9.14-4.27l.06-1.24,7.5-1.24L562.2,363.8c-5,.53-10.32,2.8-16.09,3.2-1.78,2.14-4.89-.16-6.67,2-2.31-.47-4.39.63-6.58,1-2.36.38-4.83.35-7.07,1.07-6.16,2-12.6,2.58-18.81,4.11-5.29,1.31-10.89,1.4-15.89,3.83-4.36-.18-8.49,1.3-12.63,2.18-5.31,1.13-10.79,1.62-15.95,3.65-1.8.71-4,.59-6,1.06-4.73,1.09-9.52,1.84-14.26,3-2.88.69-5.82,1-8.7,2-2.67.9-5.76.48-8.51,1.24a143.58,143.58,0,0,1-15.77,3,17.11,17.11,0,0,0-5.3,1.64c-1.67.89-3.53-.48-5.14.94s-4-.62-5.4,1.38c-4.2-.18-8.09,1.45-12.16,2.06-3.71.55-7.3,1.79-11,2.31-2.31.31-4.52,1.22-6.82,1.59-3.1.5-6.13,1.3-9.19,1.91s-5.81,1.26-8.7,1.88c-2.26.48-4.6,1.27-7,1.28a30.06,30.06,0,0,0-8.76,1.76c-1.95.61-4,0-6.06,1.09-1.72.92-4,.75-6,1.13s-4.58.4-6.37,1.46c-1.94,1.15-4.4-.61-5.89,1.53-4.37-.25-8.43,1.45-12.64,2.16-3.64.61-7.46.86-10.92,2.52-1.85.89-4.24-.39-6,1.32-6,.31-11.88,2-17.7,3.23-5.29,1.15-10.65,2.61-15.94,3.51-5.76,1-11.3,3.16-17.21,3.26-1.67,2.07-4.25.47-6.34,1.63s-4.58,1-6.92,1.36c-2.19.36-4.54.29-6.55,1.09-5.14,2-10.63,2.49-15.92,3.69-4.11.93-8.4,1.65-12.59,2.39a70.15,70.15,0,0,0-10.9,2.58c-1.94.67-4,0-6.05,1.13-1.67,1-4,.81-6,1.13-2.19.34-4.72.11-6.49,1.15s-4,.47-5.88,1.67c-1.35.86-3.63.35-5.51,1.09s-4,.73-5.84,1L52.35,375.28l58.27-12.08c-.21,2.76-.56,5.43-.59,8.1-.08,7.49.1,15-.08,22.49a15.6,15.6,0,0,0,4.19,10.76,28.72,28.72,0,0,0,7.1,5.64,52.19,52.19,0,0,0,11,4.83A97.17,97.17,0,0,0,146,418.2c5.26.94,10.42.6,15.62.77a55.08,55.08,0,0,0,15.63-2.15c4.56-1.18,9.37-2,13.49-4.78,3.16-2.1,6.57-3.73,9.34-6.5a15.94,15.94,0,0,0,4.94-12c-.06-8.17-.15-16.34,0-24.5.1-4.1-1.61-7.38-4-10.37-3-3.84-7.82-6.73-13.36-8.71a17.59,17.59,0,0,1-2.75-1.58l.1-.9c24-4.31,47.87-9.6,71.58-14.06-.22,2-.62,4.06-.64,6.08-.07,8,.15,16-.11,24a15.21,15.21,0,0,0,3.34,10.12c3.49,4.44,8.32,7.17,13.51,9.49,4.73,2.1,9.78,2.92,14.56,4.7a5.94,5.94,0,0,0,1.42.19c5.85.53,11.68,1.52,17.58,1,2.37-.22,4.73.6,7.18-.79,1.86-1.05,4.39.21,6.67-.73s4.62-.9,6.9-1.48a29.54,29.54,0,0,0,6.15-2c5.71-2.87,11.42-5.92,15.32-11.16a12.49,12.49,0,0,0,2.46-7.45q0-13.75,0-27.5c0-3.53-1.72-6.37-3.72-8.93a22.39,22.39,0,0,0-7-6,63.93,63.93,0,0,0-8.36-4C331.48,318.8,331.15,318.27,330.45,317.62Z" transform="translate(-46.09 -282.99)"/><path class="cls-2" d="M130.18,505.87V456.45c2-2.25,5.43-.62,7.76-2.45,4.36.18,8.46-1.4,12.63-2.19a111.27,111.27,0,0,0,10.88-2.56c2-.6,4.33-.81,6.5-1.24,5.83-1.18,11.75-1.85,17.42-3.82,1.91-.66,4-.08,6.06-1.08,1.77-.87,4-.77,6-1.11,1.87-.32,3.72-.74,5.59-1,2-.26,3.9-1.65,6.08-1,6.1-2.2,12.58-2.63,18.81-4.13,5.29-1.28,10.62-2.51,15.92-3.66,4.13-.89,8.4-1.63,12.59-2.39,3.62-.66,7.36-1.11,10.92-2.5a25.77,25.77,0,0,1,6.46-1.25c4.44-.45,8.82-1.46,13.11-2.32,5.15-1,10.47-1.58,15.5-3.48,1.93-.73,4.32-.81,6.48-1.26,7.51-1.57,15.12-2.57,22.51-4.78,2-.6,4.34-.77,6.5-1.22,7.51-1.58,15.16-2.41,22.48-4.88,1.77-.59,3.92.43,5.53-1.13,6.39-.82,12.62-2.4,18.89-3.79,4.12-.92,8.45-1.48,12.59-2.38,5.31-1.17,10.78-1.69,16-3.55a45.19,45.19,0,0,1,6.49-1.25c2.5-.47,5.22-.25,7.53-1.15s5.14-.09,7.22-1.88c5.78.08,11.12-2.2,16.74-3.11,7-1.12,13.91-2.6,20.82-4.07,6.28-1.33,12.62-2.46,18.83-4,5.28-1.31,10.88-1.39,15.89-3.83,4.35.18,8.44-1.43,12.63-2.18a66.14,66.14,0,0,0,10.9-2.54c1.94-.71,4.31-.82,6.48-1.27,7.5-1.57,15.16-2.41,22.48-4.86,1.05-.35,2.3,0,3.44-.18a6.1,6.1,0,0,0,1.64-.76c.75,3.85,1,34.13.34,49.77-2.78.66-5.64,1.38-8.52,2-1.85.4-3.83.4-5.56,1.07-3,1.17-6.18,1.2-9.17,2-6.94,1.91-14.2,2.27-21,4.75-1.86.68-4,.23-6,1.08-1.85.77-4,.75-6.05,1.09-1.86.32-3.72.68-5.59,1s-3.91,1.13-6.08,1.13c-1.74,0-3.43,1.38-5.22,1.73-2,.39-4.05.23-6.07,1.05-1.86.76-4,.75-6.05,1.09-1.87.32-3.72.67-5.59,1-2,.36-3.91,1.12-6.08,1.13-1.74,0-3.42,1.4-5.22,1.73-2,.37-4.05.25-6.07,1.05s-4,.75-6.05,1.09-3.73.66-5.59,1c-2,.37-3.92,1.12-6.08,1.13-1.74,0-3.44,1.59-5.21,1.69-2.27.13-4.36.83-6.55,1.16-6.1.93-12.21,2-18.21,3.21-6.29,1.31-12.63,2.46-18.84,4-5.29,1.29-10.88,1.38-15.89,3.82-4.35-.18-8.49,1.3-12.63,2.18-5.3,1.13-10.79,1.62-15.94,3.66-1.8.71-4,.59-6.05,1.06-4.72,1.1-9.52,1.87-14.26,2.94-2.74.61-5.53,1.17-8.31,1.75s-5.64.8-8.4,1.45c-3.54.82-7.19,1.26-10.63,2.18s-7.05,1-10.4,2.6c-1.68.79-4,.66-6,1.08-4.76,1-9.5,2.29-14.26,2.9-4.42.57-8.55,2.9-13.14,2.2-5.43,2.12-11.32,2.2-16.9,3.82-2.63.77-5.51,1.18-8.27,1.78s-5.66.78-8.42,1.44c-3.53.84-7.2,1.24-10.62,2.18s-7.08.92-10.39,2.64c-1.51.79-3.65.36-5.55,1-2.36.82-5.34.17-7.46,1.28-2.4,1.25-4.92.74-7.35,1.59a75.6,75.6,0,0,1-8.23,1.86c-2.78.62-5.66.78-8.42,1.43-3.54.84-7.2,1.24-10.62,2.18s-7.05,1-10.4,2.61c-1.65.77-4,.45-6,1.12A35.27,35.27,0,0,1,130.18,505.87Z" transform="translate(-46.09 -282.99)"/><path class="cls-3" d="M126.82,455.92v46.81L49.17,425.08V378.27Z" transform="translate(-46.09 -282.99)"/><path class="cls-1" d="M406.11,303.25c3.12-2.38,5.4-5.58,8.76-7.82,3.85-2.55,8.18-3.64,12.3-5.36,2.12-.89,4.68-.76,6.8-1.66s4.94.59,6.91-1.41c4.49,0,9-.24,13.48.05,10.23.66,20.06,2.86,29.19,7.87a22.44,22.44,0,0,1,9,8.15c2.29,3.86,1.49,9.91-1.72,13.6-3.43,3.94-8.13,5.94-12.57,8.26-2,1.06-4.49,1.23-6.61,2.12s-4.42.39-6.2,1.94c-.09.08-.32,0-.49,0-3.85.33-7.71.8-11.57,1s-7.78.65-11.45-.12c-4.44-.92-9-.89-13.39-2.55-4-1.52-8.39-2.38-12.11-4.5-3.34-1.89-6.78-3.7-8.93-7.51-2-3.54-3.43-6.65-1.56-10.55A4.56,4.56,0,0,0,406.11,303.25Z" transform="translate(-46.09 -282.99)"/><path class="cls-1" d="M303.8,316.75c5,.42,10.15.27,15,1.38,8,1.82,15.88,4.26,22.7,9a15.4,15.4,0,0,1,6.37,9.78,11.62,11.62,0,0,1-3,9.67c-3.47,4.08-8.23,6.28-13,8.4-2,.87-4.13,1.26-6.14,2.06s-4.36.53-6.21,1.89c-.22.16-.64.05-1,.08-3.69.33-7.38.8-11.07,1s-7.43.59-11-.09c-4.75-.92-9.63-.89-14.32-2.72-4.3-1.67-8.74-2.9-12.9-5.07-3.81-2-7-4.5-8.88-8.28-.93-1.88-2.1-4.08-1.4-6.37.63-2.05.94-4.27,2.81-5.84,2.48-2.08,4.5-4.61,7.33-6.4,3.87-2.44,8.15-3.72,12.38-5.1,2.19-.72,4.53-1,6.72-1.87s4.3-.16,6.57-1c2.65-1,5.91-.23,8.91-.23Z" transform="translate(-46.09 -282.99)"/><path class="cls-1" d="M113.94,363.51c3.13-2.59,5.53-5.9,9.06-8.16,3.86-2.48,8.15-3.7,12.31-5.3,2.16-.83,4.59-.95,6.79-1.71s4.9.49,6.93-1.34h17c2,1.58,4.4.65,6.57,1.06a49.62,49.62,0,0,1,6.18,1.94c2.05.67,4.07,1.48,6.17,2,4.19,1,7.71,3.29,11.12,5.68a15,15,0,0,1,5.8,9c.84,3.63-.65,7.22-3.14,10.08-3.5,4-8.29,6.13-13,8.28-3.83,1.73-8,2.31-11.93,3.74a4.1,4.1,0,0,1-.9.23c-3.69.35-7.38.81-11.08,1s-7.75.58-11.46-.1c-4.76-.86-9.63-1-14.31-2.74-4.34-1.59-8.82-2.8-12.86-5.12-4.33-2.49-8-5.37-9.43-10.65-.57-2.14-1.29-3.86.19-5.83C114.21,365.11,113.94,364.24,113.94,363.51Z" transform="translate(-46.09 -282.99)"/><path class="cls-2" d="M405,318.1c2.91,3.73,7,5.54,10.6,7.75,3.33,2,7.38,3.06,11.24,4.08s7.87,2.66,12.13,2.07c2.69,1.71,5.69.86,8.57,1a62.44,62.44,0,0,0,9,0,105.9,105.9,0,0,0,12.14-2,76.16,76.16,0,0,0,11.1-3.31,38,38,0,0,0,7.24-4.18c2.34-1.6,4.5-3.47,6.84-5.29v19.61a53.89,53.89,0,0,1-3.37,5.2c-3.18,3.92-7.87,5.69-12.16,7.95-2,1.06-4.47,1.24-6.6,2.12s-4.4.42-6.19,1.92c-.1.09-.32,0-.49,0-3.85.33-7.7.8-11.56,1s-7.79.67-11.44-.12c-4.58-1-9.31-.85-13.83-2.69-4.26-1.73-8.7-2.94-12.89-5a21.42,21.42,0,0,1-8.9-8.29,9.28,9.28,0,0,1-1.34-4.4C404.91,329.65,405,323.87,405,318.1Z" transform="translate(-46.09 -282.99)"/><path class="cls-2" d="M348,346.86c0,7.49.44,13.81-.17,20-.35,3.63-3.15,6.59-6.12,8.88-4,3.07-14.3,7.18-19.52,8.29a102.79,102.79,0,0,1-12.66,1.87,77.45,77.45,0,0,1-13.45,0c-2.34-.21-4.7-.72-7.07-1a20.42,20.42,0,0,1-6.71-1.8c-2-1-4.45-1.28-6.6-2.12s-4.13-2.08-6.27-2.93a18,18,0,0,1-9-8.15,9.8,9.8,0,0,1-1.39-4.39c-.15-5.77-.06-11.55-.06-18.35,2.95,4.34,6.61,6.37,10.15,8.35a43.08,43.08,0,0,0,11.6,4.48c4,.89,7.88,2.61,12.13,2,6.09,2.18,12.38.46,18.55,1,2.4-1.3,5.12-.52,7.54-1.13s4.81-1.19,7.19-1.87,5-.94,7.11-2.08c4.11-2.22,8.52-4.08,11.85-7.55C345.89,349.56,346.55,348.63,348,346.86Z" transform="translate(-46.09 -282.99)"/><path class="cls-2" d="M113,377.16c3,4.31,6.6,6.35,10.14,8.32A42.62,42.62,0,0,0,134.73,390c4,.88,7.89,2.62,12.14,2,6.08,2.18,12.38.46,18.55,1,2.39-1.3,5.12-.52,7.54-1.13s4.81-1.18,7.19-1.87,5-.94,7.1-2.08c4.12-2.22,8.53-4.07,11.86-7.54.78-.82,1.45-1.73,2.89-3.45,0,7.41.43,13.72-.17,19.93-.35,3.63-3.15,6.58-6.11,8.88-3.94,3.06-14.29,7.19-19.51,8.3a103.07,103.07,0,0,1-12.66,1.87,79.6,79.6,0,0,1-13.46,0c-2.34-.19-4.69-.73-7.07-1a20.07,20.07,0,0,1-6.71-1.8c-2-1-4.45-1.28-6.6-2.12s-4.13-2.07-6.27-2.94a17.86,17.86,0,0,1-9-8.13,9.94,9.94,0,0,1-1.4-4.38C112.91,389.73,113,384,113,377.16Z" transform="translate(-46.09 -282.99)"/></svg>