<svg id="Layer_1" data-name="Layer 1" xmlns="http://www.w3.org/2000/svg" viewBox="0 0 667.89 256.3"><defs><style>.cls-1{fill:#fff;}</style></defs><path d="M21.36,373.18c2.53-4,6.73-6.33,10.71-8.67,3.39-2,7.41-3.08,11.28-4.06s7.94-2.21,12.15-2.17c1.12,0,2.19-1,3.59-1,5,.14,10,.06,15,.06,2.4,2,5.79-.08,8.17,2,2.19-.46,4.42.67,6.7-.81,1.45-.94,3.69-.66,5.51-.94,2.19-.34,4.28-1.24,6.55-1.31a42.27,42.27,0,0,0,6.58-1c3.54-.68,7.19-1.11,10.54-2.33,2.26-.83,4.63-.47,6.86-1.55,1.77-.86,4-.76,6-1.11q2.81-.48,5.59-1c2-.37,3.92-1.11,6.08-1.12,1.74,0,3.45-1.23,5.2-1.8s3.68.76,5.06-1.07c4.85.26,9.29-2.24,14.29-2.06,2.6-4.05,6.77-6.44,10.75-8.77a43,43,0,0,1,11.27-4.09c4-1,8.07-1.6,12.1-2.33a67.61,67.61,0,0,1,9.13-.72c3.16-.15,6.56-.74,9.44.17s5.84-.2,8.23,1.8c2.2-.45,4.42.61,6.72-.75,1.65-1,4-.34,6-1.11,2.47-.93,5.39-.59,8-1.19,5-1.17,10.22-1.82,15.15-3.29,2.26-.68,4.64-.28,6.86-1.54,1.68-.95,4-.78,6-1.13,1.86-.32,3.71-.72,5.58-1,2-.28,4.11-.76,6-1.21q4.79-1.12,9.61-2.09c3.09-.62,6.18-1.27,9.24-1.91a55.07,55.07,0,0,1,5.79-.86c2.63-3.92,6.7-6.43,10.72-8.72,3.43-2,7.43-3,11.24-4.2,4.63-1.51,9.55-1.71,14.28-2.89,3-.74,6.32-.35,9.46-.07s6.27-1.23,9.09.94c2.8-.47,5.4.93,8.09.91a38.47,38.47,0,0,0,9-1.14c3.07-.77,6.13-1.33,9.24-1.85,5.4-.89,10.73-2.21,16.08-3.39,2.13-.47,4.23-1.32,6.37-1.46,3-.2,5.86-1.3,8.82-1.67a48.17,48.17,0,0,0,8.87-1.61c5.08-1.68,10.43-1.84,15.47-3.63,2.8-1,6-.9,9.3-1.33,2.63-3.65,6.53-6.35,10.62-8.57a48.35,48.35,0,0,1,11.24-4.17c4-1,8.15-1.41,12.1-2.3,6.27-1.41,12.44-.32,18.64-.73,1.33-.09,2.7.68,4.08.91s3-.53,4.08,1c2.22-.39,4.53.68,6.72-.7,1.61-1,3.61-.33,5.54-1.11,2.87-1.16,6.29-1,9.16-1.34l81,81v54.92c-5.74.4-11.13,2.93-17,3.2-1.67,2.06-4.24.46-6.34,1.62s-4.58,1-6.91,1.37-4.54.29-6.56,1.08c-5.14,2-10.63,2.7-15.92,3.68-5.57,1-11,2.68-16.7,3.32-3.58.4-7,1.54-10.66,2.07-3.39.51-6.84,1.19-10.15,2a92.8,92.8,0,0,1-13.8,2.83c-1.65,2.09-4.29.28-6.33,1.69-1.59,1.1-3.94.15-6,1.17-1.89.95-4.39.59-6.51,1.18-4.86,1.36-9.84,2-14.75,3.05-5.4,1.14-11,1.64-16.23,3.08S458,436,452.66,437.15c-4.11.93-8.41,1.6-12.59,2.39a73,73,0,0,0-10.89,2.59c-1.93.7-4,.1-6.05,1.1s-4.76.5-7,1.24c-2.06.67-4.44.34-6.2,1.91-4.21-.24-8.13,1.29-12.16,2.07-5.51,1.08-11.14,1.75-16.48,3.62-1.95.68-4.26-.43-6,1.31-5.92,1-12,1.49-17.71,3.14-5.26,1.53-10.65,2.44-15.94,3.63-4.11.92-8.41,1.6-12.59,2.39a73.61,73.61,0,0,0-10.89,2.58c-1.94.69-4,0-6,1.13-1.69.95-4,.8-6,1.12-2.19.35-4.77.08-6.48,1.16-1.9,1.21-4.35-.12-5.78,1.85-4.19-.19-8.13,1.29-12.15,2.08-5.51,1.08-11.15,1.7-16.48,3.63-1.94.71-4,.16-6,1.13s-5.34.18-7.42,1.32c-2.4,1.33-5.26-.21-7.26,1.84-4.38-.31-8.55,1-12.64,2.11-5.76,1.51-11.63,2.55-17.42,3.65s-11.26,3.42-17.22,3.24c-1.47,1.46-3.65.36-5,1.13-1.77,1-3.77.17-5.09,1-1.76,1.11-3.48.52-5.16.91-3.36.79-6.9,1.14-10.06,2.27-2.27.82-4.6.66-6.87,1.45a43.56,43.56,0,0,1-8.75,1.84,47.39,47.39,0,0,0-8.86,1.61c-5.23,1.75-10.76,1.83-15.94,3.69a22.21,22.21,0,0,1-5.57.91c-2,.15-3.61,1.28-5.57,1.22s-3.69.82-5.55,1.15a65.36,65.36,0,0,0-8.7,1.84c-2.68.87-5.68.4-8.18,2-4.26-.6-8,1.72-12.15,2.17a42.13,42.13,0,0,0-8.68,1.84c-2.68.9-5.68.39-8.18,2-4.11-.61-7.67,1.83-11.67,2.09-2.92.19-5.76,1.35-8.68,1.87s-5.88.79-8.7,2c-1.13.47-2.62.08-3.93.08L-45.44,441V387.43c1.54-.68,3.07-1.92,4.64-2,5.94-.13,11.35-3,17.25-3.09,1.68-2.08,4.25-.47,6.35-1.63s4.58-1,6.91-1.37,4.54-.29,6.56-1.08c5.14-2,10.7-2,15.89-3.83C14.83,373.55,17.84,373.63,21.36,373.18Zm17,93.13a55.84,55.84,0,0,0,6.78-1.23,104.22,104.22,0,0,1,10.9-2.54c4.18-.79,8.48-1.47,12.59-2.39C74,459,79.33,457.76,84.61,456.6c5.83-1.27,11.68-2.9,17.71-3.22,1.7-1.73,4-.61,6-1.3,5.33-1.9,11-2.54,16.48-3.63,4-.79,8-2.26,12.15-2.07,1.44-1.94,3.87-.69,5.76-1.85s4.3-.81,6.49-1.16c2-.32,4.34-.17,6-1.12,2-1.15,4.12-.41,6-1.14,5.31-2,11-2.55,16.47-3.65,4-.8,7.95-2.26,12.15-2.08,1.48-1.83,3.86-.84,5.75-1.86s4.31-.8,6.5-1.15c2-.32,4.32-.19,6-1.12,2-1.12,4.13-.41,6.06-1.11a68.85,68.85,0,0,1,10.88-2.6c4.18-.78,8.48-1.46,12.58-2.39,5.29-1.19,10.66-2.4,16-3.53,5.82-1.25,11.66-2.86,17.69-3.31,2.14-.16,4.21-1.08,6.33-1.56,3.66-.83,7.33-1.67,11-2.35,2.67-.48,5.54-.25,8.05-1.12,5.19-1.79,10.63-2.53,15.92-3.67,5.83-1.25,11.66-2.94,17.7-3.23,1.71-1.71,4.1-.43,5.95-1.32,3.45-1.66,7.27-1.9,10.9-2.53,4.2-.72,8.28-2.38,12.64-2.15,1.5-2.11,4-.41,5.89-1.52s4.21-1.07,6.37-1.47c2-.39,4.39-.14,6-1.15,2.21-1.39,4.62-.69,6.89-1.51a28.84,28.84,0,0,1,6.95-1.38c2.7-.24,5.68,0,8-1.12,3.35-1.58,7-1.7,10.38-2.64s7.09-1.34,10.62-2.17c2.76-.66,5.64-.82,8.42-1.44a76.87,76.87,0,0,0,8.24-1.86c2.41-.83,4.94-.35,7.33-1.58,2.14-1.1,5.11-.45,7.46-1.28,1.9-.67,4-.31,5.58-1,3.82-1.61,7.88-1.93,11.82-2.82s8.14-1.19,12.13-2.14c2-.48,4.36-.3,6-1.09,3.35-1.58,7-1.67,10.4-2.61s7.09-1.33,10.62-2.17c2.76-.66,5.63-.84,8.41-1.45s5.4-1.86,8.33-1.59c1.81-2.07,4.52-.54,6.77-1.83,2.05-1.17,5-.57,7.46-1.26,2-.58,4.26-.37,6-1.06,6.64-2.56,13.75-2.8,20.53-4.7,4.48-1.26,9.24-1.5,13.74-3.08,2.2-.77,4.69-.75,7-1.07,2.2-.31,4.26-1.53,6.59-1,1.78-2.14,4.87.09,6.67-2,5.81-.33,11.18-2.75,16.34-3.19l-77.69-77.68-7.59,1.25c0,.32-.07.64-.12,1a17.06,17.06,0,0,0,2.74,1.58c5.6,2,10.34,4.84,13.37,8.69,2.34,3,4.05,6.27,4,10.37-.18,8.16-.09,16.33,0,24.49a15.68,15.68,0,0,1-4.93,12,41.72,41.72,0,0,1-11.43,7.48c-7.58,3.66-15.83,4.77-24,5.92a63.76,63.76,0,0,1-11.48,0c-3.7-.16-7.39-.63-11.08-1a5.08,5.08,0,0,1-.88-.3c-4.87-1.5-9.86-2.53-14.58-4.62-5.05-2.23-9.73-4.9-13.13-9.22a15.18,15.18,0,0,1-3.55-10c.24-7.66,0-15.33.1-23,0-2.51.38-5,.57-7.43l-71.86,14.3c.37.44.64,1.1,1.09,1.26a46.32,46.32,0,0,1,8.36,4,24.64,24.64,0,0,1,8.24,7.82c1.45,2.22,2.54,4.37,2.55,7,.05,9.16.15,18.33-.05,27.49a14.12,14.12,0,0,1-3.91,9.38c-3,3.26-6.72,5.28-10.44,7.45s-8.1,3-12.23,4.29a58.55,58.55,0,0,1-14.89,2.51c-5.65.29-11.44,1-17.09-.78-1.93-.61-4.27.68-6.07-1.05a48.77,48.77,0,0,1-13.37-3.92c-5.27-2.17-10.05-4.94-13.57-9.36A14.79,14.79,0,0,1,310.4,347c.24-6,0-12,.09-18,.08-4.16-.78-8.37,1-12.3-24.2,4.63-48,9.79-72.06,14.18.11,2.25,2.15,2,3.19,2.36a30.82,30.82,0,0,1,13.55,9.41,15.17,15.17,0,0,1,3.4,10.09c-.22,8.32-.08,16.66-.07,25A15,15,0,0,1,255,388.44c-2.92,3.09-6.55,4.94-10.1,7.05-5.61,3.33-12,4.18-18.09,5.79a48,48,0,0,1-10.06,1.06c-3.49.17-7,0-10.5.05s-6.62-1.68-10.08-1c-4.6-2.27-9.82-2.44-14.51-4.84-5.56-2.85-9.64-4.57-12.95-8.47-2.58-3.05-4.38-6.43-4.3-10.73.17-9.49.05-19,.05-28.11l1.31-2.58L93.52,361l-.07.78a17.72,17.72,0,0,0,2.77,1.57c5.46,1.93,10.39,4.9,13.36,8.72,2.33,3,4,6.28,3.93,10.38-.18,8.16-.09,16.32,0,24.49a16,16,0,0,1-4.94,12c-2.77,2.77-6.19,4.38-9.34,6.49-4.12,2.75-8.94,3.58-13.5,4.77a55,55,0,0,1-15.62,2.16c-5.2-.18-10.36.16-15.62-.78a96.11,96.11,0,0,1-13.72-3.18,51.83,51.83,0,0,1-11-4.83,28.74,28.74,0,0,1-7.1-5.63,15.58,15.58,0,0,1-4.19-10.76c.18-7.5,0-15,.08-22.5,0-2.67.38-5.33.59-8.09l-58.31,12.09Zm.14,53.05c1.94-.38,3.49-.64,5-1,2.15-.5,4.51-.56,6.48-1.26,5.21-1.83,10.67-2.41,16-3.55,4.14-.88,8.28-2.35,12.63-2.17,5-2.42,10.6-2.49,15.88-3.85,6.2-1.59,12.71-1.95,18.8-4.15,2.2.69,4-.82,6.08-1,1.88-.2,3.73-.65,5.59-1,2-.35,4.27-.25,6-1.12,2-1,4.15-.41,6.06-1.08,5.67-2,11.59-2.64,17.42-3.81a64,64,0,0,0,6.5-1.24,127,127,0,0,1,15.47-3.51c4.33-.81,8.68-1.87,13.12-2.31a27.35,27.35,0,0,0,6.47-1.23c5.21-1.88,10.68-2.35,16-3.53,4.12-.92,8.27-2.36,12.63-2.17,5.5-2.55,11.57-2.63,17.37-3.85,4.15-.87,8.49-1.43,12.59-2.37,6.1-1.4,12.26-2.51,18.35-3.93,2-.47,4.17-.35,6-1.05a67.17,67.17,0,0,1,10.87-2.62c4.18-.79,8.48-1.46,12.58-2.41,5.29-1.22,10.73-1.83,16-3.57a47.1,47.1,0,0,1,8.86-1.61,71.36,71.36,0,0,0,8.77-1.8c2-.52,4.17-.24,6-1,5.12-2.14,10.66-2.42,16-3.6,4.13-.91,8.48-1.44,12.58-2.38,6.1-1.41,12.27-2.49,18.35-3.94,2-.49,4.15-.34,6-1.05A66.11,66.11,0,0,1,406,443.56c4.19-.77,8.49-1.46,12.58-2.41,5.29-1.22,10.73-1.83,16-3.57a48.27,48.27,0,0,1,8.85-1.62c3-.38,5.78-1.68,8.84-1.58,1.84-2,4.51-.85,6.78-1.71,3.13-1.19,6.7-1.51,10.07-2.25,2.64-.57,5.56-.23,8-1.19,2.06-.81,4.15-.36,6.05-1.06A64,64,0,0,1,494,425.56c4.19-.76,8.48-1.48,12.58-2.41,5.29-1.19,10.71-1.94,15.95-3.58a53.46,53.46,0,0,1,8.85-1.62,68.76,68.76,0,0,0,8.79-1.79c2-.55,4.13-.29,6-1,5.3-2.06,11-2.53,16.46-3.65,4-.81,8-2.27,12.15-2.09,1.51-1.73,4.1-.43,5.67-2,2.35.68,4.32-1,6.58-1.06,2-.07,4.3-.15,6-1.06,2-1.08,4.4-.1,6-1.18,2-1.4,4.33-.17,6.43-1.55,1.68-1.1,4.31-.68,6.47-1.19,2.55-.6,5-1.47,7.32-2.16V349.24c-.57.48-.91,1-1.22,1-4.39-.28-8.46,1.48-12.58,2.38-5.62,1.23-11.37,1.95-16.94,3.59a69.31,69.31,0,0,1-8.27,1.77,78.3,78.3,0,0,0-8.88,1.59c-5.26,1.51-10.73,1.86-16,3.61a47.1,47.1,0,0,1-8.86,1.62,69.19,69.19,0,0,0-8.77,1.8c-2,.53-4.15.27-6,1-5.3,2.09-11,2.32-16.45,3.72a57.81,57.81,0,0,1-8.23,1.75c-4,.4-7.63,2-11.6,2.35a24.9,24.9,0,0,0-6.48,1.22c-1.8.68-3.77-.07-5.08.92-1.58,1.19-3.41.13-4.63.91-1.72,1.09-3.42.68-5.14.92a25.5,25.5,0,0,0-6.45,1.33c-3.52,1.5-7.29,1.85-10.93,2.49-4.2.73-8.27,2.38-12.64,2.16-1.5,2.09-3.95.41-5.89,1.51s-4.21,1.07-6.36,1.47-4.29.24-6,1.13c-2,1.05-4.15.4-6.06,1.1a64.1,64.1,0,0,1-10.87,2.6c-4.19.75-8.48,1.47-12.58,2.41-5.29,1.2-10.71,1.94-16,3.58a54.4,54.4,0,0,1-8.84,1.63,66.73,66.73,0,0,0-8.79,1.78c-2,.56-4.13.29-6,1-5.14,2-10.63,2.7-16,3.54-4.54.72-8.95,2.48-13.64,2.21-1.49,2.13-3.95.38-5.89,1.53s-4.21,1-6.37,1.46-4.3.21-6,1.13c-2,1.08-4.16.35-6.05,1.11-2.51,1-5.18,1.17-7.78,1.72s-5.65.13-8,1.21c-3.35,1.55-7,1.69-10.38,2.62s-7.09,1.33-10.62,2.18c-2.77.65-5.63.85-8.41,1.45s-5.64,1-8.28,1.78c-4.08,1.16-8.26,1.85-12.35,2.61s-8,1.78-12,2.55c-3.58.68-7.28,1.88-10.88,2.45-4.07.63-7.87,2.74-12.12,2.23-1.82,2.06-4.55.43-6.79,1.8-1.87,1.14-4.68.62-7,1.22s-4.94.38-7,1.12c-3.56,1.27-7.38,1.16-10.86,2.73-2,.88-4.35.74-6.54,1.1-2.34.38-5,.28-6.92,1.36s-4.67-.44-6.34,1.64c-5.91.09-11.45,2.27-17.21,3.25-5.29.9-10.65,2.37-15.93,3.51-5.83,1.26-11.67,2.94-17.71,3.24-1.71,1.7-4,.58-6,1.28-5.33,1.93-11,2.55-16.48,3.63-4,.79-8,2.27-12.15,2.09-1.43,2-3.87.62-5.77,1.84-1.71,1.09-4.29.81-6.48,1.16-2,.32-4.08.57-6.08,1-2.72.61-5.41,1.38-8.15,2.1Zm-3.17-49.23L-42.46,392.3v45.32l77.84,77.84ZM460.46,286.74c0,.71.27,1.58,0,2-2.36,3-.66,5.95.54,8.48a16.49,16.49,0,0,0,8.91,8.2c1.71.71,3.17,2,4.88,2.69s3.66.82,5.37,1.5a42.7,42.7,0,0,0,5.74,1.86,28.41,28.41,0,0,0,5.6,1c1.87.07,3.71.82,5.58.9,3.66.15,7.33.18,11,0s7.39-.63,11.08-1c.32,0,.71.05.95-.11,1.88-1.28,4.19-1.09,6.22-1.86s4.18-1.18,6.14-2.06c4.75-2.14,9.57-4.31,13-8.45a12,12,0,0,0,2.93-10.13c-.66-3.33-4-6.83-7.24-9.46s-6.95-4.07-10.71-5.54c-6.17-2.41-12.67-3.49-19.17-4.32-3.12-.39-6.32-.06-9.49-.06-2.16,0-4.72-.73-6.39.17-2.26,1.23-4.48.27-6.58,1.05s-4.53,1.19-6.73,1.88c-4.24,1.32-8.49,2.68-12.37,5.11C466.2,280.74,463.85,283.89,460.46,286.74Zm-146,30c0,.72.28,1.6,0,2-2.43,3-.61,5.94.56,8.47,1.77,3.81,5.11,6.18,8.89,8.23a67,67,0,0,0,29.2,7.82,88.06,88.06,0,0,0,16.59-.71,73.33,73.33,0,0,0,19.69-5.64c3.63-1.61,7.23-3.51,9.67-6.72,2.58-3.38,4.55-6.93,2.55-11.67-1.41-3.35-3.12-6.12-6.1-8.18a50.79,50.79,0,0,0-11.15-5.64,84.41,84.41,0,0,0-19.19-4.27c-3.27-.42-6.65-.07-10-.07-2,0-4.14-.48-6,.09-4.2,1.31-8.64,1.41-12.78,2.89-4.35,1.57-8.8,2.72-12.82,5.25C320,310.85,317.64,314.2,314.46,316.76ZM212.13,330.11l0,.27c-2.83,0-5.9-.69-8.42.19s-4.75.37-7,1.09-5,1.06-7.22,1.88c-4.15,1.54-8.48,2.71-12.28,5.4a42.9,42.9,0,0,0-7.17,6.57,8.67,8.67,0,0,0-1.9,9.14c1.77,5.19,5.23,8.25,9.85,10.8,9.13,5,19,7.18,29.19,7.9,6.54.46,13.06-.23,19.56-1a5.55,5.55,0,0,0,1.43-.18c3.87-1.58,8.06-2.06,11.92-3.77,4.94-2.19,9.85-4.4,13.39-8.6,2.28-2.72,3.74-6.22,2.9-9.67-.92-3.84-3-7.6-6.48-9.67a52.27,52.27,0,0,0-10.77-5.35c-3.94-1.27-7.92-2.75-11.93-3.62C222.26,330.48,217.14,330.53,212.13,330.11ZM22.46,376.72c0,.83.28,1.73-.05,2.12-1.62,1.94-.89,3.7-.28,5.83,1.54,5.32,5.23,8.26,9.83,10.79,9.13,5,19,7.17,29.2,7.89,6.54.47,13.06-.25,19.56-1a5.59,5.59,0,0,0,1.42-.19c3.89-1.5,8.07-2.05,11.92-3.77,4.93-2.19,9.87-4.37,13.38-8.61,2.27-2.73,3.73-6.24,2.88-9.68a16.87,16.87,0,0,0-6.46-9.72c-4.49-3.23-14.11-6.49-19.59-8.21-3.42-1.08-7.11.25-10.22-1.81H57.57c-2.06,1.77-4.67.57-7,1.29s-5,1-7.22,1.88c-4.12,1.64-8.46,2.72-12.29,5.4C27.81,371.27,25.58,374.52,22.46,376.72Zm525.84-76c-2.79,4.08-6.47,6-10,8.11-4.13,2.46-8.86,3.47-13.48,4.83a72.06,72.06,0,0,1-15.35,2.54,82.32,82.32,0,0,1-27.72-2.76,56.4,56.4,0,0,1-11.67-4.32c-3.67-2-7.77-3.91-10.33-7.85-.32,6.07-.4,12-.26,17.93a7.83,7.83,0,0,0,1.31,3.92,22.26,22.26,0,0,0,8.9,8.32c4.21,2,8.61,3.35,12.9,5,4.52,1.78,9.23,1.75,13.81,2.7,3.67.76,7.63.29,11.45.12s7.71-.63,11.56-1c.17,0,.4.07.49,0,1.77-1.55,4.17-1.08,6.19-1.93s4.59-1.06,6.6-2.12c4.28-2.27,9-4,12.17-7.93a53.61,53.61,0,0,0,3.4-5.23ZM402.37,330.53c-3.21,4.58-7.24,6.59-11.1,8.85-5.73,3.35-12.24,4.29-18.5,5.91a50.19,50.19,0,0,1-10,1c-3.48.17-7,0-10.48,0-1,0-2.26.39-2.94-.08-2.29-1.56-4.92-.21-7.07-1s-4.5-1.16-6.72-1.85a69.46,69.46,0,0,1-12.84-5.19,35.71,35.71,0,0,1-9.21-7.43c0,5.84.08,10.8,0,15.76A14.81,14.81,0,0,0,320,359.19a38.65,38.65,0,0,0,10.72,5.38c3.95,1.26,7.9,3.07,11.91,3.6a110.18,110.18,0,0,0,14,1.36,106.52,106.52,0,0,0,16.52-1.34,45.56,45.56,0,0,0,14.53-4.58c2.71-1.45,5.72-2.5,8.16-4.32a15.87,15.87,0,0,0,6.47-9.5Zm-234.91,30c0,6.79-.09,12.57.06,18.35a9.8,9.8,0,0,0,1.39,4.38,17.88,17.88,0,0,0,9,8.14c2.14.85,4.13,2.11,6.27,2.94s4.56,1.09,6.61,2.11a20.21,20.21,0,0,0,6.7,1.81c2.38.28,4.73.81,7.07,1a79.6,79.6,0,0,0,13.46,0,105,105,0,0,0,12.66-1.87c5.24-1.12,15.54-5.22,19.52-8.3,3-2.29,5.76-5.25,6.11-8.88.61-6.21.17-12.52.17-20-1.45,1.76-2.11,2.67-2.89,3.49-3.32,3.47-7.73,5.32-11.85,7.54-2.13,1.15-4.73,1.41-7.11,2.09s-4.8,1.27-7.19,1.87-5.14-.18-7.53,1.13c-6.18-.54-12.47,1.18-18.55-1-4.26.57-8.14-1.15-12.14-2a43,43,0,0,1-11.6-4.48C174.07,366.89,170.41,364.85,167.46,360.53Zm-146,31.12c0,5,.08,9.92,0,14.88C21.33,412,24,416.2,28,419.24c5.45,4.14,12,6.36,18.58,8a81.54,81.54,0,0,0,18.1,2.26c5.59.12,11-1.13,16.55-1.12a2.65,2.65,0,0,0,.92-.19c3.89-1.5,8.07-2.06,11.92-3.76a55.23,55.23,0,0,0,10.94-6.1c2.64-2,4-4.9,5.46-7.74,0-6.38,0-12.79,0-20.12-3.23,4.66-7.29,6.65-11.14,8.92-5.72,3.36-12.24,4.28-18.5,5.91a50,50,0,0,1-10,1c-3.49.17-7,0-10.48,0a8.65,8.65,0,0,1-3-.05c-4.27-1.71-8.91-1.49-13.31-2.76a68.08,68.08,0,0,1-11.67-4.37C28.55,397.3,24.51,395.28,21.46,391.65Z" transform="translate(45.44 -266.23)"/><path class="cls-1" d="M38.41,466.31l-77.64-77.64,58.31-12.09c-.21,2.76-.56,5.42-.59,8.09-.08,7.5.1,15-.08,22.5a15.58,15.58,0,0,0,4.19,10.76,28.74,28.74,0,0,0,7.1,5.63,51.83,51.83,0,0,0,11,4.83,96.11,96.11,0,0,0,13.72,3.18c5.26.94,10.42.6,15.62.78a55,55,0,0,0,15.62-2.16c4.56-1.19,9.38-2,13.5-4.77,3.15-2.11,6.57-3.72,9.34-6.49a16,16,0,0,0,4.94-12c0-8.17-.14-16.33,0-24.49.1-4.1-1.6-7.38-3.93-10.38-3-3.82-7.9-6.79-13.36-8.72a17.72,17.72,0,0,1-2.77-1.57l.07-.78,72.25-14.35-1.31,2.58c0,9.12.12,18.62-.05,28.11-.08,4.3,1.72,7.68,4.3,10.73,3.31,3.9,7.39,5.62,12.95,8.47,4.69,2.4,9.91,2.57,14.51,4.84,3.46-.67,6.68,1.05,10.08,1s7,.12,10.5-.05a48,48,0,0,0,10.06-1.06c6.11-1.61,12.48-2.46,18.09-5.79,3.55-2.11,7.18-4,10.1-7.05a15,15,0,0,0,4.46-10.68c0-8.33-.15-16.67.07-25a15.17,15.17,0,0,0-3.4-10.09,30.82,30.82,0,0,0-13.55-9.41c-1-.39-3.08-.11-3.19-2.36,24-4.39,47.86-9.55,72.06-14.18-1.74,3.93-.88,8.14-1,12.3-.12,6,.15,12-.09,18a14.79,14.79,0,0,0,3.42,10.08c3.52,4.42,8.3,7.19,13.57,9.36a48.77,48.77,0,0,0,13.37,3.92c1.8,1.73,4.14.44,6.07,1.05,5.65,1.8,11.44,1.07,17.09.78a58.55,58.55,0,0,0,14.89-2.51c4.13-1.31,8.4-2.05,12.23-4.29s7.45-4.19,10.44-7.45a14.12,14.12,0,0,0,3.91-9.38c.2-9.16.1-18.33.05-27.49,0-2.59-1.1-4.74-2.55-7a24.64,24.64,0,0,0-8.24-7.82,46.32,46.32,0,0,0-8.36-4c-.45-.16-.72-.82-1.09-1.26l71.86-14.3c-.19,2.42-.55,4.92-.57,7.43-.08,7.66.14,15.33-.1,23a15.18,15.18,0,0,0,3.55,10c3.4,4.32,8.08,7,13.13,9.22,4.72,2.09,9.71,3.12,14.58,4.62a5.08,5.08,0,0,0,.88.3c3.69.34,7.38.81,11.08,1a63.76,63.76,0,0,0,11.48,0c8.19-1.15,16.44-2.26,24-5.92a41.72,41.72,0,0,0,11.43-7.48,15.68,15.68,0,0,0,4.93-12c-.05-8.16-.14-16.33,0-24.49.1-4.1-1.61-7.38-4-10.37-3-3.85-7.77-6.69-13.37-8.69a17.06,17.06,0,0,1-2.74-1.58c0-.37.08-.69.12-1l7.59-1.25,77.69,77.68c-5.16.44-10.53,2.86-16.34,3.19-1.8,2.09-4.89-.14-6.67,2-2.33-.53-4.39.69-6.59,1-2.36.32-4.85.3-7,1.07-4.5,1.58-9.26,1.82-13.74,3.08-6.78,1.9-13.89,2.14-20.53,4.7-1.79.69-4,.48-6,1.06-2.42.69-5.41.09-7.46,1.26-2.25,1.29-5-.24-6.77,1.83-2.93-.27-5.56,1-8.33,1.59s-5.65.79-8.41,1.45c-3.53.84-7.2,1.24-10.62,2.17s-7.05,1-10.4,2.61c-1.66.79-4,.61-6,1.09-4,.95-8.13,1.23-12.13,2.14s-8,1.21-11.82,2.82c-1.63.7-3.68.34-5.58,1-2.35.83-5.32.18-7.46,1.28-2.39,1.23-4.92.75-7.33,1.58a76.87,76.87,0,0,1-8.24,1.86c-2.78.62-5.66.78-8.42,1.44-3.53.83-7.2,1.23-10.62,2.17s-7,1.06-10.38,2.64c-2.34,1.1-5.32.88-8,1.12a28.84,28.84,0,0,0-6.95,1.38c-2.27.82-4.68.12-6.89,1.51-1.6,1-4,.76-6,1.15-2.16.4-4.56.44-6.37,1.47s-4.39-.59-5.89,1.52c-4.36-.23-8.44,1.43-12.64,2.15-3.63.63-7.45.87-10.9,2.53-1.85.89-4.24-.39-5.95,1.32-6,.29-11.87,2-17.7,3.23-5.29,1.14-10.73,1.88-15.92,3.67-2.51.87-5.38.64-8.05,1.12-3.69.68-7.36,1.52-11,2.35-2.12.48-4.19,1.4-6.33,1.56-6,.45-11.87,2.06-17.69,3.31-5.29,1.13-10.66,2.34-16,3.53-4.1.93-8.4,1.61-12.58,2.39a68.85,68.85,0,0,0-10.88,2.6c-1.93.7-4,0-6.06,1.11-1.7.93-4,.8-6,1.12-2.19.35-4.66.16-6.5,1.15s-4.27,0-5.75,1.86c-4.2-.18-8.13,1.28-12.15,2.08-5.51,1.1-11.16,1.63-16.47,3.65-1.92.73-4,0-6,1.14-1.68.95-4,.8-6,1.12-2.19.35-4.74.09-6.49,1.16s-4.32-.09-5.76,1.85c-4.2-.19-8.13,1.28-12.15,2.07-5.52,1.09-11.15,1.73-16.48,3.63-2,.69-4.26-.43-6,1.3-6,.32-11.88,1.95-17.71,3.22C79.33,457.76,74,459,68.68,460.15c-4.11.92-8.41,1.6-12.59,2.39a104.22,104.22,0,0,0-10.9,2.54A55.84,55.84,0,0,1,38.41,466.31Z" transform="translate(45.44 -266.23)"/><path class="cls-1" d="M38.55,519.36V469.5c2.74-.72,5.43-1.49,8.15-2.1,2-.45,4-.7,6.08-1,2.19-.35,4.77-.07,6.48-1.16,1.9-1.22,4.34.13,5.77-1.84,4.2.18,8.13-1.3,12.15-2.09,5.52-1.08,11.15-1.7,16.48-3.63,1.94-.7,4.25.42,6-1.28,6-.3,11.88-2,17.71-3.24,5.28-1.14,10.64-2.61,15.93-3.51,5.76-1,11.3-3.16,17.21-3.25,1.67-2.08,4.25-.47,6.34-1.64s4.58-1,6.92-1.36c2.19-.36,4.59-.22,6.54-1.1,3.48-1.57,7.3-1.46,10.86-2.73,2.09-.74,4.68-.49,7-1.12s5.1-.08,7-1.22c2.24-1.37,5,.26,6.79-1.8,4.25.51,8.05-1.6,12.12-2.23,3.6-.57,7.3-1.77,10.88-2.45,4-.77,8-1.8,12-2.55s8.27-1.45,12.35-2.61c2.64-.76,5.51-1.19,8.28-1.78s5.64-.8,8.41-1.45c3.53-.85,7.19-1.25,10.62-2.18s7-1.07,10.38-2.62c2.35-1.08,5.36-.66,8-1.21s5.27-.69,7.78-1.72c1.89-.76,4,0,6.05-1.11,1.72-.92,4-.76,6-1.13s4.58-.41,6.37-1.46,4.4.6,5.89-1.53c4.69.27,9.1-1.49,13.64-2.21,5.34-.84,10.83-1.52,16-3.54,1.91-.75,4-.48,6-1a66.73,66.73,0,0,1,8.79-1.78,54.4,54.4,0,0,0,8.84-1.63c5.25-1.64,10.67-2.38,16-3.58,4.1-.94,8.39-1.66,12.58-2.41a64.1,64.1,0,0,0,10.87-2.6c1.91-.7,4,0,6.06-1.1,1.74-.89,4-.74,6-1.13s4.55-.44,6.36-1.47,4.39.58,5.89-1.51c4.37.22,8.44-1.43,12.64-2.16,3.64-.64,7.41-1,10.93-2.49a25.5,25.5,0,0,1,6.45-1.33c1.72-.24,3.42.17,5.14-.92,1.22-.78,3.05.28,4.63-.91,1.31-1,3.28-.24,5.08-.92a24.9,24.9,0,0,1,6.48-1.22c4-.31,7.62-1.95,11.6-2.35a57.81,57.81,0,0,0,8.23-1.75c5.45-1.4,11.15-1.63,16.45-3.72,1.89-.75,4-.49,6-1a69.19,69.19,0,0,1,8.77-1.8,47.1,47.1,0,0,0,8.86-1.62c5.23-1.75,10.7-2.1,16-3.61a78.3,78.3,0,0,1,8.88-1.59,69.31,69.31,0,0,0,8.27-1.77c5.57-1.64,11.32-2.36,16.94-3.59,4.12-.9,8.19-2.66,12.58-2.38.31,0,.65-.51,1.22-1v49.94c-2.29.69-4.77,1.56-7.32,2.16-2.16.51-4.79.09-6.47,1.19-2.1,1.38-4.39.15-6.43,1.55-1.59,1.08-4,.1-6,1.18-1.73.91-4,1-6,1.06-2.26.07-4.23,1.74-6.58,1.06-1.57,1.57-4.16.27-5.67,2-4.2-.18-8.14,1.28-12.15,2.09-5.5,1.12-11.16,1.59-16.46,3.65-1.91.75-4,.49-6,1a68.76,68.76,0,0,1-8.79,1.79,53.46,53.46,0,0,0-8.85,1.62c-5.24,1.64-10.66,2.39-15.95,3.58-4.1.93-8.39,1.65-12.58,2.41a64,64,0,0,0-10.88,2.61c-1.9.7-4,.25-6.05,1.06-2.46,1-5.38.62-8,1.19-3.37.74-6.94,1.06-10.07,2.25-2.27.86-4.94-.3-6.78,1.71-3.06-.1-5.87,1.2-8.84,1.58a48.27,48.27,0,0,0-8.85,1.62c-5.23,1.74-10.67,2.35-16,3.57-4.09,1-8.39,1.64-12.58,2.41a66.11,66.11,0,0,0-10.87,2.61c-1.89.71-4,.56-6,1.05-6.08,1.45-12.25,2.53-18.35,3.94-4.1.94-8.45,1.47-12.58,2.38-5.32,1.18-10.86,1.46-16,3.6-1.87.79-4,.51-6,1a71.36,71.36,0,0,1-8.77,1.8,47.1,47.1,0,0,0-8.86,1.61c-5.23,1.74-10.67,2.35-16,3.57-4.1,1-8.4,1.62-12.58,2.41a67.17,67.17,0,0,0-10.87,2.62c-1.87.7-4,.58-6,1.05-6.09,1.42-12.25,2.53-18.35,3.93-4.1.94-8.44,1.5-12.59,2.37-5.8,1.22-11.87,1.3-17.37,3.85-4.36-.19-8.51,1.25-12.63,2.17-5.32,1.18-10.79,1.65-16,3.53a27.35,27.35,0,0,1-6.47,1.23c-4.44.44-8.79,1.5-13.12,2.31A127,127,0,0,0,161,494.13a64,64,0,0,1-6.5,1.24c-5.83,1.17-11.75,1.85-17.42,3.81-1.91.67-4,.08-6.06,1.08-1.76.87-4,.77-6,1.12-1.86.32-3.71.77-5.59,1-2,.21-3.88,1.72-6.08,1-6.09,2.2-12.6,2.56-18.8,4.15-5.28,1.36-10.87,1.43-15.88,3.85-4.35-.18-8.49,1.29-12.63,2.17-5.31,1.14-10.77,1.72-16,3.55-2,.7-4.33.76-6.48,1.26C42,518.72,40.49,519,38.55,519.36Z" transform="translate(45.44 -266.23)"/><path class="cls-1" d="M35.38,470.13v45.33l-77.84-77.84V392.3Z" transform="translate(45.44 -266.23)"/><path class="cls-1" d="M460.46,286.74c3.39-2.85,5.74-6,9.15-8.15,3.88-2.43,8.13-3.79,12.37-5.11,2.2-.69,4.54-1.06,6.73-1.88s4.32.18,6.58-1.05c1.67-.9,4.23-.17,6.39-.17,3.17,0,6.37-.33,9.49.06,6.5.83,13,1.91,19.17,4.32,3.76,1.47,7.47,2.89,10.71,5.54s6.58,6.13,7.24,9.46a12,12,0,0,1-2.93,10.13c-3.38,4.14-8.2,6.31-13,8.45-2,.88-4.12,1.29-6.14,2.06s-4.34.58-6.22,1.86c-.24.16-.63.09-.95.11-3.69.34-7.38.8-11.08,1s-7.32.14-11,0c-1.87-.08-3.71-.83-5.58-.9a28.41,28.41,0,0,1-5.6-1,42.7,42.7,0,0,1-5.74-1.86c-1.71-.68-3.66-.81-5.37-1.5s-3.17-2-4.88-2.69a16.49,16.49,0,0,1-8.91-8.2c-1.2-2.53-2.9-5.47-.54-8.48C460.73,288.32,460.46,287.45,460.46,286.74Z" transform="translate(45.44 -266.23)"/><path class="cls-1" d="M314.46,316.76c3.18-2.56,5.56-5.91,9.13-8.15,4-2.53,8.47-3.68,12.82-5.25,4.14-1.48,8.58-1.58,12.78-2.89,1.82-.57,4-.09,6-.09,3.33,0,6.71-.35,10,.07a84.41,84.41,0,0,1,19.19,4.27,50.79,50.79,0,0,1,11.15,5.64c3,2.06,4.69,4.83,6.1,8.18,2,4.74,0,8.29-2.55,11.67-2.44,3.21-6,5.11-9.67,6.72a73.33,73.33,0,0,1-19.69,5.64,88.06,88.06,0,0,1-16.59.71,67,67,0,0,1-29.2-7.82c-3.78-2-7.12-4.42-8.89-8.23-1.17-2.53-3-5.45-.56-8.47C314.74,318.36,314.46,317.48,314.46,316.76Z" transform="translate(45.44 -266.23)"/><path class="cls-1" d="M212.13,330.11c5,.42,10.13.37,15,1.41,4,.87,8,2.35,11.93,3.62a52.27,52.27,0,0,1,10.77,5.35c3.48,2.07,5.56,5.83,6.48,9.67.84,3.45-.62,6.95-2.9,9.67-3.54,4.2-8.45,6.41-13.39,8.6-3.86,1.71-8.05,2.19-11.92,3.77a5.55,5.55,0,0,1-1.43.18c-6.5.74-13,1.43-19.56,1-10.23-.72-20.06-2.88-29.19-7.9-4.62-2.55-8.08-5.61-9.85-10.8a8.67,8.67,0,0,1,1.9-9.14,42.9,42.9,0,0,1,7.17-6.57c3.8-2.69,8.13-3.86,12.28-5.4,2.24-.82,4.84-1.14,7.22-1.88s4.64-.26,7-1.09,5.59-.19,8.42-.19Z" transform="translate(45.44 -266.23)"/><path class="cls-1" d="M22.46,376.72c3.12-2.2,5.35-5.45,8.65-7.77,3.83-2.68,8.17-3.76,12.29-5.4,2.2-.87,4.84-1.13,7.22-1.88s4.89.48,7-1.29H74.05c3.11,2.06,6.8.73,10.22,1.81,5.48,1.72,15.1,5,19.59,8.21a16.87,16.87,0,0,1,6.46,9.72c.85,3.44-.61,6.95-2.88,9.68-3.51,4.24-8.45,6.42-13.38,8.61-3.85,1.72-8,2.27-11.92,3.77a5.59,5.59,0,0,1-1.42.19c-6.5.73-13,1.45-19.56,1-10.24-.72-20.07-2.87-29.2-7.89-4.6-2.53-8.29-5.47-9.83-10.79-.61-2.13-1.34-3.89.28-5.83C22.74,378.45,22.46,377.55,22.46,376.72Z" transform="translate(45.44 -266.23)"/><path class="cls-1" d="M548.3,300.77v20.38a53.61,53.61,0,0,1-3.4,5.23c-3.19,3.9-7.89,5.66-12.17,7.93-2,1.06-4.48,1.22-6.6,2.12s-4.42.38-6.19,1.93c-.09.09-.32,0-.49,0-3.85.33-7.7.79-11.56,1s-7.78.64-11.45-.12c-4.58-1-9.29-.92-13.81-2.7-4.29-1.68-8.69-3-12.9-5a22.26,22.26,0,0,1-8.9-8.32,7.83,7.83,0,0,1-1.31-3.92c-.14-5.93-.06-11.86.26-17.93,2.56,3.94,6.66,5.87,10.33,7.85a56.4,56.4,0,0,0,11.67,4.32,82.32,82.32,0,0,0,27.72,2.76,72.06,72.06,0,0,0,15.35-2.54c4.62-1.36,9.35-2.37,13.48-4.83C541.83,306.81,545.51,304.85,548.3,300.77Z" transform="translate(45.44 -266.23)"/><path class="cls-1" d="M402.37,330.53v19.26a15.87,15.87,0,0,1-6.47,9.5c-2.44,1.82-5.45,2.87-8.16,4.32a45.56,45.56,0,0,1-14.53,4.58,106.52,106.52,0,0,1-16.52,1.34,110.18,110.18,0,0,1-14-1.36c-4-.53-8-2.34-11.91-3.6A38.65,38.65,0,0,1,320,359.19a14.81,14.81,0,0,1-6.59-12.64c.1-5,0-9.92,0-15.76a35.71,35.71,0,0,0,9.21,7.43,69.46,69.46,0,0,0,12.84,5.19c2.22.69,4.51,1,6.72,1.85s4.78-.52,7.07,1c.68.47,1.95.08,2.94.08,3.5,0,7,.13,10.48,0a50.19,50.19,0,0,0,10-1c6.26-1.62,12.77-2.56,18.5-5.91C395.13,337.12,399.16,335.11,402.37,330.53Z" transform="translate(45.44 -266.23)"/><path class="cls-1" d="M167.46,360.53c2.95,4.32,6.61,6.36,10.14,8.33a43,43,0,0,0,11.6,4.48c4,.89,7.88,2.61,12.14,2,6.08,2.18,12.37.46,18.55,1,2.39-1.31,5.12-.53,7.53-1.13s4.81-1.19,7.19-1.87,5-.94,7.11-2.09c4.12-2.22,8.53-4.07,11.85-7.54.78-.82,1.44-1.73,2.89-3.49,0,7.46.44,13.77-.17,20-.35,3.63-3.15,6.59-6.11,8.88-4,3.08-14.28,7.18-19.52,8.3A105,105,0,0,1,218,399.29a79.6,79.6,0,0,1-13.46,0c-2.34-.19-4.69-.72-7.07-1a20.21,20.21,0,0,1-6.7-1.81c-2.05-1-4.45-1.28-6.61-2.11s-4.13-2.09-6.27-2.94a17.88,17.88,0,0,1-9-8.14,9.8,9.8,0,0,1-1.39-4.38C167.37,373.1,167.46,367.32,167.46,360.53Z" transform="translate(45.44 -266.23)"/><path class="cls-1" d="M21.46,391.65c3.05,3.63,7.09,5.65,10.85,7.55A68.08,68.08,0,0,0,44,403.57c4.4,1.27,9,1.05,13.31,2.76a8.65,8.65,0,0,0,3,.05c3.49,0,7,.13,10.48,0a50,50,0,0,0,10-1c6.26-1.63,12.78-2.55,18.5-5.91,3.85-2.27,7.91-4.26,11.14-8.92.08,7.33,0,13.74,0,20.12-1.48,2.84-2.82,5.77-5.46,7.74a55.23,55.23,0,0,1-10.94,6.1c-3.85,1.7-8,2.26-11.92,3.76a2.65,2.65,0,0,1-.92.19c-5.53,0-11,1.24-16.55,1.12a81.54,81.54,0,0,1-18.1-2.26c-6.54-1.63-13.13-3.85-18.58-8-4-3-6.66-7.25-6.55-12.71C21.54,401.57,21.46,396.61,21.46,391.65Z" transform="translate(45.44 -266.23)"/></svg>