<svg id="Layer_1" data-name="Layer 1" xmlns="http://www.w3.org/2000/svg" viewBox="0 0 667.89 256.3"><defs><style>.cls-1{fill:#009500;}.cls-2{fill:#005000;}.cls-3{fill:#006e00;}</style></defs><path d="M38.9,375.8c2.53-4,6.73-6.33,10.71-8.66,3.39-2,7.41-3.09,11.28-4.06s7.94-2.21,12.15-2.17c1.12,0,2.19-1,3.59-1,5,.13,10,.05,15,.05,2.4,2,5.79-.07,8.17,2,2.19-.45,4.42.67,6.7-.8,1.45-.94,3.69-.67,5.51-.95,2.19-.33,4.28-1.24,6.55-1.31a42.27,42.27,0,0,0,6.58-1c3.54-.68,7.19-1.1,10.54-2.33,2.26-.83,4.63-.47,6.86-1.54,1.77-.86,4-.77,6-1.11,1.87-.32,3.73-.66,5.59-1,2-.37,3.92-1.11,6.08-1.13,1.74,0,3.45-1.23,5.21-1.79s3.67.76,5.05-1.08c4.85.27,9.29-2.24,14.29-2.06,2.6-4,6.77-6.43,10.75-8.77a43.38,43.38,0,0,1,11.27-4.09c4-1,8.07-1.6,12.1-2.32a69.32,69.32,0,0,1,9.14-.73c3.15-.15,6.55-.73,9.43.17s5.84-.2,8.24,1.8c2.19-.44,4.42.61,6.71-.74,1.65-1,3.95-.35,6-1.12,2.47-.93,5.39-.58,8-1.19,5.05-1.16,10.22-1.82,15.15-3.29,2.26-.67,4.64-.28,6.86-1.54,1.68-.95,4-.78,6-1.12,1.86-.32,3.71-.73,5.58-1,2-.28,4.11-.77,6-1.22,3.19-.74,6.39-1.45,9.61-2.09s6.18-1.26,9.24-1.91a57.83,57.83,0,0,1,5.79-.86c2.63-3.92,6.7-6.43,10.72-8.72,3.43-2,7.43-3,11.24-4.19,4.63-1.52,9.55-1.72,14.28-2.89,3-.74,6.32-.36,9.46-.08s6.27-1.22,9.09.94c2.8-.47,5.4.93,8.09.92a38.48,38.48,0,0,0,9-1.15c3.07-.77,6.13-1.33,9.24-1.84,5.4-.89,10.73-2.22,16.08-3.39,2.13-.47,4.23-1.33,6.37-1.47,3-.19,5.86-1.3,8.82-1.67a49,49,0,0,0,8.87-1.6c5.08-1.68,10.43-1.85,15.47-3.63,2.8-1,6-.9,9.3-1.34,2.63-3.64,6.53-6.34,10.62-8.56a47.93,47.93,0,0,1,11.24-4.18c4-1,8.15-1.4,12.1-2.3,6.27-1.41,12.44-.32,18.64-.73,1.33-.09,2.7.68,4.08.92s3-.53,4.08,1c2.22-.39,4.53.69,6.72-.7,1.61-1,3.61-.33,5.54-1.1,2.87-1.16,6.29-1,9.16-1.34l81,81V404.8c-5.74.41-11.13,2.94-17,3.2-1.67,2.07-4.24.47-6.34,1.63s-4.58,1-6.91,1.36-4.54.29-6.56,1.09c-5.14,2-10.62,2.69-15.92,3.67-5.57,1-11,2.69-16.7,3.33-3.58.4-7,1.53-10.66,2.07-3.39.5-6.84,1.19-10.15,2A92.8,92.8,0,0,1,536,426c-1.65,2.1-4.29.28-6.33,1.69-1.59,1.1-3.94.15-6,1.18-1.89.95-4.39.58-6.51,1.17-4.86,1.36-9.84,2-14.75,3-5.4,1.14-11,1.64-16.23,3.08s-10.65,2.42-15.94,3.61c-4.11.92-8.41,1.59-12.59,2.39a71.78,71.78,0,0,0-10.89,2.59c-1.92.69-4,.1-6.05,1.1s-4.76.5-7,1.23c-2.06.67-4.44.34-6.2,1.91-4.2-.23-8.13,1.29-12.16,2.08-5.51,1.07-11.14,1.75-16.48,3.62-1.95.68-4.26-.43-6,1.3-5.92,1-12,1.49-17.71,3.15-5.26,1.52-10.65,2.44-15.94,3.63-4.11.92-8.41,1.6-12.59,2.38a72.7,72.7,0,0,0-10.89,2.59c-1.94.68-4,0-6.05,1.12-1.69.95-4,.81-6,1.13-2.19.34-4.77.07-6.48,1.16-1.9,1.2-4.35-.13-5.78,1.84-4.19-.19-8.13,1.29-12.15,2.08-5.51,1.09-11.15,1.7-16.48,3.64-1.93.7-4,.16-6,1.12s-5.34.18-7.42,1.33c-2.4,1.32-5.26-.22-7.26,1.83-4.38-.3-8.55,1.05-12.64,2.12-5.76,1.5-11.63,2.54-17.42,3.64s-11.26,3.43-17.22,3.24c-1.47,1.47-3.65.36-5,1.14-1.77,1-3.77.17-5.09,1-1.76,1.11-3.48.51-5.15.9-3.37.79-6.91,1.14-10.07,2.28-2.27.82-4.6.65-6.87,1.45a44.31,44.31,0,0,1-8.74,1.84,47.35,47.35,0,0,0-8.87,1.6c-5.23,1.75-10.76,1.84-15.94,3.7a22.2,22.2,0,0,1-5.57.9c-2,.15-3.61,1.28-5.57,1.22s-3.69.82-5.55,1.15a65.39,65.39,0,0,0-8.7,1.85c-2.68.86-5.68.4-8.18,2-4.26-.6-8,1.73-12.15,2.17A42.16,42.16,0,0,0,94.66,517c-2.68.89-5.68.38-8.18,2-4.11-.6-7.67,1.83-11.67,2.09-2.92.19-5.76,1.36-8.68,1.88s-5.88.78-8.7,1.95c-1.13.47-2.62.08-3.93.08l-81.4-81.4V390.06c1.54-.69,3.07-1.93,4.64-2,5.94-.13,11.35-3,17.26-3.1,1.67-2.07,4.24-.47,6.34-1.62s4.58-1,6.91-1.37,4.54-.29,6.56-1.08c5.14-2,10.7-2,15.9-3.83C32.37,376.17,35.38,376.26,38.9,375.8ZM56,468.93a57.4,57.4,0,0,0,6.78-1.22,106.87,106.87,0,0,1,10.9-2.55c4.18-.78,8.48-1.46,12.59-2.38,5.29-1.19,10.65-2.4,15.93-3.55,5.83-1.28,11.68-2.91,17.71-3.23,1.7-1.72,4-.6,6-1.3,5.33-1.9,11-2.54,16.48-3.62,4-.8,7.95-2.27,12.15-2.08,1.44-1.93,3.87-.69,5.76-1.84s4.3-.82,6.49-1.16c2-.32,4.34-.18,6-1.13,2-1.15,4.12-.41,6-1.14,5.31-2,11-2.54,16.47-3.64,4-.8,8-2.27,12.15-2.09,1.48-1.82,3.86-.84,5.75-1.86s4.31-.8,6.5-1.14c2-.32,4.32-.19,6-1.12,2-1.12,4.13-.42,6.06-1.11a67.77,67.77,0,0,1,10.88-2.6c4.18-.78,8.48-1.46,12.58-2.39,5.29-1.2,10.66-2.4,16-3.54,5.82-1.25,11.66-2.85,17.69-3.3,2.14-.16,4.21-1.08,6.33-1.57,3.66-.83,7.33-1.67,11-2.34,2.67-.48,5.54-.25,8-1.12,5.19-1.8,10.63-2.54,15.92-3.67,5.83-1.25,11.66-2.95,17.7-3.24,1.71-1.71,4.1-.42,5.95-1.32,3.45-1.66,7.27-1.89,10.9-2.52,4.2-.73,8.28-2.38,12.64-2.16,1.5-2.1,3.95-.41,5.89-1.51s4.21-1.07,6.37-1.48,4.39-.13,6-1.14c2.22-1.4,4.62-.69,6.89-1.52a28.84,28.84,0,0,1,7-1.37c2.7-.24,5.68,0,8-1.13,3.35-1.58,7-1.69,10.38-2.63s7.09-1.34,10.62-2.18c2.76-.66,5.64-.82,8.42-1.43a79.37,79.37,0,0,0,8.24-1.86c2.42-.83,4.94-.36,7.33-1.59,2.14-1.1,5.11-.45,7.46-1.28,1.9-.67,3.95-.31,5.58-1,3.82-1.62,7.88-1.93,11.82-2.83s8.14-1.18,12.13-2.13c2-.49,4.36-.31,6-1.1,3.35-1.58,7-1.67,10.4-2.6s7.09-1.34,10.62-2.18c2.76-.66,5.64-.84,8.41-1.44s5.4-1.86,8.33-1.6c1.81-2.07,4.53-.53,6.78-1.82,2-1.18,5-.57,7.45-1.26,2-.58,4.26-.38,6.05-1.07,6.64-2.55,13.75-2.8,20.53-4.7,4.48-1.25,9.24-1.5,13.74-3.07,2.2-.78,4.69-.75,7-1.08,2.2-.3,4.26-1.53,6.59-1,1.78-2.14,4.87.1,6.67-2,5.81-.32,11.18-2.74,16.34-3.18L556.7,272.13l-7.59,1.26c0,.32-.07.63-.12,1a17.06,17.06,0,0,0,2.74,1.58c5.6,2,10.34,4.85,13.37,8.7,2.35,3,4,6.26,4,10.37-.19,8.16-.1,16.32,0,24.49a15.72,15.72,0,0,1-4.94,12A41.53,41.53,0,0,1,552.65,339c-7.58,3.66-15.83,4.77-24,5.92a62.86,62.86,0,0,1-11.48,0c-3.7-.16-7.39-.62-11.08-1a5,5,0,0,1-.88-.29c-4.87-1.51-9.86-2.54-14.58-4.62-5.05-2.23-9.73-4.91-13.12-9.23a15.11,15.11,0,0,1-3.56-10c.24-7.65,0-15.32.1-23,0-2.5.38-5,.57-7.42L402.74,303.7c.37.45.64,1.11,1.09,1.26a46.37,46.37,0,0,1,8.36,4,24.64,24.64,0,0,1,8.24,7.82c1.45,2.22,2.54,4.37,2.55,6.95,0,9.17.15,18.33-.05,27.5a14.07,14.07,0,0,1-3.91,9.37c-3,3.27-6.72,5.28-10.44,7.45s-8.1,3-12.23,4.3a58.55,58.55,0,0,1-14.89,2.51c-5.65.28-11.44,1-17.09-.79-1.93-.61-4.27.68-6.07-1.05a48.75,48.75,0,0,1-13.37-3.91c-5.27-2.17-10.05-4.94-13.57-9.36a14.82,14.82,0,0,1-3.42-10.08c.24-6,0-12,.09-18,.08-4.15-.78-8.37,1-12.29-24.2,4.63-48,9.79-72.06,14.18.11,2.24,2.15,2,3.19,2.35a31,31,0,0,1,13.55,9.41,15.19,15.19,0,0,1,3.4,10.09c-.22,8.33-.07,16.66-.07,25a14.9,14.9,0,0,1-4.46,10.67c-2.92,3.1-6.55,4.95-10.1,7.06-5.61,3.32-12,4.17-18.09,5.79a48.72,48.72,0,0,1-10.06,1c-3.49.17-7,0-10.5.05s-6.62-1.67-10.08-1c-4.6-2.26-9.82-2.44-14.51-4.84-5.56-2.84-9.63-4.56-12.95-8.47-2.58-3.05-4.38-6.42-4.3-10.72.17-9.49.05-19,.05-28.11l1.31-2.58-72.25,14.35-.07.77a17.72,17.72,0,0,0,2.77,1.57c5.46,1.94,10.39,4.9,13.36,8.73,2.33,3,4,6.27,3.93,10.37-.18,8.16-.09,16.33,0,24.49a15.91,15.91,0,0,1-4.94,12c-2.77,2.78-6.19,4.38-9.34,6.49-4.12,2.75-8.94,3.59-13.5,4.78A55,55,0,0,1,87.61,435c-5.2-.17-10.36.16-15.61-.77A97.3,97.3,0,0,1,58.27,431a52.34,52.34,0,0,1-11-4.83,28.77,28.77,0,0,1-7.1-5.64A15.56,15.56,0,0,1,36,409.79c.18-7.49,0-15,.08-22.49,0-2.67.38-5.34.59-8.09l-58.31,12.08ZM56.09,522c1.94-.38,3.49-.64,5-1,2.16-.5,4.51-.57,6.48-1.26,5.21-1.84,10.67-2.42,16-3.55,4.14-.89,8.28-2.36,12.63-2.18,5-2.42,10.61-2.49,15.88-3.85,6.2-1.59,12.71-1.95,18.8-4.15,2.2.7,4-.81,6.08-1,1.88-.19,3.73-.65,5.59-1,2-.34,4.27-.24,6-1.11,2-1,4.15-.42,6.06-1.08,5.67-2,11.59-2.65,17.42-3.82a64,64,0,0,0,6.5-1.23A129.34,129.34,0,0,1,194,493.24c4.33-.8,8.68-1.86,13.12-2.31a27.35,27.35,0,0,0,6.47-1.22c5.21-1.89,10.68-2.36,16-3.54,4.12-.92,8.27-2.36,12.63-2.17,5.5-2.54,11.58-2.63,17.37-3.84,4.15-.88,8.49-1.44,12.59-2.38,6.1-1.4,12.26-2.51,18.35-3.92,2-.48,4.17-.36,6-1.05a66.38,66.38,0,0,1,10.87-2.62c4.18-.79,8.48-1.47,12.58-2.42,5.29-1.22,10.73-1.82,16-3.57a47.24,47.24,0,0,1,8.86-1.6,71.39,71.39,0,0,0,8.77-1.81c2-.52,4.17-.24,6-1,5.12-2.14,10.66-2.43,16-3.6,4.13-.92,8.48-1.44,12.58-2.39,6.1-1.41,12.27-2.48,18.35-3.93,2-.49,4.15-.35,6-1.05a64.14,64.14,0,0,1,10.87-2.61c4.19-.78,8.49-1.47,12.58-2.41,5.29-1.23,10.73-1.84,16-3.58a48.22,48.22,0,0,1,8.86-1.61c3-.39,5.77-1.68,8.83-1.59,1.84-2,4.51-.85,6.78-1.71,3.13-1.18,6.7-1.51,10.07-2.24,2.64-.58,5.57-.24,8-1.2,2.06-.8,4.15-.36,6.05-1.06a65.22,65.22,0,0,1,10.88-2.61c4.19-.75,8.48-1.47,12.58-2.4,5.29-1.2,10.71-1.95,15.95-3.59a54.51,54.51,0,0,1,8.85-1.61,70.53,70.53,0,0,0,8.79-1.79c2-.56,4.13-.3,6-1,5.3-2.07,11-2.54,16.46-3.65,4-.82,7.95-2.27,12.15-2.1,1.51-1.73,4.1-.42,5.67-2,2.35.69,4.32-1,6.58-1.06,2-.06,4.3-.15,6-1.06,2-1.07,4.4-.09,6-1.18,2-1.39,4.33-.17,6.43-1.54,1.68-1.11,4.32-.69,6.47-1.2,2.55-.6,5-1.47,7.32-2.15V351.86c-.57.48-.91,1-1.22,1-4.39-.29-8.46,1.48-12.58,2.38-5.62,1.23-11.37,1.94-16.94,3.59a67.38,67.38,0,0,1-8.27,1.76,80.58,80.58,0,0,0-8.88,1.6c-5.26,1.5-10.73,1.86-16,3.61a48,48,0,0,1-8.85,1.61,70.76,70.76,0,0,0-8.78,1.8c-2,.53-4.15.28-6,1-5.3,2.1-11,2.33-16.45,3.73a56.42,56.42,0,0,1-8.23,1.74c-4,.4-7.63,2-11.59,2.35a25.32,25.32,0,0,0-6.49,1.23c-1.8.67-3.77-.07-5.08.91-1.58,1.2-3.41.14-4.63.91-1.72,1.09-3.42.69-5.14.93a25.49,25.49,0,0,0-6.45,1.32c-3.52,1.5-7.29,1.86-10.93,2.49-4.2.73-8.27,2.38-12.64,2.16-1.5,2.1-3.95.41-5.89,1.51s-4.21,1.07-6.36,1.48-4.29.23-6,1.13c-2,1-4.15.39-6,1.09a64.25,64.25,0,0,1-10.88,2.61c-4.19.75-8.48,1.47-12.58,2.4-5.29,1.2-10.71,1.94-15.95,3.59a53.46,53.46,0,0,1-8.85,1.62,65.16,65.16,0,0,0-8.79,1.79c-2,.55-4.13.29-6,1-5.14,2-10.63,2.7-16,3.54-4.54.71-9,2.47-13.64,2.2-1.49,2.14-3.95.38-5.89,1.53-1.79,1.06-4.21,1.06-6.37,1.46s-4.3.21-6,1.13c-2,1.08-4.16.35-6.05,1.12-2.51,1-5.18,1.17-7.78,1.71s-5.64.13-8,1.21c-3.36,1.55-7,1.69-10.39,2.62s-7.09,1.34-10.62,2.18c-2.76.66-5.63.85-8.41,1.45s-5.64,1-8.28,1.78c-4.08,1.16-8.26,1.86-12.35,2.62s-8,1.78-12,2.54c-3.58.68-7.28,1.89-10.88,2.45-4.07.64-7.87,2.74-12.12,2.24-1.82,2.06-4.55.43-6.79,1.79-1.87,1.14-4.68.62-7,1.23s-5,.38-7,1.12c-3.56,1.27-7.38,1.15-10.86,2.72-1.95.88-4.35.75-6.54,1.11-2.34.38-5,.27-6.92,1.36s-4.67-.44-6.34,1.63c-5.91.1-11.45,2.28-17.21,3.26-5.29.9-10.65,2.37-15.93,3.51C129,457,123.2,458.7,117.16,459c-1.71,1.71-4,.58-6,1.29-5.33,1.93-11,2.55-16.48,3.63-4,.79-8,2.27-12.15,2.08-1.43,2-3.87.63-5.77,1.84-1.71,1.09-4.29.82-6.48,1.16-2,.32-4.08.57-6.08,1-2.72.61-5.4,1.39-8.15,2.1Zm-3.17-49.22-77.84-77.84v45.33l77.84,77.83ZM478,289.37c0,.71.27,1.58,0,2-2.36,3-.66,5.95.54,8.48a16.54,16.54,0,0,0,8.91,8.21c1.71.7,3.17,2,4.88,2.68s3.66.82,5.37,1.51a41.28,41.28,0,0,0,5.74,1.85,28.42,28.42,0,0,0,5.6,1c1.87.07,3.71.82,5.58.9,3.66.15,7.33.17,11,0s7.39-.63,11.08-1c.32,0,.71,0,1-.12,1.88-1.27,4.19-1.09,6.22-1.86S548,311.85,550,311c4.75-2.13,9.57-4.3,13-8.44,2.35-2.88,3.69-6.34,2.92-10.13-.66-3.33-4-6.83-7.24-9.46s-7-4.08-10.71-5.55c-6.17-2.41-12.67-3.48-19.17-4.31-3.12-.4-6.32-.07-9.49-.07-2.16,0-4.72-.73-6.39.18-2.26,1.23-4.48.26-6.58,1.05s-4.53,1.19-6.73,1.87c-4.24,1.33-8.49,2.68-12.37,5.12C483.74,283.37,481.39,286.52,478,289.37Zm-146,30c0,.71.28,1.59,0,2-2.43,3-.61,5.95.56,8.48,1.77,3.8,5.11,6.18,8.89,8.22a67,67,0,0,0,29.2,7.83,88.06,88.06,0,0,0,16.59-.71,73.7,73.7,0,0,0,19.69-5.64c3.63-1.61,7.23-3.52,9.67-6.72,2.58-3.38,4.55-6.94,2.55-11.68C417.7,317.82,416,315,413,313a50.61,50.61,0,0,0-11.15-5.65,84.41,84.41,0,0,0-19.19-4.27c-3.27-.41-6.65-.07-10-.07-2,0-4.14-.47-6,.1-4.2,1.31-8.64,1.4-12.78,2.89-4.35,1.56-8.8,2.72-12.82,5.25C337.56,313.48,335.18,316.83,332,319.39ZM229.67,332.73l0,.27c-2.83,0-5.9-.68-8.42.2s-4.75.37-7,1.08-5,1.06-7.22,1.89c-4.15,1.54-8.48,2.7-12.28,5.4a42.07,42.07,0,0,0-7.17,6.57,8.66,8.66,0,0,0-1.89,9.14c1.76,5.19,5.22,8.25,9.84,10.79,9.13,5,19,7.18,29.19,7.91,6.54.46,13.06-.24,19.56-1a5.55,5.55,0,0,0,1.43-.17c3.87-1.58,8.06-2.07,11.92-3.78,4.94-2.18,9.85-4.39,13.39-8.6,2.28-2.71,3.74-6.21,2.9-9.67-.92-3.84-3-7.6-6.47-9.66a52.1,52.1,0,0,0-10.78-5.35c-3.94-1.27-7.92-2.76-11.93-3.62C239.8,333.1,234.68,333.16,229.67,332.73ZM40,379.35c0,.82.28,1.72,0,2.11-1.62,2-.89,3.7-.28,5.83,1.54,5.32,5.23,8.27,9.83,10.8,9.13,5,19,7.16,29.2,7.89,6.54.46,13.06-.26,19.56-1a5.6,5.6,0,0,0,1.42-.2c3.89-1.49,8.07-2.05,11.92-3.76,4.93-2.19,9.87-4.38,13.38-8.61,2.27-2.73,3.73-6.24,2.88-9.69A16.9,16.9,0,0,0,121.4,373c-4.49-3.23-14.11-6.48-19.59-8.21-3.42-1.07-7.1.26-10.22-1.81H75.11c-2.06,1.78-4.67.58-7,1.3s-5,1-7.22,1.88c-4.12,1.63-8.46,2.71-12.29,5.4C45.35,373.9,43.13,377.15,40,379.35Zm525.84-76c-2.79,4.07-6.47,6-10,8.11-4.13,2.45-8.86,3.46-13.48,4.82A71.36,71.36,0,0,1,527,318.88a82.09,82.09,0,0,1-27.72-2.77,55.27,55.27,0,0,1-11.67-4.32c-3.67-2-7.77-3.91-10.33-7.85-.32,6.07-.4,12-.26,17.94a7.83,7.83,0,0,0,1.31,3.91,22.26,22.26,0,0,0,8.9,8.32c4.21,2,8.61,3.35,12.9,5,4.52,1.77,9.23,1.74,13.81,2.7,3.67.76,7.63.28,11.45.11s7.71-.63,11.56-1c.17,0,.4.07.49,0,1.77-1.56,4.17-1.08,6.19-1.94s4.59-1.06,6.6-2.12c4.28-2.26,9-4,12.17-7.93a53.52,53.52,0,0,0,3.4-5.22ZM419.91,333.16c-3.21,4.58-7.24,6.59-11.1,8.85-5.73,3.35-12.24,4.28-18.5,5.9a49.39,49.39,0,0,1-10.05,1c-3.48.17-7,0-10.48,0-1,0-2.26.39-2.94-.07-2.29-1.56-4.92-.21-7.07-1.05s-4.5-1.16-6.72-1.85a68.37,68.37,0,0,1-12.83-5.18,36,36,0,0,1-9.22-7.43c0,5.83.08,10.79,0,15.76a14.83,14.83,0,0,0,6.59,12.64,38.62,38.62,0,0,0,10.72,5.37c3.95,1.27,7.91,3.07,11.91,3.6a110.18,110.18,0,0,0,14,1.36,105.3,105.3,0,0,0,16.52-1.34,45.54,45.54,0,0,0,14.53-4.57c2.72-1.46,5.72-2.5,8.16-4.32a15.87,15.87,0,0,0,6.47-9.5ZM185,363.15c0,6.79-.09,12.58.06,18.35a9.76,9.76,0,0,0,1.39,4.38,17.94,17.94,0,0,0,9,8.15c2.15.85,4.13,2.1,6.27,2.93s4.56,1.1,6.61,2.12a20.42,20.42,0,0,0,6.71,1.8c2.37.28,4.72.81,7.06,1a78.57,78.57,0,0,0,13.46,0A103.07,103.07,0,0,0,248.2,400c5.24-1.11,15.54-5.22,19.52-8.3,3-2.29,5.76-5.24,6.11-8.87.61-6.21.17-12.52.17-20-1.44,1.75-2.11,2.67-2.89,3.48-3.32,3.47-7.73,5.33-11.85,7.55-2.12,1.14-4.73,1.4-7.11,2.08s-4.8,1.27-7.19,1.87-5.14-.18-7.53,1.13c-6.17-.54-12.47,1.18-18.55-1-4.25.58-8.14-1.15-12.14-2a43,43,0,0,1-11.6-4.47C191.61,369.51,188,367.48,185,363.15ZM39,394.28c0,5,.08,9.92,0,14.88-.11,5.45,2.55,9.66,6.55,12.7,5.45,4.15,12,6.36,18.58,8a82.14,82.14,0,0,0,18.1,2.26c5.59.12,11-1.13,16.55-1.13a2.6,2.6,0,0,0,.92-.18c3.89-1.51,8.07-2.06,11.92-3.76a55.27,55.27,0,0,0,10.94-6.11c2.64-2,4-4.9,5.47-7.74,0-6.38,0-12.79,0-20.12-3.23,4.67-7.29,6.66-11.14,8.92-5.72,3.37-12.24,4.29-18.5,5.91a49.3,49.3,0,0,1-10,1c-3.49.17-7,0-10.48,0a8.65,8.65,0,0,1-3-.05c-4.27-1.7-8.91-1.48-13.31-2.75a67.28,67.28,0,0,1-11.67-4.38C46.09,399.92,42.05,397.9,39,394.28Z" transform="translate(27.9 -268.86)"/><path class="cls-1" d="M56,468.93l-77.64-77.64,58.31-12.08c-.21,2.75-.56,5.42-.59,8.09-.08,7.49.1,15-.08,22.49a15.56,15.56,0,0,0,4.19,10.76,28.77,28.77,0,0,0,7.1,5.64,52.34,52.34,0,0,0,11,4.83A97.3,97.3,0,0,0,72,434.2c5.25.93,10.41.6,15.61.77a55,55,0,0,0,15.62-2.15c4.56-1.19,9.38-2,13.5-4.78,3.15-2.11,6.57-3.71,9.34-6.49a15.91,15.91,0,0,0,4.94-12c0-8.16-.14-16.33,0-24.49.1-4.1-1.6-7.38-3.93-10.37-3-3.83-7.9-6.79-13.36-8.73A17.72,17.72,0,0,1,111,364.4l.07-.77,72.25-14.35L182,351.86c0,9.12.12,18.62-.05,28.11-.08,4.3,1.72,7.67,4.3,10.72,3.32,3.91,7.39,5.63,12.95,8.47,4.69,2.4,9.91,2.58,14.51,4.84,3.46-.66,6.68,1.05,10.08,1s7,.12,10.5-.05a48.72,48.72,0,0,0,10.06-1c6.11-1.62,12.48-2.47,18.09-5.79,3.55-2.11,7.18-4,10.1-7.06A14.9,14.9,0,0,0,277,380.39c0-8.34-.15-16.67.07-25a15.19,15.19,0,0,0-3.4-10.09,31,31,0,0,0-13.55-9.41c-1-.39-3.08-.11-3.19-2.35,24-4.39,47.86-9.55,72.06-14.18-1.74,3.92-.88,8.14-1,12.29-.12,6,.15,12-.09,18a14.82,14.82,0,0,0,3.42,10.08c3.52,4.42,8.3,7.19,13.57,9.36A48.75,48.75,0,0,0,358.3,373c1.8,1.73,4.14.44,6.07,1.05,5.65,1.8,11.44,1.07,17.09.79a58.55,58.55,0,0,0,14.89-2.51c4.13-1.32,8.4-2.06,12.23-4.3s7.45-4.18,10.44-7.45a14.07,14.07,0,0,0,3.91-9.37c.2-9.17.1-18.33.05-27.5,0-2.58-1.1-4.73-2.55-6.95a24.64,24.64,0,0,0-8.24-7.82,46.37,46.37,0,0,0-8.36-4c-.45-.15-.72-.81-1.09-1.26l71.86-14.29c-.19,2.41-.55,4.92-.57,7.42-.08,7.67.14,15.34-.1,23a15.11,15.11,0,0,0,3.56,10c3.39,4.32,8.07,7,13.12,9.23,4.72,2.08,9.71,3.11,14.58,4.62a5,5,0,0,0,.88.29c3.69.35,7.38.81,11.08,1a62.86,62.86,0,0,0,11.48,0c8.19-1.15,16.44-2.26,24-5.92a41.53,41.53,0,0,0,11.43-7.47,15.72,15.72,0,0,0,4.94-12c-.06-8.17-.15-16.33,0-24.49.09-4.11-1.61-7.38-4-10.37-3-3.85-7.77-6.69-13.37-8.7a17.06,17.06,0,0,1-2.74-1.58c0-.37.08-.68.12-1l7.59-1.26,77.69,77.69c-5.16.44-10.53,2.86-16.34,3.18-1.8,2.1-4.89-.14-6.67,2-2.33-.53-4.39.7-6.59,1-2.36.33-4.85.3-7,1.08-4.5,1.57-9.26,1.82-13.74,3.07-6.78,1.9-13.89,2.15-20.53,4.7-1.79.69-4,.49-6.05,1.07-2.42.69-5.41.08-7.45,1.26-2.25,1.29-5-.25-6.78,1.82-2.93-.26-5.56,1-8.33,1.6s-5.65.78-8.41,1.44c-3.53.84-7.2,1.24-10.62,2.18s-7.05,1-10.4,2.6c-1.66.79-4,.61-6,1.1-4,.95-8.13,1.22-12.13,2.13s-8,1.21-11.82,2.83c-1.63.69-3.68.33-5.58,1-2.35.83-5.32.18-7.46,1.28-2.39,1.23-4.91.76-7.33,1.59a79.37,79.37,0,0,1-8.24,1.86c-2.78.61-5.66.77-8.42,1.43-3.53.84-7.2,1.24-10.62,2.18s-7,1-10.38,2.63c-2.34,1.1-5.32.89-8,1.13a28.84,28.84,0,0,0-7,1.37c-2.27.83-4.67.12-6.89,1.52-1.6,1-4,.76-6,1.14s-4.56.44-6.37,1.48-4.39-.59-5.89,1.51c-4.36-.22-8.44,1.43-12.64,2.16-3.63.63-7.45.86-10.9,2.52-1.85.9-4.24-.39-5.95,1.32-6,.29-11.87,2-17.7,3.24-5.29,1.13-10.73,1.87-15.92,3.67-2.51.87-5.38.64-8,1.12-3.69.67-7.36,1.51-11,2.34-2.12.49-4.19,1.41-6.33,1.57-6,.45-11.87,2.05-17.69,3.3-5.29,1.14-10.66,2.34-16,3.54-4.1.93-8.4,1.61-12.58,2.39a67.77,67.77,0,0,0-10.88,2.6c-1.93.69-4,0-6.06,1.11-1.7.93-4,.8-6,1.12-2.19.34-4.66.15-6.5,1.14s-4.27,0-5.75,1.86c-4.2-.18-8.13,1.29-12.15,2.09-5.51,1.1-11.16,1.63-16.47,3.64-1.92.73-4,0-6,1.14-1.68.95-4,.81-6,1.13-2.19.34-4.74.09-6.49,1.16s-4.32-.09-5.76,1.84c-4.2-.19-8.13,1.28-12.15,2.08-5.52,1.08-11.15,1.72-16.48,3.62-1.94.7-4.26-.42-6,1.3-6,.32-11.88,1.95-17.71,3.23-5.28,1.15-10.64,2.36-15.93,3.55-4.11.92-8.41,1.6-12.59,2.38a106.87,106.87,0,0,0-10.9,2.55A57.4,57.4,0,0,1,56,468.93Z" transform="translate(27.9 -268.86)"/><path class="cls-2" d="M56.09,522V472.12c2.75-.71,5.43-1.49,8.15-2.1,2-.45,4.05-.7,6.08-1,2.19-.34,4.77-.07,6.48-1.16,1.9-1.21,4.34.13,5.77-1.84,4.2.19,8.13-1.29,12.15-2.08,5.52-1.08,11.15-1.7,16.48-3.63,1.94-.71,4.25.42,6-1.29,6-.3,11.88-2,17.71-3.23,5.28-1.14,10.64-2.61,15.93-3.51,5.76-1,11.3-3.16,17.21-3.26,1.67-2.07,4.25-.46,6.34-1.63s4.58-1,6.92-1.36c2.19-.36,4.59-.23,6.54-1.11,3.48-1.57,7.3-1.45,10.86-2.72,2.09-.74,4.68-.5,7-1.12s5.09-.09,7-1.23c2.24-1.36,5,.27,6.79-1.79,4.25.5,8-1.6,12.12-2.24,3.6-.56,7.3-1.77,10.88-2.45,4-.76,8-1.79,12-2.54s8.27-1.46,12.35-2.62c2.64-.75,5.51-1.19,8.28-1.78s5.65-.79,8.41-1.45c3.53-.84,7.19-1.25,10.62-2.18s7-1.07,10.39-2.62c2.35-1.08,5.35-.65,8-1.21s5.27-.69,7.78-1.71c1.89-.77,4,0,6.05-1.12,1.72-.92,4-.75,6-1.13s4.58-.4,6.37-1.46c1.94-1.15,4.4.61,5.89-1.53,4.69.27,9.1-1.49,13.64-2.2,5.34-.84,10.83-1.52,16-3.54,1.91-.75,4-.49,6-1a65.16,65.16,0,0,1,8.79-1.79,53.46,53.46,0,0,0,8.85-1.62c5.24-1.65,10.66-2.39,15.95-3.59,4.1-.93,8.39-1.65,12.58-2.4a64.25,64.25,0,0,0,10.88-2.61c1.9-.7,4,0,6-1.09,1.74-.9,4-.75,6-1.13s4.55-.44,6.36-1.48,4.39.59,5.89-1.51c4.37.22,8.44-1.43,12.64-2.16,3.64-.63,7.41-1,10.93-2.49A25.49,25.49,0,0,1,491.7,382c1.72-.24,3.42.16,5.14-.93,1.22-.77,3.05.29,4.63-.91,1.31-1,3.28-.24,5.08-.91a25.32,25.32,0,0,1,6.49-1.23c4-.31,7.61-1.95,11.59-2.35a56.42,56.42,0,0,0,8.23-1.74c5.45-1.4,11.15-1.63,16.45-3.73,1.89-.74,4-.49,6-1a70.76,70.76,0,0,1,8.78-1.8A48,48,0,0,0,573,365.8c5.23-1.75,10.7-2.11,16-3.61a80.58,80.58,0,0,1,8.88-1.6,67.38,67.38,0,0,0,8.27-1.76c5.57-1.65,11.32-2.36,16.94-3.59,4.12-.9,8.19-2.67,12.58-2.38.31,0,.65-.52,1.22-1v49.95c-2.29.68-4.77,1.55-7.32,2.15-2.15.51-4.79.09-6.47,1.2-2.1,1.37-4.39.15-6.43,1.54-1.59,1.09-4,.11-6,1.18-1.73.91-4,1-6,1.06-2.26.07-4.23,1.75-6.58,1.06-1.57,1.58-4.16.27-5.67,2-4.2-.17-8.14,1.28-12.15,2.1-5.5,1.11-11.16,1.58-16.46,3.65-1.91.74-4,.48-6,1a70.53,70.53,0,0,1-8.79,1.79,54.51,54.51,0,0,0-8.85,1.61c-5.24,1.64-10.66,2.39-15.95,3.59-4.1.93-8.39,1.65-12.58,2.4a65.22,65.22,0,0,0-10.88,2.61c-1.9.7-4,.26-6.05,1.06-2.45,1-5.38.62-8,1.2-3.37.73-6.94,1.06-10.07,2.24-2.27.86-4.94-.29-6.78,1.71-3.06-.09-5.87,1.2-8.83,1.59A48.22,48.22,0,0,0,452,440.2c-5.23,1.74-10.67,2.35-16,3.58-4.09.94-8.39,1.63-12.58,2.41a64.14,64.14,0,0,0-10.87,2.61c-1.89.7-4,.56-6,1.05-6.08,1.45-12.25,2.52-18.35,3.93-4.1,1-8.45,1.47-12.58,2.39-5.32,1.17-10.86,1.46-16,3.6-1.87.78-4,.5-6,1a71.39,71.39,0,0,1-8.77,1.81,47.24,47.24,0,0,0-8.86,1.6c-5.23,1.75-10.67,2.35-16,3.57-4.1,1-8.4,1.63-12.58,2.42a66.38,66.38,0,0,0-10.87,2.62c-1.87.69-4,.57-6,1.05-6.09,1.41-12.25,2.52-18.35,3.92-4.1.94-8.44,1.5-12.59,2.38-5.79,1.21-11.87,1.3-17.37,3.84-4.36-.19-8.51,1.25-12.63,2.17-5.32,1.18-10.79,1.65-16,3.54a27.35,27.35,0,0,1-6.47,1.22c-4.44.45-8.79,1.51-13.12,2.31a129.34,129.34,0,0,0-15.47,3.52,64,64,0,0,1-6.5,1.23c-5.83,1.17-11.75,1.85-17.42,3.82-1.91.66-4,.07-6.06,1.08-1.76.87-4,.77-6,1.11-1.86.32-3.71.78-5.59,1-2,.22-3.88,1.73-6.08,1-6.09,2.2-12.6,2.56-18.8,4.15-5.27,1.36-10.87,1.43-15.88,3.85-4.35-.18-8.49,1.29-12.63,2.18-5.31,1.13-10.77,1.71-16,3.55-2,.69-4.32.76-6.48,1.26C59.58,521.34,58,521.6,56.09,522Z" transform="translate(27.9 -268.86)"/><path class="cls-3" d="M52.92,472.76v45.32l-77.84-77.83V394.92Z" transform="translate(27.9 -268.86)"/><path class="cls-1" d="M478,289.37c3.39-2.85,5.74-6,9.15-8.15,3.88-2.44,8.13-3.79,12.37-5.12,2.2-.68,4.54-1.05,6.73-1.87s4.32.18,6.58-1.05c1.67-.91,4.23-.18,6.39-.18,3.17,0,6.37-.33,9.49.07,6.5.83,13,1.9,19.17,4.31,3.76,1.47,7.47,2.9,10.71,5.55s6.58,6.13,7.24,9.46c.77,3.79-.57,7.25-2.92,10.13-3.39,4.14-8.21,6.31-13,8.44-2,.89-4.12,1.3-6.14,2.06s-4.34.59-6.22,1.86c-.24.16-.63.09-1,.12-3.69.33-7.38.8-11.08,1s-7.32.15-11,0c-1.87-.08-3.71-.83-5.58-.9a28.42,28.42,0,0,1-5.6-1,41.28,41.28,0,0,1-5.74-1.85c-1.71-.69-3.66-.81-5.37-1.51s-3.17-2-4.88-2.68a16.54,16.54,0,0,1-8.91-8.21c-1.2-2.53-2.9-5.46-.54-8.48C478.27,291,478,290.08,478,289.37Z" transform="translate(27.9 -268.86)"/><path class="cls-1" d="M332,319.39c3.18-2.56,5.56-5.91,9.13-8.15,4-2.53,8.47-3.69,12.82-5.25,4.14-1.49,8.58-1.58,12.78-2.89,1.82-.57,4-.1,6-.1,3.33,0,6.71-.34,10,.07a84.41,84.41,0,0,1,19.19,4.27A50.61,50.61,0,0,1,413,313c3,2.05,4.69,4.83,6.1,8.17,2,4.74,0,8.3-2.55,11.68-2.44,3.2-6,5.11-9.67,6.72a73.7,73.7,0,0,1-19.69,5.64,88.06,88.06,0,0,1-16.59.71,67,67,0,0,1-29.2-7.83c-3.78-2-7.12-4.42-8.89-8.22-1.17-2.53-3-5.46-.56-8.48C332.28,321,332,320.1,332,319.39Z" transform="translate(27.9 -268.86)"/><path class="cls-1" d="M229.67,332.73c5,.43,10.13.37,15,1.42,4,.86,8,2.35,11.93,3.62a52.1,52.1,0,0,1,10.78,5.35c3.47,2.06,5.55,5.82,6.47,9.66.84,3.46-.62,7-2.9,9.67-3.54,4.21-8.45,6.42-13.39,8.6-3.86,1.71-8,2.2-11.92,3.78a5.55,5.55,0,0,1-1.43.17c-6.5.74-13,1.44-19.56,1-10.23-.73-20.06-2.88-29.19-7.91-4.62-2.54-8.08-5.6-9.84-10.79a8.66,8.66,0,0,1,1.89-9.14,42.07,42.07,0,0,1,7.17-6.57c3.8-2.7,8.13-3.86,12.28-5.4,2.24-.83,4.84-1.14,7.22-1.89s4.64-.25,7-1.08,5.59-.2,8.42-.2Z" transform="translate(27.9 -268.86)"/><path class="cls-1" d="M40,379.35c3.13-2.2,5.35-5.45,8.65-7.77,3.83-2.69,8.17-3.77,12.29-5.4,2.2-.88,4.85-1.13,7.22-1.88s4.89.48,7-1.3H91.59c3.12,2.07,6.8.74,10.22,1.81,5.48,1.73,15.1,5,19.59,8.21a16.9,16.9,0,0,1,6.46,9.72c.85,3.45-.61,7-2.88,9.69-3.51,4.23-8.45,6.42-13.38,8.61-3.85,1.71-8,2.27-11.92,3.76a5.6,5.6,0,0,1-1.42.2c-6.5.72-13,1.44-19.56,1-10.23-.73-20.07-2.87-29.2-7.89-4.6-2.53-8.29-5.48-9.83-10.8-.61-2.13-1.34-3.88.28-5.83C40.28,381.07,40,380.17,40,379.35Z" transform="translate(27.9 -268.86)"/><path class="cls-2" d="M565.84,303.4v20.38a53.52,53.52,0,0,1-3.4,5.22c-3.19,3.91-7.89,5.67-12.17,7.93-2,1.06-4.48,1.22-6.6,2.12s-4.42.38-6.19,1.94c-.09.08-.32,0-.49,0-3.85.33-7.7.8-11.56,1s-7.78.65-11.45-.11c-4.58-1-9.29-.93-13.81-2.7-4.29-1.69-8.69-3-12.9-5a22.26,22.26,0,0,1-8.9-8.32,7.83,7.83,0,0,1-1.31-3.91c-.14-5.93-.06-11.87.26-17.94,2.56,3.94,6.66,5.88,10.33,7.85a55.27,55.27,0,0,0,11.67,4.32A82.09,82.09,0,0,0,527,318.88a71.36,71.36,0,0,0,15.35-2.55c4.62-1.36,9.35-2.37,13.48-4.82C559.37,309.44,563.05,307.47,565.84,303.4Z" transform="translate(27.9 -268.86)"/><path class="cls-2" d="M419.91,333.16v19.26a15.87,15.87,0,0,1-6.47,9.5c-2.44,1.82-5.44,2.86-8.16,4.32a45.54,45.54,0,0,1-14.53,4.57,105.3,105.3,0,0,1-16.52,1.34,110.18,110.18,0,0,1-14-1.36c-4-.53-8-2.33-11.91-3.6a38.62,38.62,0,0,1-10.72-5.37A14.83,14.83,0,0,1,331,349.18c.1-5,0-9.93,0-15.76a36,36,0,0,0,9.22,7.43A68.37,68.37,0,0,0,353.05,346c2.22.69,4.51,1,6.72,1.85s4.78-.51,7.07,1.05c.68.46,2,.07,2.94.07,3.5,0,7,.13,10.48,0a49.39,49.39,0,0,0,10.05-1c6.26-1.62,12.77-2.55,18.5-5.9C412.67,339.75,416.7,337.74,419.91,333.16Z" transform="translate(27.9 -268.86)"/><path class="cls-2" d="M185,363.15c2.95,4.33,6.61,6.36,10.14,8.34a43,43,0,0,0,11.6,4.47c4,.89,7.89,2.62,12.14,2,6.08,2.18,12.38.46,18.55,1,2.39-1.31,5.12-.52,7.53-1.13s4.81-1.19,7.19-1.87,5-.94,7.11-2.08c4.12-2.22,8.53-4.08,11.85-7.55.78-.81,1.45-1.73,2.89-3.48,0,7.46.44,13.77-.17,20-.35,3.63-3.15,6.58-6.11,8.87-4,3.08-14.28,7.19-19.52,8.3a103.07,103.07,0,0,1-12.66,1.87,78.57,78.57,0,0,1-13.46,0c-2.34-.2-4.69-.73-7.06-1a20.42,20.42,0,0,1-6.71-1.8c-2.05-1-4.45-1.28-6.61-2.12s-4.12-2.08-6.27-2.93a17.94,17.94,0,0,1-9-8.15,9.76,9.76,0,0,1-1.39-4.38C184.91,375.73,185,369.94,185,363.15Z" transform="translate(27.9 -268.86)"/><path class="cls-2" d="M39,394.28c3,3.62,7.09,5.64,10.85,7.54a67.28,67.28,0,0,0,11.67,4.38c4.4,1.27,9,1.05,13.31,2.75a8.65,8.65,0,0,0,3,.05c3.49,0,7,.13,10.48,0a49.3,49.3,0,0,0,10-1c6.26-1.62,12.78-2.54,18.5-5.91,3.85-2.26,7.91-4.25,11.14-8.92.08,7.33,0,13.74,0,20.12-1.49,2.84-2.83,5.77-5.47,7.74a55.27,55.27,0,0,1-10.94,6.11c-3.85,1.7-8,2.25-11.92,3.76a2.6,2.6,0,0,1-.92.18c-5.53,0-11,1.25-16.55,1.13a82.14,82.14,0,0,1-18.1-2.26c-6.54-1.64-13.13-3.85-18.58-8-4-3-6.66-7.25-6.55-12.7C39.08,404.2,39,399.24,39,394.28Z" transform="translate(27.9 -268.86)"/></svg>