<svg id="Layer_1" data-name="Layer 1" xmlns="http://www.w3.org/2000/svg" viewBox="0 0 959.75 316.41"><defs><style>.cls-1{fill:#fff;}</style></defs><path d="M-139.81,596.24l-81.57-81.57V461c1.53-.61,3.2-1.7,5-1.88,3.64-.39,7.11-1.39,10.67-2.06,5.42-1,10.85-2.08,16.21-3.24s10.88-1.36,15.88-3.79c4.36.18,8.39-1.64,12.65-2.17a49.19,49.19,0,0,1,6.22-.83c2.65-4,6.79-6.44,10.76-8.81a37.37,37.37,0,0,1,10.77-4.1c8.61-2,17.29-3.8,26.23-3.06,2.24.18,4.54-.68,6.73.64,1.94,1.16,4.6-.67,6.45,1.33,2.19-.45,4.44.63,6.71-.72,1.68-1,3.95-.3,6-1.13,2.44-1,5.44-.44,8-1.23,5.24-1.62,10.83-1.58,16-3.7,1.86-.78,4-.52,6-1a77.9,77.9,0,0,1,8.77-1.81,49,49,0,0,0,8.87-1.59C-28.39,420.16-23,420-18,418.18c2.8-1,6-.88,9.29-1.3,2.63-3.69,6.56-6.37,10.63-8.6,3.48-1.9,7.44-3,11.24-4.21,4.63-1.52,9.53-1.86,14.28-2.87,3.83-.81,8-.32,12-.1,2.19.12,4.4-.74,6.67.81,1.57,1,4.24-.81,6,1.13,2.21-.41,4.51.69,6.72-.71,1.58-1,3.61-.23,5.53-1.11,2.36-1.08,5.34-.7,8-1.21,5.38-1,10.73-2.23,16.09-3.4,2.13-.47,4.21-1.36,6.35-1.5,3-.2,5.87-1.27,8.84-1.65a51.29,51.29,0,0,0,8.85-1.62c5.09-1.63,10.43-1.88,15.48-3.61,2.82-1,6-.92,9.34-1.37a29.56,29.56,0,0,1,10.59-8.5A59.76,59.76,0,0,1,159.54,374c4.55-1.23,9.29-1.4,13.8-2.85,1.51-.49,3.31-.08,5-.08,3.5,0,7.05-.4,10.48.11a59.73,59.73,0,0,1,9.72,1.8c3.5,1.12,6.95-1.23,10.53-1,1.84-2,4.86.08,6.69-1.94,4.71.36,9.23-1.18,13.62-2.24,5.28-1.27,10.66-2.34,15.95-3.54,4.11-.92,8.4-1.61,12.59-2.39a56.5,56.5,0,0,0,10.87-2.64c1.64-.66,3.34-.09,5.14-.86,2.71-1.14,5.93-1.05,9.38-1.55,2.54-3.51,6.43-6.2,10.5-8.43A44.43,44.43,0,0,1,305,344.15c4-.91,8.14-1.44,12.1-2.32,6.1-1.35,12.11-.36,18.14-.73,1.5-.09,3,.64,4.58.93a29.35,29.35,0,0,1,4.18.73c1.94.66,4.52,1,6.63-.38,1.67-1.08,3.61-.06,5.56-1.14,2.21-1.21,5.27-.95,8-1.18,2.23-.18,4.24-1.69,6.59-1,1.52-2.06,4-.44,5.9-1.48s4.21-1.09,6.36-1.51,4.09-.54,6.07-1c3.52-.9,7.2-1.25,10.62-2.19s7.24-.62,10.32-2.78c4.37.25,8.38-1.7,12.67-2.05a55,55,0,0,0,6.76-1.43c2.33-3.2,6.22-5.88,10.28-8.11a44,44,0,0,1,11.19-4.29c4-.93,8.12-1.48,12.1-2.32,6.1-1.29,12.1-.4,18.13-.74,1.51-.08,3.05.63,4.59.93,1.38.28,2.71-.11,4.22.73a7,7,0,0,0,5.32.17c3.83-1.51,8-1.29,11.86-2.72,2.08-.76,4.67-.61,7-1.09A113.81,113.81,0,0,0,527,306.2c1.87-.62,4-.59,6-1.06,4.72-1.09,9.53-1.82,14.27-3,2.87-.69,5.81-1,8.69-2,2.67-.91,5.77-.46,8.5-1.25a55.25,55.25,0,0,1,10.85-2.06c2.56-4,6.74-6.33,10.71-8.71a36.22,36.22,0,0,1,10.78-4c4-.88,8.12-1.5,12.11-2.31,5.92-1.21,11.77-.72,17.62-.67a31.76,31.76,0,0,1,9.28,1.61,8.61,8.61,0,0,0,5.35.15c3.84-1.5,8.06-1.05,11.85-2.79,1.38-.63,3.29-.1,5-.1l80.38,80.38v55.24c-4.31,1.38-8.94,1.39-13.19,3.14-1.88.77-4,.5-6,1a70.76,70.76,0,0,1-8.78,1.8,48,48,0,0,0-8.85,1.61c-5.24,1.75-10.77,1.83-16,3.7a22.51,22.51,0,0,1-5.57.9c-2,.17-3.61,1.3-5.57,1.22s-3.67.84-5.55,1.15a67.37,67.37,0,0,0-8.7,1.85c-2.69.83-5.67.41-8.18,2-4.26-.59-8,1.75-12.15,2.18a42.16,42.16,0,0,0-8.68,1.85c-2.68.87-5.68.39-8.18,2-4.26-.6-8,1.72-12.15,2.17a42.25,42.25,0,0,0-8.69,1.85c-2.67.9-5.5.89-8.23,1.82-2.14.73-4.69.29-7,1.08-2.08.7-4.84.09-6.45,1.24-2.08,1.49-4.7-.33-6.33,1.74-2.28-.26-4.37.65-6.54,1.09-5.83,1.18-11.76,1.85-17.42,3.82-1.91.66-4,.55-6,1-6.08,1.46-12.25,2.53-18.35,3.94-4.1.95-8.46,1.47-12.59,2.39-5.31,1.18-10.85,1.45-16,3.6-1.87.78-4,.51-6.05,1a71.39,71.39,0,0,1-8.77,1.81,48.06,48.06,0,0,0-8.86,1.6c-5.24,1.75-10.68,2.35-16,3.57-4.09.95-8.4,1.62-12.58,2.42a67.68,67.68,0,0,0-10.87,2.62c-1.86.69-4,.59-6,1-6.1,1.38-12.25,2.54-18.36,3.93-4.11.93-8.45,1.48-12.59,2.38-5.31,1.17-10.78,1.69-16,3.55A47.66,47.66,0,0,1,374.6,491c-2.34.46-5.07.08-7,1.19-2.22,1.29-5-.24-6.76,1.84a19.06,19.06,0,0,0-7.1.95c-2.13.57-4.52.34-6.54,1.14-2.84,1.13-5.79,1.34-8.7,1.92-5.24,1-10.47,2.06-15.69,3.18-2.27.49-4.47,1.33-6.75,1.77-2.5.49-5.39.08-7.49,1.21s-4.6.61-6.86,1.59c-2,.85-4.65.58-7,1.19-2.13.56-4.59.27-6.5,1.19-1.61.77-3.17.47-4.63.94s-2.74.65-4.09,1c-4.09,1.05-8.27,1.87-12.38,2.56s-8.07,1.66-12,2.53c-7,1.55-14.22,2.18-21,4.66-1.86.68-4,.23-6.05,1.08-1.85.77-4,.75-6.05,1.09-1.87.32-3.72.67-5.59,1-2,.35-3.91,1.13-6.08,1.13-1.74,0-3.43,1.38-5.22,1.73-2,.38-4.05.23-6.08,1.05-1.86.75-4,.75-6,1.09-1.86.32-3.72.67-5.58,1-2,.36-3.92,1.12-6.09,1.13-1.73,0-3.42,1.41-5.21,1.73-2,.36-4.06.26-6.08,1.05-1.87.74-4,.75-6.05,1.09-1.86.32-3.73.66-5.59,1-2,.37-3.92,1.11-6.08,1.13-1.74,0-3.42,1.43-5.21,1.74-2,.34-4.08.76-6.07,1-4,.42-7.76,1.57-11.62,2.32s-7.7,1-11.37,2.65c-1.74.78-4,.61-6,1.09-4.72,1.09-9.53,1.82-14.26,3-2.88.69-5.82,1-8.7,2-2.67.91-5.84.34-8.48,1.29s-5.21.94-7.75,1.76-5.54.29-8,1.22c-3.54,1.34-7.55.69-10.8,2.89-4.37-.25-8.39,1.63-12.67,2.06-3.42.35-7.1.65-10.08,2.14-2.28,1.15-4.62.27-6.88,1.62-2,1.2-5.24.26-7.4,1.34-2.39,1.19-5.07.07-7.32,1.74-.87.63-2.61,0-3.92.14-1,.13-2,.74-3.1.94-2.18.41-4.59.25-6.5,1.17a12.13,12.13,0,0,1-3.66.88c-1.22.19-2.38.74-3.59.95-2.35.4-5.09.06-7,1.18-2.24,1.33-4.95-.22-6.79,1.78-4.24-.44-8,1.79-12.13,2.2a63.63,63.63,0,0,0-10.63,2.08c-3.42.94-7.24.62-10.32,2.78-4.2-.23-8.13,1.29-12.15,2.08-5.52,1.07-11.15,1.75-16.49,3.61-2,.68-4.26-.42-6,1.31-5.92,1-12,1.53-17.71,3.14-5.13,1.43-10.38,2.16-15.5,3.56C-130.4,595-135.18,595.44-139.81,596.24ZM209,374.65c.67.65,1,1.2,1.46,1.36a60.41,60.41,0,0,1,8.37,4,23,23,0,0,1,7.32,6.32,15.42,15.42,0,0,1,3.45,10.07c-.23,8.16-.09,16.33-.06,24.5a15.64,15.64,0,0,1-4.8,11.57c-2.87,2.89-6.34,4.68-9.75,6.7-3.82,2.26-8.17,2.85-12.22,4.32-4.4,1.6-9,1.57-13.45,2.43-3.7.72-7.64.28-11.47.11s-7.39-.62-11.09-1a3.66,3.66,0,0,1-.92-.18c-5-1.69-10.21-2.56-15-4.8s-9.73-5-13.06-9.39a15.77,15.77,0,0,1-3.32-10.14c.24-9.32.08-18.66.08-27.64l1.32-2.57L63.55,404.67l-.07.78A17.75,17.75,0,0,0,66.26,407c5.42,1.92,10.4,4.92,13.36,8.73,2.32,3,4,6.29,3.92,10.38-.18,8.16-.09,16.33,0,24.5a15.94,15.94,0,0,1-5,12,38.92,38.92,0,0,1-11,7.34,73.72,73.72,0,0,1-11.38,3.89c-4.1,1.21-8.41,1.4-12.61,2.08-3.73.61-7.65.26-11.47.09s-7.73-.63-11.59-1c-.16,0-.36.06-.5,0-4.62-2.21-9.79-2.59-14.51-4.82-5-2.35-9.7-4.81-13.22-9a15,15,0,0,1-3.83-10.41c.22-7.16,0-14.33.07-21.5,0-3-.45-6.07,1.18-9C-34.68,425-58.53,430.16-83,434.67c.61.61.93,1.17,1.39,1.34a59.7,59.7,0,0,1,8.36,4,22.36,22.36,0,0,1,7.31,6.31c1.84,2.44,3.47,5.18,3.44,8.56-.09,9.17-.05,18.33,0,27.5a12.62,12.62,0,0,1-2.45,7.46c-3.88,5.25-9.61,8.29-15.3,11.18a29.63,29.63,0,0,1-6.16,2c-2.28.58-4.77.57-6.9,1.46-2.29,1-4.82-.31-6.67.74-2.45,1.39-4.81.59-7.18.8-5.89.51-11.73-.37-17.58-1a5.6,5.6,0,0,1-1.43-.18c-4.77-1.81-9.82-2.61-14.55-4.71-5.2-2.31-10-5.06-13.52-9.48a14.24,14.24,0,0,1-3.32-10.11c.25-3.48.05-7,.05-10.5,0-3.33,0-6.67,0-10s-.4-6.66,1-9.92l-59,12.27L-137.94,540c2.34-.35,4.82-.35,7-1.14a69.6,69.6,0,0,1,10.87-2.62c4.17-.8,8.48-1.47,12.58-2.42,5.29-1.22,10.73-1.82,16-3.57a48.06,48.06,0,0,1,8.86-1.6,71.54,71.54,0,0,0,8.78-1.81c2-.52,4.17-.24,6-1,5.12-2.15,10.66-2.42,16-3.6,4.13-.92,8.43-1.57,12.6-2.38,4.58-.9,9.17-2,13.75-3,1.87-.4,3.86-.27,5.57-1A56.16,56.16,0,0,1-9.1,513.23c4.18-.79,8.48-1.48,12.59-2.41,5.29-1.22,10.72-1.84,16-3.58a48,48,0,0,1,8.87-1.59,78.36,78.36,0,0,0,8.77-1.81c2-.5,4.18-.25,6-1,5.13-2.12,10.66-2.43,16-3.61,4.13-.92,8.48-1.45,12.58-2.39,6.11-1.4,12.27-2.5,18.36-3.92,2-.48,4.46-.09,6-1.13,2.06-1.43,4.35-.11,6.44-1.57,1.63-1.14,4.41-.47,6.43-1.25,2.38-.93,5-.22,7.07-1.05,3.85-1.53,7.94-1.9,11.85-2.63s7.87-2.77,12.13-2.23c1.43-2.23,4-.08,5.85-1.65,1.4-1.21,3.58-.34,5.5-1.11a18.65,18.65,0,0,1,6-1.17c4-.12,7.62-2,11.66-2.3,2.81-.22,5.75-1.28,8.68-1.8s5.76-1.69,8.68-1.88c4-.26,7.56-2.69,11.67-2.09,1.78-2.15,4.54-.42,6.77-1.83,1.84-1.16,4.69-.59,7-1.24s4.95-.34,7.05-1.1c3.55-1.29,7.48-.92,10.81-2.83,6.06-.19,11.72-2.73,17.76-3,1.72-1.7,4.1-.42,6-1.31,3.45-1.67,7.28-1.91,10.91-2.53,4.21-.72,8.39-1.71,12.61-2.39a95.45,95.45,0,0,0,9.57-2.1c3.2-.85,6.41-1.85,9.81-1.67,1.86-2,4.53-1,6.79-1.65a48.71,48.71,0,0,1,8.57-2.17c4.28-.51,8.31-2.26,12.65-2.18,1.76-1.6,4.08-.53,6-1.22a66.22,66.22,0,0,1,10.88-2.61c4.19-.76,8.49-1.46,12.59-2.39,5.29-1.21,10.66-2.41,15.95-3.53,5.83-1.23,11.66-2.89,17.7-3.31,2.13-.15,4.21-1.08,6.33-1.56,3.66-.83,7.32-1.68,11-2.35,2.67-.49,5.54-.25,8.05-1.12,5.19-1.81,10.63-2.53,15.92-3.67,5.83-1.26,11.67-3,17.71-3.24,1.71-1.71,4.1-.42,5.95-1.32,3.46-1.66,7.28-1.9,10.92-2.52,4.2-.72,8.27-2.4,12.64-2.16,1.49-2.12,3.95-.39,5.89-1.53s4.21-1.06,6.37-1.46,4.3-.22,6-1.13c2-1.08,4.17-.35,6.05-1.12,2.52-1,5.19-1.16,7.78-1.71s5.54-.27,8-1.19a56.66,56.66,0,0,1,8.7-2c3.06-.62,6.14-1.23,9.17-2,2.16-.52,4.34-.76,6.47-1.25,3.65-.83,7.23-2.16,10.91-2.56,4.28-.46,8.29-2.36,12.66-2.1,1.44-2,3.94-.1,5.4-1.38,1.62-1.41,3.47-.05,5.14-.94a18.22,18.22,0,0,1,5.31-1.64c2.67-.49,5.5-.33,8-1.15s5.2-.83,7.76-1.76,5.81-.39,8.47-1.29c2.89-1,5.82-1.29,8.7-2,4.74-1.13,9.54-1.87,14.27-3,2-.47,4.24-.35,6-1.06,5.15-2,10.64-2.52,16-3.65,4.14-.88,8.27-2.36,12.63-2.18,5-2.44,10.6-2.52,15.88-3.83,6.22-1.53,12.66-2.11,18.82-4.11,2.24-.72,4.71-.69,7.07-1.07,2.19-.36,4.27-1.46,6.58-1,1.78-2.16,4.89.14,6.67-2,5.77-.4,11.13-2.67,17-3.3l-77.68-77.69-8.36,1.39c0,.38,0,.71,0,1.25,3,1.36,6.21,2.43,9.14,4.25,3.35,2.08,6.22,4.37,8.17,7.85,1.13,2,2.69,5.13,2.69,6.38,0,9.5.15,19-.09,28.5a12.77,12.77,0,0,1-2.22,7c-4,5.33-9.69,8.73-15.75,11.3-3.26,1.38-6.82,2-10.22,3.08-3.65,1.12-7.49.93-11.21,1.87s-19-.16-23.55-.88a1.83,1.83,0,0,1-.48,0c-4.43-2.3-9.49-2.45-14.05-4.76-6.82-3.47-9.36-4.25-13-8.34a15.74,15.74,0,0,1-4.46-11.16c.18-7.33,0-14.67.06-22,0-2.84-.45-5.73,1.14-8.36-24.35,4.62-48.18,9.81-72.4,14.24.58,1.75,2.23,1.94,3.32,2.34a30.32,30.32,0,0,1,13.58,9.36,15.19,15.19,0,0,1,3.42,10.09c-.22,8.16-.1,16.33-.06,24.49a15.54,15.54,0,0,1-4.81,11.55c-2.87,2.9-6.31,4.73-9.76,6.68A26.54,26.54,0,0,1,495.05,383c-1.44,2-3.9.6-5.78,1.84-1.41.94-3.78.44-5.71.6-2.09.17-4.18.55-6.27.52-5-.06-10,0-15.11-.78a104.54,104.54,0,0,1-12.86-2.88,52.47,52.47,0,0,1-11.87-5.18,25.73,25.73,0,0,1-7-5.8,15.64,15.64,0,0,1-4-10.35c.18-9.5.06-19,.06-28.1.5-1,.83-1.66,1.31-2.6l-72.26,14.37-.06.78a14,14,0,0,0,2.8,1.54,27,27,0,0,1,13.33,8.77,15.23,15.23,0,0,1,3.93,10.37c-.18,8.16-.09,16.33,0,24.5a16,16,0,0,1-5,12c-2.77,2.79-6.1,4.53-9.39,6.4-7.92,4.53-16.86,5.49-25.61,6.92-3.73.61-7.65.23-11.48.06s-7.72-.63-11.59-1c-.16,0-.36,0-.49,0-4.41-2.32-9.87-1.7-14-4.94-2.87.36-4.43-2.18-6.74-3-2.71-1-4.56-3.09-6.36-5.13-2.78-3.15-4.6-6.69-4.49-11.15.18-7,0-14,.06-21,0-3.18-.5-6.4,1.1-9.4C257.41,365,233.69,370.17,209,374.65ZM-137.39,593.2a27.43,27.43,0,0,1,3.6-1.13c2.51-.42,5.19-.3,7.55-1.11,6-2,12.26-2.61,18.33-4.08,2-.5,4.14-.35,6-1A64.48,64.48,0,0,1-91,583.22c4.19-.75,8.48-1.47,12.59-2.4,5.29-1.2,10.71-2,16-3.59a53.34,53.34,0,0,1,8.84-1.61,67.1,67.1,0,0,0,8.79-1.8c2-.55,4.19-.17,6-1.06,3.46-1.68,7.28-1.88,10.91-2.56,4.18-.78,8.46-1.5,12.59-2.38,5.3-1.12,10.62-2.66,15.93-3.55,4.52-.76,9-2.32,13.63-2.23,1.73-1.67,4.06-.53,6-1.26,5.31-2,11-2.54,16.47-3.65,4-.81,8-2.27,12.15-2.09,5.5-2.58,11.57-2.72,17.37-3.85,4.18-.81,8.28-2.41,12.65-2.15,1.47-1.85,3.86-.8,5.75-1.85s4.31-.81,6.5-1.15c2-.32,4.32-.19,6-1.12,2-1.13,4.13-.42,6.06-1.12a71.37,71.37,0,0,1,10.88-2.59c4.18-.8,8.48-1.47,12.59-2.39,5.29-1.2,10.66-2.4,15.95-3.55,5.82-1.26,11.67-2.93,17.7-3.23,1.71-1.72,4-.59,6-1.29,5.33-1.92,11-2.55,16.48-3.63,4-.79,7.95-2.27,12.15-2.08,1.44-2,3.88-.66,5.77-1.84,1.73-1.08,4.3-.82,6.49-1.16,2-.32,4.33-.18,6-1.13,2-1.15,4.11-.45,6.05-1.13a74,74,0,0,1,10.9-2.58c4.19-.77,8.48-1.46,12.59-2.39,5.29-1.2,10.65-2.35,15.94-3.55,5.81-1.31,11.67-2.94,17.71-3.22,1.7-2.06,4.23-.72,6.36-1.54,3.46-1.34,7.28-1.78,11-2.43,2.67-.48,5.54-.25,8-1.12,5.19-1.82,10.75-1.88,15.91-3.82,2.33-.87,5.38-.11,7.46-1.26,2.41-1.33,5.26.22,7.27-1.83,4.7-.44,9.2-2,13.79-2.81,6.05-1.13,12.12-2.26,18.22-3.21,2.19-.35,4.27-1.39,6.58-1,3.1-2.11,6.9-1.83,10.32-2.76s7.09-1.34,10.62-2.18c2.77-.66,5.64-.86,8.42-1.45s5.56-1.15,8.3-1.75c4.75-1,9.53-1.88,14.27-2.94,2-.45,4.32-.3,6-1.09,3.35-1.56,7-1.7,10.4-2.59s7.08-1.39,10.62-2.19c2.77-.62,5.62-.89,8.41-1.45s5.56-1.15,8.3-1.75c4.75-1,9.54-1.85,14.27-2.94,2-.47,4.05-.69,6.08-1,1.79-.3,3.47-1.73,5.2-1.74,2.17,0,4.07-.75,6.09-1.13,1.86-.34,3.72-.68,5.59-1s4.17-.36,6.05-1.08,4.06-.7,6.08-1.06c1.79-.31,3.47-1.73,5.21-1.73,2.17,0,4.06-.77,6.08-1.13s3.73-.68,5.59-1c2-.34,4.19-.34,6.05-1.09,2-.81,4.18-.43,6.06-1.07,5.83-2,11.93-2.62,17.88-3.93,2-.45,4.24-.4,6.05-1.07,3.54-1.33,7.26-1.78,10.85-2.7,5.95-1.52,12.19-1.9,18.19-3.27,2-.47,4.21-.33,6-1.05,5.15-2,10.65-2.52,16-3.64,4.14-.87,8.28-2.36,12.63-2.18,5-2.43,10.64-2.32,15.89-3.83,3-.85,6.15-1.27,9.24-1.88s6.41-1.35,9.6-2.09c1.94-.46,4-.94,6-1.22,1.87-.25,3.73-.66,5.59-1,2-.34,4.24-.27,6-1.11,2-.95,4.2-.35,6.05-1.09,5.14-2,10.67-2.27,15.95-3.7,4.67-1.26,9.59-1.53,14.24-3.06a54.17,54.17,0,0,1,5.57-1.05c2.88-.64,5.73-1.37,8.52-2V363.55c-1.9.22-3.87.05-5.5.71-5.14,2.07-10.66,2.44-16,3.61-4.13.91-8.48,1.45-12.59,2.38-6.11,1.39-12.26,2.54-18.36,3.93-2,.46-4.19.32-6,1.05-5.14,2-10.64,2.51-15.95,3.63-4.15.87-8.28,2.36-12.64,2.18-5,2.43-10.59,2.66-15.88,3.78s-10.78,2.3-16.21,3.25c-3.72.66-7.32,2-11.18,2-2,1.93-4.84.88-7.22,1.87s-5,.65-7.52,1.17c-2.17.46-4.49.55-6.48,1.27-5.2,1.89-10.68,2.36-16,3.53-4.13.9-8.45,1.52-12.59,2.39-4.41.93-8.89,1.79-13.27,2.9-2,.52-4.18.37-6,1.05a66.67,66.67,0,0,1-10.87,2.63c-4.18.79-8.48,1.47-12.58,2.41-5.29,1.22-10.73,1.83-16,3.58a47.49,47.49,0,0,1-8.87,1.59,75.31,75.31,0,0,0-8.77,1.81c-2,.51-4.18.24-6.05,1-5.12,2.15-10.72,2.08-16,3.7-2.55.79-5.57.25-8,1.23-2.07.84-4.09.5-6.07,1-4.07,1.11-8.16,2.11-12.33,2.83-2.18.37-4.67.46-6.45,1.28-2.28,1-4.64.28-6.9,1.53-2.08,1.14-5,.78-7.49,1.18a48.64,48.64,0,0,0-6.94,1.35c-5.4,1.7-11,2.48-16.51,3.56-4,.8-7.95,2.29-12.15,2.08-1.76,1.58-4.15,1.22-6.21,1.91-2.22.74-4.93.25-7,1.23s-4.14.4-6.06,1.09c-3.53,1.28-7.32,1.48-10.88,2.7-2.06.71-4.82.09-6.44,1.23-2.09,1.47-4.69-.3-6.34,1.71-4.05-.24-7.65,1.88-11.62,2.18a24.27,24.27,0,0,0-6.47,1.24c-1.81.7-3.77-.09-5.09.91-1.58,1.21-3.43.12-4.63.9-1.73,1.12-3.5.49-5.13,1-2.14.64-4.4.61-6.47,1.28-5.39,1.74-11,2.48-16.5,3.57-4,.79-8,2.27-12.15,2.08-3.08,2.16-6.9,1.84-10.32,2.78a61.67,61.67,0,0,1-10.63,2.08c-4.14.37-7.89,2.71-12.14,2.16-2.53,1.5-5.49,1.18-8.19,2a48.56,48.56,0,0,1-8.68,1.86c-4.14.4-7.89,2.71-12.14,2.19-2.54,1.47-5.49,1.18-8.19,2a50.45,50.45,0,0,1-8.69,1.85c-4.13.42-7.89,2.7-12.13,2.2-4.36,2.09-9.21,1.86-13.8,2.86-4,.87-8,2.33-12.15,2.1-1.77,1.56-4.14,1.25-6.2,1.91-2.24.72-5,.24-7,1.23s-4.09.49-6.06,1.08a40.73,40.73,0,0,1-8.26,1.81,57.91,57.91,0,0,0-7.55,1.08c-1.79.4-3.48,1.75-5.21,1.76-2.17,0-4.06.76-6.09,1.13-1.86.34-3.72.68-5.58,1-2,.34-4.27.24-6,1.11-2.22,1.08-4.59.88-6.85,1.53C75.91,499.19,70.43,500,65,501.05c-1.37.28-2.71.76-4.09,1s-2.72.1-4.15.91-3.66.77-5.51,1.12c-3.86.74-7.75,1.35-11.55,2.31-4,1-7.92,1.8-11.89,2.67-2.31.5-4.8.44-7,1.25A49.31,49.31,0,0,1,9,512.82c-6,.65-11.74,2.55-17.7,3.41-4.76.69-9.54,1.82-14.26,2.91-2,.48-4.2.42-6.05,1.07a60.47,60.47,0,0,1-8.71,2c-3.06.6-6.12,1.3-9.18,2-2,.43-4.37.3-6,1.08-3.35,1.59-7,1.67-10.4,2.61s-7.09,1.34-10.62,2.18c-2.76.66-5.64.83-8.42,1.44s-5.4,1.86-8.33,1.6c-1.8,2.06-4.52.54-6.77,1.82-2,1.17-5,.57-7.46,1.26-2,.58-4.22.44-6,1.08a60.47,60.47,0,0,1-8.71,2c-3,.61-6.09,1.37-9.19,1.91-2.89.51-5.72,1.37-8.51,2Zm-81-81.68,77.78,77.78V543.56l-77.78-77.79ZM576.46,300.41c0,.84.27,1.72-.05,2.13-1.55,1.95-.84,3.69-.23,5.82,1.54,5.34,5.28,8.22,9.83,10.81,8.34,4.73,17.46,6.56,26.73,7.79a65.67,65.67,0,0,0,11.48,0c3.69-.16,7.38-.62,11.07-1a3.17,3.17,0,0,0,.91-.21c3.91-1.46,8.09-2,11.93-3.75,4.75-2.15,9.42-4.35,13.08-8.23,2-2.17,2.77-4.91,3.2-7.65.4-2.56-.88-4.76-2.18-7.06-3.24-5.69-8.85-7.71-14.3-10.06a64.14,64.14,0,0,0-6.15-2,61.12,61.12,0,0,0-6.67-2c-2.17-.41-4.57.55-6.57-1h-17c-2,1.81-4.67.55-6.94,1.32s-4.62.89-6.78,1.73c-4.16,1.61-8.45,2.8-12.33,5.26C582.1,294.52,579.81,297.72,576.46,300.41Zm-145.82,29.9a6.23,6.23,0,0,1-.42,2.43c-2,2.92-.41,5.75.75,8.07a18.76,18.76,0,0,0,8.83,8.34c4.19,2.09,8.62,3.33,12.9,5,4.69,1.87,9.58,1.79,14.33,2.71,3.53.69,7.3.27,11,.1s7.38-.62,11.07-1a10.61,10.61,0,0,0,1.33-.39,79,79,0,0,0,12-3.64c4.78-2.05,9.51-4.32,13-8.38a11.59,11.59,0,0,0,3-9.67,15.35,15.35,0,0,0-6.36-9.78c-6.82-4.73-14.7-7.38-22.7-8.93-5.18-1-10.6-1.81-16-1.25-2.63.27-5.45-.46-7.95.16-4.41,1.1-9,1.41-13.26,2.93s-8.48,2.75-12.37,5.14C436.11,324.42,433.71,327.76,430.64,330.31ZM284.49,360.36c0,.79.19,1.4,0,1.77-2.12,3.58-.41,6.51,1.21,9.69,2,4,5.62,6,9.17,8,3.9,2.19,8.32,3.2,12.53,4.7,4.37,1.55,9,1.65,13.44,2.42,3.72.64,7.65.26,11.47.09s7.38-.62,11.07-1a3.59,3.59,0,0,0,.89-.25c3.93-1.4,8.1-2,11.95-3.73,4.76-2.11,9.52-4.26,13-8.29,2.49-2.85,4-6.46,3.12-10.08a14.9,14.9,0,0,0-5.82-9c-3.44-2.34-6.91-4.74-11.13-5.68a19.41,19.41,0,0,1-6.11-2.05c-2-1.25-4.23-.92-6.28-1.77s-4.51.42-6.52-1.14h-17c-2,1.83-4.66.55-6.93,1.35s-4.63.88-6.79,1.7c-4.17,1.59-8.43,2.88-12.31,5.3C290,354.54,287.81,357.81,284.49,360.36Zm-146,30c0,.68.11,1.07,0,1.34-1.76,3.87-.62,7,1.52,10.57,2.31,3.85,5.83,5.67,9.32,7.73,3.74,2.21,8.08,3,12.11,4.51,4.18,1.6,8.65,1.59,13,2.39,3.7.68,7.64.27,11.46.1s7.72-.63,11.57-1c.17,0,.4.07.49,0,1.77-1.59,4.19-1.55,6.2-1.8,2.46-.32,4.09-2.6,6.64-2.19,4.34-2.53,9.21-4.28,12.53-8.31,2.42-2.93,4-6.53,3-10.1a16.15,16.15,0,0,0-6.59-9.58,42.11,42.11,0,0,0-11.59-5.75c-4.95-1.42-9.75-3.8-15.14-3.26-.33,0-.77.14-1,0-2.85-2.16-6.07-.64-9.1-.92s-6.57-.8-9.41.17c-2.37.8-4.72.27-7,1.15s-4.66.8-6.8,1.68c-4.12,1.7-8.44,2.81-12.3,5.32C144,384.63,141.77,387.87,138.49,390.36Zm-146,30.14a3.31,3.31,0,0,1,0,1.16c-1.76,3.87-.68,7.06,1.5,10.58,2,3.18,4.72,5,7.69,6.8,4,2.42,8.55,3.48,12.86,5.12,4.68,1.78,9.56,1.87,14.31,2.74,3.71.68,7.64.27,11.47.1s7.38-.62,11.07-1a4.11,4.11,0,0,0,.89-.26c3.93-1.39,8.1-2,11.94-3.72,4.78-2.1,9.43-4.36,13.06-8.27,2-2.17,2.61-4.95,3.17-7.67.44-2.15-.84-4.33-2.3-7-3.14-5.76-8.79-7.75-14.27-10-2-.83-4.1-1.38-6.16-2A56.37,56.37,0,0,0,51,405.1c-2.18-.4-4.56.48-6.57-1.06h-17c-2,1.84-4.66.55-6.93,1.36s-4.63.85-6.79,1.69c-4.15,1.62-8.43,2.85-12.3,5.32C-2.1,414.67-4.44,418-7.51,420.5Zm-102.61,56.81L-94.8,476a3.25,3.25,0,0,0,.94-.16c3.85-1.62,8.06-2.07,11.92-3.79,4.93-2.19,9.75-4.47,13.42-8.56s3.57-9.62.82-14.34c-2.24-3.84-5.59-6.14-9.21-7.92a70.71,70.71,0,0,0-29-7.21c-3.49-.12-7,0-10.49,0-.83,0-2-.36-2.44.06-2,1.88-4.41.38-6.53,1.19s-4.2,1.08-6.26,1.77c-4.38,1.46-8.82,2.68-12.83,5.24-3,1.9-5.2,4.44-7.62,6.83a8.52,8.52,0,0,0-2.31,8.4c1,3.66,3,7.25,6.29,9.29a50,50,0,0,0,10.74,5.39,118.49,118.49,0,0,0,11.92,3.68C-120.52,476.93-115.4,476.87-110.12,477.31ZM664.49,315.07c-2.52,2-4.69,3.85-7,5.45a37.62,37.62,0,0,1-7.23,4.18A77.85,77.85,0,0,1,639.11,328c-4,.89-8.09,1.95-12.13,1.91-5.84,0-11.81,1.34-17.55-.86-4.26.58-8.18-1-12.13-2.07s-7.89-2.07-11.24-4.1c-3.6-2.18-7.64-4-10.57-9,0,6.4,0,11.51,0,16.62,0,5.37,2.62,9.48,6.77,12.49a35.22,35.22,0,0,0,11.17,5.51c1.79.49,3.58,1,5.34,1.56a51.34,51.34,0,0,0,5.68,1.93c1.89.38,4.09-.22,5.79.49,2.15.89,4.2.51,6.26.52a105.8,105.8,0,0,0,15.58-.76,67.38,67.38,0,0,0,12-2.55,48.12,48.12,0,0,0,13.7-6.64c3.29-2.45,6.22-5.53,6.59-9.57C664.9,327.41,664.49,321.27,664.49,315.07Zm-146,28.87c-1.44,1.74-2.11,2.66-2.89,3.47-3.33,3.48-7.73,5.33-11.85,7.55-2.13,1.14-4.73,1.4-7.11,2.08s-4.8,1.27-7.19,1.87-5.14-.18-7.54,1.13c-6.17-.54-12.46,1.18-18.54-1-4.26.58-8.14-1.15-12.14-2a43,43,0,0,1-11.6-4.47c-3.53-2-7.19-4-10.14-8.34,0,6.8-.09,12.58.06,18.35a9.8,9.8,0,0,0,1.39,4.38,17.92,17.92,0,0,0,9,8.15c2.14.85,4.12,2.1,6.26,2.93s4.57,1.1,6.61,2.12a20.18,20.18,0,0,0,6.71,1.8c2.37.28,4.72.81,7.06,1A78.57,78.57,0,0,0,480,383a103.07,103.07,0,0,0,12.66-1.87c5.24-1.11,15.54-5.22,19.52-8.3,3-2.29,5.76-5.24,6.11-8.87C518.93,357.7,518.49,351.39,518.49,343.94Zm-146,50.62c0-6.36,0-12.68,0-19,0-.12-.22-.24-.51-.55-3.62,4.57-8.71,7.17-13.75,9.63-3.42,1.67-7.31,2.5-11.07,3.35A105.55,105.55,0,0,1,335,390a62.44,62.44,0,0,1-9,0c-2.87-.11-5.88.74-8.57-1-4.26.59-8.17-1-12.13-2.07s-7.91-2-11.24-4.08c-3.59-2.22-7.71-4-10.29-7.9a153.73,153.73,0,0,0-.16,17.94,11.92,11.92,0,0,0,1.78,4.71c2.38,4.07,6.08,6.29,10,8.4s8.09,2.95,12.09,4.54c4.17,1.66,8.67,1.47,13,2.31,3.68.72,7.63.28,11.45.11s7.71-.63,11.56-1c.16,0,.39.06.49,0,1.78-1.53,4.17-1.1,6.19-1.93s4.59-1.06,6.6-2.12c4.29-2.26,9-4,12.16-7.94A58.74,58.74,0,0,0,372.49,394.56Zm-235,9.59c0,6.81-.09,12.59.06,18.36a9.94,9.94,0,0,0,1.37,4.39,20.89,20.89,0,0,0,8.94,8.23c4.16,2.16,8.59,3.4,12.88,5.07,4.53,1.77,9.24,1.85,13.82,2.67,4.35.78,9,.46,13.44.08a101.19,101.19,0,0,0,12.66-1.87c5.19-1.1,15.53-5.15,19.52-8.29,3-2.4,5.88-5.41,6.19-9.35.46-6.06.12-12.19.12-19.1-4.15,5.27-9.28,7.85-14.32,10.35-3.41,1.68-7.32,2.46-11.09,3.3-4,.89-8.09,1.93-12.13,1.92-5.84,0-11.81,1.25-17.55-.87-4.26.58-8.14-1.13-12.14-2a43.19,43.19,0,0,1-11.6-4.47C144.12,410.56,140.43,408.54,137.49,404.15Zm-146,31.26c0,5.31,0,10.62,0,15.92,0,2.47,1.12,4.44,2.24,6.57,2.15,4.09,5.93,6,9.6,8.11s8.09,2.95,12.11,4.5c4.17,1.61,8.64,1.59,13,2.39,3.69.68,7.63.27,11.44.1s7.71-.62,11.57-1a4.06,4.06,0,0,0,.88-.27c3.94-1.38,8.1-2,11.94-3.71,4.6-2.05,9.25-4.07,12.65-7.95a47.7,47.7,0,0,0,3.63-5.54c0-6.26,0-12.58,0-18.89,0-.13-.14-.28-.26-.38a.87.87,0,0,0-.34-.14c-3.91,4.67-10.21,8.22-16.59,10.54a84,84,0,0,1-20.17,4.24,58.17,58.17,0,0,1-15.43-.08,122.86,122.86,0,0,1-13.8-2.64,62.38,62.38,0,0,1-11.67-4.38C-1.48,440.9-5.62,439-8.51,435.41Zm-146,30c0,5.31,0,10.62,0,15.92,0,2.48,1.12,4.44,2.25,6.57,2.17,4.08,5.93,6,9.61,8.1s8.09,2.94,12.1,4.5c4.17,1.62,8.65,1.58,13,2.38,3.7.68,7.63.27,11.45.1s7.71-.63,11.56-1c.17,0,.4.07.49,0,1.75-1.61,4.19-1.54,6.19-1.8,2.46-.32,4.09-2.6,6.63-2.19,4.2-2.44,8.94-4.08,12.16-8a51.82,51.82,0,0,0,3.47-5.32V464.34c-2.75,3.67-6,5.54-9.13,7.61-3.86,2.54-8.16,3.67-12.4,5.05-2.2.72-4.51,1-6.73,1.84s-5.2-.62-7.48,1.2c-5.66,0-11.41.63-16.94-.2a114.86,114.86,0,0,1-13.8-2.64,59.6,59.6,0,0,1-11.67-4.37C-147.49,470.89-151.63,469-154.51,465.43Z" transform="translate(221.38 -279.83)"/><path class="cls-1" d="M209,374.65c24.73-4.48,48.45-9.68,72.64-14.27-1.6,3-1.08,6.22-1.1,9.4,0,7,.12,14-.06,21-.11,4.46,1.71,8,4.49,11.15,1.8,2,3.65,4.13,6.36,5.13,2.31.85,3.87,3.39,6.74,3,4.08,3.24,9.54,2.62,14,4.94.13.07.33,0,.49,0,3.87.33,7.72.79,11.59,1s7.75.55,11.48-.06c8.75-1.43,17.69-2.39,25.61-6.92,3.29-1.87,6.62-3.61,9.39-6.4a16,16,0,0,0,5-12c-.05-8.17-.14-16.34,0-24.5a15.23,15.23,0,0,0-3.93-10.37A27,27,0,0,0,358.28,347a14,14,0,0,1-2.8-1.54l.06-.78,72.26-14.37c-.48.94-.81,1.61-1.31,2.6,0,9.1.12,18.6-.06,28.1a15.64,15.64,0,0,0,4,10.35,25.73,25.73,0,0,0,7,5.8,52.47,52.47,0,0,0,11.87,5.18,104.54,104.54,0,0,0,12.86,2.88c5.07.82,10.07.72,15.11.78,2.09,0,4.18-.35,6.27-.52,1.93-.16,4.3.34,5.71-.6,1.88-1.24,4.34.12,5.78-1.84a26.54,26.54,0,0,0,11.88-3.91c3.45-1.95,6.89-3.78,9.76-6.68a15.54,15.54,0,0,0,4.81-11.55c0-8.16-.16-16.33.06-24.49a15.19,15.19,0,0,0-3.42-10.09A30.32,30.32,0,0,0,504.56,317c-1.09-.4-2.74-.59-3.32-2.34,24.22-4.43,48-9.62,72.4-14.24-1.59,2.63-1.13,5.52-1.14,8.36,0,7.33.12,14.67-.06,22a15.74,15.74,0,0,0,4.46,11.16c3.65,4.09,6.19,4.87,13,8.34,4.56,2.31,9.62,2.46,14.05,4.76a1.83,1.83,0,0,0,.48,0c4.53.72,19.88,1.81,23.55.88s7.56-.75,11.21-1.87c3.4-1.05,7-1.7,10.22-3.08,6.06-2.57,11.73-6,15.75-11.3a12.77,12.77,0,0,0,2.22-7c.24-9.49.11-19,.09-28.5,0-1.25-1.56-4.36-2.69-6.38-1.95-3.48-4.82-5.77-8.17-7.85-2.93-1.82-6.13-2.89-9.14-4.25,0-.54,0-.87,0-1.25l8.36-1.39,77.68,77.69c-5.84.63-11.2,2.9-17,3.3-1.78,2.14-4.89-.16-6.67,2-2.31-.47-4.39.63-6.58,1-2.36.38-4.83.35-7.07,1.07-6.16,2-12.6,2.58-18.82,4.11-5.28,1.31-10.88,1.39-15.88,3.83-4.36-.18-8.49,1.3-12.63,2.18-5.31,1.13-10.8,1.62-16,3.65-1.8.71-4,.59-6,1.06-4.73,1.1-9.53,1.84-14.27,3-2.88.69-5.81,1-8.7,2-2.66.9-5.84.34-8.47,1.29s-5.21.94-7.76,1.76-5.37.66-8,1.15a18.22,18.22,0,0,0-5.31,1.64c-1.67.89-3.52-.47-5.14.94-1.46,1.28-4-.62-5.4,1.38-4.37-.26-8.38,1.64-12.66,2.1-3.68.4-7.26,1.73-10.91,2.56-2.13.49-4.31.73-6.47,1.25-3,.73-6.11,1.34-9.17,2a56.66,56.66,0,0,0-8.7,2c-2.48.92-5.38.62-8,1.19s-5.26.69-7.78,1.71c-1.88.77-4,0-6.05,1.12-1.72.91-4,.75-6,1.13s-4.57.41-6.37,1.46-4.4-.59-5.89,1.53c-4.37-.24-8.44,1.44-12.64,2.16-3.64.62-7.46.86-10.92,2.52-1.85.9-4.24-.39-5.95,1.32-6,.28-11.88,2-17.71,3.24-5.29,1.14-10.73,1.86-15.92,3.67-2.51.87-5.38.63-8.05,1.12-3.7.67-7.36,1.52-11,2.35-2.12.48-4.2,1.41-6.33,1.56-6,.42-11.87,2.08-17.7,3.31-5.29,1.12-10.66,2.32-15.95,3.53-4.1.93-8.4,1.63-12.59,2.39a66.22,66.22,0,0,0-10.88,2.61c-1.91.69-4.23-.38-6,1.22-4.34-.08-8.37,1.67-12.65,2.18a48.71,48.71,0,0,0-8.57,2.17c-2.26.7-4.93-.31-6.79,1.65-3.4-.18-6.61.82-9.81,1.67a95.45,95.45,0,0,1-9.57,2.1c-4.22.68-8.4,1.67-12.61,2.39-3.63.62-7.46.86-10.91,2.53-1.86.89-4.24-.39-6,1.31-6,.27-11.7,2.81-17.76,3-3.33,1.91-7.26,1.54-10.81,2.83-2.1.76-4.69.42-7.05,1.1s-5.12.08-7,1.24c-2.23,1.41-5-.32-6.77,1.83-4.11-.6-7.67,1.83-11.67,2.09-2.92.19-5.76,1.36-8.68,1.88s-5.87,1.58-8.68,1.8c-4,.32-7.64,2.18-11.66,2.3a18.65,18.65,0,0,0-6,1.17c-1.92.77-4.1-.1-5.5,1.11-1.81,1.57-4.42-.58-5.85,1.65-4.26-.54-8.11,1.48-12.13,2.23s-8,1.1-11.85,2.63c-2.1.83-4.69.12-7.07,1.05-2,.78-4.8.11-6.43,1.25-2.09,1.46-4.38.14-6.44,1.57-1.51,1-3.93.65-6,1.13-6.09,1.42-12.25,2.52-18.36,3.92-4.1.94-8.45,1.47-12.58,2.39-5.31,1.18-10.84,1.49-16,3.61-1.86.77-4,.52-6,1a78.36,78.36,0,0,1-8.77,1.81,48,48,0,0,0-8.87,1.59c-5.24,1.74-10.67,2.36-16,3.58-4.11.93-8.41,1.62-12.59,2.41a56.16,56.16,0,0,0-10.85,2.66c-1.71.69-3.7.56-5.57,1-4.58,1-9.17,2.08-13.75,3-4.17.81-8.47,1.46-12.6,2.38-5.31,1.18-10.85,1.45-16,3.6-1.87.78-4,.5-6,1a71.54,71.54,0,0,1-8.78,1.81,48.06,48.06,0,0,0-8.86,1.6c-5.23,1.75-10.67,2.35-16,3.57-4.1,1-8.41,1.62-12.58,2.42a69.6,69.6,0,0,0-10.87,2.62c-2.19.79-4.67.79-7,1.14l-77.56-77.58,59-12.27c-1.45,3.26-1,6.6-1,9.92s0,6.67,0,10c0,3.5.2,7-.05,10.5a14.24,14.24,0,0,0,3.32,10.11c3.52,4.42,8.32,7.17,13.52,9.48,4.73,2.1,9.78,2.9,14.55,4.71a5.6,5.6,0,0,0,1.43.18c5.85.6,11.69,1.48,17.58,1,2.37-.21,4.73.59,7.18-.8,1.85-1,4.38.22,6.67-.74,2.13-.89,4.62-.88,6.9-1.46a29.63,29.63,0,0,0,6.16-2c5.69-2.89,11.42-5.93,15.3-11.18a12.62,12.62,0,0,0,2.45-7.46c0-9.17-.07-18.33,0-27.5,0-3.38-1.6-6.12-3.44-8.56A22.36,22.36,0,0,0-73.23,440a59.7,59.7,0,0,0-8.36-4c-.46-.17-.78-.73-1.39-1.34,24.45-4.51,48.3-9.64,72.66-14.33-1.63,2.88-1.17,5.94-1.18,9,0,7.17.15,14.34-.07,21.5A15,15,0,0,0-7.74,461.2c3.52,4.2,8.25,6.66,13.22,9,4.72,2.23,9.89,2.61,14.51,4.82.14.07.34,0,.5,0,3.86.33,7.72.79,11.59,1s7.74.52,11.47-.09c4.2-.68,8.51-.87,12.61-2.08a73.72,73.72,0,0,0,11.38-3.89,38.92,38.92,0,0,0,11-7.34,15.94,15.94,0,0,0,5-12c0-8.17-.14-16.34,0-24.5.09-4.09-1.6-7.38-3.92-10.38-3-3.81-7.94-6.81-13.36-8.73a17.75,17.75,0,0,1-2.78-1.56l.07-.78,72.26-14.36-1.32,2.57c0,9,.16,18.32-.08,27.64a15.77,15.77,0,0,0,3.32,10.14c3.33,4.41,8.11,7.07,13.06,9.39s10,3.11,15,4.8a3.66,3.66,0,0,0,.92.18c3.7.35,7.39.81,11.09,1s7.77.61,11.47-.11c4.46-.86,9.05-.83,13.45-2.43,4.05-1.47,8.4-2.06,12.22-4.32,3.41-2,6.88-3.81,9.75-6.7a15.64,15.64,0,0,0,4.8-11.57c0-8.17-.17-16.34.06-24.5a15.42,15.42,0,0,0-3.45-10.07,23,23,0,0,0-7.32-6.32,60.41,60.41,0,0,0-8.37-4C210,375.85,209.63,375.3,209,374.65Z" transform="translate(221.38 -279.83)"/><path class="cls-1" d="M-137.39,593.2V543.13c2.79-.68,5.62-1.54,8.51-2,3.1-.54,6.14-1.3,9.19-1.91a60.47,60.47,0,0,0,8.71-2c1.83-.64,4-.5,6-1.08,2.43-.69,5.41-.09,7.46-1.26,2.25-1.28,5,.24,6.77-1.82,2.93.26,5.57-1,8.33-1.6s5.66-.78,8.42-1.44c3.53-.84,7.2-1.24,10.62-2.18s7-1,10.4-2.61c1.65-.78,4-.65,6-1.08,3.06-.65,6.12-1.35,9.18-2a60.47,60.47,0,0,0,8.71-2c1.85-.65,4-.59,6.05-1.07,4.72-1.09,9.5-2.22,14.26-2.91,6-.86,11.67-2.76,17.7-3.41a49.31,49.31,0,0,0,11.87-2.55c2.19-.81,4.68-.75,7-1.25,4-.87,7.94-1.68,11.89-2.67,3.8-1,7.69-1.57,11.55-2.31,1.85-.35,4-.25,5.51-1.12s2.75-.7,4.15-.91,2.72-.68,4.09-1c5.39-1.1,10.87-1.86,16.13-3.37,2.26-.65,4.63-.45,6.85-1.53,1.77-.87,4-.77,6-1.11,1.86-.32,3.72-.66,5.58-1,2-.37,3.92-1.12,6.09-1.13,1.73,0,3.42-1.36,5.21-1.76a57.91,57.91,0,0,1,7.55-1.08,40.73,40.73,0,0,0,8.26-1.81c2-.59,4-.08,6.06-1.08s4.75-.51,7-1.23c2.06-.66,4.43-.35,6.2-1.91,4.2.23,8.15-1.23,12.15-2.1,4.59-1,9.44-.77,13.8-2.86,4.24.5,8-1.78,12.13-2.2a50.45,50.45,0,0,0,8.69-1.85c2.7-.78,5.65-.49,8.19-2,4.25.52,8-1.79,12.14-2.19a48.56,48.56,0,0,0,8.68-1.86c2.7-.78,5.66-.46,8.19-2,4.25.55,8-1.79,12.14-2.16a61.67,61.67,0,0,0,10.63-2.08c3.42-.94,7.24-.62,10.32-2.78,4.19.19,8.13-1.29,12.15-2.08,5.51-1.09,11.11-1.83,16.5-3.57,2.07-.67,4.33-.64,6.47-1.28,1.63-.48,3.4.15,5.13-1,1.2-.78,3.05.31,4.63-.9,1.32-1,3.28-.21,5.09-.91a24.27,24.27,0,0,1,6.47-1.24c4-.3,7.57-2.42,11.62-2.18,1.65-2,4.25-.24,6.34-1.71,1.62-1.14,4.38-.52,6.44-1.23,3.56-1.22,7.35-1.42,10.88-2.7,1.92-.69,4-.1,6.06-1.09s4.76-.49,7-1.23c2.06-.69,4.45-.33,6.21-1.91,4.2.21,8.13-1.28,12.15-2.08,5.52-1.08,11.11-1.86,16.51-3.56a48.64,48.64,0,0,1,6.94-1.35c2.52-.4,5.41,0,7.49-1.18,2.26-1.25,4.62-.49,6.9-1.53,1.78-.82,4.27-.91,6.45-1.28,4.17-.72,8.26-1.72,12.33-2.83,2-.54,4-.2,6.07-1,2.43-1,5.45-.44,8-1.23,5.24-1.62,10.84-1.55,16-3.7,1.87-.78,4-.51,6.05-1a75.31,75.31,0,0,1,8.77-1.81,47.49,47.49,0,0,0,8.87-1.59c5.23-1.75,10.67-2.36,16-3.58,4.1-.94,8.4-1.62,12.58-2.41a66.67,66.67,0,0,0,10.87-2.63c1.86-.68,4-.53,6-1.05,4.38-1.11,8.86-2,13.27-2.9,4.14-.87,8.46-1.49,12.59-2.39,5.32-1.17,10.8-1.64,16-3.53,2-.72,4.31-.81,6.48-1.27,2.48-.52,5.24-.23,7.52-1.17s5.19.06,7.22-1.87c3.86.06,7.46-1.31,11.18-2,5.43-.95,10.84-2.11,16.21-3.25s10.88-1.35,15.88-3.78c4.36.18,8.49-1.31,12.64-2.18,5.31-1.12,10.81-1.6,15.95-3.63,1.85-.73,4-.59,6-1.05,6.1-1.39,12.25-2.54,18.36-3.93,4.11-.93,8.46-1.47,12.59-2.38,5.31-1.17,10.83-1.54,16-3.61,1.63-.66,3.6-.49,5.5-.71V413c-2.79.67-5.64,1.4-8.52,2a54.17,54.17,0,0,0-5.57,1.05c-4.65,1.53-9.57,1.8-14.24,3.06-5.28,1.43-10.81,1.65-15.95,3.7-1.85.74-4,.14-6.05,1.09-1.8.84-4,.77-6,1.11-1.86.32-3.72.73-5.59,1-2,.28-4.1.76-6,1.22-3.19.74-6.38,1.45-9.6,2.09s-6.29,1-9.24,1.88c-5.25,1.51-10.88,1.4-15.89,3.83-4.35-.18-8.49,1.31-12.63,2.18-5.31,1.12-10.81,1.6-16,3.64-1.83.72-4,.58-6,1.05-6,1.37-12.24,1.75-18.19,3.27-3.59.92-7.31,1.37-10.85,2.7-1.81.67-4,.62-6.05,1.07-5.95,1.31-12,1.93-17.88,3.93-1.88.64-4,.26-6.06,1.07-1.86.75-4,.75-6.05,1.09-1.86.32-3.72.66-5.59,1s-3.91,1.12-6.08,1.13c-1.74,0-3.42,1.42-5.21,1.73-2,.36-4.06.27-6.08,1.06s-4,.74-6.05,1.08-3.73.66-5.59,1c-2,.38-3.92,1.11-6.09,1.13-1.73,0-3.41,1.44-5.2,1.74-2,.33-4,.55-6.08,1-4.73,1.09-9.52,1.9-14.27,2.94-2.74.6-5.53,1.18-8.3,1.75s-5.64.83-8.41,1.45c-3.54.8-7.18,1.29-10.62,2.19s-7.05,1-10.4,2.59c-1.7.79-4,.64-6,1.09-4.74,1.06-9.52,1.9-14.27,2.94-2.74.6-5.54,1.16-8.3,1.75s-5.65.79-8.42,1.45c-3.53.84-7.19,1.25-10.62,2.18s-7.22.65-10.32,2.76c-2.31-.39-4.39.65-6.58,1-6.1,1-12.17,2.08-18.22,3.21-4.59.86-9.09,2.37-13.79,2.81-2,2-4.86.5-7.27,1.83-2.08,1.15-5.13.39-7.46,1.26-5.16,1.94-10.72,2-15.91,3.82-2.5.87-5.37.64-8,1.12-3.71.65-7.53,1.09-11,2.43-2.13.82-4.66-.52-6.36,1.54-6,.28-11.9,1.91-17.71,3.22-5.29,1.2-10.65,2.35-15.94,3.55-4.11.93-8.4,1.62-12.59,2.39a74,74,0,0,0-10.9,2.58c-1.94.68-4,0-6.05,1.13-1.68,1-4,.81-6,1.13-2.19.34-4.76.08-6.49,1.16-1.89,1.18-4.33-.12-5.77,1.84-4.2-.19-8.13,1.29-12.15,2.08-5.52,1.08-11.15,1.71-16.48,3.63-1.94.7-4.26-.43-6,1.29-6,.3-11.88,2-17.7,3.23-5.29,1.15-10.66,2.35-15.95,3.55-4.11.92-8.41,1.59-12.59,2.39a71.37,71.37,0,0,0-10.88,2.59c-1.93.7-4,0-6.06,1.12-1.7.93-4,.8-6,1.12-2.19.34-4.68.13-6.5,1.15s-4.28,0-5.75,1.85c-4.37-.26-8.47,1.34-12.65,2.15-5.8,1.13-11.87,1.27-17.37,3.85-4.19-.18-8.13,1.28-12.15,2.09-5.51,1.11-11.16,1.61-16.47,3.65-1.92.73-4.25-.41-6,1.26C9.59,562,5.15,563.51.63,564.27c-5.31.89-10.63,2.43-15.93,3.55-4.13.88-8.41,1.6-12.59,2.38-3.63.68-7.45.88-10.91,2.56-1.83.89-4,.51-6,1.06a67.1,67.1,0,0,1-8.79,1.8,53.34,53.34,0,0,0-8.84,1.61c-5.24,1.64-10.66,2.39-16,3.59-4.11.93-8.4,1.65-12.59,2.4a64.48,64.48,0,0,0-10.88,2.61c-1.9.7-4,.55-6,1-6.07,1.47-12.34,2-18.33,4.08-2.36.81-5,.69-7.55,1.11A27.43,27.43,0,0,0-137.39,593.2Z" transform="translate(221.38 -279.83)"/><path class="cls-1" d="M-218.4,511.52V465.77l77.78,77.79V589.3Z" transform="translate(221.38 -279.83)"/><path class="cls-1" d="M576.46,300.41c3.35-2.69,5.64-5.89,9-8.06,3.88-2.46,8.17-3.65,12.33-5.26,2.16-.84,4.57-1,6.78-1.73s4.9.49,6.94-1.32h17c2,1.6,4.4.64,6.57,1a61.12,61.12,0,0,1,6.67,2,64.14,64.14,0,0,1,6.15,2c5.45,2.35,11.06,4.37,14.3,10.06,1.3,2.3,2.58,4.5,2.18,7.06-.43,2.74-1.17,5.48-3.2,7.65-3.66,3.88-8.33,6.08-13.08,8.23-3.84,1.73-8,2.29-11.93,3.75a3.17,3.17,0,0,1-.91.21c-3.69.35-7.38.81-11.07,1a65.67,65.67,0,0,1-11.48,0c-9.27-1.23-18.39-3.06-26.73-7.79-4.55-2.59-8.29-5.47-9.83-10.81-.61-2.13-1.32-3.87.23-5.82C576.73,302.13,576.46,301.25,576.46,300.41Z" transform="translate(221.38 -279.83)"/><path class="cls-1" d="M430.64,330.31c3.07-2.55,5.47-5.89,9.05-8.09,3.89-2.39,8.17-3.65,12.37-5.14s8.85-1.83,13.26-2.93c2.5-.62,5.32.11,7.95-.16,5.44-.56,10.86.25,16,1.25,8,1.55,15.88,4.2,22.7,8.93a15.35,15.35,0,0,1,6.36,9.78,11.59,11.59,0,0,1-3,9.67c-3.48,4.06-8.21,6.33-13,8.38a79,79,0,0,1-12,3.64,10.61,10.61,0,0,1-1.33.39c-3.69.35-7.37.8-11.07,1s-7.43.59-11-.1c-4.75-.92-9.64-.84-14.33-2.71-4.28-1.71-8.71-2.95-12.9-5a18.76,18.76,0,0,1-8.83-8.34c-1.16-2.32-2.78-5.15-.75-8.07A6.23,6.23,0,0,0,430.64,330.31Z" transform="translate(221.38 -279.83)"/><path class="cls-1" d="M284.49,360.36c3.32-2.55,5.53-5.82,9-8,3.88-2.42,8.14-3.71,12.31-5.3,2.16-.82,4.6-.93,6.79-1.7s4.9.48,6.93-1.35h17c2,1.56,4.57.34,6.52,1.14s4.29.52,6.28,1.77a19.41,19.41,0,0,0,6.11,2.05c4.22.94,7.69,3.34,11.13,5.68a14.9,14.9,0,0,1,5.82,9c.85,3.62-.63,7.23-3.12,10.08-3.51,4-8.27,6.18-13,8.29-3.85,1.71-8,2.33-11.95,3.73a3.59,3.59,0,0,1-.89.25c-3.69.35-7.37.81-11.07,1s-7.75.55-11.47-.09c-4.47-.77-9.07-.87-13.44-2.42-4.21-1.5-8.63-2.51-12.53-4.7-3.55-2-7.13-4-9.17-8-1.62-3.18-3.33-6.11-1.21-9.69C284.68,361.76,284.49,361.15,284.49,360.36Z" transform="translate(221.38 -279.83)"/><path class="cls-1" d="M138.49,390.36c3.28-2.49,5.53-5.73,8.93-7.94,3.86-2.51,8.18-3.62,12.3-5.32,2.14-.88,4.64-.85,6.8-1.68s4.62-.35,7-1.15c2.84-1,6.27-.45,9.41-.17s6.25-1.24,9.1.92c.21.16.65.05,1,0,5.39-.54,10.19,1.84,15.14,3.26a42.11,42.11,0,0,1,11.59,5.75,16.15,16.15,0,0,1,6.59,9.58c.93,3.57-.63,7.17-3,10.1-3.32,4-8.19,5.78-12.53,8.31-2.55-.41-4.18,1.87-6.64,2.19-2,.25-4.43.21-6.2,1.8-.09.08-.32,0-.49,0-3.85.33-7.71.79-11.57,1s-7.76.58-11.46-.1c-4.31-.8-8.78-.79-13-2.39-4-1.54-8.37-2.3-12.11-4.51-3.49-2.06-7-3.88-9.32-7.73-2.14-3.55-3.28-6.7-1.52-10.57C138.6,391.43,138.49,391,138.49,390.36Z" transform="translate(221.38 -279.83)"/><path class="cls-1" d="M-7.51,420.5c3.07-2.49,5.41-5.83,9-8.09,3.87-2.47,8.15-3.7,12.3-5.32,2.16-.84,4.61-.91,6.79-1.69s4.91.48,6.93-1.36h17c2,1.54,4.39.66,6.57,1.06A56.37,56.37,0,0,1,57.7,407c2.06.65,4.17,1.2,6.16,2,5.48,2.28,11.13,4.27,14.27,10,1.46,2.68,2.74,4.86,2.3,7-.56,2.72-1.14,5.5-3.17,7.67C73.63,437.69,69,440,64.2,442.05c-3.84,1.69-8,2.33-11.94,3.72a4.11,4.11,0,0,1-.89.26c-3.69.35-7.38.81-11.07,1s-7.76.58-11.47-.1c-4.75-.87-9.63-1-14.31-2.74-4.31-1.64-8.85-2.7-12.86-5.12-3-1.8-5.71-3.62-7.69-6.8-2.18-3.52-3.26-6.71-1.5-10.58A3.31,3.31,0,0,0-7.51,420.5Z" transform="translate(221.38 -279.83)"/><path class="cls-1" d="M-110.12,477.31c-5.28-.44-10.4-.38-15.28-1.42a118.49,118.49,0,0,1-11.92-3.68,50,50,0,0,1-10.74-5.39c-3.3-2-5.29-5.63-6.29-9.29a8.52,8.52,0,0,1,2.31-8.4c2.42-2.39,4.65-4.93,7.62-6.83,4-2.56,8.45-3.78,12.83-5.24,2.06-.69,4.25-1,6.26-1.77s4.57.69,6.53-1.19c.44-.42,1.61-.06,2.44-.06,3.5,0,7-.1,10.49,0a70.71,70.71,0,0,1,29,7.21c3.62,1.78,7,4.08,9.21,7.92,2.75,4.72,2.83,10.29-.82,14.34s-8.49,6.37-13.42,8.56c-3.86,1.72-8.07,2.17-11.92,3.79a3.25,3.25,0,0,1-.94.16Z" transform="translate(221.38 -279.83)"/><path class="cls-1" d="M664.49,315.07c0,6.2.41,12.34-.14,18.4-.37,4-3.3,7.12-6.59,9.57a48.12,48.12,0,0,1-13.7,6.64,67.38,67.38,0,0,1-12,2.55,105.8,105.8,0,0,1-15.58.76c-2.06,0-4.11.37-6.26-.52-1.7-.71-3.9-.11-5.79-.49a51.34,51.34,0,0,1-5.68-1.93c-1.76-.57-3.55-1.07-5.34-1.56A35.22,35.22,0,0,1,582.26,343c-4.15-3-6.75-7.12-6.77-12.49,0-5.11,0-10.22,0-16.62,2.93,5,7,6.82,10.57,9,3.35,2,7.39,3.07,11.24,4.1s7.87,2.65,12.13,2.07c5.74,2.2,11.71.81,17.55.86,4,0,8.13-1,12.13-1.91a77.85,77.85,0,0,0,11.11-3.29,37.62,37.62,0,0,0,7.23-4.18C659.8,318.92,662,317,664.49,315.07Z" transform="translate(221.38 -279.83)"/><path class="cls-1" d="M518.49,343.94c0,7.45.44,13.76-.17,20-.35,3.63-3.15,6.58-6.11,8.87-4,3.08-14.28,7.19-19.52,8.3A103.07,103.07,0,0,1,480,383a78.57,78.57,0,0,1-13.46,0c-2.34-.2-4.69-.73-7.06-1a20.18,20.18,0,0,1-6.71-1.8c-2-1-4.45-1.28-6.61-2.12s-4.12-2.08-6.26-2.93a17.92,17.92,0,0,1-9-8.15,9.8,9.8,0,0,1-1.39-4.38c-.15-5.77-.06-11.55-.06-18.35,2.95,4.32,6.61,6.36,10.14,8.34a43,43,0,0,0,11.6,4.47c4,.89,7.88,2.62,12.14,2,6.08,2.18,12.37.46,18.54,1,2.4-1.31,5.12-.52,7.54-1.13s4.81-1.18,7.19-1.87,5-.94,7.11-2.08c4.12-2.22,8.52-4.07,11.85-7.55C516.38,346.6,517.05,345.68,518.49,343.94Z" transform="translate(221.38 -279.83)"/><path class="cls-1" d="M372.49,394.56a58.74,58.74,0,0,1-3.55,5.47c-3.18,3.91-7.87,5.68-12.16,7.94-2,1.06-4.47,1.24-6.6,2.12s-4.41.4-6.19,1.93c-.1.08-.33,0-.49,0-3.85.33-7.7.79-11.56,1s-7.77.61-11.45-.11c-4.31-.84-8.81-.65-13-2.31-4-1.59-8.27-2.47-12.09-4.54s-7.61-4.33-10-8.4a11.92,11.92,0,0,1-1.78-4.71,153.73,153.73,0,0,1,.16-17.94c2.58,3.9,6.7,5.68,10.29,7.9,3.33,2.05,7.39,3.06,11.24,4.08s7.87,2.66,12.13,2.07c2.69,1.71,5.7.86,8.57,1a62.44,62.44,0,0,0,9,0,105.55,105.55,0,0,0,12.14-2c3.76-.85,7.65-1.68,11.07-3.35,5-2.46,10.13-5.06,13.75-9.63.29.31.51.43.51.55C372.49,381.88,372.49,388.2,372.49,394.56Z" transform="translate(221.38 -279.83)"/><path class="cls-1" d="M137.49,404.15c2.94,4.39,6.63,6.41,10.17,8.39a43.19,43.19,0,0,0,11.6,4.47c4,.9,7.88,2.61,12.14,2,5.74,2.12,11.71.85,17.55.87,4,0,8.13-1,12.13-1.92,3.77-.84,7.68-1.62,11.09-3.3,5-2.5,10.17-5.08,14.32-10.35,0,6.91.34,13-.12,19.1-.31,3.94-3.14,6.95-6.19,9.35-4,3.14-14.33,7.19-19.52,8.29A101.19,101.19,0,0,1,188,443c-4.46.38-9.09.7-13.44-.08-4.58-.82-9.29-.9-13.82-2.67-4.29-1.67-8.72-2.91-12.88-5.07a20.89,20.89,0,0,1-8.94-8.23,9.94,9.94,0,0,1-1.37-4.39C137.4,416.74,137.49,411,137.49,404.15Z" transform="translate(221.38 -279.83)"/><path class="cls-1" d="M-8.51,435.41c2.89,3.55,7,5.49,10.73,7.42a62.38,62.38,0,0,0,11.67,4.38,122.86,122.86,0,0,0,13.8,2.64,58.17,58.17,0,0,0,15.43.08,84,84,0,0,0,20.17-4.24c6.38-2.32,12.68-5.87,16.59-10.54a.87.87,0,0,1,.34.14c.12.1.26.25.26.38,0,6.31,0,12.63,0,18.89a47.7,47.7,0,0,1-3.63,5.54c-3.4,3.88-8,5.9-12.65,7.95-3.84,1.71-8,2.33-11.94,3.71a4.06,4.06,0,0,1-.88.27c-3.86.35-7.7.8-11.57,1s-7.75.58-11.44-.1c-4.31-.8-8.78-.78-12.95-2.39-4-1.55-8.34-2.34-12.11-4.5s-7.45-4-9.6-8.11c-1.12-2.13-2.25-4.1-2.24-6.57C-8.49,446-8.51,440.72-8.51,435.41Z" transform="translate(221.38 -279.83)"/><path class="cls-1" d="M-154.51,465.43c2.88,3.53,7,5.46,10.71,7.4a59.6,59.6,0,0,0,11.67,4.37,114.86,114.86,0,0,0,13.8,2.64c5.53.83,11.28.2,16.94.2,2.28-1.82,5.12-.34,7.48-1.2s4.53-1.12,6.73-1.84c4.24-1.38,8.54-2.51,12.4-5.05,3.14-2.07,6.38-3.94,9.13-7.61v20.43a51.82,51.82,0,0,1-3.47,5.32c-3.22,3.87-8,5.51-12.16,8-2.54-.41-4.17,1.87-6.63,2.19-2,.26-4.44.19-6.19,1.8-.09.08-.32,0-.49,0-3.85.33-7.7.79-11.56,1s-7.75.58-11.45-.1c-4.31-.8-8.79-.76-13-2.38-4-1.56-8.32-2.35-12.1-4.5s-7.44-4-9.61-8.1c-1.13-2.13-2.26-4.09-2.25-6.57C-154.49,476.05-154.51,470.74-154.51,465.43Z" transform="translate(221.38 -279.83)"/></svg>