<svg id="Layer_1" data-name="Layer 1" xmlns="http://www.w3.org/2000/svg" viewBox="0 0 456.77 277.1"><defs><style>.cls-1{fill:#fff;}</style></defs><path d="M222.52,533,60.11,370.58V317c1.54-.69,3.08-1.93,4.65-2C70.69,315,76.11,312.13,82,312c1.68-2.07,4.25-.47,6.35-1.62s4.58-1,6.91-1.37,4.54-.29,6.55-1.08c5.14-2,10.71-2,15.9-3.83,2.66-.92,5.68-.84,9-1.27,2.54-3.48,6.4-6.19,10.48-8.38a52.91,52.91,0,0,1,11.66-4.36c4-1,8.07-1.61,12.1-2.33a69.15,69.15,0,0,1,9.12-.73c3.16-.15,6.59-.79,9.42.19s5.87-.28,8.25,1.78c2.19-.45,4.4.59,6.7-.75,1.63-1,4-.41,6-1.12,2.51-.87,5.4-.55,8-1.18,5-1.21,10.18-1.91,15.15-3.29,1.26-.35,2.48-.41,3.7-.68s2.38-.71,3.59-1c7.5-1.57,15.17-2.38,22.46-4.9,1.64-.57,3.67.72,5.06-1.06,4.84.18,9.28-2.27,14.3-2.11,2.63-3.94,6.71-6.42,10.72-8.72,3.43-2,7.43-2.95,11.24-4.19,4.63-1.51,9.54-1.72,14.28-2.89,3-.74,6.31-.36,9.45-.08s6.27-1.23,9.09.94c2.79-.46,5.4.93,8.08.92a36.48,36.48,0,0,0,9-1.14c3.55-.93,7-2,10.62-1.77L516.89,417.62v55.16c-4.15.75-8.28,1.13-12.17,2.31-2.88.88-5.82,1.2-8.68,1.94-4.09,1.06-8.26,1.87-12.38,2.59s-8.05,1.65-12,2.52c-7,1.52-14.22,2.2-21,4.66-1.88.68-4,.16-6.06,1.08-1.81.82-4,.76-6,1.1-1.86.32-3.72.7-5.58,1-2,.33-4.12.73-6,1.2-3.19.78-6.38,1.46-9.6,2.1s-6.28,1-9.23,1.88c-5.26,1.51-10.88,1.4-15.89,3.83-4.35-.17-8.53,1.21-12.62,2.18-7.3,1.73-14.91,1.95-22,4.67-1.82.69-4,.58-6,1.05-4.73,1.08-9.52,1.83-14.26,3-2.88.69-5.81,1-8.7,2-2.66.89-5.82.35-8.49,1.26-5.19,1.78-10.86,1.47-15.87,3.9-4.35-.17-8.48,1.31-12.62,2.18-5.32,1.12-10.76,1.73-16,3.57-2,.69-4.33.79-6.49,1.24-7.5,1.58-15.14,2.46-22.48,4.85-1.91.62-4,.58-6.06,1-4.89,1.06-9.89,1.69-14.73,3.1A13.1,13.1,0,0,1,222.52,533ZM199,291.37a17.06,17.06,0,0,0,2.74,1.58c5.57,2,10.36,4.86,13.37,8.7,2.34,3,4,6.27,3.95,10.37-.18,8.17-.09,16.33,0,24.5a15.68,15.68,0,0,1-4.94,12A41.72,41.72,0,0,1,202.66,356c-7.59,3.65-15.83,4.77-24,5.91a62.87,62.87,0,0,1-11.48.05c-3.7-.16-7.39-.62-11.09-1a5.29,5.29,0,0,1-.87-.3c-4.87-1.51-9.86-2.54-14.59-4.61-5.21-2.29-10.07-5.08-13.44-9.61A14.31,14.31,0,0,1,124,336.29c.2-8.16,0-16.33.08-24.49a27.18,27.18,0,0,1,.46-3.8c.1-.65.25-1.3.36-1.87L67,318.14l158.71,158.7c4-.88,8.66-1.73,13.21-2.9,4.39-1.12,8.87-1.85,13.29-2.82,4.6-1,9.27-1.79,13.89-2.74s9.21-1.91,13.83-2.82,9-1.54,13.42-2.63,9.12-2.17,13.76-3,9.16-2.05,13.76-2.93,8.83-2.13,13.27-2.91c4.66-.82,9.28-1.8,13.92-2.69s9.21-1.89,13.83-2.81c4.46-.9,8.93-1.78,13.41-2.61s9.19-1.93,13.76-3,9.19-1.89,13.78-2.88c4.44-.95,8.85-2,13.27-2.95,4.58-1,9.22-2.08,13.91-2.69s9.21-2.06,13.93-2.73a132.39,132.39,0,0,0,13.3-2.73c4.55-1.13,9.22-1.69,13.76-3a128.1,128.1,0,0,1,13.78-2.85c4.52-.76,9.13-1.54,13.57-2.47s9.2-1.67,13.24-3.08L353.05,259.07l-8.67,1.47c.79.72,1.13,1.24,1.59,1.41a64.61,64.61,0,0,1,8.36,4,22.52,22.52,0,0,1,7,6c2,2.56,3.74,5.41,3.72,8.94q-.06,13.74,0,27.49a12.5,12.5,0,0,1-2.46,7.46,33,33,0,0,1-15.36,11A83.48,83.48,0,0,1,320.35,332,158.78,158.78,0,0,1,302.76,331a5.59,5.59,0,0,1-1.42-.19c-4.77-1.78-9.83-2.6-14.55-4.7-5.2-2.32-10-5-13.51-9.49a15.14,15.14,0,0,1-3.34-10.12c.25-8,0-16,.11-24a59.69,59.69,0,0,1,.64-6.08c-23.71,4.46-47.54,9.75-71.58,14Zm315,129c-2.13.31-4,.29-5.75.89-5.35,1.9-11,2.5-16.47,3.6-4,.8-7.95,2.27-12.15,2.09-1.5,1.77-4.11.39-5.66,2-2.35-.68-4.31,1-6.58,1.06a33.3,33.3,0,0,0-6.08,1c-2.14.44-4.24,1.05-6.36,1.52-5.35,1.18-10.66,2.73-16.08,3.33a122.72,122.72,0,0,0-12.52,2.52q-8.72,1.88-17.45,3.62c-1.21.25-2.38.72-3.59,1s-2.69-.55-3.65.86c-4-.15-7.63,1.88-11.59,2.21a25.67,25.67,0,0,0-6.49,1.21c-1.81.67-3.77,0-5.08.91-1.59,1.16-3.35.2-4.63.93-1.71,1-3.4.72-5.13.93a30.49,30.49,0,0,0-6.47,1.26c-5.34,1.94-11,2.51-16.46,3.62-4,.81-8,2.26-12.15,2.09-1.51,1.74-4.1.41-5.67,2-2.35-.72-4.31,1-6.58,1.06a14.32,14.32,0,0,0-6,1.06c-2,1.06-4.19.32-6.05,1.1-5.12,2.15-10.65,2.42-16,3.61-4.13.92-8.48,1.45-12.58,2.39-6.1,1.4-12.26,2.51-18.35,3.92-2,.47-4.17.35-6,1.05a67.42,67.42,0,0,1-10.87,2.62c-4.17.8-8.27,2.37-12.62,2.19-2.33,1.83-5.76.2-7.76,2.46v49.41a30.26,30.26,0,0,0,5.18-.93c2.11-.76,4.38-.65,6.45-1.3,5.4-1.7,11-2.48,16.49-3.56,4-.79,8-2.27,12.15-2.08,1.44-2,3.87-.66,5.77-1.84,1.73-1.08,4.29-.82,6.48-1.16,2-.32,4.33-.18,6-1.12,2-1.15,4.11-.45,6-1.13a72.58,72.58,0,0,1,10.88-2.59c4.19-.78,8.48-1.46,12.59-2.38,5.28-1.19,10.64-2.4,15.93-3.55,5.82-1.27,11.66-2.9,17.69-3.23,1.72-2,4.24-.72,6.37-1.51,3.47-1.31,7.27-1.79,11-2.46,2.67-.48,5.66-.11,8-1.21,1.93-.91,3.79-.37,5.57-1.05a64.26,64.26,0,0,1,10.88-2.6c4.18-.79,8.47-1.47,12.58-2.39,5.29-1.19,10.65-2.41,15.93-3.55,5.83-1.25,11.66-2.93,17.7-3.23,1.71-1.7,4-.58,6-1.28,5.33-1.93,11-2.56,16.47-3.64,4-.78,8-2.26,12.14-2.08,1.45-1.92,3.87-.71,5.76-1.85s4.3-.81,6.49-1.15c2-.32,4.07-.6,6.08-1s4.21-1.15,6.35-1.53c3.7-.65,7.3-1.79,11-2.38A55.22,55.22,0,0,0,514,469.7Zm-451-53L221.9,526.3V480.42L63.14,321.66a.9.9,0,0,0-.11.49C63,337.63,63,353.1,63,367.42ZM274,276.3a4.6,4.6,0,0,1,0,1.35c-1.75,3.87-.62,7,1.52,10.57,2.31,3.84,5.84,5.67,9.32,7.72,3.74,2.21,8.08,3,12.11,4.51,4.18,1.6,8.65,1.59,13,2.39,3.7.68,7.64.27,11.46.1s7.72-.63,11.57-1c.17,0,.4.07.49,0,1.76-1.6,4.2-1.53,6.2-1.8,2.46-.33,4.1-2.6,6.64-2.19,4.34-2.53,9.21-4.28,12.53-8.31,2.42-2.93,4-6.53,3.05-10.11a16.2,16.2,0,0,0-6.59-9.57,42.39,42.39,0,0,0-11.59-5.75c-5-1.42-9.76-3.8-15.15-3.26-.33,0-.77.14-1,0-2.84-2.16-6.07-.64-9.1-.92s-6.57-.8-9.4.17c-2.38.81-4.73.27-7,1.15s-4.66.8-6.8,1.68c-4.12,1.7-8.44,2.81-12.3,5.33C279.55,270.58,277.3,273.81,274,276.3Zm-146,30c0,.64.11,1,0,1.3-1.76,3.87-.68,7.07,1.5,10.58,2,3.18,4.72,5,7.69,6.8,4,2.43,8.54,3.48,12.86,5.12,4.67,1.78,9.55,1.88,14.31,2.75,3.71.67,7.64.26,11.46.09s7.39-.62,11.08-1a4,4,0,0,0,.88-.26c3.94-1.39,8.1-2,11.95-3.72,4.78-2.1,9.43-4.36,13.06-8.27,2-2.17,2.61-5,3.16-7.67.44-2.15-.83-4.33-2.29-7-3.14-5.76-8.79-7.75-14.28-10-2-.83-4.09-1.38-6.15-2a57.55,57.55,0,0,0-6.67-1.95c-2.18-.4-4.56.48-6.57-1.06H163c-2,1.84-4.66.55-6.93,1.36s-4.64.86-6.79,1.7c-4.16,1.61-8.43,2.86-12.31,5.3C133.55,300.51,131.33,303.77,128,306.3Zm145-16.22c0,6.82-.1,12.6.06,18.37a9.81,9.81,0,0,0,1.37,4.39,20.69,20.69,0,0,0,8.93,8.23c4.16,2.16,8.6,3.37,12.88,5.08,4.53,1.8,9.24,1.81,13.83,2.66,4.34.8,9,.47,13.43.09A105,105,0,0,0,336.18,327c5.19-1.11,15.53-5.15,19.52-8.29,3.06-2.4,5.89-5.41,6.19-9.35.47-6.07.13-12.2.13-19.1-4.15,5.26-9.28,7.84-14.32,10.33-3.41,1.69-7.32,2.47-11.09,3.31-4,.89-8.08,1.93-12.13,1.92-5.84,0-11.8,1.25-17.55-.87-4.26.58-8.14-1.14-12.14-2a43.16,43.16,0,0,1-11.6-4.46C279.65,296.5,276,294.49,273,290.08ZM216,319.9c-1.44,1.73-2.12,2.64-2.9,3.46-3.32,3.47-7.73,5.32-11.85,7.54-2.13,1.14-4.73,1.4-7.11,2.08s-4.8,1.27-7.19,1.87-5.14-.18-7.53,1.13c-6.17-.54-12.47,1.18-18.55-1-4.26.58-8.13-1.16-12.14-2a42.68,42.68,0,0,1-11.6-4.48c-3.53-2-7.18-4-10.13-8.32,0,6.79-.1,12.57.06,18.35a9.93,9.93,0,0,0,1.39,4.38,18,18,0,0,0,9,8.14c2.14.85,4.12,2.1,6.26,2.93s4.57,1.1,6.61,2.12a19.94,19.94,0,0,0,6.71,1.8c2.38.28,4.72.82,7.06,1a79.6,79.6,0,0,0,13.46,0A103.07,103.07,0,0,0,190.22,357c5.23-1.11,15.57-5.24,19.52-8.3,3-2.29,5.76-5.24,6.11-8.88C216.45,333.63,216,327.33,216,319.9Z" transform="translate(-60.11 -255.97)"/><path class="cls-1" d="M199,291.37l.1-.91c24-4.3,47.87-9.59,71.58-14a59.69,59.69,0,0,0-.64,6.08c-.08,8,.14,16-.11,24a15.14,15.14,0,0,0,3.34,10.12c3.5,4.44,8.31,7.17,13.51,9.49,4.72,2.1,9.78,2.92,14.55,4.7a5.59,5.59,0,0,0,1.42.19A158.78,158.78,0,0,0,320.35,332a83.48,83.48,0,0,0,26.86-5.22,33,33,0,0,0,15.36-11,12.5,12.5,0,0,0,2.46-7.46q-.06-13.74,0-27.49c0-3.53-1.72-6.38-3.72-8.94a22.52,22.52,0,0,0-7-6,64.61,64.61,0,0,0-8.36-4c-.46-.17-.8-.69-1.59-1.41l8.67-1.47L511.62,417.64c-4,1.41-8.72,2.13-13.24,3.08s-9.05,1.71-13.57,2.47A128.1,128.1,0,0,0,471,426c-4.54,1.29-9.21,1.85-13.76,3a132.39,132.39,0,0,1-13.3,2.73c-4.72.67-9.23,2.13-13.93,2.73s-9.33,1.69-13.91,2.69c-4.42,1-8.83,2-13.27,2.95-4.59,1-9.21,1.83-13.78,2.88s-9.14,2.13-13.76,3-8.95,1.71-13.41,2.61c-4.62.92-9.22,1.92-13.83,2.81s-9.26,1.87-13.92,2.69c-4.44.78-8.81,2-13.27,2.91s-9.15,2.11-13.76,2.93-9.2,1.86-13.76,3-8.95,1.74-13.42,2.63-9.22,1.87-13.83,2.82-9.29,1.74-13.89,2.74c-4.42,1-8.9,1.7-13.29,2.82-4.55,1.17-9.17,2-13.21,2.9L67,318.14l57.84-12c-.11.57-.26,1.22-.36,1.87a27.18,27.18,0,0,0-.46,3.8c0,8.16.12,16.33-.08,24.49a14.31,14.31,0,0,0,3.21,10.16c3.37,4.53,8.23,7.32,13.44,9.61,4.73,2.07,9.72,3.1,14.59,4.61a5.29,5.29,0,0,0,.87.3c3.7.35,7.39.81,11.09,1a62.87,62.87,0,0,0,11.48-.05c8.19-1.14,16.43-2.26,24-5.91a41.72,41.72,0,0,0,11.43-7.48,15.68,15.68,0,0,0,4.94-12c-.05-8.17-.14-16.33,0-24.5.09-4.1-1.61-7.37-3.95-10.37-3-3.84-7.8-6.71-13.37-8.7A17.06,17.06,0,0,1,199,291.37Zm247,84.36c0-4.49,0-9,0-13.48a12,12,0,0,0-.69-3.68c-1.64-5-5-8.31-9.24-11.12-3.52-2.34-7.44-3.74-11.24-5.45-1-.44-2.05-.66-3.07-1-2.29-.82-5-.37-7-1.24-2.28-1-4.6.08-6.54-1.09-2.19-1.32-4.51-.64-6.72-.6-4.7.09-9.37-.38-14.11.76-3.48.83-7.09,1.33-10.63,2.14-8.11,1.86-15.4,5.14-21.39,11.1A14.47,14.47,0,0,0,351,362.74c0,8.16.15,16.32-.06,24.47a16.46,16.46,0,0,0,4.82,12c4.6,5,10.67,7.56,16.92,9.76,1.89.66,3.78,1.37,5.72,1.86a33.47,33.47,0,0,0,6,1.09,59.4,59.4,0,0,1,6.1.91A42.68,42.68,0,0,0,400,413c3-.15,6.21.81,9.08-1,4.08.48,7.8-1.11,11.66-2a42.26,42.26,0,0,0,20.54-10.74A15,15,0,0,0,446,387.72C446,383.72,446,379.73,446,375.73ZM300,405.58c0-4.66.12-9.32-.06-14a10.9,10.9,0,0,0-1.36-5.39,28.23,28.23,0,0,0-9.43-9.36c-3.53-2-7.33-3.27-10.9-5.09a23.35,23.35,0,0,0-9.75-1.78c-1.22-1.75-3-.71-4.58-1a35.77,35.77,0,0,0-5.08-1,92.53,92.53,0,0,0-28.24,2.89c-8.54,2.3-16.31,5.66-22.38,12.33a11.94,11.94,0,0,0-3.11,7.66c-.29,9.64-.18,19.31,0,29a10.92,10.92,0,0,0,1.31,4.92c3.13,5.67,8.29,9.35,14,11.79,3.46,1.48,6.92,3.82,11.07,3.41,1.19,2,3.55.56,5.3,1.81,1.46,1,4.24,0,6.15.72s3.87.37,5.79.44a88.29,88.29,0,0,0,25.75-2.85c7.92-2.09,15-5.23,21-11A14.74,14.74,0,0,0,300,418.07C300,413.91,300,409.75,300,405.58Z" transform="translate(-60.11 -255.97)"/><path class="cls-1" d="M514,420.4v49.3a55.22,55.22,0,0,1-8.93,2.35c-3.69.59-7.29,1.73-11,2.38-2.14.38-4.22,1.09-6.35,1.53s-4.05.7-6.08,1c-2.19.34-4.73.1-6.49,1.15s-4.31-.07-5.76,1.85c-4.19-.18-8.12,1.3-12.14,2.08-5.51,1.08-11.14,1.71-16.47,3.64-1.94.7-4.25-.42-6,1.28-6,.3-11.87,2-17.7,3.23-5.28,1.14-10.64,2.36-15.93,3.55-4.11.92-8.4,1.6-12.58,2.39a64.26,64.26,0,0,0-10.88,2.6c-1.78.68-3.64.14-5.57,1.05-2.33,1.1-5.32.73-8,1.21-3.7.67-7.5,1.15-11,2.46-2.13.79-4.65-.51-6.37,1.51-6,.33-11.87,2-17.69,3.23-5.29,1.15-10.65,2.36-15.93,3.55-4.11.92-8.4,1.6-12.59,2.38a72.58,72.58,0,0,0-10.88,2.59c-1.94.68-4,0-6,1.13-1.68.94-4,.8-6,1.12-2.19.34-4.75.08-6.48,1.16-1.9,1.18-4.33-.11-5.77,1.84-4.19-.19-8.12,1.29-12.15,2.08-5.51,1.08-11.09,1.86-16.49,3.56-2.07.65-4.34.54-6.45,1.3a30.26,30.26,0,0,1-5.18.93V480.44c2-2.26,5.43-.63,7.76-2.46,4.35.18,8.45-1.39,12.62-2.19a67.42,67.42,0,0,0,10.87-2.62c1.86-.7,4-.58,6-1.05,6.09-1.41,12.25-2.52,18.35-3.92,4.1-.94,8.45-1.47,12.58-2.39,5.31-1.19,10.84-1.46,16-3.61,1.86-.78,4,0,6.05-1.1a14.32,14.32,0,0,1,6-1.06c2.27-.07,4.23-1.78,6.58-1.06,1.57-1.59,4.16-.26,5.67-2,4.19.17,8.13-1.28,12.15-2.09,5.49-1.11,11.12-1.68,16.46-3.62a30.49,30.49,0,0,1,6.47-1.26c1.73-.21,3.42,0,5.13-.93,1.28-.73,3,.23,4.63-.93,1.31-.95,3.27-.24,5.08-.91a25.67,25.67,0,0,1,6.49-1.21c4-.33,7.56-2.36,11.59-2.21,1-1.41,2.42-.6,3.65-.86s2.38-.72,3.59-1q8.73-1.75,17.45-3.62a122.72,122.72,0,0,1,12.52-2.52c5.42-.6,10.73-2.15,16.08-3.33,2.12-.47,4.22-1.08,6.36-1.52a33.3,33.3,0,0,1,6.08-1c2.27-.05,4.23-1.74,6.58-1.06,1.55-1.61,4.16-.23,5.66-2,4.2.18,8.13-1.29,12.15-2.09,5.5-1.1,11.12-1.7,16.47-3.6C510,420.69,511.89,420.71,514,420.4Z" transform="translate(-60.11 -255.97)"/><path class="cls-1" d="M63,367.42c0-14.32,0-29.79,0-45.27a.9.9,0,0,1,.11-.49L221.9,480.42V526.3Z" transform="translate(-60.11 -255.97)"/><path class="cls-1" d="M274,276.3c3.28-2.49,5.53-5.72,8.92-7.93,3.86-2.52,8.18-3.63,12.3-5.33,2.14-.88,4.64-.84,6.8-1.68s4.62-.34,7-1.15c2.83-1,6.27-.45,9.4-.17s6.26-1.24,9.1.92c.21.16.65.05,1,0,5.39-.54,10.19,1.84,15.15,3.26A42.39,42.39,0,0,1,355.26,270a16.2,16.2,0,0,1,6.59,9.57c.92,3.58-.63,7.18-3.05,10.11-3.32,4-8.19,5.78-12.53,8.31-2.54-.41-4.18,1.86-6.64,2.19-2,.27-4.44.2-6.2,1.8-.09.08-.32,0-.49,0-3.85.33-7.71.8-11.57,1s-7.76.58-11.46-.1c-4.31-.8-8.78-.79-13-2.39-4-1.54-8.37-2.3-12.11-4.51-3.48-2.05-7-3.88-9.32-7.72-2.14-3.55-3.27-6.7-1.52-10.57A4.6,4.6,0,0,0,274,276.3Z" transform="translate(-60.11 -255.97)"/><path class="cls-1" d="M128,306.3c3.31-2.53,5.53-5.79,9-8,3.88-2.44,8.15-3.69,12.31-5.3,2.15-.84,4.6-.92,6.79-1.7s4.9.48,6.93-1.36h17c2,1.54,4.39.66,6.57,1.06a57.55,57.55,0,0,1,6.67,1.95c2.06.64,4.16,1.19,6.15,2,5.49,2.28,11.14,4.27,14.28,10,1.46,2.68,2.73,4.86,2.29,7-.55,2.72-1.14,5.5-3.16,7.67-3.63,3.91-8.28,6.17-13.06,8.27-3.85,1.7-8,2.33-11.95,3.72a4,4,0,0,1-.88.26c-3.69.35-7.38.81-11.08,1s-7.75.58-11.46-.09c-4.76-.87-9.64-1-14.31-2.75-4.32-1.64-8.86-2.69-12.86-5.12-3-1.8-5.71-3.62-7.69-6.8-2.18-3.51-3.26-6.71-1.5-10.58C128.13,307.33,128,306.94,128,306.3Z" transform="translate(-60.11 -255.97)"/><path class="cls-1" d="M273,290.08c2.93,4.41,6.63,6.42,10.17,8.41a43.16,43.16,0,0,0,11.6,4.46c4,.89,7.88,2.61,12.14,2,5.75,2.12,11.71.85,17.55.87,4,0,8.14-1,12.13-1.92,3.77-.84,7.68-1.62,11.09-3.31,5-2.49,10.17-5.07,14.32-10.33,0,6.9.34,13-.13,19.1-.3,3.94-3.13,6.95-6.19,9.35-4,3.14-14.33,7.18-19.52,8.29a105,105,0,0,1-12.66,1.87c-4.46.38-9.09.71-13.43-.09-4.59-.85-9.3-.86-13.83-2.66-4.28-1.71-8.72-2.92-12.88-5.08a20.69,20.69,0,0,1-8.93-8.23,9.81,9.81,0,0,1-1.37-4.39C272.92,302.68,273,296.9,273,290.08Z" transform="translate(-60.11 -255.97)"/><path class="cls-1" d="M216,319.9c0,7.43.43,13.73-.17,19.94-.35,3.64-3.15,6.59-6.11,8.88-4,3.06-14.29,7.19-19.52,8.3a103.07,103.07,0,0,1-12.66,1.87,79.6,79.6,0,0,1-13.46,0c-2.34-.19-4.68-.73-7.06-1a19.94,19.94,0,0,1-6.71-1.8c-2-1-4.45-1.28-6.61-2.12s-4.12-2.08-6.26-2.93a18,18,0,0,1-9-8.14,9.93,9.93,0,0,1-1.39-4.38c-.16-5.78-.06-11.56-.06-18.35,3,4.31,6.6,6.35,10.13,8.32a42.68,42.68,0,0,0,11.6,4.48c4,.88,7.88,2.62,12.14,2,6.08,2.18,12.38.46,18.55,1,2.39-1.31,5.12-.52,7.53-1.13s4.81-1.18,7.19-1.87,5-.94,7.11-2.08c4.12-2.22,8.53-4.07,11.85-7.54C213.9,322.54,214.58,321.63,216,319.9Z" transform="translate(-60.11 -255.97)"/><path d="M446,375.73c0,4,0,8,0,12a15,15,0,0,1-4.73,11.54A42.26,42.26,0,0,1,420.75,410c-3.86.87-7.58,2.46-11.66,2-2.87,1.78-6,.82-9.08,1a42.68,42.68,0,0,1-9.46-.11,59.4,59.4,0,0,0-6.1-.91,33.47,33.47,0,0,1-6-1.09c-1.94-.49-3.83-1.2-5.72-1.86-6.25-2.2-12.32-4.73-16.92-9.76a16.46,16.46,0,0,1-4.82-12c.21-8.15,0-16.31.06-24.47a14.47,14.47,0,0,1,4.37-10.69c6-6,13.28-9.24,21.39-11.1,3.54-.81,7.15-1.31,10.63-2.14,4.74-1.14,9.41-.67,14.11-.76,2.21,0,4.53-.72,6.72.6,1.94,1.17,4.26.08,6.54,1.09,1.93.87,4.68.42,7,1.24,1,.36,2.09.58,3.07,1,3.8,1.71,7.72,3.11,11.24,5.45,4.23,2.81,7.6,6.08,9.24,11.12a12,12,0,0,1,.69,3.68C446.05,366.74,446,371.24,446,375.73ZM355,357.3c0,.64.11,1,0,1.3-1.76,3.87-.68,7.07,1.5,10.58,2,3.18,4.72,5,7.69,6.8,4,2.43,8.54,3.48,12.86,5.12,4.67,1.78,9.55,1.88,14.31,2.75,3.71.67,7.64.26,11.46.09s7.39-.62,11.08-1a4,4,0,0,0,.88-.26c3.94-1.39,8.1-2,12-3.72,4.78-2.1,9.43-4.36,13.06-8.27,2-2.17,2.6-5,3.16-7.67.44-2.1-.87-4.39-2.29-7-3.14-5.76-8.78-7.8-14.28-10a90.56,90.56,0,0,0-9.24-3A67.38,67.38,0,0,0,407,341.16c-5.58-.67-11.29-.18-17-.18-2,1.84-4.65.55-6.92,1.36s-4.64.85-6.79,1.7c-4.16,1.62-8.43,2.86-12.31,5.3C360.55,351.51,358.32,354.77,355,357.3Zm-1,14.9c0,5.62,0,11.24,0,16.86a11.08,11.08,0,0,0,.71,2.18c1.31,5.36,5,8.53,9.76,10.78,1.67.79,3.15,2,4.85,2.74a53.28,53.28,0,0,0,5.38,1.47c1.77.53,3.48,1.47,5.27,1.67s3.48,1.42,5.58,1.19c1.8-.2,3.7.81,5.56.85,8.6.19,17.16.12,25.63-1.9,5.73-1.36,15-4.74,19.61-8.09,3.15-2.3,6.08-5.34,6.45-9.17.61-6.21.17-12.51.17-19.07-2.69,1.9-4,4.52-6.73,5.58-2.44.94-4.31,3-6.89,3.85-3.24,1.07-6.23,2.94-9.8,2.84-4.6,2.51-9.82,2.47-14.74,2.84a80.16,80.16,0,0,1-28.23-2.7,68.26,68.26,0,0,1-11.7-4.29C361.15,377.94,357.19,375.84,354,372.2Z" transform="translate(-60.11 -255.97)"/><path d="M300,405.58c0,4.17,0,8.33,0,12.49a14.74,14.74,0,0,1-4.62,11.08c-5.94,5.72-13.05,8.86-21,11A88.29,88.29,0,0,1,248.67,443c-1.92-.07-3.79.29-5.79-.44s-4.69.33-6.15-.72c-1.75-1.25-4.11.23-5.3-1.81-4.15.41-7.61-1.93-11.07-3.41-5.68-2.44-10.84-6.12-14-11.79a10.92,10.92,0,0,1-1.31-4.92c-.13-9.65-.24-19.32,0-29a11.94,11.94,0,0,1,3.11-7.66c6.07-6.67,13.84-10,22.38-12.33A92.53,92.53,0,0,1,258.86,368a35.77,35.77,0,0,1,5.08,1c1.54.29,3.36-.75,4.58,1a23.35,23.35,0,0,1,9.75,1.78c3.57,1.82,7.37,3.07,10.9,5.09a28.23,28.23,0,0,1,9.43,9.36A10.9,10.9,0,0,1,300,391.6C300.14,396.26,300,400.92,300,405.58Zm-91-18.27c0,.72.11,1.11,0,1.38-1.86,3.89-.47,7,1.54,10.55,2.16,3.79,5.57,5.64,8.92,7.52,3.74,2.09,8.08,3,12.11,4.5,4.4,1.64,9,1.63,13.39,2.56,3.66.78,7.63.29,11.45.12s7.72-.63,11.57-1c.17,0,.4.07.49,0,1.77-1.57,4.18-1.06,6.2-1.93s4.59-1.07,6.6-2.13c4.44-2.33,9.16-4.29,12.59-8.24,3.19-3.68,4.05-9.79,1.74-13.6a20.93,20.93,0,0,0-9-8.15,68.21,68.21,0,0,0-17.49-6.09c-2.06-.45-4.27-.25-6.06-1a15.76,15.76,0,0,0-6.13-.85c-2.17,0-4.33,0-6.5,0s-4.74-.74-6.39.18c-2.36,1.3-4.75.25-7,1.21-2.12.9-4.66.79-6.79,1.68-4.12,1.71-8.45,2.81-12.3,5.35C214.54,381.62,212.27,384.83,209,387.31Zm87.83,34.44v-19.6l-.81-.64a7.32,7.32,0,0,1-.78,1.7c-3.33,4-8,6.18-12.5,8.36a51.38,51.38,0,0,1-11.07,3.36,103.42,103.42,0,0,1-12.14,2,62.44,62.44,0,0,1-9,0c-2.87-.11-5.87.74-8.57-1-4.26.59-8.17-1-12.13-2.07s-7.92-2-11.24-4.08c-3.58-2.23-7.74-4-10.3-7.9-.32,6.07-.4,12-.26,17.94a7.83,7.83,0,0,0,1.31,3.91,22.17,22.17,0,0,0,8.9,8.31c4.21,2,8.61,3.35,12.9,5,4.52,1.78,9.24,1.74,13.82,2.7,3.66.76,7.62.28,11.44.11s7.71-.63,11.56-1c.17,0,.4.07.49,0,1.78-1.55,4.17-1.09,6.19-1.94s4.59-1.06,6.6-2.12c4.29-2.26,9-4,12.17-7.93A51.64,51.64,0,0,0,296.85,421.75Z" transform="translate(-60.11 -255.97)"/><path class="cls-1" d="M355,357.3c3.3-2.53,5.53-5.79,9-8,3.88-2.44,8.15-3.68,12.31-5.3,2.15-.85,4.6-.92,6.79-1.7s4.9.48,6.92-1.36c5.67,0,11.38-.49,17,.18A67.38,67.38,0,0,1,417.14,343a90.56,90.56,0,0,1,9.24,3c5.5,2.22,11.14,4.26,14.28,10,1.42,2.62,2.73,4.91,2.29,7-.56,2.71-1.14,5.5-3.16,7.67-3.63,3.91-8.28,6.17-13.06,8.27-3.85,1.7-8,2.33-12,3.72a4,4,0,0,1-.88.26c-3.69.35-7.38.81-11.08,1s-7.75.58-11.46-.09c-4.76-.87-9.64-1-14.31-2.75-4.32-1.64-8.86-2.69-12.86-5.12-3-1.8-5.71-3.62-7.69-6.8-2.18-3.51-3.26-6.71-1.5-10.58C355.13,358.33,355,357.94,355,357.3Z" transform="translate(-60.11 -255.97)"/><path class="cls-1" d="M354,372.2c3.17,3.64,7.13,5.74,10.91,7.63a68.26,68.26,0,0,0,11.7,4.29,80.16,80.16,0,0,0,28.23,2.7c4.92-.37,10.14-.33,14.74-2.84,3.57.1,6.56-1.77,9.8-2.84,2.58-.85,4.45-2.91,6.89-3.85,2.77-1.06,4-3.68,6.73-5.58,0,6.56.44,12.86-.17,19.07-.37,3.83-3.3,6.87-6.45,9.17-4.61,3.35-13.88,6.73-19.61,8.09-8.47,2-17,2.09-25.63,1.9-1.86,0-3.76-1.05-5.56-.85-2.1.23-3.67-1-5.58-1.19s-3.5-1.14-5.27-1.67a53.28,53.28,0,0,1-5.38-1.47c-1.7-.7-3.18-1.95-4.85-2.74-4.77-2.25-8.45-5.42-9.76-10.78a11.08,11.08,0,0,1-.71-2.18C354,383.44,354,377.82,354,372.2Z" transform="translate(-60.11 -255.97)"/><path class="cls-1" d="M209,387.31c3.25-2.48,5.52-5.69,8.89-7.91,3.85-2.54,8.18-3.64,12.3-5.35,2.13-.89,4.67-.78,6.79-1.68,2.27-1,4.66.09,7-1.21,1.65-.92,4.23-.18,6.39-.18s4.33,0,6.5,0a15.76,15.76,0,0,1,6.13.85c1.79.74,4,.54,6.06,1a68.21,68.21,0,0,1,17.49,6.09,20.93,20.93,0,0,1,9,8.15c2.31,3.81,1.45,9.92-1.74,13.6-3.43,3.95-8.15,5.91-12.59,8.24-2,1.06-4.49,1.21-6.6,2.13s-4.43.36-6.2,1.93c-.09.08-.32,0-.49,0-3.85.33-7.71.8-11.57,1s-7.79.66-11.45-.12c-4.44-.93-9-.92-13.39-2.56-4-1.49-8.37-2.41-12.11-4.5-3.35-1.88-6.76-3.73-8.92-7.52-2-3.54-3.4-6.66-1.54-10.55C209.13,388.42,209,388,209,387.31Z" transform="translate(-60.11 -255.97)"/><path class="cls-1" d="M296.85,421.75a51.64,51.64,0,0,1-3.39,5.23c-3.19,3.91-7.88,5.67-12.17,7.93-2,1.06-4.48,1.23-6.6,2.12s-4.41.39-6.19,1.94c-.09.08-.32,0-.49,0-3.85.33-7.7.8-11.56,1s-7.78.65-11.44-.11c-4.58-1-9.3-.92-13.82-2.7-4.29-1.69-8.69-3-12.9-5a22.17,22.17,0,0,1-8.9-8.31,7.83,7.83,0,0,1-1.31-3.91c-.14-5.94-.06-11.87.26-17.94,2.56,3.93,6.72,5.67,10.3,7.9,3.32,2.06,7.39,3.06,11.24,4.08s7.87,2.66,12.13,2.07c2.7,1.71,5.7.86,8.57,1a62.44,62.44,0,0,0,9,0,103.42,103.42,0,0,0,12.14-2,51.38,51.38,0,0,0,11.07-3.36c4.5-2.18,9.17-4.36,12.5-8.36a7.32,7.32,0,0,0,.78-1.7l.81.64Z" transform="translate(-60.11 -255.97)"/></svg>