<svg id="Layer_1" data-name="Layer 1" xmlns="http://www.w3.org/2000/svg" viewBox="0 0 602.82 307.36"><defs><style>.cls-1{fill:#fe1c24;}.cls-2{fill:#a91c24;}.cls-3{fill:#d11c24;}</style></defs><path d="M168.5,550,6.09,387.59V334.13c1.52-.7,3-2,4.6-2,5.77-.17,11.1-2.42,16.72-3.26a30.76,30.76,0,0,0,6.85-1.47c2.16-.85,4.6-1,6.93-1.36s4.85-.32,7.06-1.08c6-2.05,12.19-2.88,18.36-3.95,1.85-.32,3.65-.87,5.48-1.32l.62.86a29.81,29.81,0,0,1,2.42-3.12c5.62-5.58,12.64-8.52,20.18-10.39,3.83-1,7.78-1.45,11.61-2.24a57,57,0,0,1,9.14-.74c3.15-.15,6.55-.74,9.43.17s5.84-.21,8.23,1.8c2.19-.44,4.42.61,6.71-.74,1.65-1,3.95-.35,6-1.12,2.47-.92,5.39-.58,8-1.19,5-1.16,10.22-1.81,15.15-3.29,2.25-.67,4.64-.26,6.86-1.54,1.66-1,4-.78,6-1.12,1.86-.32,3.71-.73,5.58-1,2.05-.27,4.1-.77,6-1.22,3.19-.74,6.39-1.44,9.61-2.08s6.17-1.27,9.23-1.91a44.61,44.61,0,0,1,5.78-.85c2.69-3.87,6.67-6.48,10.73-8.73,3.46-1.92,7.43-3,11.23-4.2,4.63-1.52,9.55-1.72,14.28-2.89,3-.74,6.32-.36,9.46-.08s6.27-1.26,9.09.94c3-.67,5.68,1.21,8.58,1s5.88-.24,8.47-1.27c1.66-.65,3.4,0,4.64-.8,1.56-1,3.09-.64,4.64-.94,5.37-1,10.73-2.22,16.08-3.39,2.13-.47,4.21-1.35,6.35-1.5,3-.2,5.87-1.26,8.83-1.65a54.44,54.44,0,0,0,8.86-1.61c5.09-1.6,10.42-1.92,15.47-3.61,2.83-.95,6-.92,9.35-1.39,2.6-3.58,6.51-6.24,10.57-8.51a47.93,47.93,0,0,1,10.72-4.22c5-1.37,10.2-1.76,15.25-3,1.72-.43,3.65,0,5.48-.07,6.47-.09,12.88,0,19.2,1.87,1.82.54,4.06.16,6.22-.42,4.87-1.31,9.94-1.9,14.45-2.71L608.91,405v54.67c-4.45,1.18-9,1.47-13.28,3.14-1.87.74-4,.53-6,1a83.47,83.47,0,0,1-8.76,1.81A48,48,0,0,0,572,467.2c-5.24,1.74-10.75,1.92-15.94,3.7-2.67.91-5.82.38-8.5,1.25a56.32,56.32,0,0,1-8.21,2c-5.1.85-10.18,2-15.23,3.07-5.3,1.14-10.62,2.47-15.92,3.62-4.12.89-8.4,1.62-12.59,2.39-3.62.66-7.44.86-10.89,2.58-1.67.83-3.63.25-5.55,1.07-2.4,1-5.55.3-7.95,1.32s-4.92,1.07-7.28,1.63c-3.34.78-6.84,1.05-10.21,2a69.34,69.34,0,0,1-9.6,2.05c-4.26.56-8.42,1.61-12.61,2.36-3.61.65-7.39,1-10.88,2.61-1.8.81-4,.63-6,1.06-7.33,1.58-14.79,2.56-22,5-1.9.64-4,.48-6.05,1-4.36,1.17-8.85,1.95-13.26,2.93-4,.88-8.09,1.5-12.1,2.32-5.5,1.11-11.18,1.55-16.46,3.67-1.76.7-3.64.17-5.57,1.05-2.35,1.08-5.57.27-7.92,1.34s-5.19,0-7.24,1.84c-6.3-.33-12.1,2.33-18.22,3.19a124.61,124.61,0,0,0-14.25,2.93c-3.61.94-7.36,1.17-10.92,2.56-1.93.76-4.29.85-6.46,1.28-2.5.5-5.23.25-7.53,1.17s-5.15,0-7.22,1.87c-5.94-.1-11.5,2.11-17.2,3.22-7,1.37-14.27,2-21,4.78-4.36-.19-8.5,1.25-12.63,2.17-5.31,1.18-10.84,1.5-16,3.62-1.86.76-4,.56-6,1-4.87,1.15-9.88,1.73-14.73,3.12A12.26,12.26,0,0,1,168.5,550Zm2.24-55.76c2.18-.76,4.33-.9,6.21-1.44s3.78-.46,5.61-.91,3.47-1.75,5.21-1.76c2.16,0,4.06-.76,6.08-1.13,1.86-.34,3.72-.68,5.59-1,2-.34,4.18-.35,6.05-1.09s4.06-.68,6.07-1.05c1.8-.33,3.48-1.73,5.22-1.73,2.17,0,4.06-.77,6.08-1.13,1.87-.33,3.73-.68,5.59-1,2-.34,4.19-.33,6.05-1.09,2-.83,4.07-.66,6.07-1.06,1.79-.35,3.47-1.72,5.2-1.72,2.17,0,4.06-.77,6.09-1.13,1.86-.33,3.72-.68,5.59-1,2-.34,4.18-.34,6-1.09,2-.82,4.26-.34,6.05-1.1,5-2.11,10.33-2.52,15.47-3.56A108,108,0,0,1,298.13,468a31.66,31.66,0,0,0,3.59-.94c1.23-.25,2.43-.33,3.69-.71,3.27-1,6.72-1.44,10.08-2.25,2.62-.63,5.51-.33,8-1.18,2.05-.7,4.31-.23,6-1.08,4.76-2.36,10-2.54,15-3.61,4.13-.89,8.27-2.37,12.63-2.19,5-2.43,10.63-2.31,15.89-3.83,2.95-.85,6.14-1.27,9.23-1.88s6.42-1.35,9.61-2.09c1.93-.45,4-.94,6-1.22,1.87-.25,3.72-.66,5.58-1,2-.34,4.25-.26,6-1.11,2-1,4.16-.41,6.06-1.07,5.67-2,11.59-2.66,17.41-3.83,1.22-.25,2.39-.71,3.6-1s2.68.59,3.67-.8c3.67,0,7-1.49,10.58-2.19a40,40,0,0,1,6.59-1c2.26-.08,4.22-1.79,6.58-1.06,5.08-2.13,10.68-2.06,15.91-3.8a47.45,47.45,0,0,1,8.88-1.58,78.69,78.69,0,0,0,8.76-1.82c2-.49,4.29-.11,6-1,4.56-2.43,9.73-2.08,14.49-3.62,3.07-1,6.47-1,9.65-2.08s6.8-1.17,10.19-1.88c2.9-.61,5.9-1.2,8.9-1.57a75.75,75.75,0,0,0,8.77-1.81c2-.52,4.18-.24,6-1,5.12-2.14,10.66-2.41,16-3.6,4.13-.92,8.47-1.49,12.58-2.41,4.54-1,9.19-1.76,12.85-2.88q-79-79-158.63-158.63l-7.9,1.22c.59.7.88,1.38,1.31,1.49a32.73,32.73,0,0,1,8.76,4.19,22.92,22.92,0,0,1,7.53,7.24c1.44,2.2,2.79,4.3,2.82,6.85.12,9.49.2,19,0,28.49a13.33,13.33,0,0,1-3.57,8.51c-3.79,4.29-8.75,6.84-13.64,9.42-2.41,1.27-5.32,1.61-8,2.34s-5.13,1.93-7.66,1.84c-3-.1-5.64,1.42-8.59,1.18-5.69-.47-11.36.23-17.12-.81A106.82,106.82,0,0,1,384.09,315a54.23,54.23,0,0,1-11-4.85,29.81,29.81,0,0,1-7.08-5.73,13.88,13.88,0,0,1-3.94-8.33c-.23-3.65-.05-7.33-.05-11,0-3.83,0-7.66,0-11.5,0-3.48-.51-7,1-10.21-24.22,4.57-48,9.8-73.07,14.35a38.83,38.83,0,0,0,4.26,2.24,29.45,29.45,0,0,1,13.56,9.39,15.14,15.14,0,0,1,3.35,10.12c-.23,8-.11,16-.05,24a15.74,15.74,0,0,1-4.9,12A41.62,41.62,0,0,1,294.7,343c-7.58,3.67-15.84,4.77-24,5.93a63,63,0,0,1-11.49,0c-3.7-.16-7.39-.62-11.08-1a4,4,0,0,1-.89-.27,58.32,58.32,0,0,0-7.75-1.87c-2.52-.49-4.89-1.81-7.29-2.86-5-2.22-9.73-5.05-13-9.48a15.78,15.78,0,0,1-3.25-10.16c.28-7.65,0-15.33.11-23,0-2.35.37-4.69.56-7L145,307.65v1.09a42.09,42.09,0,0,1,9.18,4.19,25.44,25.44,0,0,1,8.24,7.82c1.39,2.07,2.48,4.13,2.51,6.47.14,9.49.21,19,0,28.49a13.36,13.36,0,0,1-3.55,8.51c-3.78,4.32-8.76,6.84-13.64,9.42-2.41,1.28-5.32,1.62-8,2.35s-5.14,1.94-7.67,1.85c-3-.1-5.64,1.42-8.59,1.18-5.69-.47-11.41.64-17.12-.88-2.22-.59-4.74-.35-7-1.13s-4.51-1.28-6.73-1.8a43.67,43.67,0,0,1-13.85-6.38,18.63,18.63,0,0,1-7.88-10.07,22.39,22.39,0,0,1-.79-6.15c-.12-3.32,0-6.66,0-10s0-6.67,0-10c0-3.17-.45-6.36,1.16-9.54L11.89,335.39Zm.35,52.56c2.47-.34,4.62-.26,6.48-1a62.27,62.27,0,0,1,10.86-2.64c4.18-.79,8.48-1.47,12.58-2.41,5.29-1.22,10.73-1.83,16-3.58a47.2,47.2,0,0,1,8.87-1.59,75.75,75.75,0,0,0,8.77-1.81c2-.51,4.18-.24,6-1,5.13-2.14,10.66-2.42,16-3.61,4.12-.92,8.27-2.36,12.63-2.17,5-2.42,10.67-2.17,15.87-3.91,2.52-.85,5.51-.34,8-1.21a50.7,50.7,0,0,1,7.76-1.65c3.41-.61,6.74-1.57,10.11-2.29a99.88,99.88,0,0,1,10.21-1.73c5.56-.57,10.66-2.84,16.21-3.41,2.84-.28,5.76-1.31,8.69-1.83s5.76-1.69,8.68-1.88c4-.26,7.56-2.68,11.66-2.09,1.41-2.05,3.88-.12,5.41-1.41,1.74-1.49,4,0,6-1.42,1.27-.93,3.69-.81,5.48-1,4.15-.37,7.89-2.77,12.15-2.19,2.5-1.61,5.51-1.06,8.18-2a40.66,40.66,0,0,1,8.69-1.83c4.12-.46,7.88-2.77,12.15-2.18,1.8-2.06,4.53-.53,6.76-1.84,1.9-1.11,4.64-.77,7-1.18,1.21-.21,2.38-.72,3.59-1s2.44-.44,3.66-.78c3.29-.91,6.73-1.42,10.1-2.19,2.64-.6,5.58-.22,8-1.2,2.06-.83,4.15-.37,6.05-1.06a64.25,64.25,0,0,1,10.88-2.61c4.19-.75,8.48-1.47,12.59-2.4,5.29-1.21,10.71-1.93,15.95-3.59a55.62,55.62,0,0,1,8.85-1.63,70,70,0,0,0,8.78-1.78c2-.56,4.12-.31,6-1,5.31-2,11-2.54,16.47-3.65,4-.8,8-2.27,12.15-2.09,1.49-1.8,3.86-.87,5.75-1.86s4.31-.8,6.51-1.14c2-.32,4.07-.6,6.08-1s4.22-1.13,6.36-1.52c3.7-.66,7.3-1.81,11-2.39a57.73,57.73,0,0,0,8.76-2.28V407.36c-3.7.92-7.36,1.88-10.91,2.43-5.94.93-11.68,2.95-17.72,3.21-1.72,1.7-4.11.42-6,1.31-3.46,1.67-7.28,1.9-10.91,2.53-4.21.72-8.28,2.39-12.65,2.16-5,2.44-10.73,2-15.84,4-4.58-.6-8.6,2.47-13.17,2-1.51,1.73-4.1.42-5.67,2-2.35-.69-4.32,1-6.58,1.06-2,.06-4.3.15-6,1.06-2,1.07-4.09.53-6.06,1.07-4.08,1.11-8.17,2.11-12.34,2.83-2.18.37-4.67.46-6.45,1.28-2.28,1-4.64.28-6.9,1.53-2.08,1.14-5,.79-7.49,1.18a47.29,47.29,0,0,0-6.94,1.35c-5.4,1.71-11,2.48-16.5,3.56-4,.8-8,2.28-12.16,2.08-3.08,2.16-6.89,1.85-10.31,2.78a62.71,62.71,0,0,1-10.62,2.08c-4.15.38-7.9,2.69-12.15,2.18-2.53,1.45-5.49,1.17-8.18,1.95a50.65,50.65,0,0,1-8.69,1.85c-4.14.42-7.89,2.69-12.13,2.2-3.31,2-7.22,2.18-10.81,2.76-4.07.65-7.88,2.79-12.14,2.2-1.8,2.08-4.54.53-6.76,1.84-1.91,1.11-4.68.64-7,1.21s-4.94.41-7,1.14c-3.56,1.24-7.49.89-10.82,2.81-6,.24-11.72,2.7-17.75,3-1.72,2-4.24.72-6.37,1.51-3.48,1.31-7.28,1.79-11,2.46-2.67.48-5.54.25-8.05,1.12-5.19,1.8-10.63,2.52-15.92,3.68-5.82,1.28-11.67,2.91-17.7,3.23-1.7,1.72-4,.61-6,1.3-5.34,1.89-11,2.54-16.48,3.63-4,.79-8,2.27-12.16,2.07-1.47,1.87-3.87.77-5.76,1.85s-4.3.81-6.5,1.15c-2,.32-4.07.57-6.08,1-2.71.61-5.39,1.39-8.11,2.1ZM9.15,384.86l158.7,158.7V497.14Q88.2,417.49,9.15,338.44ZM366,263.4c0,.67.27,1.54,0,2-2.37,3-.66,5.95.54,8.48a16.3,16.3,0,0,0,8.91,8.19c2.14.87,4.13,2.11,6.27,2.94s4.54,1.14,6.62,2.1a15,15,0,0,0,7.19,1.83c2.54-.19,4.66,1.17,7.08,1.13,3.66-.07,7.33.11,11-.06s7.38-.63,11.07-1c.32,0,.72.05.95-.11,1.88-1.29,4.19-1.09,6.23-1.87s4.18-1.17,6.13-2.06c4.75-2.13,9.57-4.3,13-8.44,2.36-2.88,3.69-6.33,2.94-10.13-.66-3.32-4-6.85-7.24-9.46s-7-4.07-10.72-5.54c-6.17-2.42-12.66-3.49-19.17-4.32-3.11-.4-6.32-.07-9.48-.07-2.16,0-4.72-.73-6.4.18-2.25,1.22-4.48.26-6.58,1s-4.52,1.18-6.72,1.87c-4.25,1.33-8.49,2.7-12.37,5.12C371.59,257.44,369.19,260.78,366,263.4ZM220,293.24c0,.93.28,1.83-.05,2.22-1.62,1.94-.89,3.7-.28,5.83,1.53,5.32,5.23,8.26,9.83,10.8,9.12,5,19,7.15,29.19,7.89,6.55.47,13.06-.29,19.56-1a5.94,5.94,0,0,0,1.42-.19c3.9-1.51,8.08-2.06,11.93-3.77,4.93-2.19,9.87-4.38,13.38-8.61,2.27-2.73,3.73-6.23,2.88-9.68A16.9,16.9,0,0,0,301.4,287c-4.45-3.21-14.13-6.49-19.58-8.21-3.43-1.07-7.11.26-10.22-1.81H255.12c-2.06,1.77-4.68.58-7,1.29s-5,1-7.21,1.89c-4.12,1.63-8.47,2.7-12.3,5.39C225.49,287.8,223.36,290.9,220,293.24Zm-102.69,57L132.63,349c.32,0,.72.05,1-.11,1.88-1.29,4.19-1.09,6.22-1.87s4.18-1.17,6.14-2.06c4.75-2.13,9.57-4.3,13-8.44a12.07,12.07,0,0,0,2.94-10.13c-.65-3.31-4.05-6.85-7.24-9.46s-7-4.07-10.72-5.54a72.34,72.34,0,0,0-19.17-4.29c-4.78-.49-9.64-.1-14.47-.1-.5,0-1.21-.22-1.47,0-1.93,1.88-4.42.41-6.51,1.2s-4.53,1.18-6.73,1.87c-4.25,1.33-8.51,2.66-12.37,5.12-3,1.88-5.22,4.41-7.64,6.81a8.55,8.55,0,0,0-2.37,8.39,16.85,16.85,0,0,0,6.2,9.37c6.81,4.8,14.75,7.15,22.68,9.07C106.86,350,112,349.83,117.31,350.27ZM365,278.32c0,5.47-.16,10.94.08,16.4a14.5,14.5,0,0,0,2.08,6.11c2.12,3.91,5.66,5.93,9.2,7.93,3.89,2.2,8.31,3.19,12.52,4.69,4.37,1.55,9,1.65,13.43,2.42,3.72.64,7.64.26,11.45.09s7.38-.62,11.07-1a3.59,3.59,0,0,0,.9-.22c3.91-1.44,8.09-2,11.92-3.75,4.43-2,9-3.89,12.31-7.56a48.57,48.57,0,0,0,4-5.85c0-6.6,0-12.75,0-18.91a.76.76,0,0,0-.2-.4,1.55,1.55,0,0,0-.39-.26c-3.52,4.28-8.29,6.76-13.12,9.22a47.94,47.94,0,0,1-11,3.57,66.46,66.46,0,0,1-15.6,2.17c-3.33,0-6.66,0-10,0a7.08,7.08,0,0,1-2.48,0c-4.27-1.7-9.15-.59-13.25-3-4.57.12-8.39-2.41-12.22-4.19S368,281.84,365,278.32ZM219,308.39c0,5.31,0,10.62,0,15.92,0,2.48,1.12,4.44,2.25,6.57,2.17,4.08,5.93,6,9.61,8.1s8.09,2.94,12.1,4.5c4.17,1.62,8.65,1.58,13,2.38,3.7.68,7.63.27,11.45.1s7.71-.63,11.56-1c.17,0,.4.07.49,0,1.75-1.61,4.19-1.54,6.19-1.8,2.46-.32,4.09-2.6,6.63-2.19,4.2-2.43,8.94-4.08,12.16-7.95a56.58,56.58,0,0,0,3.61-5.53c0-3.29,0-6.61,0-9.93,0-3.16.17-6.35-.18-9.9a60.6,60.6,0,0,1-4.71,4.63c-1.19.93-2.87,1.24-4,2.19-3.89,3.16-8.68,3.95-13.19,5.57s-9.21,2-13.78,2.72a57.73,57.73,0,0,1-16.91,0,112.93,112.93,0,0,1-13.8-2.64,58.65,58.65,0,0,1-11.66-4.37C226,313.85,221.88,311.92,219,308.39Zm-57.09,29c-4,4.92-8.69,7.55-13.63,9.78a48.4,48.4,0,0,1-9.75,3c-2.89.63-5.67,1.69-8.71,1.83s-5.93,1.29-9.07,1-6.31-.06-9.48-.06a7.6,7.6,0,0,1-2.48,0c-4.46-1.58-9.27-1.32-13.76-2.9a84.62,84.62,0,0,1-12.82-5.21A36.34,36.34,0,0,1,73,337.43c0,5.83.08,10.79,0,15.76a14.83,14.83,0,0,0,6.6,12.64,38.52,38.52,0,0,0,10.73,5.36c3.94,1.27,7.9,3.07,11.9,3.6a108.39,108.39,0,0,0,14,1.36,104,104,0,0,0,16.52-1.33A50.7,50.7,0,0,0,149,369.5a75.3,75.3,0,0,0,7.21-4.25c2.83-2,4.37-5,5.72-8Z" transform="translate(-6.09 -242.74)"/><path class="cls-1" d="M170.74,494.24,11.89,335.39l59.28-12.31c-1.61,3.18-1.14,6.37-1.16,9.54,0,3.33,0,6.66,0,10s-.09,6.67,0,10a22.39,22.39,0,0,0,.79,6.15,18.63,18.63,0,0,0,7.88,10.07,43.67,43.67,0,0,0,13.85,6.38c2.22.52,4.52,1.06,6.73,1.8s4.83.54,7,1.13c5.71,1.52,11.43.41,17.12.88,3,.24,5.58-1.28,8.59-1.18,2.53.09,5.12-1.15,7.67-1.85s5.6-1.07,8-2.35c4.88-2.58,9.86-5.1,13.64-9.42a13.36,13.36,0,0,0,3.55-8.51c.24-9.49.17-19,0-28.49,0-2.34-1.12-4.4-2.51-6.47a25.44,25.44,0,0,0-8.24-7.82,42.09,42.09,0,0,0-9.18-4.19v-1.09l71.58-14.25c-.19,2.27-.54,4.61-.56,7-.08,7.66.17,15.34-.11,23a15.78,15.78,0,0,0,3.25,10.16c3.28,4.43,8,7.26,13,9.48,2.4,1.05,4.77,2.37,7.29,2.86a58.32,58.32,0,0,1,7.75,1.87,4,4,0,0,0,.89.27c3.69.35,7.38.81,11.08,1a63,63,0,0,0,11.49,0c8.18-1.16,16.44-2.26,24-5.93a41.62,41.62,0,0,0,11.42-7.49,15.74,15.74,0,0,0,4.9-12c-.06-8-.18-16,.05-24a15.14,15.14,0,0,0-3.35-10.12A29.45,29.45,0,0,0,294.16,280a38.83,38.83,0,0,1-4.26-2.24c25-4.55,48.85-9.78,73.07-14.35-1.47,3.19-.92,6.73-1,10.21,0,3.84,0,7.67,0,11.5,0,3.67-.18,7.35.05,11a13.88,13.88,0,0,0,3.94,8.33,29.81,29.81,0,0,0,7.08,5.73,54.23,54.23,0,0,0,11,4.85,106.82,106.82,0,0,0,14.22,3.21c5.76,1,11.43.34,17.12.81,2.95.24,5.58-1.28,8.59-1.18,2.53.09,5.11-1.16,7.66-1.84s5.61-1.07,8-2.34c4.89-2.58,9.85-5.13,13.64-9.42a13.33,13.33,0,0,0,3.57-8.51c.24-9.49.16-19,0-28.49,0-2.55-1.38-4.65-2.82-6.85a22.92,22.92,0,0,0-7.53-7.24,32.73,32.73,0,0,0-8.76-4.19c-.43-.11-.72-.79-1.31-1.49l7.9-1.22Q524,325.78,603.06,404.88c-3.66,1.12-8.31,1.87-12.85,2.88-4.11.92-8.45,1.49-12.58,2.41-5.31,1.19-10.85,1.46-16,3.6-1.86.79-4,.51-6,1a75.75,75.75,0,0,1-8.77,1.81c-3,.37-6,1-8.9,1.57-3.39.71-6.92.81-10.19,1.88s-6.58,1.09-9.65,2.08c-4.76,1.54-9.93,1.19-14.49,3.62-1.74.93-4,.55-6,1a78.69,78.69,0,0,1-8.76,1.82A47.45,47.45,0,0,0,480,430.2c-5.23,1.74-10.83,1.67-15.91,3.8-2.36-.73-4.32,1-6.58,1.06a40,40,0,0,0-6.59,1c-3.53.7-6.91,2.14-10.58,2.19-1,1.39-2.45.54-3.67.8s-2.38.73-3.6,1c-5.82,1.17-11.74,1.87-17.41,3.83-1.9.66-4,.11-6.06,1.07-1.79.85-4,.77-6,1.11-1.86.32-3.71.73-5.58,1-2,.28-4.11.77-6,1.22-3.19.74-6.39,1.45-9.61,2.09s-6.28,1-9.23,1.88c-5.26,1.52-10.89,1.4-15.89,3.83-4.36-.18-8.5,1.3-12.63,2.19-5,1.07-10.22,1.25-15,3.61-1.72.85-4,.38-6,1.08-2.52.85-5.41.55-8,1.18-3.36.81-6.81,1.25-10.08,2.25-1.26.38-2.46.46-3.69.71a31.66,31.66,0,0,1-3.59.94A108,108,0,0,0,285,470.25c-5.14,1-10.5,1.45-15.47,3.56-1.79.76-4,.28-6.05,1.1-1.86.75-4,.75-6,1.09-1.87.32-3.73.67-5.59,1-2,.36-3.92,1.13-6.09,1.13-1.73,0-3.41,1.37-5.2,1.72-2,.4-4,.23-6.07,1.06-1.86.76-4,.75-6.05,1.09-1.86.32-3.72.67-5.59,1-2,.36-3.91,1.13-6.08,1.13-1.74,0-3.42,1.4-5.22,1.73-2,.37-4.05.25-6.07,1.05s-4,.75-6.05,1.09c-1.87.32-3.73.66-5.59,1-2,.37-3.92,1.12-6.08,1.13-1.74,0-3.43,1.32-5.21,1.76s-3.71.36-5.61.91S172.92,493.48,170.74,494.24ZM443,362.25c0,4,.17,8,0,12-.27,4.82,1.71,8.63,4.8,12,4.61,5,10.68,7.57,16.93,9.75,1.48.51,3.08.78,4.52,1.21s3,.26,4.07.92a6.6,6.6,0,0,0,4.64.82c1.74-.22,3,1,4.59,1.05,3.16,0,6.33.13,9.49,0s6.21.81,9.07-1c4.09.48,7.81-1.1,11.66-2a42.07,42.07,0,0,0,20.9-11.09,14.12,14.12,0,0,0,4.33-10.2c.12-8.82.06-17.64,0-26.46a12.15,12.15,0,0,0-.7-3.69c-1.64-5-5-8.3-9.24-11.11-3.52-2.35-7.44-3.75-11.24-5.45-1-.44-2-.66-3.07-1-2.29-.81-4.83-.59-7-1.21-1.75-.49-3.49-.36-5.12-.85A14.92,14.92,0,0,0,496,325c-5.51.43-11-.57-16.6.83-3.46.87-7.09,1.33-10.63,2.14-8.11,1.86-15.4,5.14-21.39,11.11A14.52,14.52,0,0,0,443,349.77C443,353.93,443,358.09,443,362.25Zm-51,30.43c0-4.66.12-9.33-.06-14a10.88,10.88,0,0,0-1.3-5.41,27.72,27.72,0,0,0-9.43-9.4c-3.53-2-7.24-3.43-10.9-5.07a18.06,18.06,0,0,0-2.16-.81c-2.46-.76-5.29-.44-7.48-1.26s-4.52.17-6.08-.88c-2.27-1.54-4.47-.64-6.67-.81-3-.23-6-.06-9-.06-1.16,0-2.77-.45-3.39.14-1.36,1.29-2.81.61-4.19.87-1.53.29-3.06.65-4.58,1-2.28.52-4.58,1-6.84,1.57a43.48,43.48,0,0,0-14.23,6.56c-5.18,3.68-9.13,8.46-8.79,15.71.36,7.81.24,15.65,0,23.47-.13,4.82,1.79,8.59,4.86,12,4.47,5,10.41,7.57,16.49,9.6,4.73,1.58,9.55,3.32,14.71,3.1.5,0,1.15-.21,1.47,0,2.86,2.14,6.08.63,9.11.91s6.46.65,9.45-.08c4.57-1.12,9.25-1.43,13.8-2.74,7.67-2.21,14.68-5.27,20.5-10.89A14.7,14.7,0,0,0,392,405.16ZM246,422.9V410.41c0-6.32-3.87-12-9.46-15.55-3.7-2.38-7.73-3.9-11.59-5.84a17.8,17.8,0,0,0-3.07-1,25.46,25.46,0,0,0-3.59-1c-1.29-.19-2.7.14-3.91-.22a43.25,43.25,0,0,0-10.24-1.76c-4-.2-8-.05-12-.05-.83,0-2-.35-2.44.06-1.44,1.27-3.07.76-4.64,1a46.35,46.35,0,0,0-5.07,1c-2.11.52-4.18,1.18-6.27,1.74a46.17,46.17,0,0,0-13,6c-5.91,3.74-9.88,8.43-9.74,15.89.14,7.83.18,15.66,0,23.47a16.67,16.67,0,0,0,5,12.42c4.58,4.82,10.49,7.32,16.56,9.46,2.79,1,5.94,1.23,8.56,2.27,3.1,1.23,6.52-.39,9.25,1.77,5.49,0,11.1.67,16.45-.21,4.41-.73,8.91-1.41,13.32-2.59,8.26-2.2,15.65-5.45,21.74-11.53a13.71,13.71,0,0,0,4.11-9.79C246.07,431.56,246,427.23,246,422.9Z" transform="translate(-6.09 -242.74)"/><path class="cls-2" d="M171.09,546.8V497.12c2.72-.71,5.4-1.49,8.11-2.1,2-.45,4.05-.7,6.08-1,2.2-.34,4.7-.12,6.5-1.15s4.29,0,5.76-1.85c4.2.2,8.13-1.28,12.16-2.07,5.51-1.09,11.14-1.74,16.48-3.63,1.94-.69,4.26.42,6-1.3,6-.32,11.88-1.95,17.7-3.23,5.29-1.16,10.73-1.88,15.92-3.68,2.51-.87,5.38-.64,8.05-1.12,3.7-.67,7.5-1.15,11-2.46,2.13-.79,4.65.51,6.37-1.51,6-.3,11.71-2.76,17.75-3,3.33-1.92,7.26-1.57,10.82-2.81,2.1-.73,4.69-.55,7-1.14s5.07-.1,7-1.21c2.22-1.31,5,.24,6.76-1.84,4.26.59,8.07-1.55,12.14-2.2,3.59-.58,7.5-.72,10.81-2.76,4.24.49,8-1.78,12.13-2.2a50.65,50.65,0,0,0,8.69-1.85c2.69-.78,5.65-.5,8.18-1.95,4.25.51,8-1.8,12.15-2.18a62.71,62.71,0,0,0,10.62-2.08c3.42-.93,7.23-.62,10.31-2.78,4.2.2,8.14-1.28,12.16-2.08,5.51-1.08,11.1-1.85,16.5-3.56a47.29,47.29,0,0,1,6.94-1.35c2.52-.39,5.41,0,7.49-1.18,2.26-1.25,4.62-.49,6.9-1.53,1.78-.82,4.27-.91,6.45-1.28,4.17-.72,8.26-1.72,12.34-2.83,2-.54,4,0,6.06-1.07,1.73-.91,4-1,6-1.06,2.26-.08,4.23-1.75,6.58-1.06,1.57-1.58,4.16-.27,5.67-2,4.57.47,8.59-2.6,13.17-2,5.11-2,10.84-1.56,15.84-4,4.37.23,8.44-1.44,12.65-2.16,3.63-.63,7.45-.86,10.91-2.53,1.85-.89,4.24.39,6-1.31,6-.26,11.78-2.28,17.72-3.21,3.55-.55,7.21-1.51,10.91-2.43v49.43a57.73,57.73,0,0,1-8.76,2.28c-3.69.58-7.29,1.73-11,2.39-2.14.39-4.23,1.08-6.36,1.52s-4.05.7-6.08,1c-2.2.34-4.66.16-6.51,1.14s-4.26.06-5.75,1.86c-4.19-.18-8.13,1.29-12.15,2.09-5.51,1.11-11.16,1.62-16.47,3.65-1.92.73-4,.48-6,1a70,70,0,0,1-8.78,1.78,55.62,55.62,0,0,0-8.85,1.63c-5.24,1.66-10.66,2.38-15.95,3.59-4.11.93-8.4,1.65-12.59,2.4a64.25,64.25,0,0,0-10.88,2.61c-1.9.69-4,.23-6.05,1.06-2.44,1-5.38.6-8,1.2-3.37.77-6.81,1.28-10.1,2.19-1.22.34-2.43.54-3.66.78s-2.38.75-3.59,1c-2.35.41-5.09.07-7,1.18-2.23,1.31-5-.22-6.76,1.84-4.27-.59-8,1.72-12.15,2.18a40.66,40.66,0,0,0-8.69,1.83c-2.67.93-5.68.38-8.18,2-4.26-.58-8,1.82-12.15,2.19-1.79.17-4.21.05-5.48,1-2,1.45-4.23-.07-6,1.42-1.53,1.29-4-.64-5.41,1.41-4.1-.59-7.66,1.83-11.66,2.09-2.92.19-5.77,1.36-8.68,1.88s-5.85,1.55-8.69,1.83c-5.55.57-10.65,2.84-16.21,3.41A99.88,99.88,0,0,0,311,517.94c-3.37.72-6.7,1.68-10.11,2.29a50.7,50.7,0,0,0-7.76,1.65c-2.5.87-5.49.36-8,1.21-5.2,1.74-10.87,1.49-15.87,3.91-4.36-.19-8.51,1.25-12.63,2.17-5.32,1.19-10.85,1.47-16,3.61-1.86.78-4,.51-6,1a75.75,75.75,0,0,1-8.77,1.81A47.2,47.2,0,0,0,217,537.2c-5.23,1.75-10.67,2.36-16,3.58-4.1.94-8.4,1.62-12.58,2.41a62.27,62.27,0,0,0-10.86,2.64C175.71,546.54,173.56,546.46,171.09,546.8Z" transform="translate(-6.09 -242.74)"/><path class="cls-3" d="M9.15,384.86V338.44q79.17,79.15,158.7,158.7v46.42Z" transform="translate(-6.09 -242.74)"/><path class="cls-1" d="M366,263.4c3.19-2.62,5.59-6,9.16-8.18,3.88-2.42,8.12-3.79,12.37-5.12,2.2-.69,4.54-1,6.72-1.87s4.33.17,6.58-1c1.68-.91,4.24-.18,6.4-.18,3.16,0,6.37-.33,9.48.07,6.51.83,13,1.9,19.17,4.32,3.76,1.47,7.48,2.88,10.72,5.54s6.58,6.14,7.24,9.46c.75,3.8-.58,7.25-2.94,10.13-3.39,4.14-8.21,6.31-13,8.44-1.95.89-4.12,1.29-6.13,2.06s-4.35.58-6.23,1.87c-.23.16-.63.08-.95.11-3.69.33-7.37.8-11.07,1s-7.33,0-11,.06c-2.42,0-4.54-1.32-7.08-1.13a15,15,0,0,1-7.19-1.83c-2.08-1-4.46-1.26-6.62-2.1s-4.13-2.07-6.27-2.94a16.3,16.3,0,0,1-8.91-8.19c-1.2-2.53-2.91-5.47-.54-8.48C366.27,264.94,366,264.07,366,263.4Z" transform="translate(-6.09 -242.74)"/><path class="cls-1" d="M220,293.24c3.36-2.34,5.49-5.44,8.65-7.67,3.83-2.69,8.18-3.76,12.3-5.39,2.19-.88,4.84-1.13,7.21-1.89s4.9.48,7-1.29H271.6c3.11,2.07,6.79.74,10.22,1.81,5.45,1.72,15.13,5,19.58,8.21a16.9,16.9,0,0,1,6.46,9.73c.85,3.45-.61,6.95-2.88,9.68-3.51,4.23-8.45,6.42-13.38,8.61-3.85,1.71-8,2.26-11.93,3.77a5.94,5.94,0,0,1-1.42.19c-6.5.69-13,1.45-19.56,1-10.23-.74-20.07-2.87-29.19-7.89-4.6-2.54-8.3-5.48-9.83-10.8-.61-2.13-1.34-3.89.28-5.83C220.28,295.07,220,294.17,220,293.24Z" transform="translate(-6.09 -242.74)"/><path class="cls-1" d="M117.31,350.27c-5.29-.44-10.45-.24-15.28-1.41-7.93-1.92-15.87-4.27-22.68-9.07a16.85,16.85,0,0,1-6.2-9.37A8.55,8.55,0,0,1,75.52,322c2.42-2.4,4.67-4.93,7.64-6.81,3.86-2.46,8.12-3.79,12.37-5.12,2.2-.69,4.54-1.05,6.73-1.87s4.58.68,6.51-1.2c.26-.25,1,0,1.47,0,4.83,0,9.69-.39,14.47.1a72.34,72.34,0,0,1,19.17,4.29c3.76,1.47,7.48,2.88,10.72,5.54s6.59,6.15,7.24,9.46a12.07,12.07,0,0,1-2.94,10.13c-3.39,4.14-8.21,6.31-13,8.44-2,.89-4.12,1.29-6.14,2.06s-4.34.58-6.22,1.87c-.23.16-.63.08-1,.11Z" transform="translate(-6.09 -242.74)"/><path class="cls-2" d="M365,278.32c3,3.52,7,5.72,10.79,7.49s7.65,4.31,12.22,4.19c4.1,2.37,9,1.26,13.25,3a7.08,7.08,0,0,0,2.48,0c3.32,0,6.65,0,10,0a66.46,66.46,0,0,0,15.6-2.17,47.94,47.94,0,0,0,11-3.57c4.83-2.46,9.6-4.94,13.12-9.22a1.55,1.55,0,0,1,.39.26.76.76,0,0,1,.2.4c0,6.16,0,12.31,0,18.91a48.57,48.57,0,0,1-4,5.85c-3.34,3.67-7.88,5.54-12.31,7.56-3.83,1.75-8,2.31-11.92,3.75a3.59,3.59,0,0,1-.9.22c-3.69.35-7.37.81-11.07,1s-7.73.55-11.45-.09c-4.47-.77-9.06-.87-13.43-2.42-4.21-1.5-8.63-2.49-12.52-4.69-3.54-2-7.08-4-9.2-7.93a14.5,14.5,0,0,1-2.08-6.11C364.84,289.26,365,283.79,365,278.32Z" transform="translate(-6.09 -242.74)"/><path class="cls-2" d="M219,308.39c2.88,3.53,7,5.46,10.72,7.4a58.65,58.65,0,0,0,11.66,4.37,112.93,112.93,0,0,0,13.8,2.64,57.73,57.73,0,0,0,16.91,0c4.57-.68,9.29-1.11,13.78-2.72s9.3-2.41,13.19-5.57c1.17-.95,2.85-1.26,4-2.19a60.6,60.6,0,0,0,4.71-4.63c.35,3.55.15,6.74.18,9.9,0,3.32,0,6.64,0,9.93a56.58,56.58,0,0,1-3.61,5.53c-3.22,3.87-8,5.52-12.16,7.95-2.54-.41-4.17,1.87-6.63,2.19-2,.26-4.44.19-6.19,1.8-.09.08-.32,0-.49,0-3.85.33-7.7.8-11.56,1s-7.75.58-11.45-.1c-4.31-.8-8.79-.76-13-2.38-4-1.56-8.32-2.35-12.1-4.5s-7.44-4-9.61-8.1c-1.13-2.13-2.26-4.09-2.25-6.57C219,319,219,313.7,219,308.39Z" transform="translate(-6.09 -242.74)"/><path class="cls-2" d="M161.91,337.4v19.85c-1.35,3-2.89,6-5.72,8A75.3,75.3,0,0,1,149,369.5a50.7,50.7,0,0,1-16.22,5.32,104,104,0,0,1-16.52,1.33,108.39,108.39,0,0,1-14-1.36c-4-.53-8-2.33-11.9-3.6a38.52,38.52,0,0,1-10.73-5.36A14.83,14.83,0,0,1,73,353.19c.1-5,0-9.93,0-15.76a36.34,36.34,0,0,0,9.21,7.42A84.62,84.62,0,0,0,95,350.06c4.49,1.58,9.3,1.32,13.76,2.9a7.6,7.6,0,0,0,2.48,0c3.17,0,6.34-.21,9.48.06s6-.88,9.07-1,5.82-1.2,8.71-1.83a48.4,48.4,0,0,0,9.75-3C153.22,345,157.93,342.32,161.91,337.4Z" transform="translate(-6.09 -242.74)"/><path d="M443,362.25c0-4.16,0-8.32,0-12.48a14.52,14.52,0,0,1,4.37-10.69c6-6,13.28-9.25,21.39-11.11,3.54-.81,7.17-1.27,10.63-2.14,5.57-1.4,11.09-.4,16.6-.83a14.92,14.92,0,0,1,5.6.93c1.63.49,3.37.36,5.12.85,2.19.62,4.73.4,7,1.21,1,.37,2.09.59,3.07,1,3.8,1.7,7.72,3.1,11.24,5.45,4.23,2.81,7.6,6.07,9.24,11.11a12.15,12.15,0,0,1,.7,3.69c0,8.82.1,17.64,0,26.46a14.12,14.12,0,0,1-4.33,10.2A42.07,42.07,0,0,1,512.73,397c-3.85.88-7.57,2.46-11.66,2-2.86,1.78-6,.82-9.07,1s-6.33.06-9.49,0c-1.58,0-2.85-1.27-4.59-1.05a6.6,6.6,0,0,1-4.64-.82c-1-.66-2.68-.51-4.07-.92s-3-.7-4.52-1.21c-6.25-2.18-12.32-4.72-16.93-9.75-3.09-3.38-5.07-7.19-4.8-12C443.17,370.25,443,366.25,443,362.25Zm4-17.93c0,.64.11,1,0,1.3-1.76,3.86-.68,7.06,1.5,10.58,2,3.18,4.72,5,7.69,6.8,4,2.42,8.55,3.48,12.86,5.12,4.68,1.78,9.56,1.87,14.31,2.74,3.71.68,7.64.27,11.46.1s7.39-.62,11.08-1a4.11,4.11,0,0,0,.89-.26c3.93-1.39,8.1-2,11.94-3.72,4.78-2.1,9.43-4.36,13.06-8.27,2-2.17,2.61-4.95,3.17-7.67.44-2.15-.84-4.33-2.3-7-3.14-5.76-8.77-7.8-14.28-10a92.14,92.14,0,0,0-9.23-3A67.8,67.8,0,0,0,499,328.18c-5.58-.67-11.3-.18-17-.18-2,1.84-4.65.55-6.92,1.36s-4.64.86-6.8,1.69c-4.15,1.62-8.43,2.87-12.31,5.31C452.53,338.53,450.31,341.79,447,344.32Zm-1,14.9c0,5.62,0,11.24,0,16.86a11.12,11.12,0,0,0,.72,2.18c1.3,5.37,5,8.53,9.75,10.78,1.68.79,3.15,2,4.85,2.74a53.47,53.47,0,0,0,5.39,1.47c1.77.53,3.47,1.46,5.27,1.67s3.48,1.42,5.57,1.19c1.8-.2,3.7.81,5.57.85,8.59.19,17.16.12,25.63-1.9,5.73-1.37,15-4.74,19.6-8.09,3.16-2.3,6.09-5.34,6.46-9.17.6-6.21.16-12.51.16-18.92-2.75,1.66-3.94,4.38-6.73,5.44-2.44.92-4.31,3-6.89,3.84-3.23,1.08-6.22,2.94-9.8,2.84-4.6,2.5-9.82,2.47-14.74,2.84a80.08,80.08,0,0,1-28.22-2.7,68,68,0,0,1-11.7-4.29C453.13,365,449.18,362.86,446,359.22Z" transform="translate(-6.09 -242.74)"/><path d="M392,392.68v12.48a14.7,14.7,0,0,1-4.67,11.07c-5.82,5.62-12.83,8.68-20.5,10.89-4.55,1.31-9.23,1.62-13.8,2.74-3,.73-6.31.36-9.45.08s-6.25,1.23-9.11-.91c-.32-.24-1,0-1.47,0-5.16.22-10-1.52-14.71-3.1-6.08-2-12-4.64-16.49-9.6-3.07-3.4-5-7.17-4.86-12,.22-7.82.34-15.66,0-23.47-.34-7.25,3.61-12,8.79-15.71a43.48,43.48,0,0,1,14.23-6.56c2.26-.57,4.56-1.05,6.84-1.57,1.52-.34,3.05-.7,4.58-1,1.38-.26,2.83.42,4.19-.87.62-.59,2.23-.14,3.39-.14,3,0,6-.17,9,.06,2.2.17,4.4-.73,6.67.81,1.56,1.05,3.9.07,6.08.88s5,.5,7.48,1.26a18.06,18.06,0,0,1,2.16.81c3.66,1.64,7.37,3.08,10.9,5.07a27.72,27.72,0,0,1,9.43,9.4,10.88,10.88,0,0,1,1.3,5.41C392.12,383.35,392,388,392,392.68Zm-91-18.33c0,.82.28,1.72-.05,2.11-1.62,1.94-.89,3.7-.28,5.83,1.54,5.33,5.26,8.22,9.82,10.81,8.33,4.74,17.44,6.62,26.72,7.81a65.36,65.36,0,0,0,13,0,84,84,0,0,0,12.67-1.88,66.58,66.58,0,0,0,13.5-4.81c3.66-1.72,7.14-3.67,9.62-6.82,2.27-2.88,3.84-6.33,2.76-10.11a16.41,16.41,0,0,0-5.61-8.63c-5.75-4.4-12.55-6.65-19.39-8.61a66.69,66.69,0,0,0-10.66-1.89c-5.58-.66-11.3-.18-17-.18-2.06,1.78-4.67.58-6.95,1.3s-5,1-7.22,1.88c-4.12,1.63-8.46,2.71-12.29,5.4C306.35,368.89,304.13,372.15,301,374.35Zm-1,15c0,5.31,0,10.62,0,15.92,0,2.48,1.12,4.44,2.25,6.57,2.17,4.08,5.93,6,9.61,8.1s8.09,2.94,12.1,4.5c4.17,1.62,8.65,1.58,13,2.38,3.7.68,7.63.27,11.45.1s7.71-.63,11.56-1c.17,0,.4.07.49,0,1.75-1.61,4.19-1.54,6.19-1.8,2.46-.32,4.09-2.6,6.63-2.19,4.2-2.43,8.94-4.08,12.16-7.95a56.58,56.58,0,0,0,3.61-5.53c0-3.29,0-6.61,0-9.93,0-3.16.17-6.35-.18-9.93a44.59,44.59,0,0,1-8.69,7c-4.19,2.63-8.74,3.83-13.25,5.45s-9.21,2-13.78,2.72a57.73,57.73,0,0,1-16.91,0,114.86,114.86,0,0,1-13.8-2.64,58.65,58.65,0,0,1-11.66-4.37C307,394.85,302.88,392.92,300,389.39Z" transform="translate(-6.09 -242.74)"/><path d="M246,422.9c0,4.33.07,8.66,0,13a13.71,13.71,0,0,1-4.11,9.79c-6.09,6.08-13.48,9.33-21.74,11.53-4.41,1.18-8.91,1.86-13.32,2.59-5.35.88-11,.21-16.45.21-2.73-2.16-6.15-.54-9.25-1.77-2.62-1-5.77-1.3-8.56-2.27-6.07-2.14-12-4.64-16.56-9.46a16.67,16.67,0,0,1-5-12.42c.2-7.81.16-15.64,0-23.47-.14-7.46,3.83-12.15,9.74-15.89a46.17,46.17,0,0,1,13-6c2.09-.56,4.16-1.22,6.27-1.74a46.35,46.35,0,0,1,5.07-1c1.57-.2,3.2.31,4.64-1,.47-.41,1.61-.06,2.44-.06,4,0,8-.15,12,.05a43.25,43.25,0,0,1,10.24,1.76c1.21.36,2.62,0,3.91.22a25.46,25.46,0,0,1,3.59,1,17.8,17.8,0,0,1,3.07,1c3.86,1.94,7.89,3.46,11.59,5.84,5.59,3.6,9.45,9.23,9.46,15.55Zm-47.92,8.35c4.07-.35,8.07-.6,12.12-1.07a67.79,67.79,0,0,0,19.7-5.62c3.78-1.68,7.43-3.77,10-7.07,2.29-2.9,3.86-6.36,2.85-10.11a14.86,14.86,0,0,0-5.61-8.6c-3.42-2.35-6.9-4.68-11-5.85-3.89-1.09-7.51-3.17-11.72-3-1.46-1.72-3.6-.2-5.08-1-1.87-1-3.71-.9-5.63-.91-3.82,0-7.65,0-11.48,0a7.66,7.66,0,0,0-2.49,0c-4.13,1.53-8.62,1.46-12.76,2.95-4.35,1.56-8.82,2.68-12.82,5.25-2.95,1.9-5.23,4.41-7.63,6.82a8.58,8.58,0,0,0-2.36,8.4,16.86,16.86,0,0,0,6.24,9.35c6.83,4.77,14.74,7.17,22.69,9.05C187.91,431,193.06,430.83,198.08,431.25ZM154,419.11c0,5.11,0,10.21,0,15.32,0,5.39,2.65,9.49,6.76,12.5a34.1,34.1,0,0,0,11.17,5.51c1.79.49,3.57,1,5.34,1.57a51.89,51.89,0,0,0,5.67,1.93c1.9.38,4.11-.24,5.8.48,2.15.91,4.19.52,6.25.53a108.54,108.54,0,0,0,15.58-.75,68.4,68.4,0,0,0,12-2.56,48.37,48.37,0,0,0,13.7-6.64c3.31-2.43,6.21-5.53,6.59-9.55.57-6.06.15-12.2.15-18.42-2.52,2-4.68,3.84-7,5.44a38,38,0,0,1-7.24,4.18,77.76,77.76,0,0,1-11.1,3.3,106.26,106.26,0,0,1-12.14,2,62.58,62.58,0,0,1-9,0c-2.87-.11-5.87.74-8.57-1-4.25.58-8.17-1-12.12-2.07s-7.91-2-11.24-4.09C161,424.64,156.92,422.82,154,419.11Z" transform="translate(-6.09 -242.74)"/><path class="cls-1" d="M447,344.32c3.31-2.53,5.53-5.79,9-8,3.88-2.44,8.16-3.69,12.31-5.31,2.16-.83,4.61-.91,6.8-1.69s4.9.48,6.92-1.36c5.66,0,11.38-.49,17,.18A67.8,67.8,0,0,1,509.13,330a92.14,92.14,0,0,1,9.23,3c5.51,2.22,11.14,4.26,14.28,10,1.46,2.68,2.74,4.86,2.3,7-.56,2.72-1.15,5.5-3.17,7.67-3.63,3.91-8.28,6.17-13.06,8.27-3.84,1.7-8,2.33-11.94,3.72a4.11,4.11,0,0,1-.89.26c-3.69.35-7.38.81-11.08,1s-7.75.58-11.46-.1c-4.75-.87-9.63-1-14.31-2.74-4.31-1.64-8.85-2.7-12.86-5.12-3-1.8-5.71-3.62-7.69-6.8-2.18-3.52-3.26-6.72-1.5-10.58C447.11,345.34,447,345,447,344.32Z" transform="translate(-6.09 -242.74)"/><path class="cls-2" d="M446,359.22c3.18,3.64,7.13,5.74,10.92,7.63a68,68,0,0,0,11.7,4.29,80.08,80.08,0,0,0,28.22,2.7c4.92-.37,10.14-.34,14.74-2.84,3.58.1,6.57-1.76,9.8-2.84,2.58-.85,4.45-2.92,6.89-3.84,2.79-1.06,4-3.78,6.73-5.44,0,6.41.44,12.71-.16,18.92-.37,3.83-3.3,6.87-6.46,9.17-4.61,3.35-13.87,6.72-19.6,8.09-8.47,2-17,2.09-25.63,1.9-1.87,0-3.77-1-5.57-.85-2.09.23-3.67-1-5.57-1.19s-3.5-1.14-5.27-1.67a53.47,53.47,0,0,1-5.39-1.47c-1.7-.7-3.17-1.95-4.85-2.74-4.77-2.25-8.45-5.41-9.75-10.78a11.12,11.12,0,0,1-.72-2.18C446,370.46,446,364.84,446,359.22Z" transform="translate(-6.09 -242.74)"/><path class="cls-1" d="M301,374.35c3.13-2.2,5.35-5.46,8.65-7.77,3.83-2.69,8.17-3.77,12.29-5.4,2.2-.88,4.85-1.13,7.22-1.88s4.89.48,6.95-1.3c5.66,0,11.38-.48,17,.18a66.69,66.69,0,0,1,10.66,1.89c6.84,2,13.64,4.21,19.39,8.61a16.41,16.41,0,0,1,5.61,8.63c1.08,3.78-.49,7.23-2.76,10.11-2.48,3.15-6,5.1-9.62,6.82a66.58,66.58,0,0,1-13.5,4.81,84,84,0,0,1-12.67,1.88,65.36,65.36,0,0,1-13,0c-9.28-1.19-18.39-3.07-26.72-7.81-4.56-2.59-8.28-5.48-9.82-10.81-.61-2.13-1.34-3.89.28-5.83C301.28,376.07,301,375.17,301,374.35Z" transform="translate(-6.09 -242.74)"/><path class="cls-2" d="M300,389.39c2.88,3.53,7,5.46,10.72,7.4a58.65,58.65,0,0,0,11.66,4.37,114.86,114.86,0,0,0,13.8,2.64,57.73,57.73,0,0,0,16.91,0c4.57-.68,9.29-1.11,13.78-2.72s9.06-2.82,13.25-5.45a44.59,44.59,0,0,0,8.69-7c.35,3.58.15,6.77.18,9.93,0,3.32,0,6.64,0,9.93a56.58,56.58,0,0,1-3.61,5.53c-3.22,3.87-8,5.52-12.16,7.95-2.54-.41-4.17,1.87-6.63,2.19-2,.26-4.44.19-6.19,1.8-.09.08-.32,0-.49,0-3.85.33-7.7.8-11.56,1s-7.75.58-11.45-.1c-4.31-.8-8.79-.76-13-2.38-4-1.56-8.32-2.35-12.1-4.5s-7.44-4-9.61-8.1c-1.13-2.13-2.26-4.09-2.25-6.57C300,400,300,394.7,300,389.39Z" transform="translate(-6.09 -242.74)"/><path class="cls-1" d="M198.08,431.25c-5-.42-10.17-.23-15-1.39-7.95-1.88-15.86-4.28-22.69-9.05a16.86,16.86,0,0,1-6.24-9.35,8.58,8.58,0,0,1,2.36-8.4c2.4-2.41,4.68-4.92,7.63-6.82,4-2.57,8.47-3.69,12.82-5.25,4.14-1.49,8.63-1.42,12.76-2.95a7.66,7.66,0,0,1,2.49,0c3.83,0,7.66,0,11.48,0,1.92,0,3.76-.06,5.63.91,1.48.77,3.62-.75,5.08,1,4.21-.13,7.83,1.95,11.72,3,4.15,1.17,7.63,3.5,11,5.85a14.86,14.86,0,0,1,5.61,8.6c1,3.75-.56,7.21-2.85,10.11-2.59,3.3-6.24,5.39-10,7.07a67.79,67.79,0,0,1-19.7,5.62C206.15,430.65,202.15,430.9,198.08,431.25Z" transform="translate(-6.09 -242.74)"/><path class="cls-2" d="M154,419.11c2.92,3.71,7,5.53,10.59,7.73,3.33,2.05,7.38,3.07,11.24,4.09S183.7,433.58,188,433c2.7,1.71,5.7.86,8.57,1a62.58,62.58,0,0,0,9,0,106.26,106.26,0,0,0,12.14-2,77.76,77.76,0,0,0,11.1-3.3,38,38,0,0,0,7.24-4.18c2.34-1.6,4.5-3.47,7-5.44,0,6.22.42,12.36-.15,18.42-.38,4-3.28,7.12-6.59,9.55a48.37,48.37,0,0,1-13.7,6.64,68.4,68.4,0,0,1-12,2.56A108.54,108.54,0,0,1,195,457c-2.06,0-4.1.38-6.25-.53-1.69-.72-3.9-.1-5.8-.48a51.89,51.89,0,0,1-5.67-1.93c-1.77-.57-3.55-1.08-5.34-1.57a34.1,34.1,0,0,1-11.17-5.51c-4.11-3-6.77-7.11-6.76-12.5C154,429.32,154,424.22,154,419.11Z" transform="translate(-6.09 -242.74)"/></svg>