<svg id="Layer_1" data-name="Layer 1" xmlns="http://www.w3.org/2000/svg" viewBox="0 0 1040.93 396.05"><defs><style>.cls-1{fill:#fff;}</style></defs><path d="M-232,430.07V377.66c1.51-.71,3-2,4.59-2.06,5.77-.17,11.1-2.43,16.73-3.26a31.39,31.39,0,0,0,6.85-1.45,34.45,34.45,0,0,1,6.93-1.38c2.35-.38,4.82-.35,7.06-1.07a100.55,100.55,0,0,1,18.86-3.94c1.59-1.6,3.7-.7,5.77-1.17,2.53-3.93,6.7-6.32,10.68-8.65a43,43,0,0,1,11.26-4.1c4-1,8.08-1.59,12.11-2.32a67.48,67.48,0,0,1,9.13-.72c3.16-.16,6.55-.73,9.43.16s5.84-.18,8.24,1.8c2.19-.44,4.42.62,6.71-.74,1.66-1,4-.33,6-1.12,2.46-.93,5.39-.58,8-1.19,5-1.16,10.22-1.81,15.15-3.28,2.25-.68,4.64-.24,6.86-1.54,1.65-1,4-.78,6-1.13,1.86-.32,3.71-.73,5.59-1,2-.27,3.89-1.65,6.08-1,6.09-2.2,12.53-2.81,18.81-4.15a39.65,39.65,0,0,1,5.76-.88c2.7-3.87,6.68-6.49,10.73-8.74,3.47-1.92,7.44-3,11.24-4.2,4.63-1.52,9.55-1.72,14.28-2.89,3-.74,6.32-.36,9.46-.07s6.27-1.26,9.09.93c2.79-.44,5.4.91,8.09.91a26.08,26.08,0,0,0,9-1.21c1.66-.61,3.41,0,4.64-.8,1.56-1,3.1-.64,4.64-.94,5.38-1,10.73-2.22,16.09-3.4,2.12-.46,4.21-1.34,6.35-1.48,3-.2,5.87-1.28,8.83-1.66a51.23,51.23,0,0,0,8.86-1.62c5.08-1.64,10.43-1.86,15.47-3.61,2.82-1,6-.91,9.34-1.37a29.56,29.56,0,0,1,10.59-8.5A60.4,60.4,0,0,1,149,290.43c4.55-1.22,9.29-1.39,13.79-2.85,1.51-.49,3.31-.08,5-.08,3.5,0,7.06-.39,10.48.12a84.39,84.39,0,0,1,9.72,1.75c3.6,1,7.26-.7,10.88-1.3,2.14-.36,4.24-1.5,6.34-1.47,4.71.06,9.22-1.29,13.62-2.33,5.28-1.26,10.65-2.35,15.94-3.54,4.11-.93,8.41-1.6,12.59-2.4,3.62-.68,7.39-1.23,10.87-2.63,1.65-.66,3.34-.08,5.15-.85,2.7-1.14,5.91-1.07,9.39-1.59,2.53-3.47,6.42-6.16,10.48-8.39a44.53,44.53,0,0,1,11.2-4.25c4-.92,8.14-1.46,12.1-2.33,6.1-1.34,12.11-.36,18.13-.72,1.5-.1,3.05.63,4.58.92a27,27,0,0,1,4.2.72,7.66,7.66,0,0,0,6.62-.35c1.69-1.07,3.61-.08,5.55-1.15,2.21-1.22,5.28-.84,8-1.22,2.35-.33,5-.18,6.93-1.3,2.1-1.21,4.34-.2,6.43-1.53,1.71-1.1,4.4-.51,6.46-1.23,4-1.39,8.41-1,12.28-2.93,5.94.11,11.46-2.21,17.21-3.22,3.91-.68,8.08-.89,11.83-2.7,1.07-.51,2.59-.08,4-.08,2.66-4.15,6.85-6.5,10.81-8.87a36.26,36.26,0,0,1,10.79-4c4-.88,8.11-1.5,12.11-2.31,5.92-1.2,11.77-.73,17.62-.66a31.43,31.43,0,0,1,9.27,1.61,8.46,8.46,0,0,0,5.35.14c3.84-1.5,8-1.24,11.86-2.73,2.08-.8,4.67-.46,7.05-1,3-.76,6.13-1.19,9.17-2,2.84-.79,5.82-1,8.7-1.92,1.89-.59,4-.61,6-1.06,6-1.33,12.09-1.81,17.87-4,1.61-.61,3.67.73,5.05-1.08,4.86.31,9.27-2.37,14.24-2,2.67-4.06,6.79-6.5,10.79-8.82,3.41-2,7.44-2.94,11.24-4.17,4.64-1.51,9.53-2.1,14.28-2.83,5.54-.85,11.3-.2,17-.2,2.38,2.07,5.49.65,8.25,1.82,3.28,1.38,7-.53,10.41-1.12s7-1.92,10.71-1.67L809,358.17v53.95c-2.08.45-4.2,1-6.34,1.37s-4.59,0-6,1.16c-2,1.69-4.76-.42-6.29,1.85-4.37-.26-8.39,1.64-12.66,2.1-3.69.4-7.27,1.71-10.91,2.56-2.14.5-4.32.73-6.47,1.24-3,.73-6.11,1.38-9.17,2a60.43,60.43,0,0,0-8.71,2c-1.83.65-4,.62-6,1.07-4.74,1.05-9.52,1.88-14.26,3a82,82,0,0,0-8.7,2c-2.65.93-6,.11-8.42,1.36-2.16,1.12-4.4.07-6.44,1.48-1.59,1.1-3.94.16-6,1.18-1.89.95-4.38.58-6.51,1.18-4.85,1.36-9.84,2-14.74,3-5.41,1.14-11,1.65-16.23,3.09s-10.65,2.41-15.94,3.6c-4.11.92-8.4,1.6-12.59,2.39a71.37,71.37,0,0,0-10.88,2.59c-1.94.68-4,.47-6.05,1-2.82.77-5.88,1.11-8.76,1.86s-6,.58-8.52,2.35c-4.19-.18-8.09,1.46-12.16,2.06a91,91,0,0,0-11,2.44c-2.1.58-4.65-.55-6.35,1.5-6.37.89-12.6,2.46-18.88,3.8-4.13.88-8.35,1.8-12.61,2.33a109.82,109.82,0,0,0-11.14,2.08c-3.58.83-7.55.59-10.8,2.79-4.2-.22-8.13,1.29-12.16,2.08-5.51,1.08-11.1,1.88-16.5,3.55a48.93,48.93,0,0,1-6.94,1.36c-2.51.4-5.4,0-7.49,1.18-2.26,1.24-4.93-.2-6.8,1.75-4.22-.38-8.1,1.44-12.09,2.27-5.64,1.17-11.48,1.61-16.91,3.73-4.23-.38-8.06,1.59-12.11,2.27-3.6.61-7.39,1-10.88,2.6-1.79.82-4,.51-6,1.06-4.36,1.18-8.85,2.09-13.26,2.91s-9,1.9-13.6,2.44c-3.62.42-7.46.82-10.91,2.48-1.86.9-4.24-.39-5.95,1.32-6,.3-11.71,2.77-17.76,3-3.33,1.92-7.29,1.42-10.81,2.87-1.93.8-4.36.08-6.57,1-1.83.79-4,.77-6,1.09-2.2.35-4.72.11-6.5,1.16s-4.3-.06-5.76,1.84c-4.19-.18-8.13,1.29-12.15,2.09-5.51,1.09-11.15,1.66-16.47,3.64-1.93.71-4,.1-6.05,1.12s-5.12.13-6.88,1.33c-2.1,1.43-4.74-.41-6.31,1.78-2.3-.36-4.38.81-6.58,1-4,.31-7.61,1.94-11.59,2.34-3.06.31-6.07,1.43-9.23,1.8a105.22,105.22,0,0,0-11,2.3c-2.12.49-4.2,1.41-6.34,1.55-6,.41-11.68,3-17.75,3.06-3.34,1.87-7.25,1.61-10.8,2.85-2.14.75-4.67.54-7.06,1C169,544,161.67,545,154.66,547.29c-1.94.64-4,0-6.07,1.09-1.72.92-4,.75-6,1.13s-4.57.41-6.37,1.46-4.4-.6-5.89,1.53c-4.36-.24-8.43,1.45-12.64,2.16-3.63.62-7.46.86-10.91,2.52-1.86.9-4,.19-6,1.16s-5.34.18-7.42,1.33c-2.4,1.33-5.26-.22-7.26,1.83-4.38-.3-8.53,1.07-12.64,2.12-5.76,1.47-11.71,2-17.4,3.78a22.91,22.91,0,0,1-5.56.91c-2,.12-3.63,1.26-5.58,1.22s-3.56,1.55-5.58,1c-2.38,2.09-5.52.44-8.26,1.83-2.27,1.16-5.42.46-8,1.25-5.22,1.64-10.62,2.57-15.91,3.71-4.13.88-8.41,1.59-12.6,2.38-3.62.69-7.43.9-10.89,2.57-1.83.88-4,.51-6,1a69,69,0,0,1-8.78,1.8A48.81,48.81,0,0,0-40,586.7c-5.09,1.69-10.36,2.35-15.5,3.48-4.57,1-9.22,2.54-14,2.35ZM-66.88,537.61a29.32,29.32,0,0,1,3.59-1.08c2.51-.43,5.32-.14,7.5-1.19,1.91-.92,4.19-.24,5.75-1.84,2.36.72,4.32-1,6.59-1.06,2-.06,4.29-.15,6-1.06,2-1,4.15-.39,6.06-1.09a64.25,64.25,0,0,1,10.88-2.61c4.19-.75,8.48-1.47,12.59-2.4,5.29-1.2,10.71-1.92,16-3.59a54.52,54.52,0,0,1,8.85-1.63,68.72,68.72,0,0,0,8.79-1.77c2-.57,4.12-.31,6-1.06,3.83-1.48,7.92-1.82,11.87-2.71,2.64-.6,5.36-.83,8-1.3a71.82,71.82,0,0,0,8.23-1.8c2.55-.76,5.23-.63,7.75-1.81,1.93-.89,4.35-.72,6.53-1.13,1.05-.2,2-.8,3.1-.94,1.31-.17,2.85.38,4-.11,4.61-2.06,10-1.09,14.39-3.91.23-.15.65,0,1,0,4.32-.06,8.52-1.3,12.62-2.22,5.3-1.19,10.66-2.4,15.95-3.54,5.83-1.26,11.67-2.95,17.7-3.24,1.71-1.71,4-.58,6-1.28,5.33-1.93,11-2.55,16.48-3.64,4-.79,8-2.27,12.15-2.08,5-2.5,10.59-2.8,15.89-3.75,4.5-.82,9-2.37,13.63-2.25,1.68-2.08,4.22-.72,6.35-1.57,3.44-1.36,7.29-1.75,11-2.4,2.68-.47,5.55-.25,8.05-1.14a69.79,69.79,0,0,1,10.81-2.79c3.88-.71,7.64-2.18,11.65-2.1,1.72-1.69,4-.6,6-1.26a70.3,70.3,0,0,1,10.89-2.58c4.21-.73,8.49-1.46,12.6-2.39,5.29-1.19,10.78-1.67,15.92-3.69,2-.79,4.36-.72,6.56-1.08s4.94-.3,6.91-1.38,4.67.45,6.34-1.62c5.9-.14,11.31-3.11,17.26-3,4.21-1.92,8.95-1.43,13.29-2.89,1.42-.47,3.05-.5,4.58-1s3-.44,4.61-.92a54.84,54.84,0,0,1,9.63-2,95.54,95.54,0,0,0,14.76-3.09c2.12-.58,4.62-.22,6.51-1.17,2.05-1,4.4-.08,6-1.18,2-1.41,4.28-.35,6.44-1.48,2.38-1.25,5.76-.45,8.42-1.36,2.88-1,5.82-1.29,8.69-2,4.74-1.15,9.54-1.88,14.27-3,2-.46,4.24-.36,6.05-1,6.64-2.54,13.81-2.55,20.52-4.76,2.68-.88,5.82-.36,8.49-1.26,2.89-1,5.91-1.13,8.69-2,6-1.87,12.38-1.94,18.42-3.74,3-.88,6.14-1.08,9.16-2,2.09-.65,4.44-.49,6.55-1.12,2.35-.7,5-.31,7-1.1,4.7-1.8,10-1.06,14.4-3.84,2.17.53,4.06-.64,6.09-1,1.86-.33,3.72-.68,5.58-1,2-.35,4.19-.35,6.05-1.1,2-.81,4.07-.67,6.08-1.05,1.79-.35,3.48-1.73,5.22-1.73,2.17,0,4.06-.78,6.08-1.13s3.72-.68,5.59-1c2-.35,4.2-.33,6-1.1,2-.85,4.18-.44,6.06-1.1,2.38-.83,4.84-1.2,7.22-1.87,2.55-.73,5.21-1.18,7.75-1.68a48.43,48.43,0,0,1,7.52-1.34,26.61,26.61,0,0,0,6.51-1.16c5.88-1.81,12-2.42,17.89-3.9,2.26-.56,4.6-.94,6.85-1.45,3.5-.79,7-1.61,10.53-2.38a38.83,38.83,0,0,1,6.59-1c2.27-.09,4.26-1.72,6.62-1.05,5.08-2.12,10.68-2.06,15.91-3.8a49,49,0,0,1,8.87-1.58,78.39,78.39,0,0,0,8.77-1.82c2-.49,4.29-.11,6-1,4.56-2.42,9.73-2.07,14.49-3.62,3.07-1,6.47-1,9.65-2.07s6.8-1.18,10.19-1.89c2.9-.61,5.9-1.2,8.89-1.57a73.87,73.87,0,0,0,8.78-1.81c2-.51,4.18-.24,6-1,5.12-2.15,10.66-2.42,16-3.61,4.13-.92,8.47-1.48,12.58-2.4,4.54-1,9.19-1.77,13.46-3.08L645.06,199.61,636.52,201c.57.67.86,1.35,1.29,1.46a32.73,32.73,0,0,1,8.76,4.19,22.92,22.92,0,0,1,7.53,7.24c1.44,2.21,2.79,4.3,2.82,6.85.12,9.5.2,19,0,28.5a13.31,13.31,0,0,1-3.57,8.5c-3.79,4.29-8.75,6.84-13.64,9.42-2.41,1.27-5.32,1.61-8,2.34-2.55.69-5.13,1.93-7.66,1.85-3-.11-5.65,1.41-8.59,1.17-5.69-.47-11.36.23-17.13-.8a107.06,107.06,0,0,1-14.21-3.22,53.69,53.69,0,0,1-11-4.85,29.81,29.81,0,0,1-7.08-5.73,13.88,13.88,0,0,1-3.94-8.33c-.23-3.65,0-7.33,0-11,0-3.83,0-7.66,0-11.49,0-3.49-.51-7,1-10.24-24.22,4.63-48.05,9.79-73.06,14.38a36.65,36.65,0,0,0,4.25,2.23,29.44,29.44,0,0,1,13.55,9.4A15.13,15.13,0,0,1,511,253c-.23,8-.11,16-.05,24a15.73,15.73,0,0,1-4.9,12,41.94,41.94,0,0,1-11.43,7.5c-7.57,3.66-15.83,4.76-24,5.92a62.86,62.86,0,0,1-11.48,0c-3.7-.16-7.39-.62-11.09-1a3.57,3.57,0,0,1-.88-.27,60.32,60.32,0,0,0-7.75-1.87c-2.52-.5-4.9-1.8-7.29-2.86-5-2.22-9.75-5-13-9.48a15.82,15.82,0,0,1-3.26-10.16c.3-7.49,0-15,.12-22.5,0-2.5.36-5,.55-7.44L344.72,261.2c.36.45.63,1.11,1.07,1.26a46.82,46.82,0,0,1,8.37,4,25.14,25.14,0,0,1,8.25,7.81c1.38,2.08,2.46,4.14,2.5,6.47.14,9.5.21,19,0,28.5a13.34,13.34,0,0,1-3.56,8.51c-3.78,4.31-8.75,6.83-13.63,9.42-2.41,1.27-5.32,1.62-8,2.35s-5.13,1.93-7.66,1.85c-3-.11-5.65,1.41-8.6,1.17-5.68-.47-11.4.64-17.12-.88-2.21-.59-4.74-.34-7.05-1.12a67.63,67.63,0,0,0-6.73-1.81,42.78,42.78,0,0,1-13.84-6.38,18.55,18.55,0,0,1-7.88-10.07,22.39,22.39,0,0,1-.79-6.15c-.13-3.33,0-6.66,0-10s0-6.66,0-10c0-3.16-.45-6.36,1-9.24-24.26,4.59-48.08,9.79-73.1,14.36a34.14,34.14,0,0,0,4.23,2.24,28.93,28.93,0,0,1,13.55,9.39A15.19,15.19,0,0,1,219,313c-.24,8-.11,16,0,24a15.82,15.82,0,0,1-4.88,12c-2.78,2.75-6.14,4.46-9.33,6.53-4.11,2.67-8.91,3.64-13.48,4.8a61.47,61.47,0,0,1-15.62,2.19c-3.34,0-6.67,0-10,0s-6.63-1.67-10.09-1c-4.61-2.23-9.79-2.59-14.52-4.81-5-2.35-9.73-4.74-13.25-8.94a15.24,15.24,0,0,1-3.9-10.38c.18-7.83,0-15.66.08-23.5,0-2.34.36-4.68.55-7L53,321.15v1.09a41,41,0,0,1,9.18,4.2,25.2,25.2,0,0,1,8.25,7.8c1.35,2.08,2.48,4.12,2.52,6.46.12,9.5.2,19,0,28.5a13.42,13.42,0,0,1-3.54,8.52c-3.77,4.32-8.75,6.84-13.64,9.42-2.42,1.27-5.32,1.62-8,2.36s-5.13,1.93-7.66,1.85c-3-.11-5.65,1.41-8.6,1.17-5.68-.47-11.35.17-17.12-.79A93.58,93.58,0,0,1-.37,388.4c-3.48-1.16-7.36-1.77-10-4.76-3.09-.57-5-2.86-6.93-5-3-3.23-4.88-6.9-4.75-11.54.17-6.49,0-13,.06-19.5,0-3.65-.62-7.36,1-10.76-24.22,4.59-48,9.78-73.07,14.36a35.63,35.63,0,0,0,4.21,2.24,28.75,28.75,0,0,1,13.56,9.38A15.28,15.28,0,0,1-73,372.94c-.24,8.16-.11,16.34-.05,24.5a15.37,15.37,0,0,1-4.52,11.17c-2.92,3.09-6.51,5-10.12,7s-7.54,3.77-11.89,3.89c-4.24,2.61-9.21,1.87-13.8,2.83-3.67.77-7.64.28-11.46.11s-7.4-.62-11.09-1a3.56,3.56,0,0,1-.89-.24c-4.82-1.68-9.86-2.51-14.58-4.65-5-2.27-9.74-4.88-13.14-9.2a15.34,15.34,0,0,1-3.6-10c.22-8.33,0-16.67.1-25a53.28,53.28,0,0,1,.64-5.71l-58.33,12.12ZM805.87,360.47a8,8,0,0,1-2,1c-1.14.14-2.46-.26-3.44.16-5.09,2.21-10.63,2.57-15.94,3.69-4.14.88-8.47,1.47-12.58,2.39-6.28,1.41-12.53,2.86-18.89,3.79-1.68,2.08-4.22.88-6.34,1.57a71.27,71.27,0,0,1-15.6,3.28c-4.33.38-8.24,2.68-12.64,2.2-6.54,2.81-13.78,2.66-20.48,4.86-2.68.89-5.82.37-8.5,1.26-2.88,1-5.89,1.16-8.68,2-5.57,1.66-11.31,2.43-16.93,3.64-4.9,1.05-9.85,1.88-14.76,3-1.93.45-4,.91-6,1.19-1.87.25-3.72.66-5.59,1-2,.35-4.25.26-6,1.11-2,1-4.16.42-6.07,1.08-5.66,1.95-11.58,2.65-17.41,3.82a48.76,48.76,0,0,1-6.55,1.18c-1.77.11-3.47,1.68-5.21,1.68-2.17,0-4.06.78-6.09,1.13-1.86.33-3.72.68-5.58,1-2,.35-4.2.32-6,1.1-2,.85-4.25.32-6,1.09-4.65,2-9.77,1.9-14.47,3.7-2.61,1-5.82.37-8.48,1.27-2.89,1-5.89,1.17-8.69,2-5.56,1.66-11.3,2.46-16.93,3.63-4.91,1-9.85,1.89-14.75,3-1.94.45-4,.9-6.05,1.19-1.87.26-3.72.66-5.58,1-2,.35-4.24.27-6,1.11-2,.94-4.21.34-6.06,1.08-5.46,2.19-11.3,2.53-16.95,3.65-4.17.82-8.28,2.34-12.64,2.16-5,2.43-10.59,2.63-15.89,3.79s-10.78,2.26-16.2,3.25c-3.72.68-7.33,2-11.18,2-1.76,1.59-4.15,1.22-6.2,1.91-2.22.75-4.71.67-7.05,1.12-2.14.4-4.23,1.06-6.36,1.53-5.35,1.17-10.7,2.37-16.08,3.41-2.66.51-5.52.28-8.05,1.12-6,2-12.25,2.64-18.34,4.05-2,.47-4.17.37-6.05,1-5,1.81-10.31,2.65-15.46,3.58-4.33.79-8.68,1.87-13.12,2.31a35.13,35.13,0,0,0-6.48,1.22c-5.73,1.73-11.62,2.55-17.45,3.73-1.21.24-2.38.71-3.59,1s-2.69-.56-3.65.85c-4-.16-7.64,1.89-11.6,2.22a33,33,0,0,0-6.53,1.13,96.76,96.76,0,0,1-13.31,2.85c-2.14.33-4.21,1.1-6.34,1.57-5.36,1.16-10.72,2.34-16.1,3.36-2.66.51-5.53.27-8.05,1.12-6,2-12.26,2.6-18.33,4.07-2,.5-4.4.07-6,1.13-2,1.37-4.33.24-6.42,1.56-1.72,1.09-4.45.43-6.44,1.25-2.38,1-4.93.24-7.07,1.06-3.85,1.47-7.93,1.95-11.86,2.63s-7.86,2.81-12.12,2.21c-2.5,1.59-5.5,1.1-8.17,2a42.36,42.36,0,0,1-8.69,1.84c-4.13.44-7.89,2.77-12.15,2.17-3.26,2.18-7.22,2.15-10.8,2.78-4,.7-7.88,2.75-12.13,2.22-1.78,2.16-4.54.4-6.78,1.83-1.83,1.17-4.73.51-7,1.26-2.37.8-4.93.3-7.06,1.06-3.56,1.26-7.47,1-10.81,2.85-6.07.09-11.71,2.67-17.75,3.07-2.14.14-4.22,1.06-6.34,1.54-3.66.83-7.32,1.69-11,2.36-2.66.49-5.54.25-8,1.13-5.19,1.8-10.64,2.53-15.93,3.66C6,525.5.2,527.24-5.85,527.5c-1.71,1.7-4,.58-6,1.28-5.32,1.93-11,2.56-16.47,3.64-4,.79-8,2.27-12.16,2.08-1.43,2-3.87.67-5.76,1.84s-4.3.82-6.49,1.16c-2,.33-4.08.57-6.08,1-2.72.61-5.4,1.38-8,2.07-.62,11.94-.4,44.87.32,49a19.93,19.93,0,0,1,3.07-1.06c2.52-.43,5.26-.19,7.54-1.13,5.14-2.1,10.65-2.38,15.93-3.74,6.19-1.6,12.7-2,18.8-4.16,2.2.7,4-.81,6.08-1,1.88-.19,3.73-.65,5.59-1,2-.35,4.27-.25,6-1.12,2-1,4.2-.34,6.06-1.1,5.13-2.1,10.65-2.44,16-3.62,4.13-.91,8.28-2.36,12.64-2.17,7.22-2.81,15-3.38,22.45-4.86,4.17-.82,8.33-1.89,12.62-2.34,2.13-.23,4.47-1.44,6.71-1.68,2.55-.27,4.9-1.35,7.58-1.26,2.22.08,4.46-1.43,6.74-1.6,3.21-.24,6.06-1.8,9.11-2.14A108.71,108.71,0,0,0,109,553.28c5.28-1.23,10.73-1.83,16-3.58a47.1,47.1,0,0,1,8.86-1.6,71,71,0,0,0,8.77-1.81c2-.52,4.17-.25,6-1,5.13-2.12,10.66-2.45,16-3.6,4.14-.91,8.28-2.37,12.64-2.17,7.21-2.86,14.95-3.37,22.45-4.86,4.17-.82,8.28-2.4,12.65-2.14,5.3-2.63,11.24-2.82,16.88-3.79,5.44-.92,10.56-3.52,16.22-3.21,2.5-1.58,5.49-1.12,8.17-2a43.61,43.61,0,0,1,8.69-1.85c4.13-.43,7.88-2.76,12.15-2.18,2.51-1.55,5.48-1.15,8.18-2a46.71,46.71,0,0,1,8.68-1.86c4.14-.4,7.89-2.73,12.15-2.18,2.52-1.51,5.48-1.17,8.18-2a48.56,48.56,0,0,1,8.68-1.86c4.15-.39,7.89-2.72,12.15-2.19,4.34-2.13,9.2-1.86,13.79-2.87,4-.88,7.94-2.32,12.15-2.1,1.94-1.61,4.46-1.47,6.69-1.87,2.49-.44,4.9-1.84,7.56-1.13,1.85-2,4.52-.85,6.79-1.7a37,37,0,0,1,9.07-2.21,105,105,0,0,0,12.61-2.31c5.29-1.19,10.65-2.4,15.94-3.54,5.83-1.26,11.67-2.94,17.71-3.24,1.71-1.71,4-.58,6-1.29,5.33-1.92,11-2.54,16.48-3.63,4-.79,8-2.27,12.16-2.08,5-2.5,10.58-2.79,15.88-3.75,4.5-.82,9-2.37,13.63-2.25,1.68-2.08,4.22-.69,6.35-1.57a32.53,32.53,0,0,1,10.5-2.32c4.66-.25,9-2.39,13.67-2.11,6.08-3.18,13.11-2.62,19.46-4.9,1.69-.61,3.71-.3,5.58-1s4.16-.43,6-1.18,4.13-.22,5.52-1.07c2.37-1.45,5-.39,7.36-1.67,2.11-1.13,5.09-.47,7.46-1.28,1.9-.65,4.09-.23,5.53-1.06,1.89-1.09,4-.72,5.84-1.69s4.32-.79,6.51-1.14c2-.32,4.35-.16,6-1.13,2-1.17,4.09-.48,6-1.15a68.13,68.13,0,0,1,10.9-2.56c4.22-.69,8.28-2.41,12.65-2.16,1.47-1.9,3.95-.14,5.41-1.37,1.64-1.37,3.47-.07,5.14-.93a19.46,19.46,0,0,1,5.3-1.66c2.67-.49,5.51-.32,8-1.15s5.21-.83,7.76-1.75,5.83-.36,8.48-1.29a82,82,0,0,1,8.7-2c4.74-1.09,9.52-1.91,14.26-3,2-.45,4.33-.29,6-1.08,3.35-1.57,7-1.7,10.4-2.6s7.09-1.38,10.63-2.19c2.77-.62,5.62-.88,8.4-1.45s5.65-1,8.3-1.76c5.74-1.6,11.64-2.35,17.43-3.64,4-.89,8-1.83,12-2.54s8.29-1.52,12.38-2.59c2.86-.75,5.87-.78,8.69-2,1.7-.72,3.7-.68,5.55-1.08,2.88-.62,5.75-1.33,8.64-2ZM-229,427.28q79.8,79.82,158.84,158.84V540.55Q-149.75,461-228.87,381.87c.05-.07-.15.05-.15.18C-229,397.37-229,412.69-229,427.28ZM566,216.9c0,.68.27,1.55,0,2-2.35,3-.67,5.95.54,8.48a16.52,16.52,0,0,0,8.91,8.2c1.71.7,3.18,2,4.88,2.69s3.66.82,5.38,1.5a42.11,42.11,0,0,0,5.73,1.86,28.67,28.67,0,0,0,5.6,1c1.87.07,3.71.82,5.58.9,3.66.15,7.33.17,11,0s7.38-.63,11.07-1c.32,0,.71,0,.95-.12,1.88-1.27,4.19-1.09,6.22-1.86s4.19-1.17,6.14-2.05c4.75-2.14,9.57-4.32,13-8.46,2.35-2.87,3.69-6.32,2.92-10.12-.68-3.35-4-6.83-7.24-9.46s-6.95-4.09-10.72-5.55c-6.17-2.4-12.66-3.48-19.17-4.31-3.11-.4-6.32-.07-9.48-.07-2.16,0-4.73-.73-6.4.18-2.25,1.23-4.47.26-6.58,1s-4.52,1.19-6.72,1.88c-4.25,1.32-8.49,2.68-12.37,5.11C571.55,211,569.15,214.29,566,216.9ZM420.12,246.78c-.14.88,0,1.84-.42,2.42-2,2.93-.39,5.74.75,8.08,1.81,3.74,5,6.36,8.83,8.32,4.19,2.12,8.63,3.34,12.91,5,4.68,1.87,9.57,1.78,14.32,2.72,3.53.69,7.31.26,11,.1s7.39-.64,11.08-1a3.42,3.42,0,0,0,1-.07c4-1.67,8.4-2.13,12.35-3.94,4.74-2.16,9.5-4.34,13-8.41a11.61,11.61,0,0,0,3-9.67,15.35,15.35,0,0,0-6.36-9.78c-6.82-4.74-14.71-7.37-22.71-8.93-5.17-1-10.59-1.8-16-1.24-2.64.26-5.45-.46-8,.15-4.4,1.09-9,1.44-13.25,2.94s-8.48,2.74-12.37,5.13C425.58,240.89,423.18,244.23,420.12,246.78ZM274,276.83c0,.72.11,1.11,0,1.38-1.86,3.89-.47,7,1.55,10.56,2.15,3.78,5.56,5.64,8.92,7.51,3.74,2.09,8.08,3,12.1,4.51,4.4,1.63,9,1.62,13.39,2.55,3.67.78,7.63.29,11.45.13s7.72-.64,11.58-1c.16,0,.39.07.49,0,1.77-1.57,4.18-1.06,6.19-1.93s4.59-1.06,6.61-2.12c4.44-2.34,9.16-4.3,12.58-8.25,3.19-3.68,4.05-9.79,1.75-13.6a22.52,22.52,0,0,0-9-8.17c-9.15-5-19-7.21-29.19-7.87-4.48-.29-9-.05-13.49-.05-2,2-4.64.44-6.91,1.4-2.12.89-4.67.78-6.8,1.67-4.12,1.71-8.44,2.81-12.3,5.35C279.49,271.14,277.22,274.36,274,276.83Zm-438,90c0,.82.28,1.72-.05,2.11-1.62,2-.89,3.7-.28,5.83,1.53,5.33,5.23,8.27,9.83,10.8,9.13,5,19,7.16,29.19,7.89,6.55.47,13.06-.27,19.57-1a5.92,5.92,0,0,0,1.41-.19c3.9-1.5,8.08-2.05,11.93-3.77,4.93-2.19,9.87-4.37,13.38-8.61,2.26-2.73,3.73-6.24,2.88-9.68a16.84,16.84,0,0,0-6.46-9.72c-4.47-3.23-14.12-6.49-19.59-8.21-3.42-1.08-7.1.25-10.21-1.82h-16.49c-2.06,1.78-4.67.58-7,1.3s-5,1-7.22,1.88c-4.12,1.64-8.46,2.71-12.29,5.4C-158.68,361.4-160.9,364.65-164,366.85Zm292-60c0,.82.28,1.72,0,2.11-1.62,1.94-.89,3.7-.28,5.83,1.53,5.33,5.23,8.27,9.83,10.8,9.12,5,19,7.16,29.19,7.89,6.55.47,13.06-.28,19.56-1a5.47,5.47,0,0,0,1.42-.19c3.9-1.5,8.08-2.05,11.93-3.77,4.93-2.19,9.87-4.37,13.38-8.61,2.27-2.73,3.73-6.23,2.88-9.68a16.84,16.84,0,0,0-6.46-9.72c-4.45-3.22-14.13-6.5-19.58-8.21-3.43-1.08-7.11.25-10.22-1.82H163.09c-2.06,1.78-4.68.58-7,1.3s-5,1-7.21,1.88c-4.12,1.63-8.47,2.71-12.3,5.4C133.32,301.39,131.1,304.65,128,306.85ZM23.06,363.58c6.06-.19,10.06-.42,14.11-.9a67.48,67.48,0,0,0,19.7-5.62c3.62-1.61,7.22-3.52,9.66-6.72,2.59-3.38,4.55-6.94,2.55-11.68-1.41-3.34-3.12-6.11-6.1-8.17a51.05,51.05,0,0,0-11.15-5.65,84.39,84.39,0,0,0-19.19-4.26c-3.28-.42-6.65-.08-10-.08-2,0-4.42-.71-5.89.17-2.24,1.33-4.47.29-6.58,1.07s-4.2,1.09-6.26,1.78C-.45,325-4.91,326.17-8.9,328.75a47.32,47.32,0,0,0-7.64,6.81,8.61,8.61,0,0,0-2.35,8.4,16.8,16.8,0,0,0,6.25,9.35c6.82,4.77,14.73,7.17,22.68,9.06C14.88,363.52,20,363.33,23.06,363.58Zm46.74,7.7V351.67c-2.34,1.82-4.49,3.69-6.84,5.28a37.66,37.66,0,0,1-7.23,4.19,77.8,77.8,0,0,1-11.1,3.31,103.42,103.42,0,0,1-12.14,2,63.92,63.92,0,0,1-9,0c-2.87-.12-5.88.73-8.57-1-4.26.59-8.17-1-12.13-2.07s-7.91-2-11.24-4.08c-3.59-2.22-7.71-4-10.29-7.89a153.54,153.54,0,0,0-.16,17.93,12,12,0,0,0,1.78,4.72c2.38,4.07,6.08,6.28,10,8.39S1,385.45,5,387c4.17,1.67,8.67,1.47,13,2.31,3.68.72,7.63.28,11.45.12s7.71-.63,11.56-1c.16,0,.39.07.49,0,1.78-1.52,4.17-1.09,6.19-1.93s4.59-1.05,6.6-2.12c4.29-2.26,9-4,12.16-7.94A50.7,50.7,0,0,0,69.8,371.28ZM654,230.82c-4.14,5.24-9.26,7.8-14.29,10.3-3.41,1.69-7.31,2.48-11.07,3.33a104.1,104.1,0,0,1-12.14,2,64.06,64.06,0,0,1-9,0c-2.87-.12-5.87.73-8.57-1-4.25.59-8.17-1-12.12-2.06s-7.91-2.05-11.24-4.1c-3.6-2.19-7.68-4-10.27-7.87-.32,5.25-.31,10.36-.32,15.46,0,5.4,2.65,9.49,6.76,12.5a34.1,34.1,0,0,0,11.17,5.51c1.79.49,3.57,1,5.34,1.57a51.89,51.89,0,0,0,5.67,1.93c1.9.38,4.11-.24,5.8.48,2.15.91,4.19.52,6.25.53a107.11,107.11,0,0,0,15.58-.75,68.58,68.58,0,0,0,12-2.55,48.77,48.77,0,0,0,13.7-6.64c3.31-2.44,6.21-5.54,6.59-9.56C654.39,243.89,654,237.75,654,230.82ZM419,260.65c0,6.79-.09,12.57.06,18.35a9.8,9.8,0,0,0,1.39,4.38,18,18,0,0,0,9,8.15c2.14.85,4.12,2.1,6.27,2.94s4.56,1.09,6.6,2.11a20.42,20.42,0,0,0,6.71,1.8c2.37.29,4.73.81,7.07,1a78.46,78.46,0,0,0,13.45,0,102.82,102.82,0,0,0,12.66-1.88c5.22-1.11,15.55-5.22,19.52-8.29,3-2.29,5.77-5.25,6.12-8.87.61-6.21.17-12.52.17-20-1.45,1.78-2.11,2.7-2.88,3.51-3.33,3.47-7.74,5.33-11.85,7.55-2.13,1.14-4.73,1.41-7.11,2.08s-4.8,1.28-7.19,1.87-5.14-.17-7.54,1.13c-6.17-.54-12.46,1.18-18.55-1-4.25.58-8.13-1.14-12.13-2a43.08,43.08,0,0,1-11.6-4.48C425.58,267,421.92,265,419,260.65Zm-57,30.17c-4.14,5.24-9.27,7.8-14.29,10.3-3.41,1.69-7.31,2.48-11.07,3.33a104.1,104.1,0,0,1-12.14,2,64.07,64.07,0,0,1-9,0c-2.87-.12-5.87.73-8.57-1-4.25.59-8.17-1-12.13-2.06s-7.9-2.05-11.24-4.1c-3.59-2.19-7.66-4-10.26-7.87-.32,5.25-.31,10.36-.32,15.46,0,5.4,2.65,9.49,6.76,12.5a34.2,34.2,0,0,0,11.17,5.51c1.79.49,3.57,1,5.34,1.57a51.89,51.89,0,0,0,5.67,1.93c1.9.38,4.11-.23,5.8.48,2.15.91,4.19.52,6.25.53a107.11,107.11,0,0,0,15.58-.75,67.5,67.5,0,0,0,12-2.56,48.21,48.21,0,0,0,13.7-6.63c3.31-2.44,6.21-5.54,6.59-9.56C362.39,303.89,362,297.75,362,290.82ZM-76,380.68c-3.46,4.53-7.55,6.64-11.55,8.95-5.64,3.26-12,4.17-18.07,5.78a48.53,48.53,0,0,1-10,1c-3.48.17-7,0-10.48,0-1,0-2.24.39-2.94-.07-2.29-1.49-4.85-.36-7.09-1s-4.78-1.29-7.18-1.93A53.17,53.17,0,0,1-155,389,28.56,28.56,0,0,1-165,380.8c0,5.55.05,10.18,0,14.8a15.47,15.47,0,0,0,7.7,14.27A52.21,52.21,0,0,0-147,415.06a69,69,0,0,0,23.11,4.42,108.52,108.52,0,0,0,15.58-.8,67.33,67.33,0,0,0,12-2.63,45.29,45.29,0,0,0,13.29-6.49c4.34-3.28,7.29-7,7.07-12.76C-76.18,391.84-76,386.86-76,380.68Zm203-58.81c0,5.31,0,10.62,0,15.92a9.8,9.8,0,0,0,.76,3.16,16.53,16.53,0,0,0,6.68,8.74,53.55,53.55,0,0,0,10.74,5.47,59.59,59.59,0,0,0,19.17,4.17c6,.3,12,.5,18.09-.6,5.73-1,11.34-2,16.77-4.19,7-2.79,13.61-5.91,16.78-14.2,0-5.58,0-11.89,0-18.2,0-.13-.14-.28-.25-.39a1.22,1.22,0,0,0-.35-.14c-4.54,5.08-10.29,8.3-16.59,10.55a86.47,86.47,0,0,1-20.17,4.24,57.67,57.67,0,0,1-15.42-.09,121.24,121.24,0,0,1-13.81-2.64,64.06,64.06,0,0,1-11.67-4.37C134,327.38,129.88,325.39,127,321.87Z" transform="translate(231.96 -196.5)"/><path class="cls-1" d="M-66.88,537.61-225.69,378.8l58.33-12.12a53.28,53.28,0,0,0-.64,5.71c-.07,8.33.12,16.67-.1,25a15.34,15.34,0,0,0,3.6,10c3.4,4.32,8.11,6.93,13.14,9.2,4.72,2.14,9.76,3,14.58,4.65a3.56,3.56,0,0,0,.89.24c3.69.35,7.38.81,11.09,1s7.79.66,11.46-.11c4.59-1,9.56-.22,13.8-2.83,4.35-.12,8.17-1.84,11.89-3.89s7.2-3.93,10.12-7A15.37,15.37,0,0,0-73,397.44c-.06-8.16-.19-16.34.05-24.5a15.28,15.28,0,0,0-3.38-10.09,28.75,28.75,0,0,0-13.56-9.38,35.63,35.63,0,0,1-4.21-2.24c25-4.58,48.85-9.77,73.07-14.36-1.59,3.4-.93,7.11-1,10.76-.07,6.5.11,13-.06,19.5-.13,4.64,1.75,8.31,4.75,11.54,2,2.11,3.84,4.4,6.93,5,2.66,3,6.54,3.6,10,4.76a93.58,93.58,0,0,0,14.68,3.33c5.77,1,11.44.32,17.12.79,3,.24,5.58-1.28,8.6-1.17,2.53.08,5.11-1.16,7.66-1.85s5.59-1.09,8-2.36c4.89-2.58,9.87-5.1,13.64-9.42a13.42,13.42,0,0,0,3.54-8.52c.24-9.49.16-19,0-28.5,0-2.34-1.17-4.38-2.52-6.46a25.2,25.2,0,0,0-8.25-7.8,41,41,0,0,0-9.18-4.2v-1.09l71.58-14.24c-.19,2.28-.53,4.62-.55,7-.07,7.84.1,15.67-.08,23.5a15.24,15.24,0,0,0,3.9,10.38c3.52,4.2,8.28,6.59,13.25,8.94,4.73,2.22,9.91,2.58,14.52,4.81,3.46-.66,6.68,1.06,10.09,1s6.66,0,10,0a61.47,61.47,0,0,0,15.62-2.19c4.57-1.16,9.37-2.13,13.48-4.8,3.19-2.07,6.55-3.78,9.33-6.53A15.82,15.82,0,0,0,219,337c-.06-8-.19-16,0-24a15.19,15.19,0,0,0-3.37-10.1,28.93,28.93,0,0,0-13.55-9.39,34.14,34.14,0,0,1-4.23-2.24c25-4.57,48.84-9.77,73.1-14.36-1.46,2.88-1,6.08-1,9.24,0,3.34,0,6.67,0,10s-.1,6.67,0,10a22.39,22.39,0,0,0,.79,6.15,18.55,18.55,0,0,0,7.88,10.07,42.78,42.78,0,0,0,13.84,6.38,67.63,67.63,0,0,1,6.73,1.81c2.31.78,4.84.53,7.05,1.12,5.72,1.52,11.44.41,17.12.88,2.95.24,5.58-1.28,8.6-1.17,2.53.08,5.11-1.16,7.66-1.85s5.61-1.08,8-2.35c4.88-2.59,9.85-5.11,13.63-9.42a13.34,13.34,0,0,0,3.56-8.51c.24-9.5.17-19,0-28.5,0-2.33-1.12-4.39-2.5-6.47a25.14,25.14,0,0,0-8.25-7.81,46.82,46.82,0,0,0-8.37-4c-.44-.15-.71-.81-1.07-1.26l71.83-14.29c-.19,2.43-.53,4.94-.55,7.44-.08,7.5.18,15-.12,22.5A15.82,15.82,0,0,0,419.14,287c3.26,4.44,8,7.26,13,9.48,2.39,1.06,4.77,2.36,7.29,2.86a60.32,60.32,0,0,1,7.75,1.87,3.57,3.57,0,0,0,.88.27c3.7.35,7.39.81,11.09,1a62.86,62.86,0,0,0,11.48,0c8.19-1.16,16.45-2.26,24-5.92a41.94,41.94,0,0,0,11.43-7.5,15.73,15.73,0,0,0,4.9-12c-.06-8-.18-16,.05-24a15.13,15.13,0,0,0-3.35-10.11,29.44,29.44,0,0,0-13.55-9.4,36.65,36.65,0,0,1-4.25-2.23c25-4.59,48.84-9.75,73.06-14.38-1.48,3.22-.93,6.75-1,10.24,0,3.83,0,7.66,0,11.49,0,3.67-.18,7.35,0,11a13.88,13.88,0,0,0,3.94,8.33,29.81,29.81,0,0,0,7.08,5.73,53.69,53.69,0,0,0,11,4.85,107.06,107.06,0,0,0,14.21,3.22c5.77,1,11.44.33,17.13.8,2.94.24,5.58-1.28,8.59-1.17,2.53.08,5.11-1.16,7.66-1.85,2.7-.73,5.61-1.07,8-2.34,4.89-2.58,9.85-5.13,13.64-9.42a13.31,13.31,0,0,0,3.57-8.5c.24-9.5.16-19,0-28.5,0-2.55-1.38-4.64-2.82-6.85a22.92,22.92,0,0,0-7.53-7.24,32.73,32.73,0,0,0-8.76-4.19c-.43-.11-.72-.79-1.29-1.46l8.54-1.39L803.64,358.19c-4.27,1.31-8.92,2.06-13.46,3.08-4.11.92-8.45,1.48-12.58,2.4-5.31,1.19-10.85,1.46-16,3.61-1.86.78-4,.51-6,1a73.87,73.87,0,0,1-8.78,1.81c-3,.37-6,1-8.89,1.57-3.39.71-6.92.81-10.19,1.89s-6.58,1.08-9.65,2.07c-4.76,1.55-9.93,1.2-14.49,3.62-1.74.93-4,.55-6,1a78.39,78.39,0,0,1-8.77,1.82,49,49,0,0,0-8.87,1.58c-5.23,1.74-10.83,1.68-15.91,3.8-2.36-.67-4.35,1-6.62,1.05a38.83,38.83,0,0,0-6.59,1c-3.52.77-7,1.59-10.53,2.38-2.25.51-4.59.89-6.85,1.45-5.91,1.48-12,2.09-17.89,3.9a26.61,26.61,0,0,1-6.51,1.16,48.43,48.43,0,0,0-7.52,1.34c-2.54.5-5.2.95-7.75,1.68-2.38.67-4.84,1-7.22,1.87-1.88.66-4,.25-6.06,1.1-1.84.77-4,.75-6,1.1-1.87.31-3.72.67-5.59,1s-3.91,1.13-6.08,1.13c-1.74,0-3.43,1.38-5.22,1.73-2,.38-4,.24-6.08,1.05-1.86.75-4,.75-6.05,1.1-1.86.31-3.72.66-5.58,1-2,.36-3.92,1.53-6.09,1-4.38,2.78-9.7,2-14.4,3.84-2.07.79-4.69.4-7,1.1-2.11.63-4.46.47-6.55,1.12-3,1-6.2,1.16-9.16,2-6,1.8-12.38,1.87-18.42,3.74-2.78.86-5.8,1-8.69,2-2.67.9-5.81.38-8.49,1.26-6.71,2.21-13.88,2.22-20.52,4.76-1.81.69-4,.59-6.05,1-4.73,1.09-9.53,1.82-14.27,3-2.87.69-5.81,1-8.69,2-2.66.91-6,.11-8.42,1.36-2.16,1.13-4.41.07-6.44,1.48-1.59,1.1-3.94.15-6,1.18-1.89.95-4.39.59-6.51,1.17a95.54,95.54,0,0,1-14.76,3.09,54.84,54.84,0,0,0-9.63,2c-1.58.48-3.16.43-4.61.92s-3.16.55-4.58,1c-4.34,1.46-9.08,1-13.29,2.89-6-.11-11.36,2.86-17.26,3-1.67,2.07-4.24.47-6.34,1.62s-4.58,1-6.91,1.38-4.54.29-6.56,1.08c-5.14,2-10.63,2.5-15.92,3.69-4.11.93-8.39,1.66-12.6,2.39a70.3,70.3,0,0,0-10.89,2.58c-1.95.66-4.26-.43-6,1.26-4-.08-7.77,1.39-11.65,2.1a69.79,69.79,0,0,0-10.81,2.79c-2.5.89-5.37.67-8.05,1.14-3.7.65-7.55,1-11,2.4-2.13.85-4.67-.51-6.35,1.57-4.67-.12-9.13,1.43-13.63,2.25-5.3.95-10.9,1.25-15.89,3.75-4.19-.19-8.13,1.29-12.15,2.08-5.51,1.09-11.15,1.71-16.48,3.64-1.94.7-4.26-.43-6,1.28-6,.29-11.87,2-17.7,3.24-5.29,1.14-10.65,2.35-15.95,3.54-4.1.92-8.3,2.16-12.62,2.22-.33,0-.75-.13-1,0-4.38,2.82-9.78,1.85-14.39,3.91-1.11.49-2.65-.06-4,.11-1.06.14-2,.74-3.1.94-2.18.41-4.6.24-6.53,1.13-2.52,1.18-5.2,1.05-7.75,1.81a71.82,71.82,0,0,1-8.23,1.8c-2.64.47-5.36.7-8,1.3-4,.89-8,1.23-11.87,2.71-1.91.75-4,.49-6,1.06a68.72,68.72,0,0,1-8.79,1.77,54.52,54.52,0,0,0-8.85,1.63c-5.24,1.67-10.66,2.39-15.95,3.59-4.11.93-8.4,1.65-12.59,2.4a64.25,64.25,0,0,0-10.88,2.61c-1.91.7-4,0-6.06,1.09-1.73.91-4,1-6,1.06-2.27.07-4.23,1.78-6.59,1.06-1.56,1.6-3.84.92-5.75,1.84-2.18,1-5,.76-7.5,1.19A29.32,29.32,0,0,0-66.88,537.61ZM738,316.4V303.91c0-6.32-3.88-12-9.46-15.55-3.71-2.38-7.73-3.91-11.6-5.84a23.5,23.5,0,0,0-3.07-1,18.37,18.37,0,0,0-3.09-1c-1.31-.17-2.75.29-4-.09a46.15,46.15,0,0,0-15.17-2c-2.49.07-5,0-7.49,0-.83,0-2-.35-2.44.07-1.44,1.26-3.07.75-4.63,1a43.82,43.82,0,0,0-5.08,1c-2.11.52-4.17,1.19-6.27,1.74a46.67,46.67,0,0,0-13,6c-5.92,3.75-9.88,8.45-9.74,15.9.14,7.82.18,15.65,0,23.47A16.64,16.64,0,0,0,648,340c4.57,4.82,10.48,7.31,16.56,9.45,2.79,1,5.94,1.24,8.55,2.27,3.11,1.23,6.53-.38,9.26,1.77,5.49,0,11.09.67,16.44-.21a133.86,133.86,0,0,0,13.33-2.59c8.25-2.21,15.65-5.44,21.73-11.53a13.79,13.79,0,0,0,4.11-9.79C738.05,325.05,738,320.72,738,316.4ZM300,406.07c0-4.66.12-9.33-.06-14a10.85,10.85,0,0,0-1.38-5.38,28.33,28.33,0,0,0-9.44-9.35c-3.25-1.87-6.82-2.92-10-4.82a18.86,18.86,0,0,0-3.51-1.19c-2.39-.86-5.08-.07-7-1.06s-4,0-5.63-.89c-2.05-1.13-4.07-.8-6.13-.89a89.12,89.12,0,0,0-26.24,2.92c-7.94,2-17.38,6.34-22.36,12.36A13,13,0,0,0,205,392c-.13,9.32,0,18.65-.06,28,0,2.3,1,4.21,2,6.15,2.83,5.14,7.57,7.93,12.53,10.55a57.22,57.22,0,0,0,17.58,5.66c4.4.71,8.91,1.79,13.54,1.29,3.29-.35,6.8.54,10-.21,4.57-1.09,9.24-1.46,13.82-2.7,7.89-2.15,15-5.26,20.94-11a14.68,14.68,0,0,0,4.6-11.09C300,414.39,300,410.23,300,406.07ZM-87,466c0,4.49.11,9,0,13.48a11.64,11.64,0,0,0,1.53,5.87c3,5.74,8.29,9.35,14,11.79,3.45,1.48,7,3.11,11.06,3.6,2.84.35,5.66,1.62,8.7,1.78s5.94,1.24,9.08,1c5-.36,10,0,15.09-.88,4.37-.72,8.57-1.9,12.85-2.82,5.13-1.11,9.59-3.62,13.81-6.43,5.39-3.6,9.23-8.31,9-15.46-.22-8-.18-16,0-24,.14-7.08-3.82-11.69-9-15.45-3.89-2.8-8.39-4.57-12.83-6.37a15.68,15.68,0,0,0-1.72-.67,159.57,159.57,0,0,0-15.76-2.82,52.57,52.57,0,0,0-16.42,0c-4.58.74-9.23,1.55-13.8,2.67-6.57,1.61-15.56,6-20.25,10.31A15.79,15.79,0,0,0-87,454.53C-86.94,458.35-87,462.19-87,466ZM497,345.76c0,4,.17,8-.05,12-.26,4.82,1.73,8.62,4.82,12,4.6,5,10.67,7.57,16.93,9.74,1.48.52,3.08.78,4.52,1.21s3,.26,4.06.92a6.53,6.53,0,0,0,4.65.82c1.74-.22,3,1,4.59,1.05,3.16,0,6.33.13,9.49,0s6.21.82,9.07-1c4.08.48,7.81-1.1,11.66-2a42.43,42.43,0,0,0,20.54-10.74A15.09,15.09,0,0,0,592,358.23c0-8-.17-16,0-24,.13-5-1.86-8.93-5.18-12.36-4.22-4.35-13.31-8.85-19.63-10.52-2.24-.6-4.74-.13-6.52-1.06-2.16-1.12-4.51.08-6.08-.95-2.12-1.4-4.16-.86-6.16-.8-5,.15-10-.48-15.11.76-3.47.85-7.09,1.33-10.63,2.14-8.11,1.86-15.4,5.14-21.38,11.12A14.44,14.44,0,0,0,497,333.28C497,337.44,497,341.6,497,345.76ZM154,436.28c0-4.5,0-9,0-13.49a12.12,12.12,0,0,0-.5-3.28c-1.6-5.31-5.21-9-9.79-11.85-3.42-2.16-7.21-3.51-10.86-5.14-1-.44-2.06-.66-3.08-1-2.29-.81-5-.39-7-1.23-2.28-1-4.61.07-6.54-1.09-2.2-1.33-4.51-.65-6.72-.61-4.69.09-9.36-.37-14.11.76-3.48.82-7.09,1.34-10.62,2.14-8.48,1.91-16,5.43-22.1,11.8a13.07,13.07,0,0,0-3.62,9c-.2,9.15,0,18.31-.1,27.46a12.71,12.71,0,0,0,1.66,5.81c2.93,5.86,8.42,9.19,14,11.78a35.38,35.38,0,0,0,11.06,3.52c2.38.26,4.75,1.41,7.25,1.69,2.69.3,5.37.86,8.07,1a92.22,92.22,0,0,0,27.75-2.88c7.88-2.15,15-5.32,20.88-11.15A14.59,14.59,0,0,0,154,448.76C154,444.6,154,440.44,154,436.28Zm197-60.42c0,4.66-.12,9.33.06,14a12.68,12.68,0,0,0,1.3,5.42c3.18,5.85,8.57,9.51,14.36,12.05a83,83,0,0,0,25.41,6,84.43,84.43,0,0,0,28.24-2.72C428.59,408.4,436,405.13,442,399a13.3,13.3,0,0,0,3.9-9.36c.15-9.16.12-18.32,0-27.47a10.43,10.43,0,0,0-1.33-5.4,28.11,28.11,0,0,0-9.43-9.38c-3.52-2-7.31-3.28-10.89-5.09a8.47,8.47,0,0,0-1.68-.77,107.43,107.43,0,0,0-16.25-2.78c-6.09-.48-12.34-1-18.59.58-3.61.9-7.43,1.24-11.12,2.15-8,2-15.41,5.15-21.36,11.18A14.47,14.47,0,0,0,351,362.88C350.89,367.2,351,371.53,351,375.86Z" transform="translate(231.96 -196.5)"/><path class="cls-1" d="M805.87,360.47v49c-2.89.68-5.76,1.39-8.64,2-1.85.4-3.85.36-5.55,1.08-2.82,1.2-5.83,1.23-8.69,2-4.09,1.07-8.26,1.88-12.38,2.59s-8.06,1.65-12,2.54c-5.79,1.29-11.69,2-17.43,3.64-2.65.74-5.52,1.19-8.3,1.76s-5.63.83-8.4,1.45c-3.54.81-7.19,1.29-10.63,2.19s-7.05,1-10.4,2.6c-1.69.79-4,.63-6,1.08-4.74,1.06-9.52,1.88-14.26,3a82,82,0,0,0-8.7,2c-2.65.93-5.84.33-8.48,1.29s-5.21.92-7.76,1.75-5.37.66-8,1.15a19.46,19.46,0,0,0-5.3,1.66c-1.67.86-3.5-.44-5.14.93-1.46,1.23-3.94-.53-5.41,1.37-4.37-.25-8.43,1.47-12.65,2.16a68.13,68.13,0,0,0-10.9,2.56c-1.95.67-4,0-6,1.15-1.66,1-4,.81-6,1.13-2.19.35-4.64.18-6.51,1.14s-4,.6-5.84,1.69c-1.44.83-3.63.41-5.53,1.06-2.37.81-5.35.15-7.46,1.28-2.4,1.28-5,.22-7.36,1.67-1.39.85-3.64.31-5.52,1.07s-4.14.46-6,1.18-3.89.4-5.58,1c-6.35,2.28-13.38,1.72-19.46,4.9-4.7-.28-9,1.86-13.67,2.11a32.53,32.53,0,0,0-10.5,2.32c-2.13.88-4.67-.51-6.35,1.57-4.67-.12-9.13,1.43-13.63,2.25-5.3,1-10.9,1.25-15.88,3.75-4.2-.19-8.13,1.29-12.16,2.08-5.51,1.09-11.15,1.71-16.48,3.63-1.94.71-4.25-.42-6,1.29-6,.3-11.88,2-17.71,3.24-5.29,1.14-10.65,2.35-15.94,3.54a105,105,0,0,1-12.61,2.31,37,37,0,0,0-9.07,2.21c-2.27.85-4.94-.31-6.79,1.7-2.66-.71-5.07.69-7.56,1.13-2.23.4-4.75.26-6.69,1.87-4.21-.22-8.16,1.22-12.15,2.1-4.59,1-9.45.74-13.79,2.87-4.26-.53-8,1.8-12.15,2.19a48.56,48.56,0,0,0-8.68,1.86c-2.7.79-5.66.45-8.18,2-4.26-.55-8,1.78-12.15,2.18a46.71,46.71,0,0,0-8.68,1.86c-2.7.82-5.67.42-8.18,2-4.27-.58-8,1.75-12.15,2.18a43.61,43.61,0,0,0-8.69,1.85c-2.68.86-5.67.4-8.17,2-5.66-.31-10.78,2.29-16.22,3.21-5.64,1-11.58,1.16-16.88,3.79-4.37-.26-8.48,1.32-12.65,2.14-7.5,1.49-15.24,2-22.45,4.86-4.36-.2-8.5,1.26-12.64,2.17-5.32,1.15-10.85,1.48-16,3.6-1.87.77-4,.5-6,1a71,71,0,0,1-8.77,1.81,47.1,47.1,0,0,0-8.86,1.6c-5.23,1.75-10.68,2.35-16,3.58a108.71,108.71,0,0,1-12.61,2.34c-3,.34-5.9,1.9-9.11,2.14-2.28.17-4.52,1.68-6.74,1.6-2.68-.09-5,1-7.58,1.26-2.24.24-4.58,1.45-6.71,1.68-4.29.45-8.45,1.52-12.62,2.34-7.5,1.48-15.23,2.05-22.45,4.86-4.36-.19-8.51,1.26-12.64,2.17-5.31,1.18-10.83,1.52-16,3.62-1.86.76-4,.09-6.06,1.1-1.76.87-4,.77-6,1.12-1.86.31-3.71.77-5.59,1-2,.22-3.88,1.73-6.08,1-6.1,2.2-12.61,2.56-18.8,4.16-5.28,1.36-10.79,1.64-15.93,3.74-2.28.94-5,.7-7.54,1.13a19.93,19.93,0,0,0-3.07,1.06c-.72-4.12-.94-37.05-.32-49,2.64-.69,5.32-1.46,8-2.07,2-.46,4.05-.7,6.08-1,2.19-.34,4.75-.08,6.49-1.16s4.33.11,5.76-1.84c4.2.19,8.14-1.29,12.16-2.08,5.51-1.08,11.15-1.71,16.47-3.64,1.94-.7,4.26.42,6-1.28,6.05-.26,11.88-2,17.71-3.24,5.29-1.13,10.74-1.86,15.93-3.66,2.5-.88,5.38-.64,8-1.13,3.7-.67,7.36-1.53,11-2.36,2.12-.48,4.2-1.4,6.34-1.54,6-.4,11.68-3,17.75-3.07,3.34-1.87,7.25-1.59,10.81-2.85,2.13-.76,4.69-.26,7.06-1.06,2.22-.75,5.12-.09,7-1.26,2.24-1.43,5,.33,6.78-1.83,4.25.53,8.09-1.52,12.13-2.22,3.58-.63,7.54-.6,10.8-2.78,4.26.6,8-1.73,12.15-2.17a42.36,42.36,0,0,0,8.69-1.84c2.67-.89,5.67-.4,8.17-2,4.26.6,8.09-1.5,12.12-2.21s8-1.16,11.86-2.63c2.14-.82,4.69-.07,7.07-1.06,2-.82,4.72-.16,6.44-1.25,2.09-1.32,4.37-.19,6.42-1.56,1.58-1.06,3.94-.63,6-1.13,6.07-1.47,12.33-2.07,18.33-4.07,2.52-.85,5.39-.61,8.05-1.12,5.38-1,10.74-2.2,16.1-3.36,2.13-.47,4.2-1.24,6.34-1.57a96.76,96.76,0,0,0,13.31-2.85,33,33,0,0,1,6.53-1.13c4-.33,7.57-2.38,11.6-2.22,1-1.41,2.43-.59,3.65-.85s2.38-.73,3.59-1c5.83-1.18,11.72-2,17.45-3.73a35.13,35.13,0,0,1,6.48-1.22c4.44-.44,8.79-1.52,13.12-2.31,5.15-.93,10.44-1.77,15.46-3.58,1.88-.67,4-.57,6.05-1,6.09-1.41,12.33-2.08,18.34-4.05,2.53-.84,5.39-.61,8.05-1.12,5.38-1,10.73-2.24,16.08-3.41,2.13-.47,4.22-1.13,6.36-1.53,2.34-.45,4.83-.37,7.05-1.12,2.05-.69,4.44-.32,6.2-1.91,3.85.06,7.46-1.28,11.18-2,5.42-1,10.85-2.07,16.2-3.25s10.89-1.36,15.89-3.79c4.36.18,8.47-1.34,12.64-2.16,5.65-1.12,11.49-1.46,16.95-3.65,1.85-.74,4-.14,6.06-1.08,1.8-.84,4-.76,6-1.11,1.86-.32,3.71-.72,5.58-1,2-.29,4.11-.74,6.05-1.19,4.9-1.15,9.84-2,14.75-3,5.63-1.17,11.37-2,16.93-3.63,2.8-.83,5.8-1,8.69-2,2.66-.9,5.87-.28,8.48-1.27,4.7-1.8,9.82-1.7,14.47-3.7,1.79-.77,4-.24,6-1.09,1.85-.78,4-.75,6-1.1,1.86-.32,3.72-.67,5.58-1,2-.35,3.92-1.13,6.09-1.13,1.74,0,3.44-1.57,5.21-1.68a48.76,48.76,0,0,0,6.55-1.18c5.83-1.17,11.75-1.87,17.41-3.82,1.91-.66,4-.11,6.07-1.08,1.78-.85,4-.76,6-1.11,1.87-.32,3.72-.73,5.59-1,2-.28,4.11-.74,6-1.19,4.91-1.15,9.86-2,14.76-3,5.62-1.21,11.36-2,16.93-3.64,2.79-.83,5.8-1,8.68-2,2.68-.89,5.82-.37,8.5-1.26,6.7-2.2,13.94-2.05,20.48-4.86,4.4.48,8.31-1.82,12.64-2.2a71.27,71.27,0,0,0,15.6-3.28c2.12-.69,4.66.51,6.34-1.57,6.36-.93,12.61-2.38,18.89-3.79,4.11-.92,8.44-1.51,12.58-2.39,5.31-1.12,10.85-1.48,15.94-3.69,1-.42,2.3,0,3.44-.16A8,8,0,0,0,805.87,360.47Z" transform="translate(231.96 -196.5)"/><path class="cls-1" d="M-229,427.28c0-14.59,0-29.91,0-45.23,0-.13.2-.25.15-.18L-70.19,540.55v45.57Q-149.4,506.9-229,427.28Z" transform="translate(231.96 -196.5)"/><path class="cls-1" d="M566,216.9c3.18-2.61,5.58-5.94,9.15-8.18,3.88-2.43,8.12-3.79,12.37-5.11,2.2-.69,4.54-1.06,6.72-1.88s4.33.18,6.58-1c1.67-.91,4.24-.18,6.4-.18,3.16,0,6.37-.33,9.48.07,6.51.83,13,1.91,19.17,4.31,3.77,1.46,7.48,2.91,10.72,5.55s6.56,6.11,7.24,9.46c.77,3.8-.57,7.25-2.92,10.12-3.39,4.14-8.21,6.32-13,8.46-1.95.88-4.12,1.29-6.14,2.05s-4.34.59-6.22,1.86c-.24.16-.63.09-.95.12-3.69.34-7.37.8-11.07,1s-7.33.14-11,0c-1.87-.08-3.71-.83-5.58-.9a28.67,28.67,0,0,1-5.6-1,42.11,42.11,0,0,1-5.73-1.86c-1.72-.68-3.67-.81-5.38-1.5s-3.17-2-4.88-2.69a16.52,16.52,0,0,1-8.91-8.2c-1.21-2.53-2.89-5.47-.54-8.48C566.24,218.45,566,217.58,566,216.9Z" transform="translate(231.96 -196.5)"/><path class="cls-1" d="M420.12,246.78c3.06-2.55,5.46-5.89,9.05-8.1,3.89-2.39,8.16-3.66,12.37-5.13s8.85-1.85,13.25-2.94c2.51-.61,5.32.11,8-.15,5.44-.56,10.86.23,16,1.24,8,1.56,15.89,4.19,22.71,8.93a15.35,15.35,0,0,1,6.36,9.78,11.61,11.61,0,0,1-3,9.67c-3.49,4.07-8.25,6.25-13,8.41-3.95,1.81-8.35,2.27-12.35,3.94a3.42,3.42,0,0,1-1,.07c-3.69.33-7.38.8-11.08,1s-7.43.59-11-.1c-4.75-.94-9.64-.85-14.32-2.72-4.28-1.71-8.72-2.93-12.91-5-3.87-2-7-4.58-8.83-8.32-1.14-2.34-2.77-5.15-.75-8.08C420.1,248.62,420,247.66,420.12,246.78Z" transform="translate(231.96 -196.5)"/><path class="cls-1" d="M274,276.83c3.25-2.47,5.52-5.69,8.89-7.91,3.86-2.54,8.18-3.64,12.3-5.35,2.13-.89,4.68-.78,6.8-1.67,2.27-1,4.94.6,6.91-1.4,4.5,0,9-.24,13.49.05,10.23.66,20,2.9,29.19,7.87a22.52,22.52,0,0,1,9,8.17c2.3,3.81,1.44,9.92-1.75,13.6-3.42,3.95-8.14,5.91-12.58,8.25-2,1.06-4.49,1.2-6.61,2.12s-4.42.36-6.19,1.93c-.1.08-.33,0-.49,0-3.86.33-7.71.8-11.58,1s-7.78.65-11.45-.13c-4.43-.93-9-.92-13.39-2.55-4-1.5-8.36-2.42-12.1-4.51-3.36-1.87-6.77-3.73-8.92-7.51-2-3.55-3.41-6.67-1.55-10.56C274.08,277.94,274,277.55,274,276.83Z" transform="translate(231.96 -196.5)"/><path class="cls-1" d="M-164,366.85c3.13-2.2,5.35-5.45,8.65-7.77,3.83-2.69,8.17-3.76,12.29-5.4,2.2-.87,4.85-1.13,7.22-1.88s4.89.48,7-1.3h16.49c3.11,2.07,6.79.74,10.21,1.82,5.47,1.72,15.12,5,19.59,8.21a16.84,16.84,0,0,1,6.46,9.72c.85,3.44-.62,6.95-2.88,9.68-3.51,4.24-8.45,6.42-13.38,8.61-3.85,1.72-8,2.27-11.93,3.77a5.92,5.92,0,0,1-1.41.19c-6.51.71-13,1.45-19.57,1-10.23-.73-20.06-2.87-29.19-7.89-4.6-2.53-8.3-5.47-9.83-10.8-.61-2.13-1.34-3.88.28-5.83C-163.75,368.57-164,367.67-164,366.85Z" transform="translate(231.96 -196.5)"/><path class="cls-1" d="M128,306.85c3.13-2.2,5.35-5.46,8.65-7.77,3.83-2.69,8.18-3.77,12.3-5.4,2.19-.87,4.84-1.13,7.21-1.88s4.9.48,7-1.3h16.48c3.11,2.07,6.79.74,10.22,1.82,5.45,1.71,15.13,5,19.58,8.21a16.84,16.84,0,0,1,6.46,9.72c.85,3.45-.61,6.95-2.88,9.68-3.51,4.24-8.45,6.42-13.38,8.61-3.85,1.72-8,2.27-11.93,3.77a5.47,5.47,0,0,1-1.42.19c-6.5.7-13,1.45-19.56,1-10.23-.73-20.07-2.87-29.19-7.89-4.6-2.53-8.3-5.47-9.83-10.8-.61-2.13-1.34-3.89.28-5.83C128.25,308.57,128,307.67,128,306.85Z" transform="translate(231.96 -196.5)"/><path class="cls-1" d="M23.06,363.58c-3-.25-8.18-.06-13-1.21-7.95-1.89-15.86-4.29-22.68-9.06A16.8,16.8,0,0,1-18.89,344a8.61,8.61,0,0,1,2.35-8.4,47.32,47.32,0,0,1,7.64-6.81c4-2.58,8.45-3.77,12.83-5.23,2.06-.69,4.23-1,6.26-1.78s4.34.26,6.58-1.07c1.47-.88,3.89-.17,5.89-.17,3.33,0,6.7-.34,10,.08a84.39,84.39,0,0,1,19.19,4.26A51.05,51.05,0,0,1,63,330.49c3,2.06,4.69,4.83,6.1,8.17,2,4.74,0,8.3-2.55,11.68-2.44,3.2-6,5.11-9.66,6.72a67.48,67.48,0,0,1-19.7,5.62C33.12,363.16,29.12,363.39,23.06,363.58Z" transform="translate(231.96 -196.5)"/><path class="cls-1" d="M69.8,371.28a50.7,50.7,0,0,1-3.38,5.21c-3.18,3.91-7.87,5.68-12.16,7.94-2,1.07-4.47,1.24-6.6,2.12s-4.41.41-6.19,1.93c-.1.09-.33,0-.49,0-3.85.34-7.7.8-11.56,1s-7.77.6-11.45-.12c-4.31-.84-8.81-.64-13-2.31-4-1.59-8.27-2.47-12.09-4.54s-7.61-4.32-10-8.39a12,12,0,0,1-1.78-4.72,153.54,153.54,0,0,1,.16-17.93c2.58,3.9,6.7,5.67,10.29,7.89,3.33,2,7.39,3.06,11.24,4.08s7.87,2.66,12.13,2.07c2.69,1.71,5.7.86,8.57,1a63.92,63.92,0,0,0,9,0,103.42,103.42,0,0,0,12.14-2,77.8,77.8,0,0,0,11.1-3.31A37.66,37.66,0,0,0,63,357c2.35-1.59,4.5-3.46,6.84-5.28Z" transform="translate(231.96 -196.5)"/><path class="cls-1" d="M654,230.82c0,6.93.42,13.07-.15,19.13-.38,4-3.28,7.12-6.59,9.56a48.77,48.77,0,0,1-13.7,6.64,68.58,68.58,0,0,1-12,2.55,107.11,107.11,0,0,1-15.58.75c-2.06,0-4.1.38-6.25-.53-1.69-.72-3.9-.1-5.8-.48a51.89,51.89,0,0,1-5.67-1.93c-1.77-.57-3.55-1.08-5.34-1.57a34.1,34.1,0,0,1-11.17-5.51c-4.11-3-6.77-7.1-6.76-12.5,0-5.1,0-10.21.32-15.46,2.59,3.85,6.67,5.68,10.27,7.87,3.33,2,7.38,3.07,11.24,4.1s7.87,2.65,12.12,2.06c2.7,1.71,5.7.86,8.57,1a64.06,64.06,0,0,0,9,0,104.1,104.1,0,0,0,12.14-2c3.76-.85,7.66-1.64,11.07-3.33C644.71,238.62,649.83,236.06,654,230.82Z" transform="translate(231.96 -196.5)"/><path class="cls-1" d="M419,260.65c2.95,4.33,6.61,6.36,10.15,8.34a43.08,43.08,0,0,0,11.6,4.48c4,.89,7.88,2.61,12.13,2,6.09,2.18,12.38.46,18.55,1,2.4-1.3,5.12-.52,7.54-1.13s4.81-1.19,7.19-1.87,5-.94,7.11-2.08c4.11-2.22,8.52-4.08,11.85-7.55.77-.81,1.43-1.73,2.88-3.51,0,7.5.44,13.81-.17,20-.35,3.62-3.15,6.58-6.12,8.87-4,3.07-14.3,7.18-19.52,8.29a102.82,102.82,0,0,1-12.66,1.88,78.46,78.46,0,0,1-13.45,0c-2.34-.2-4.7-.72-7.07-1a20.42,20.42,0,0,1-6.71-1.8c-2-1-4.45-1.28-6.6-2.11s-4.13-2.09-6.27-2.94a18,18,0,0,1-9-8.15A9.8,9.8,0,0,1,419,279C418.88,273.22,419,267.44,419,260.65Z" transform="translate(231.96 -196.5)"/><path class="cls-1" d="M362,290.82c0,6.93.42,13.07-.15,19.13-.38,4-3.28,7.12-6.59,9.56a48.21,48.21,0,0,1-13.7,6.63,67.5,67.5,0,0,1-12,2.56,107.11,107.11,0,0,1-15.58.75c-2.06,0-4.1.38-6.25-.53-1.69-.71-3.9-.1-5.8-.48a51.89,51.89,0,0,1-5.67-1.93c-1.77-.57-3.55-1.08-5.34-1.57a34.2,34.2,0,0,1-11.17-5.51c-4.11-3-6.77-7.1-6.76-12.5,0-5.1,0-10.21.32-15.46,2.6,3.85,6.67,5.68,10.26,7.87,3.34,2.05,7.39,3.07,11.24,4.1s7.88,2.65,12.13,2.06c2.7,1.71,5.7.86,8.57,1a64.07,64.07,0,0,0,9,0,104.1,104.1,0,0,0,12.14-2c3.76-.85,7.66-1.64,11.07-3.33C352.7,298.62,357.83,296.06,362,290.82Z" transform="translate(231.96 -196.5)"/><path class="cls-1" d="M-76,380.68c0,6.18-.15,11.16,0,16.12.22,5.77-2.73,9.48-7.07,12.76a45.29,45.29,0,0,1-13.29,6.49,67.33,67.33,0,0,1-12,2.63,108.52,108.52,0,0,1-15.58.8A69,69,0,0,1-147,415.06a52.21,52.21,0,0,1-10.35-5.19A15.47,15.47,0,0,1-165,395.6c.06-4.62,0-9.25,0-14.8A28.56,28.56,0,0,0-155,389a53.17,53.17,0,0,0,11.59,4.51c2.4.64,4.8,1.22,7.18,1.93s4.8-.46,7.09,1c.7.46,2,.07,2.94.07,3.5,0,7,.13,10.48,0a48.53,48.53,0,0,0,10-1c6.1-1.61,12.43-2.52,18.07-5.78C-83.58,387.32-79.49,385.21-76,380.68Z" transform="translate(231.96 -196.5)"/><path class="cls-1" d="M127,321.87c2.91,3.52,7,5.51,10.73,7.43a64.06,64.06,0,0,0,11.67,4.37,121.24,121.24,0,0,0,13.81,2.64,57.67,57.67,0,0,0,15.42.09,86.47,86.47,0,0,0,20.17-4.24c6.3-2.25,12-5.47,16.59-10.55a1.22,1.22,0,0,1,.35.14c.11.11.25.26.25.39,0,6.31,0,12.62,0,18.2-3.17,8.29-9.78,11.41-16.78,14.2-5.43,2.16-11,3.16-16.77,4.19-6.11,1.1-12.12.9-18.09.6a59.59,59.59,0,0,1-19.17-4.17,53.55,53.55,0,0,1-10.74-5.47,16.53,16.53,0,0,1-6.68-8.74,9.8,9.8,0,0,1-.76-3.16C127,332.49,127,327.18,127,321.87Z" transform="translate(231.96 -196.5)"/><path d="M738,316.4c0,4.32.08,8.65,0,13a13.79,13.79,0,0,1-4.11,9.79c-6.08,6.09-13.48,9.32-21.73,11.53a133.86,133.86,0,0,1-13.33,2.59c-5.35.88-10.95.21-16.44.21-2.73-2.15-6.15-.54-9.26-1.77-2.61-1-5.76-1.29-8.55-2.27-6.08-2.14-12-4.63-16.56-9.45a16.64,16.64,0,0,1-5.05-12.42c.2-7.82.16-15.65,0-23.47-.14-7.45,3.82-12.15,9.74-15.9a46.67,46.67,0,0,1,13-6c2.1-.55,4.16-1.22,6.27-1.74a43.82,43.82,0,0,1,5.08-1c1.56-.21,3.19.3,4.63-1,.47-.42,1.61-.07,2.44-.07,2.5,0,5,.06,7.49,0a46.15,46.15,0,0,1,15.17,2c1.22.38,2.66-.08,4,.09a18.37,18.37,0,0,1,3.09,1,23.5,23.5,0,0,1,3.07,1c3.87,1.93,7.89,3.46,11.6,5.84,5.58,3.59,9.45,9.23,9.46,15.55Zm-90.89-18.64a4.56,4.56,0,0,1-.13,1.48c-1.88,3.91-.4,7,1.57,10.55,2.14,3.82,5.6,5.61,8.92,7.51,3.72,2.14,8.1,3,12.12,4.49,4.38,1.65,9,1.64,13.39,2.56,3.67.75,7.63.28,11.45.12s7.72-.64,11.57-1c.17,0,.4.07.49,0,1.78-1.54,4.18-1.1,6.2-1.94s4.59-1.06,6.61-2.11c4.44-2.33,9.21-4.26,12.55-8.3,2.43-2.94,4-6.58,2.94-10.11a16.52,16.52,0,0,0-7-9.65c-5.57-3.51-11.25-5.88-20.7-8a77.05,77.05,0,0,0-18.68-1.87c-2.16,0-4.75-.74-6.39.18-2.35,1.32-4.74.26-7,1.24-2.11.91-4.68.76-6.81,1.65-4.1,1.73-8.44,2.81-12.29,5.37C652.48,292.18,650.19,295.38,647.08,297.76Zm87.54,14.59a46.84,46.84,0,0,1-4.8,4.7,61.59,61.59,0,0,1-6,3.46c-5.72,3.35-12.24,4.28-18.5,5.9a49.37,49.37,0,0,1-10,1c-3.49.17-7,0-10.48,0a9.87,9.87,0,0,1-3,0c-4.48-1.51-9.28-1.31-13.77-2.9a83.55,83.55,0,0,1-12.82-5.2,35.71,35.71,0,0,1-9.23-7.44c0,5.82.08,10.78,0,15.74-.11,5.46,2.55,9.67,6.55,12.7,5.45,4.15,12,6.36,18.59,8a81.38,81.38,0,0,0,18.09,2.26c5.59.12,11-1.13,16.56-1.13a2.59,2.59,0,0,0,.91-.18c3.9-1.5,8.07-2.06,11.92-3.76a55,55,0,0,0,10.94-6.11c2.64-2,4-4.9,5.46-7.73,0-6.13,0-12.29,0-18.44A4.57,4.57,0,0,0,734.62,312.35Z" transform="translate(231.96 -196.5)"/><path d="M300,406.07c0,4.16,0,8.32,0,12.48a14.68,14.68,0,0,1-4.6,11.09c-5.92,5.76-13.05,8.87-20.94,11-4.58,1.24-9.25,1.61-13.82,2.7-3.15.75-6.66-.14-10,.21-4.63.5-9.14-.58-13.54-1.29a57.22,57.22,0,0,1-17.58-5.66c-5-2.62-9.7-5.41-12.53-10.55-1.06-1.94-2.06-3.85-2-6.15,0-9.32-.07-18.65.06-28a13,13,0,0,1,3.16-8.16c5-6,14.42-10.34,22.36-12.36a89.12,89.12,0,0,1,26.24-2.92c2.06.09,4.08-.24,6.13.89,1.59.88,3.61-.14,5.63.89s4.64.2,7,1.06a18.86,18.86,0,0,1,3.51,1.19c3.19,1.9,6.76,2.95,10,4.82a28.33,28.33,0,0,1,9.44,9.35,10.85,10.85,0,0,1,1.38,5.38C300.09,396.74,300,401.41,300,406.07Zm-91-18.2c0,.84.27,1.72-.05,2.13-1.55,1.95-.84,3.69-.23,5.83,1.54,5.33,5.28,8.21,9.83,10.8,8.34,4.73,17.45,6.6,26.73,7.78a61.12,61.12,0,0,0,13,0,92.29,92.29,0,0,0,12.18-1.82,62.3,62.3,0,0,0,16.47-6.11c2.68-1.47,5.37-3.06,7.14-5.58,2.1-3,3.83-6.34,2.7-10.13a16.6,16.6,0,0,0-5.62-8.62c-5.75-4.4-12.56-6.63-19.4-8.59A66.69,66.69,0,0,0,261,371.68c-5.58-.66-11.3-.18-17-.18-2,1.82-4.67.56-6.94,1.32s-4.62.9-6.78,1.73c-4.16,1.61-8.45,2.8-12.32,5.27C214.59,382,212.29,385.18,208.94,387.87Zm-1,15c0,5.46-.17,10.94.08,16.39a13.94,13.94,0,0,0,2.09,6.11c2.09,3.7,5.38,5.69,8.82,7.63,3.92,2.21,8.37,3.13,12.5,4.75,4.54,1.77,9.25,1.72,13.84,2.63,3.68.74,7.63.28,11.45.11s7.38-.62,11.06-1a4,4,0,0,0,.9-.24c3.92-1.43,8.1-2,11.93-3.74,4.42-2,9-3.9,12.3-7.57a49.16,49.16,0,0,0,4-5.84c0-6.61,0-12.77,0-18.92a.7.7,0,0,0-.22-.4,1.33,1.33,0,0,0-.34-.22c-4.54,5.07-10.27,8.31-16.59,10.56a89.85,89.85,0,0,1-20.16,4.27,56.2,56.2,0,0,1-14.43,0c-4.76-.73-9.57-1.4-14.32-2.6a69.16,69.16,0,0,1-12.15-4.45C215,408.53,211,406.35,208,402.84Z" transform="translate(231.96 -196.5)"/><path d="M-87,466c0-3.83.09-7.67,0-11.49a15.79,15.79,0,0,1,5.25-12.84c4.69-4.34,13.68-8.7,20.25-10.31,4.57-1.12,9.22-1.93,13.8-2.67a52.57,52.57,0,0,1,16.42,0,159.57,159.57,0,0,1,15.76,2.82,15.68,15.68,0,0,1,1.72.67c4.44,1.8,8.94,3.57,12.83,6.37,5.21,3.76,9.17,8.37,9,15.45-.17,8-.21,16,0,24,.2,7.15-3.64,11.86-9,15.46-4.22,2.81-8.68,5.32-13.81,6.43-4.28.92-8.48,2.1-12.85,2.82-5.06.84-10.07.52-15.09.88-3.14.22-6.05-.86-9.08-1s-5.86-1.43-8.7-1.78c-4-.49-7.61-2.12-11.06-3.6-5.66-2.44-10.91-6.05-14-11.79a11.64,11.64,0,0,1-1.53-5.87C-86.92,475-87,470.51-87,466Zm4-18.18c0,.9.2,1.54,0,1.88-2.26,3.4-.39,6.32,1,9.27,2,4.27,6,6.38,9.87,8.51s8.1,2.93,12.11,4.5c4.17,1.64,8.66,1.55,13,2.36,3.7.69,7.64.27,11.46.11s7.72-.64,11.57-1c.17,0,.4.07.49,0,1.78-1.55,4.18-1.09,6.2-1.94s4.59-1.06,6.61-2.11c4.44-2.33,9.14-4.32,12.57-8.27,3.2-3.69,4-9.74,1.72-13.6a20.8,20.8,0,0,0-9-8.12c-6.65-3.31-10.69-4.42-17.49-6.07a72.35,72.35,0,0,0-18.68-1.88c-2.16,0-4.74-.74-6.39.18-2.36,1.3-4.74.27-7,1.23-2.12.9-4.68.77-6.81,1.66-4.11,1.72-8.44,2.81-12.29,5.36C-77.52,442.17-79.8,445.37-83,447.84Zm-1,13.66V478a7.76,7.76,0,0,0,0,2,21.08,21.08,0,0,0,1.43,4.39,19.17,19.17,0,0,0,8.51,8.08,55,55,0,0,0,6.26,3c2.31.86,4.9,1.07,7.09,2.13A16.53,16.53,0,0,0-54,499.34c2.64,0,5,1.11,7.56,1.15,3.66.05,7.33.14,11,0s7.38-.63,11.06-1a2.73,2.73,0,0,0,1-.11c3.59-1.85,7.7-2.05,11.44-3.71a72.65,72.65,0,0,0,10.67-5.51c3.11-2,5.79-5.18,6.14-8.82.59-6.21.16-12.52.16-19.91-3.34,4.89-7.52,6.85-11.5,9.16a31.55,31.55,0,0,1-8.2,3.13c-2.84.72-5.62,1.73-8.47,2.41a89.69,89.69,0,0,1-8.94,1.21,61.71,61.71,0,0,1-13.45.06,94.08,94.08,0,0,1-12.66-1.88,62.78,62.78,0,0,1-14-4.8C-76.36,468.69-80.49,466.5-84,461.5Z" transform="translate(231.96 -196.5)"/><path d="M497,345.76c0-4.16,0-8.32,0-12.48a14.44,14.44,0,0,1,4.37-10.69c6-6,13.27-9.26,21.38-11.12,3.54-.81,7.16-1.29,10.63-2.14,5.08-1.24,10.08-.61,15.11-.76,2-.06,4-.6,6.16.8,1.57,1,3.92-.17,6.08.95,1.78.93,4.28.46,6.52,1.06,6.32,1.67,15.41,6.17,19.63,10.52,3.32,3.43,5.31,7.34,5.18,12.36-.22,8-.08,16,0,24a15.09,15.09,0,0,1-4.73,11.55,42.43,42.43,0,0,1-20.54,10.74c-3.85.88-7.58,2.46-11.66,2-2.86,1.79-6,.82-9.07,1s-6.33.06-9.49,0c-1.59,0-2.85-1.27-4.59-1.05a6.53,6.53,0,0,1-4.65-.82c-1-.66-2.67-.5-4.06-.92s-3-.69-4.52-1.21c-6.26-2.17-12.33-4.72-16.93-9.74-3.09-3.38-5.08-7.18-4.82-12C497.14,353.76,497,349.76,497,345.76Zm4-17.94c0,.65.11,1,0,1.31-1.75,3.86-.68,7.06,1.51,10.57,2,3.19,4.71,5,7.68,6.8,4,2.43,8.55,3.48,12.87,5.12,4.67,1.78,9.55,1.88,14.31,2.75,3.7.67,7.64.26,11.46.09s7.38-.62,11.07-1a3.61,3.61,0,0,0,.89-.26c3.93-1.39,8.1-2,12-3.71,4.78-2.1,9.42-4.37,13.06-8.28,2-2.17,2.59-5,3.16-7.67.44-2.1-.87-4.38-2.3-7-3.14-5.76-8.78-7.79-14.28-10a89.77,89.77,0,0,0-9.24-3,66.22,66.22,0,0,0-10.17-1.84c-5.58-.68-11.3-.19-17-.19-2,1.84-4.66.55-6.93,1.36s-4.64.85-6.79,1.7c-4.15,1.62-8.43,2.85-12.31,5.31C506.5,322,504.28,325.29,501,327.82Zm-1,14.91c0,5.63,0,11.25,0,16.87a11.31,11.31,0,0,0,.73,2.17c1.26,5.41,5.14,8.29,9.72,10.83,4.13,2.29,8.63,3.34,12.89,5.07,4.53,1.84,9.26,2.2,13.81,2.63a78.28,78.28,0,0,0,25.62-1.74c5.69-1.36,15.06-4.77,19.6-8.09,3.15-2.31,6.06-5.37,6.44-9.19.61-6.2.16-12.5.16-19.41a34.15,34.15,0,0,1-13.65,9.76c-3.16,1.28-6.21,3-9.79,2.87-4.61,2.45-9.81,2.49-14.73,2.85a80.82,80.82,0,0,1-28.23-2.71,66.86,66.86,0,0,1-11.7-4.3C507.1,348.45,503.11,346.38,500,342.73Z" transform="translate(231.96 -196.5)"/><path d="M154,436.28c0,4.16,0,8.32,0,12.48a14.59,14.59,0,0,1-4.38,10.68c-5.87,5.83-13,9-20.88,11.15A92.22,92.22,0,0,1,101,473.47c-2.7-.1-5.38-.66-8.07-1-2.5-.28-4.87-1.43-7.25-1.69a35.38,35.38,0,0,1-11.06-3.52c-5.55-2.59-11-5.92-14-11.78a12.71,12.71,0,0,1-1.66-5.81c.07-9.15-.1-18.31.1-27.46a13.07,13.07,0,0,1,3.62-9c6.08-6.37,13.62-9.89,22.1-11.8,3.53-.8,7.14-1.32,10.62-2.14,4.75-1.13,9.42-.67,14.11-.76,2.21,0,4.52-.72,6.72.61,1.93,1.16,4.26.11,6.54,1.09,2,.84,4.68.42,7,1.23,1,.36,2.1.58,3.08,1,3.65,1.63,7.44,3,10.86,5.14,4.58,2.89,8.19,6.54,9.79,11.85a12.12,12.12,0,0,1,.5,3.28C154,427.29,154,431.78,154,436.28ZM63.08,417.76a4.56,4.56,0,0,1-.13,1.48c-1.88,3.9-.42,7,1.57,10.55,2.14,3.81,5.59,5.61,8.92,7.51,3.72,2.13,8.1,3,12.11,4.49,4.39,1.67,9,1.64,13.39,2.56,3.67.76,7.63.28,11.45.12s7.72-.64,11.58-1c.16,0,.39.07.49,0,1.78-1.54,4.17-1.1,6.19-1.94s4.59-1.06,6.61-2.11c4.45-2.33,9.22-4.27,12.55-8.29,2.45-2.95,4-6.59,3-10.12a15.88,15.88,0,0,0-7.07-9.62c-7.56-4.45-12.37-6.15-20.69-8a76.46,76.46,0,0,0-18.68-1.87c-2.16,0-4.74-.74-6.39.18-2.35,1.31-4.74.26-7,1.23-2.11.91-4.68.77-6.8,1.66-4.11,1.73-8.45,2.81-12.29,5.37C68.48,412.17,66.2,415.38,63.08,417.76ZM62,431.53c0,6.88-.09,12.66.06,18.43a9.85,9.85,0,0,0,1.37,4.4,20.75,20.75,0,0,0,8.93,8.23c4.16,2.16,8.62,3.35,12.87,5.09,4.54,1.85,9.28,1.49,13.84,2.69,2.8.73,6,.26,8.94.09,2.73-.15,5.47.54,8.22-.59s5.6-.5,8.46-1.2a62.73,62.73,0,0,0,20-8.45c3.22-2.13,5.92-5.37,6.23-9.3.47-6.07.12-12.2.12-19.11-4.15,5.26-9.28,7.84-14.31,10.33-3.41,1.69-7.32,2.47-11.09,3.31a103.76,103.76,0,0,1-12.14,2,63.92,63.92,0,0,1-9,0c-2.88-.11-5.88.73-8.57-1-4.26.58-8.19-1-12.13-2.07A54.25,54.25,0,0,1,72.15,440C68.6,438,64.88,436.05,62,431.53Z" transform="translate(231.96 -196.5)"/><path d="M351,375.86c0-4.33-.08-8.66,0-13a14.47,14.47,0,0,1,4.27-10.23c5.95-6,13.32-9.19,21.36-11.18,3.69-.91,7.51-1.25,11.12-2.15,6.25-1.54,12.5-1.06,18.59-.58a107.43,107.43,0,0,1,16.25,2.78,8.47,8.47,0,0,1,1.68.77c3.58,1.81,7.37,3.07,10.89,5.09a28.11,28.11,0,0,1,9.43,9.38,10.43,10.43,0,0,1,1.33,5.4c.13,9.15.16,18.31,0,27.47A13.3,13.3,0,0,1,442,399c-6,6.14-13.43,9.41-21.68,11.64a84.43,84.43,0,0,1-28.24,2.72,83,83,0,0,1-25.41-6c-5.79-2.54-11.18-6.2-14.36-12.05a12.68,12.68,0,0,1-1.3-5.42C350.85,385.19,351,380.52,351,375.86Zm4-18c0,.68.11,1.06,0,1.34-1.75,3.87-.62,7,1.52,10.57,2.31,3.84,5.84,5.67,9.32,7.72,3.74,2.21,8.08,3,12.11,4.51,4.18,1.6,8.65,1.59,13,2.39,3.7.69,7.64.27,11.46.11s7.72-.64,11.57-1c.17,0,.4.07.49,0,1.77-1.59,4.19-1.54,6.2-1.8,2.46-.32,4.1-2.6,6.64-2.19,4.34-2.52,9.21-4.28,12.53-8.3,2.42-2.93,3.93-6.51,3.06-10.12a16.82,16.82,0,0,0-5.82-9c-4.28-3.46-15.5-7.59-21.41-8.67-2.38-.44-5.07-.08-7-1-3.14-1.55-6.14-.49-9.17-.76s-6.57-.81-9.41.16c-2.37.81-4.72.28-7,1.15s-4.66.81-6.8,1.69c-4.12,1.69-8.44,2.81-12.31,5.32C360.5,352.09,358.25,355.33,355,357.83Zm88,14c-4.15,5.26-9.27,7.84-14.31,10.33-3.41,1.69-7.32,2.47-11.08,3.31-4,.9-8.09,1.94-12.14,1.92-5.84,0-11.8,1.27-17.55-.87-4.25.58-8.19-1-12.12-2.07A54.33,54.33,0,0,1,364.15,380c-3.54-2-7.28-3.94-10.18-8.49,0,6.9-.09,12.68.06,18.45a9.93,9.93,0,0,0,1.36,4.39,21.31,21.31,0,0,0,8.94,8.23,67.81,67.81,0,0,0,29.17,7.84,85.05,85.05,0,0,0,17.07-.72,75.77,75.77,0,0,0,12-2.57,46.56,46.56,0,0,0,13.7-6.63c3.28-2.45,6.23-5.52,6.58-9.58C443.36,384.86,443,378.72,443,371.81Z" transform="translate(231.96 -196.5)"/><path class="cls-1" d="M647.08,297.76c3.11-2.38,5.4-5.58,8.75-7.82,3.85-2.56,8.19-3.64,12.29-5.37,2.13-.89,4.7-.74,6.81-1.65,2.27-1,4.66.08,7-1.24,1.64-.92,4.23-.14,6.39-.18A77.05,77.05,0,0,1,707,283.37c9.45,2.13,15.13,4.5,20.7,8a16.52,16.52,0,0,1,7,9.65c1.07,3.53-.51,7.17-2.94,10.11-3.34,4-8.11,6-12.55,8.3-2,1.05-4.48,1.23-6.61,2.11s-4.42.4-6.2,1.94c-.09.08-.32,0-.49,0-3.85.33-7.71.8-11.57,1s-7.78.63-11.45-.12c-4.44-.92-9-.91-13.39-2.56-4-1.51-8.4-2.35-12.12-4.49-3.32-1.9-6.78-3.69-8.92-7.51-2-3.54-3.45-6.64-1.57-10.55A4.56,4.56,0,0,0,647.08,297.76Z" transform="translate(231.96 -196.5)"/><path class="cls-1" d="M734.62,312.35a4.57,4.57,0,0,1,.34.92c0,6.15,0,12.31,0,18.44-1.49,2.83-2.82,5.76-5.46,7.73a55,55,0,0,1-10.94,6.11c-3.85,1.7-8,2.26-11.92,3.76a2.59,2.59,0,0,1-.91.18c-5.54,0-11,1.25-16.56,1.13a81.38,81.38,0,0,1-18.09-2.26c-6.55-1.64-13.14-3.85-18.59-8-4-3-6.66-7.24-6.55-12.7.1-5,0-9.92,0-15.74a35.71,35.71,0,0,0,9.23,7.44,83.55,83.55,0,0,0,12.82,5.2c4.49,1.59,9.29,1.39,13.77,2.9a9.87,9.87,0,0,0,3,0c3.49,0,7,.13,10.48,0a49.37,49.37,0,0,0,10-1c6.26-1.62,12.78-2.55,18.5-5.9a61.59,61.59,0,0,0,6-3.46A46.84,46.84,0,0,0,734.62,312.35Z" transform="translate(231.96 -196.5)"/><path class="cls-1" d="M208.94,387.87c3.35-2.69,5.65-5.88,9.06-8.05,3.87-2.47,8.16-3.66,12.32-5.27,2.16-.83,4.57-1,6.78-1.73s4.9.5,6.94-1.32c5.66,0,11.38-.48,17,.18a66.69,66.69,0,0,1,10.66,1.89c6.84,2,13.65,4.19,19.4,8.59a16.6,16.6,0,0,1,5.62,8.62c1.13,3.79-.6,7.14-2.7,10.13-1.77,2.52-4.46,4.11-7.14,5.58a62.3,62.3,0,0,1-16.47,6.11,92.29,92.29,0,0,1-12.18,1.82,61.12,61.12,0,0,1-13,0c-9.28-1.18-18.39-3.05-26.73-7.78-4.55-2.59-8.29-5.47-9.83-10.8-.61-2.14-1.32-3.88.23-5.83C209.21,389.59,208.94,388.71,208.94,387.87Z" transform="translate(231.96 -196.5)"/><path class="cls-1" d="M208,402.84c3,3.51,7,5.69,10.78,7.46a69.16,69.16,0,0,0,12.15,4.45c4.75,1.2,9.56,1.87,14.32,2.6a56.2,56.2,0,0,0,14.43,0,89.85,89.85,0,0,0,20.16-4.27c6.32-2.25,12.05-5.49,16.59-10.56a1.33,1.33,0,0,1,.34.22.7.7,0,0,1,.22.4c0,6.15,0,12.31,0,18.92a49.16,49.16,0,0,1-4,5.84c-3.34,3.67-7.88,5.54-12.3,7.57-3.83,1.75-8,2.31-11.93,3.74a4,4,0,0,1-.9.24c-3.68.34-7.37.8-11.06,1s-7.77.63-11.45-.11c-4.59-.91-9.3-.86-13.84-2.63-4.13-1.62-8.58-2.54-12.5-4.75-3.44-1.94-6.73-3.93-8.82-7.63a13.94,13.94,0,0,1-2.09-6.11C207.8,413.78,208,408.3,208,402.84Z" transform="translate(231.96 -196.5)"/><path class="cls-1" d="M-83,447.84c3.23-2.47,5.51-5.67,8.87-7.91,3.85-2.55,8.18-3.64,12.29-5.36,2.13-.89,4.69-.76,6.81-1.66,2.27-1,4.65.07,7-1.23,1.65-.92,4.23-.14,6.39-.18A72.35,72.35,0,0,1-23,433.38c6.8,1.65,10.84,2.76,17.49,6.07a20.8,20.8,0,0,1,9,8.12c2.29,3.86,1.48,9.91-1.72,13.6-3.43,3.95-8.13,5.94-12.57,8.27-2,1.05-4.49,1.22-6.61,2.11s-4.42.39-6.2,1.94c-.09.08-.32,0-.49,0-3.85.33-7.71.8-11.57,1s-7.76.58-11.46-.11c-4.32-.81-8.81-.72-13-2.36-4-1.57-8.29-2.42-12.11-4.5S-80,463.26-82,459c-1.42-2.95-3.29-5.87-1-9.27C-82.83,449.38-83,448.74-83,447.84Z" transform="translate(231.96 -196.5)"/><path class="cls-1" d="M-84,461.5c3.54,5,7.67,7.19,11.8,9.23a62.78,62.78,0,0,0,14,4.8,94.08,94.08,0,0,0,12.66,1.88,61.71,61.71,0,0,0,13.45-.06,89.69,89.69,0,0,0,8.94-1.21c2.85-.68,5.63-1.69,8.47-2.41a31.55,31.55,0,0,0,8.2-3.13c4-2.31,8.16-4.27,11.5-9.16,0,7.39.43,13.7-.16,19.91-.35,3.64-3,6.78-6.14,8.82A72.65,72.65,0,0,1-12,495.68c-3.74,1.66-7.85,1.86-11.44,3.71a2.73,2.73,0,0,1-1,.11c-3.68.34-7.37.8-11.06,1s-7.32.07-11,0c-2.55,0-4.92-1.11-7.56-1.15a16.53,16.53,0,0,1-6.71-1.75c-2.19-1.06-4.78-1.27-7.09-2.13a55,55,0,0,1-6.26-3,19.17,19.17,0,0,1-8.51-8.08A21.08,21.08,0,0,1-84,480a7.76,7.76,0,0,1,0-2Z" transform="translate(231.96 -196.5)"/><path class="cls-1" d="M501,327.82c3.31-2.53,5.53-5.79,9-7.95,3.88-2.46,8.16-3.69,12.31-5.31,2.15-.85,4.6-.91,6.79-1.7s4.91.48,6.93-1.36c5.66,0,11.38-.49,17,.19a66.22,66.22,0,0,1,10.17,1.84,89.77,89.77,0,0,1,9.24,3c5.5,2.23,11.14,4.26,14.28,10,1.43,2.63,2.74,4.91,2.3,7-.57,2.71-1.14,5.5-3.16,7.67-3.64,3.91-8.28,6.18-13.06,8.28-3.85,1.69-8,2.32-12,3.71a3.61,3.61,0,0,1-.89.26c-3.69.35-7.37.81-11.07,1s-7.76.58-11.46-.09c-4.76-.87-9.64-1-14.31-2.75-4.32-1.64-8.86-2.69-12.87-5.12-3-1.8-5.7-3.61-7.68-6.8-2.19-3.51-3.26-6.71-1.51-10.57C501.08,328.85,501,328.47,501,327.82Z" transform="translate(231.96 -196.5)"/><path class="cls-1" d="M500,342.73c3.14,3.65,7.13,5.72,10.9,7.61a66.86,66.86,0,0,0,11.7,4.3,80.82,80.82,0,0,0,28.23,2.71c4.92-.36,10.12-.4,14.73-2.85,3.58.12,6.63-1.59,9.79-2.87A34.15,34.15,0,0,0,589,341.87c0,6.91.45,13.21-.16,19.41-.38,3.82-3.29,6.88-6.44,9.19-4.54,3.32-13.91,6.73-19.6,8.09a78.28,78.28,0,0,1-25.62,1.74c-4.55-.43-9.28-.79-13.81-2.63-4.26-1.73-8.76-2.78-12.89-5.07-4.58-2.54-8.46-5.42-9.72-10.83a11.31,11.31,0,0,1-.73-2.17C499.94,354,500,348.36,500,342.73Z" transform="translate(231.96 -196.5)"/><path class="cls-1" d="M63.08,417.76c3.12-2.38,5.4-5.59,8.76-7.82,3.84-2.56,8.18-3.64,12.29-5.37,2.12-.89,4.69-.75,6.8-1.66,2.27-1,4.66.08,7-1.23,1.65-.92,4.23-.14,6.39-.18A76.46,76.46,0,0,1,123,403.37c8.32,1.89,13.13,3.59,20.69,8a15.88,15.88,0,0,1,7.07,9.62c1.06,3.53-.51,7.17-3,10.12-3.33,4-8.1,6-12.55,8.29-2,1.05-4.48,1.22-6.61,2.11s-4.41.4-6.19,1.94c-.1.08-.33,0-.49,0-3.86.33-7.71.8-11.58,1s-7.78.64-11.45-.12c-4.43-.92-9-.89-13.39-2.56-4-1.53-8.39-2.36-12.11-4.49-3.33-1.9-6.78-3.7-8.92-7.51-2-3.54-3.45-6.65-1.57-10.55A4.56,4.56,0,0,0,63.08,417.76Z" transform="translate(231.96 -196.5)"/><path class="cls-1" d="M62,431.53c2.91,4.52,6.63,6.51,10.18,8.47a54.25,54.25,0,0,0,11.61,4.43c3.94,1.1,7.87,2.65,12.13,2.07,2.69,1.71,5.69.87,8.57,1a63.92,63.92,0,0,0,9,0,103.76,103.76,0,0,0,12.14-2c3.77-.84,7.68-1.62,11.09-3.31,5-2.49,10.16-5.07,14.31-10.33,0,6.91.35,13-.12,19.11-.31,3.93-3,7.17-6.23,9.3a62.73,62.73,0,0,1-20,8.45c-2.86.7-5.82.11-8.46,1.2s-5.49.44-8.22.59c-3,.17-6.14.64-8.94-.09-4.56-1.2-9.3-.84-13.84-2.69-4.25-1.74-8.71-2.93-12.87-5.09a20.75,20.75,0,0,1-8.93-8.23A9.85,9.85,0,0,1,62,450C61.88,444.19,62,438.41,62,431.53Z" transform="translate(231.96 -196.5)"/><path class="cls-1" d="M355,357.83c3.28-2.5,5.53-5.74,8.92-7.94,3.87-2.51,8.19-3.63,12.31-5.32,2.14-.88,4.64-.86,6.8-1.69s4.62-.34,7-1.15c2.84-1,6.27-.45,9.41-.16s6-.79,9.17.76c1.94,1,4.63.6,7,1,5.91,1.08,17.13,5.21,21.41,8.67a16.82,16.82,0,0,1,5.82,9c.87,3.61-.64,7.19-3.06,10.12-3.32,4-8.19,5.78-12.53,8.3-2.54-.41-4.18,1.87-6.64,2.19-2,.26-4.43.21-6.2,1.8-.09.08-.32,0-.49,0-3.85.33-7.71.8-11.57,1s-7.76.58-11.46-.11c-4.31-.8-8.78-.79-13-2.39-4-1.54-8.37-2.3-12.11-4.51-3.48-2-7-3.88-9.32-7.72-2.14-3.55-3.27-6.7-1.52-10.57C355.08,358.89,355,358.51,355,357.83Z" transform="translate(231.96 -196.5)"/><path class="cls-1" d="M443,371.81c0,6.91.39,13.05-.14,19.11-.35,4.06-3.3,7.13-6.58,9.58a46.56,46.56,0,0,1-13.7,6.63,75.77,75.77,0,0,1-12,2.57,85.05,85.05,0,0,1-17.07.72,67.81,67.81,0,0,1-29.17-7.84,21.31,21.31,0,0,1-8.94-8.23A9.93,9.93,0,0,1,354,390c-.15-5.77-.06-11.55-.06-18.45,2.9,4.55,6.64,6.53,10.18,8.49a54.33,54.33,0,0,0,11.62,4.43c3.93,1.1,7.87,2.65,12.12,2.07,5.75,2.14,11.71.84,17.55.87,4.05,0,8.14-1,12.14-1.92,3.76-.84,7.67-1.62,11.08-3.31C433.7,379.65,438.82,377.07,443,371.81Z" transform="translate(231.96 -196.5)"/></svg>