<svg id="Layer_1" data-name="Layer 1" xmlns="http://www.w3.org/2000/svg" viewBox="0 0 1040.93 396.05"><defs><style>.cls-1{fill:#fef3e8;}.cls-2{fill:#d2c7bd;}.cls-3{fill:#e8ddd2;}</style></defs><path d="M-213.93,431.57V379.15c1.51-.71,3-2,4.59-2,5.77-.17,11.1-2.43,16.73-3.26a31.42,31.42,0,0,0,6.85-1.46,35.15,35.15,0,0,1,6.93-1.37c2.35-.38,4.82-.35,7.06-1.07A99.76,99.76,0,0,1-152.91,366c1.59-1.6,3.7-.7,5.77-1.17,2.53-3.93,6.7-6.32,10.68-8.66a43.45,43.45,0,0,1,11.26-4.09c4-1,8.08-1.59,12.11-2.32A69.17,69.17,0,0,1-104,349c3.16-.15,6.55-.72,9.43.17s5.84-.19,8.24,1.8c2.19-.44,4.42.62,6.71-.74,1.66-1,4-.33,6-1.12,2.46-.94,5.39-.58,8-1.19,5-1.16,10.23-1.81,15.15-3.28,2.25-.68,4.64-.25,6.86-1.54,1.65-1,4-.79,6-1.13,1.86-.32,3.71-.74,5.59-1,2-.27,3.89-1.65,6.08-1,6.1-2.2,12.53-2.81,18.81-4.15A38.33,38.33,0,0,1-1.29,335c2.7-3.87,6.68-6.49,10.74-8.74,3.46-1.92,7.43-3,11.23-4.2,4.63-1.52,9.55-1.72,14.28-2.89,3-.74,6.32-.36,9.46-.08s6.27-1.25,9.09.94c2.79-.44,5.4.91,8.09.91a26.08,26.08,0,0,0,9-1.21c1.66-.61,3.41,0,4.64-.8,1.56-1,3.1-.64,4.64-.94,5.38-1,10.73-2.23,16.09-3.4,2.12-.46,4.21-1.35,6.35-1.49,3-.19,5.87-1.27,8.83-1.65A51.23,51.23,0,0,0,120,309.8c5.08-1.64,10.43-1.87,15.47-3.61,2.82-1,6-.92,9.34-1.37a29.56,29.56,0,0,1,10.59-8.5,59.76,59.76,0,0,1,11.68-4.39c4.55-1.22,9.29-1.39,13.8-2.85,1.5-.49,3.3-.08,5-.08,3.5,0,7.06-.39,10.48.11a82.34,82.34,0,0,1,9.72,1.76c3.6,1,7.26-.71,10.88-1.31,2.14-.35,4.24-1.49,6.34-1.47,4.71.07,9.22-1.28,13.62-2.32,5.28-1.26,10.65-2.35,15.94-3.55,4.11-.92,8.41-1.59,12.59-2.39,3.62-.69,7.39-1.23,10.87-2.63,1.65-.66,3.34-.08,5.15-.85,2.7-1.15,5.91-1.07,9.39-1.59,2.53-3.48,6.42-6.16,10.48-8.39a44.15,44.15,0,0,1,11.2-4.25c4-.92,8.14-1.46,12.1-2.33,6.1-1.34,12.11-.36,18.13-.73,1.5-.09,3.05.64,4.59.93a27,27,0,0,1,4.19.72,7.66,7.66,0,0,0,6.62-.35c1.69-1.07,3.61-.08,5.55-1.16,2.21-1.21,5.28-.83,8-1.21,2.35-.33,5-.18,6.93-1.3,2.1-1.21,4.34-.2,6.43-1.54,1.71-1.09,4.4-.5,6.46-1.22,4-1.4,8.41-1,12.28-2.93,5.94.11,11.46-2.21,17.21-3.22,3.91-.68,8.08-.89,11.83-2.7,1.07-.51,2.59-.08,4-.08,2.66-4.15,6.85-6.5,10.81-8.88a36.52,36.52,0,0,1,10.79-4c4-.88,8.11-1.5,12.11-2.31,5.92-1.2,11.77-.73,17.62-.66a31.1,31.1,0,0,1,9.27,1.61,8.57,8.57,0,0,0,5.36.14c3.83-1.51,8-1.25,11.85-2.73,2.09-.8,4.67-.46,7-1,3-.76,6.13-1.19,9.17-2,2.85-.79,5.82-1,8.7-1.92,1.89-.59,4-.61,6-1.07,6-1.32,12.09-1.8,17.87-4,1.61-.62,3.67.72,5.05-1.08,4.86.31,9.27-2.38,14.24-2,2.67-4.06,6.79-6.5,10.79-8.82,3.41-2,7.44-2.94,11.25-4.18,4.63-1.5,9.52-2.09,14.27-2.82,5.54-.85,11.3-.2,17-.2,2.38,2.06,5.49.65,8.25,1.82,3.28,1.38,7-.53,10.41-1.12s7-1.92,10.71-1.67L827,359.67v53.95c-2.08.45-4.2,1-6.34,1.37s-4.59,0-6,1.16c-2,1.68-4.76-.42-6.29,1.85-4.37-.26-8.39,1.64-12.66,2.1-3.69.4-7.27,1.71-10.91,2.56-2.14.5-4.32.73-6.47,1.24-3,.72-6.11,1.38-9.17,2a59.12,59.12,0,0,0-8.71,2c-1.83.65-4,.62-6,1.07-4.74,1.05-9.52,1.88-14.26,3a82,82,0,0,0-8.7,2c-2.65.92-6,.11-8.42,1.36-2.16,1.12-4.4.07-6.44,1.48-1.59,1.1-3.94.15-6,1.18-1.89.95-4.38.58-6.51,1.17-4.85,1.36-9.84,2-14.74,3-5.41,1.14-11,1.65-16.23,3.08s-10.65,2.42-15.94,3.61c-4.11.92-8.4,1.6-12.59,2.39a72.54,72.54,0,0,0-10.88,2.58c-1.94.69-4,.48-6,1-2.82.77-5.88,1.12-8.76,1.87s-6,.58-8.52,2.35c-4.19-.19-8.09,1.46-12.16,2.05a91.06,91.06,0,0,0-11,2.45c-2.1.58-4.65-.56-6.35,1.5-6.37.88-12.6,2.46-18.88,3.8-4.13.88-8.35,1.79-12.61,2.33a109.82,109.82,0,0,0-11.14,2.08c-3.58.83-7.55.59-10.8,2.79-4.2-.22-8.13,1.29-12.15,2.08-5.52,1.08-11.11,1.87-16.51,3.55a48.91,48.91,0,0,1-6.94,1.35c-2.51.41-5.4,0-7.48,1.19-2.27,1.24-4.94-.2-6.8,1.74-4.23-.37-8.11,1.45-12.1,2.28-5.64,1.17-11.48,1.61-16.91,3.73-4.23-.38-8.06,1.59-12.11,2.27-3.6.61-7.39,1-10.88,2.59-1.79.82-4,.52-6,1.07-4.36,1.18-8.85,2.08-13.26,2.9s-9,1.91-13.6,2.44c-3.62.42-7.46.83-10.91,2.49-1.86.89-4.24-.39-6,1.32-6,.3-11.71,2.77-17.76,3-3.33,1.92-7.29,1.41-10.81,2.87-1.93.79-4.36.07-6.57,1-1.83.79-4,.77-6,1.09-2.2.34-4.72.1-6.5,1.15s-4.3-.06-5.76,1.85c-4.19-.18-8.13,1.29-12.15,2.09-5.51,1.09-11.15,1.66-16.47,3.63-1.93.72-4,.11-6,1.13s-5.12.12-6.88,1.33c-2.1,1.43-4.74-.42-6.31,1.78-2.3-.36-4.38.81-6.58,1-4,.31-7.61,1.94-11.59,2.34-3.06.31-6.07,1.43-9.23,1.8a105.22,105.22,0,0,0-11,2.3c-2.12.48-4.2,1.4-6.33,1.55-6,.4-11.69,3-17.75,3.06-3.35,1.87-7.26,1.61-10.81,2.85-2.14.75-4.67.53-7.06,1-7.18,1.55-14.47,2.58-21.48,4.89-1.94.64-4,0-6.07,1.09-1.72.91-4,.75-6,1.13s-4.57.41-6.37,1.46-4.4-.6-5.88,1.53c-4.37-.25-8.44,1.45-12.65,2.16-3.63.61-7.46.86-10.91,2.52-1.86.89-4,.19-6,1.16s-5.34.18-7.41,1.33c-2.41,1.33-5.27-.22-7.27,1.83-4.38-.3-8.53,1.07-12.64,2.11-5.76,1.48-11.71,2-17.4,3.79a23.4,23.4,0,0,1-5.56.91c-2,.12-3.62,1.26-5.58,1.22s-3.56,1.54-5.58,1c-2.38,2.09-5.52.44-8.26,1.83-2.27,1.16-5.42.45-8,1.25-5.22,1.63-10.62,2.57-15.91,3.71-4.13.88-8.41,1.59-12.59,2.38-3.63.68-7.44.9-10.9,2.57-1.83.88-4,.51-6,1a69,69,0,0,1-8.78,1.8A48,48,0,0,0-22,588.2c-5.09,1.69-10.36,2.35-15.5,3.48-4.57,1-9.22,2.54-14,2.35ZM-48.85,539.11A27.67,27.67,0,0,1-45.26,538c2.51-.43,5.32-.14,7.5-1.2,1.91-.91,4.19-.23,5.75-1.83,2.36.72,4.32-1,6.59-1.06a14.32,14.32,0,0,0,6-1.06c2-1.06,4.16-.39,6.06-1.09a64.25,64.25,0,0,1,10.88-2.61c4.19-.75,8.48-1.47,12.59-2.4,5.29-1.21,10.71-1.93,15.95-3.59a54.52,54.52,0,0,1,8.85-1.63,68.39,68.39,0,0,0,8.79-1.78c2-.56,4.12-.3,6-1,3.83-1.49,7.92-1.82,11.87-2.71,2.64-.6,5.36-.83,8-1.3a71.82,71.82,0,0,0,8.23-1.8c2.55-.77,5.23-.63,7.75-1.81,1.93-.9,4.35-.72,6.53-1.13,1.05-.2,2-.81,3.1-.94,1.31-.17,2.85.38,4-.11,4.61-2.06,10-1.1,14.39-3.91.23-.15.65,0,1,0,4.32-.06,8.52-1.3,12.62-2.22,5.3-1.19,10.66-2.4,15.95-3.54,5.83-1.26,11.67-2.95,17.7-3.24,1.71-1.71,4-.58,6-1.29,5.33-1.93,11-2.54,16.48-3.63,4-.79,8-2.27,12.15-2.08,5-2.5,10.59-2.8,15.89-3.76,4.5-.81,9-2.36,13.63-2.24,1.68-2.08,4.22-.73,6.35-1.57,3.44-1.36,7.29-1.75,11-2.4,2.67-.47,5.54-.25,8-1.14a69,69,0,0,1,10.81-2.79c3.88-.72,7.64-2.18,11.65-2.1,1.72-1.69,4-.6,6-1.27a71.27,71.27,0,0,1,10.9-2.57c4.2-.73,8.48-1.46,12.59-2.39,5.29-1.2,10.78-1.67,15.92-3.69,2-.8,4.37-.72,6.56-1.09s4.94-.29,6.91-1.37,4.67.45,6.34-1.62c5.9-.15,11.31-3.12,17.26-3,4.21-1.93,8.95-1.43,13.3-2.89,1.41-.47,3-.5,4.57-1s3-.43,4.61-.91a53.87,53.87,0,0,1,9.64-2A95.66,95.66,0,0,0,402.13,446c2.13-.58,4.62-.22,6.51-1.17,2.05-1,4.4-.08,6-1.18,2-1.41,4.28-.36,6.44-1.48,2.38-1.25,5.76-.45,8.42-1.36,2.88-1,5.82-1.29,8.69-2,4.74-1.14,9.54-1.87,14.27-3,2-.47,4.24-.36,6.05-1,6.64-2.54,13.81-2.56,20.52-4.76,2.68-.88,5.82-.36,8.49-1.26,2.89-1,5.92-1.13,8.69-2,6-1.87,12.38-1.94,18.42-3.74,3-.88,6.14-1.09,9.16-2,2.09-.66,4.44-.49,6.55-1.12,2.35-.7,5-.31,7-1.1,4.7-1.81,10-1.06,14.4-3.84,2.17.53,4.06-.64,6.09-1,1.86-.33,3.72-.68,5.58-1,2-.34,4.19-.34,6-1.09,2-.82,4.07-.67,6.08-1.05,1.79-.35,3.48-1.73,5.22-1.73,2.17,0,4.06-.78,6.08-1.13s3.72-.68,5.59-1,4.2-.32,6-1.09c2-.85,4.17-.44,6-1.1,2.38-.84,4.84-1.2,7.22-1.88,2.55-.72,5.21-1.17,7.75-1.67a48.43,48.43,0,0,1,7.52-1.34,26.61,26.61,0,0,0,6.51-1.16c5.88-1.81,12-2.42,17.89-3.9,2.26-.56,4.6-.94,6.85-1.45,3.5-.79,7-1.61,10.53-2.38a37.85,37.85,0,0,1,6.59-1c2.27-.09,4.26-1.72,6.62-1.05,5.08-2.12,10.68-2.06,15.91-3.8a47.35,47.35,0,0,1,8.87-1.58,78.39,78.39,0,0,0,8.77-1.82c2-.49,4.29-.11,6-1,4.56-2.43,9.73-2.07,14.49-3.62,3.07-1,6.47-1,9.65-2.07s6.8-1.18,10.19-1.89c2.9-.61,5.9-1.2,8.9-1.57a75.75,75.75,0,0,0,8.77-1.81c2-.52,4.18-.24,6-1,5.12-2.15,10.66-2.42,16-3.61,4.13-.92,8.47-1.48,12.58-2.41,4.54-1,9.19-1.76,13.46-3.07L663.09,201.11l-8.54,1.39c.57.67.86,1.35,1.29,1.46a32.94,32.94,0,0,1,8.77,4.19,23,23,0,0,1,7.52,7.24c1.44,2.2,2.79,4.3,2.82,6.85.12,9.5.2,19,0,28.49a13.33,13.33,0,0,1-3.57,8.51c-3.79,4.29-8.75,6.84-13.64,9.42-2.41,1.27-5.32,1.61-8,2.34-2.55.68-5.13,1.93-7.66,1.84-3-.1-5.64,1.42-8.59,1.18-5.69-.47-11.36.23-17.13-.81A107,107,0,0,1,602.09,270a54.23,54.23,0,0,1-11-4.85,29.81,29.81,0,0,1-7.08-5.73,13.88,13.88,0,0,1-3.94-8.33c-.23-3.65,0-7.33,0-11,0-3.83,0-7.66,0-11.5,0-3.49-.51-7,1-10.23-24.22,4.63-48.05,9.79-73.06,14.38a36.65,36.65,0,0,0,4.25,2.23,29.49,29.49,0,0,1,13.55,9.39,15.11,15.11,0,0,1,3.35,10.12c-.23,8-.11,16-.05,24a15.73,15.73,0,0,1-4.9,12A41.52,41.52,0,0,1,512.69,298c-7.57,3.67-15.83,4.77-24,5.93a62.86,62.86,0,0,1-11.48,0c-3.7-.16-7.39-.62-11.09-1a4.06,4.06,0,0,1-.88-.27,62.06,62.06,0,0,0-7.75-1.88c-2.52-.49-4.9-1.8-7.29-2.85-5-2.22-9.74-5.05-13-9.48a15.84,15.84,0,0,1-3.26-10.16c.3-7.49,0-15,.12-22.5,0-2.51.36-5,.55-7.44L362.75,262.7c.36.45.63,1.11,1.07,1.26a46.14,46.14,0,0,1,8.37,4,25.14,25.14,0,0,1,8.25,7.81c1.38,2.08,2.47,4.14,2.5,6.47.14,9.5.21,19,0,28.5a13.34,13.34,0,0,1-3.56,8.51c-3.78,4.31-8.75,6.83-13.63,9.41-2.41,1.28-5.32,1.62-8,2.35s-5.13,1.94-7.66,1.85c-3-.1-5.65,1.42-8.59,1.18-5.69-.47-11.41.64-17.13-.88-2.21-.59-4.74-.34-7.05-1.13s-4.5-1.29-6.73-1.8a42.78,42.78,0,0,1-13.84-6.38,18.58,18.58,0,0,1-7.88-10.08,22.3,22.3,0,0,1-.78-6.14c-.14-3.33,0-6.67,0-10s0-6.67,0-10c0-3.16-.45-6.36,1-9.24-24.26,4.59-48.08,9.79-73.1,14.36a34.14,34.14,0,0,0,4.23,2.24,28.79,28.79,0,0,1,13.55,9.39,15.19,15.19,0,0,1,3.37,10.1c-.24,8-.11,16,0,24a15.85,15.85,0,0,1-4.87,12c-2.79,2.75-6.15,4.46-9.33,6.52-4.12,2.68-8.92,3.65-13.49,4.81A61.46,61.46,0,0,1,193.71,364c-3.34,0-6.67,0-10,0s-6.63-1.67-10.09-1c-4.61-2.24-9.79-2.59-14.52-4.81-5-2.35-9.73-4.74-13.24-8.94A15.22,15.22,0,0,1,142,338.87c.18-7.83,0-15.67.08-23.5,0-2.34.36-4.68.55-7L71,322.65v1.09a40.93,40.93,0,0,1,9.18,4.19,25.34,25.34,0,0,1,8.25,7.81c1.35,2.08,2.48,4.11,2.52,6.46.13,9.5.2,19,0,28.5a13.37,13.37,0,0,1-3.54,8.51c-3.77,4.33-8.75,6.85-13.64,9.42-2.42,1.27-5.32,1.63-8,2.36s-5.13,1.94-7.66,1.86c-3-.11-5.65,1.41-8.6,1.17-5.68-.47-11.35.16-17.12-.79a93.83,93.83,0,0,1-14.68-3.33c-3.48-1.16-7.36-1.77-10-4.76-3.09-.57-5-2.86-6.93-5-3-3.23-4.88-6.9-4.75-11.54.17-6.5,0-13,.06-19.5,0-3.66-.62-7.37,1-10.76-24.22,4.59-48,9.78-73.07,14.35A34.53,34.53,0,0,0-71.87,355a28.8,28.8,0,0,1,13.56,9.37,15.32,15.32,0,0,1,3.38,10.1c-.24,8.16-.11,16.33,0,24.5a15.37,15.37,0,0,1-4.52,11.17c-2.92,3.09-6.51,5-10.12,7s-7.54,3.77-11.89,3.88c-4.24,2.62-9.21,1.87-13.8,2.83-3.67.77-7.64.29-11.46.12s-7.4-.62-11.09-1a4.08,4.08,0,0,1-.89-.25c-4.82-1.67-9.86-2.51-14.58-4.64-5-2.28-9.74-4.88-13.14-9.2a15.28,15.28,0,0,1-3.59-10c.21-8.33,0-16.67.09-25a53,53,0,0,1,.64-5.71l-58.33,12.12ZM823.9,362a7.88,7.88,0,0,1-2,1c-1.14.15-2.46-.25-3.44.17-5.09,2.2-10.63,2.56-15.94,3.69-4.14.88-8.47,1.47-12.58,2.39-6.28,1.41-12.53,2.86-18.89,3.79-1.68,2.08-4.22.88-6.34,1.56a70.71,70.71,0,0,1-15.6,3.29c-4.32.38-8.24,2.68-12.64,2.19-6.54,2.81-13.77,2.67-20.48,4.87-2.68.88-5.82.37-8.49,1.26-2.89,1-5.9,1.16-8.69,2-5.57,1.66-11.31,2.43-16.93,3.64-4.9,1.05-9.85,1.88-14.76,3-1.93.46-4,.92-6,1.2-1.87.25-3.72.66-5.59,1s-4.25.26-6,1.11c-2,1-4.16.41-6.07,1.07-5.66,2-11.58,2.66-17.41,3.83a50.4,50.4,0,0,1-6.55,1.18c-1.77.11-3.47,1.68-5.21,1.68-2.17,0-4.06.78-6.08,1.13s-3.73.68-5.59,1c-2,.34-4.2.32-6,1.09-2,.86-4.25.33-6,1.1-4.65,2-9.76,1.89-14.47,3.69-2.61,1-5.82.38-8.48,1.28-2.89,1-5.89,1.16-8.69,2-5.56,1.65-11.3,2.46-16.93,3.63-4.91,1-9.85,1.89-14.75,3-1.94.46-4,.91-6,1.2s-3.73.66-5.59,1c-2,.34-4.24.27-6,1.1-2,.94-4.21.35-6.06,1.09-5.45,2.19-11.3,2.53-16.95,3.65-4.16.82-8.28,2.34-12.64,2.16-5,2.42-10.59,2.63-15.89,3.79s-10.78,2.26-16.2,3.25c-3.72.68-7.33,2-11.18,2-1.76,1.58-4.15,1.21-6.2,1.91-2.22.74-4.71.67-7,1.11-2.14.41-4.23,1.07-6.36,1.54-5.35,1.17-10.7,2.37-16.08,3.41-2.66.51-5.52.28-8.05,1.11-6,2-12.25,2.65-18.34,4.06-2,.47-4.17.36-6,1-5,1.81-10.31,2.65-15.45,3.58-4.34.79-8.69,1.86-13.13,2.31a35.13,35.13,0,0,0-6.48,1.22c-5.73,1.73-11.62,2.55-17.45,3.72-1.21.25-2.38.71-3.59,1s-2.69-.55-3.65.86c-4-.16-7.64,1.89-11.6,2.21a33.76,33.76,0,0,0-6.53,1.14A98.26,98.26,0,0,1,271.22,476c-2.14.33-4.21,1.1-6.34,1.56-5.36,1.17-10.72,2.34-16.1,3.37-2.66.51-5.53.27-8.05,1.11-6,2-12.26,2.61-18.33,4.08-2,.5-4.4.07-6,1.13-2,1.37-4.33.23-6.42,1.56-1.72,1.08-4.45.42-6.44,1.25-2.38,1-4.93.24-7.07,1.06-3.85,1.47-7.93,1.95-11.85,2.63s-7.87,2.81-12.13,2.21c-2.5,1.59-5.5,1.1-8.17,2a42.39,42.39,0,0,1-8.69,1.85c-4.13.44-7.89,2.77-12.15,2.17-3.26,2.18-7.22,2.15-10.8,2.77-4,.71-7.88,2.75-12.13,2.23-1.78,2.16-4.54.4-6.78,1.83-1.83,1.17-4.72.51-7,1.26s-4.93.3-7.06,1.05c-3.56,1.26-7.47,1-10.81,2.86-6.07.09-11.71,2.66-17.75,3.06-2.14.15-4.22,1.06-6.34,1.55-3.66.83-7.32,1.69-11,2.36-2.66.49-5.54.25-8,1.12-5.19,1.81-10.64,2.53-15.93,3.66-5.83,1.25-11.66,3-17.7,3.25-1.72,1.7-4,.58-6,1.28-5.32,1.93-11,2.55-16.47,3.64-4,.79-8,2.27-12.15,2.08-1.44,2-3.88.67-5.77,1.84s-4.3.82-6.49,1.16c-2,.32-4.08.57-6.08,1-2.72.61-5.4,1.39-8,2.07-.62,11.95-.4,44.88.32,49A18.92,18.92,0,0,1-45.4,590c2.52-.43,5.26-.2,7.54-1.13,5.14-2.11,10.65-2.38,15.93-3.74,6.19-1.61,12.7-2,18.8-4.16,2.2.7,4-.81,6.08-1,1.88-.2,3.73-.65,5.59-1,2-.34,4.27-.24,6-1.11,2-1,4.2-.34,6.06-1.1,5.13-2.1,10.65-2.44,16-3.62,4.13-.91,8.28-2.36,12.64-2.17,7.22-2.81,15-3.38,22.45-4.86,4.17-.82,8.33-1.89,12.62-2.34,2.13-.23,4.47-1.44,6.71-1.68,2.55-.27,4.9-1.35,7.58-1.26,2.22.07,4.46-1.43,6.74-1.6,3.21-.24,6.06-1.81,9.11-2.14a106.65,106.65,0,0,0,12.61-2.35c5.28-1.22,10.73-1.82,16-3.57a47.91,47.91,0,0,1,8.86-1.61,69.19,69.19,0,0,0,8.77-1.8c2-.53,4.17-.25,6.05-1,5.12-2.11,10.65-2.44,16-3.6,4.14-.9,8.28-2.36,12.64-2.16,7.21-2.86,14.95-3.37,22.45-4.86,4.17-.82,8.28-2.4,12.65-2.14,5.3-2.63,11.24-2.83,16.88-3.79,5.44-.93,10.56-3.52,16.22-3.21,2.5-1.58,5.49-1.12,8.17-2a42.92,42.92,0,0,1,8.69-1.85c4.13-.43,7.88-2.76,12.15-2.18,2.51-1.55,5.48-1.15,8.18-2a45.91,45.91,0,0,1,8.68-1.86c4.14-.4,7.89-2.74,12.15-2.18,2.52-1.52,5.48-1.18,8.18-2a47.71,47.71,0,0,1,8.68-1.86c4.15-.4,7.89-2.72,12.15-2.19,4.34-2.13,9.2-1.86,13.79-2.87,4-.88,7.94-2.32,12.15-2.1,1.94-1.61,4.46-1.48,6.69-1.87,2.49-.44,4.9-1.84,7.56-1.13,1.85-2,4.52-.85,6.79-1.7a37,37,0,0,1,9.07-2.21,105,105,0,0,0,12.61-2.31c5.29-1.19,10.65-2.41,15.94-3.55C441,490,446.8,488.3,452.84,488c1.71-1.71,4-.59,6-1.29,5.33-1.92,11-2.55,16.48-3.63,4-.79,8-2.27,12.16-2.08,5-2.5,10.58-2.8,15.88-3.76,4.5-.81,9-2.36,13.63-2.24,1.68-2.08,4.22-.69,6.35-1.57a32.27,32.27,0,0,1,10.5-2.32c4.66-.25,9-2.39,13.67-2.11,6.08-3.18,13.12-2.62,19.46-4.9,1.69-.61,3.71-.31,5.58-1s4.16-.42,6-1.17,4.13-.22,5.52-1.07c2.37-1.45,5-.39,7.36-1.67,2.11-1.13,5.09-.47,7.46-1.28,1.9-.66,4.09-.23,5.53-1.06,1.89-1.09,4-.72,5.84-1.69s4.32-.8,6.51-1.14c2-.32,4.35-.17,6-1.13,2-1.17,4.09-.49,6-1.15a68.87,68.87,0,0,1,10.89-2.57c4.22-.68,8.28-2.4,12.65-2.15,1.47-1.91,3.95-.15,5.41-1.37,1.64-1.37,3.47-.08,5.14-.94a19.45,19.45,0,0,1,5.3-1.65c2.67-.49,5.51-.32,8-1.15s5.21-.83,7.76-1.75,5.83-.36,8.48-1.29a82,82,0,0,1,8.7-2c4.74-1.09,9.53-1.91,14.26-3,2-.45,4.33-.29,6-1.09,3.34-1.56,7-1.69,10.39-2.59s7.09-1.38,10.63-2.19c2.77-.63,5.62-.88,8.4-1.45s5.65-1,8.3-1.76c5.74-1.6,11.64-2.35,17.43-3.65,4-.88,8-1.83,12-2.53s8.29-1.52,12.38-2.59c2.86-.75,5.87-.78,8.69-2,1.7-.72,3.7-.68,5.55-1.08,2.88-.63,5.75-1.33,8.64-2ZM-211,428.78-52.16,587.62V542.05L-210.84,383.37c.05-.07-.15.05-.15.17C-211,398.87-211,414.19-211,428.78ZM584,218.4c0,.68.27,1.55,0,2-2.35,3-.67,5.94.54,8.48a16.52,16.52,0,0,0,8.91,8.2c1.71.7,3.18,2,4.88,2.68s3.66.83,5.38,1.51a40.72,40.72,0,0,0,5.73,1.85,28.68,28.68,0,0,0,5.6,1c1.87.07,3.71.82,5.58.9,3.66.15,7.33.17,11,0s7.38-.63,11.07-1c.32,0,.71,0,1-.12,1.88-1.27,4.19-1.09,6.22-1.86S654,240.85,656,240c4.75-2.13,9.57-4.31,13-8.45,2.35-2.87,3.69-6.33,2.92-10.13-.68-3.34-4-6.82-7.24-9.45s-7-4.09-10.72-5.55c-6.17-2.4-12.66-3.48-19.17-4.31-3.11-.4-6.32-.07-9.48-.07-2.16,0-4.73-.73-6.39.18-2.26,1.23-4.48.26-6.58,1s-4.53,1.19-6.73,1.87c-4.25,1.33-8.49,2.69-12.37,5.12C589.59,212.45,587.18,215.79,584,218.4ZM438.15,248.27c-.14.89,0,1.84-.42,2.43-2,2.93-.39,5.74.75,8.08,1.81,3.73,5,6.36,8.83,8.32,4.19,2.12,8.63,3.34,12.91,5,4.68,1.87,9.57,1.78,14.32,2.71,3.53.7,7.31.27,11,.1s7.39-.63,11.08-1a3.42,3.42,0,0,0,1-.07c4-1.68,8.4-2.13,12.35-3.94,4.74-2.17,9.5-4.35,13-8.41a11.62,11.62,0,0,0,3-9.67,15.35,15.35,0,0,0-6.36-9.78c-6.82-4.74-14.71-7.37-22.71-8.93-5.17-1-10.59-1.8-16-1.25-2.64.27-5.45-.46-8,.16-4.4,1.09-9,1.43-13.25,2.93s-8.48,2.75-12.37,5.14C443.61,242.39,441.22,245.73,438.15,248.27ZM292,278.33c0,.72.11,1.11,0,1.38-1.86,3.89-.47,7,1.55,10.55,2.15,3.79,5.56,5.64,8.92,7.52,3.74,2.09,8.08,3,12.11,4.5,4.39,1.64,8.95,1.63,13.38,2.56,3.67.77,7.63.29,11.45.12s7.72-.63,11.58-1c.16,0,.39.07.49,0,1.77-1.57,4.18-1.06,6.19-1.93s4.59-1.07,6.61-2.13c4.44-2.33,9.16-4.29,12.58-8.24,3.2-3.68,4.05-9.79,1.75-13.6a22.45,22.45,0,0,0-9-8.17c-9.15-5-19-7.22-29.19-7.87-4.48-.29-9-.05-13.49-.05-2,2-4.64.43-6.91,1.39s-4.67.79-6.8,1.68c-4.12,1.71-8.44,2.81-12.3,5.34C297.52,272.64,295.25,275.85,292,278.33Zm-438,90c0,.82.28,1.72-.05,2.11-1.62,1.94-.89,3.7-.28,5.83,1.53,5.33,5.23,8.27,9.83,10.8,9.13,5,19,7.16,29.19,7.89,6.55.47,13.06-.27,19.57-1a5.92,5.92,0,0,0,1.41-.19c3.9-1.5,8.08-2.06,11.93-3.77,4.93-2.19,9.87-4.38,13.38-8.61,2.27-2.73,3.73-6.24,2.88-9.68A16.9,16.9,0,0,0-64.6,362c-4.47-3.22-14.12-6.49-19.59-8.21-3.42-1.07-7.1.26-10.21-1.81h-16.49c-2,1.77-4.67.58-7,1.3s-5,1-7.22,1.88c-4.12,1.63-8.46,2.71-12.29,5.39C-140.65,362.89-142.87,366.14-146,368.35Zm292-60c0,.83.28,1.73-.05,2.12-1.62,1.94-.89,3.7-.28,5.83,1.53,5.32,5.23,8.26,9.83,10.8,9.13,5,19,7.16,29.19,7.89,6.55.47,13.06-.28,19.57-1a5.92,5.92,0,0,0,1.41-.19c3.9-1.51,8.08-2.06,11.93-3.77,4.93-2.19,9.87-4.38,13.38-8.61,2.27-2.73,3.73-6.24,2.88-9.68A16.9,16.9,0,0,0,227.4,302c-4.45-3.21-14.13-6.49-19.58-8.21-3.43-1.07-7.11.26-10.22-1.81H181.12c-2.06,1.77-4.68.58-7,1.3s-5,1-7.21,1.88c-4.12,1.63-8.47,2.71-12.29,5.39C151.35,302.89,149.13,306.14,146,308.34ZM41.09,365.08c6.06-.19,10.06-.42,14.11-.9a67.5,67.5,0,0,0,19.7-5.63c3.62-1.6,7.22-3.51,9.66-6.71,2.59-3.39,4.55-6.94,2.55-11.68C85.7,336.82,84,334,81,332a50.83,50.83,0,0,0-11.15-5.65,83.87,83.87,0,0,0-19.19-4.27c-3.28-.42-6.65-.07-10-.07-2,0-4.42-.71-5.89.17-2.24,1.33-4.47.29-6.58,1.06S24,324.33,22,325c-4.38,1.46-8.84,2.65-12.83,5.22a47.86,47.86,0,0,0-7.64,6.82,8.6,8.6,0,0,0-2.35,8.4,16.8,16.8,0,0,0,6.25,9.35c6.82,4.77,14.73,7.17,22.68,9.05C32.91,365,38.07,364.83,41.09,365.08Zm46.74,7.7V353.17c-2.34,1.82-4.49,3.69-6.83,5.28a38,38,0,0,1-7.24,4.18A76.19,76.19,0,0,1,62.66,366a105.55,105.55,0,0,1-12.14,2,62.44,62.44,0,0,1-9,0c-2.87-.11-5.87.74-8.57-1-4.26.59-8.17-1-12.13-2.07s-7.91-2-11.24-4.08C6,358.63,1.9,356.85-.68,353a153.73,153.73,0,0,0-.16,17.94,12,12,0,0,0,1.78,4.72c2.38,4.06,6.08,6.28,10,8.39S19,387,23,388.54c4.17,1.66,8.67,1.47,13,2.31,3.69.72,7.63.28,11.45.11s7.71-.63,11.56-1c.17,0,.39.07.49,0,1.78-1.53,4.17-1.1,6.19-1.93s4.59-1.06,6.6-2.12c4.29-2.26,9-4,12.16-7.94A51.8,51.8,0,0,0,87.83,372.78ZM672,232.32c-4.14,5.24-9.26,7.8-14.29,10.29-3.41,1.7-7.31,2.49-11.07,3.34a106.26,106.26,0,0,1-12.14,2,62.58,62.58,0,0,1-9,0c-2.87-.11-5.87.74-8.57-1-4.25.58-8.17-1-12.12-2.07s-7.91-2-11.24-4.09c-3.6-2.2-7.67-4-10.27-7.88-.32,5.26-.31,10.36-.32,15.47,0,5.39,2.65,9.49,6.76,12.5a34.1,34.1,0,0,0,11.17,5.51c1.79.49,3.57,1,5.34,1.57a51.89,51.89,0,0,0,5.67,1.93c1.9.38,4.11-.24,5.8.48,2.15.91,4.19.52,6.25.53a108.54,108.54,0,0,0,15.58-.75,68.4,68.4,0,0,0,12-2.56,48.37,48.37,0,0,0,13.7-6.64c3.31-2.43,6.21-5.53,6.59-9.55C672.42,245.39,672,239.25,672,232.32ZM437,262.14c0,6.8-.09,12.58.06,18.35a9.8,9.8,0,0,0,1.39,4.39,18,18,0,0,0,9,8.15c2.14.85,4.12,2.1,6.27,2.93s4.56,1.1,6.6,2.12a20.42,20.42,0,0,0,6.71,1.8c2.37.29,4.73.8,7.07,1a77.45,77.45,0,0,0,13.45,0A102.79,102.79,0,0,0,500.19,299c5.22-1.11,15.55-5.22,19.52-8.29,3-2.29,5.77-5.25,6.12-8.88.61-6.2.17-12.52.17-20-1.45,1.77-2.11,2.7-2.88,3.51-3.33,3.47-7.74,5.33-11.85,7.55-2.13,1.14-4.73,1.41-7.11,2.08s-4.8,1.28-7.19,1.87-5.14-.17-7.54,1.13c-6.17-.54-12.46,1.18-18.55-1-4.25.58-8.13-1.14-12.13-2a43.08,43.08,0,0,1-11.6-4.48C443.61,268.51,440,266.48,437,262.14Zm-57,30.17c-4.14,5.25-9.27,7.81-14.29,10.31-3.41,1.69-7.31,2.48-11.07,3.33a106.26,106.26,0,0,1-12.14,2,62.58,62.58,0,0,1-9,0c-2.87-.11-5.87.74-8.57-1-4.25.58-8.17-1-12.13-2.07s-7.9-2.05-11.24-4.09c-3.59-2.2-7.66-4-10.26-7.87-.32,5.25-.31,10.36-.32,15.46,0,5.4,2.65,9.49,6.76,12.5a34.2,34.2,0,0,0,11.17,5.51c1.79.49,3.57,1,5.34,1.57a51.89,51.89,0,0,0,5.67,1.93c1.9.38,4.11-.24,5.8.48,2.15.9,4.19.52,6.25.53a107.11,107.11,0,0,0,15.58-.75,68.4,68.4,0,0,0,12-2.56,48,48,0,0,0,13.7-6.64c3.31-2.44,6.21-5.53,6.59-9.56C380.42,305.39,380,299.24,380,292.31ZM-58,382.18c-3.45,4.53-7.55,6.64-11.55,8.95-5.63,3.25-12,4.16-18.07,5.78a48.46,48.46,0,0,1-10,1c-3.48.17-7,0-10.48,0-1,0-2.24.39-2.94-.07-2.29-1.49-4.85-.36-7.09-1s-4.78-1.29-7.18-1.93a53.68,53.68,0,0,1-11.59-4.51A28.67,28.67,0,0,1-147,382.3c0,5.55.05,10.18,0,14.8-.08,6.21,2.33,10.82,7.71,14.27A51.86,51.86,0,0,0-129,416.56,69,69,0,0,0-105.85,421a108.52,108.52,0,0,0,15.58-.8,68.23,68.23,0,0,0,12-2.63A45.29,45.29,0,0,0-65,411.06c4.34-3.28,7.29-7,7.07-12.76C-58.15,393.33-58,388.35-58,382.18Zm203-58.81c0,5.31,0,10.61,0,15.92a9.8,9.8,0,0,0,.76,3.16,16.57,16.57,0,0,0,6.68,8.74,53.36,53.36,0,0,0,10.75,5.47,59.53,59.53,0,0,0,19.16,4.17c6,.29,12,.49,18.09-.6,5.73-1,11.34-2,16.78-4.19,7-2.79,13.6-5.92,16.77-14.2,0-5.58,0-11.89,0-18.2a.68.68,0,0,0-.25-.39,1,1,0,0,0-.35-.14c-4.54,5.07-10.29,8.29-16.59,10.54a86.49,86.49,0,0,1-20.17,4.25,58.09,58.09,0,0,1-15.42-.09,125.77,125.77,0,0,1-13.81-2.64,65.57,65.57,0,0,1-11.67-4.37C152,328.88,147.91,326.89,145,323.37Z" transform="translate(213.93 -198)"/><path class="cls-1" d="M-48.85,539.11-207.66,380.3l58.33-12.12a53,53,0,0,0-.64,5.71c-.07,8.33.12,16.67-.09,25a15.28,15.28,0,0,0,3.59,10c3.4,4.32,8.11,6.92,13.14,9.2,4.72,2.13,9.76,3,14.58,4.64a4.08,4.08,0,0,0,.89.25c3.69.35,7.38.81,11.09,1s7.79.65,11.46-.12c4.59-1,9.56-.21,13.8-2.83,4.35-.11,8.17-1.84,11.89-3.88s7.2-3.93,10.12-7A15.37,15.37,0,0,0-55,398.94c-.06-8.17-.19-16.34,0-24.5a15.32,15.32,0,0,0-3.38-10.1A28.8,28.8,0,0,0-71.87,355a34.53,34.53,0,0,1-4.21-2.25C-51,348.15-27.23,343-3,338.37c-1.59,3.39-.93,7.1-1,10.76-.07,6.5.11,13-.06,19.5-.13,4.64,1.75,8.31,4.75,11.54,2,2.11,3.84,4.4,6.93,5,2.66,3,6.54,3.6,10,4.76a93.83,93.83,0,0,0,14.68,3.33c5.77.95,11.44.32,17.12.79,2.95.24,5.58-1.28,8.6-1.17,2.53.08,5.11-1.16,7.66-1.86s5.59-1.09,8-2.36c4.89-2.57,9.87-5.09,13.64-9.42a13.37,13.37,0,0,0,3.54-8.51c.24-9.5.17-19,0-28.5,0-2.35-1.17-4.38-2.52-6.46a25.34,25.34,0,0,0-8.25-7.81A40.93,40.93,0,0,0,71,323.74v-1.09l71.58-14.24c-.19,2.28-.53,4.62-.55,7-.07,7.83.1,15.67-.08,23.5a15.22,15.22,0,0,0,3.91,10.38c3.51,4.2,8.27,6.59,13.24,8.94,4.73,2.22,9.91,2.57,14.52,4.81,3.46-.66,6.68,1.05,10.09,1s6.66,0,10,0a61.46,61.46,0,0,0,15.62-2.18c4.57-1.16,9.37-2.13,13.49-4.81,3.18-2.06,6.54-3.77,9.33-6.52a15.85,15.85,0,0,0,4.87-12c-.06-8-.19-16,0-24a15.19,15.19,0,0,0-3.37-10.1A28.79,28.79,0,0,0,220.15,295a34.14,34.14,0,0,1-4.23-2.24c25-4.57,48.84-9.77,73.1-14.36-1.46,2.88-1,6.08-1,9.24,0,3.33,0,6.67,0,10s-.1,6.67,0,10a22.3,22.3,0,0,0,.78,6.14,18.58,18.58,0,0,0,7.88,10.08,42.78,42.78,0,0,0,13.84,6.38c2.23.51,4.53,1.06,6.73,1.8s4.84.54,7.05,1.13c5.72,1.52,11.44.41,17.13.88,2.94.24,5.58-1.28,8.59-1.18,2.53.09,5.11-1.15,7.66-1.85s5.61-1.07,8-2.35c4.88-2.58,9.85-5.1,13.63-9.41a13.34,13.34,0,0,0,3.56-8.51c.24-9.5.17-19,0-28.5,0-2.33-1.12-4.39-2.5-6.47a25.14,25.14,0,0,0-8.25-7.81,46.14,46.14,0,0,0-8.37-4c-.44-.15-.71-.81-1.07-1.26l71.83-14.29c-.19,2.43-.53,4.93-.55,7.44-.08,7.5.18,15-.12,22.5a15.84,15.84,0,0,0,3.26,10.16c3.27,4.43,8,7.26,13,9.48,2.39,1.05,4.77,2.36,7.29,2.85a62.06,62.06,0,0,1,7.75,1.88,4.06,4.06,0,0,0,.88.27c3.7.35,7.39.81,11.09,1a62.86,62.86,0,0,0,11.48,0c8.19-1.16,16.45-2.26,24-5.93a41.52,41.52,0,0,0,11.43-7.49,15.73,15.73,0,0,0,4.9-12c-.06-8-.18-16,.05-24a15.11,15.11,0,0,0-3.35-10.12A29.49,29.49,0,0,0,512.17,235a36.65,36.65,0,0,1-4.25-2.23c25-4.59,48.84-9.75,73.06-14.38-1.48,3.21-.93,6.74-1,10.23,0,3.84,0,7.67,0,11.5,0,3.67-.18,7.35,0,11a13.88,13.88,0,0,0,3.94,8.33,29.81,29.81,0,0,0,7.08,5.73,54.23,54.23,0,0,0,11,4.85,107,107,0,0,0,14.21,3.21c5.77,1,11.44.34,17.13.81,3,.24,5.58-1.28,8.59-1.18,2.53.09,5.11-1.16,7.66-1.84,2.7-.73,5.61-1.07,8-2.34,4.89-2.58,9.85-5.13,13.64-9.42a13.33,13.33,0,0,0,3.57-8.51c.24-9.49.16-19,0-28.49,0-2.55-1.38-4.65-2.82-6.85a23,23,0,0,0-7.52-7.24,32.94,32.94,0,0,0-8.77-4.19c-.43-.11-.72-.79-1.29-1.46l8.54-1.39L821.67,359.69c-4.27,1.31-8.92,2.05-13.46,3.07-4.11.93-8.45,1.49-12.58,2.41-5.31,1.19-10.85,1.46-16,3.61-1.86.78-4,.5-6,1a75.75,75.75,0,0,1-8.77,1.81c-3,.37-6,1-8.9,1.57-3.39.71-6.92.81-10.19,1.89s-6.58,1.08-9.65,2.07c-4.76,1.55-9.93,1.19-14.49,3.62-1.74.93-4,.55-6,1a78.39,78.39,0,0,1-8.77,1.82A47.35,47.35,0,0,0,698,385.2c-5.23,1.74-10.83,1.68-15.91,3.8-2.36-.67-4.35,1-6.62,1.05a37.85,37.85,0,0,0-6.59,1c-3.51.77-7,1.59-10.53,2.38-2.25.51-4.59.89-6.85,1.45-5.91,1.48-12,2.09-17.89,3.9a26.61,26.61,0,0,1-6.51,1.16,48.43,48.43,0,0,0-7.52,1.34c-2.54.5-5.2.95-7.75,1.67-2.38.68-4.84,1-7.22,1.88-1.88.66-4,.25-6,1.1-1.85.77-4,.75-6,1.09s-3.72.67-5.59,1-3.91,1.13-6.08,1.13c-1.74,0-3.43,1.38-5.22,1.73-2,.38-4.05.23-6.08,1.05-1.86.75-4,.75-6,1.09-1.86.32-3.72.67-5.58,1-2,.36-3.92,1.53-6.09,1-4.37,2.78-9.7,2-14.4,3.84-2.06.79-4.69.4-7,1.1-2.11.63-4.46.46-6.55,1.12-3,.95-6.2,1.16-9.16,2-6,1.8-12.38,1.87-18.42,3.74-2.77.86-5.8,1-8.69,2-2.67.9-5.81.38-8.49,1.26-6.71,2.2-13.88,2.22-20.52,4.76-1.81.69-4,.58-6.05,1-4.73,1.09-9.53,1.82-14.27,3-2.87.7-5.81,1-8.69,2-2.66.91-6,.11-8.42,1.36-2.16,1.12-4.41.07-6.44,1.48-1.59,1.1-3.94.15-6,1.18-1.89.95-4.38.59-6.51,1.17a95.66,95.66,0,0,1-14.75,3.09,53.87,53.87,0,0,0-9.64,2c-1.58.48-3.16.42-4.61.91s-3.16.56-4.57,1c-4.35,1.46-9.09,1-13.3,2.89-5.95-.12-11.36,2.85-17.26,3-1.67,2.07-4.24.47-6.34,1.62s-4.58,1-6.91,1.37-4.54.29-6.56,1.09c-5.14,2-10.63,2.49-15.92,3.69-4.11.93-8.39,1.66-12.59,2.39a71.27,71.27,0,0,0-10.9,2.57c-1.95.67-4.26-.42-6,1.27-4-.08-7.77,1.38-11.65,2.1a69,69,0,0,0-10.81,2.79c-2.5.89-5.37.67-8,1.14-3.71.65-7.56,1-11,2.4-2.13.84-4.67-.51-6.35,1.57-4.67-.12-9.13,1.43-13.63,2.24-5.3,1-10.9,1.26-15.89,3.76-4.19-.19-8.13,1.29-12.15,2.08-5.51,1.09-11.15,1.7-16.48,3.63-1.94.71-4.26-.42-6,1.29-6,.29-11.87,2-17.7,3.24-5.29,1.14-10.65,2.35-15.95,3.54-4.1.92-8.3,2.16-12.62,2.22-.33,0-.75-.13-1,0-4.38,2.81-9.78,1.85-14.39,3.91-1.11.49-2.65-.06-4,.11-1.06.13-2,.74-3.1.94-2.18.41-4.6.23-6.53,1.13-2.52,1.18-5.2,1-7.75,1.81a71.82,71.82,0,0,1-8.23,1.8c-2.64.47-5.36.7-8,1.3-3.95.89-8,1.22-11.87,2.71-1.91.75-4,.49-6,1a68.39,68.39,0,0,1-8.79,1.78,54.52,54.52,0,0,0-8.85,1.63c-5.24,1.66-10.66,2.38-15.95,3.59-4.11.93-8.4,1.65-12.59,2.4a64.25,64.25,0,0,0-10.88,2.61c-1.9.7-4,0-6.06,1.09a14.32,14.32,0,0,1-6,1.06c-2.27.07-4.23,1.78-6.59,1.06-1.56,1.6-3.84.92-5.75,1.83-2.18,1.06-5,.77-7.5,1.2A27.67,27.67,0,0,0-48.85,539.11ZM756,317.89V305.41c0-6.33-3.88-12-9.46-15.55-3.71-2.39-7.73-3.91-11.6-5.84a20.85,20.85,0,0,0-3.07-1,17.66,17.66,0,0,0-3.08-1c-1.31-.17-2.76.28-4-.1A46.41,46.41,0,0,0,709.64,280c-2.49.06-5,0-7.49,0-.83,0-2-.35-2.44.06-1.44,1.27-3.07.76-4.63,1a46.06,46.06,0,0,0-5.08,1c-2.1.52-4.17,1.19-6.27,1.74a46.67,46.67,0,0,0-13,6c-5.92,3.74-9.88,8.44-9.74,15.9.14,7.82.18,15.65,0,23.47a16.64,16.64,0,0,0,5,12.42c4.57,4.82,10.48,7.31,16.56,9.45,2.79,1,5.94,1.24,8.56,2.27,3.1,1.22,6.52-.38,9.25,1.77,5.49,0,11.09.67,16.44-.21,4.41-.73,8.91-1.41,13.33-2.59,8.25-2.21,15.65-5.45,21.73-11.53a13.79,13.79,0,0,0,4.11-9.79C756.08,326.55,756,322.22,756,317.89ZM318,407.57c0-4.66.12-9.33-.06-14a10.72,10.72,0,0,0-1.38-5.38,28.51,28.51,0,0,0-9.43-9.36c-3.26-1.86-6.83-2.91-10-4.82a19.58,19.58,0,0,0-3.51-1.18c-2.39-.86-5.08-.07-7-1.06s-4,0-5.63-.89c-2.05-1.13-4.07-.8-6.13-.89a88.79,88.79,0,0,0-26.24,2.92c-7.94,2-17.38,6.34-22.36,12.36a13,13,0,0,0-3.16,8.16c-.13,9.32,0,18.64-.06,28,0,2.3,1,4.21,2,6.14,2.83,5.15,7.57,7.93,12.53,10.55a57,57,0,0,0,17.58,5.67c4.4.71,8.91,1.79,13.54,1.29,3.29-.35,6.8.54,9.95-.21,4.57-1.1,9.24-1.46,13.82-2.7,7.89-2.15,15-5.26,20.94-11a14.68,14.68,0,0,0,4.6-11.09C318,415.89,318,411.73,318,407.57ZM-69,467.51c0,4.5.11,9,0,13.49a11.77,11.77,0,0,0,1.53,5.87c3,5.74,8.29,9.35,13.95,11.79,3.45,1.48,7,3.1,11.06,3.6,2.84.34,5.66,1.62,8.7,1.78s5.94,1.24,9.08,1c5-.37,10-.05,15.09-.88,4.37-.73,8.57-1.9,12.85-2.83,5.13-1.11,9.59-3.61,13.81-6.43,5.39-3.59,9.23-8.3,9-15.45-.22-8-.18-16,0-24,.14-7.08-3.82-11.69-9-15.45-3.89-2.8-8.39-4.57-12.83-6.37A15.68,15.68,0,0,0,2.46,433a159.57,159.57,0,0,0-15.76-2.82,52.57,52.57,0,0,0-16.42,0c-4.58.75-9.23,1.56-13.8,2.68-6.57,1.61-15.55,6-20.25,10.3A15.82,15.82,0,0,0-69,456C-68.91,459.85-69,463.68-69,467.51ZM515,347.26c0,4,.17,8,0,12-.27,4.83,1.72,8.63,4.81,12,4.6,5,10.67,7.57,16.93,9.74,1.48.52,3.08.78,4.52,1.21s3,.26,4.06.92a6.53,6.53,0,0,0,4.65.82c1.74-.23,3,1,4.59,1.05,3.16,0,6.33.13,9.49,0s6.21.81,9.07-1c4.08.48,7.81-1.1,11.66-2a42.32,42.32,0,0,0,20.54-10.75A15.07,15.07,0,0,0,610,359.73c0-8-.17-16,0-24,.13-5-1.86-8.93-5.18-12.36-4.22-4.35-13.31-8.85-19.63-10.53-2.24-.59-4.73-.12-6.52-1.05-2.16-1.12-4.51.08-6.08-1-2.12-1.4-4.16-.85-6.16-.79-5,.15-10-.49-15.11.76-3.47.85-7.09,1.33-10.63,2.14-8.11,1.86-15.4,5.14-21.38,11.11A14.47,14.47,0,0,0,515,334.77C515,338.94,515,343.1,515,347.26ZM172,437.77c0-4.49,0-9,0-13.48a12.12,12.12,0,0,0-.5-3.28c-1.6-5.31-5.21-9-9.79-11.85-3.42-2.16-7.21-3.51-10.86-5.14-1-.44-2.06-.66-3.08-1-2.29-.82-5-.39-7-1.24-2.28-1-4.61.08-6.54-1.08-2.2-1.33-4.51-.65-6.72-.61-4.69.08-9.36-.37-14.11.75-3.48.83-7.09,1.35-10.62,2.15-8.48,1.91-16,5.42-22.1,11.8a13.06,13.06,0,0,0-3.62,9c-.2,9.16,0,18.31-.1,27.47A12.75,12.75,0,0,0,78.63,457c2.93,5.86,8.42,9.19,14,11.78a35.38,35.38,0,0,0,11.06,3.52c2.38.26,4.75,1.41,7.25,1.69,2.69.3,5.37.85,8.07.95a91.58,91.58,0,0,0,27.75-2.88c7.88-2.14,15-5.31,20.88-11.14A14.59,14.59,0,0,0,172,450.26C172,446.1,172,441.93,172,437.77Zm197-60.41c0,4.66-.12,9.33.06,14a12.68,12.68,0,0,0,1.3,5.42c3.18,5.85,8.57,9.51,14.36,12.05a76.15,76.15,0,0,0,11,3.66,77.63,77.63,0,0,0,14.42,2.38,84.43,84.43,0,0,0,28.24-2.72c8.25-2.23,15.65-5.5,21.68-11.64a13.32,13.32,0,0,0,3.9-9.37c.15-9.15.12-18.31,0-27.46a10.38,10.38,0,0,0-1.33-5.4,28.17,28.17,0,0,0-9.42-9.38c-3.53-2-7.32-3.29-10.9-5.09a7.94,7.94,0,0,0-1.68-.77,108.72,108.72,0,0,0-16.25-2.79c-6.09-.47-12.34-1-18.59.59-3.61.89-7.43,1.24-11.12,2.15-8,2-15.41,5.15-21.36,11.18A14.44,14.44,0,0,0,369,364.37C368.92,368.7,369,373,369,377.36Z" transform="translate(213.93 -198)"/><path class="cls-2" d="M823.9,362v49c-2.89.68-5.76,1.38-8.64,2-1.85.4-3.85.36-5.55,1.08-2.82,1.2-5.83,1.23-8.69,2-4.09,1.07-8.26,1.88-12.38,2.59s-8.06,1.65-12,2.53c-5.79,1.3-11.69,2.05-17.43,3.65-2.65.74-5.52,1.19-8.3,1.76s-5.63.82-8.4,1.45c-3.54.81-7.19,1.29-10.63,2.19s-7.05,1-10.39,2.59c-1.7.8-4,.64-6,1.09-4.73,1.06-9.52,1.88-14.26,3a82,82,0,0,0-8.7,2c-2.65.93-5.84.33-8.48,1.29s-5.21.92-7.76,1.75-5.37.66-8,1.15a19.45,19.45,0,0,0-5.3,1.65c-1.67.86-3.5-.43-5.14.94-1.46,1.22-3.94-.54-5.41,1.37-4.37-.25-8.43,1.47-12.65,2.15a68.87,68.87,0,0,0-10.89,2.57c-2,.66-4,0-6,1.15-1.66,1-4,.81-6,1.13-2.19.34-4.64.18-6.51,1.14s-4,.6-5.84,1.69c-1.44.83-3.63.4-5.53,1.06-2.37.81-5.35.15-7.46,1.28-2.4,1.28-5,.22-7.36,1.67-1.39.85-3.64.31-5.52,1.07s-4.13.46-6,1.17-3.89.41-5.58,1c-6.34,2.28-13.38,1.72-19.46,4.9-4.7-.28-9,1.86-13.67,2.11a32.27,32.27,0,0,0-10.5,2.32c-2.13.88-4.67-.51-6.35,1.57-4.67-.12-9.13,1.43-13.63,2.24-5.3,1-10.9,1.26-15.88,3.76-4.2-.19-8.13,1.29-12.16,2.08-5.51,1.08-11.15,1.71-16.48,3.63-1.94.7-4.25-.42-6,1.29-6,.3-11.88,2-17.71,3.23-5.29,1.14-10.65,2.36-15.94,3.55a105,105,0,0,1-12.61,2.31,37,37,0,0,0-9.07,2.21c-2.27.85-4.94-.31-6.79,1.7-2.66-.71-5.07.69-7.56,1.13-2.23.39-4.75.26-6.69,1.87-4.21-.22-8.16,1.22-12.15,2.1-4.59,1-9.45.74-13.79,2.87-4.26-.53-8,1.79-12.15,2.19A47.71,47.71,0,0,0,329.7,513c-2.7.78-5.66.44-8.18,2-4.26-.56-8,1.78-12.15,2.18a45.91,45.91,0,0,0-8.68,1.86c-2.7.82-5.67.42-8.18,2-4.27-.58-8,1.75-12.15,2.18a42.92,42.92,0,0,0-8.69,1.85c-2.68.86-5.67.4-8.17,2-5.66-.31-10.78,2.28-16.22,3.21-5.64,1-11.58,1.16-16.88,3.79-4.37-.26-8.48,1.32-12.65,2.14-7.5,1.49-15.24,2-22.45,4.86-4.36-.2-8.5,1.26-12.64,2.16-5.32,1.16-10.85,1.49-16,3.6-1.88.78-4,.5-6.05,1a69.19,69.19,0,0,1-8.77,1.8A47.91,47.91,0,0,0,143,551.2c-5.23,1.75-10.68,2.35-16,3.57a106.65,106.65,0,0,1-12.61,2.35c-3,.33-5.9,1.9-9.11,2.14-2.28.17-4.52,1.67-6.74,1.6-2.68-.09-5,1-7.58,1.26-2.24.24-4.58,1.45-6.71,1.68-4.29.45-8.45,1.52-12.62,2.34-7.5,1.48-15.23,2.05-22.45,4.86-4.36-.19-8.51,1.26-12.64,2.17-5.31,1.18-10.83,1.52-16,3.62-1.86.76-4,.09-6.06,1.1-1.76.87-4,.77-6,1.11-1.86.32-3.71.77-5.59,1-2.05.22-3.88,1.73-6.08,1-6.1,2.2-12.61,2.55-18.8,4.16-5.28,1.36-10.79,1.63-15.93,3.74-2.28.93-5,.7-7.54,1.13a18.92,18.92,0,0,0-3.07,1.06c-.72-4.12-.94-37.05-.32-49,2.64-.68,5.32-1.46,8-2.07,2-.45,4-.7,6.08-1,2.19-.34,4.75-.08,6.49-1.16s4.33.11,5.77-1.84c4.19.19,8.13-1.29,12.15-2.08,5.51-1.09,11.15-1.71,16.47-3.64,1.94-.7,4.26.42,6-1.28,6-.26,11.87-2,17.7-3.25,5.29-1.13,10.74-1.85,15.93-3.66,2.5-.87,5.38-.63,8-1.12,3.7-.67,7.36-1.53,11-2.36,2.12-.49,4.2-1.4,6.34-1.55,6-.4,11.68-3,17.75-3.06,3.34-1.87,7.25-1.6,10.81-2.86,2.13-.75,4.69-.25,7.06-1.05s5.12-.09,7-1.26c2.24-1.43,5,.33,6.78-1.83,4.25.52,8.09-1.52,12.13-2.23,3.58-.62,7.54-.59,10.8-2.77,4.26.6,8-1.73,12.15-2.17a42.39,42.39,0,0,0,8.69-1.85c2.67-.88,5.67-.39,8.17-2,4.26.6,8.09-1.5,12.13-2.21s8-1.16,11.85-2.63c2.14-.82,4.69-.07,7.07-1.06,2-.83,4.72-.17,6.44-1.25,2.09-1.33,4.37-.19,6.42-1.56,1.58-1.06,3.94-.63,6-1.13,6.07-1.47,12.33-2.07,18.33-4.08,2.52-.84,5.39-.6,8.05-1.11,5.38-1,10.74-2.2,16.1-3.37,2.13-.46,4.2-1.23,6.34-1.56a98.26,98.26,0,0,0,13.31-2.85,33.76,33.76,0,0,1,6.53-1.14c4-.32,7.57-2.37,11.6-2.21,1-1.41,2.43-.59,3.65-.86s2.38-.72,3.59-1c5.83-1.17,11.72-2,17.45-3.72a35.13,35.13,0,0,1,6.48-1.22c4.44-.45,8.79-1.52,13.13-2.31,5.14-.93,10.43-1.77,15.45-3.58,1.88-.68,4-.57,6-1,6.09-1.41,12.33-2.09,18.34-4.06,2.53-.83,5.39-.6,8.05-1.11,5.38-1,10.73-2.24,16.08-3.41,2.13-.47,4.22-1.13,6.36-1.54,2.34-.44,4.83-.37,7-1.11,2.05-.7,4.44-.33,6.2-1.91,3.85.06,7.46-1.28,11.18-2,5.42-1,10.85-2.08,16.2-3.25s10.89-1.37,15.89-3.79c4.36.18,8.48-1.34,12.64-2.16,5.65-1.12,11.5-1.46,16.95-3.65,1.85-.74,4-.15,6.06-1.09,1.8-.83,4-.76,6-1.1,1.86-.32,3.71-.72,5.59-1s4.1-.74,6-1.2c4.9-1.14,9.84-2,14.75-3,5.63-1.17,11.37-2,16.93-3.63,2.8-.84,5.8-1,8.69-2,2.66-.9,5.87-.28,8.48-1.28,4.71-1.8,9.82-1.7,14.47-3.69,1.79-.77,4-.24,6-1.1,1.85-.77,4-.75,6-1.09,1.86-.32,3.72-.68,5.59-1s3.91-1.13,6.08-1.13c1.74,0,3.44-1.57,5.21-1.68A50.4,50.4,0,0,0,626,403c5.83-1.17,11.75-1.87,17.41-3.83,1.91-.66,4-.1,6.07-1.07,1.78-.85,4-.77,6-1.11s3.72-.73,5.59-1c2-.28,4.11-.74,6-1.2,4.91-1.14,9.86-2,14.76-3,5.62-1.21,11.36-2,16.93-3.64,2.79-.83,5.8-1,8.69-2,2.67-.89,5.81-.38,8.49-1.26,6.71-2.2,13.94-2.06,20.48-4.87,4.4.49,8.32-1.81,12.64-2.19a70.71,70.71,0,0,0,15.6-3.29c2.12-.68,4.66.52,6.34-1.56,6.36-.93,12.61-2.38,18.89-3.79,4.11-.92,8.44-1.51,12.58-2.39,5.31-1.13,10.85-1.49,15.94-3.69,1-.42,2.3,0,3.44-.17A7.88,7.88,0,0,0,823.9,362Z" transform="translate(213.93 -198)"/><path class="cls-3" d="M-211,428.78c0-14.59,0-29.91,0-45.24,0-.12.2-.24.15-.17L-52.16,542.05v45.57Z" transform="translate(213.93 -198)"/><path class="cls-1" d="M584,218.4c3.18-2.61,5.59-6,9.15-8.18,3.88-2.43,8.12-3.79,12.37-5.12,2.2-.68,4.54-1,6.73-1.87s4.32.18,6.58-1c1.66-.91,4.23-.18,6.39-.18,3.16,0,6.37-.33,9.48.07,6.51.83,13,1.91,19.17,4.31,3.77,1.46,7.48,2.91,10.72,5.55s6.56,6.11,7.24,9.45c.77,3.8-.57,7.26-2.92,10.13-3.39,4.14-8.21,6.32-13,8.45-2,.89-4.12,1.3-6.14,2.06s-4.34.59-6.22,1.86c-.24.16-.63.09-1,.12-3.69.33-7.37.8-11.07,1s-7.33.15-11,0c-1.87-.08-3.71-.83-5.58-.9a28.68,28.68,0,0,1-5.6-1,40.72,40.72,0,0,1-5.73-1.85c-1.72-.68-3.66-.81-5.38-1.51s-3.17-2-4.88-2.68a16.52,16.52,0,0,1-8.91-8.2c-1.21-2.54-2.89-5.47-.54-8.48C584.27,220,584,219.08,584,218.4Z" transform="translate(213.93 -198)"/><path class="cls-1" d="M438.15,248.27c3.07-2.54,5.46-5.88,9.05-8.09,3.89-2.39,8.16-3.66,12.37-5.14s8.85-1.84,13.25-2.93c2.51-.62,5.32.11,8-.16,5.44-.55,10.86.24,16,1.25,8,1.56,15.89,4.19,22.71,8.93a15.35,15.35,0,0,1,6.36,9.78,11.62,11.62,0,0,1-3,9.67c-3.49,4.06-8.25,6.24-13,8.41-3.95,1.81-8.35,2.26-12.35,3.94a3.42,3.42,0,0,1-1,.07c-3.69.33-7.38.8-11.08,1s-7.43.6-11-.1c-4.75-.93-9.64-.84-14.32-2.71-4.28-1.71-8.72-2.93-12.91-5-3.87-2-7-4.59-8.83-8.32-1.14-2.34-2.77-5.15-.75-8.08C438.14,250.11,438,249.16,438.15,248.27Z" transform="translate(213.93 -198)"/><path class="cls-1" d="M292,278.33c3.25-2.48,5.52-5.69,8.89-7.92,3.86-2.53,8.18-3.63,12.3-5.34,2.13-.89,4.68-.78,6.8-1.68s4.94.61,6.91-1.39c4.5,0,9-.24,13.49.05,10.23.65,20,2.9,29.19,7.87a22.45,22.45,0,0,1,9,8.17c2.3,3.81,1.45,9.92-1.75,13.6-3.42,3.95-8.14,5.91-12.58,8.24-2,1.06-4.49,1.21-6.61,2.13s-4.42.36-6.19,1.93c-.1.08-.33,0-.49,0-3.86.33-7.71.8-11.58,1s-7.78.65-11.45-.12c-4.43-.93-9-.92-13.38-2.56-4-1.49-8.37-2.41-12.11-4.5-3.36-1.88-6.77-3.73-8.92-7.52-2-3.54-3.41-6.66-1.55-10.55C292.11,279.44,292,279.05,292,278.33Z" transform="translate(213.93 -198)"/><path class="cls-1" d="M-146,368.35c3.13-2.21,5.35-5.46,8.65-7.78,3.83-2.68,8.17-3.76,12.29-5.39,2.2-.88,4.85-1.13,7.22-1.88s4.9.47,7-1.3H-94.4c3.11,2.07,6.79.74,10.21,1.81,5.47,1.72,15.12,5,19.59,8.21a16.9,16.9,0,0,1,6.46,9.73c.85,3.44-.61,6.95-2.88,9.68-3.51,4.23-8.45,6.42-13.38,8.61-3.85,1.71-8,2.27-11.93,3.77a5.92,5.92,0,0,1-1.41.19c-6.51.71-13,1.45-19.57,1-10.23-.73-20.06-2.87-29.19-7.89-4.6-2.53-8.3-5.47-9.83-10.8-.61-2.13-1.34-3.89.28-5.83C-145.72,370.07-146,369.17-146,368.35Z" transform="translate(213.93 -198)"/><path class="cls-1" d="M146,308.34c3.13-2.2,5.35-5.45,8.66-7.77,3.82-2.68,8.17-3.76,12.29-5.39,2.19-.88,4.84-1.13,7.21-1.88s4.9.47,7-1.3H197.6c3.11,2.07,6.79.74,10.22,1.81,5.45,1.72,15.13,5,19.58,8.21a16.9,16.9,0,0,1,6.46,9.73c.85,3.44-.61,6.95-2.88,9.68-3.51,4.23-8.45,6.42-13.38,8.61-3.85,1.71-8,2.26-11.93,3.77a5.92,5.92,0,0,1-1.41.19c-6.51.7-13,1.45-19.57,1-10.23-.73-20.06-2.87-29.19-7.89-4.6-2.54-8.3-5.48-9.83-10.8-.61-2.13-1.34-3.89.28-5.83C146.28,310.07,146,309.17,146,308.34Z" transform="translate(213.93 -198)"/><path class="cls-1" d="M41.09,365.08c-3-.25-8.18-.07-13-1.22-7.95-1.88-15.86-4.28-22.68-9.05a16.8,16.8,0,0,1-6.25-9.35,8.6,8.6,0,0,1,2.35-8.4,47.86,47.86,0,0,1,7.64-6.82c4-2.57,8.45-3.76,12.83-5.22,2.06-.69,4.23-1,6.26-1.79s4.34.27,6.58-1.06c1.47-.88,3.89-.17,5.89-.17,3.33,0,6.7-.35,10,.07a83.87,83.87,0,0,1,19.19,4.27A50.83,50.83,0,0,1,81,332c3,2.05,4.69,4.83,6.1,8.17,2,4.74,0,8.29-2.55,11.68-2.44,3.2-6,5.11-9.66,6.71a67.5,67.5,0,0,1-19.7,5.63C51.15,364.66,47.15,364.89,41.09,365.08Z" transform="translate(213.93 -198)"/><path class="cls-2" d="M87.83,372.78A51.8,51.8,0,0,1,84.45,378c-3.18,3.91-7.87,5.68-12.16,7.94-2,1.06-4.47,1.24-6.6,2.12s-4.41.4-6.19,1.93c-.1.09-.32,0-.49,0-3.85.33-7.7.8-11.56,1s-7.76.61-11.45-.11c-4.31-.84-8.81-.65-13-2.31-4-1.59-8.27-2.47-12.09-4.54s-7.61-4.33-10-8.39a12,12,0,0,1-1.78-4.72A153.73,153.73,0,0,1-.68,353c2.58,3.9,6.7,5.68,10.29,7.9,3.33,2,7.39,3.06,11.24,4.08S28.72,367.59,33,367c2.7,1.71,5.7.86,8.57,1a62.44,62.44,0,0,0,9,0,105.55,105.55,0,0,0,12.14-2,76.19,76.19,0,0,0,11.1-3.32A38,38,0,0,0,81,358.45c2.34-1.59,4.49-3.46,6.83-5.28Z" transform="translate(213.93 -198)"/><path class="cls-2" d="M672,232.32c0,6.93.42,13.07-.15,19.13-.38,4-3.28,7.12-6.59,9.55a48.37,48.37,0,0,1-13.7,6.64,68.4,68.4,0,0,1-12,2.56A108.54,108.54,0,0,1,624,271c-2.06,0-4.1.38-6.25-.53-1.69-.72-3.9-.1-5.8-.48a51.89,51.89,0,0,1-5.67-1.93c-1.77-.57-3.55-1.08-5.34-1.57a34.1,34.1,0,0,1-11.17-5.51c-4.11-3-6.77-7.11-6.76-12.5,0-5.11,0-10.21.32-15.47,2.6,3.86,6.67,5.68,10.27,7.88,3.33,2,7.38,3.07,11.24,4.09S612.7,247.58,617,247c2.7,1.71,5.7.86,8.57,1a62.58,62.58,0,0,0,9,0,106.26,106.26,0,0,0,12.14-2c3.76-.85,7.66-1.64,11.07-3.34C662.74,240.12,667.86,237.56,672,232.32Z" transform="translate(213.93 -198)"/><path class="cls-2" d="M437,262.14c2.95,4.34,6.61,6.37,10.15,8.35a43.08,43.08,0,0,0,11.6,4.48c4,.89,7.88,2.61,12.13,2,6.09,2.18,12.38.46,18.55,1,2.4-1.3,5.12-.52,7.54-1.13s4.81-1.19,7.19-1.87,5-.94,7.11-2.08c4.11-2.22,8.52-4.08,11.85-7.55.77-.81,1.43-1.74,2.88-3.51,0,7.49.44,13.81-.17,20-.35,3.63-3.15,6.59-6.12,8.88-4,3.07-14.3,7.18-19.52,8.29a102.79,102.79,0,0,1-12.66,1.87,77.45,77.45,0,0,1-13.45,0c-2.34-.21-4.7-.72-7.07-1a20.42,20.42,0,0,1-6.71-1.8c-2-1-4.45-1.28-6.6-2.12s-4.13-2.08-6.27-2.93a18,18,0,0,1-9-8.15,9.8,9.8,0,0,1-1.39-4.39C436.91,274.72,437,268.94,437,262.14Z" transform="translate(213.93 -198)"/><path class="cls-2" d="M380,292.31c0,6.93.42,13.08-.15,19.13-.38,4-3.28,7.12-6.59,9.56a48,48,0,0,1-13.7,6.64,68.4,68.4,0,0,1-12,2.56A107.11,107.11,0,0,1,332,331c-2.06,0-4.1.37-6.25-.53-1.69-.72-3.9-.1-5.8-.48a51.89,51.89,0,0,1-5.67-1.93c-1.77-.57-3.55-1.08-5.34-1.57a34.2,34.2,0,0,1-11.17-5.51c-4.11-3-6.77-7.1-6.76-12.5,0-5.1,0-10.21.32-15.46,2.6,3.85,6.67,5.67,10.26,7.87,3.34,2,7.39,3.07,11.24,4.09S320.7,307.58,325,307c2.7,1.71,5.7.86,8.57,1a62.58,62.58,0,0,0,9,0,106.26,106.26,0,0,0,12.14-2c3.76-.85,7.66-1.64,11.07-3.33C370.73,300.12,375.86,297.56,380,292.31Z" transform="translate(213.93 -198)"/><path class="cls-2" d="M-58,382.18c0,6.17-.15,11.15,0,16.12.22,5.77-2.73,9.48-7.07,12.76a45.29,45.29,0,0,1-13.29,6.49,68.23,68.23,0,0,1-12,2.63,108.52,108.52,0,0,1-15.58.8A69,69,0,0,1-129,416.56a51.86,51.86,0,0,1-10.34-5.19c-5.38-3.45-7.79-8.06-7.71-14.27.06-4.62,0-9.25,0-14.8a28.67,28.67,0,0,0,10.06,8.16A53.68,53.68,0,0,0-125.35,395c2.4.64,4.8,1.22,7.18,1.93s4.8-.46,7.09,1c.7.46,2,.07,2.94.07,3.5,0,7,.13,10.48,0a48.46,48.46,0,0,0,10-1c6.1-1.62,12.44-2.53,18.07-5.78C-65.55,388.82-61.45,386.71-58,382.18Z" transform="translate(213.93 -198)"/><path class="cls-2" d="M145,323.37c2.91,3.52,7,5.51,10.73,7.43a65.57,65.57,0,0,0,11.67,4.37,125.77,125.77,0,0,0,13.81,2.64,58.09,58.09,0,0,0,15.42.09,86.49,86.49,0,0,0,20.17-4.25c6.3-2.25,12-5.47,16.59-10.54a1,1,0,0,1,.35.14.68.68,0,0,1,.25.39c0,6.31,0,12.62,0,18.2-3.17,8.28-9.78,11.41-16.77,14.2-5.44,2.16-11,3.16-16.78,4.19-6.11,1.09-12.12.89-18.09.6a59.53,59.53,0,0,1-19.16-4.17,53.36,53.36,0,0,1-10.75-5.47,16.57,16.57,0,0,1-6.68-8.74,9.8,9.8,0,0,1-.76-3.16C145,334,145,328.68,145,323.37Z" transform="translate(213.93 -198)"/><path d="M756,317.89c0,4.33.08,8.66,0,13a13.79,13.79,0,0,1-4.11,9.79c-6.08,6.08-13.48,9.32-21.73,11.53-4.42,1.18-8.92,1.86-13.33,2.59-5.35.88-10.95.21-16.44.21-2.73-2.15-6.15-.55-9.25-1.77-2.62-1-5.77-1.29-8.56-2.27-6.08-2.14-12-4.63-16.56-9.45a16.64,16.64,0,0,1-5-12.42c.2-7.82.16-15.65,0-23.47-.14-7.46,3.82-12.16,9.74-15.9a46.67,46.67,0,0,1,13-6c2.1-.55,4.17-1.22,6.27-1.74a46.06,46.06,0,0,1,5.08-1c1.56-.2,3.19.31,4.63-1,.47-.41,1.61-.06,2.44-.06,2.5,0,5,.05,7.49,0a46.41,46.41,0,0,1,15.17,1.95c1.22.38,2.67-.07,4,.1a17.66,17.66,0,0,1,3.08,1,20.85,20.85,0,0,1,3.07,1c3.87,1.93,7.89,3.45,11.6,5.84,5.58,3.59,9.45,9.22,9.46,15.55Zm-90.89-18.63a4.56,4.56,0,0,1-.13,1.48c-1.88,3.91-.4,7,1.57,10.55,2.14,3.82,5.6,5.6,8.92,7.51,3.72,2.13,8.1,3,12.12,4.49,4.39,1.65,8.95,1.64,13.39,2.56,3.67.75,7.63.28,11.45.11s7.72-.63,11.57-1c.17,0,.4.07.49,0,1.78-1.54,4.18-1.1,6.2-1.94s4.59-1.06,6.61-2.12c4.44-2.33,9.22-4.26,12.55-8.29,2.43-2.95,4-6.59,2.94-10.11a16.51,16.51,0,0,0-7-9.65c-5.58-3.51-11.26-5.88-20.71-8A77.56,77.56,0,0,0,706.36,283c-2.16.05-4.75-.73-6.39.19-2.35,1.31-4.74.26-7,1.23-2.11.92-4.68.77-6.81,1.66-4.1,1.73-8.44,2.81-12.28,5.37C670.51,293.68,668.22,296.88,665.11,299.26Zm87.54,14.59a46.84,46.84,0,0,1-4.8,4.7,66,66,0,0,1-6,3.46c-5.72,3.35-12.24,4.28-18.5,5.9a49.37,49.37,0,0,1-10,1c-3.49.17-7,0-10.48,0a9.88,9.88,0,0,1-3,0c-4.48-1.51-9.28-1.31-13.76-2.9a82.31,82.31,0,0,1-12.83-5.21,35.46,35.46,0,0,1-9.23-7.44c0,5.83.08,10.79,0,15.75-.11,5.45,2.56,9.67,6.55,12.7,5.45,4.15,12,6.36,18.59,8a82,82,0,0,0,18.09,2.26c5.59.12,11-1.13,16.56-1.13a2.69,2.69,0,0,0,.92-.18c3.89-1.51,8.06-2.07,11.91-3.76a55,55,0,0,0,10.94-6.11c2.64-2,4-4.91,5.46-7.73q0-9.21,0-18.45A4.88,4.88,0,0,0,752.65,313.85Z" transform="translate(213.93 -198)"/><path d="M318,407.57c0,4.16,0,8.32,0,12.48a14.68,14.68,0,0,1-4.6,11.09c-5.92,5.76-13,8.87-20.94,11-4.58,1.24-9.25,1.6-13.82,2.7-3.15.75-6.66-.14-9.95.21-4.63.5-9.14-.58-13.54-1.29a57,57,0,0,1-17.58-5.67c-5-2.62-9.7-5.4-12.53-10.55-1.06-1.93-2.06-3.84-2-6.14,0-9.33-.07-18.65.06-28a13,13,0,0,1,3.16-8.16c5-6,14.42-10.34,22.36-12.36A88.79,88.79,0,0,1,274.81,370c2.06.09,4.08-.24,6.13.89,1.59.88,3.61-.15,5.63.89s4.64.2,7,1.06a19.58,19.58,0,0,1,3.51,1.18c3.19,1.91,6.76,3,10,4.82a28.51,28.51,0,0,1,9.43,9.36,10.72,10.72,0,0,1,1.38,5.38C318.12,398.24,318,402.91,318,407.57Zm-91-18.2c0,.84.27,1.72-.05,2.13-1.55,1.95-.84,3.69-.23,5.82,1.54,5.34,5.28,8.22,9.83,10.81,8.34,4.73,17.45,6.6,26.73,7.78a60.47,60.47,0,0,0,13,0,92.26,92.26,0,0,0,12.18-1.81A62.52,62.52,0,0,0,304.87,408c2.68-1.47,5.37-3.06,7.14-5.59,2.1-3,3.83-6.33,2.7-10.12a16.67,16.67,0,0,0-5.62-8.63c-5.75-4.4-12.56-6.62-19.4-8.59A67.8,67.8,0,0,0,279,373.18c-5.58-.67-11.3-.18-17-.18-2,1.81-4.67.56-6.94,1.32s-4.62.9-6.78,1.73c-4.16,1.61-8.45,2.8-12.32,5.26C232.62,383.49,230.32,386.68,227,389.37Zm-1,15c0,5.46-.16,10.94.08,16.39a13.94,13.94,0,0,0,2.09,6.11c2.09,3.7,5.38,5.69,8.82,7.63,3.93,2.21,8.37,3.12,12.5,4.74,4.54,1.78,9.25,1.73,13.84,2.64,3.68.73,7.63.28,11.45.11s7.38-.62,11.06-1a3.52,3.52,0,0,0,.9-.24c3.92-1.42,8.1-2,11.93-3.73,4.42-2,9-3.9,12.3-7.58a47.17,47.17,0,0,0,4-5.83c0-6.61,0-12.77,0-18.92a.7.7,0,0,0-.22-.4,1.33,1.33,0,0,0-.34-.22c-4.54,5.07-10.27,8.31-16.59,10.56a89.74,89.74,0,0,1-20.16,4.27,55.75,55.75,0,0,1-14.43-.06c-4.76-.72-9.57-1.4-14.31-2.59a69,69,0,0,1-12.16-4.45C233,410,229,407.85,226,404.34Z" transform="translate(213.93 -198)"/><path d="M-69,467.51c0-3.83.09-7.66,0-11.48a15.82,15.82,0,0,1,5.25-12.85c4.7-4.33,13.68-8.69,20.25-10.3,4.57-1.12,9.22-1.93,13.8-2.68a52.57,52.57,0,0,1,16.42,0A159.57,159.57,0,0,1,2.46,433a15.68,15.68,0,0,1,1.72.67c4.44,1.8,8.94,3.57,12.83,6.37,5.21,3.76,9.17,8.37,9,15.45-.17,8-.21,16,0,24,.2,7.15-3.64,11.86-9,15.45-4.22,2.82-8.68,5.32-13.81,6.43-4.28.93-8.48,2.1-12.85,2.83-5.06.83-10.07.51-15.09.88-3.14.22-6.05-.86-9.08-1s-5.86-1.44-8.7-1.78c-4-.5-7.61-2.12-11.06-3.6-5.66-2.44-10.91-6.05-13.95-11.79A11.77,11.77,0,0,1-69,481C-68.89,476.51-69,472-69,467.51Zm4-18.17c0,.9.2,1.53,0,1.88-2.25,3.4-.39,6.31,1,9.27,2,4.27,6,6.38,9.87,8.51s8.1,2.92,12.11,4.5c4.17,1.64,8.66,1.55,13,2.36,3.7.69,7.64.27,11.46.1s7.72-.63,11.57-1c.17,0,.4.07.49,0,1.78-1.55,4.18-1.09,6.2-1.94s4.59-1.06,6.61-2.12c4.44-2.32,9.14-4.32,12.57-8.26,3.21-3.69,4-9.74,1.72-13.6a20.89,20.89,0,0,0-9-8.13c-6.65-3.31-10.69-4.41-17.49-6.06A72.36,72.36,0,0,0-23.63,433c-2.16,0-4.74-.73-6.39.19-2.36,1.3-4.74.26-7,1.23-2.12.9-4.68.77-6.81,1.66-4.11,1.72-8.44,2.81-12.29,5.36C-59.49,443.67-61.77,446.87-65,449.34ZM-66,463v16.53a7.78,7.78,0,0,0,0,2,21.08,21.08,0,0,0,1.43,4.39A19.17,19.17,0,0,0-56,494a56.79,56.79,0,0,0,6.26,3c2.31.85,4.9,1.07,7.1,2.13a16.45,16.45,0,0,0,6.7,1.75c2.64,0,5,1.11,7.56,1.15,3.66.05,7.33.14,11,0s7.38-.63,11.06-1a2.73,2.73,0,0,0,1-.11c3.59-1.86,7.7-2.05,11.44-3.71a72.65,72.65,0,0,0,10.67-5.51c3.11-2,5.79-5.18,6.14-8.82.59-6.21.16-12.52.16-19.91-3.34,4.88-7.52,6.85-11.5,9.16a31.52,31.52,0,0,1-8.2,3.12C.46,476-2.32,477-5.17,477.63a89.72,89.72,0,0,1-8.94,1.22,62.34,62.34,0,0,1-13.45.06A94.08,94.08,0,0,1-40.22,477a63.29,63.29,0,0,1-14-4.8C-58.33,470.19-62.46,468-66,463Z" transform="translate(213.93 -198)"/><path d="M515,347.26c0-4.16,0-8.32,0-12.49a14.47,14.47,0,0,1,4.37-10.69c6-6,13.27-9.25,21.38-11.11,3.54-.81,7.16-1.29,10.63-2.14,5.08-1.25,10.08-.61,15.11-.76,2-.06,4-.61,6.16.79,1.57,1,3.92-.16,6.08,1,1.79.93,4.28.46,6.52,1.05,6.32,1.68,15.41,6.18,19.63,10.53,3.32,3.43,5.31,7.34,5.18,12.36-.22,8-.08,16,0,24a15.07,15.07,0,0,1-4.73,11.54A42.32,42.32,0,0,1,584.74,382c-3.85.88-7.58,2.46-11.66,2-2.86,1.78-6,.82-9.07,1s-6.33,0-9.49,0c-1.58,0-2.85-1.28-4.59-1.05a6.53,6.53,0,0,1-4.65-.82c-1-.66-2.67-.51-4.06-.92s-3-.69-4.52-1.21c-6.26-2.17-12.33-4.72-16.93-9.74-3.09-3.38-5.08-7.18-4.81-12C515.17,355.26,515,351.26,515,347.26Zm4-17.94c0,.65.11,1,0,1.3-1.75,3.87-.68,7.07,1.51,10.58,2,3.18,4.72,5,7.68,6.8,4,2.43,8.55,3.48,12.87,5.12,4.67,1.78,9.55,1.88,14.31,2.74,3.7.68,7.64.27,11.46.1s7.38-.62,11.07-1a4.11,4.11,0,0,0,.89-.26c3.94-1.39,8.1-2,12-3.72,4.78-2.1,9.42-4.36,13.06-8.27,2-2.18,2.59-5,3.16-7.67.44-2.11-.87-4.38-2.3-7-3.14-5.76-8.78-7.8-14.28-10a89.77,89.77,0,0,0-9.24-3A66.25,66.25,0,0,0,571,313.18c-5.58-.67-11.3-.18-17-.18-2,1.84-4.66.55-6.93,1.36s-4.64.85-6.79,1.7c-4.15,1.62-8.43,2.85-12.31,5.3C524.53,323.53,522.31,326.79,519,329.32Zm-1,14.91c0,5.62,0,11.24,0,16.86a11.17,11.17,0,0,0,.73,2.18c1.26,5.41,5.14,8.29,9.72,10.83,4.13,2.29,8.63,3.33,12.89,5.07,4.53,1.84,9.26,2.2,13.81,2.62a78,78,0,0,0,25.62-1.73c5.69-1.36,15.06-4.77,19.6-8.09,3.15-2.31,6.06-5.37,6.44-9.19.61-6.2.16-12.51.16-19.41a34.15,34.15,0,0,1-13.65,9.76c-3.16,1.28-6.21,3-9.79,2.87-4.61,2.45-9.81,2.48-14.73,2.85a81.06,81.06,0,0,1-28.23-2.71,66.86,66.86,0,0,1-11.7-4.3C525.13,349.94,521.14,347.88,518,344.23Z" transform="translate(213.93 -198)"/><path d="M172,437.77c0,4.16,0,8.33,0,12.49a14.59,14.59,0,0,1-4.38,10.68c-5.87,5.83-13,9-20.88,11.14A91.58,91.58,0,0,1,119,475c-2.7-.1-5.38-.65-8.07-.95-2.5-.28-4.87-1.43-7.25-1.69A35.38,35.38,0,0,1,92.6,468.8c-5.55-2.59-11-5.92-14-11.78A12.75,12.75,0,0,1,77,451.21c.07-9.16-.1-18.31.1-27.47a13.06,13.06,0,0,1,3.62-9c6.08-6.38,13.62-9.89,22.1-11.8,3.53-.8,7.14-1.32,10.62-2.15,4.75-1.12,9.42-.67,14.11-.75,2.21,0,4.52-.72,6.72.61,1.93,1.16,4.26.11,6.54,1.08,2,.85,4.68.42,7,1.24,1,.36,2.1.58,3.08,1,3.65,1.63,7.44,3,10.86,5.14,4.58,2.89,8.19,6.54,9.79,11.85a12.12,12.12,0,0,1,.5,3.28C172,428.78,172,433.28,172,437.77ZM81.11,419.25a4.63,4.63,0,0,1-.13,1.49c-1.87,3.9-.42,7,1.57,10.55,2.14,3.81,5.59,5.61,8.92,7.51,3.72,2.13,8.1,3,12.11,4.49,4.39,1.67,9,1.63,13.39,2.55,3.67.77,7.63.29,11.46.12s7.71-.63,11.57-1c.16,0,.39.07.49,0,1.78-1.55,4.17-1.1,6.19-1.94s4.59-1.06,6.61-2.12c4.45-2.32,9.22-4.26,12.55-8.28,2.45-2.95,4-6.59,3-10.12a15.86,15.86,0,0,0-7.07-9.62c-7.56-4.46-12.37-6.16-20.69-8A77,77,0,0,0,122.36,403c-2.16.05-4.74-.73-6.39.19-2.35,1.31-4.74.26-7,1.23-2.11.91-4.68.77-6.8,1.66-4.11,1.73-8.45,2.81-12.29,5.37C86.51,413.67,84.23,416.87,81.11,419.25ZM80,433c0,6.89-.09,12.67.06,18.44a9.89,9.89,0,0,0,1.37,4.4,20.81,20.81,0,0,0,8.93,8.23c4.16,2.16,8.62,3.35,12.87,5.08,4.54,1.86,9.28,1.5,13.84,2.69,2.8.74,6,.27,8.94.1,2.73-.16,5.47.53,8.22-.6s5.6-.49,8.46-1.19a62.73,62.73,0,0,0,20-8.45c3.22-2.13,5.92-5.37,6.23-9.3.47-6.07.12-12.2.12-19.11-4.15,5.26-9.28,7.84-14.31,10.33-3.41,1.69-7.32,2.47-11.09,3.31a107.76,107.76,0,0,1-12.14,2,62.44,62.44,0,0,1-9,0c-2.88-.11-5.88.74-8.57-1-4.26.58-8.19-1-12.13-2.08a53.7,53.7,0,0,1-11.61-4.42C86.63,439.54,82.91,437.55,80,433Z" transform="translate(213.93 -198)"/><path d="M369,377.36c0-4.33-.08-8.66,0-13a14.44,14.44,0,0,1,4.27-10.22c5.95-6,13.32-9.19,21.36-11.18,3.69-.91,7.51-1.26,11.12-2.15,6.25-1.54,12.5-1.06,18.59-.59A108.72,108.72,0,0,1,440.61,343a7.94,7.94,0,0,1,1.68.77c3.58,1.8,7.37,3.07,10.9,5.09a28.17,28.17,0,0,1,9.42,9.38,10.38,10.38,0,0,1,1.33,5.4c.13,9.15.16,18.31,0,27.46a13.32,13.32,0,0,1-3.9,9.37c-6,6.14-13.43,9.41-21.68,11.64a84.43,84.43,0,0,1-28.24,2.72,77.63,77.63,0,0,1-14.42-2.38,76.15,76.15,0,0,1-11-3.66c-5.79-2.54-11.18-6.2-14.36-12.05a12.68,12.68,0,0,1-1.3-5.42C368.88,386.69,369,382,369,377.36Zm4-18c0,.69.11,1.07,0,1.34-1.75,3.87-.62,7,1.52,10.58,2.31,3.84,5.84,5.67,9.32,7.72,3.74,2.21,8.08,3,12.11,4.51s8.65,1.59,13,2.39c3.7.68,7.64.27,11.46.1s7.72-.63,11.57-1c.17,0,.4.07.49,0,1.77-1.59,4.19-1.55,6.2-1.8,2.46-.32,4.1-2.6,6.64-2.19,4.34-2.53,9.21-4.28,12.53-8.31,2.42-2.93,3.93-6.51,3.06-10.11a16.82,16.82,0,0,0-5.82-9c-4.28-3.46-15.5-7.59-21.41-8.68-2.38-.43-5.07-.08-7-1-3.14-1.55-6.14-.49-9.17-.77s-6.57-.8-9.41.17c-2.37.81-4.72.27-7,1.15s-4.66.8-6.8,1.68c-4.12,1.7-8.44,2.81-12.3,5.33C378.53,353.59,376.28,356.83,373,359.32Zm88,14c-4.15,5.26-9.27,7.84-14.31,10.33-3.41,1.68-7.32,2.47-11.08,3.31-4,.89-8.09,1.94-12.14,1.92-5.84,0-11.8,1.27-17.55-.87-4.25.58-8.19-1-12.12-2.08a54,54,0,0,1-11.62-4.42c-3.54-2-7.28-3.94-10.18-8.49,0,6.9-.09,12.68.06,18.45a9.93,9.93,0,0,0,1.36,4.39,21.31,21.31,0,0,0,8.94,8.23,67.66,67.66,0,0,0,29.17,7.83,84.31,84.31,0,0,0,17.07-.71,76.14,76.14,0,0,0,12-2.57A46.65,46.65,0,0,0,454.28,402c3.28-2.45,6.23-5.51,6.58-9.57C461.39,386.36,461,380.22,461,373.31Z" transform="translate(213.93 -198)"/><path class="cls-1" d="M665.11,299.26c3.11-2.38,5.4-5.58,8.76-7.82,3.84-2.56,8.18-3.64,12.28-5.37,2.13-.89,4.7-.74,6.81-1.66,2.27-1,4.66.08,7-1.23,1.64-.92,4.23-.14,6.39-.19A77.56,77.56,0,0,1,725,284.87c9.45,2.13,15.13,4.5,20.71,8a16.51,16.51,0,0,1,7,9.65c1.07,3.52-.51,7.16-2.94,10.11-3.33,4-8.11,6-12.55,8.29-2,1.06-4.48,1.23-6.61,2.12s-4.42.4-6.2,1.94c-.09.08-.32,0-.49,0-3.85.33-7.71.8-11.57,1s-7.78.64-11.45-.11c-4.44-.92-9-.91-13.39-2.56-4-1.52-8.4-2.36-12.12-4.49-3.32-1.91-6.78-3.69-8.92-7.51-2-3.54-3.45-6.64-1.57-10.55A4.56,4.56,0,0,0,665.11,299.26Z" transform="translate(213.93 -198)"/><path class="cls-2" d="M752.65,313.85a4.88,4.88,0,0,1,.34.91q0,9.24,0,18.45c-1.49,2.82-2.82,5.76-5.46,7.73a55,55,0,0,1-10.94,6.11c-3.85,1.69-8,2.25-11.91,3.76a2.69,2.69,0,0,1-.92.18c-5.54,0-11,1.25-16.56,1.13a82,82,0,0,1-18.09-2.26c-6.55-1.64-13.14-3.85-18.59-8-4-3-6.66-7.25-6.55-12.7.1-5,0-9.92,0-15.75a35.46,35.46,0,0,0,9.23,7.44,82.31,82.31,0,0,0,12.83,5.21c4.48,1.59,9.28,1.39,13.76,2.9a9.88,9.88,0,0,0,3,0c3.49,0,7,.13,10.48,0a49.37,49.37,0,0,0,10-1c6.26-1.62,12.78-2.55,18.5-5.9a66,66,0,0,0,6-3.46A46.84,46.84,0,0,0,752.65,313.85Z" transform="translate(213.93 -198)"/><path class="cls-1" d="M227,389.37c3.35-2.69,5.65-5.88,9.06-8.06,3.87-2.46,8.16-3.65,12.32-5.26,2.16-.83,4.57-1,6.78-1.73s4.9.49,6.94-1.32c5.66,0,11.38-.49,17,.18a67.8,67.8,0,0,1,10.66,1.88c6.84,2,13.65,4.19,19.4,8.59a16.67,16.67,0,0,1,5.62,8.63c1.13,3.79-.6,7.14-2.7,10.12-1.77,2.53-4.46,4.12-7.14,5.59a62.52,62.52,0,0,1-16.47,6.11,92.26,92.26,0,0,1-12.18,1.81,60.47,60.47,0,0,1-13,0c-9.28-1.18-18.39-3.05-26.73-7.78-4.55-2.59-8.29-5.47-9.83-10.81-.61-2.13-1.32-3.87.23-5.82C227.24,391.09,227,390.21,227,389.37Z" transform="translate(213.93 -198)"/><path class="cls-2" d="M226,404.34c3,3.51,7,5.69,10.78,7.46a69,69,0,0,0,12.16,4.45c4.74,1.19,9.55,1.87,14.31,2.59a55.75,55.75,0,0,0,14.43.06,89.74,89.74,0,0,0,20.16-4.27c6.32-2.25,12.05-5.49,16.59-10.56a1.33,1.33,0,0,1,.34.22.7.7,0,0,1,.22.4c0,6.15,0,12.31,0,18.92a47.17,47.17,0,0,1-4,5.83c-3.34,3.68-7.88,5.55-12.3,7.58-3.83,1.75-8,2.31-11.93,3.73a3.52,3.52,0,0,1-.9.24c-3.68.35-7.36.81-11.06,1s-7.77.62-11.45-.11c-4.59-.91-9.3-.86-13.84-2.64-4.13-1.62-8.57-2.53-12.5-4.74-3.44-1.94-6.73-3.93-8.82-7.63a13.94,13.94,0,0,1-2.09-6.11C225.84,415.28,226,409.8,226,404.34Z" transform="translate(213.93 -198)"/><path class="cls-1" d="M-65,449.34c3.23-2.47,5.51-5.67,8.87-7.91,3.85-2.55,8.18-3.64,12.29-5.36,2.13-.89,4.69-.76,6.81-1.66,2.27-1,4.65.07,7-1.23,1.65-.92,4.23-.15,6.39-.19a72.36,72.36,0,0,1,18.68,1.89c6.8,1.65,10.84,2.75,17.49,6.06a20.89,20.89,0,0,1,9,8.13c2.29,3.86,1.49,9.91-1.72,13.6-3.43,3.94-8.13,5.94-12.57,8.26-2,1.06-4.49,1.23-6.61,2.12s-4.42.39-6.2,1.94c-.09.08-.32,0-.49,0-3.85.33-7.71.8-11.57,1s-7.76.59-11.46-.1c-4.32-.81-8.81-.72-13-2.36-4-1.58-8.29-2.42-12.11-4.5S-62,464.76-64,460.49c-1.42-3-3.28-5.87-1-9.27C-64.8,450.87-65,450.24-65,449.34Z" transform="translate(213.93 -198)"/><path class="cls-2" d="M-66,463c3.54,5,7.67,7.19,11.8,9.23a63.29,63.29,0,0,0,14,4.8,94.08,94.08,0,0,0,12.66,1.88,62.34,62.34,0,0,0,13.45-.06,89.72,89.72,0,0,0,8.94-1.22C-2.32,477,.46,476,3.3,475.22a31.52,31.52,0,0,0,8.2-3.12c4-2.31,8.16-4.28,11.5-9.16,0,7.39.43,13.7-.16,19.91-.35,3.64-3,6.78-6.14,8.82A72.65,72.65,0,0,1,6,497.18c-3.74,1.66-7.85,1.85-11.44,3.71a2.73,2.73,0,0,1-1,.11c-3.68.33-7.37.8-11.06,1s-7.32.08-11,0c-2.55,0-4.92-1.11-7.56-1.15a16.45,16.45,0,0,1-6.7-1.75c-2.2-1.06-4.79-1.28-7.1-2.13A56.79,56.79,0,0,1-56,494a19.17,19.17,0,0,1-8.51-8.08A21.08,21.08,0,0,1-66,481.52a7.78,7.78,0,0,1,0-2Z" transform="translate(213.93 -198)"/><path class="cls-1" d="M519,329.32c3.31-2.53,5.53-5.79,9-8,3.88-2.45,8.16-3.68,12.31-5.3,2.15-.85,4.6-.92,6.79-1.7s4.91.48,6.93-1.36c5.66,0,11.38-.49,17,.18A66.25,66.25,0,0,1,581.12,315a89.77,89.77,0,0,1,9.24,3c5.5,2.22,11.14,4.26,14.28,10,1.43,2.63,2.74,4.9,2.3,7-.57,2.71-1.14,5.49-3.16,7.67-3.64,3.91-8.28,6.17-13.06,8.27-3.85,1.69-8,2.33-12,3.72a4.11,4.11,0,0,1-.89.26c-3.69.35-7.37.81-11.07,1s-7.76.58-11.46-.1c-4.76-.86-9.64-1-14.31-2.74-4.32-1.64-8.86-2.69-12.87-5.12-3-1.8-5.7-3.62-7.68-6.8-2.19-3.51-3.26-6.71-1.51-10.58C519.11,330.35,519,330,519,329.32Z" transform="translate(213.93 -198)"/><path class="cls-2" d="M518,344.23c3.14,3.65,7.13,5.71,10.9,7.61a66.86,66.86,0,0,0,11.7,4.3,81.06,81.06,0,0,0,28.23,2.71c4.92-.37,10.12-.4,14.73-2.85,3.58.12,6.63-1.59,9.79-2.87A34.15,34.15,0,0,0,607,343.37c0,6.9.45,13.21-.16,19.41-.38,3.82-3.29,6.88-6.44,9.19-4.54,3.32-13.91,6.73-19.6,8.09a78,78,0,0,1-25.62,1.73c-4.55-.42-9.28-.78-13.81-2.62-4.26-1.74-8.76-2.78-12.89-5.07-4.58-2.54-8.46-5.42-9.72-10.83a11.17,11.17,0,0,1-.73-2.18C518,355.47,518,349.85,518,344.23Z" transform="translate(213.93 -198)"/><path class="cls-1" d="M81.11,419.25c3.12-2.38,5.4-5.58,8.76-7.81,3.84-2.56,8.18-3.64,12.29-5.37,2.12-.89,4.69-.75,6.8-1.66,2.27-1,4.66.08,7-1.23,1.65-.92,4.23-.14,6.39-.19A77,77,0,0,1,141,404.87c8.32,1.88,13.13,3.58,20.69,8a15.86,15.86,0,0,1,7.07,9.62c1.06,3.53-.51,7.17-3,10.12-3.33,4-8.1,6-12.55,8.28-2,1.06-4.48,1.23-6.61,2.12s-4.41.39-6.19,1.94c-.1.08-.33,0-.49,0-3.86.33-7.71.8-11.57,1s-7.79.65-11.46-.12c-4.43-.92-9-.88-13.39-2.55-4-1.53-8.39-2.36-12.11-4.49-3.33-1.9-6.78-3.7-8.92-7.51-2-3.54-3.44-6.65-1.57-10.55A4.63,4.63,0,0,0,81.11,419.25Z" transform="translate(213.93 -198)"/><path class="cls-2" d="M80,433c2.91,4.53,6.63,6.52,10.18,8.48a53.7,53.7,0,0,0,11.61,4.42c3.94,1.11,7.87,2.66,12.13,2.08,2.69,1.71,5.69.86,8.57,1a62.44,62.44,0,0,0,9,0,107.76,107.76,0,0,0,12.14-2c3.77-.84,7.68-1.62,11.09-3.31,5-2.49,10.16-5.07,14.31-10.33,0,6.91.35,13-.12,19.11-.31,3.93-3,7.17-6.23,9.3a62.73,62.73,0,0,1-20,8.45c-2.86.7-5.82.11-8.46,1.19s-5.49.44-8.22.6c-3,.17-6.14.64-8.94-.1-4.56-1.19-9.3-.83-13.84-2.69-4.25-1.73-8.71-2.92-12.87-5.08a20.81,20.81,0,0,1-8.93-8.23,9.89,9.89,0,0,1-1.37-4.4C79.91,445.69,80,439.91,80,433Z" transform="translate(213.93 -198)"/><path class="cls-1" d="M373,359.32c3.28-2.49,5.53-5.73,8.93-7.93,3.86-2.52,8.18-3.63,12.3-5.33,2.14-.88,4.64-.85,6.8-1.68s4.62-.34,7-1.15c2.84-1,6.27-.45,9.41-.17s6-.78,9.17.77c1.94.95,4.63.6,7,1,5.91,1.09,17.13,5.22,21.41,8.68a16.82,16.82,0,0,1,5.82,9c.87,3.6-.64,7.18-3.06,10.11-3.32,4-8.19,5.78-12.53,8.31-2.54-.41-4.18,1.87-6.64,2.19-2,.25-4.43.21-6.2,1.8-.09.08-.32,0-.49,0-3.85.33-7.7.8-11.57,1s-7.76.58-11.46-.1c-4.31-.8-8.78-.79-13-2.39s-8.37-2.3-12.11-4.51c-3.48-2-7-3.88-9.32-7.72-2.14-3.55-3.27-6.71-1.52-10.58C373.11,360.39,373,360,373,359.32Z" transform="translate(213.93 -198)"/><path class="cls-2" d="M461,373.31c0,6.91.39,13.05-.14,19.11-.35,4.06-3.3,7.12-6.58,9.57a46.65,46.65,0,0,1-13.69,6.64,76.14,76.14,0,0,1-12,2.57,84.31,84.31,0,0,1-17.07.71,67.66,67.66,0,0,1-29.17-7.83,21.31,21.31,0,0,1-8.94-8.23,9.93,9.93,0,0,1-1.36-4.39c-.15-5.77-.06-11.55-.06-18.45,2.9,4.55,6.64,6.53,10.18,8.49a54,54,0,0,0,11.62,4.42c3.93,1.11,7.87,2.66,12.12,2.08,5.75,2.14,11.71.84,17.55.87,4,0,8.14-1,12.14-1.92,3.76-.84,7.67-1.63,11.08-3.31C451.73,381.15,456.85,378.57,461,373.31Z" transform="translate(213.93 -198)"/></svg>